<svg xmlns="http://www.w3.org/2000/svg" xmlns:xlink="http://www.w3.org/1999/xlink" width="240" zoomAndPan="magnify" viewBox="0 0 180 37.5" height="50" preserveAspectRatio="xMidYMid meet" version="1.0"><defs><clipPath id="8b0b50b8ea"><path d="M 2.003906 1.234375 L 178.152344 1.234375 L 178.152344 35.765625 L 2.003906 35.765625 Z M 2.003906 1.234375 " clip-rule="nonzero"/></clipPath></defs><g clip-path="url(#8b0b50b8ea)"><path fill="#cdc1de" d="M 90.039062 1.003906 C 94.6875 1.003906 90.039062 12.25 90.039062 12.25 C 90.039062 12.25 85.390625 1.003906 90.039062 1.003906 Z M 90.039062 18.042969 C 94.515625 28.425781 102.183594 26.894531 102.183594 26.894531 C 101.648438 28.644531 99.441406 28.75 99.441406 28.75 C 94.53125 32.25 91.503906 23.398438 91.503906 23.398438 C 91.796875 28.097656 95.472656 30.9375 95.472656 30.9375 C 94.519531 31.921875 92.078125 30.9375 92.078125 30.9375 C 92.078125 30.9375 92.839844 35.746094 90.039062 35.746094 C 87.238281 35.746094 88 30.9375 88 30.9375 C 88 30.9375 85.558594 31.921875 84.605469 30.9375 C 84.605469 30.9375 88.28125 28.097656 88.578125 23.398438 C 88.578125 23.398438 85.550781 32.25 80.640625 28.75 C 80.640625 28.75 78.433594 28.644531 77.894531 26.894531 C 77.894531 26.894531 85.566406 28.425781 90.039062 18.042969 Z M 27.03125 10.660156 C 27.03125 10.660156 26.535156 10.660156 25.714844 10.660156 C 26.171875 10.636719 26.617188 10.632812 27.03125 10.660156 Z M 14.132812 16.210938 C 10.886719 20.15625 7.984375 20.085938 7.984375 20.085938 L 9.179688 17.253906 C 3.96875 18.628906 2.003906 11.429688 2.003906 11.429688 C 2.003906 11.429688 4.824219 14.0625 8.582031 14.0625 C 12.339844 14.0625 19.003906 10.660156 21.90625 10.660156 C 23.445312 10.660156 24.789062 10.660156 25.714844 10.660156 C 22.003906 10.851562 17.023438 12.703125 14.132812 16.210938 Z M 27.179688 11.4375 C 27.273438 11.4375 27.363281 11.429688 27.457031 11.433594 C 27.457031 11.433594 27.355469 11.433594 27.179688 11.4375 Z M 27.179688 11.4375 C 27.03125 11.441406 26.828125 11.453125 26.585938 11.472656 C 26.777344 11.453125 26.972656 11.441406 27.179688 11.4375 Z M 22.929688 18.484375 C 24.808594 18.484375 25.664062 16.578125 25.664062 16.578125 C 25.664062 16.578125 27.488281 19.253906 25.152344 21.292969 C 22.988281 23.183594 17.292969 21.808594 18.746094 16.578125 C 19.886719 12.464844 24.613281 11.640625 26.585938 11.472656 C 21.355469 12.03125 21.144531 18.484375 22.929688 18.484375 Z M 30.960938 12.386719 C 29.679688 12.671875 27.03125 12.386719 27.03125 12.386719 C 27.03125 12.386719 30.105469 11.066406 31.558594 10.660156 C 32.597656 10.367188 35.589844 10.535156 37.089844 10.625 C 35.242188 10.796875 32.039062 12.140625 30.960938 12.386719 Z M 37.964844 10.660156 C 38.042969 10.683594 37.683594 10.660156 37.089844 10.625 C 37.433594 10.59375 37.734375 10.597656 37.964844 10.660156 Z M 41.207031 10.539062 C 39.5 10.539062 37.277344 8.316406 37.277344 8.316406 C 37.277344 8.316406 42.175781 6.660156 47.015625 10.539062 C 47.355469 10.8125 42.914062 10.539062 41.207031 10.539062 Z M 37.964844 12.386719 C 33.351562 16.28125 28.566406 16.210938 28.566406 16.210938 C 28.566406 16.210938 31.386719 14.074219 32.582031 12.957031 C 33.777344 11.839844 37.964844 12.386719 37.964844 12.386719 Z M 36.765625 18.363281 C 34.5 23.511719 36.253906 28.742188 36.253906 28.742188 C 31.046875 27.589844 32.667969 20.351562 32.667969 20.351562 C 31.046875 21.554688 28.566406 20.347656 28.566406 20.347656 C 30.617188 20.433594 34.714844 16.738281 38.21875 13.785156 C 41.71875 10.835938 50.519531 11.496094 50.519531 11.496094 C 50.519531 11.496094 39.035156 13.214844 36.765625 18.363281 Z M 49.40625 12.957031 C 45.8125 15.574219 42.832031 17.941406 43.34375 15.652344 C 43.855469 13.363281 49.40625 12.957031 49.40625 12.957031 Z M 68.796875 13.472656 C 69.136719 16.136719 70.257812 18.484375 70.257812 18.484375 C 64.546875 13.246094 68.453125 10.808594 68.796875 13.472656 Z M 68.796875 25.078125 C 68.796875 25.078125 66.316406 27.097656 65.121094 28.453125 C 63.925781 29.804688 60.339844 26.023438 68.796875 25.078125 Z M 67.855469 20.953125 C 67.855469 20.953125 64.523438 21.550781 61.878906 18.886719 C 59.230469 16.222656 56.410156 14.933594 53.847656 14.933594 C 51.285156 14.933594 49.492188 19.746094 53.082031 23.183594 C 53.082031 23.183594 50.5 22.296875 50.089844 17.941406 C 49.683594 13.589844 55.042969 13.128906 57.265625 14.417969 C 59.484375 15.707031 62.988281 20.523438 67.855469 20.953125 Z M 80.886719 17.527344 C 79.578125 16.160156 81.207031 14.96875 81.207031 14.96875 C 81.148438 16.28125 82.652344 16.816406 83.15625 15.964844 C 83.566406 15.265625 83.210938 13.851562 81.394531 14.085938 C 79.582031 14.324219 78.957031 18.304688 82.1875 18.363281 C 84.179688 18.398438 85.542969 16.773438 86.300781 15.515625 C 84.230469 19.167969 81.265625 20.417969 78.386719 21.046875 C 74.472656 21.902344 71.691406 18.703125 71.351562 15.652344 C 71.011719 12.601562 72.0625 10.253906 74.132812 10.140625 C 76.207031 10.023438 76.289062 11.050781 76.289062 11.050781 C 75.777344 11.050781 74.585938 11.28125 74.585938 12.765625 C 74.585938 14.25 76.042969 14.890625 77.3125 13.679688 C 78.488281 12.554688 78.105469 9.738281 74.417969 9.625 C 70.730469 9.511719 69.140625 13.621094 70.257812 17.21875 C 71.375 20.816406 78.222656 23.59375 83.324219 20.019531 C 85.972656 18.164062 87.167969 15.683594 87.707031 13.726562 C 87.140625 16.652344 86.191406 18.195312 84.234375 20.132812 C 81.164062 23.167969 77.847656 23.023438 74.605469 23.085938 C 74.480469 22.859375 70.160156 21.808594 67.429688 17.425781 C 64.695312 13.042969 64.269531 11.667969 62.304688 11.152344 C 62.304688 11.152344 62.988281 14.761719 62.988281 15.019531 C 62.988281 15.277344 60.082031 7.777344 52.394531 10.539062 C 52.394531 10.539062 54.445312 11.238281 54.957031 12.269531 C 54.957031 12.269531 48.039062 11.410156 46.164062 18.972656 L 47.957031 17.769531 C 47.957031 17.769531 46.589844 26.367188 56.753906 23.53125 C 56.753906 23.53125 52.992188 21.378906 52.992188 18.886719 C 52.992188 16.394531 56.925781 16.0625 59.058594 19.496094 C 61.195312 22.929688 64.953125 22.84375 64.953125 22.84375 C 64.953125 22.84375 58.632812 22.914062 57.777344 28.453125 L 59.058594 27.914062 C 59.058594 27.914062 58.035156 33.988281 61.535156 33.988281 C 65.035156 33.988281 64.523438 29.289062 61.960938 29.375 C 61.960938 29.375 64.371094 31.953125 61.960938 31.953125 C 59.554688 31.953125 58.878906 22.835938 71.90625 23.527344 C 71.90625 23.527344 71.910156 23.527344 71.914062 23.527344 C 70.226562 24.3125 69.980469 26.003906 70.5 27.269531 C 71.183594 28.925781 73.960938 28.8125 74.246094 27.097656 C 74.53125 25.386719 72.429688 25.558594 72.375 26.414062 C 72.316406 27.269531 72.886719 27.5 72.886719 27.5 C 72.375 28.128906 70.898438 27.785156 70.898438 26.070312 C 70.898438 24.359375 72.316406 23.730469 75.269531 23.730469 C 78.21875 23.730469 80.941406 23.617188 84.117188 20.988281 C 87.003906 18.605469 87.96875 14.296875 88.121094 11.386719 C 88.160156 10.855469 88.148438 10.539062 88.148438 10.539062 C 87.789062 12.097656 87.332031 13.417969 86.800781 14.546875 C 85.726562 16.546875 82.332031 19.035156 80.886719 17.527344 Z M 154.441406 10.660156 C 153.621094 10.660156 153.125 10.660156 153.125 10.660156 C 153.539062 10.632812 153.980469 10.636719 154.441406 10.660156 Z M 170.976562 17.253906 L 172.171875 20.085938 C 172.171875 20.085938 169.265625 20.15625 166.023438 16.210938 C 163.132812 12.703125 158.152344 10.851562 154.441406 10.660156 C 155.367188 10.660156 156.710938 10.660156 158.25 10.660156 C 161.152344 10.660156 167.816406 14.0625 171.574219 14.0625 C 175.332031 14.0625 178.152344 11.429688 178.152344 11.429688 C 178.152344 11.429688 176.183594 18.628906 170.976562 17.253906 Z M 152.976562 11.4375 C 153.179688 11.441406 153.378906 11.453125 153.570312 11.472656 C 153.324219 11.453125 153.125 11.441406 152.976562 11.4375 Z M 152.976562 11.4375 C 152.800781 11.433594 152.699219 11.433594 152.699219 11.433594 C 152.792969 11.429688 152.882812 11.4375 152.976562 11.4375 Z M 161.410156 16.578125 C 162.863281 21.808594 157.167969 23.183594 155.003906 21.292969 C 152.667969 19.253906 154.492188 16.578125 154.492188 16.578125 C 154.492188 16.578125 155.347656 18.484375 157.222656 18.484375 C 159.007812 18.484375 158.800781 12.03125 153.570312 11.472656 C 155.542969 11.640625 160.269531 12.464844 161.410156 16.578125 Z M 142.191406 10.660156 C 142.417969 10.597656 142.722656 10.59375 143.066406 10.625 C 142.472656 10.660156 142.113281 10.683594 142.191406 10.660156 Z M 149.195312 12.386719 C 148.117188 12.140625 144.914062 10.796875 143.066406 10.625 C 144.566406 10.535156 147.558594 10.367188 148.597656 10.660156 C 150.050781 11.066406 153.125 12.386719 153.125 12.386719 C 153.125 12.386719 150.476562 12.671875 149.195312 12.386719 Z M 133.140625 10.539062 C 137.980469 6.660156 142.875 8.316406 142.875 8.316406 C 142.875 8.316406 140.65625 10.539062 138.949219 10.539062 C 137.238281 10.539062 132.800781 10.8125 133.140625 10.539062 Z M 147.574219 12.957031 C 148.769531 14.074219 151.585938 16.210938 151.585938 16.210938 C 151.585938 16.210938 146.804688 16.28125 142.191406 12.386719 C 142.191406 12.386719 146.378906 11.839844 147.574219 12.957031 Z M 151.585938 20.347656 C 151.585938 20.347656 149.109375 21.554688 147.488281 20.351562 C 147.488281 20.351562 149.109375 27.589844 143.898438 28.742188 C 143.898438 28.742188 145.65625 23.511719 143.386719 18.363281 C 141.121094 13.214844 129.636719 11.496094 129.636719 11.496094 C 129.636719 11.496094 138.433594 10.835938 141.9375 13.785156 C 145.4375 16.738281 149.539062 20.433594 151.585938 20.347656 Z M 136.8125 15.652344 C 137.324219 17.941406 134.339844 15.574219 130.746094 12.957031 C 130.746094 12.957031 136.300781 13.363281 136.8125 15.652344 Z M 109.898438 18.484375 C 109.898438 18.484375 111.019531 16.136719 111.359375 13.472656 C 111.703125 10.808594 115.605469 13.246094 109.898438 18.484375 Z M 130.066406 17.941406 C 129.65625 22.296875 127.074219 23.183594 127.074219 23.183594 C 130.664062 19.746094 128.867188 14.933594 126.308594 14.933594 C 123.746094 14.933594 120.925781 16.222656 118.277344 18.886719 C 115.628906 21.550781 112.300781 20.953125 112.300781 20.953125 C 117.167969 20.523438 120.671875 15.707031 122.890625 14.417969 C 125.109375 13.128906 130.472656 13.589844 130.066406 17.941406 Z M 127.757812 10.539062 C 120.070312 7.777344 117.167969 15.277344 117.167969 15.019531 C 117.167969 14.761719 117.851562 11.152344 117.851562 11.152344 C 115.886719 11.667969 115.460938 13.042969 112.726562 17.425781 C 109.992188 21.808594 105.675781 22.859375 105.550781 23.085938 C 102.3125 23.023438 98.992188 23.167969 95.921875 20.132812 C 93.964844 18.195312 93.015625 16.652344 92.449219 13.726562 C 92.988281 15.683594 94.183594 18.164062 96.832031 20.019531 C 101.933594 23.59375 108.78125 20.816406 109.898438 17.21875 C 111.015625 13.621094 109.425781 9.511719 105.738281 9.625 C 102.050781 9.738281 101.667969 12.554688 102.84375 13.679688 C 104.113281 14.890625 105.566406 14.25 105.566406 12.765625 C 105.566406 11.28125 104.378906 11.050781 103.867188 11.050781 C 103.867188 11.050781 103.949219 10.023438 106.023438 10.140625 C 108.09375 10.253906 109.144531 12.601562 108.800781 15.652344 C 108.460938 18.703125 105.683594 21.902344 101.765625 21.046875 C 98.890625 20.417969 95.921875 19.167969 93.855469 15.515625 C 94.609375 16.773438 95.976562 18.398438 97.964844 18.363281 C 101.199219 18.304688 100.574219 14.324219 98.761719 14.085938 C 96.945312 13.851562 96.589844 15.265625 97 15.964844 C 97.503906 16.816406 99.007812 16.28125 98.953125 14.96875 C 98.953125 14.96875 100.578125 16.160156 99.269531 17.527344 C 97.820312 19.035156 94.429688 16.546875 93.351562 14.546875 C 92.820312 13.417969 92.367188 12.097656 92.007812 10.539062 C 92.007812 10.539062 91.992188 10.855469 92.035156 11.386719 C 92.1875 14.296875 93.152344 18.605469 96.035156 20.988281 C 99.214844 23.617188 101.9375 23.730469 104.886719 23.730469 C 107.835938 23.730469 109.257812 24.359375 109.257812 26.070312 C 109.257812 27.785156 107.78125 28.128906 107.269531 27.5 C 107.269531 27.5 107.835938 27.269531 107.78125 26.414062 C 107.722656 25.558594 105.625 25.386719 105.910156 27.097656 C 106.191406 28.8125 108.972656 28.925781 109.652344 27.269531 C 110.175781 26.003906 109.929688 24.3125 108.242188 23.527344 C 108.242188 23.527344 108.246094 23.527344 108.246094 23.527344 C 121.277344 22.835938 120.601562 31.953125 118.191406 31.953125 C 115.785156 31.953125 118.191406 29.375 118.191406 29.375 C 115.628906 29.289062 115.117188 33.988281 118.621094 33.988281 C 122.121094 33.988281 121.097656 27.914062 121.097656 27.914062 L 122.378906 28.453125 C 121.523438 22.914062 115.203125 22.84375 115.203125 22.84375 C 115.203125 22.84375 118.960938 22.929688 121.097656 19.496094 C 123.230469 16.0625 127.160156 16.394531 127.160156 18.886719 C 127.160156 21.378906 123.402344 23.53125 123.402344 23.53125 C 133.566406 26.367188 132.199219 17.769531 132.199219 17.769531 L 133.992188 18.972656 C 132.113281 11.410156 125.195312 12.269531 125.195312 12.269531 C 125.707031 11.238281 127.757812 10.539062 127.757812 10.539062 Z M 111.359375 25.078125 C 111.359375 25.078125 113.835938 27.097656 115.035156 28.453125 C 116.230469 29.804688 119.816406 26.023438 111.359375 25.078125 " fill-opacity="1" fill-rule="nonzero"/></g></svg>