<svg xmlns="http://www.w3.org/2000/svg" viewBox="0 0 2800 1900"><g data-name="Layer 1"><ellipse cx="1413.74" cy="1770.809" opacity=".15" rx="361.062" ry="74.191"/><path fill="#212021" d="M1657.16 843.638c-13.691 19.012-35.008 27.96-35.008 27.96-5.084 67.374-76.254 54.665-114.38 63.544-38.127 8.913-85.133-2.542-85.133-2.542s-34.33 11.455-120.751 6.372-88.963-85.167-88.963-85.167c-20.605-3.016-34.398-9.794-43.481-18.368-20.64-19.487-16.945-48.192-13.082-63.172a82.616 82.616 0 0 1 3.186-9.964s-16.505-2.542-26.672-40.668a16.545 16.545 0 0 1-.407-1.763c-5.862-28.332 29.587-52.902 47.04-63.103 5.558-3.22 9.286-5.016 9.286-5.016-.305-1.966-.576-3.864-.711-5.728-1.627-17.182 2.575-29.518 8.879-38.296 12.268-17.182 32.5-20.808 32.5-20.808s265.6-12.71 332.974 10.167c17.42 5.93 28.637 13.183 35.686 20.74 13.828 14.777 11.659 30.57 8.88 39.076a34.432 34.432 0 0 1-2.644 6.27 135.828 135.828 0 0 1 12.607 6.54c25.96 15.319 34.094 33.383 35.145 48.735 1.254 18.945-8.338 33.687-8.338 33.687a143.495 143.495 0 0 1 10.371 14.573c21.554 34.399 15.42 59.748 3.016 76.931Z"/><path fill="#353535" d="M1132.47 719.87c-5.863-28.332 29.586-52.902 47.04-63.103 22.503 16.572 51.716 43.312 38.194 62.968-18.098 26.299-62.392 33.484-85.235.135ZM1188.084 646.023c-1.627-17.182 2.575-29.518 8.879-38.296 13.827 8.507 35.754 24.198 33.145 36.703-2.474 11.794-25.926 6.643-42.024 1.593ZM1169.444 835.437c-20.64-19.487-16.945-48.192-13.082-63.172 17.488.576 52.191 3.626 77.541 17.996 30.23 17.182 6.541 53.241-64.459 45.176ZM1581.822 653.954c-1.864-12.065 6.846-25.486 16.301-36.127 13.828 14.776 11.659 30.569 8.88 39.075-12.2 5.795-23.52 7.896-25.181-2.948ZM1590.396 734.037c6.541-36.703 17.59-55.106 26.57-64.325 25.96 15.319 34.094 33.383 35.145 48.735-27.079 26.163-70.56 65.171-61.715 15.59ZM1657.16 843.638c-44.26 3.999-90.013 3.796-75.338-27.62 11.59-24.842 44.26-40.432 72.322-49.31 21.554 34.398 15.42 59.747 3.016 76.93Z"/><path fill="#e5a488" d="M1271.692 792.64c15.257-20.994 24.031-47.953 25.355-81.769h202.255c-1.313 27.43 5.88 54.688 21.773 81.769 0 0 .6 65.895-13.718 65.895s-207.625-8.949-207.625-8.949Z"/><path d="M1271.692 792.64c15.257-20.994 24.031-47.953 25.355-81.769h202.255c-1.313 27.43 5.88 54.688 21.773 81.769 0 0 .6 65.895-13.718 65.895s-207.625-8.949-207.625-8.949Z" style="mix-blend-mode:soft-light" opacity=".3"/><path d="M1507.357 858.551c-8.019 0-72.359-2.832-127.312-5.282 21.829-3.341 40.38-8.082 52.153-13.81 46.52-22.688 50.116-66.822 50.116-66.822-96.478 56.505-161.912 14.865-189.233-29.401a183.677 183.677 0 0 0 3.978-32.361h202.247c-1.305 27.429 5.887 54.698 21.765 81.777 0 0 .605 65.899-13.714 65.899Z" style="mix-blend-mode:soft-light" opacity=".3"/><path fill="#212021" d="M1581.076 500.462a339.705 339.705 0 0 1-3.365 38.292c-5.873 40.01-20.88 88.26-57.97 115.254-71.124 51.72-245.687-2.885-245.687-2.885-1.237-2.507-51.617-74.626-50.484-156.053a177.961 177.961 0 0 1 4.499-37.914s100.59-100.212 254.307-98.048c0 0-17.618 23.353-20.469 33.415 0 0 19.026 5.323 49.145 24.246q6.8 4.276 14.39 9.513a449.692 449.692 0 0 1 55.05 45.71 2.212 2.212 0 0 1 .31.275 281.163 281.163 0 0 1 .274 28.195Z"/><path fill="#e5a488" d="M1287.698 688.664c-9.682 6.559-20.746 4.039-30.566-3.365-19.26-14.463-33.758-47.583-23.8-67.5 3.918-7.8 8.854-11.304 14.05-12.202 14.807-2.554 31.583 16.086 31.583 16.086s37.383 47.565 8.733 66.981Z"/><path d="M1287.698 688.664c-9.682 6.559-20.746 4.039-30.566-3.365 10.045.725 15.085-3.607 8.975-11.201-8.008-9.941-29.375-28.633-27.666-41.007 1.691-12.392 19.658.241 19.658.241.517-14.86-5.247-23.195-10.718-27.735 14.808-2.554 31.584 16.086 31.584 16.086s37.383 47.565 8.733 66.981Z" style="mix-blend-mode:soft-light" opacity=".3"/><path fill="#cc7d64" d="M1280.745 662.127c-3.73-3.793-6.841-7.473-9.9-11.04-3.028-3.564-5.95-7.005-9.017-10.055a61.263 61.263 0 0 0-9.68-8.168 50.399 50.399 0 0 0-12.824-5.363 20.86 20.86 0 0 1 15.926-2.363 31.08 31.08 0 0 1 14.131 8.477 40.073 40.073 0 0 1 8.59 13.223 35.019 35.019 0 0 1 2.774 15.29Z"/><path fill="#e5a488" d="M1518.192 688.664c9.682 6.559 20.745 4.039 30.565-3.365 19.261-14.463 33.759-47.583 23.8-67.5-3.918-7.8-8.853-11.304-14.049-12.202-14.807-2.554-31.583 16.086-31.583 16.086s-37.383 47.565-8.733 66.981Z"/><path d="M1518.192 688.664c9.682 6.559 20.745 4.039 30.565-3.365-10.044.725-15.084-3.607-8.974-11.201 8.008-9.941 29.374-28.633 27.666-41.007-1.692-12.392-19.658.241-19.658.241-.518-14.86 5.246-23.195 10.717-27.735-14.807-2.554-31.583 16.086-31.583 16.086s-37.383 47.565-8.733 66.981Z" style="mix-blend-mode:soft-light" opacity=".3"/><path fill="#cc7d64" d="M1525.145 662.127a35.019 35.019 0 0 1 2.773-15.29 40.074 40.074 0 0 1 8.59-13.222 31.076 31.076 0 0 1 14.132-8.477 20.859 20.859 0 0 1 15.926 2.363 50.395 50.395 0 0 0-12.824 5.363 61.219 61.219 0 0 0-9.68 8.168c-3.068 3.05-5.99 6.491-9.017 10.055-3.06 3.567-6.17 7.247-9.9 11.04Z"/><path fill="#e5a488" d="M1545.978 550.73a36.549 36.549 0 0 1-.31 4.735l-20.948 154.232a30.814 30.814 0 0 1-11.54 20.204l-69.577 54.474a29.768 29.768 0 0 1-17.893 6.313 1.917 1.917 0 0 1-.446.035h-48.63a29.82 29.82 0 0 1-18.338-6.348l-69.578-54.474a30.815 30.815 0 0 1-11.54-20.204l-20.948-154.232a31.243 31.243 0 0 1 3.09-18.485c8.655-16.696 29.604-37.742 46.466-53.07a50.204 50.204 0 0 1 52.682-9.471l31.423 12.697a29.599 29.599 0 0 0 22.185 0l31.355-12.697a50.204 50.204 0 0 1 52.682 9.47c16.896 15.364 37.81 36.375 46.465 53.071a31.137 31.137 0 0 1 3.4 13.75Z"/><path fill="#cc7d64" d="M1469.82 696.617a164.955 164.955 0 0 1-4.588 5.68l-.068.08-.31.147q-3.824 1.815-7.757 3.487l-3.932 1.707-4.058 1.305c-2.717.846-5.432 1.773-8.185 2.555l-8.375 1.806a152.318 152.318 0 0 1-34.134 2.714 177.375 177.375 0 0 1-33.893-4.228 152.721 152.721 0 0 1-32.31-10.883l-.818-.39-.223-.466q-3.21-6.724-6-13.707 4.969 5.642 9.533 11.533l-1.04-.855c10.72 2.353 21.652 4.193 32.486 5.668q16.3 2.138 32.618 2.797a264.216 264.216 0 0 0 32.632-.551c10.935-.642 21.674-2.62 32.707-4.597l-.376.225a164.778 164.778 0 0 1 6.09-4.027Z"/><path d="M1382.447 725.903s3.883 13.592 17.15 14.886 16.18-13.268 16.18-13.268Z" style="mix-blend-mode:soft-light" opacity=".3"/><path fill="#cc7d64" d="M1378.24 723.638c4.2-.35 7.715-.601 11.215-.715 3.471-.11 6.827-.165 10.206-.074 3.384.044 6.786.231 10.33.577a55.343 55.343 0 0 1 11.288 2.154 26.614 26.614 0 0 1-10.282 6.112 34.493 34.493 0 0 1-11.563 1.74 32.978 32.978 0 0 1-11.588-2.369c-3.653-1.568-7.26-3.788-9.606-7.425Z"/><path d="M1295.38 622.481c11.574 83.693 32.18 110.755 70.196 144.24 0 0 26.067-7.419 67.587-.344 0 0 59.687-28.539 84.276-55.567-2.37 2.68-40.455 45.985-80.396 68.136a76.733 76.733 0 0 1-11.333 5.048 1.955 1.955 0 0 1-.446.035h-48.63a30.229 30.229 0 0 1-18.338-6.216l-69.578-53.334a30.035 30.035 0 0 1-11.54-19.781l-20.948-151.005a30.03 30.03 0 0 1 3.09-18.098c8.655-16.347 29.604-36.953 46.466-51.96a51.024 51.024 0 0 1 52.682-9.273l31.423 12.432a30.186 30.186 0 0 0 22.185 0l31.355-12.432a51.024 51.024 0 0 1 52.682 9.272c16.896 15.042 37.81 35.614 46.465 51.96a29.973 29.973 0 0 1 3.4 13.463c-11.058-12.879-44.577-49.213-74.18-53.437-36.06-5.151-41.211 12.878-86.921 8.998-45.71-3.847-101.105 34.136-89.497 117.863Z" style="mix-blend-mode:soft-light" opacity=".3"/><path fill="#212021" d="M1364.951 579.22c-.967 12.617-7.11 16.19-7.11 16.19a143.07 143.07 0 0 0-23.334-7.474c-.674-.155-1.347-.293-2.003-.449-.483-.086-.949-.19-1.415-.276a102.82 102.82 0 0 0-18.035-1.916c-1.14-.017-2.21 0-3.245.035a78.85 78.85 0 0 0-3.124.155 45.447 45.447 0 0 0-10.976 1.83 54.839 54.839 0 0 1 9.06-8.647 48.289 48.289 0 0 1 3.072-2.088 44.54 44.54 0 0 1 3.004-1.726 44.07 44.07 0 0 1 16.585-4.85 37.16 37.16 0 0 1 2.365-.172c.794-.035 1.57-.052 2.347-.052 18.001.034 32.81 9.44 32.81 9.44Z"/><path fill="#353535" d="M1307.841 576.58a38.634 38.634 0 0 1 1.968 8.75 78.85 78.85 0 0 0-3.124.155 33.721 33.721 0 0 0-1.915-6.817 48.289 48.289 0 0 1 3.071-2.088ZM1327.43 570.004c3.055 5.61 3.676 12.375 3.66 17.207a102.82 102.82 0 0 0-18.036-1.916 44.28 44.28 0 0 0-2.21-10.441 44.07 44.07 0 0 1 16.586-4.85ZM1334.507 587.936c-.674-.155-1.347-.293-2.003-.449a46.63 46.63 0 0 0-2.709-17.655c.794-.035 1.57-.052 2.347-.052a47.19 47.19 0 0 1 2.365 18.156Z"/><path fill="#212021" d="M1433.794 578.907c.967 12.616 7.11 16.189 7.11 16.189a143.074 143.074 0 0 1 23.335-7.473c.673-.156 1.346-.294 2.002-.449.483-.086.949-.19 1.415-.276a102.82 102.82 0 0 1 18.036-1.916 66.44 66.44 0 0 1 3.244.035 79.04 79.04 0 0 1 3.124.155 45.445 45.445 0 0 1 10.976 1.83 54.834 54.834 0 0 0-9.06-8.647 48.289 48.289 0 0 0-3.072-2.089 44.496 44.496 0 0 0-3.004-1.725 44.068 44.068 0 0 0-16.585-4.85 37.158 37.158 0 0 0-2.365-.173 53.698 53.698 0 0 0-2.347-.051c-18.001.034-32.809 9.44-32.809 9.44Z"/><path fill="#353535" d="M1490.904 576.266a38.635 38.635 0 0 0-1.968 8.75 79.04 79.04 0 0 1 3.124.156 33.721 33.721 0 0 1 1.916-6.817 48.289 48.289 0 0 0-3.072-2.089ZM1471.315 569.69c-3.055 5.61-3.676 12.375-3.66 17.208a102.82 102.82 0 0 1 18.037-1.916 44.274 44.274 0 0 1 2.208-10.441 44.068 44.068 0 0 0-16.585-4.85ZM1464.238 587.623c.674-.156 1.347-.294 2.003-.449a46.632 46.632 0 0 1 2.71-17.656 53.698 53.698 0 0 0-2.348-.051 47.189 47.189 0 0 0-2.365 18.156ZM1482.376 359.108s-17.618 23.353-20.469 33.415c-104.882 19.3-65.766 90.94-64.667 92.897-153.511-101.86 85.136-126.312 85.136-126.312Z"/><path fill="#353535" d="M1511.052 416.77c-85.273 1.648-98.323 64.838-98.323 64.838-30.428-63.259 49.178-89.085 49.178-89.085s19.026 5.323 49.145 24.246Z"/><path fill="#353535" d="M1512.22 462.788c-59.276-7.074-76.86 9.685-77.718 10.578 15.866-29.638 57.833-41.83 90.94-47.084a449.692 449.692 0 0 1 55.05 45.71c-12.123 2.37-23.868-3.95-68.273-9.204ZM1581.076 500.462a339.705 339.705 0 0 1-3.365 38.292c-43.753-13.565-72.189-61.164-73.184-62.916 27.92 15.935 55.943 22.254 76.55 24.624ZM1341.735 465.187s-68.095-10.625-14.488-65.197c0 0-58.92 28.01-47.329 57.47s61.817 7.727 61.817 7.727ZM1297.303 482.57c-37.158 28.744-60.237 23.73-73.733 12.5a177.961 177.961 0 0 1 4.499-37.914c22.529 44.611 69.234 25.414 69.234 25.414Z"/><path fill="#ffd31a" d="M1291.347 501.602s89.723 35.741 224.33 0-176.17-47.15-176.17-47.15l-52.143 31.947ZM1174.873 395.553l-9.094 53.878a27.68 27.68 0 0 1-2.797.23c-8.185.153-32.947-2.603-59.878-37.042 15.879-10.714 29.38-15.995 40.291-18.367 20.286-4.44 31.478 1.3 31.478 1.3ZM1203.413 503.156a16.174 16.174 0 0 1-3.218.995c-8.394 2.143-32.737 4.745-67.572-21.506 12.101-13.928 23.503-22.27 33.296-27.245 18.677-9.413 31.338-6.505 31.338-6.505ZM1254.686 545.937a20.537 20.537 0 0 1-3.357 2.066c-8.045 4.133-30.709 11.71-70.65-4.822 7.694-16.071 16.228-26.785 24.203-33.903 15.528-14.005 28.82-14.235 28.82-14.235Z"/><path fill="#c45f4f" d="M1243.92 590.149c2.798-16.454 7.625-28.393 12.941-37.041-2.588 5.663-5.036 11.862-7.345 18.52a33.89 33.89 0 0 0-1.818 13.24c.14 1.99.28 3.904.49 5.817-1.4-.153-2.799-.307-4.268-.536ZM1578.002 546.144a18.482 18.482 0 0 1-.28 2.678 6.43 6.43 0 0 1-.14 1.148c-.07.765-.21 1.53-.35 2.296-.07.383-.21.842-.28 1.3a29.58 29.58 0 0 1-.839 3.368c-.07.23-.14.536-.21.766v.076a72.082 72.082 0 0 1-5.666 13.929c-.49.995-1.049 2.066-1.678 3.138a110.362 110.362 0 0 1-6.856 10.561c-.839 1.224-1.748 2.373-2.658 3.597l-.14.153c.14-1.454.21-2.832.35-4.286a32.643 32.643 0 0 0-1.819-13.24 244.53 244.53 0 0 0-7.904-19.821 197.716 197.716 0 0 0-9.653-18.52l20.006-1.99 15.808-1.531a20.762 20.762 0 0 1 1.05 2.831c.14.536.35 1.225.49 1.914a29.905 29.905 0 0 1 .769 5.127 40.236 40.236 0 0 1 0 6.506Z"/><path fill="#ffd31a" d="M1618.776 550.911c-17.487-7.194-29.099-15.306-36.724-22.73-14.829-14.387-15.039-26.556-15.039-26.556l54.7-19.592a20.696 20.696 0 0 1 1.47 1.913c4.057 6.2 14.41 27.475-4.407 66.965ZM1669.21 492.059c-19.166-2.832-32.736-7.96-42.25-13.393-17.907-10.255-21.474-21.735-21.474-21.735l35.534-24.031h.07l11.822-8.036a14.075 14.075 0 0 1 1.399 1.072 31.714 31.714 0 0 1 5.106 5.357c6.716 8.571 15.53 26.939 9.793 60.766ZM1630.23 404.494s15.6 24.09 71.337 18.615c-5.883-51.863-34.459-61.029-34.459-61.029ZM1639.553 347.89s21.77 19.512 74.085.801c-20.11-48.678-50.26-50.65-50.26-50.65ZM1632.814 290.97s26.455 13.605 71.783-17.067c-32.964-42.178-62.636-36.821-62.636-36.821ZM1610.473 237.613s29.337 6.77 64.589-33.774c-43.572-32.801-70.744-20.481-70.744-20.481ZM1574.05 191.454s30.221-.526 52.995-48.178c-51.212-21.19-74.03-2.746-74.03-2.746ZM1526.03 155.64s29.045-7.787 37.788-59.3c-55.361-8.134-72.272 15.177-72.272 15.177ZM1469.684 132.61s25.89-14.516 20.006-66.379c-55.738 5.475-65.589 32.064-65.589 32.064ZM1408.852 123.934s20.97-20.255.86-68.934c-52.315 18.711-54.434 46.767-54.434 46.767ZM1347.68 130.205s14.62-24.616-18.344-66.793c-45.328 30.672-39.571 58.282-39.571 58.282ZM1290.336 150.994s7.275-27.298-36.297-60.1c-35.252 40.544-22.012 65.827-22.012 65.827ZM1240.696 184.862l-36.864 13.164-17.837 6.428-.63-.689c-2.938-3.826-16.368-24.566 2.519-65.893.28-.766.7-1.53 1.049-2.296 18.677 7.73 30.568 16.378 38.193 24.184 13.36 13.775 13.57 25.102 13.57 25.102ZM1202.224 229.556l-47.427 32.067s-.35-.23-.979-.689v-.076c-4.477-3.444-23.014-21.046-15.319-66.43 20.006 2.908 33.926 8.342 43.439 14.082 16.928 10.026 20.285 21.046 20.285 21.046ZM1177.461 281.98l-36.864 42.399s-.49-.154-1.469-.536c-5.875-2.679-27.84-15.612-32.946-60.46 19.936-1.99 34.765-.153 45.537 2.985 19.307 5.663 25.742 15.612 25.742 15.612ZM1168.158 338.613l-23.783 49.822a20.278 20.278 0 0 1-2.239-.382c-7.345-1.53-31.267-9.567-48.056-50.281 18.608-6.658 33.297-8.419 44.559-8.036 20.495.765 29.519 8.877 29.519 8.877Z"/><path fill="#ffa81d" d="M1664.18 298.105h-.07c-.35-1.836-.769-3.673-1.189-5.51v-.076a239.106 239.106 0 0 0-20.355-55.486c-.07 0-.07-.076-.07-.076-.91-1.684-1.819-3.29-2.658-4.898v-.076a249.558 249.558 0 0 0-35.185-48.751l-.07-.076c-1.26-1.378-2.518-2.68-3.777-4.057l-.07-.076a258.063 258.063 0 0 0-47.357-38.725c-1.608-1.072-3.287-2.066-5.036-3.138a272.696 272.696 0 0 0-56.45-26.02q-2.833-1.033-5.666-1.837a278.621 278.621 0 0 0-61.905-11.557c-1.96-.152-3.987-.306-6.016-.382-4.897-.23-9.863-.383-14.83-.383a276.618 276.618 0 0 0-48.125 4.133c-1.959.306-3.987.612-5.946 1.071a273.495 273.495 0 0 0-59.737 18.674v.077h-.07a117.707 117.707 0 0 0-5.387 2.449 265.797 265.797 0 0 0-52.462 32.602c-1.609 1.224-3.148 2.449-4.617 3.75a236.632 236.632 0 0 0-27.21 26.174c-5.107 5.74-10.003 11.709-14.55 17.832a200.443 200.443 0 0 0-3.428 4.744 239.025 239.025 0 0 0-28.12 52.348v.076c-.699 1.837-1.398 3.597-2.098 5.434a232.163 232.163 0 0 0-12.59 57.475c-.21 1.99-.35 3.903-.49 5.893-.35 5.051-.49 10.102-.49 15.153a237.679 237.679 0 0 0 3.987 43.164l1.259 6.199a234.711 234.711 0 0 0 19.586 55.409l2.938 5.74a247.411 247.411 0 0 0 34.275 48.75c1.54 1.76 3.078 3.443 4.687 5.127 2.938 3.061 5.876 6.046 8.954 8.954a172.832 172.832 0 0 0 5.386 4.975 258.318 258.318 0 0 0 32.107 24.796c1.959 1.301 4.057 2.602 6.085 3.903 15.67-34.362 33.927-50.28 33.927-50.28s7.414-5.281 23.573-10.792a175.23 175.23 0 0 1-52.603-42.398c-2.868-3.29-5.526-6.735-8.044-10.255a104.407 104.407 0 0 1-3.987-5.816c-2.169-3.368-4.267-6.735-6.156-10.256a157.895 157.895 0 0 1-3.707-147.323c25.951-52.883 80.582-90.919 145.286-96.811 4.757-.46 9.583-.766 14.48-.766 1.119-.077 2.168-.077 3.287-.077 6.016 0 11.892.307 17.768.766 90.865 8.342 161.794 79.975 161.794 166.991a157.347 157.347 0 0 1-20.215 77.22 113.547 113.547 0 0 1-6.226 10.179c-.42.765-.98 1.53-1.469 2.296a148.684 148.684 0 0 1-10.493 13.852 174.2 174.2 0 0 1-41.55 36.046c-3.567 2.22-7.205 4.363-10.982 6.352 16.159 5.51 23.573 10.791 23.573 10.791s11.612 10.102 24.203 31.684a197.716 197.716 0 0 1 9.653 18.52 226.724 226.724 0 0 0 16.439-11.02 228.562 228.562 0 0 0 10.772-8.189 154.262 154.262 0 0 0 5.316-4.439c3.777-3.214 7.485-6.505 11.122-9.949a257.978 257.978 0 0 0 30.009-34.285l3.777-5.281a240.395 240.395 0 0 0 24.972-46.608c.84-2.066 1.679-4.056 2.379-6.122.769-1.914 1.398-3.827 2.028-5.74a229.903 229.903 0 0 0 11.822-57.705c.21-1.913.28-3.826.42-5.74.209-3.98.279-7.882.279-11.862a234.55 234.55 0 0 0-4.687-46.76Z"/><path d="M1243.92 590.149c2.798-16.454 7.625-28.393 12.941-37.041-2.588 5.663-5.036 11.862-7.345 18.52a33.89 33.89 0 0 0-1.818 13.24c.14 1.99.28 3.904.49 5.817-1.4-.153-2.799-.307-4.268-.536ZM1262.317 448.413a175.23 175.23 0 0 0 52.603 42.398c-16.159 5.51-23.573 10.791-23.573 10.791s-18.257 15.919-33.927 50.281c-2.028-1.301-4.126-2.602-6.085-3.903a40.117 40.117 0 0 1-3.987 1.76 53.334 53.334 0 0 1-8.954 2.45 68.662 68.662 0 0 1-17.138.994 35.018 35.018 0 0 1-3.987-.306c-.91-.076-1.888-.153-2.868-.306a.818.818 0 0 1-.42-.077 41.062 41.062 0 0 1-4.127-.612c-1.329-.23-2.728-.459-4.126-.765a82.11 82.11 0 0 1-5.527-1.378c-.14 0-.28 0-.35-.076q-2.727-.69-5.665-1.607a143.032 143.032 0 0 1-13.5-4.898c7.694-16.072 16.228-26.786 24.202-33.904a155.967 155.967 0 0 1-4.687-5.127c-8.394 2.143-32.736 4.745-67.571-21.505 12.101-13.93 23.503-22.271 33.296-27.245l-2.938-5.74c-8.184.152-32.946-2.603-59.877-37.042 15.878-10.714 29.379-15.995 40.291-18.367l-1.26-6.2c-7.344-1.53-31.267-9.566-48.055-50.28 18.607-6.659 33.296-8.419 44.558-8.036.14-1.99.28-3.903.49-5.893-5.876-2.679-27.84-15.612-32.947-60.46 19.936-1.99 34.766-.153 45.538 2.985.7-1.836 1.4-3.597 2.098-5.434v-.076c-4.476-3.444-23.013-21.046-15.319-66.43 20.006 2.909 33.926 8.343 43.44 14.083a200.443 200.443 0 0 1 3.427-4.745c-2.938-3.827-16.368-24.567 2.518-65.894a430.98 430.98 0 0 0 12.032 48.062c1.189 3.98 2.518 8.035 3.917 12.092a366.399 366.399 0 0 0 36.584 76.76 157.895 157.895 0 0 0 3.707 147.323c1.889 3.52 3.987 6.888 6.156 10.256a104.407 104.407 0 0 0 3.987 5.816c2.518 3.52 5.176 6.964 8.044 10.255ZM1626.967 478.643l-3.777 5.28c4.056 6.2 14.41 27.475-4.407 66.966a159.55 159.55 0 0 1-5.806-2.526l-1.05-.46c-1.678-.765-3.287-1.53-4.756-2.295a3.152 3.152 0 0 0-.7-.383 105.205 105.205 0 0 1-4.966-2.755c-1.818-.995-3.567-2.066-5.246-3.138l-2.728-1.837c-1.749-1.224-3.428-2.449-4.967-3.673-1.259-.919-2.378-1.913-3.427-2.832-1.05-.918-2.098-1.913-3.078-2.832a154.262 154.262 0 0 1-5.316 4.44c.14.535.35 1.224.49 1.913a29.905 29.905 0 0 1 .769 5.127 40.236 40.236 0 0 1 0 6.506 18.482 18.482 0 0 1-.28 2.678 6.43 6.43 0 0 1-.14 1.148c-.07.765-.21 1.53-.35 2.296-.07.383-.21.842-.28 1.3a29.58 29.58 0 0 1-.839 3.368c-.07.23-.14.536-.21.766v.076a72.082 72.082 0 0 1-5.666 13.929c-.49.995-1.049 2.066-1.678 3.138a110.362 110.362 0 0 1-6.856 10.561c-.839 1.224-1.748 2.373-2.658 3.597l-.14.153c.14-1.454.21-2.832.35-4.286a32.643 32.643 0 0 0-1.819-13.24 244.53 244.53 0 0 0-7.904-19.821 197.716 197.716 0 0 0-9.653-18.52c-12.591-21.583-24.203-31.685-24.203-31.685s-7.414-5.28-23.573-10.79c3.777-1.99 7.415-4.133 10.982-6.353a174.2 174.2 0 0 0 41.55-36.046 148.684 148.684 0 0 0 10.493-13.852c1.61.076 3.218.153 4.827.153 1.748.077 3.497.153 5.316.153a715.445 715.445 0 0 0 75.756-1.99h.07c3.567-.23 7.205-.535 10.842-.842 2.448-.23 4.967-.459 7.485-.765 6.715 8.571 15.529 26.94 9.793 60.766-19.167-2.832-32.737-7.96-42.25-13.393Z" style="mix-blend-mode:soft-light" opacity=".56"/><path fill="#ffd31a" d="M1464.117 289.71h-121.224l60.577-158.114 52.463 136.838 8.184 21.276z"/><path d="M1464.117 289.71h-121.224l60.577-158.114-8.814 122.144a223.69 223.69 0 0 1 61.277 14.694Z" style="mix-blend-mode:soft-light" opacity=".56"/><path fill="#ffb91d" d="M1567.573 448.436h-328.206s10.702-71.633 33.856-127.807a227.4 227.4 0 0 1 50.014-32.45c26.721-12.78 55.12-20.127 80.233-20.127 41.97 0 92.963 20.433 130.247 52.577 9.793 23.724 17.277 50.204 22.734 72.781 7.554 31.072 11.122 55.026 11.122 55.026Z"/><path d="M1567.573 448.436h-328.206s10.702-71.633 33.856-127.807a227.4 227.4 0 0 1 50.014-32.45c-.91 16.455-1.399 42.322 2.238 64.899 0 0 28.54-10.715 31.478-16.072 2.938-5.433 46.517-64.975 46.517-64.975l52.812 25.103 20.705 52.73 79.464 43.546c7.554 31.072 11.122 55.026 11.122 55.026Z" style="mix-blend-mode:soft-light" opacity=".56"/><path fill="#2a323f" d="M1257.42 551.883c.07 0 .07.077.14.077-.21.383-.49.765-.699 1.148.21-.46.35-.842.56-1.225Z"/><path fill="#c64040" d="M1398.102 582.283h-.034c-1.22.238-24.807 3.898 0-57.782 0-.034 0-.034.034-.068v.068c24.808 61.68 1.187 58.02 0 57.782Z"/><path fill="#c64040" d="M1398.102 524.433c-.034.034-.034.034-.034.067v-.101Z"/><circle cx="1255.356" cy="688.332" r="20.016" fill="#ffd31a" transform="rotate(-45 1255.356 688.332)"/><path d="M1255.364 668.306a20.03 20.03 0 1 0 19.996 20.03 20.047 20.047 0 0 0-19.995-20.03Zm1.492 20.808c-5.66 2.983-11.997 5.694-14.946.034a11.574 11.574 0 1 1 20.504-10.743c2.948 5.66.101 7.727-5.558 10.71Z" style="mix-blend-mode:soft-light" opacity=".56"/><circle cx="1547.183" cy="687.061" r="20.016" fill="#ffd31a" transform="rotate(-45 1547.183 687.06)"/><path d="M1547.192 667.035a20.03 20.03 0 1 0 19.995 20.03 20.047 20.047 0 0 0-19.995-20.03Zm1.491 20.809c-5.66 2.982-11.997 5.693-14.946.034a11.574 11.574 0 1 1 20.504-10.744c2.948 5.66.102 7.727-5.558 10.71Z" style="mix-blend-mode:soft-light" opacity=".56"/><ellipse cx="1336.107" cy="633.005" rx="17.073" ry="34.503" style="mix-blend-mode:soft-light" opacity=".45"/><ellipse cx="1336.107" cy="640.37" rx="12.115" ry="23.054"/><path fill="#fff" d="M1336.234 629.349c0 3.976-1.796 7.199-4.013 7.199s-4.013-3.223-4.013-7.199 1.796-7.199 4.013-7.199 4.013 3.223 4.013 7.199ZM1340.146 638.436c-.167 2.424-1.398 4.312-2.749 4.22s-2.31-2.134-2.144-4.557 1.398-4.312 2.749-4.219 2.31 2.133 2.144 4.556Z"/><ellipse cx="1466.987" cy="632.557" rx="17.073" ry="34.503" style="mix-blend-mode:soft-light" opacity=".45"/><ellipse cx="1466.987" cy="639.922" rx="12.115" ry="23.054"/><path fill="#fff" d="M1467.115 628.901c0 3.976-1.797 7.199-4.014 7.199s-4.013-3.223-4.013-7.199 1.797-7.199 4.013-7.199 4.014 3.223 4.014 7.2ZM1471.026 637.988c-.167 2.424-1.398 4.313-2.749 4.22s-2.31-2.134-2.143-4.557 1.397-4.312 2.748-4.219 2.311 2.133 2.144 4.556Z"/><path d="M1291.347 501.602s89.723 35.741 224.33 0-176.17-47.15-176.17-47.15l-52.143 31.947Z" style="mix-blend-mode:soft-light" opacity=".56"/><path fill="#ffd31a" d="M1596.958 559.842c-.979 11.71-32.386 47.527-39.241 55.332l-1.4 1.531a10.278 10.278 0 0 1 .14-1.454c.7-6.505 1.4-13.087 1.889-19.821.21-2.067.42-4.21.56-6.276.14-1.454.21-2.832.35-4.286a32.643 32.643 0 0 0-1.82-13.24 244.53 244.53 0 0 0-7.904-19.821 197.716 197.716 0 0 0-9.653-18.52c-12.591-21.583-24.203-31.685-24.203-31.685s-7.414-5.28-23.573-10.79c-17.977-6.2-46.866-12.705-88.627-12.705-41.76 0-70.58 6.505-88.556 12.704-16.159 5.51-23.573 10.791-23.573 10.791s-18.257 15.919-33.927 50.281c.07 0 .07.077.14.077-.21.383-.49.765-.699 1.148-2.588 5.663-5.036 11.862-7.345 18.52a33.89 33.89 0 0 0-1.818 13.24c.14 1.99.28 3.903.49 5.817.699 8.877 1.538 17.525 2.518 26.02h-.07s-4.687-5.204-10.843-12.475c-11.821-13.928-29.1-35.74-29.798-44.388-.14-1.99-.21-4.668-.14-7.959a228.59 228.59 0 0 1 3.987-33.674c.98-5.51 2.238-11.48 3.707-17.908v-.076a543.345 543.345 0 0 1 16.159-55.485 225.242 225.242 0 0 1 7.204-5.51c2.799-2.144 5.946-4.44 9.374-6.888 31.967-22.96 85.619-58.011 85.619-58.011l10.003-30 10.912-32.833 25.741-21.81 20.776-17.526.14-.154 20.914 17.68 25.742 21.81 20.915 62.833s53.582 34.975 85.55 57.934c1.188.842 2.308 1.683 3.357 2.449a181.522 181.522 0 0 1 6.085 4.515 225.311 225.311 0 0 1 7.205 5.51c6.366 18.444 11.192 34.975 14.76 49.363a432.526 432.526 0 0 1 5.176 24.107c.56 3.062 1.05 6.047 1.469 8.802v.076c.7 4.439 1.189 8.495 1.609 12.245a117.742 117.742 0 0 1 .7 20.51Z"/><path d="M1596.958 559.842c-.979 11.71-32.386 47.527-39.241 55.332l-1.26.077c.7-6.505 1.4-13.087 1.889-19.821.21-2.067.42-4.21.56-6.276.14-1.454.21-2.832.35-4.286a32.643 32.643 0 0 0-1.82-13.24 244.53 244.53 0 0 0-7.904-19.821 197.716 197.716 0 0 0-9.653-18.52c-12.591-21.583-24.202-31.685-24.202-31.685s-7.415-5.28-23.574-10.79c-17.977-6.2-46.866-12.705-88.627-12.705-41.76 0-70.58 6.505-88.556 12.704-16.159 5.51-23.573 10.791-23.573 10.791s-18.257 15.919-33.927 50.281c.07 0 .07.077.14.077-.21.383-.49.765-.699 1.148-2.588 5.663-5.036 11.862-7.345 18.52a33.89 33.89 0 0 0-1.818 13.24c.14 1.99.28 3.903.49 5.817.699 8.877 1.538 17.525 2.518 26.02h-.07s-4.687-5.204-10.843-12.475c-13.15-16.836-25.741-36.658-25.462-49.898 0-.535.07-1.148.07-1.76.42-7.347 2.239-17.908 4.827-29.388 1.819-8.571 4.057-17.679 6.365-26.48 6.646-25.332 13.78-48.291 13.78-48.291l14.9-10.255 89.886-61.76 12.171-38.573 6.855-21.658 24.553-22.577 4.267-3.903 11.821-10.867-4.896 10.867-16.718 37.194-2.938 26.633-1.19 10.714-1.748 15.766-8.884 16.684c-.07.076-.07.076-.07.153l-5.036 9.336v.154l-22.314 42.092-13.57 25.562c46.936-7.807 134.863 1.377 176.623 10.484 8.324 1.76 14.9 3.597 18.817 5.281 12.171 5.204 26.72 24.26 37.983 41.556 2.168 3.291 4.197 6.505 6.086 9.49 4.267 6.964 7.694 13.087 9.932 16.914v.076a344.412 344.412 0 0 1 2.379 4.439c9.093-2.908 13.36-13.316 15.249-24.72.56-3.444.91-6.964 1.119-10.408.7 4.439 1.189 8.495 1.609 12.245a117.742 117.742 0 0 1 .7 20.51Z" style="mix-blend-mode:soft-light" opacity=".56"/><ellipse cx="1403.482" cy="425.741" rx="41.695" ry="54.052" style="mix-blend-mode:soft-light" opacity=".56"/><ellipse cx="1403.482" cy="425.741" fill="#ba3535" rx="36.135" ry="46.844"/><ellipse cx="1405.45" cy="424.126" fill="#ce3e3e" rx="31.336" ry="40.623"/><path fill="#e25d5d" d="M1432.957 417.131c0 15.117-9.453 27.37-21.113 27.37s-11.118-13.055-11.118-28.172-.543-26.569 11.118-26.569 21.113 12.255 21.113 27.371Z"/><path fill="#212021" d="M1501.137 685.056c0 10.271-10.025 31.45-45.505 37.495-31.352 5.405-49.337-11.45-53.072-15.48-.54-.54-.786-.835-.786-.835v-24.325c.295 0 .54-.049.786-.049s.491.05.786.05a53.638 53.638 0 0 0 15.136-1.082 20.382 20.382 0 0 1 4.03-.393c15.577.295 41.966 16.708 53.858 19.116a10.611 10.611 0 0 0 3.931.05c9.14-2.458 20.836-14.547 20.836-14.547Z"/><path fill="#353535" d="M1476.37 699.533c-7.884 6.324-19.464 11.938-31.088 8.066-12.56-4.194-19.374-17.552-22.76-27.168 15.544.323 41.956 16.714 53.848 19.102Z"/><path fill="#212021" d="M1403.346 681.911v24.325s-.245.295-.786.835c-3.735 4.03-21.72 20.885-53.072 15.48-35.48-6.044-45.504-27.224-45.504-37.495 0 0 11.695 12.09 20.835 14.546a10.612 10.612 0 0 0 3.932-.049c11.892-2.408 38.33-18.821 53.858-19.116a20.382 20.382 0 0 1 4.03.393 53.636 53.636 0 0 0 15.135 1.081c.295 0 .54-.049.786-.049s.492.05.786.05Z"/><path fill="#353535" d="M1328.759 699.533c7.883 6.324 19.463 11.938 31.087 8.066 12.56-4.194 19.374-17.552 22.76-27.168-15.544.323-41.956 16.714-53.847 19.102Z"/><path fill="#f7bda9" d="m1372.143 672.656 8.18-25.36s20.861 28.223 43.766 0l6.954 24.133s-29.04 30.268-58.9 1.227Z"/><path fill="#cc7d64" d="M1370.473 666.918a12.45 12.45 0 0 0 5.801 6.442 30.45 30.45 0 0 0 7.784 3.054 67.412 67.412 0 0 0 16.881 1.993 68.252 68.252 0 0 0 16.878-2.008 30.603 30.603 0 0 0 7.78-3.05 12.448 12.448 0 0 0 5.812-6.431c1.161 3.215-.042 7.272-2.196 10.167a25.85 25.85 0 0 1-8.154 6.983 43.5 43.5 0 0 1-40.233-.012 25.894 25.894 0 0 1-8.149-6.981c-2.155-2.89-3.356-6.943-2.204-10.157Z"/><path fill="#ed9c1b" d="M1367.97 1740.547s-39.135-4.758-68.971 5.09-64.365 15.891-60.933-18.608c0 0-13.314 32.491 17.952 46.942s54.172 7.773 67.567 4.229c11.348-3.003 28.83-1.897 42.834-3.35 3.9-.405 6.619-4.383 5.911-8.56Z"/><path d="M1366.416 1774.859c-14.01 1.444-31.489.348-42.836 3.336-13.39 3.56-36.289 10.233-67.572-4.233-28.227-13.046-20.097-40.782-18.236-46.06-.964 3.112-3.353 13.917 5.558 25.52 10.543 13.768 27.562 17.503 65.666 13.768 33.212-3.261 45.339-17.652 20.166-27.163a216.494 216.494 0 0 1 38.816.523l4.341 25.744c.712 4.183-1.998 8.141-5.903 8.565Z" style="mix-blend-mode:soft-light" opacity=".3"/><path fill="#ed9c1b" d="M1438.395 1738.058s39.135-4.759 68.972 5.088 64.364 15.893 60.932-18.607c0 0 13.314 32.492-17.952 46.943s-54.172 7.773-67.566 4.228c-11.349-3.003-28.83-1.897-42.835-3.35-3.9-.405-6.618-4.383-5.91-8.56Z"/><path d="M1439.949 1772.37c14.01 1.443 31.49.348 42.836 3.335 13.39 3.56 36.289 10.233 67.572-4.232 28.228-13.047 20.097-40.783 18.236-46.061.965 3.112 3.353 13.918-5.558 25.52-10.543 13.768-27.562 17.503-65.666 13.768-33.212-3.261-45.339-17.652-20.166-27.163a216.494 216.494 0 0 0-38.816.523l-4.341 25.744c-.712 4.183 1.998 8.142 5.903 8.565Z" style="mix-blend-mode:soft-light" opacity=".3"/><path fill="#76a52b" d="M1556.89 1628.061c-2.25 31.596-43.386 102.206-133.559 120.332a211.07 211.07 0 0 1-22.37 3.286 211.029 211.029 0 0 1-22.372-3.287c-90.15-18.125-131.308-88.735-133.536-120.33-1.47-20.616 13.482-126.805 26.758-215.068a14952.398 14952.398 0 0 1 19.316-124.788l12.058-15.86 97.775 28.483 97.775-28.483 12.059 15.86s9.393 58.56 19.729 127.352c13.138 87.74 27.815 192.087 26.367 212.503Z"/><path d="M1532.108 1682.538c-21.36 27.711-56.984 55.447-108.777 65.855a211.07 211.07 0 0 1-22.37 3.286 211.029 211.029 0 0 1-22.372-3.287c-52.206-10.482-87.967-38.591-109.259-66.502 95.272-14.864 90.7-265.286 90.7-265.286-29.375 86.32-75.036 146.05-113.209 181.107 1.218-12.474 3.01-27.786 5.191-44.841 91.091-94.139 111.9-197.888 111.9-197.888-41.365 28.682-75.84 66.577-96.97 90.827 1.607-11.08 3.261-22.084 4.869-32.815a14952.398 14952.398 0 0 1 19.316-124.788l12.058-15.86 97.775 28.483 97.775-28.483 12.059 15.86s9.393 58.56 19.729 127.352c1.998 13.32 4.02 27.014 6.04 40.758-19.407-22.433-58.109-68.07-106.066-101.334 0 0 22.095 110.223 120.513 206.552 2.114 16.93 3.767 31.795 4.824 43.422-39.666-33.712-89.943-95.707-121.455-188.352 0 0-4.778 262.572 97.729 265.934Z" style="mix-blend-mode:soft-light" opacity=".3"/><path fill="#ce3e3e" d="m1375.195 1303.263-18.893 459.643a23.524 23.524 0 0 0 23.91.138l.353 9.821s15.328 6.143 39.53-3.518l-1.373-18.964s12.163 3.93 29.305-7.38l-30.095-442.444Z"/><path d="m1445.587 1744.533-33.878-398.44 13.253 404.939a20.276 20.276 0 0 1-6.247-.648l1.377 18.972a85.841 85.841 0 0 1-4.984 1.818l-19.752-432.55-3.4 436.135a36.665 36.665 0 0 1-11.392-1.892l-.344-9.835a24.55 24.55 0 0 1-5.329 2.216l5.811-421.022-18.351 421.221a20.596 20.596 0 0 1-6.041-2.539l18.88-459.64 42.743-2.713 30.089 442.46a53.55 53.55 0 0 1-2.435 1.518Z" style="mix-blend-mode:soft-light" opacity=".3"/><path fill="#991d1d" d="M1380.212 1763.044c-.465-18.282-.47-36.556-.717-54.835l.032-54.82c.03-36.547.625-73.083 1.222-109.62.768-36.532 1.55-73.065 2.886-109.587l2.032-54.783c.939-18.256 1.632-36.516 2.788-54.768.47 18.282.476 36.556.728 54.834l-.03 54.82c-.037 36.548-.629 73.084-1.235 109.62-.777 36.532-1.557 73.065-2.9 109.587l-2.028 54.783c-.935 18.256-1.627 36.517-2.778 54.77ZM1418.723 1750.383c-1.351-17.676-2.244-35.366-3.378-53.049l-2.628-53.072c-1.743-35.381-2.922-70.78-4.098-106.178-1.007-35.404-1.998-70.809-2.435-106.23l-.63-53.133c.052-17.72-.143-35.43.127-53.157 1.357 17.676 2.249 35.366 3.388 53.049l2.63 53.071c1.737 35.382 2.919 70.78 4.086 106.18.996 35.404 1.991 70.808 2.422 106.23l.632 53.133c-.047 17.718.148 35.43-.116 53.156Z"/><path fill="#ce3e3e" d="M1530.523 1415.558c-75.45-83.557-132.595-95.608-132.595-95.608-61.715 19.545-103.7 63.515-126.117 93.044 1.768-11.752 3.491-23.205 5.168-34.06 7.9-51.738 14.148-90.728 14.148-90.728l12.058-15.86 97.775 28.483 97.775-28.483 12.059 15.86s6.844 42.65 15.273 97.898c1.447 9.486 2.94 19.37 4.456 29.454Z"/><path d="M1530.523 1415.558c-75.45-83.557-132.595-95.608-132.595-95.608-61.715 19.545-103.7 63.515-126.117 93.044.665-4.407 1.31-8.764 1.975-13.072v-.025c38.816-54.277 90.976-75.266 90.976-75.266-3.514-.15-6.867-.348-10.105-.622-37.255-2.963-56.8-12.798-66.103-19.62l2.573-16.183 12.058-15.86 97.775 28.483 97.775-28.483 12.059 15.86 1.79 11.303c-5.167 5.428-23.45 20.416-70.42 24.4-3.628.299-7.44.548-11.437.722 0 0 56.846 22.881 96.03 82.636a61.132 61.132 0 0 0 3.192 4.457v.025c.184 1.27.39 2.54.574 3.81Z" style="mix-blend-mode:soft-light" opacity=".3"/><path fill="#ffbb10" d="M1530.523 1415.558c-75.45-83.557-132.595-95.608-132.595-95.608-61.715 19.545-103.7 63.515-126.117 93.044 1.768-11.752 3.491-23.205 5.168-34.06 16.973-20.815 50.391-51.713 105.01-62.47 57.006-11.228 113.117 36.65 144.078 69.64 1.447 9.486 2.94 19.37 4.456 29.454Z"/><path d="M1530.523 1415.558c-75.45-83.557-132.595-95.608-132.595-95.608-61.715 19.545-103.7 63.515-126.117 93.044.665-4.407 1.31-8.764 1.975-13.072v-.025c38.816-54.277 90.976-75.266 90.976-75.266-3.514-.15-6.867-.348-10.105-.622a186.977 186.977 0 0 1 27.331-7.544c20.557-4.058 40.999-.423 60.177 7.444-3.63.299-7.442.548-11.438.722 0 0 56.846 22.881 96.03 82.636a61.132 61.132 0 0 0 3.192 4.457v.025c.184 1.27.39 2.54.574 3.81Z" style="mix-blend-mode:soft-light" opacity=".3"/><path fill="#ffbb10" d="M1298.017 1245.73s-10.334 23.814-6.889 42.488c0 0 101.203 70.025 220.063.933 0 0 3.23-30.81-12.49-46.683-13.294-13.425-200.684 3.262-200.684 3.262Z"/><path d="M1511.138 1274.711c-118.837 69.042-220.011-.97-220.011-.97-.092-.45-.161-.897-.23-1.37a89.29 89.29 0 0 1 1.814-10.184 110.474 110.474 0 0 1 5.306-16.457s187.397-16.682 200.695-3.262c5.604 5.677 8.82 13.246 10.588 20.666a75.07 75.07 0 0 1 1.838 11.577Z" style="mix-blend-mode:soft-light" opacity=".3"/><path d="M1511.138 1274.711c-118.837 69.042-220.011-.97-220.011-.97-.092-.45-.161-.897-.23-1.37a89.29 89.29 0 0 1 1.814-10.184 110.474 110.474 0 0 1 5.306-16.457s187.397-16.682 200.695-3.262c5.604 5.677 8.82 13.246 10.588 20.666a75.07 75.07 0 0 1 1.838 11.577Z" style="mix-blend-mode:soft-light" opacity=".3"/><path d="M1509.3 1263.134c-109.35 62.319-203.336 7.469-216.589-.947a110.474 110.474 0 0 1 5.306-16.457s187.397-16.682 200.695-3.262c5.604 5.677 8.82 13.246 10.588 20.666Z" style="mix-blend-mode:soft-light" opacity=".3"/><path fill="#995036" d="M1607.81 833.995s-15.503 236.678-103.356 411.735c0 0-27.079 34.932-103.08 35.006h-.276c-76.024-.074-103.08-35.006-103.08-35.006-87.854-175.057-103.357-411.736-103.357-411.736 27.125-16.806 91.734-43.421 91.734-43.421 47.246 20.217 110.04 15.785 114.703 15.436.07 0 .137-.025.183-.025a.13.13 0 0 0 .092.025c4.709.374 67.458 4.78 114.703-15.436 0 0 64.586 26.615 91.734 43.422Z"/><path d="M1516.076 790.573c-47.245 20.217-109.994 15.81-114.702 15.436a.13.13 0 0 1-.092-.025c-.046 0-.115.025-.184.025-4.662.349-67.457 4.78-114.703-15.436 0 0-64.609 26.615-91.734 43.421 0 0 15.503 236.68 103.356 411.736 0 0 27.057 34.932 103.08 35.006h.277c76.001-.074 103.08-35.006 103.08-35.006 87.853-175.057 103.356-411.736 103.356-411.736-27.148-16.806-91.734-43.421-91.734-43.421Zm-101.128 88.238c86.543-56.718 158.25-18.2 158.25-18.2s3.238 65.804-37.461 109.226-98.832 34.31-113.692 18.898c-14.86-15.387-7.097-109.924-7.097-109.924Zm-188.591-18.2s71.706-38.518 158.273 18.2c0 0 7.74 94.537-7.097 109.924-14.861 15.411-73.016 24.524-113.692-18.898-40.7-43.422-37.484-109.227-37.484-109.227Zm67.779 345.208s-66.539-123.942-66.539-212.877c0 0 38.77 54.626 122.742 41.33 0 0-71.064 43.398-56.203 171.547Zm180.23 54.626c-49.381 15.411-98.464 15.187-147.27-2.117 1.285-2.44-26.484-184.866 73.634-184.866s73.636 186.983 73.636 186.983Zm-21.82-226.172c83.972 13.295 122.742-41.33 122.742-41.33 0 88.934-66.539 212.876-66.539 212.876 14.86-128.15-56.203-171.546-56.203-171.546Z" style="mix-blend-mode:soft-light" opacity=".3"/><path fill="#ed9c1b" d="M1401.373 805.984v.025a.13.13 0 0 1-.092-.025Z"/><path fill="#ed9c1b" d="M1401.282 805.984c-.046 0-.115.025-.184.025v-.025Z"/><path fill="#a5573f" d="M1395.195 1069.531v38.946c0 6.408-4.792 11.602-10.704 11.602h-27.412c-6.936 0-12.044-7.14-10.196-14.387 3.588-14.071 12.234-35.015 32.825-46.55 7.064-3.957 15.487 1.77 15.487 10.39ZM1394.753 1147.456v23.644c0 9.372-7.009 16.97-15.654 16.97h-3.838c-17.776 0-32.186-15.622-32.186-34.891v-5.67c0-8.543 6.38-15.474 14.262-15.493l23.093-.053c7.905-.018 14.323 6.924 14.323 15.493ZM1394.753 1213.117v38.971c0 6.16-4.607 11.154-10.29 11.154-22.858 0-41.388-20.087-41.388-44.866v-5.199c0-8.837 6.597-16.007 14.75-16.029l22.104-.06c8.18-.023 14.824 7.16 14.824 16.029ZM1407.268 1069.531v38.946c0 6.408 4.792 11.602 10.703 11.602h27.413c6.936 0 12.043-7.14 10.195-14.387-3.588-14.071-12.234-35.015-32.825-46.55-7.064-3.957-15.486 1.77-15.486 10.39ZM1407.71 1147.456v23.644c0 9.372 7.008 16.97 15.653 16.97h3.838c17.776 0 32.186-15.622 32.186-34.891v-5.67c0-8.543-6.38-15.474-14.262-15.493l-23.093-.053c-7.905-.018-14.323 6.924-14.323 15.493ZM1407.71 1213.117v38.971c0 6.16 4.606 11.154 10.288 11.154 22.859 0 41.39-20.087 41.39-44.866v-5.199c0-8.837-6.598-16.007-14.75-16.029l-22.105-.06c-8.18-.023-14.824 7.16-14.824 16.029Z"/><path d="M1395.195 1100.55v7.918c0 6.424-4.8 11.603-10.703 11.603h-27.424c-6.936 0-12.035-7.121-10.175-14.391.092-.324.161-.648.253-.996a10.67 10.67 0 0 0 9.922 7.469h27.424c5.903 0 10.703-5.204 10.703-11.602ZM1394.759 1163.169v7.942c0 9.362-7.005 16.956-15.664 16.956h-3.836c-17.777 0-32.178-15.611-32.178-34.882v-5.677a5.082 5.082 0 0 1 .046-.846c.665 18.623 14.791 33.462 32.132 33.462h3.836c8.659 0 15.664-7.594 15.664-16.955ZM1394.759 1244.161v7.918c0 6.175-4.617 11.154-10.29 11.154a39.685 39.685 0 0 1-29.262-13.121 46.729 46.729 0 0 1-12.126-31.745v-5.179a5.546 5.546 0 0 1 .046-.87 46.528 46.528 0 0 0 12.08 29.852 39.709 39.709 0 0 0 29.262 13.146c5.673 0 10.29-5.005 10.29-11.155ZM1445.38 1120.07h-27.4c-5.927 0-10.704-5.178-10.704-11.602v-7.917c0 6.399 4.777 11.602 10.703 11.602h27.402a10.619 10.619 0 0 0 9.921-7.519l.276 1.046c1.837 7.27-3.262 14.39-10.197 14.39ZM1459.39 1147.508v5.677c0 19.27-14.423 34.882-32.2 34.882h-3.836c-8.636 0-15.641-7.594-15.641-16.956v-7.942c0 9.361 7.005 16.955 15.641 16.955h3.836c17.34 0 31.489-14.839 32.155-33.462a5.082 5.082 0 0 1 .046.846ZM1459.39 1213.188v5.18a46.727 46.727 0 0 1-12.126 31.744 39.683 39.683 0 0 1-29.262 13.121c-5.696 0-10.29-4.98-10.29-11.154v-7.918c0 6.15 4.594 11.155 10.29 11.155a39.706 39.706 0 0 0 29.262-13.146 46.526 46.526 0 0 0 12.08-29.853 5.546 5.546 0 0 1 .047.871Z" opacity=".3"/><path d="M1395.195 1100.55v7.918c0 6.424-4.8 11.603-10.703 11.603h-27.424c-6.936 0-12.035-7.121-10.175-14.391.092-.324.161-.648.253-.996a10.67 10.67 0 0 0 9.922 7.469h27.424c5.903 0 10.703-5.204 10.703-11.602ZM1394.759 1163.169v7.942c0 9.362-7.005 16.956-15.664 16.956h-3.836c-17.777 0-32.178-15.611-32.178-34.882v-5.677a5.082 5.082 0 0 1 .046-.846c.665 18.623 14.791 33.462 32.132 33.462h3.836c8.659 0 15.664-7.594 15.664-16.955ZM1394.759 1244.161v7.918c0 6.175-4.617 11.154-10.29 11.154a39.685 39.685 0 0 1-29.262-13.121 46.729 46.729 0 0 1-12.126-31.745v-5.179a5.546 5.546 0 0 1 .046-.87 46.528 46.528 0 0 0 12.08 29.852 39.709 39.709 0 0 0 29.262 13.146c5.673 0 10.29-5.005 10.29-11.155ZM1445.38 1120.07h-27.4c-5.927 0-10.704-5.178-10.704-11.602v-7.917c0 6.399 4.777 11.602 10.703 11.602h27.402a10.619 10.619 0 0 0 9.921-7.519l.276 1.046c1.837 7.27-3.262 14.39-10.197 14.39ZM1459.39 1147.508v5.677c0 19.27-14.423 34.882-32.2 34.882h-3.836c-8.636 0-15.641-7.594-15.641-16.956v-7.942c0 9.361 7.005 16.955 15.641 16.955h3.836c17.34 0 31.489-14.839 32.155-33.462a5.082 5.082 0 0 1 .046.846ZM1459.39 1213.188v5.18a46.727 46.727 0 0 1-12.126 31.744 39.683 39.683 0 0 1-29.262 13.121c-5.696 0-10.29-4.98-10.29-11.154v-7.918c0 6.15 4.594 11.155 10.29 11.155a39.706 39.706 0 0 0 29.262-13.146 46.526 46.526 0 0 0 12.08-29.853 5.546 5.546 0 0 1 .047.871Z" opacity=".3"/><path fill="#e5a488" d="M1448.063 1069.435a19.715 19.715 0 0 0-2.017 3.734c-2.614 6.449-6.996 9.511-11.453 13.072a43.533 43.533 0 0 0-5.925 5.527c-5.851 6.822-8.84 16.98-10.682 25.57-3.087 14.416-7.444 22.209-16.407 33.861l-1.345 1.867c-10.357 2.067-19.993 4.308-30.699 4.731-10.78.448-21.362-1.12-32.068-.946a4.178 4.178 0 0 0-1.818.473c-12-2.465-24.798-4.033-34.906-10.009a3.622 3.622 0 0 0-4.482.399c-7.12-.499-14.964.995-21.487 2.763a3.778 3.778 0 0 0-1.743 1.021c-5.104.448-10.059 1.518-15.212 2.166a3.62 3.62 0 0 0-1.17.398l.024-.1v-.024c-1.817.298-3.585.573-5.353.847a281.643 281.643 0 0 1-15.461 1.792h-.05c-3.336.274-6.598.473-9.785.623-4.457.199-8.789.248-13.021.174-1.619-.025-3.212-.075-4.806-.125a216.083 216.083 0 0 1-9.287-.573h-.025a160.77 160.77 0 0 1-8.863-.97s0 .025-.025 0c-2.888-.374-5.727-.822-8.49-1.32s-5.453-1.045-8.092-1.668-5.204-1.295-7.718-1.992-4.955-1.47-7.345-2.266a171.245 171.245 0 0 1-10.308-3.884 143.615 143.615 0 0 1-45.687-30.201 230.58 230.58 0 0 1-3.486-3.56.024.024 0 0 1-.025-.025 153.18 153.18 0 0 1-4.009-4.407c-12.722-14.615-17.851-26.666-17.851-26.666 2.066-34.732 18.773-78.677 39.139-119.758 9.96-20.192 20.84-39.687 31.247-57.116 20.939-34.981 40.135-61.448 46.883-67.846 0 0 7.444 6.398 16.357 21.138.598 1.046 1.245 2.116 1.868 3.262a14.436 14.436 0 0 0-1.768-1.793c1.643 22.956 7.494 72.975 27.96 108.056a122.312 122.312 0 0 1-7.195 8.64 97.753 97.753 0 0 1-3.536 3.66c-.299.299-.597.598-.921.896-.274.299-.573.573-.871.847v-.025c-.125-.622-.25-1.17-.374-1.793a.024.024 0 0 1-.025.025s-.572.722-1.618 1.992a56.65 56.65 0 0 0-1.47 1.818c-.273.348-.572.721-.87 1.095-4.656 5.976-12.748 16.682-20.193 28.384a195.38 195.38 0 0 0-2.788 4.481 239.09 239.09 0 0 0-5.154 9.063 154.905 154.905 0 0 0-2.29 4.506 113.443 113.443 0 0 0-2.042 4.407 81.548 81.548 0 0 0-1.743 4.283 52.563 52.563 0 0 0-2.34 8.017 3.969 3.969 0 0 0 .248.349c.025.024.025.05.05.074 1.743 2.067 10.98 12 35.903 21.437a217.756 217.756 0 0 0 21.437 6.723c2.24.597 4.531 1.17 6.922 1.718.746.174 1.493.348 2.265.523.971.223 1.967.448 2.988.647.896.199 1.817.373 2.739.573-.025-.05-.025-.05-.025-.025l-.025-.05c-.025-.075-.1-.2-.124-.3.074.026.124.076.199.1 7.594 2.565 14.664 3.188 22.507 4.432.349.05.747.15 1.12.2 3.61.622 7.57 1.568 11.404 2.54 1.095.273 2.19.547 3.261.82 1.071.25 2.117.524 3.113.773.373.1.747.174 1.145.249.349.05.672.1 1.02.149s.698.075 1.072.1a17.128 17.128 0 0 0 4.805-.3 17.763 17.763 0 0 0 3.784-1.244l.025-.025a5.965 5.965 0 0 0 1.195-.597 16.246 16.246 0 0 0 3.287-2.291 17.412 17.412 0 0 0 1.917-1.917 18.574 18.574 0 0 0 1.668-2.216 66.031 66.031 0 0 0 2.266-3.785 84.286 84.286 0 0 0 1.967-3.56 19.046 19.046 0 0 0 2.589-2.365 41.156 41.156 0 0 1 8.092-6.773c.548-.373 1.145-.746 1.718-1.12s1.17-.722 1.768-1.07c.199-.125.398-.25.597-.349a75.271 75.271 0 0 1 3.112-1.718l.025-.025c3.411-1.817 6.897-3.46 10.208-5.004 4.158-1.992 8.565-2.266 13.047-1.918 1.145 7.495 6.623 13.62 16.507 12.325 18.126-2.34 34.982 3.76 52.858 5.776a82.365 82.365 0 0 0 14.167.623Z"/><path d="M1443.706 1077.427c-2.54 3.735-5.801 6.125-9.113 8.814a43.533 43.533 0 0 0-5.926 5.527c-5.85 6.822-8.838 16.98-10.68 25.57-3.088 14.416-7.445 22.209-16.408 33.861l-1.345 1.867c-10.357 2.067-19.993 4.308-30.699 4.731-10.78.448-21.362-1.12-32.068-.946a4.178 4.178 0 0 0-1.818.473c-12-2.465-24.798-4.033-34.906-10.009a3.622 3.622 0 0 0-4.482.399c-7.12-.499-14.964.995-21.487 2.763a3.778 3.778 0 0 0-1.743 1.021c-5.104.448-10.059 1.518-15.212 2.166a3.62 3.62 0 0 0-1.17.398l.024-.1c-1.792.3-3.585.573-5.353.822a240.073 240.073 0 0 1-15.461 1.793h-.05c-3.336.274-6.573.498-9.785.622-4.457.2-8.789.25-13.021.175-1.619-.025-3.212-.075-4.806-.125a216.083 216.083 0 0 1-9.287-.573h-.025a160.77 160.77 0 0 1-8.863-.97s0 .025-.025 0c-2.888-.374-5.727-.822-8.49-1.32s-5.453-1.046-8.092-1.668-5.204-1.295-7.718-1.992-4.955-1.47-7.345-2.266q-5.378-1.792-10.308-3.884a143.615 143.615 0 0 1-45.687-30.201 230.58 230.58 0 0 1-3.486-3.56.024.024 0 0 1-.025-.025 153.18 153.18 0 0 1-4.009-4.407c-12.722-14.615-17.851-26.666-17.851-26.666 41.18 1.046 72.801-46.26 94.91-97.5 7.793-18.026 14.416-36.55 19.844-53.58a727.378 727.378 0 0 0 18.823-71.133.55.55 0 0 1 .124.1h.025c1.643 22.956 7.494 72.975 27.96 108.056.349-.448.672-.871 1.021-1.32v.1c-.324.449-.647.872-.996 1.295a110.05 110.05 0 0 1-7.22 8.565 97.753 97.753 0 0 1-3.536 3.66c-.299.299-.597.598-.921.896-.299.274-.573.548-.871.822v.025h-.025l-.374-1.793s-.572.722-1.618 1.992c-.423.523-.921 1.12-1.47 1.818-.273.348-.572.721-.87 1.095-4.656 5.976-12.748 16.682-20.193 28.384a195.38 195.38 0 0 0-2.788 4.481 165.094 165.094 0 0 0-5.154 9.063 154.905 154.905 0 0 0-2.29 4.506 167.979 167.979 0 0 0-2.042 4.407 172.755 172.755 0 0 0-1.743 4.283 52.563 52.563 0 0 0-2.34 8.017s.099.124.248.349c.025.024.025.05.05.074-9.162-.622-42.326-1.618-52.46 16.856-8.091 14.74 17.827 46.484 72.329 58.386 25.097 5.502 56.269 6.772 92.993.273.025-.224.025-.423.05-.597 0-.373.05-.847.1-1.47.024-.522.1-1.144.149-1.842.1-1.195.274-2.614.473-4.183 2.59-18.797 9.735-25.744 10.806-26.69l.124-.1h-.05a9.919 9.919 0 0 1-1.245.498l-.224.224-.274-.05a5.287 5.287 0 0 1-2.838.15c-1.245-.299-4.008-.822-7.718-1.543l-14.49-1.967s-.35-.324-.972-.972c-12.449-2.016-23.379-4.282-32.915-6.697-1.494-.373-2.714-.672-3.585-.921a3.832 3.832 0 0 0-.423-.125c-.125-.025-.25-.1-.374-.124-.523-.224-1.27-.498-2.116-.946 2.24.597 4.531 1.17 6.922 1.718.746.174 1.493.348 2.265.523.971.223 1.967.448 2.988.647.896.199 1.793.373 2.714.548l-.025-.05c-.025-.075-.1-.2-.124-.3.074.026.124.076.199.1 7.594 2.565 14.664 3.188 22.507 4.432.349.05.747.15 1.12.2.3.348.598.697.822.946.224.05.448.074.648.124.074 0 .1 0 .124.025 3.162.498 6.449.971 9.81 1.444 1.095.274 2.19.548 3.261.822 1.071.249 2.117.523 3.113.772.373.1.772.174 1.145.249.349.05.672.1 1.02.149s.698.075 1.072.1a17.926 17.926 0 0 0 4.63-.324c.05 0 .125.025.175.025.722.1 1.419.174 2.166.249.423-.374.97-.871 1.618-1.494l.025-.025q.598-.261 1.195-.597a18.135 18.135 0 0 0 3.287-2.291 17.412 17.412 0 0 0 1.917-1.917 18.574 18.574 0 0 0 1.668-2.216c.747-1.17 1.37-2.34 2.042-3.51.074-.1.149-.175.224-.275a145.729 145.729 0 0 0 6.299-7.643 50.523 50.523 0 0 1 6.349-5.055c.548-.373 1.145-.746 1.718-1.12s1.17-.722 1.767-1.07c.2-.125.399-.25.598-.349a71.15 71.15 0 0 1 3.013-1.693.15.15 0 0 1 .1-.025l.024-.025a65.593 65.593 0 0 1 5.13-1.743c-6.549 3.112-17.454 10.383-20.815 14.939-.573.797-1.27 1.718-2.042 2.764l.622-.623s9.312 8.415 17.304 5.876c6.374-2.017 12.798-18.549 15.138-25.271a1.244 1.244 0 0 0 .1-.324c1.867-.249 3.585-.349 4.88-.423.199-.025.373-.025.548-.05 1.07-.025 1.693-.075 1.693-.075a45.355 45.355 0 0 0-.15 7.17 2.18 2.18 0 0 0 .772 1.27c-2.34 1.768-9.063 7.42-6.946 12.649 2.29 5.726 71.357 6.623 86.196 3.635Z" style="mix-blend-mode:soft-light" opacity=".3"/><path fill="#ed9c1b" d="m1299.424 1146.64-42.748 7.32a244.283 244.283 0 0 1-43.678 3.419c-5.85-16.62-17.699-60.567 8.31-89.455 18.899 7.29 47.157 14.639 88.795 19.078 0 0-16.29 12.96-10.68 59.638ZM1221.802 982.805c-4.657 5.963-12.752 16.714-20.195 28.378a218.566 218.566 0 0 0-3.787-4.483c-.74-.914-1.567-1.828-2.48-2.829a258.09 258.09 0 0 0-5.137-5.44q-.913-.98-1.958-1.96a73.696 73.696 0 0 0-4.179-4.003c-.217-.218-.478-.393-.696-.653a146.493 146.493 0 0 0-11.447-9.663c-15.06-11.403-34.297-21.545-55.799-22.197 9.967-20.196 20.849-39.696 31.251-57.106a106.122 106.122 0 0 1 44.352 25.811c.783.74 1.567 1.523 2.306 2.35.784.784 1.567 1.61 2.307 2.481.914 1.001 1.872 2.09 2.743 3.177.565.697 1.13 1.393 1.74 2.133a104.086 104.086 0 0 1 8.27 12.274 62.762 62.762 0 0 1 1.872 3.395q1.044 1.96 2.089 4.048c.435.914.827 1.828 1.262 2.742.74 1.654 1.48 3.308 2.133 5.049q.718 1.698 1.306 3.395a96.52 96.52 0 0 1 1.131 3.264c.566 1.567 1.045 3.178 1.523 4.788.48 1.654.958 3.352 1.393 5.05Z"/><path d="m1299.424 1146.64-42.748 7.32a244.283 244.283 0 0 1-43.678 3.419 138.418 138.418 0 0 1-7.59-35.758c25.11 5.49 56.278 6.78 92.996.27a143.54 143.54 0 0 0 1.02 24.748ZM1310.043 1087.003a8.216 8.216 0 0 1-1.23.51 1.79 1.79 0 0 1-.24.21l-.27-.03a5.357 5.357 0 0 1-2.82.15c-1.26-.3-4.02-.84-7.74-1.56l-14.489-1.95s-.33-.33-.96-.99l.63.09c.06 0 .09 0 .12.03a569.96 569.96 0 0 0 26.399 3.48 4.074 4.074 0 0 1 .6.06ZM1221.802 982.805c-4.657 5.963-12.752 16.714-20.195 28.378a218.566 218.566 0 0 0-3.787-4.483c-.74-.87-1.567-1.828-2.48-2.829a258.09 258.09 0 0 0-5.137-5.44q-.913-.98-1.958-1.96c-1.306-1.305-2.742-2.654-4.179-4.003-.217-.218-.478-.393-.696-.653-3.482-3.134-7.312-6.399-11.49-9.576 0-.043.043-.043.043-.087 7.79-18.02 14.363-36.517 19.804-53.492.783.74 1.567 1.523 2.306 2.35.784.784 1.567 1.61 2.307 2.481.914 1.001 1.872 2.09 2.743 3.177.565.697 1.13 1.393 1.74 2.133a104.086 104.086 0 0 1 8.27 12.274 62.762 62.762 0 0 1 1.872 3.395q1.044 1.96 2.089 4.048c.435.914.827 1.828 1.262 2.742.74 1.654 1.48 3.308 2.133 5.049q.718 1.698 1.306 3.395a96.52 96.52 0 0 1 1.131 3.264c.566 1.567 1.045 3.178 1.523 4.788.48 1.654.958 3.352 1.393 5.05Z" style="mix-blend-mode:soft-light" opacity=".3"/><path fill="#416396" d="M1325.612 801.777a2.99 2.99 0 0 1-2.01-1.05c-.6-.84-.12-3.06.93-5.97q.135 1.485.36 2.97c.21 1.2.39 2.43.63 3.63.03.15.06.27.09.42Z"/><path fill="#7c5335" d="M1253.856 779.908h42.897c-1.679.78-4.889 2.28-9.239 4.32-5.7 2.67-13.32 6.3-21.809 10.41-3.81 1.86-7.8 3.81-11.849 5.849ZM2086.314 867.654c-30.359 25.858-87.745 16.859-149.603-47.248-61.527-63.747-191.93-207.53-345.972-48.987q-11.16-2.16-23.31-4.29-24.298-4.23-52.616-8.28c11.489-20.909 69.776-114.234 201.41-134.183 148.492-22.499 296.984 194.6 318.344 205.85 0 0-12.93-42.178 32.068-45.538 44.998-3.39 50.067 56.787 19.68 82.676Z"/><path fill="#7c5335" d="m1515.027 822.785-241.132 3.23-61.857-51.747c-155.242-163.101-286.875-17.999-348.732 46.138-61.887 64.107-119.244 73.106-149.633 47.248-30.358-25.889-25.318-86.066 19.68-82.676 44.997 3.36 32.068 45.538 32.068 45.538 21.388-11.25 169.88-228.349 318.373-205.85s203.6 138.353 203.6 138.353l16.89 16.89 158.574 1.56"/><path d="m1515.038 822.797-241.135 3.211-61.871-51.737c-155.239-163.106-286.873-18.001-348.72 46.135-61.896 64.112-119.26 73.1-149.636 47.257-30.35-25.894-25.32-86.072 19.67-82.686 45.015 3.36 32.068 45.538 32.068 45.538 5.403-2.838 18.897-18.798 38.467-40.708 10.781.697 25.77-1.544 46.26-10.432 56.02-24.276 87.765-103.65 201.673-109.252 103.426-5.08 183.746 86.047 222.113 70.71a175.013 175.013 0 0 1 13.47 22.184l16.881 16.88 158.574 1.57Z" style="mix-blend-mode:soft-light" opacity=".3"/><path fill="#7c5335" d="M1356.96 779.908h3.09c-1.44 3.87-2.789 7.8-3.81 11.25"/><path d="M2086.314 867.654c-30.359 25.858-87.745 16.859-149.603-47.248-61.527-63.747-191.93-207.53-345.972-48.987q-11.16-2.16-23.31-4.29-24.298-4.23-52.616-8.28a229.77 229.77 0 0 1 20.458-30.388c14.19.78 39.179-3.21 81.687-23.37 81.835-38.817 132.443-50.607 202.49-24.478 64.466 24.09 136.132 138.323 189.23 123.324 12.81 14.429 21.749 24.389 25.889 26.578a45.946 45.946 0 0 1-1.59-9.629c.75-1.77 6.929-15.24 22.258-18.779 14.04-3.21 31.14 15.33 49.198 11.7 3.75 18.148-2.49 40.527-18.119 53.847Z" style="mix-blend-mode:soft-light" opacity=".3"/><path fill="#5e3b23" d="M765.42 830.516a31.23 31.23 0 0 1-5.933 11.084 26.921 26.921 0 0 1-10.855 8.054 23.465 23.465 0 0 1-14.734.684 32.859 32.859 0 0 1-12.439-7.258 22.724 22.724 0 0 1-4.709-6.483 16.23 16.23 0 0 1-1.33-8.884c.96-6.145 4.77-10.291 8.641-12.956a24.063 24.063 0 0 1 6.417-3.093 14.134 14.134 0 0 1 7.863-.448 5.856 5.856 0 0 1 2.452 1.377 4.445 4.445 0 0 1 .961 1.266 3.481 3.481 0 0 1 .35.939 14.973 14.973 0 0 1 .651 3.313c.182 2.205-.17 4.813-1.858 6.227a7.163 7.163 0 0 0-1.327-5.268 23.19 23.19 0 0 0-1.609-2.16c-.117-.102-.35-.503-.37-.353-.04.075.002.112-.04.192.021.124-.058.177-.253.265a13.71 13.71 0 0 0-3.606 1.852 22.03 22.03 0 0 0-3.62 3.163c-2.139 2.337-3.412 5.024-3.33 6.845-.032 1.717.925 3.52 3.08 5.607a18.276 18.276 0 0 0 3.652 2.84 21.092 21.092 0 0 0 3.963 2.228 16.944 16.944 0 0 0 8.593 1.07c6.274-.832 12.983-5.055 19.39-10.103ZM2034.193 830.516c6.408 5.048 13.118 9.27 19.392 10.103a16.943 16.943 0 0 0 8.591-1.07 21.077 21.077 0 0 0 3.964-2.228 18.265 18.265 0 0 0 3.651-2.84c2.156-2.087 3.113-3.89 3.081-5.607.081-1.82-1.191-4.508-3.33-6.845a22.03 22.03 0 0 0-3.62-3.163 13.71 13.71 0 0 0-3.606-1.852c-.195-.088-.275-.14-.253-.265-.042-.08 0-.117-.04-.192-.02-.15-.252.251-.37.352a23.262 23.262 0 0 0-1.609 2.16 7.163 7.163 0 0 0-1.327 5.27c-1.688-1.415-2.04-4.023-1.858-6.228a14.973 14.973 0 0 1 .65-3.313 3.47 3.47 0 0 1 .351-.939 4.444 4.444 0 0 1 .96-1.266 5.856 5.856 0 0 1 2.453-1.377 14.136 14.136 0 0 1 7.864.448 24.067 24.067 0 0 1 6.416 3.093c3.87 2.665 7.682 6.811 8.641 12.956a16.23 16.23 0 0 1-1.33 8.884 22.724 22.724 0 0 1-4.71 6.483 32.859 32.859 0 0 1-12.438 7.258 23.465 23.465 0 0 1-14.734-.684 26.925 26.925 0 0 1-10.855-8.054 31.23 31.23 0 0 1-5.934-11.084Z"/><path d="M1298.404 1121.89c.03-.209.03-.42.06-.6-.03.391-.03.6-.03.6Z"/><path fill="#212021" d="M1345.672 1057.111 804.497 868.26l-33.048-47.919 3.583-2.473 32.24 46.751 539.835 188.386-1.435 4.106z"/><path fill="#212021" d="M1957.057 823.461h67.573v4.351h-67.573z" transform="rotate(-52.878 1990.84 825.633)"/><path fill="#212021" d="M1948.243 817.746h68.881v4.354h-68.881z" transform="rotate(-53.663 1982.685 819.925)"/><path fill="#212021" d="M794.426 808.467h4.351v59.023h-4.351z" transform="rotate(-34.294 796.605 837.983)"/><path fill="#212021" d="M799.627 801.632h4.35v62.695h-4.35z" transform="rotate(-33.588 801.802 832.98)"/><path fill="#6d311f" d="M1213.61 882.072a304.132 304.132 0 0 0 8.624 37.422 259.185 259.185 0 0 0 13.312 35.721 164.993 164.993 0 0 0 19.226 32.318 121.02 121.02 0 0 0 12.4 13.777 100.178 100.178 0 0 0 14.509 11.13l-2.513-.763c22.242.005 44.513.193 66.721-.038l16.62-.144 8.239-.197c1.382-.03 2.71-.101 4.023-.182l1.975-.112 1.54-.18c6.936-1.197 15.963-10.974 17.034-18.025l5.879-38.684 5.952 38.684c1.084 7.044 10.1 16.823 17.036 18.02l1.54.18 1.974.111c1.312.08 2.64.151 4.023.181l8.239.197 16.62.134c22.207.23 44.478.054 66.72.036l-2.522.766a100.213 100.213 0 0 0 14.507-11.126 121.053 121.053 0 0 0 12.4-13.773 165.522 165.522 0 0 0 19.225-32.315 259.687 259.687 0 0 0 13.315-35.718 304.337 304.337 0 0 0 8.634-37.42 250.578 250.578 0 0 1-5.216 38.288 245.198 245.198 0 0 1-11.058 37.271 170.735 170.735 0 0 1-18.273 34.772 129.584 129.584 0 0 1-12.763 15.327 109.425 109.425 0 0 1-15.526 12.886l-1.03.704-1.494.063c-11.149.478-22.286.71-33.433 1.01l-33.465.67-16.788-.003-8.46-.136c-1.402-.02-2.854-.084-4.321-.162l-2.196-.11-2.61-.295a25.09 25.09 0 0 1-9.885-3.995 41.689 41.689 0 0 1-7.465-6.226c-4.303-4.716-8.202-10.01-9.559-17.655h11.831c-1.37 7.64-5.258 12.936-9.564 17.65a41.639 41.639 0 0 1-7.463 6.226 25.073 25.073 0 0 1-9.882 3.993l-2.61.295-2.195.11c-1.468.08-2.92.143-4.321.163l-8.461.137-16.788-.008-33.464-.668c-11.148-.292-22.284-.54-33.433-1.015l-1.487-.063-1.027-.7a109.416 109.416 0 0 1-15.525-12.883 129.509 129.509 0 0 1-12.763-15.324 171.242 171.242 0 0 1-18.272-34.768 245.502 245.502 0 0 1-11.06-37.269 250.66 250.66 0 0 1-5.226-38.285ZM1336.122 1061.218a78.681 78.681 0 0 1 21.972-19.74 84.425 84.425 0 0 1 28.335-10.416 101.214 101.214 0 0 1 30.398-.809 90.668 90.668 0 0 1 29.456 9.101 94.034 94.034 0 0 1 24.354 18.846 108.155 108.155 0 0 1 17.082 25.003 135.139 135.139 0 0 1 14.397 57.016c-5.37-18.696-12.685-36.52-22.534-52.45-5.052-7.86-10.503-15.402-17.113-21.73a86.618 86.618 0 0 0-21.709-16.088c-15.871-8.458-34.688-11.117-53.08-9.678a92.524 92.524 0 0 0-26.962 6.42 104.146 104.146 0 0 0-24.596 14.525Z"/><path fill="#6d311f" d="M1401.236 993.64a249.887 249.887 0 0 1-4.685-33.436c-.877-11.145-1.285-22.29-1.292-33.436q-.014-16.717 1.276-33.435a246.658 246.658 0 0 1 4.7-33.435 246.674 246.674 0 0 1 4.702 33.435q1.313 16.718 1.275 33.435c-.007 11.146-.415 22.29-1.292 33.436a249.903 249.903 0 0 1-4.684 33.436ZM1241.819 828.387c13.41-3.984 27.31-5.733 41.225-6.438a215.242 215.242 0 0 1 41.872 1.887 173.244 173.244 0 0 1 40.716 11.06c12.964 5.62 25.251 13.231 34.882 23.368a241.798 241.798 0 0 0-37.972-14.565 376.524 376.524 0 0 0-39.363-8.036c-13.294-1.984-26.734-3.225-40.272-4.42ZM1562.007 828.387l-41.088 2.855c-13.538 1.196-26.978 2.437-40.272 4.42a376.55 376.55 0 0 0-39.363 8.037 241.817 241.817 0 0 0-37.972 14.565c9.63-10.137 21.918-17.748 34.882-23.369a173.242 173.242 0 0 1 40.717-11.059 215.238 215.238 0 0 1 41.87-1.887c13.916.705 27.815 2.454 41.226 6.438Z"/><path fill="#cc680e" d="M1210.612 856.135c.598 1.045 1.245 2.116 1.868 3.261a14.436 14.436 0 0 0-1.768-1.792h-.025c-.025-.523-.05-.996-.075-1.47ZM1238.672 965.66c.349-.448.672-.871 1.021-1.32v.1c-.324.449-.647.872-.996 1.295 0-.025-.025-.05-.025-.075Z"/><path d="M1559.45 829.645a75.537 75.537 0 0 1-22.679 27.629c-15.599-7.56-30.748-15.63-44.457-23.279-4.86-2.73-9.57-5.4-14.01-7.95v-.03a966.384 966.384 0 0 1-29.878-17.908c-7.62-4.74-12.75-8.07-14.459-9.21-.45-.27-.66-.42-.66-.42a39.129 39.129 0 0 0 9.93-14.46c.06.03.18.091.33.151 1.2.54 4.95 2.25 10.739 4.77 6.21 2.73 14.79 6.39 25.079 10.649 3.93 1.62 8.13 3.33 12.539 5.07 19.379 7.8 42.928 16.739 67.526 24.988Z" style="mix-blend-mode:soft-light" opacity=".3"/><path fill="#212021" d="M1416.209 1061.892a880.41 880.41 0 0 0-10.36-.653c.393-154.208-.347-425.542-1.044-607.737-.043-11.62-.087-22.937-.13-33.775l7.312-.044h3.09c.044 10.446.087 21.545.13 33.21.653 166.918 1.524 448.871 1.002 609Z"/><path fill="#e8ad1a" d="m1409.832 449.241-42.427 35.998 48.432-149.284 34.32 140.483-40.325-27.197z"/><path d="m1415.845 335.952 34.306 140.47-40.333-27.194c1.58-3.257 5.893-109.861 6.017-113.2a.106.106 0 0 0 .01-.076Z" style="mix-blend-mode:soft-light" opacity=".3"/><path d="m1415.845 335.952 34.306 140.47-40.333-27.194c1.58-3.257 5.893-109.861 6.017-113.2a.106.106 0 0 0 .01-.076Z" style="mix-blend-mode:soft-light" opacity=".3"/><circle cx="1412.21" cy="423.711" r="138.327" fill="#fff" opacity=".49"/><circle cx="1412.21" cy="423.711" r="97.601" fill="#fff" opacity=".49"/><circle cx="1412.21" cy="423.711" r="52.59" fill="#fff" opacity=".49"/><path fill="#e5a488" d="M1325.815 779.848h.024a1.478 1.478 0 0 0-.199.1v-.026a1.192 1.192 0 0 0 .175-.074ZM1556.443 943.85h.025s-.1.473-.249 1.294h-.025v-.024c.15-.797.25-1.27.25-1.27ZM1758.614 847.919a24.48 24.48 0 0 1-.125 1.344 28.54 28.54 0 0 1-.473 3.162 10.065 10.065 0 0 1-.224 1.195 37.623 37.623 0 0 1-.97 3.834 59.557 59.557 0 0 1-1.794 5.254q-.522 1.344-1.12 2.689a44.308 44.308 0 0 1-4.407 7.693 49.847 49.847 0 0 1-2.216 2.913c0 .025 0 .025-.025.025a50.654 50.654 0 0 1-3.809 4.258c-.747.747-1.494 1.494-2.29 2.266a91.134 91.134 0 0 1-5.13 4.406c-.498.424-1.02.822-1.543 1.22-.25.2-.523.399-.797.598-.598.473-1.22.92-1.867 1.37a119.142 119.142 0 0 1-9.262 6.074 119.78 119.78 0 0 1-5.005 2.888c-5.129 2.814-10.606 5.503-16.308 8.017a229.009 229.009 0 0 1-5.702 2.44c-.05.025-.124.05-.174.075-1.867.772-3.734 1.52-5.627 2.266a372.31 372.31 0 0 1-6.299 2.365 397.211 397.211 0 0 1-10.482 3.685q-4.257 1.419-8.59 2.764a522.458 522.458 0 0 1-5.85 1.767 378.29 378.29 0 0 1-5.03 1.47c-1.444.398-2.863.796-4.307 1.194l-4.631 1.27c-1.544.424-3.088.822-4.631 1.22a553.198 553.198 0 0 1-18.051 4.382c-.647.15-1.295.3-1.942.424-.374.074-.722.174-1.07.249q-2.242.485-4.408.97c-.523.1-1.02.225-1.519.324-3.087.673-6.1 1.295-9.013 1.868-1.717.348-3.386.672-5.029.996-1.568.298-3.137.597-4.656.896-.772.15-1.519.299-2.265.423-1.37.25-2.74.498-4.034.747-1.544.274-3.062.548-4.506.797-3.66.647-7.047 1.195-10.084 1.668l.15-.249s-10.508-49.024 4.207-79.125l-76.96-39.24a22.645 22.645 0 0 0-8.19-4.182c-.698-.473-1.37-.971-2.067-1.42a43.004 43.004 0 0 0-7.893-4.356 26.364 26.364 0 0 0-1.245-1.669 12.355 12.355 0 0 0-1.07-1.244 12.136 12.136 0 0 0-.971-.996 22.83 22.83 0 0 0-5.179-3.81 8.917 8.917 0 0 0-.97-.498 18.247 18.247 0 0 0-2.018-.871 31.173 31.173 0 0 0-1.618-.548 20.55 20.55 0 0 0-1.867-.473 1.58 1.58 0 0 0-.175-.05q-.821-.187-1.718-.299l-.448-.074a13.787 13.787 0 0 0-1.494-.15 30.245 30.245 0 0 0-2.639-.124 29.97 29.97 0 0 0-4.307.299c-.623.1-1.245.199-1.843.323-.248.05-.498.125-.722.175a14.485 14.485 0 0 0-1.568.448 10.364 10.364 0 0 0-1.046.348 15.465 15.465 0 0 0-1.768.723 16.144 16.144 0 0 0-1.967.995 8.297 8.297 0 0 0-.896.523c-.398.25-.797.498-1.17.772-.797-.05-1.618-.1-2.465-.1-.871 0-1.718.025-2.54.1a23.062 23.062 0 0 0-2.34.299 1.47 1.47 0 0 0-.349.05 17.322 17.322 0 0 0-1.966.423 26.26 26.26 0 0 0-1.992.597c-.05.025-.1.025-.15.05-.174.075-.348.125-.522.2a3.631 3.631 0 0 0-.474.174c-.298-.274-.597-.523-.896-.772-.174-.15-.348-.299-.548-.448a23.044 23.044 0 0 0-3.834-2.39l-15.71-12.897-4.407-3.61s-.399.447-1.071 1.269c-.274.324-.597.697-.921 1.12-.174.2-.349.449-.548.673-.025.024-.05.024-.05.05a111.207 111.207 0 0 0-10.432 14.963c-.249.448-.473.897-.697 1.345a17.847 17.847 0 0 0-.772 1.543c-.249.473-.448.921-.647 1.37a.19.19 0 0 1-.05.124c-.224.498-.398.996-.573 1.494-.199.498-.348.97-.498 1.444a26.837 26.837 0 0 1-.722 2.017 7.488 7.488 0 0 1-.423.896 8.913 8.913 0 0 1-.423.846c-.025.025-.025.05-.05.075a8.362 8.362 0 0 1-.473.797 10.18 10.18 0 0 1-.722.996 7.982 7.982 0 0 1-.573.672 10.86 10.86 0 0 1-.796.747 20.827 20.827 0 0 0-3.436 1.892 11.375 11.375 0 0 0-.971.673c-.473-.1-.946-.2-1.42-.274-.05 0-.074-.025-.124-.025a27.862 27.862 0 0 0-2.838-.399 5.767 5.767 0 0 1-.872-.348 2.47 2.47 0 0 1-.871-.722l-.05-.05a2.705 2.705 0 0 1-.423-.797 4.977 4.977 0 0 1-.274-.921 8.262 8.262 0 0 1-.2-1.37 9.97 9.97 0 0 1 0-1.22c.026-.323.026-.622.05-.896.025-.124.025-.249.05-.373.05-.324.075-.597.1-.772a1.632 1.632 0 0 1 .05-.224l.149-.448 2.714-7.32 10.955-29.877s-6.822 4.207-20.466 18.225c-13.67 13.992-17.528 6.473-17.528 6.473s14.54-29.778 12.274-31.695c-2.29-1.917-19.445 11.204-30.823 11.379-3.884.05-6.175-.723-7.47-1.793.15-.075.324-.15.424-.2a2.915 2.915 0 0 0 .473-.223c.05-.025.1-.025.124-.05a.392.392 0 0 1 .1-.025v-.025l24.45-32.068s.697-.573 1.842-1.52c6.673-5.85 30.027-25.594 38.442-25.968.05-.025.1-.05.125-.025h.124c.25 0 .548.025.897.05a.424.424 0 0 1 .174.025 25.686 25.686 0 0 1 2.938.598c.398.1.797.199 1.22.324.348.099.697.199 1.07.298.374.1.747.2 1.12.324.374.1.773.2 1.196.348.722.225 1.494.474 2.29.722.872.25 1.768.548 2.714.872 15.86 5.278 40.908 15.163 56.07 21.263.324.124.623.249.897.348.298.1.597.224.896.349.573.224 1.12.448 1.668.672 1.096.448 2.092.847 3.013 1.22.249.1.498.2.722.299.647.273 1.27.523 1.817.747 2.515 1.02 3.96 1.618 3.96 1.618 3.784.448 7.493.896 11.178 1.345 1.22.149 2.465.274 3.685.423 5.503.697 10.856 1.37 16.159 2.066 4.133.548 8.216 1.046 12.225 1.594v.05c29.08 3.834 55.198 7.743 78.528 11.85 84.826 14.79 132.854 31.447 152.2 52.934.348.398.697.772 1.07 1.17a26.1 26.1 0 0 1 1.021 1.295 53.103 53.103 0 0 1 2.042 2.788q.485.71.896 1.42a55.268 55.268 0 0 1 1.594 2.888c.224.498.448.97.672 1.469.2.497.423.97.598 1.468.199.498.373.996.547 1.494.324 1.021.598 2.017.847 3.038.1.523.224 1.02.324 1.543a28.677 28.677 0 0 1 .522 4.607c.025.05.025.075 0 .1a31.105 31.105 0 0 1-.1 4.556Z"/><path d="M1555.223 944.547c.324.2.648.398.971.573v.024l-.97-.597ZM1758.614 847.919a24.48 24.48 0 0 1-.125 1.344 28.54 28.54 0 0 1-.473 3.162 10.065 10.065 0 0 1-.224 1.195 37.623 37.623 0 0 1-.97 3.834 59.557 59.557 0 0 1-1.794 5.254q-.522 1.344-1.12 2.689a44.308 44.308 0 0 1-4.407 7.693 49.847 49.847 0 0 1-2.216 2.913c0 .025 0 .025-.025.025a50.654 50.654 0 0 1-3.809 4.258c-.747.747-1.494 1.494-2.29 2.266a91.134 91.134 0 0 1-5.13 4.406c-.498.424-1.02.822-1.543 1.22-.25.2-.523.399-.797.598-.598.473-1.22.92-1.867 1.37a119.142 119.142 0 0 1-9.262 6.074c-1.619.971-3.287 1.943-5.005 2.888-5.129 2.814-10.606 5.503-16.308 8.017a229.009 229.009 0 0 1-5.702 2.44c-.05.025-.124.05-.174.075-1.867.772-3.734 1.52-5.627 2.266a372.31 372.31 0 0 1-6.299 2.365 397.211 397.211 0 0 1-10.482 3.685q-4.257 1.419-8.59 2.764a522.458 522.458 0 0 1-5.85 1.767 378.29 378.29 0 0 1-5.03 1.47c-1.444.398-2.863.796-4.307 1.194l-4.631 1.27c-1.544.424-3.088.822-4.631 1.22a553.198 553.198 0 0 1-18.051 4.382c-.647.15-1.295.3-1.942.424-.374.074-.722.174-1.07.249q-2.242.485-4.408.97c-.523.1-1.02.225-1.519.324-3.087.648-6.1 1.295-9.013 1.868-1.717.348-3.386.672-5.029.996-1.568.298-3.137.597-4.656.896-.772.15-1.519.299-2.265.423-1.37.25-2.74.498-4.034.747-1.544.274-3.062.548-4.506.797-3.66.647-7.047 1.195-10.084 1.668l.15-.249s-10.508-49.024 4.207-79.125l-76.96-39.24a22.645 22.645 0 0 0-8.19-4.182c-.698-.473-1.37-.971-2.067-1.42a43.004 43.004 0 0 0-7.893-4.356 26.364 26.364 0 0 0-1.245-1.669 25.651 25.651 0 0 0-1.07-1.244 12.136 12.136 0 0 0-.971-.996 22.83 22.83 0 0 0-5.179-3.81 8.917 8.917 0 0 0-.97-.498 18.247 18.247 0 0 0-2.018-.871 31.173 31.173 0 0 0-1.618-.548 20.55 20.55 0 0 0-1.867-.473 1.58 1.58 0 0 0-.175-.05q-.821-.187-1.718-.299l-.448-.074a13.787 13.787 0 0 0-1.494-.15 30.245 30.245 0 0 0-2.639-.124 29.97 29.97 0 0 0-4.307.299c-.623.1-1.245.199-1.843.323-.248.05-.473.125-.722.175a14.485 14.485 0 0 0-1.568.448 10.364 10.364 0 0 0-1.046.348 18.7 18.7 0 0 0-1.768.723 16.144 16.144 0 0 0-1.967.995c-.298.15-.597.349-.896.523-.398.25-.797.498-1.17.772-.797-.05-1.618-.1-2.465-.1-.871 0-1.718.025-2.54.1a18.257 18.257 0 0 0-2.34.299 1.47 1.47 0 0 0-.349.05 16.23 16.23 0 0 0-1.966.423c-.698.174-1.345.373-1.992.597-.05.025-.1.025-.15.05-.174.075-.348.125-.522.2a3.631 3.631 0 0 0-.474.174c-.298-.274-.597-.523-.896-.772-.174-.15-.348-.299-.548-.448a23.044 23.044 0 0 0-3.834-2.39l-15.71-12.897-4.407-3.61s-.399.447-1.071 1.269c-.274.324-.573.697-.921 1.12-.174.2-.349.449-.548.673-.025.024-.05.024-.05.05a111.207 111.207 0 0 0-10.432 14.963c-.224.448-.473.897-.697 1.345-.274.522-.548 1.02-.772 1.543-.224.449-.448.921-.647 1.37a.19.19 0 0 1-.05.124c-.2.523-.398.996-.573 1.494-.199.498-.348.97-.498 1.444a26.837 26.837 0 0 1-.722 2.017 7.488 7.488 0 0 1-.423.896 8.913 8.913 0 0 1-.423.846c-.025.025-.025.05-.05.075a8.362 8.362 0 0 1-.473.797 10.18 10.18 0 0 1-.722.996 7.982 7.982 0 0 1-.573.672 10.86 10.86 0 0 1-.796.747 20.827 20.827 0 0 0-3.436 1.892 11.375 11.375 0 0 0-.971.673c-.473-.1-.946-.2-1.42-.274-.05 0-.074-.025-.124-.025a27.862 27.862 0 0 0-2.838-.399 5.767 5.767 0 0 1-.872-.348 2.47 2.47 0 0 1-.871-.722l-.05-.05a2.705 2.705 0 0 1-.423-.797 4.977 4.977 0 0 1-.274-.921 8.262 8.262 0 0 1-.2-1.37 9.97 9.97 0 0 1 0-1.22c.026-.323.026-.622.05-.896.025-.124.025-.249.05-.373.05-.324.075-.597.1-.772a1.632 1.632 0 0 1 .05-.224l.149-.448 2.714-7.32 10.955-29.877s-6.822 4.207-20.466 18.225c-13.67 13.992-17.528 6.473-17.528 6.473s14.54-29.778 12.274-31.695c-2.29-1.917-19.445 11.204-30.823 11.379-3.884.05-6.175-.723-7.47-1.793.15-.075.324-.15.424-.2a2.915 2.915 0 0 0 .473-.223c.05-.025.1-.025.124-.05a.392.392 0 0 1 .1-.025v-.025l15.362-20.117c14.49.398 38.094-4.806 49.372-39.439.05-.025.1-.05.125-.025a.187.187 0 0 1 .124-.025 6.48 6.48 0 0 1 .897.075.424.424 0 0 1 .174.025 25.686 25.686 0 0 1 2.938.598c.398.1.797.199 1.22.324.348.099.697.199 1.07.298.374.1.747.2 1.12.324.374.1.773.2 1.196.348.722.225 1.494.474 2.29.722.872.25 1.768.548 2.714.872 2.665 19.495 8.665 50.393 20.69 59.43 15.064 11.28 38.343-2.215 35.38-38.167v-.025q.486.186.897.373c.298.1.597.224.896.349.573.224 1.12.448 1.668.672 1.096.423 2.092.847 3.013 1.22.249.1.498.2.722.299.647.273 1.27.523 1.817.747 2.515 1.02 3.96 1.618 3.96 1.618 3.784.448 7.493.896 11.178 1.345 1.22.149 2.465.298 3.685.448a252.035 252.035 0 0 1-6.224 37.322c6.224 2.739 14.789 6.398 25.097 10.656a644.918 644.918 0 0 0 12.523 5.054c19.37 7.818 42.924 16.756 67.523 24.998 55.896 18.623 117.244 33.512 147.769 22.258 19.37-7.145 20.416-18.897 12.424-31.82a.19.19 0 0 0-.05-.099c.398.423.747.847 1.12 1.27a26.1 26.1 0 0 1 1.021 1.295 53.103 53.103 0 0 1 2.042 2.788q.485.71.896 1.42a55.268 55.268 0 0 1 1.594 2.888c.224.498.448.97.672 1.469.2.497.423.97.598 1.468.199.498.373.996.547 1.494.324 1.021.598 2.017.847 3.038.1.523.224 1.02.324 1.543a28.677 28.677 0 0 1 .522 4.607c.025.05.025.075 0 .1a31.105 31.105 0 0 1-.1 4.556Z" style="mix-blend-mode:soft-light" opacity=".3"/><path fill="#ed9c1b" d="M1565.715 857.274c-54.357-26.308-103.465-58.797-103.465-58.797 19.68-17.999 12.36-48.657 12.36-48.657 5.04.6 9.959 1.2 14.85 1.8 5.49.69 10.858 1.35 16.168 2.04 4.14.54 8.22 1.05 12.24 1.59v.03c29.068 3.839 55.167 7.769 78.505 11.849 6.72 52.527-15.118 78.536-30.658 90.145ZM1658.524 922.487c-12.448 3.686-24.897 6.872-36.65 9.536-.646.15-1.294.3-1.941.424-14.914-21.81-14.391-42.85-11.428-56.518 14.69 5.527 28.906 9.884 41.803 12.274a77.454 77.454 0 0 0 8.216 34.284Z"/><path fill="#a5663c" d="M1326.967 779.341c.089 1.11 1.05.886 1.77.751a12.43 12.43 0 0 0 2.401-.802c1.615-.602 3.232-1.392 4.86-2.111 3.238-1.479 6.524-2.961 9.877-4.276a106.278 106.278 0 0 1 10.292-3.63 55.485 55.485 0 0 1 11.017-2.307 46.278 46.278 0 0 1-8.98 6.88 65.06 65.06 0 0 1-9.945 5.012 52.206 52.206 0 0 1-10.846 3.104 26.235 26.235 0 0 1-5.834.43 10.788 10.788 0 0 1-3.07-.546 3.405 3.405 0 0 1-1.47-.91 1.219 1.219 0 0 1-.072-1.595Z"/><path fill="#a5663c" d="M1388.544 777.659c-5.272 5.469-8.79 12.065-14.27 17.79a34.314 34.314 0 0 1-9.675 7.317 19.967 19.967 0 0 1-6.329 1.752 15.907 15.907 0 0 1-3.453-.034 11.124 11.124 0 0 1-3.737-1.046l-2.49-1.196 1.139-2.763c2.175-5.285 4.244-10.611 6.561-15.835 1.126-2.608 2.3-5.272 3.321-7.866a71.664 71.664 0 0 0 1.481-3.851l.298-.914.297-1.094a11.237 11.237 0 0 1 1.247-2.576 48.388 48.388 0 0 1 5.84-6.982c2.01-2.133 4.153-4.098 6.293-6.056a152 152 0 0 1 13.477-10.965c-3.563 4.581-7.251 9.002-10.87 13.441-3.508 4.417-7.415 8.95-9.954 13.363a5.845 5.845 0 0 0-.566 1.322 3.84 3.84 0 0 1-.066.38l-.135.622-.295 1.158a77.093 77.093 0 0 1-1.342 4.29c-.967 2.8-2.101 5.4-3.182 8.098-2.126 5.375-4.502 10.647-6.77 15.96l-1.352-3.957a9.39 9.39 0 0 0 3.864.662 14.292 14.292 0 0 0 4.586-.976 31.991 31.991 0 0 0 8.852-5.455c5.676-4.437 10.55-10.728 17.23-14.59ZM1673.165 890.145c-9.684.763-19.458-.392-28.995-2.26a237.312 237.312 0 0 1-28.217-7.466 506.252 506.252 0 0 1-54-22.023q-26.302-12.582-51.624-27.028c-16.879-9.616-33.532-19.55-49.808-30.275l3.686-.158c-2.36 1.623-4.675 3.304-7.088 4.857l-3.906 1.965a18.47 18.47 0 0 1-4.056 1.69 29.246 29.246 0 0 1-17.786.992 33.458 33.458 0 0 1-15.15-9.065 51.446 51.446 0 0 1-9.91-14.17l4.694.49c-5.743 8.03-11.725 16.236-15.563 25.102a22.48 22.48 0 0 1-11.628 11.506 10.502 10.502 0 0 1-4.634.71 5.57 5.57 0 0 1-4.353-3.157c-1.42-3.122-.769-6.1-.074-8.663 1.598-5.13 4.108-9.436 6.098-14.009 2.097-4.503 3.508-9.236 5.35-13.999 1.642-4.79 3.714-9.385 5.747-13.995l6.17-13.774-5.159 14.176c-1.768 4.698-3.576 9.381-4.933 14.197-1.534 4.705-2.735 9.712-4.63 14.45-1.75 4.75-4.067 9.349-5.33 13.878-.578 2.201-.758 4.586.06 6.076a1.734 1.734 0 0 0 1.492 1.022 6.957 6.957 0 0 0 2.726-.579 18.465 18.465 0 0 0 8.978-9.544 87.296 87.296 0 0 1 6.982-13.774 224.565 224.565 0 0 1 8.289-12.816l2.609-3.742 2.086 4.232a46.251 46.251 0 0 0 8.955 12.301 27.592 27.592 0 0 0 12.61 7.318l1.742.45 1.794.107a14.413 14.413 0 0 0 3.59.014l3.603-.453 3.534-1.128a14.41 14.41 0 0 0 3.447-1.466l3.384-1.715c2.143-1.411 4.23-2.953 6.355-4.41l1.905-1.307 1.782 1.148c16.176 10.418 32.715 20.471 49.428 30.127 16.74 9.619 33.628 18.993 50.868 27.658a502.133 502.133 0 0 0 52.776 23.62c18.015 6.646 36.664 12.621 56.104 12.89Z"/><path fill="#7c5335" d="M1325.815 779.848h.024a1.478 1.478 0 0 0-.199.1v-.026a1.192 1.192 0 0 0 .175-.074ZM1381.436 823.02a9.413 9.413 0 0 0 2.39-.398 11.375 11.375 0 0 0-.97.673c-.474-.1-.947-.2-1.42-.274ZM1433.572 808.231a3.631 3.631 0 0 0-.473.175 33.733 33.733 0 0 0-1.444-1.22c.573.274 1.22.622 1.918 1.045Z"/><path fill="#ed9c1b" d="M1556.468 943.85s-.1.473-.249 1.294h-.025l-.97-.597c.323.2.647.398.97.573.15-.797.25-1.27.25-1.27Z"/><path fill="#212021" d="m1446.476 1073.274-1.603-4.046 536.433-212.742 37.17-50.101 3.496 2.595-37.91 51.094-.577.229-537.009 212.971z"/><path fill="#a5663c" d="M1185.266 1045.962c3.59 4.276 8.284 7.416 13.018 10.254a122.12 122.12 0 0 0 14.861 7.417 211.672 211.672 0 0 0 31.602 10.219c21.5 5.426 43.523 8.625 65.608 10.722l-2.205.95a158.737 158.737 0 0 1 11.47-13.32 124.67 124.67 0 0 1 13.047-11.842 70.754 70.754 0 0 1 15.204-9.47c5.524-2.455 11.77-4.2 18.334-3.456l2.78.315-.147 2.863-.52 10.143-2.93-3.249c18.86.97 37.683 2.11 56.528 4.472 4.714.629 9.422 1.327 14.173 2.333a52.965 52.965 0 0 1 7.259 2.01 11.17 11.17 0 0 1 1.954.853l1.01.527a12.38 12.38 0 0 1 1.233 1.01 6.747 6.747 0 0 1 2 5.815c-.726 3.874-2.791 5.76-4.533 7.702a49.147 49.147 0 0 1-5.765 4.862 105.077 105.077 0 0 1-12.384 7.695l1.58-2.05a273.948 273.948 0 0 1-12.904 40.695 102.662 102.662 0 0 1-4.71 9.777 37.472 37.472 0 0 1-6.688 9.149 18.264 18.264 0 0 1-2.449 1.953 16.891 16.891 0 0 1-2.877 1.361 45.32 45.32 0 0 1-5.38 1.55 78.367 78.367 0 0 1-10.704 1.63c-14.225 1.713-28.514 1.21-42.621-.41-14.091-1.695-28.097-4.997-41.094-10.833l.594.07c-14.298 2.139-28.595 4.283-42.92 6.268 14.17-2.89 28.367-5.62 42.563-8.356l.282-.054.314.124c12.969 5.148 26.806 7.76 40.655 9.152 13.863 1.228 27.94 1.342 41.635-.684a73.937 73.937 0 0 0 10.111-1.802 40.35 40.35 0 0 0 4.724-1.49 11.638 11.638 0 0 0 1.869-.93 13.232 13.232 0 0 0 1.625-1.388c4.254-4.447 7.232-10.99 9.859-17.26 5.157-12.8 8.908-26.39 12.102-39.885l.325-1.373 1.256-.68a99.267 99.267 0 0 0 11.541-7.243 43.127 43.127 0 0 0 5.001-4.243c1.436-1.417 2.71-3.267 2.754-4.119.01-.323-.004-.41-.23-.55-.06-.017-.051-.046-.12-.118l-.566-.268a6.128 6.128 0 0 0-1.28-.542 47.513 47.513 0 0 0-6.341-1.708c-4.46-.927-9.072-1.588-13.684-2.19-18.5-2.405-37.273-3.632-55.988-4.676l-3.117-.174.185-3.076.611-10.138 2.633 3.178c-4.975-.637-10.244.652-15.188 2.785a65.149 65.149 0 0 0-14.124 8.56 127.932 127.932 0 0 0-12.67 11.153 154.189 154.189 0 0 0-11.385 12.535l-.895 1.11-1.311-.16c-22.198-2.71-44.337-6.459-65.9-12.583a213.993 213.993 0 0 1-31.478-11.686 120.637 120.637 0 0 1-14.685-8.142c-4.609-3.134-9.162-6.58-12.506-11.064Z"/></g></svg>