<svg xmlns="http://www.w3.org/2000/svg" viewBox="0 0 1843.84 2141.92"><g data-name="Layer 1" style="isolation:isolate"><ellipse cx="921.92" cy="1881.808" opacity=".15" rx="651.176" ry="77.843"/><path fill="#ad6247" d="M817.733 870.758s32.025 29.006 28.798 239.315a130.17 130.17 0 0 0 7.643-19.127c11.083-38.674 8.208-64.455 8.208-64.455a84.428 84.428 0 0 1-15.189-36.483c-3.25-21.5-10.574-32.848-7.263-36.35s13.058-.363 16.308 14.318 6.656 14.587 6.656 14.587 5.834-14.935 3.846-25.106 3.275-45.544 11.87-42.943 2.513 49.36 2.513 49.36 12.184-52.043 21.284-51.728-3.418 40.434-9.172 58.208c0 0 23.161-45.53 27.23-42.235s.665 23.844-19.013 51.664c0 0 25.45-24.572 33.556-19.116s-24.22 27.947-24.22 27.947 7.15 33.487-10.21 42.493c0 0 30.514 157.098-50.103 178.498-58.186 15.446-62.742-90.293-62.742-90.293Z"/><path d="M878.6 914.52c-4.22-1.291-7.653 6.665-9.793 16.257 4.402-1.313 9.269-.95 14.357.606-.161-8.643-1.312-15.893-4.563-16.862Zm23.809-2.382c-4.08-.141-8.805 10.279-12.722 21.789a83.241 83.241 0 0 1 12.177 7.25c3.796-15.004 5.876-28.857.545-29.039Zm-25.14 78.108c9.046-5.17 25.322 2.363 34.752 7.674a75.782 75.782 0 0 0-1.232-9.31s2-1.393 4.866-3.533a85.355 85.355 0 0 0-8.642-10.299c-3.13 2.686-5.27 4.746-5.533 4.988 1.494-2.16 2.928-4.24 4.24-6.3a105.793 105.793 0 0 0-9.733-8.421c-1.575 3.009-2.585 5.008-2.726 5.27.566-1.756 1.212-3.755 1.878-5.896a135.03 135.03 0 0 0-12.116-8.118c-1.192 4.564-1.898 7.573-1.898 7.573s.424-3.292.908-8.179c-5.957-3.513-11.368-6.32-15.548-8.743a45.463 45.463 0 0 0 .262 10.5c1.98 10.178-3.857 25.12-3.857 25.12-.08 0-3.433-.08-6.644-14.599-3.13-14.135-12.277-17.568-15.912-14.68-8.542-69.79-22.596-82.531-22.596-82.531l-30.008 248.54s4.564 105.754 62.741 90.306c.727-.202 1.454-.404 2.16-.626-8.945-12.46-9.55-33.44 2.666-57.45 13.894-27.282 36.55-37.015 50.524-40.488 2.221-41.478-5.25-79.946-5.25-79.946a17.437 17.437 0 0 0 4.927-3.817c-25.383-6.401-39.68-30.492-28.23-37.035Zm-23.102 100.705a129.393 129.393 0 0 1-7.634 19.123c.95-61.71-1.13-107.813-4.563-142.162a147.355 147.355 0 0 1 5.23 22.092 84.454 84.454 0 0 0 15.185 36.49s2.868 25.787-8.218 64.457Zm66.295-162.84c-1.838-1.494-7.654 7.108-13.408 16.942a163.052 163.052 0 0 1 9.632 8.22c5.916-13.753 6.401-23.021 3.776-25.162ZM935 960.663c-2.181-1.474-5.634-.747-9.511 1.09a250.107 250.107 0 0 1 7.451 7.876c3.17-3.857 4.604-7.25 2.06-8.966Z" opacity=".3" style="mix-blend-mode:soft-light"/><path fill="#894631" d="M846.53 1110.073a122.969 122.969 0 0 1-5.43 15.179c-1.969 4.871-4.175 9.553-6.3 14.235l-6.516 13.933c-2.092 4.697-4.174 9.335-6.275 14.532-1.603-5.404-1.314-11.162-.337-16.585a63.034 63.034 0 0 1 5.083-15.614 75.215 75.215 0 0 1 8.363-13.934 55.706 55.706 0 0 1 11.413-11.746Z"/><path fill="#1e1918" d="M379.545 951.976c.965 32.13 49.186 26.873 49.186 26.873s-23.571 55.808 69.573 54.806c0 0 17.927 78.488 103.389 14.343 0 0-14.197 84.639 88.828 42.846 91.386-20.658 72.893-86.604 72.893-86.604 65.752 15.526 70.84-53.046 70.84-53.046 52.783-28.89 36.403-62.708 36.403-62.708s25.44-8.487 23.797-31.25c-1.66-22.794-20.201-23.732-20.201-23.732s23.593-8.457 22.888-34.653c-.72-26.214-24.618-24.043-24.618-24.043 25.641-45.715-26.715-48.109-26.715-48.109l-165.843-2.8-9.583-.163-9.636 1.489-216.33 33.448s-96.032 17.024-38.54 71.2c0 0-45.832 6.328-42.34 43.13 3.452 36.677 49.41 35.702 49.41 35.702s-34.394 11.146-33.401 43.271Z"/><path fill="#f7c434" d="M709.744 1837.232a8.985 8.985 0 0 0 8.635 9.74c3.621.125 8.186.166 13.53.06 14.209-.278 17.908 3.822 28.65 12.934 10.742 9.146 37.852 11.743 59.26 4.574 21.376-7.168 35.278-23.057 27.973-44.724-7.272-21.7-19.512-14.156-19.512-14.156s15.09-1.861 11.3 14.318c-3.072 12.872-20.35 9.593-43.194-3.227a98.992 98.992 0 0 0-1.946-1.135c-5.309-3.058-10.888-6.6-16.638-10.53-31.593-21.71-65.107-1.85-65.107-1.85l-.794 9.372-.531 6.14Z"/><path d="M773.13 1831.064c16.649-3.783 20.56-8.815 28.165-11.67a127.378 127.378 0 0 1-4.91-2.643 98.992 98.992 0 0 0-1.945-1.135c-5.309-3.058-10.888-6.6-16.638-10.53-31.593-21.71-65.107-1.85-65.107-1.85l-.794 9.372-.531 6.14-.586 6.727c10.384 2.502 43.747 9.768 62.345 5.589Z" opacity=".45" style="mix-blend-mode:soft-light"/><path d="M709.722 1837.786a8.968 8.968 0 0 0 8.657 9.187c3.621.124 8.186.165 13.53.06 14.209-.28 17.908 3.82 28.65 12.933 6.233 5.322 18.063 8.415 31.076 8.681 28.243-2.771 48.3-18.977 53.414-34.106 3.665-10.928-2.264-22.353-6.562-28.69a10.34 10.34 0 0 0-10.207-.191s15.09-1.861 11.3 14.318a9.685 9.685 0 0 1-5.179 6.883c-3.816 8.225-16.343 26.042-52.58 25.124-44.947-1.17-26.219-18.621-72.099-14.199Z" opacity=".45" style="mix-blend-mode:soft-light"/><path fill="#b7765a" d="M711.37 1818.748c28.862 8.822 63.796 6.472 63.796 6.472a44.388 44.388 0 0 1 21.22-8.469 98.992 98.992 0 0 0-1.946-1.135c-5.309-3.058-10.888-6.6-16.638-10.53-31.593-21.71-65.107-1.85-65.107-1.85l-.794 9.372Z"/><path d="M711.37 1818.748c28.862 8.822 63.796 6.472 63.796 6.472a44.388 44.388 0 0 1 21.22-8.469 98.992 98.992 0 0 0-1.946-1.135 58.241 58.241 0 0 1-2.903-1.736c-21.903 10.178-52.802 2.21-48.187-5.15 3.193-5.083 15.23-8.025 23.644-9.495-27.971-11.61-54.3 4.001-54.3 4.001l-.793 9.372Z" opacity=".22" style="mix-blend-mode:soft-light"/><path fill="#f7c434" d="M655.741 1850.1a8.985 8.985 0 0 1-8.078 10.207c-3.609.326-8.164.621-13.506.814-14.202.513-17.667 4.813-27.885 14.51-10.216 9.73-37.139 13.834-58.913 7.868-21.742-5.966-36.507-21.055-30.421-43.095 6.052-22.071 18.693-15.222 18.693-15.222s-15.17-1.017-10.485 14.926c3.785 12.68 20.853 8.444 42.947-5.629a99.66 99.66 0 0 1 1.88-1.242c5.13-3.349 10.503-7.196 16.025-11.44 30.334-23.437 64.903-5.475 64.903-5.475l1.315 9.313.873 6.1Z"/><path d="M592.111 1847.474c-16.834-2.85-21.02-7.656-28.772-10.083a127.051 127.051 0 0 0 4.755-2.912 99.66 99.66 0 0 1 1.879-1.242c5.13-3.349 10.503-7.196 16.025-11.44 30.334-23.437 64.903-5.475 64.903-5.475l1.315 9.313.873 6.1.959 6.685c-10.228 3.076-43.135 12.19-61.937 9.054Z" opacity=".45" style="mix-blend-mode:soft-light"/><path d="M655.794 1850.653a8.968 8.968 0 0 1-8.131 9.654c-3.609.326-8.164.621-13.506.814-14.202.513-17.667 4.813-27.885 14.51-5.927 5.661-17.566 9.408-30.544 10.399-28.353-1.194-49.282-16.257-55.232-31.077-4.268-10.707 1.016-22.444 4.954-29.012a10.341 10.341 0 0 1 10.181-.759s-15.17-1.017-10.485 14.926a9.685 9.685 0 0 0 5.554 6.583c4.268 8 17.769 25.092 53.899 22.156 44.812-3.673 25.14-20.053 71.195-18.194Z" opacity=".45" style="mix-blend-mode:soft-light"/><path fill="#b7765a" d="M653.089 1831.736c-28.326 10.416-63.337 10.017-63.337 10.017a44.388 44.388 0 0 0-21.658-7.274 99.66 99.66 0 0 1 1.879-1.242c5.13-3.349 10.503-7.196 16.025-11.44 30.334-23.437 64.903-5.475 64.903-5.475l1.315 9.313Z"/><path d="M653.089 1831.736c-28.326 10.416-63.337 10.017-63.337 10.017a44.388 44.388 0 0 0-21.658-7.274 99.66 99.66 0 0 1 1.879-1.242 58.233 58.233 0 0 0 2.802-1.895c22.436 8.942 52.843-.734 47.825-7.826-3.471-4.898-15.653-7.165-24.137-8.163 27.281-13.151 54.438.97 54.438.97l1.315 9.312Z" opacity=".22" style="mix-blend-mode:soft-light"/><path fill="#771131" d="M763.979 1281.128s54.242 322.67 48.516 374.243-117.839 149.075-117.839 149.075l-91.927 19.415s-126.811-22.787-157.7-172.79l48.6-110.594s-97.437-154.37 14.356-256.973 255.994-2.376 255.994-2.376Z"/><path d="M445.03 1651.066c30.889 150.002 157.702 172.789 157.702 172.789l91.92-19.411s98.102-85.318 115.445-138.547c-62.254-41.091-71.98-171.866-71.98-171.866 13.264 46.82 43.887 67.037 68.594 75.741a2634.675 2634.675 0 0 0-4.223-34.062c-59.231-26.853-74.943-94.796-74.943-94.796 20.401 17.309 47.095 21.958 65.021 22.933-13.43-92.592-28.588-182.711-28.588-182.711s-144.204-100.239-255.986 2.37c-111.802 102.608-14.37 256.977-14.37 256.977Zm187.115-167.716s-41.28 109.106-151.349 114.438l24.74-49.537s37.42-3.326 126.61-64.901ZM459.83 1660.875s85.966 27.158 173.488-135.52c0 0-27.122 331.432-173.488 135.52Z" opacity=".3" style="mix-blend-mode:soft-light"/><path fill="#b7305a" d="m666.8 1821.838.66 19.924c21.727 11.014 59.901-1.65 59.901-1.65l.161-7.67c12.184 1.529 32.001-9.604 32.001-9.604l-1.323-12.501-2.446-23.371-1.322-12.48-2.433-23.226-47.866-454.856-60.107-9.491-8.662 452.155-.464 23.405-.177 9.653-.445 23.423-.28 14.815c16.679 15.12 32.801 11.474 32.801 11.474Z"/><path fill="#ea831c" d="m667.057 1808.945-.006 10.952c23.442 19.787 59.576 6.764 59.576 6.764l-.223-9.763c13.139 1.485 25.387-3.354 31.796-6.561l-2.446-23.371c-16.283 12.504-31.22 5.466-31.22 5.466l-.076 6.64c-30.6 15.277-57.605.13-57.605.13l-.15-16.424c-13.824 2.332-25.855-5.573-31.98-10.652l-.445 23.423c14.67 12.756 32.78 13.396 32.78 13.396Z"/><path fill="#ea831c" d="m665.86 1772.633.61 12.273c23.442 19.787 56.901 5.67 56.901 5.67l-.223-9.763c12.798 1.453 24.752-3.11 31.284-6.327l-2.433-23.226c-16.081 11.985-30.721 5.087-30.721 5.087l-.076 6.64c-30.6 15.277-55.223 1.125-55.223 1.125l.018-14.958c-11.427 1.928-23.371-4.817-30.633-10.085l-.464 23.404c14.104 9.824 30.96 10.16 30.96 10.16Z"/><path d="M633.99 1810.357a48.155 48.155 0 0 0 12.597 8.376l.122-15.175.186-23.761.095-11.094.175-22.71 3.041-375.648 3.712-2.366 8.293 381.493.498 22.934.24 10.761.546 25.418.299 13.587a20.668 20.668 0 0 0 3-.326l.657 19.92c6.7 3.41 14.975 4.553 23.215 4.505l-.735-16.242-1.088-24.514-.503-10.794-1.096-24.837-18.356-408.383 13.5-4.921 34.116 408.549 2.249 27.047.76 9.11 2.242 26.826 1.119 13.321c2.827-.765 4.488-1.317 4.488-1.317l.17-7.68c4.784.593 10.726-.744 16.19-2.614l-1.397-13.86-2.189-21.978-1.4-14.02-2.21-22-40.62-405.56 13.376-7.16-5.139-48.844-60.121-9.496-8.666 452.165-.459 23.406-.175 9.64-.438 23.426Z" opacity=".3" style="mix-blend-mode:soft-light"/><path d="M724.46 1799.068a61.305 61.305 0 0 1-4.948 2.218l2.243 26.826c3.069-.793 4.868-1.45 4.868-1.45l-.212-9.77a49.648 49.648 0 0 0 15.914-.93l-2.189-21.978a28.593 28.593 0 0 1-15.598-1.545ZM663.495 1808.585c2.231.322 3.566.365 3.566.365l-.018 10.95a46.682 46.682 0 0 0 22.888 10.129l-1.088-24.514a62.774 62.774 0 0 1-21.993-6.316l-.13-14.097-.025-2.322a1.77 1.77 0 0 1-.322.05 28.35 28.35 0 0 1-3.425.337ZM634.284 1795.541a53.471 53.471 0 0 0 12.425 8.017l.186-23.761a53.897 53.897 0 0 1-12.173-7.681ZM721.211 1762.978a78.014 78.014 0 0 1-4.707 2.15l2.249 27.048c2.925-.89 4.622-1.603 4.622-1.603l-.231-9.751a49.473 49.473 0 0 0 15.591-.859l-2.21-21.998a28.42 28.42 0 0 1-15.256-1.615Z" opacity=".3" style="mix-blend-mode:soft-light"/><path d="m662.21 1749.472.499 22.934c1.985.208 3.158.235 3.158.235l.506 10.188.098 2.078a2.134 2.134 0 0 0 .248.195 44.204 44.204 0 0 0 21.621 9.62l-1.096-24.838c-12.957-1.012-21.272-5.77-21.272-5.77l.027-14.97a23.82 23.82 0 0 1-3.788.328ZM634.897 1762.475a54.64 54.64 0 0 0 12.093 6.228l.175-22.71a66.485 66.485 0 0 1-11.809-6.924Z" opacity=".3" style="mix-blend-mode:soft-light"/><path fill="#680e2a" d="m727.525 1832.44-6.357-64.161-5.961-64.194-11.302-128.441-10.416-128.515-4.893-64.284-4.493-64.318 6.362 64.16 5.963 64.194 11.294 128.441 10.41 128.516 4.894 64.284 4.499 64.318zM666.794 1821.847c-.049-21.167-.885-42.327-1.464-63.488l-1.6-63.488-2.822-126.983-2.08-127-.755-63.505-.374-63.514 2.25 63.476 1.829 63.484 2.96 126.985 1.928 127.005c.365 42.337.978 84.686.128 127.028Z"/><path fill="#ea831c" d="m759.186 1204.606 4.793 76.522s-76.882 59.444-255.994 2.376c0 0-4.02-35.598 13.688-67.436s237.513-11.462 237.513-11.462Z"/><path d="m759.186 1204.606 4.793 76.522s-76.882 59.444-255.994 2.376c0 0-4.02-35.598 13.688-67.436s237.513-11.462 237.513-11.462Z" opacity=".3" style="mix-blend-mode:soft-light"/><path fill="#b76e4e" d="M409.507 912.386c58.642 192.66 112.16 303.69 112.16 303.69 113.507 38.975 237.51-11.47 237.51-11.47 40.825-120.346 54.07-337.98 54.07-337.98a625.695 625.695 0 0 0-66.514-14.166c-1.988-.328-3.956-.617-5.924-.905-.223-.034-.466-.068-.69-.102-.507-.087-1.014-.154-1.5-.221a53.159 53.159 0 0 0-1.765-.234 603.497 603.497 0 0 0-153.262-2.03l-.021.001c-2.698.318-5.356.634-7.973.97-1.77.231-3.522.482-5.252.712q-4.106.569-8.027 1.193c-55.838 8.628-88.928 22.398-88.928 22.398-26.328 8.492-63.884 38.144-63.884 38.144Z"/><path d="M409.507 912.386c58.642 192.66 112.16 303.69 112.16 303.69 113.507 38.975 237.51-11.47 237.51-11.47a434.371 434.371 0 0 0 4.755-14.94 108.435 108.435 0 0 1-21.583 7.672C584.337 1235.823 582.308 918.86 582.308 918.86c85.661-9.863 157.976-40.484 197.442-60.311-177.834-37.768-306.36 15.692-306.36 15.692-26.327 8.492-63.883 38.144-63.883 38.144Z" opacity=".3" style="mix-blend-mode:soft-light"/><ellipse cx="677.19" cy="1272.067" fill="#c4b6ae" rx="45.246" ry="59.634" transform="rotate(-1.597 677.192 1272.07)"/><ellipse cx="677.19" cy="1272.067" fill="#aa9d96" rx="39.258" ry="51.742" transform="rotate(-1.597 677.188 1272.063)"/><ellipse cx="677.19" cy="1272.067" fill="#c4b6ae" rx="27.989" ry="36.89" transform="rotate(-1.597 677.192 1272.07)"/><ellipse cx="677.19" cy="1272.067" fill="#aa9d96" rx="18.76" ry="24.725" transform="rotate(-1.597 677.189 1272.064)"/><ellipse cx="677.19" cy="1272.067" fill="#dbcec8" rx="15.575" ry="20.527" transform="rotate(-1.597 677.19 1272.067)"/><path fill="#f9a832" d="M575.598 849.939c2.566 21.746 19.738 47.852 44.778 64.89a104.707 104.707 0 0 0 12.713 7.484c1.865.958 3.748 1.855 5.69 2.65a93.99 93.99 0 0 0 38.342 7.96c38.877-.356 54.35-37.352 60.377-62.448.923-3.864 1.611-7.439 2.13-10.544a139.83 139.83 0 0 0 1.052-7.221c.049-.406.1-.79.129-1.155-.223-.034-.466-.068-.69-.102-.507-.087-1.014-.154-1.5-.221a53.159 53.159 0 0 0-1.765-.234l-1.484 1.112c-33.891 98.76-140.86 6.615-151.779-3.141h-.02c-2.698.318-5.356.634-7.973.97Z"/><path d="m630.473 902.247 8.303 22.72a79.254 79.254 0 0 1-5.685-2.661l-7.997-23.09Z" opacity=".45" style="mix-blend-mode:soft-light"/><path d="M575.598 849.939c2.566 21.746 19.738 47.852 44.778 64.89-5.458-13.16-6.727-28.255-6.727-28.255 45.31 31.119 87.43 30.41 105.211 8.096 9.017-11.342 14.96-19.184 18.638-24.195.923-3.864 1.611-7.439 2.13-10.544a139.83 139.83 0 0 0 1.052-7.221c-.173-.42-.347-.839-.56-1.257-.508-.087-1.015-.154-1.501-.221a53.159 53.159 0 0 0-1.765-.234l-1.484 1.112c-33.891 98.76-140.86 6.615-151.778-3.141h-.021c-2.698.318-5.356.634-7.973.97Z" opacity=".45" style="mix-blend-mode:soft-light"/><path fill="#f9a832" d="M562.319 851.844c3.167 24.497 11.909 66.312 27.405 104.788q3.19 7.88 6.756 15.508 4.19 9.004 8.929 17.407c1.763 3.102 3.565 6.163 5.466 9.1a165.414 165.414 0 0 0 3.31 4.998c2.801 4.084 5.718 7.962 8.768 11.574a64.67 64.67 0 0 0 1.836 2.13c.626.71 1.252 1.4 1.877 2.09a100.13 100.13 0 0 0 7.79 7.66 82.722 82.722 0 0 0 2.027 1.742c.62.508 1.24 1.016 1.86 1.504a2.437 2.437 0 0 0 .249.215c.66.507 1.341 1.013 2.022 1.52.62.467 1.257.914 1.896 1.36a2.852 2.852 0 0 0 .37.253c.556.368 1.113.757 1.689 1.124.946.62 1.891 1.2 2.856 1.759.411.23.801.463 1.212.693a46.162 46.162 0 0 0 3.136 1.63c.636.326 1.27.631 1.924.916a.364.364 0 0 0 .185.076 20.23 20.23 0 0 0 1.676.72c.716.324 1.451.607 2.186.869a8.55 8.55 0 0 0 1.204.431q.827.31 1.652.56l.366.111a53.3 53.3 0 0 0 1.935.572c.204.055.407.11.631.165l1.77.435c.183.035.366.09.569.126 1.545.34 3.128.6 4.71.818.831.118 1.682.216 2.532.273.85.077 1.701.134 2.57.17.85.058 1.72.074 2.588.07a56.14 56.14 0 0 0 4.118-.135 5.662 5.662 0 0 0 .584-.037 64.964 64.964 0 0 0 4.33-.484 45.811 45.811 0 0 0 2.836-.463 59.355 59.355 0 0 0 3.374-.72l.06-.002a72.481 72.481 0 0 0 3.289-.88 50.116 50.116 0 0 0 3.084-.954 2.425 2.425 0 0 0 .36-.111q1.441-.495 2.82-1.049a73.96 73.96 0 0 0 2.914-1.232 76.525 76.525 0 0 0 2.234-1.052c.338-.171.657-.342.996-.513.916-.47 1.811-.96 2.685-1.489.478-.276.955-.552 1.411-.847.318-.191.656-.403.973-.613.616-.381 1.23-.802 1.825-1.203q.624-.441 1.187-.881a63.68 63.68 0 0 0 10.423-9.482l1.642-1.925c.137-.186.274-.351.41-.516.547-.682 1.073-1.364 1.6-2.045a66.76 66.76 0 0 0 1.75-2.432c.506-.722.99-1.462 1.474-2.203a68.52 68.52 0 0 0 1.778-2.878q.783-1.295 1.502-2.648c22.31-41.045 16.704-105.876 11.41-140.676a424.209 424.209 0 0 0-2.607-15.28c-1.988-.33-3.957-.618-5.924-.906-.223-.034-.466-.068-.69-.102-.507-.087-1.014-.154-1.5-.221.31 2.456.675 5.395 1.01 8.699 4.16 39.802 7.508 134.533-55.462 131.562-71.829-3.371-107.517-118.332-113.821-140.842q-4.106.569-8.027 1.193Z"/><path d="m604.649 954.13.764 35.424c-3.17-5.585-6.143-11.418-8.933-17.408l1.837-24.956ZM737.92 1008.411c-9.77 17.97-24.904 31.37-47.782 35.672-33.49 6.309-59.579-14.568-79.257-45.439l1.786-34.297 5.657 5.554 12.107 47.457s52.089 50.477 107.49-8.947Z" opacity=".45" style="mix-blend-mode:soft-light"/><path d="M562.319 851.844c3.167 24.497 11.909 66.312 27.405 104.788l2.425-38.37c14.628 39.188 69.817 101.485 118.754 82.263 48.897-19.222 35.08-126.408 35.08-126.408l3.358-6.376a424.209 424.209 0 0 0-2.608-15.28c-1.988-.33-3.956-.618-5.924-.906-.223-.034-.466-.068-.69-.102-.507-.087-1.014-.154-1.5-.221.31 2.456.675 5.395 1.01 8.699 4.16 39.802 7.508 134.533-55.462 131.562-71.829-3.371-107.517-118.332-113.821-140.842q-4.106.569-8.027 1.193Z" opacity=".45" style="mix-blend-mode:soft-light"/><ellipse cx="692.76" cy="1061.602" fill="#f9a832" rx="23.999" ry="20.665" transform="rotate(-81.774 692.765 1061.606)"/><ellipse cx="692.76" cy="1061.602" opacity=".45" rx="23.999" ry="20.665" transform="rotate(-81.774 692.765 1061.606)" style="mix-blend-mode:soft-light"/><ellipse cx="692.76" cy="1061.602" opacity=".45" rx="15.173" ry="13.065" transform="rotate(-81.773 692.763 1061.603)" style="mix-blend-mode:soft-light"/><path fill="#a31c3f" d="M448.795 885.079s18.431 258.193 36.273 437.323q1.262 12.648 2.502 24.5c.727 7.24 1.468 14.248 2.2 20.963 2.049 19.12 3.973 35.978 5.731 49.777 1.914 15.033 3.607 26.463 5.051 33.347 0 0 64.703 38.335 127.466 7.084l-3.151-29.686-3.863-36.38-2.405-22.53-2.522-23.787-52.737-496.015s-97.641 16.751-114.545 35.404Z"/><path fill="#ea831c" d="M489.77 1367.865c2.049 19.12 3.973 35.978 5.731 49.777a166.09 166.09 0 0 0 129.366 10.745l-3.863-36.38c-28.834 4.098-92.127 8.36-131.233-24.142ZM485.068 1322.402q1.262 12.648 2.502 24.5c17.044 9.24 75.441 37.322 131.029 22.574l-2.522-23.786c-17.558 3.532-72.752 10.61-131.009-23.288Z"/><g opacity=".3" style="mix-blend-mode:soft-light"><path d="m521.938 975.087 37.47 372.316 2.483 24.576 2.213 22.12 4.3 42.625 3.38 33.582a126.95 126.95 0 0 0 23.267-1.619l-4.854-32.813-6.095-41.1-3.135-21.145-3.684-24.907Z"/><path d="M448.804 885.069s18.431 258.204 36.274 437.336q1.261 12.631 2.5 24.495c.727 7.232 1.468 14.242 2.201 20.969 2.048 19.114 3.973 35.968 5.731 49.778 1.915 15.036 3.607 26.464 5.05 33.332 0 0 14.482 8.586 36.399 14.318l-3.311-33.26-4.38-44.038-2.415-24.315-2.36-23.813-41.539-418.24c56.66 3.45 79.792 1.33 88.037-.01l-7.642-71.947s-97.65 16.743-114.545 35.395ZM584.102 1394.773a231.207 231.207 0 0 1-19.998-.675l4.3 42.626a161.502 161.502 0 0 0 21.793-.85Z"/><path d="M489.78 1367.869c2.048 19.114 3.972 35.968 5.73 49.778a163.983 163.983 0 0 0 38.138 14.39l-4.38-44.038c-14.255-4.127-27.928-10.514-39.489-20.13ZM577.283 1348.722c-5.58-.147-11.57-.546-17.875-1.32l2.483 24.577a166.002 166.002 0 0 0 19.076 1.65ZM485.078 1322.405q1.261 12.631 2.5 24.495a242.064 242.064 0 0 0 39.275 16.784l-2.36-23.813a195.35 195.35 0 0 1-39.415-17.466Z"/></g><path fill="#a31c3f" d="M726.717 1425.89c46.822 26.045 91.144-13.512 91.144-13.512.62-6.22 1.166-16.335 1.68-29.557.49-12.707.943-28.302 1.343-46.053q.228-10.045.438-20.96.23-11.113.417-23.016c2.839-169.369 1.413-430.271 1.413-430.271-19.976-10.049-84.025-12.761-84.025-12.761l-10.107 469.034-.473 22.306-.478 21.812-.72 33.777Z"/><path fill="#ea831c" d="M821.322 1315.809q.23-11.114.417-23.017c-42.515 35.41-84.424 27.962-92.72 26.002l-.472 22.306c38.886 12.136 77.995-13.801 92.775-25.291ZM727.349 1396.689c43.548 16.47 77.681-2.963 92.192-13.868.49-12.707.943-28.302 1.343-46.053-27.882 30.734-74.057 28.556-92.815 26.144Z"/><g opacity=".3" style="mix-blend-mode:soft-light"><path d="M726.722 1425.887a69.108 69.108 0 0 0 24.431 8.247l1.425-31.473 1.752-38.633.897-19.984 1.06-23.584 18.782-416.064 15.78-4.986-7.569 415.429-.432 22.9-.398 21.95-.736 40.968-.566 31.146a91.94 91.94 0 0 0 11.562-4.08l.843-30.648 1.158-41.768.63-23.047.64-22.684 12.533-451.849c-26.514-6.149-69.39-7.963-69.39-7.963l-10.095 469.032-.49 22.295-.462 21.83-.735 33.778Z"/><path d="m783.28 1314.839-.432 22.9a130.937 130.937 0 0 0 12.493-5.48l.64-22.683a117.537 117.537 0 0 1-12.7 5.263ZM728.54 1341.091a71.805 71.805 0 0 0 26.687 2.953l1.06-23.584a90.987 90.987 0 0 1-27.258-1.664ZM782.45 1359.689l-.736 40.968a91.796 91.796 0 0 0 11.838-3.582l1.16-41.768a92.142 92.142 0 0 1-12.262 4.382ZM727.342 1396.699a97.3 97.3 0 0 0 25.236 5.962l1.752-38.633a155.583 155.583 0 0 1-26.253-1.106Z"/></g><path fill="#1e1918" d="m660.655 723.572.091 1.653 9.636-1.489-9.727-.164zM670.382 723.736l9.583.163-.089-1.632-9.494 1.469z"/><path fill="#b76e4e" d="M487.306 690.246s-59.378-40.052-71.804 19.355c-12.61 60.29 68.63 93.523 95.311 55.05 25.847-37.27-23.507-74.405-23.507-74.405Z"/><path d="M510.815 764.638c-11.734 16.902-33.549 20.069-53.617 13.095 28.488-2.993 28.182-26.131 28.182-26.131-17.537 22.122-48.637 5.696-54.399-13.708-5.829-19.526 28.615-17.827 28.615-17.827s17.755-9.048 1.376-27.255c-10.652-11.836-27.17-7.349-37.805-2.54 20.37-29.54 64.148-.034 64.148-.034s49.356 37.132 23.5 74.4Z" opacity=".3" style="mix-blend-mode:soft-light"/><path fill="#a35b41" d="M499.104 739.907c-5.478-2.204-10.598-4.538-15.68-6.8a193.047 193.047 0 0 0-15.189-6.048 59.945 59.945 0 0 0-15.269-3.58 35.699 35.699 0 0 0-15.917 2.311c3.463-4.842 9.533-7.885 15.716-8.611a38.79 38.79 0 0 1 18.098 2.244 60.443 60.443 0 0 1 15.691 8.242 53.47 53.47 0 0 1 12.55 12.242Z"/><path fill="#f7991e" d="M456.929 825.907a17.164 17.164 0 0 0 19.506 16.265 19.752 19.752 0 0 0 16.976-20.507 17.176 17.176 0 0 0-19.118-16.33 19.718 19.718 0 0 0-17.364 20.572Z"/><path fill="#f4bd21" d="M466.56 820.314a10.33 10.33 0 0 0 11.65 9.806 11.81 11.81 0 0 0 10.225-12.292 10.335 10.335 0 0 0-11.51-9.83 11.798 11.798 0 0 0-10.365 12.316Z"/><path fill="#cec7c2" d="M464.087 796.66a8.938 8.938 0 0 0 9.92 8.473 9.882 9.882 0 0 0 8.723-10.332 8.942 8.942 0 0 0-9.818-8.489 9.874 9.874 0 0 0-8.825 10.348Z"/><path fill="#eae6e4" d="M468.97 793.895a5.377 5.377 0 0 0 5.944 5.101 5.925 5.925 0 0 0 5.25-6.202 5.378 5.378 0 0 0-5.907-5.106 5.922 5.922 0 0 0-5.287 6.207Z"/><path fill="#f7991e" d="M463.951 777.64a9.055 9.055 0 0 0 9.92 8.582 9.75 9.75 0 0 0 8.725-10.235 9.06 9.06 0 0 0-9.82-8.596 9.742 9.742 0 0 0-8.825 10.25Z"/><path fill="#f4bd21" d="M468.835 774.93a5.447 5.447 0 0 0 5.944 5.166 5.846 5.846 0 0 0 5.25-6.144 5.449 5.449 0 0 0-5.907-5.17 5.843 5.843 0 0 0-5.287 6.148Z"/><path fill="#b76e4e" d="M828.648 679.832s32.575-33.446 43.714 10.227c10.96 42.968-32.966 78.47-52.997 51.65-20.63-27.622 9.283-61.877 9.283-61.877Z"/><path d="M819.362 741.698c8.96 11.984 22.837 11.463 34.321 3.461-17.44 1.329-19.042-16.922-19.042-16.922 12.428 15.178 29.32-.89 31.167-15.969 1.858-15.034-17.84-11.073-17.84-11.073s-11.468-5.635-2.868-20.94c5.449-9.691 15.338-7.11 21.667-4.065-13.741-21.38-38.126 3.636-38.126 3.636s-29.915 34.253-9.279 61.872Z" opacity=".3" style="mix-blend-mode:soft-light"/><path fill="#a35b41" d="M825.014 720.434a29.55 29.55 0 0 1 5.227-10.48 35.92 35.92 0 0 1 8.56-8.092 22.56 22.56 0 0 1 11.875-4.01c4.455-.177 9.099 2.159 10.835 5.864a15.684 15.684 0 0 0-9.904.418 41.753 41.753 0 0 0-8.38 4.482l-8.584 5.886a94.674 94.674 0 0 1-9.629 5.932Z"/><path fill="#f7991e" d="M857.4 781.787c.408 7.9-4.194 14.975-10.329 15.813-6.192.846-11.593-4.971-12.013-13.003-.42-8.037 4.311-15.137 10.515-15.85 6.148-.706 11.42 5.137 11.828 13.04Z"/><path fill="#f4bd21" d="M851.332 779.079c.247 4.772-2.542 9.027-6.248 9.507-3.727.483-6.967-3.03-7.218-7.85-.252-4.82 2.584-9.085 6.316-9.52 3.71-.432 6.903 3.09 7.15 7.863Z"/><path fill="#cec7c2" d="M851.03 760.562c.21 4.051-2.157 7.625-5.298 7.986-3.156.362-5.899-2.655-6.111-6.74-.213-4.087 2.186-7.667 5.346-7.994 3.145-.326 5.853 2.696 6.063 6.748Z"/><path fill="#eae6e4" d="M847.913 759.128c.126 2.441-1.302 4.59-3.196 4.8-1.898.212-3.545-1.605-3.673-4.06-.127-2.454 1.313-4.605 3.213-4.803 1.895-.198 3.529 1.621 3.656 4.063Z"/><path fill="#f7991e" d="M849.688 745.94c.21 4.057-2.161 7.608-5.309 7.935-3.162.327-5.91-2.721-6.123-6.813-.213-4.092 2.192-7.649 5.357-7.942 3.151-.291 5.865 2.763 6.075 6.82Z"/><path fill="#f4bd21" d="M846.564 744.471c.127 2.445-1.304 4.58-3.201 4.77-1.902.19-3.552-1.646-3.68-4.104-.128-2.457 1.315-4.595 3.219-4.773 1.898-.177 3.535 1.662 3.662 4.107Z"/><path fill="#b7305a" d="M855.463 466.632s-37.38-129.309-160.554-177.53c-147.573-57.775-233.256 117.506-233.256 117.506l229.202 89.994Z"/><path d="m461.64 406.6 229.216 90.007 164.612-29.974s-6.314-21.861-21.666-50.32c-65.92 6.57-236.59-7.74-220.834-71.205 8.535-34.352 48.006-49.512 82.48-55.787-.177-.08-.372-.143-.548-.222-147.563-57.772-233.26 117.5-233.26 117.5Z" opacity=".3" style="mix-blend-mode:soft-light"/><path fill="#b7305a" d="M892.693 592.242s44.515-95.218-35.325-139.56c-90.73-50.392-173.28-.154-173.28-.154s-96.965-103.436-206.336-88.185c-125.516 17.502-142.564 164.94-75.143 181.872 62.682 15.742 490.084 46.027 490.084 46.027Z"/><path d="M402.602 546.209c62.677 15.753 490.092 46.037 490.092 46.037s17.547-37.532 11.87-75.087c-9.612-1.054-25.77-4.912-49.197-17.077-44.017-22.835-67.026-32.695-102.534-38.761a61.755 61.755 0 0 1-37.999-21.903c-19.313 6.143-30.745 13.104-30.745 13.104a306.173 306.173 0 0 0-28.723-25.923c-37.27 7.789-166.207 29.715-265.861-12.2-39.024 51.27-31.246 120.689 13.097 131.81Z" opacity=".3" style="mix-blend-mode:soft-light"/><path fill="#b7305a" d="M823.434 681.274s78.747-27.076 77.56-85.91c-1.188-58.896-100.51-130.87-215.835-102.668 0 0-205.604-74.76-311.21 26.047-119.707 114.269 179.182 194.65 179.182 194.65Z"/><path d="m553.136 713.382 270.303-32.117s78.743-27.075 77.55-85.892a61.17 61.17 0 0 0-.304-4.854c-29.125 8.386-91.278 6.741-175.956-103.804a222.282 222.282 0 0 0-39.564 5.981 424.434 424.434 0 0 0-40.9-11.842c-27.95 23.86-110.896 87.455-193.653 80.61-46.156-3.813-70.74-19.068-83.338-35.779-98.132 111.342 185.862 187.697 185.862 187.697Z" opacity=".3" style="mix-blend-mode:soft-light"/><path fill="#b76e4e" d="M822.848 660.47s5.291 132.737-46.988 177.195c-56.504 48.052-148.396 71.89-184.567 55.404-37.884-17.267-61.43-52.257-69.754-77.269-8.406-25.258-21.118-132.791-21.118-132.791s49.175-157.744 193.123-126.41c0 0 89.323 28.979 129.304 103.871Z"/><path d="M500.412 683.016s12.71 107.525 21.133 132.778c8.317 25.01 31.864 60.008 69.746 77.281 36.168 16.471 128.07-7.358 184.568-55.414 23.152-19.681 34.916-55.716 40.922-90.072-22.592 50.91-73.176 93.016-151.088 87.894-92.135-6.064-120.107-115.38-116.878-161.904 3.219-46.296 57.71-102.004 146.24-89.035 65.123 9.533 112.473 66.71 127.953 87.482.009-7.276-.158-11.565-.158-11.565-39.986-74.879-129.302-103.86-129.302-103.86-143.962-31.326-193.136 126.415-193.136 126.415Z" opacity=".3" style="mix-blend-mode:soft-light"/><path fill="#2d2523" d="M489.807 812.121a53.049 53.049 0 0 0 10.325 20.695 62.53 62.53 0 0 0 14.22 13.266 120.051 120.051 0 0 0-2.784 9.609c-5.622 22.18-3.197 38.463 3.706 50.236 4.996 8.606 12.33 14.763 20.581 19.11 17.63 9.37 39.258 10.49 51.578 10.208 6.122-.146 10.014-.636 10.014-.636-.196 18.746 8.85 28.3 20.92 33.218 11.714 4.779 26.178 5.174 37.888 5.532 3.858.127 7.408.238 10.48.517a43.938 43.938 0 0 1 11.849 2.703 35.708 35.708 0 0 1 14.686 10.441c.468.597.873 1.128 1.194 1.598q.424-.928 1.008-2.14a58.423 58.423 0 0 1 3.798-6.429 60.665 60.665 0 0 1 19.738-18.368c.61-.362 1.258-.713 1.905-1.064 4.036-2.234 8.793-4.588 13.747-7.217 12.971-6.867 27.368-15.594 34.426-29.183 3.528-6.767 5.264-14.77 4.16-24.474 0 0 2.083-.586 5.475-1.852a117.797 117.797 0 0 0 10.434-4.519 104.7 104.7 0 0 0 14.764-8.805c17.47-12.549 34.033-33.767 24.815-68.397a104.934 104.934 0 0 0-4.058-12.102 57.13 57.13 0 0 0 6.494-10.004c5.986-11.468 12.035-31.301-1.833-52.386a68.39 68.39 0 0 0-5.591-7.314 37.09 37.09 0 0 0 2.3-4.39c2.8-6.148 7.11-18.503 6.429-35.673a98.08 98.08 0 0 0-1.979-16.134 159.17 159.17 0 0 0-9.493-20.451c-.999 22.664-5.997 94.214-30.293 133.599a73.736 73.736 0 0 1-12.527 15.58 47.188 47.188 0 0 1-13.41 8.822l-.017.003a43.09 43.09 0 0 1-12.692 3.116s-9.058-3.436-8.657-27.771l-20.13 3.504s3.267 47.079-9.6 53.826c-13.116 6.891-21.584-6.653-20.452-28.826l-15.958 2.136c3.573 21.71-3.475 37.827-17.845 35.118-14.645-2.74-16.597-52.642-16.597-52.642l-23.177 1.575c3.43 25.904-6.76 32.403-6.76 32.403a51.6 51.6 0 0 1-20.819-.19c-9.079-1.922-17.396-6.326-25.024-12.529-8.163-6.602-15.486-15.226-22.069-25.133q-3.515-5.248-6.739-10.939c-20.113-35.477-31.82-81.123-37.494-108.31-1.93 3.554-3.556 7.656-11.344 10.14-5.035 43.653 15.949 69.913 15.949 69.913-16.363 19.864-18.785 37.273-15.54 51.01Z"/><path fill="#a35b41" d="M706.574 813.262c-2.336 3.91-6.25 6.478-10.216 8.397a39.343 39.343 0 0 1-12.754 3.294 44.937 44.937 0 0 1-12.986-.707 60.141 60.141 0 0 1-6.24-1.776 40.917 40.917 0 0 1-5.895-2.918 46.664 46.664 0 0 1 6.392-1.017q3.118-.404 6.139-.628c4.027-.411 7.97-.584 11.854-.995 3.889-.363 7.748-.732 11.636-1.305a107.43 107.43 0 0 0 12.07-2.345ZM784.069 699.843a19.104 19.104 0 0 1-8.046 10.5 25.516 25.516 0 0 1-25.953 1.248 23.386 23.386 0 0 1-5.351-3.876 22.763 22.763 0 0 1-3.92-5.42 52.313 52.313 0 0 1 6.383.005c2.004-.086 3.772.25 5.566.149 3.5.239 6.71.01 9.87-.03 3.175-.088 6.34-.417 9.795-.858 3.491-.429 7.124-1.025 11.656-1.718Z"/><path fill="#2d2523" d="M795.404 654.157s-20.672 63.635-71.826 16.79c0 0 1.736-7.567 13.556-11.267 0 0 18.771 14.555 58.27-5.523ZM562.41 652.136s26.902-71.264 86.604-17.363c0 0-1.891 7.855-15 11.604 0 0-21.73-16.064-71.604 5.759Z"/><path fill="#c13a3a" d="M672.431 621.529c.637 11.574 10.297 20.832 21.43 20.666 10.97-.163 19.27-9.44 18.663-20.71a21.886 21.886 0 0 0-2.775-9.553 16.81 16.81 0 0 1-16.68 15.704c-9.058.047-17.006-6.834-18.819-15.853a20.377 20.377 0 0 0-1.819 9.746Z"/><path d="M612.961 706.096c1.605 17.801 10.197 31.436 19.1 30.493 8.805-.933 14.62-15.798 13.076-33.242-1.546-17.474-9.915-31.2-18.78-30.624-8.966.582-15.003 15.54-13.396 33.373Z" opacity=".3" style="mix-blend-mode:soft-light"/><path fill="#191919" d="M618.333 712.554c1.066 11.854 7.082 20.92 13.392 20.266 6.26-.647 10.458-10.63 9.422-22.315-1.039-11.699-6.942-20.807-13.231-20.329-6.34.483-10.65 10.51-9.583 22.378Z"/><path fill="#fff" d="M628.791 701.334c.33 3.68 2.286 6.514 4.367 6.332 2.075-.181 3.49-3.297 3.164-6.96-.326-3.664-2.27-6.503-4.35-6.338-2.083.164-3.51 3.284-3.18 6.966ZM625.85 710.071c.36 2.233 1.679 3.877 2.946 3.675 1.265-.202 2-2.17 1.642-4.396-.357-2.227-1.672-3.875-2.94-3.679-1.268.196-2.007 2.167-1.648 4.4Z"/><path fill="#ddcdc3" d="M686.629 466.109c.53 3.078.819 4.747.819 4.747l10.014 1.272 2.564.334s14.46-172.353 8.515-192.014c-5.632-18.619-9.886 8.534-10.404 11.905.485-4.652 5.277-51.206-.32-60.68-5.92-10.02-7.14 37.26-7.14 37.26s.47-76.96-9.518-86.064c-4.118-3.708-4.98 10.288-4.55 28.238.58 25.994 3.917 60.133 3.917 60.133s-11.315-52.042-15.736-50.108c-2.914 1.255 1.15 29.599 4.297 48.889.008.106.038.164.043.217 1.4 8.648 2.622 15.482 2.912 17.147-.15-.6-.485-1.91-.962-3.716a.89.89 0 0 0-.038-.163c-2.687-10.25-9.885-35.417-14.647-31.143-5.46 4.899 24.87 182.637 30.234 213.746Z"/><path d="M699.511 315.458c3.831 9.981-.929 129.657-2.049 156.67l2.564.334s14.46-172.353 8.515-192.014c-5.631-18.619-9.886 8.534-10.403 11.905.484-4.652 5.276-51.206-.32-60.68-5.92-10.02-7.141 37.26-7.141 37.26s.47-76.96-9.518-86.064c-4.118-3.708-4.98 10.288-4.55 28.238-.02-10.348.69-18.442 2.782-20.234 6.85-5.96 10.495 98.831 10.495 98.831s2.59-51.328 5.498-54.504c2.92-3.159-.909 52.056-3.613 96.693-2.69 44.825 2.502 112.79 2.623 114.235s.799-141.961 5.117-130.67Z" opacity=".3" style="mix-blend-mode:soft-light"/><path d="m682.88 291.253-2.354-20.013s-11.315-52.042-15.736-50.108c-2.914 1.255 1.15 29.599 4.297 48.889-1.763-12.955-3.935-31.083-2.79-35.101 1.814-6.46 16.583 56.333 16.583 56.333ZM686.629 466.109a5.955 5.955 0 0 0 .905.17s-31.602-177.134-28.391-192.763c3.108-15.11 15.765 30.844 16.418 33.292l-4.48-23.14a.89.89 0 0 0-.039-.162c-2.687-10.25-9.885-35.417-14.648-31.143-5.459 4.899 24.871 182.637 30.235 213.746Z" opacity=".3" style="mix-blend-mode:soft-light"/><path fill="#ffa910" d="M653.498 511.018c-1.447 30.118 15.026 56.866 36.233 59.75 20.619 2.804 38.117-18.104 39.599-46.705 1.486-28.682-13.63-55.394-34.282-59.698-21.245-4.427-40.1 16.445-41.55 46.653Z"/><path fill="#ff7a0d" d="M662.606 512.585c-1.119 23.07 11.445 43.675 27.733 46.024 15.938 2.299 29.531-13.808 30.67-35.977 1.142-22.217-10.616-42.802-26.575-45.993-16.31-3.262-30.707 12.823-31.828 35.946Z"/><path fill="#ddcdc3" d="M666.63 513.277c-.97 19.954 9.875 37.821 23.98 39.907 13.841 2.048 25.673-11.92 26.66-31.195.99-19.313-9.252-37.165-23.109-39.884-14.12-2.772-26.557 11.179-27.53 31.172Z"/><path fill="#ffa910" d="M673.823 514.514c-.706 14.384 7.086 27.322 17.275 28.897 10.051 1.554 18.677-8.56 19.391-22.589.715-14.048-6.76-26.977-16.819-28.884-10.197-1.934-19.141 8.172-19.847 22.576Z"/><g opacity=".3" style="mix-blend-mode:soft-light"><path d="M692.786 546.319c3.392-.476 6.21 1.941 7.923 5.457a17.38 17.38 0 0 1 1.558 5.038c.895 5.658-.722 11.895-6.302 14.07 17.801-1.672 32.023-21.11 33.355-46.823.766-14.785-2.84-28.936-9.303-39.824-.717 3.792-2.156 7.729-5.008 9.846a7.794 7.794 0 0 1-3.861 1.51c-3.149.399-7.299-.74-12.84-4.316 0 0-14.137-9.034-24.232 9.697-10.173 18.903 4.26 47.4 18.71 45.345Z"/><path d="M692.786 546.319c3.392-.476 6.21 1.941 7.923 5.457a17.38 17.38 0 0 1 1.558 5.038c10.287-4.806 17.9-17.829 18.741-34.183a55.832 55.832 0 0 0-5.999-28.548 7.794 7.794 0 0 1-3.861 1.51c-3.149.399-7.299-.74-12.84-4.316 0 0-14.137-9.034-24.232 9.697-10.173 18.903 4.26 47.4 18.71 45.345Z"/><path d="M692.786 546.319c3.392-.476 6.21 1.941 7.923 5.457 9.08-4.032 15.83-15.41 16.566-29.787a47.924 47.924 0 0 0-6.127-26.396c-3.149.399-7.299-.74-12.84-4.316 0 0-14.137-9.034-24.232 9.697-10.173 18.903 4.26 47.4 18.71 45.345Z"/><path d="M673.823 514.514c-.706 14.384 7.086 27.322 17.275 28.897 10.051 1.554 18.677-8.56 19.391-22.589.715-14.048-6.76-26.977-16.819-28.884-10.197-1.934-19.141 8.172-19.847 22.576Z"/></g><path fill="#c00003" d="M677.425 515.134c-.57 11.593 5.699 22.045 13.92 23.343 8.13 1.284 15.123-6.886 15.7-18.247.576-11.375-5.487-21.82-13.623-23.335-8.226-1.532-15.426 6.632-15.997 18.24Z"/><path d="M677.425 515.134c-.57 11.602 5.692 22.036 13.916 23.335 8.133 1.284 15.118-6.871 15.694-18.241.577-11.383-5.479-21.812-13.617-23.327-8.23-1.532-15.42 6.617-15.993 18.233Zm3.266-3.863c1.22-7.53 5.824-12.605 10.236-11.338 4.41 1.288 6.967 8.354 5.762 15.803-1.23 7.472-5.773 12.547-10.175 11.367-4.453-1.19-7.07-8.279-5.823-15.832Z" opacity=".3" style="mix-blend-mode:soft-light"/><path fill="#a35b41" d="M764.533 745.709c-.321 13.873-5.96 27.75-15.164 38.734-9.189 11.126-22.145 18.855-35.784 23.063a116.536 116.536 0 0 1-41.996 4.08 162.284 162.284 0 0 1-40.687-8.47c13.775 1.218 27.378 2.317 40.878 2.17l10.078-.38c3.327-.362 6.686-.456 9.966-1.029a110.271 110.271 0 0 0 19.392-4.088 76.277 76.277 0 0 0 53.317-54.08Z"/><path fill="#a35b41" d="M755.592 746.494a9.999 9.999 0 0 1 4.337-3.652 10.949 10.949 0 0 1 4.956-.922 10.323 10.323 0 0 1 5.092 1.564c1.558 1.024 3.234 2.657 3.32 5.005-2.234.337-3.493.878-4.864 1.156a14.597 14.597 0 0 1-8.105-.486 15.81 15.81 0 0 1-4.736-2.665Z"/><path fill="#2d2523" d="M696.287 772.43q.092 1.128.124 2.26c1.681 21.65 20.744 39.745 49.919 31.079 27.991-8.343 40.88-33.597 40.995-38.84a1.563 1.563 0 0 0-.025-.498c-.871-3.893-4.639-12.91-9.957-11.051a7.74 7.74 0 0 0-.907.377 11.163 11.163 0 0 0-5.852 6.65s4.97-2.668 6.836-2.483c1.842.166 9.515 7.622-2.034 15.737-4.97 3.484-6.92 3.097-9.344-.011-3.29-4.202-7.445-13.418-21.405-24.855a24.576 24.576 0 0 0-8.675-4.758c-6.837-2.033-13.35-.074-19.056 3.543-2.423 10.788-7.935 18.517-18.57 19.576l-.039.004c-1.303 1.992-2.01 3.27-2.01 3.27Z"/><path fill="#2d2523" d="M647.295 818.456c33.62.928 50.974-23.61 48.992-46.025 0 0-16.307-21.643-35.006-21.328-6.127.082-12.53 2.549-18.683 8.89a106.178 106.178 0 0 0-16.33 21.333c-6.826 11.83-6.6 16.582-16.942 12.529-15.559-6.083-6.828-16.285-4.527-16.903 2.27-.636 8.742 1.146 8.742 1.146a11.878 11.878 0 0 0-9.257-6.201c-6.923-.867-10.53 10.125-11.13 14.714-.578 4.57 18.997 30.853 54.14 31.845Z"/><path fill="#ce846a" d="M675.839 753.354c.518 9.378 10.668 16.014 22.5 14.843 11.65-1.153 20.562-9.461 20.07-18.578-.492-9.122-10.223-15.807-21.898-14.913-11.86.907-21.19 9.264-20.672 18.648Z"/><path fill="#a35b41" d="M706.75 665.447a230.091 230.091 0 0 1 14.35 56.234c1.065 9.73 1.453 19.696-.752 29.864a31.767 31.767 0 0 1-7.144 14.553c-3.864 4.396-9.948 6.804-15.354 7.176a22.231 22.231 0 0 1-16.183-5.714 31.343 31.343 0 0 1-8.598-13.753c-3.157-9.994-3.498-20.1-2.777-29.889 1.472-19.626 6.571-38.442 13.1-56.58-3.289 18.986-6.56 37.972-6.801 56.822.01 9.348.617 18.826 3.686 27.09 1.515 4.092 3.625 7.863 6.598 10.379a14.404 14.404 0 0 0 10.323 3.599 14.96 14.96 0 0 0 10.244-4.511c2.665-2.768 4.354-6.773 5.506-11.016 2.31-8.598 2.216-18.142 1.893-27.52-1.052-18.88-4.32-37.843-8.09-56.734Z"/><path fill="#4c413f" d="M718.415 773.208c1.293 17.503 34.899 21.538 47.627 2.442-3.29-4.202-7.445-13.418-21.405-24.855a24.576 24.576 0 0 0-8.675-4.758c-6.53 4.047-18.558 13.49-17.547 27.17ZM776.436 755.757c1.233.057 2.62.717 3.74 2.793 1.827 3.412 3.805 7.088 7.15 8.378a1.563 1.563 0 0 0-.027-.497c-.87-3.893-4.638-12.91-9.956-11.051a7.74 7.74 0 0 0-.907.377ZM626.269 781.326c1.247 6.596 5.296 13.552 15.704 17.312 23.023 8.33 46.337-14.199 46.337-14.199-29.103-3.12-28.474-24.805-27.03-33.336-6.126.082-12.529 2.549-18.682 8.89a106.178 106.178 0 0 0-16.33 21.333ZM826.046 729.974c2.8-6.148 7.11-18.503 6.429-35.673-6.614 8.384-18.983 27.043-6.43 35.673ZM831.17 794.064c5.986-11.468 12.035-31.301-1.833-52.386-4.92 6.995-19.808 29.162-18.897 39.577.708 8.052 10.474 12.104 20.73 12.809ZM803.92 884.567c17.468-12.549 34.032-33.767 24.814-68.397-6.244-10.08-17.528-20.155-38.024-24.855a73.736 73.736 0 0 1-12.527 15.58c11.223 12.781 32.7 42.462 25.736 77.672ZM778.72 897.89a117.797 117.797 0 0 0 10.435-4.518c1.765-18.55 1.64-56.025-24.382-77.655l-.017.003a40.629 40.629 0 0 1-8.121 2.462c7.333 9.065 25.135 35.828 22.086 79.709ZM734.66 953.4c12.971-6.867 27.368-15.594 34.426-29.183 1.643-19.848-.797-50.988-30.117-85.66 0 0 17.16 55.855-4.309 114.843ZM699.27 980.05a60.665 60.665 0 0 1 19.738-18.37c.61-.361 1.258-.712 1.905-1.063 7.72-24.641 16.95-73.524-17.407-108.361 0 0 22.831 73.875-4.236 127.793ZM690.04 847.484s-21.53 50.043-11.456 129.095a35.708 35.708 0 0 1 14.686 10.441c.468.597.873 1.128 1.194 1.598ZM656.255 973.36c-2.985-22.961-3.072-61.437 16.183-105.411 0 0-46.52 26.52-54.07 99.878 11.713 4.779 26.177 5.174 37.887 5.532ZM535.855 925.037c17.63 9.37 39.258 10.49 51.578 10.208 3.28-20.58 15.84-49.484 52.458-81.304 0 0-77.716 5.672-104.036 71.096ZM515.274 905.927c5.805-20.11 23.956-49.18 76.795-67.959-9.078-1.92-17.396-6.325-25.024-12.528-15.852 3.416-38.746 11.466-55.477 30.25-5.622 22.182-3.197 38.464 3.706 50.237ZM489.807 812.121a53.049 53.049 0 0 0 10.325 20.695 109.022 109.022 0 0 1 44.844-32.509q-3.515-5.248-6.739-10.939c-15.294 3.225-33.713 10.194-48.43 22.753Z"/><path fill="#ebafbb" d="m906.896 986.73-11.745 15.66s-.02.02-.02 0v.02l-65.067-31.154 11.106-8.835 51.777 13.061Z"/><path fill="#feeadf" d="m906.896 986.73-11.745 15.66s-.02.02-.02 0c-5.794-2.788-14.12-7.262-14.12-7.262l11.936-19.646Z"/><path fill="#ffc8c5" d="m902.523 1003.053-10.658 14.781-15.805-8.973-1.807-1.041-46.209-27.134 10.682-13.934 50.397 24.452 13.4 11.849z"/><path fill="#ffedf1" d="m902.523 1003.053-10.658 14.781-15.805-8.973 13.063-17.657 13.4 11.849z"/><path fill="#b76e4e" d="M409.507 912.386S357.71 1060.85 550.702 1196.94c0 0 117.802 6.943 238.334-132.776 0 0 29.117-1.76 46.397-34.058 0 0 46.244-46.363 33.704-68.172s-78 28.12-78 28.12a89.03 89.03 0 0 1 7.851-17.263c5.424-9.242 3.13-23.571-2.179-23.802s-19.278 28.567-28.802 40.196-9.627 35.115-9.627 35.115-28.604 20.115-81.99 34.482-86.143 34.976-86.143 34.976-91.992-261.173-180.74-181.373Z"/><path d="M840.394 1024.838c-3.008 3.312-4.967 5.27-4.967 5.27a73.52 73.52 0 0 1-6.987 10.784c-7.23-11.49-27.503-42.467-36.752-43.073-11.348-.767-21.566 19.689-22.718 29.139-.908 7.633 9.976 27.322 27.928 35.642a39.285 39.285 0 0 1-7.855 1.575c-120.535 139.718-238.344 132.771-238.344 132.771-173.4-122.291-149.189-254.558-142.484-280.143-4.402 40.548 113.668 232.628 143.434 236.243 29.623 3.615 37.863-53.694 38.549-58.904-.323 4.422-3.15 45.798 6.886 55.128 10.602 9.834 159.77-77.24 159.77-101.472 0-5.776-5.088-10.784-12.822-15.044a145.988 145.988 0 0 0 14.357-8.461s.101-23.485 9.612-35.117c9.531-11.611 23.505-40.407 28.816-40.185a3.355 3.355 0 0 1 2.08.909c-5.715 5.432-13.146 14.56-10.985 23.687 1.15 4.846 4.544 5.351 8.522 3.877a85.197 85.197 0 0 0-5.291 12.6s4.483-3.412 11.308-8.057c5.25 8.684 19.971 31.26 37.943 42.83ZM865.03 991.175c-5.371-8.037-16.154-22.798-26.917-29.583 13.67-5.836 26.21-7.997 31.017.343 4.443 7.714 1.515 18.518-4.1 29.24Z" opacity=".3" style="mix-blend-mode:soft-light"/><path fill="#894631" d="M835.433 1030.107a78.525 78.525 0 0 1-7.933 12.719 62.258 62.258 0 0 1-23.547 18.718 51.515 51.515 0 0 1-14.809 4.403l1.244-.616c-7.717 8.831-15.366 17.764-23.342 26.4l-12.522 12.432c-4.19 4.133-8.28 8.382-12.856 12.103-8.952 7.654-17.7 15.586-27.35 22.411l-7.1 5.292c-2.358 1.778-4.73 3.537-7.257 5.075l-14.909 9.596a325.014 325.014 0 0 1-64.222 30.12c-5.654 1.814-11.263 3.774-17.06 5.135l-8.636 2.235-8.767 1.723c-11.79 2.128-23.432 3.66-35.918 3.391l-1.1-.024-.966-.645c-17.722-11.852-33.739-25.314-49.064-39.736a378.603 378.603 0 0 1-42.088-46.805A296.781 296.781 0 0 1 439.516 1088a247.758 247.758 0 0 1-14.797-27.763 220.936 220.936 0 0 1-18.128-59.839 238.803 238.803 0 0 0 21.484 58.197 312.92 312.92 0 0 0 34.111 51.574 407.197 407.197 0 0 0 42.462 44.944 412.677 412.677 0 0 0 48.371 38.194l-2.064-.669c10.92.17 22.606-1.33 33.783-3.452l8.438-1.706 8.356-2.123c5.609-1.277 11.06-3.154 16.551-4.88 21.888-7.214 42.805-17.227 62.856-28.72l14.75-9.146c4.982-2.957 9.477-6.647 14.271-9.897 9.662-6.428 18.474-13.99 27.51-21.284 4.621-3.53 8.736-7.641 13.047-11.537l12.85-11.8c8.186-8.259 16.129-16.779 24.316-25.095l.557-.565.689-.051a48.835 48.835 0 0 0 13.946-3.387 58.885 58.885 0 0 0 12.862-6.969 65.858 65.858 0 0 0 10.934-9.891 77.928 77.928 0 0 0 8.762-12.028Z"/><path fill="#894631" d="M449.937 897.679c10.384 1.088 20.283 5.432 29.049 11.15a137.539 137.539 0 0 1 24.008 20.286c14.527 15.177 26.666 32.393 37.633 50.173a569.239 569.239 0 0 1 29.576 55.21c8.968 18.877 16.928 38.097 24.197 57.804l-6.496-2.268c13.513-8.15 27.452-14.366 41.746-20.174a372.616 372.616 0 0 1 43.768-14.438 394.275 394.275 0 0 0 43.023-13.736c13.955-5.464 27.842-11.811 40.399-19.575l-1.137 2.178a89.995 89.995 0 0 1 3.65-22.034 47.28 47.28 0 0 1 4.601-10.351 34.408 34.408 0 0 1 3.372-4.567 84.668 84.668 0 0 0 3.267-4.206c4.215-5.796 8.083-11.934 12.085-17.978 1.99-3.032 4.032-6.04 6.232-8.94 1.1-1.45 2.23-2.881 3.47-4.222 1.248-1.24 2.551-2.846 4.43-3-1.83.304-2.958 1.97-4.09 3.292-1.107 1.417-2.105 2.92-3.072 4.442-1.92 3.053-3.712 6.191-5.53 9.317-3.616 6.268-7.09 12.623-11.023 18.802-1.91 3.153-4.427 6.022-5.937 8.913a43.336 43.336 0 0 0-3.602 9.697 86.829 86.829 0 0 0-2.498 20.859l-.005 1.397-1.133.782c-12.917 8.905-26.693 15.59-40.838 21.694a351.637 351.637 0 0 1-43.524 15.033 437.45 437.45 0 0 0-42.675 14.663 315.228 315.228 0 0 0-40.292 19.602l-4.7 2.758-1.796-5.026c-6.904-19.316-14.945-38.448-23.364-57.268-8.479-18.824-17.737-37.288-27.897-55.224-10.314-17.82-21.461-35.251-34.916-50.797a134.397 134.397 0 0 0-22.218-21.239c-8.259-6.03-17.52-11.016-27.763-13.01Z"/><path fill="#f7c434" d="M699.993 1045.779s45.645-16.687 51.003-20.15l26.72 54.107-1.21.877a180.813 180.813 0 0 1-36.932 43.895l-11.312.771-29.618-45.121Z"/><path d="M699.993 1045.779s45.645-16.687 51.003-20.15l26.72 54.107-1.21.877a180.813 180.813 0 0 1-36.932 43.895l-11.312.771-29.618-45.121Z" opacity=".45" style="mix-blend-mode:soft-light"/><path d="m777.726 1079.736-1.228.89a180.81 180.81 0 0 1-36.918 43.876l-11.312.768-29.635-45.099 1.36-34.403 5.315-1.95c2.123 11.363 7.75 35.787 19.193 53.97 0 0 19.782-6.592 37.006-25.686 0 0-15.022-20.536-15.445-44.086a42.465 42.465 0 0 0 4.941-2.383Z" opacity=".45" style="mix-blend-mode:soft-light"/><path fill="#f7c434" d="M758.769 1022.701s.711 23.432 24.24 49.068c0 0 2.235 6.725-6.503 8.844 0 0-19.464-16.798-26.37-53.94 0 0 1.186-7.74 8.633-3.972ZM687.427 1049.602s.422 61.984 43.206 83.793a10.667 10.667 0 0 0 8.941-8.887s-29.583-13.484-39.58-78.73c0 0-9.902-6.66-12.567 3.824Z"/><path d="M776.498 1080.626s-.321-.277-.909-.84a6.463 6.463 0 0 0 2.656-7.23c-23.537-25.647-24.241-49.068-24.241-49.068a8.21 8.21 0 0 0-1.85-.712c1.29-1.176 3.343-1.735 6.615-.075 0 0 .704 23.422 24.24 49.068 0 0 2.238 6.725-6.511 8.857ZM739.455 1124.523a10.69 10.69 0 0 1-8.952 8.902c-.513-.273-1.02-.52-1.507-.796a10.49 10.49 0 0 0 4.436-7.112s-29.586-13.484-39.588-78.734a14.7 14.7 0 0 0-4.007-1.786c3.908-3.312 10.03.791 10.03.791 10.002 65.25 39.588 78.735 39.588 78.735Z" opacity=".45" style="mix-blend-mode:soft-light"/><path fill="#f7c434" d="M843.965 1080.243s13.372-40.94 14.052-46.446l45.584 5.779-.097 1.286a155.359 155.359 0 0 1 7.146 47.279l-5.302 8.58-41.748.512Z"/><path d="M843.965 1080.243s13.372-40.94 14.052-46.446l45.584 5.779-.097 1.286a155.359 155.359 0 0 1 7.146 47.279l-5.302 8.58-41.748.512Z" opacity=".45" style="mix-blend-mode:soft-light"/><path d="m903.606 1039.568-.099 1.307a155.361 155.361 0 0 1 7.143 47.259l-5.305 8.578-41.743.536-19.644-17.009 1.553-4.77c7.798 3.748 25.1 11.032 41.673 11.184a95.214 95.214 0 0 0 3.654-38.854s-19.785 1.354-33.922-9.305a43.39 43.39 0 0 0 1.107-4.7Z" opacity=".45" style="mix-blend-mode:soft-light"/><path fill="#f7c434" d="M860.243 1026.785s14.213 10.394 41.344 5.233c0 0 5.112 1.508 1.917 8.844 0 0-19.838 6.323-45.307-5.954 0 0-3.971-4.466 2.046-8.123ZM839.828 1091.156s36.854 28.556 71.524 7.62c0 0 3.322-5.807-.702-10.635 0 0-23.03 15.22-66.685-7.898 0 0-8.978 4.094-4.137 10.913Z"/><path d="M903.507 1040.875s-.327.104-.959.269c.448-4.305-2.921-5.297-2.921-5.297-27.141 5.162-41.344-5.233-41.344-5.233a7.743 7.743 0 0 0-1.363 1.013c-.038-1.486.677-3.238 3.323-4.842 0 0 14.203 10.395 41.344 5.233 0 0 5.114 1.506 1.92 8.857ZM910.598 1088.235c4.027 4.831.706 10.65.706 10.65-.423.246-.827.5-1.238.724a8.535 8.535 0 0 0-1.946-6.535s-23.03 15.222-66.691-7.894a13.417 13.417 0 0 0-3.096 2.08c.032-4.382 5.574-6.92 5.574-6.92 43.66 23.116 66.691 7.895 66.691 7.895Z" opacity=".45" style="mix-blend-mode:soft-light"/><path fill="#f9a832" d="M498.12 1160.134s33.407-61.536 88.07-100.216c0 0-9.599-20.625-23.873-38.383 0 0-72.135-9.802-139.53 40.517 0 0 25.896 55.017 75.334 98.082Z"/><path d="M586.198 1059.927a236.18 236.18 0 0 0-23.906 19.554c-41.016 37.999-64.17 80.654-64.17 80.654-1.378-1.214-2.77-2.441-4.084-3.686-2.555-2.291-5.062-4.631-7.455-7.041 29.43-54.275 68.615-79.967 68.615-79.967l-7.891-19.23c-34.83 7.226-77.036 38.225-98.072 55.093a272.253 272.253 0 0 1-7.913-11.528c58.792-51.919 103.463-52.186 103.463-52.186l-4.984-8.48c-41.383 3.183-86.263 31.224-107.592 46.208-6.37-10.716-9.426-17.264-9.426-17.264 67.399-50.333 139.516-40.522 139.516-40.522 14.292 17.737 23.9 38.395 23.9 38.395Z" opacity=".45" style="mix-blend-mode:soft-light"/><path fill="#f9a832" d="m561.768 1076.126.524 3.355c-41.016 37.999-64.17 80.654-64.17 80.654-1.378-1.214-2.77-2.441-4.084-3.686 12.165-18.309 41.684-60.465 67.73-80.323Z"/><path d="M408.215 916.803a11.236 11.236 0 0 1 1.272-4.362c-.102.283-.586 1.777-1.272 4.362Z"/><path fill="#894631" d="M862.781 957.206c-8.41 6.662-17.103 12.635-25.613 18.856-4.275 3.073-8.525 6.177-12.686 9.387-4.127 3.253-8.292 6.46-12.247 10.093 5.593-9.27 14-16.442 22.568-22.751a130.387 130.387 0 0 1 27.978-15.585ZM869.88 964.305a232.609 232.609 0 0 1-22.938 23.09 229.889 229.889 0 0 1-25.62 20.073 229.9 229.9 0 0 1 22.938-23.09 232.609 232.609 0 0 1 25.62-20.073ZM869.313 980.775a133.843 133.843 0 0 1-27.43 29.441 52.83 52.83 0 0 1-11.474 7.191c3.224-3.176 6.26-6.371 9.376-9.543 3.08-3.195 6.251-6.288 9.402-9.418a212.867 212.867 0 0 1 20.126-17.67Z"/><path fill="#ebafbb" d="M869.574 993.033a3.335 3.335 0 0 1-4.342 1.777 2.992 2.992 0 0 1-1.393-1.474 86.018 86.018 0 0 0 2.625-5.048 2.89 2.89 0 0 1 1.837.222 3.336 3.336 0 0 1 1.273 4.523ZM879.417 998.807a3.148 3.148 0 1 1-1.275-4.52 3.331 3.331 0 0 1 1.275 4.52ZM893.521 1007.326a3.148 3.148 0 1 1-1.275-4.52 3.331 3.331 0 0 1 1.275 4.52ZM898.727 989.152a3.148 3.148 0 1 1-1.275-4.52 3.331 3.331 0 0 1 1.275 4.52Z"/><path fill="#cc929f" d="M885.002 982.052a3.148 3.148 0 1 1-1.275-4.52 3.331 3.331 0 0 1 1.275 4.52ZM874.582 977.706a3.335 3.335 0 0 1-4.342 1.777c-.1-.06-.202-.1-.303-.161a33.462 33.462 0 0 0 1.232-6.28 2.82 2.82 0 0 1 2.14.14 3.331 3.331 0 0 1 1.273 4.524Z"/><path fill="#824527" d="m391.32 1491.387 6.23 412.983h1010.817v-408.36s-1018.604-3.082-1017.047-4.623Z"/><path d="m1408.372 1536.96-914.769 26.628 88.802 316.128 260.406-1.562-69.324-260.406h134.045l84.775 255.804h416.065v30.82H397.57l-6.246-412.984c-1.561 1.52 1017.05 4.602 1017.05 4.602Z" opacity=".3" style="mix-blend-mode:soft-light"/><path fill="#fff" d="M1443.828 1463.411H354.977l184.428-191.503 24.939-25.921h670.075l209.409 217.424z"/><path fill="#517496" d="M1445.35 1463.928H353.452l210.366-218.457h671.129l.257.265Zm-1088.85-1.035h1085.801l-208.409-216.388H564.87l-24.68 25.655Z"/><path fill="#ffc73c" d="M1148.56 1294.146c15.028 0 25.29-2.75 22.96-6.09-2.292-3.284-15.935-5.905-30.506-5.905s-24.915 2.621-23.074 5.905c1.872 3.34 15.594 6.09 30.62 6.09Z"/><path fill="#517496" d="M1148.56 1294.663c-15.623 0-29.444-2.831-31.471-6.447-.523-.93-.242-1.863.815-2.701 2.967-2.358 12.04-3.882 23.112-3.882 15.131 0 28.897 2.735 31.336 6.228a1.945 1.945 0 0 1-.546 2.817c-2.832 2.422-11.956 3.985-23.246 3.985Zm-7.544-11.995c-10.36 0-19.064 1.389-21.662 3.456-.725.574-.907 1.153-.563 1.771 1.743 3.108 15.374 5.733 29.769 5.733 10.55 0 19.293-1.419 21.76-3.529.697-.6.82-1.204.369-1.851-2.11-3.024-15.702-5.58-29.673-5.58Z"/><path fill="#ffc73c" d="M1137.104 1275.936c14.336 0 24.21-2.503 22.086-5.546-2.089-2.994-15.043-5.386-28.964-5.386s-23.866 2.392-22.187 5.386c1.705 3.043 14.73 5.546 29.065 5.546Z"/><path fill="#517496" d="M1137.103 1276.454c-14.922 0-28.061-2.593-29.915-5.905-.467-.833-.214-1.671.737-2.426 2.78-2.21 11.532-3.637 22.3-3.637 14.474 0 27.562 2.508 29.795 5.708a1.74 1.74 0 0 1-.495 2.527c-2.645 2.268-11.448 3.733-22.422 3.733Zm-6.879-10.934c-10.054 0-18.434 1.291-20.85 3.211-.617.49-.772.98-.483 1.497 1.402 2.506 13.073 5.191 28.212 5.191 11.821 0 19.032-1.645 20.937-3.277.594-.508.697-1.017.317-1.559-1.913-2.744-14.795-5.063-28.133-5.063Z"/><path fill="#ffc73c" d="M1066.937 1294.146c15.026 0 25.856-2.75 24.213-6.09-1.615-3.284-14.716-5.905-29.288-5.905s-25.455 2.621-24.291 5.905c1.183 3.34 14.34 6.09 29.366 6.09Z"/><path fill="#517496" d="M1066.938 1294.663c-15.667 0-28.953-2.856-30.248-6.505-.317-.901.12-1.803 1.26-2.611 3.358-2.378 12.743-3.914 23.91-3.914 15.172 0 28.419 2.758 30.153 6.28.456.932.115 1.87-.99 2.715-3.204 2.451-12.656 4.035-24.085 4.035Zm-5.077-11.995c-10.487 0-19.54 1.42-22.525 3.533-.8.566-1.101 1.156-.887 1.751.97 2.74 12.648 5.676 28.489 5.676 10.72 0 19.824-1.455 22.656-3.623.776-.592 1.001-1.185.692-1.808-1.473-2.998-14.49-5.53-28.425-5.53Z"/><path fill="#ffc73c" d="M1059.233 1275.936c14.336 0 24.726-2.503 23.23-5.546-1.473-2.994-13.934-5.386-27.855-5.386s-24.358 2.392-23.297 5.386c1.078 3.043 13.587 5.546 27.922 5.546Z"/><path fill="#517496" d="M1059.231 1276.454c-14.965 0-27.614-2.619-28.798-5.963-.285-.807.103-1.618 1.129-2.341 3.14-2.227 12.19-3.664 23.048-3.664 14.514 0 27.127 2.531 28.715 5.76.408.834.099 1.676-.891 2.434-2.998 2.293-12.102 3.774-23.203 3.774Zm-4.621-10.934c-10.185 0-18.89 1.32-21.662 3.285-.689.487-.939.972-.756 1.48.875 2.48 11.951 5.134 27.04 5.134 10.395 0 19.143-1.352 21.772-3.364.657-.504.851-1.003.594-1.525-1.184-2.419-12.316-5.01-26.988-5.01Z"/><path fill="#49ad87" d="M1227.208 1419.149c19.77 0 32.482-4.75 28.476-10.49-3.918-5.614-22.426-10.076-41.415-10.076s-31.882 4.462-28.736 10.076c3.218 5.74 21.906 10.49 41.675 10.49Z"/><path fill="#517496" d="M1227.208 1419.666c-20.094 0-39.174-4.866-42.528-10.847-1.026-1.829-.51-3.634 1.489-5.22 4.293-3.413 15.06-5.532 28.1-5.532 19.62 0 38.172 4.568 42.247 10.397 1.331 1.91.998 3.804-.966 5.484-4.118 3.527-14.98 5.718-28.342 5.718Zm-12.938-20.565c-12.478 0-22.691 1.957-26.656 5.106-1.667 1.328-2.083 2.772-1.231 4.292 3.08 5.493 21.776 10.132 40.825 10.132 12.775 0 23.067-2.016 26.857-5.262 1.636-1.4 1.901-2.92.788-4.515-3.754-5.38-21.959-9.753-40.583-9.753Z"/><path fill="#49ad87" d="M1207.661 1388.08c18.591 0 30.73-4.201 27.18-9.286-3.475-4.98-20.75-8.942-38.649-8.942s-30.188 3.962-27.397 8.942c2.85 5.085 20.276 9.287 38.866 9.287Z"/><path fill="#517496" d="M1207.66 1388.598c-18.92 0-36.738-4.326-39.716-9.645-.879-1.565-.427-3.117 1.3-4.49 3.98-3.166 14.307-5.13 26.948-5.13 18.51 0 35.855 4.07 39.482 9.265 1.137 1.63.844 3.257-.851 4.708-3.814 3.264-14.22 5.292-27.163 5.292Zm-11.468-18.23c-11.896 0-21.903 1.847-25.5 4.703-1.397 1.11-1.746 2.308-1.045 3.562 2.713 4.84 20.118 8.93 38.014 8.93 12.165 0 22.247-1.9 25.677-4.836 1.362-1.17 1.592-2.426.673-3.74-3.318-4.753-20.284-8.619-37.819-8.619Z"/><path fill="#49ad87" d="M1119.82 1419.149c19.77 0 33.461-4.75 30.638-10.49-2.76-5.614-20.349-10.076-39.338-10.076s-32.802 4.462-30.812 10.076c2.034 5.74 19.743 10.49 39.513 10.49Z"/><path fill="#517496" d="M1119.821 1419.666c-20.141 0-38.259-4.891-40.393-10.904-.63-1.778.19-3.536 2.372-5.079 4.89-3.465 16.126-5.616 29.32-5.616 19.659 0 37.317 4.59 40.2 10.45.907 1.847.265 3.685-1.865 5.312-4.705 3.6-16.059 5.837-29.634 5.837Zm-8.7-20.565c-12.669 0-23.373 2.007-27.935 5.237-1.853 1.314-2.527 2.733-2 4.218 1.937 5.46 19.63 10.075 38.635 10.075 13.025 0 23.832-2.078 28.204-5.427 1.802-1.377 2.329-2.858 1.568-4.403-2.63-5.349-19.887-9.7-38.472-9.7Z"/><path fill="#49ad87" d="M1106.677 1388.08c18.59 0 31.595-4.201 29.094-9.286-2.449-4.98-18.907-8.942-36.806-8.942s-31.005 3.962-29.24 8.942c1.801 5.085 18.361 9.287 36.952 9.287Z"/><path fill="#517496" d="M1106.678 1388.598c-18.966 0-35.935-4.35-37.832-9.702-.538-1.522.17-3.03 2.056-4.365 4.526-3.206 15.278-5.197 28.061-5.197 18.553 0 35.099 4.092 37.673 9.317.772 1.577.214 3.154-1.62 4.555-4.348 3.325-15.207 5.392-28.339 5.392Zm-7.715-18.23c-12.074 0-22.54 1.893-26.675 4.818-1.553 1.1-2.119 2.28-1.683 3.504 1.703 4.809 18.224 8.873 36.072 8.873 12.392 0 22.953-1.954 26.91-4.98 1.504-1.151 1.948-2.378 1.322-3.648-2.324-4.724-18.45-8.567-35.946-8.567Z"/><path fill="#58adcc" d="M730.584 1294.146c15.026 0 28.19-2.75 29.385-6.09 1.174-3.284-9.701-5.905-24.273-5.905s-27.681 2.621-29.306 5.905c-1.653 3.34 9.167 6.09 24.194 6.09Z"/><path fill="#517496" d="M730.585 1294.663c-11.425 0-20.878-1.584-24.073-4.033-1.105-.847-1.446-1.785-.982-2.717 1.746-3.522 14.997-6.28 30.168-6.28 11.167 0 20.549 1.536 23.899 3.914 1.14.808 1.572 1.712 1.251 2.614-1.306 3.646-14.6 6.502-30.263 6.502Zm5.113-11.995c-13.936 0-26.96 2.533-28.45 5.53-.305.624-.079 1.215.693 1.807 2.828 2.168 11.928 3.623 22.644 3.623 15.837 0 27.527-2.936 28.51-5.678.209-.595-.088-1.183-.884-1.75-2.978-2.113-12.027-3.532-22.513-3.532Z"/><path fill="#58adcc" d="M738.345 1275.936c14.336 0 26.853-2.503 27.94-5.546 1.071-2.994-9.359-5.386-23.28-5.386s-26.39 2.392-27.871 5.386c-1.506 3.043 8.876 5.546 23.211 5.546Z"/><path fill="#517496" d="M738.347 1276.454c-11.096 0-20.2-1.481-23.19-3.774-.99-.758-1.3-1.6-.884-2.433 1.596-3.232 14.217-5.761 28.731-5.761 10.859 0 19.9 1.437 23.036 3.662 1.022.725 1.41 1.536 1.125 2.346-1.196 3.341-13.857 5.96-28.818 5.96Zm4.657-10.934c-14.672 0-25.812 2.591-27.012 5.01-.257.525-.063 1.023.594 1.527 2.626 2.01 11.37 3.362 21.761 3.362 15.088 0 26.172-2.655 27.064-5.136.178-.506-.068-.99-.757-1.48-2.768-1.964-11.468-3.283-21.65-3.283Z"/><path fill="#58adcc" d="M648.96 1294.146c15.026 0 28.758-2.75 30.64-6.09 1.85-3.284-8.484-5.905-23.055-5.905s-28.222 2.621-30.524 5.905c-2.342 3.34 7.912 6.09 22.939 6.09Z"/><path fill="#517496" d="M648.96 1294.663c-11.291 0-20.411-1.563-23.23-3.985a1.94 1.94 0 0 1-.54-2.817c2.452-3.493 16.221-6.228 31.353-6.228 11.072 0 20.141 1.522 23.1 3.882 1.053.838 1.33 1.771.807 2.7-2.035 3.617-15.868 6.448-31.49 6.448Zm7.583-11.995c-13.971 0-27.57 2.556-29.69 5.582-.454.645-.336 1.252.361 1.85 2.46 2.11 11.2 3.529 21.745 3.529 14.4 0 28.038-2.626 29.788-5.734.349-.618.167-1.197-.554-1.774-2.594-2.064-11.294-3.453-21.65-3.453Z"/><path fill="#58adcc" d="M660.474 1275.936c14.336 0 27.368-2.503 29.084-5.546 1.687-2.994-8.25-5.386-22.17-5.386s-26.883 2.392-28.982 5.386c-2.133 3.043 7.733 5.546 22.068 5.546Z"/><path fill="#517496" d="M660.475 1276.454c-10.97 0-19.769-1.465-22.41-3.733a1.739 1.739 0 0 1-.491-2.527c2.245-3.202 15.341-5.708 29.812-5.708 10.767 0 19.52 1.428 22.291 3.637.95.755 1.204 1.593.733 2.426-1.865 3.312-15.013 5.905-29.935 5.905Zm6.91-10.934c-13.333 0-26.227 2.319-28.148 5.063-.38.542-.281 1.053.313 1.559 1.9 1.632 9.108 3.277 20.925 3.277 15.14 0 26.818-2.685 28.232-5.19.293-.52.135-1.01-.48-1.498-2.41-1.92-10.787-3.21-20.841-3.21Z"/><path fill="#f16671" d="M677.301 1419.149c19.77 0 37.494-4.75 39.547-10.49 2.007-5.614-11.791-10.076-30.78-10.076s-36.592 4.462-39.37 10.076c-2.842 5.74 10.834 10.49 30.603 10.49Z"/><path fill="#517496" d="M677.302 1419.666c-13.576 0-24.921-2.237-29.618-5.837-2.123-1.627-2.764-3.465-1.845-5.312 2.894-5.861 20.565-10.45 40.226-10.45 13.196 0 24.423 2.151 29.305 5.614 2.178 1.545 2.99 3.303 2.353 5.083-2.147 6.01-20.28 10.902-40.421 10.902Zm8.763-20.565c-18.588 0-35.862 4.351-38.508 9.7-.764 1.545-.241 3.028 1.557 4.406 4.364 3.346 15.163 5.424 28.188 5.424 19.008 0 36.718-4.614 38.666-10.077.535-1.486-.134-2.905-1.988-4.218-4.55-3.23-15.246-5.235-27.914-5.235Z"/><path fill="#f16671" d="M690.544 1388.08c18.59 0 35.164-4.201 36.982-9.286 1.78-4.98-11.313-8.942-29.212-8.942s-34.37 3.962-36.835 8.942c-2.517 5.085 10.474 9.287 29.065 9.287Z"/><path fill="#517496" d="M690.544 1388.598c-13.131 0-23.982-2.064-28.322-5.39-1.83-1.403-2.388-2.98-1.604-4.557 2.586-5.225 19.147-9.317 37.696-9.317 12.78 0 23.527 1.99 28.046 5.197 1.88 1.335 2.59 2.843 2.047 4.367-1.917 5.35-18.902 9.7-37.863 9.7Zm7.77-18.23c-17.496 0-33.637 3.843-35.977 8.567-.626 1.272-.187 2.5 1.314 3.65 3.949 3.024 14.502 4.978 26.893 4.978 17.849 0 34.382-4.064 36.109-8.875.435-1.225-.13-2.404-1.68-3.504-4.126-2.925-14.588-4.816-26.659-4.816Z"/><path fill="#f16671" d="M569.913 1419.149c19.77 0 38.473-4.75 41.709-10.49 3.164-5.614-9.715-10.076-28.704-10.076s-37.51 4.462-41.447 10.076c-4.024 5.74 8.673 10.49 28.442 10.49Z"/><path fill="#517496" d="M569.915 1419.666c-13.361 0-24.216-2.19-28.326-5.715-1.96-1.68-2.285-3.578-.95-5.487 4.09-5.831 22.659-10.397 42.277-10.397 13.041 0 23.8 2.119 28.086 5.53 1.995 1.588 2.502 3.393 1.473 5.222-3.37 5.98-22.462 10.847-42.56 10.847Zm13.001-20.565c-18.624 0-36.845 4.376-40.615 9.753-1.12 1.597-.859 3.117.773 4.518 3.782 3.243 14.066 5.259 26.841 5.259 19.052 0 37.76-4.64 40.857-10.132.86-1.522.447-2.966-1.22-4.294-3.952-3.147-14.161-5.104-26.636-5.104Z"/><path fill="#f16671" d="M589.56 1388.08c18.59 0 36.03-4.201 38.896-9.286 2.807-4.98-9.47-8.942-27.37-8.942s-35.186 3.962-38.677 8.942c-3.565 5.085 8.56 9.287 27.15 9.287Z"/><path fill="#517496" d="M589.558 1388.598c-12.938 0-23.337-2.028-27.143-5.292-1.691-1.448-1.98-3.078-.84-4.708 3.644-5.195 21-9.264 39.51-9.264 12.641 0 22.957 1.963 26.933 5.126 1.723 1.374 2.17 2.928 1.287 4.493-2.994 5.32-20.826 9.645-39.747 9.645Zm11.527-18.23c-17.535 0-34.516 3.868-37.846 8.62-.923 1.313-.701 2.572.66 3.742 3.426 2.936 13.497 4.833 25.659 4.833 17.895 0 35.32-4.09 38.044-8.93.71-1.254.36-2.454-1.037-3.564-3.584-2.856-13.587-4.7-25.48-4.7ZM1273.466 1323.064h-51.818l-9.75-12.824h50.31Zm-50.646-1.034h47.731l-9.445-10.755h-46.468Z"/><path fill="#517496" d="M1284.423 1335.545h-53.279l-10.284-13.515h51.699Zm-52.107-1.035h49.193l-10.051-11.446h-47.85Z"/><path fill="#517496" d="M1296.046 1348.783h-54.831l-10.86-14.273h53.162Zm-53.66-1.035h50.746l-10.716-12.203h-49.312Z"/><path fill="#ffc73c" d="m1172.463 1322.546-7.585-11.789h48.39l8.967 11.789h-49.772z"/><path fill="#517496" d="M1223.604 1323.064h-51.763l-8.249-12.824h50.262Zm-50.52-1.034h47.78l-8.182-10.755h-46.516Z"/><path fill="#ffc73c" d="m1180.493 1335.028-8.03-12.482h49.772l9.495 12.482h-51.237z"/><path fill="#517496" d="M1233.104 1335.545h-53.232l-8.696-13.515h51.644Zm-51.988-1.035h49.24l-8.708-11.446h-47.898Z"/><path fill="#517496" d="M1243.175 1348.783h-54.784l-9.184-14.273h53.11Zm-53.541-1.035h50.792l-9.282-12.203h-49.363ZM1173.75 1323.064h-51.723l-6.748-12.824h50.222Zm-50.392-1.034h47.818l-6.918-10.755h-46.563Z"/><path fill="#ffc73c" d="m1129.257 1335.028-6.567-12.482h49.773l8.03 12.482h-51.236z"/><path fill="#517496" d="M1181.781 1335.545h-53.188l-7.109-13.515h51.6Zm-51.858-1.035h49.284l-7.366-11.446h-47.94Z"/><path fill="#ffc73c" d="m1136.222 1348.266-6.965-13.238h51.236l8.518 13.238h-52.789z"/><path fill="#517496" d="M1190.3 1348.783h-54.741l-7.509-14.273h53.066Zm-53.41-1.035h50.835l-7.853-12.203h-49.406ZM1123.9 1323.064h-51.691l-5.243-12.824h50.186Zm-50.274-1.034h47.858l-5.663-10.755h-46.59Z"/><path fill="#ffc73c" d="m1078.021 1335.028-5.103-12.482h49.772l6.567 12.482h-51.236z"/><path fill="#517496" d="M1130.466 1335.545h-53.153l-5.528-13.515h51.572Zm-51.735-1.035h49.32l-6.024-11.446h-47.977Z"/><path fill="#517496" d="M1137.432 1348.783h-54.705l-5.837-14.273h53.033Zm-53.288-1.035h50.872l-6.423-12.203h-49.438ZM1074.05 1323.064h-51.66l-3.738-12.824h50.155Zm-50.147-1.034h47.882l-4.396-10.755h-46.622Z"/><path fill="#ffc73c" d="m1026.785 1335.028-3.639-12.482h49.772l5.103 12.482h-51.236z"/><path fill="#517496" d="M1079.155 1335.545h-53.125l-3.94-13.515h51.536Zm-51.612-1.035h49.347l-4.681-11.446h-48.005Z"/><path fill="#517496" d="M1084.568 1348.783h-54.677l-4.162-14.273h53.002Zm-53.164-1.035h50.899l-4.99-12.203h-49.47Z"/><path fill="#ffc73c" d="m1261.629 1310.743-3.69-4.242h-.04l-6.043-6.89-9.246-10.57-17.194-19.547-7.948-9.046-7.543-8.625H961.061l.567 3.164.932 5.46 1.583 9.047 1.662 9.516 1.743 10.03 1.826 10.57 1.946 11.133v.024h290.35v-.024Zm-245.175-11.132-1.378-4.711-1.704-5.86-2.92-10.03-2.757-9.516-2.676-9.046h169.992l6.853 9.046 7.259 9.516 7.623 10.03 8.03 10.57Zm189.694.682h-190.203l-11.837-40.527h171.242l7.057 9.318Zm-189.184-1.365h186.439l-28.731-37.798H1005.93Z"/><path fill="#517496" d="M1024.204 1323.064H972.56l-2.233-12.824h50.139Zm-50.02-1.034h47.905l-3.136-10.755h-46.646Z"/><path fill="#ffc73c" d="m975.549 1335.028-2.176-12.482h49.773l3.639 12.482h-51.236z"/><path fill="#517496" d="M1027.843 1335.545h-53.105l-2.356-13.515h51.521Zm-51.481-1.035h49.367l-3.339-11.446h-48.028Z"/><path fill="#517496" d="M1031.708 1348.783h-54.665l-2.483-14.273h52.983Zm-53.041-1.035h50.923l-3.56-12.203h-49.49Z"/><path fill="#49ad87" d="m1375.782 1440.77-81.184-92.504h-316.75l.893 5.156 1.582 8.906 2.595 14.976 2.797 15.984 2.96 17.062 3.204 18.28 3.407 19.664h387.105Zm-321.696-12.14-5.353-18.28-4.948-17.062-4.663-15.984-4.38-14.976h217.762l11.396 14.976 12.125 15.984 13.016 17.062 13.91 18.28Zm250.24.684h-250.75l-19.742-67.667h219.007Zm-249.73-1.364h246.98l-49.41-64.938h-216.514Z"/><path fill="#517496" d="M963.54 1260.957h-44.35l-.55-9.661h43.216Zm-42.616-1.035h40.635l-1.327-7.592h-39.74Z"/><path fill="#517496" d="M965.115 1270.013h-45.407l-.578-10.091h44.23Zm-43.672-1.034h41.692l-1.398-8.022h-40.753Z"/><path fill="#58adcc" d="m921.118 1279.018-.543-9.522h43.552l1.659 9.522h-44.668z"/><path fill="#517496" d="M966.774 1279.534h-46.523l-.602-10.555h45.288Zm-44.788-1.034h42.808l-1.48-8.487h-41.812Z"/><path fill="#517496" d="M968.525 1289.559H920.82l-.63-11.06h46.405Zm-45.97-1.034h43.99l-1.572-8.99h-42.928Z"/><path fill="#517496" d="M970.366 1300.124h-48.939l-.665-11.6h47.585Zm-47.204-1.035h45.224l-1.663-9.53h-44.108Z"/><path fill="#517496" d="M972.307 1311.275H922.06l-.693-12.186h48.82Zm-48.512-1.035h46.532l-1.763-10.116h-45.343ZM981.3 1362.85h-56.297l-.863-15.102h54.527Zm-54.562-1.035h52.582l-2.277-13.032h-51.05Z"/><path fill="#517496" d="M983.91 1377.823h-58.051l-.915-16.008h56.178Zm-56.317-1.035h54.337l-2.432-13.938h-52.7Z"/><path fill="#517496" d="M986.694 1393.794h-59.925l-.97-17.006h57.933Zm-58.19-1.035h56.21l-2.606-14.936h-54.455Z"/><path fill="#517496" d="M989.668 1410.865h-61.924l-1.034-18.106h59.806Zm-60.19-1.034h58.21l-2.796-16.037h-56.329Z"/><path fill="#49ad87" d="m929.653 1428.641-1.044-18.292h60.069l3.189 18.292h-62.214z"/><path fill="#517496" d="M992.856 1429.157h-64.07l-1.102-19.326h61.806Zm-62.336-1.034h60.356l-3.01-17.258h-58.328Z"/><path fill="#517496" d="M996.281 1448.804h-66.375l-1.18-20.681h63.952Zm-64.64-1.035h62.66l-3.247-18.612h-60.475ZM920.984 1260.957h-44.342l.582-9.661h43.21Zm-42.488-1.035h40.634l-.431-7.592H878.95Z"/><path fill="#58adcc" d="m877.024 1269.496.545-9.057h42.49l.516 9.057h-43.551z"/><path fill="#517496" d="M921.502 1270.013h-45.406l.61-10.091h44.218Zm-43.553-1.034h41.7l-.46-8.022h-40.757Z"/><path fill="#58adcc" d="m876.45 1279.018.574-9.522h43.551l.543 9.522H876.45z"/><path fill="#517496" d="M922.045 1279.534h-46.52l.634-10.555h45.284Zm-44.666-1.034h42.813l-.484-8.487h-41.822Z"/><path fill="#58adcc" d="m875.847 1289.041.603-10.023h44.668l.572 10.023h-45.843z"/><path fill="#517496" d="M922.615 1289.559H874.92l.669-11.06h46.397Zm-45.842-1.034h43.989l-.511-8.99h-42.936Z"/><path fill="#58adcc" d="m875.21 1299.606.637-10.565h45.843l.603 10.565H875.21z"/><path fill="#517496" d="M923.221 1300.124h-48.939l.7-11.6h47.574Zm-47.086-1.035h45.233l-.547-9.53H876.71Z"/><path fill="#58adcc" d="m874.539 1310.757.671-11.151h47.083l.636 11.151h-48.39z"/><path fill="#517496" d="M923.855 1311.275h-50.242l.732-12.186h48.817Zm-48.389-1.035h46.535l-.574-10.116h-45.355Z"/><path fill="#49ad87" d="m871.432 1362.332.848-14.066h52.788l.802 14.066h-54.438z"/><path fill="#517496" d="M926.797 1362.85h-56.293l.91-15.102h54.52Zm-54.44-1.035h52.587l-.745-13.032h-51.058Z"/><path fill="#49ad87" d="m870.531 1377.305.901-14.973h54.438l.854 14.973h-56.193z"/><path fill="#517496" d="M927.653 1377.823h-58.048l.962-16.008h56.17Zm-56.195-1.035H925.8l-.796-13.938h-52.709Z"/><path fill="#49ad87" d="m869.569 1393.276.962-15.971h56.193l.911 15.971h-58.066z"/><path fill="#517496" d="M928.563 1393.794h-59.92l1.025-17.006h57.925Zm-58.067-1.035h56.214l-.851-14.936h-54.464Z"/><path fill="#49ad87" d="m868.54 1410.349 1.029-17.073h58.066l.974 17.073H868.54z"/><path fill="#517496" d="M929.538 1410.865h-61.925l1.093-18.106h59.798Zm-60.071-1.034h58.217l-.915-16.037h-56.336Z"/><path fill="#49ad87" d="m867.439 1428.641 1.101-18.292h60.069l1.044 18.292h-62.214z"/><path fill="#517496" d="M930.579 1429.157h-64.067l1.165-19.326h61.801Zm-62.213-1.034h60.36l-.982-17.258h-58.34Z"/><path fill="#517496" d="M931.7 1448.804h-66.372l1.248-20.681h63.944Zm-64.519-1.035h62.665l-1.06-18.612h-60.484ZM878.432 1260.957h-44.345l1.715-9.661h43.212Zm-42.357-1.035h40.63l.456-7.592h-39.744Z"/><path fill="#58adcc" d="m833.472 1269.496 1.608-9.057h42.489l-.545 9.057h-43.552z"/><path fill="#517496" d="M877.886 1270.013h-45.407l1.794-10.091h44.223Zm-43.419-1.034h41.692l.483-8.022H835.89Z"/><path fill="#517496" d="M877.315 1279.534h-46.527l1.877-10.555h45.284Zm-44.539-1.034h42.813l.507-8.487H834.28Z"/><path fill="#517496" d="M876.71 1289.559h-47.7l1.964-11.06h46.405Zm-45.712-1.034h43.985l.543-8.99H832.59Z"/><path fill="#517496" d="M876.072 1300.124h-48.94l2.064-11.6h47.577Zm-46.951-1.035h45.224l.575-9.53h-44.108Z"/><path fill="#517496" d="M875.403 1311.275h-50.246l2.162-12.186h48.816Zm-48.258-1.035h46.531l.606-10.116h-45.347Z"/><path fill="#49ad87" d="M977.854 1348.266H819.477l79.197-19.565 79.18 19.565z"/><path fill="#517496" d="M982.227 1348.783H815.102l83.57-20.645Zm-158.373-1.035h149.629l-74.81-18.484Z"/><path fill="#f16671" d="m819.477 1348.266 6.66-37.511 72.537 17.946-79.197 19.565z"/><path fill="#517496" d="m818.433 1349.087 6.934-39.085 75.582 18.7Zm8.47-37.579-6.38 35.936 75.872-18.743Z"/><path fill="#58adcc" d="m898.674 1328.701-72.537-17.946h145.179l-72.642 17.946z"/><path fill="#517496" d="m898.672 1329.264-76.905-19.026h153.926Zm-68.17-17.991 68.17 16.865 68.269-16.865ZM872.294 1362.85h-56.293l2.681-15.102h54.523Zm-54.305-1.035h52.578l.784-13.032h-51.053Z"/><path fill="#517496" d="M871.395 1377.823h-58.051l2.843-16.008h56.17Zm-56.063-1.035h54.336l.836-13.938h-52.701Z"/><path fill="#517496" d="M870.433 1393.794h-59.925l3.022-17.006h57.928Zm-57.937-1.035h56.21l.9-14.936h-54.46Z"/><path fill="#49ad87" d="m808.472 1410.349 3.03-17.073h58.067l-1.029 17.073h-60.068z"/><path fill="#517496" d="M869.403 1410.865H807.48l3.215-18.106h59.802Zm-59.936-1.034h58.21l.966-16.037H812.31Z"/><path fill="#517496" d="M868.302 1429.157h-64.07l3.433-19.326h61.802Zm-62.083-1.034h60.357l1.037-17.258h-58.332Z"/><path fill="#517496" d="M867.118 1448.804h-66.375l3.675-20.681h63.948Zm-64.387-1.035h62.66l1.121-18.612h-60.479ZM824.864 1323.064h-51.64l3.778-12.824h50.143Zm-49.518-1.034h47.902l1.909-10.755h-46.643Z"/><path fill="#f16671" d="m770.605 1335.028 3.679-12.482h49.772l-2.215 12.482h-51.236z"/><path fill="#517496" d="M822.65 1335.545h-53.105l3.984-13.515h51.52Zm-50.983-1.035h49.367l2.028-11.446h-48.02Z"/><path fill="#517496" d="M820.298 1348.783H765.64l4.21-14.273h52.986Zm-52.535-1.035h50.919l2.166-12.203h-49.486ZM775.042 1323.064h-51.664l5.283-12.824h50.158Zm-49.399-1.034h47.886l3.168-10.755h-46.619Z"/><path fill="#f16671" d="m719.369 1335.028 5.143-12.482h49.772l-3.679 12.482h-51.236z"/><path fill="#517496" d="M771.362 1335.545h-53.125l5.564-13.515h51.545Zm-50.86-1.035h49.348l3.374-11.446h-48.005Z"/><path fill="#517496" d="M767.458 1348.783H712.78l5.881-14.273h53.006Zm-52.412-1.035h50.9l3.599-12.203h-49.466ZM725.22 1323.064h-51.692l6.791-12.824h50.183Zm-49.269-1.034h47.85l4.436-10.755h-46.595Z"/><path fill="#f16671" d="m668.133 1335.028 6.606-12.482h49.773l-5.143 12.482h-51.236z"/><path fill="#517496" d="M720.079 1335.545h-53.157l7.156-13.515h51.565Zm-50.733-1.035h49.315l4.717-11.446H675.4Z"/><path fill="#517496" d="M714.622 1348.783h-54.71l7.56-14.273h53.03Zm-52.285-1.035h50.867l5.034-12.203h-49.442Z"/><path fill="#f16671" d="m624.967 1322.546 7.622-11.789h48.39l-6.24 11.789h-49.772z"/><path fill="#517496" d="M675.401 1323.064h-51.723l8.288-12.824h50.227Zm-49.141-1.034h47.818l5.691-10.755h-46.56Z"/><path fill="#f16671" d="m616.896 1335.028 8.071-12.482h49.772l-6.606 12.482h-51.237z"/><path fill="#517496" d="M668.795 1335.545h-53.188l8.74-13.515h51.604Zm-50.606-1.035h49.284l6.055-11.446H625.59Z"/><path fill="#517496" d="M661.786 1348.783h-54.74l9.23-14.273h53.07Zm-52.159-1.035h50.836l6.46-12.203H617.52ZM625.59 1323.064h-51.77l9.797-12.824h50.262Zm-49.022-1.034h47.78l6.95-10.755h-46.516Z"/><path fill="#f16671" d="m565.66 1335.028 9.535-12.482h49.772l-8.071 12.482H565.66z"/><path fill="#517496" d="M617.52 1335.545h-53.232l10.324-13.515h51.648Zm-50.484-1.035h49.24l7.402-11.446h-47.902Z"/><path fill="#f16671" d="m555.548 1348.266 10.112-13.238h51.236l-8.559 13.238h-52.789z"/><path fill="#517496" d="M608.958 1348.783h-54.784l10.906-14.273h53.11Zm-52.036-1.035h50.793l7.892-12.203h-49.363Z"/><path fill="#58adcc" d="m587.742 1251.823-2.797 3.164-16.465 18.656-13.544 15.398-9.287 10.57-9.813 11.132h-.04v.024h290.35v-.024l.77-4.242.162-.867 1.054-6.023 1.866-10.57 1.784-10.031 1.703-9.516 1.582-9.046 1.54-8.625Zm193.31 47.788H592.73l8.07-10.57 7.624-10.031 1.703-2.227 5.597-7.289 6.893-9.046H792.61l-2.676 9.046-2.799 9.516-2.96 10.03-2.595 8.743Zm.51.682H591.355l30.926-40.527h171.24Zm-187.456-1.365H780.54l11.158-37.798H622.954Z"/><path fill="#517496" d="M575.776 1323.064h-51.814l11.298-12.824h50.314Zm-48.891-1.034h47.727l8.213-10.755h-46.464Z"/><path fill="#517496" d="M566.244 1335.545h-53.28l11.909-13.515h51.695Zm-50.357-1.035h49.193l8.74-11.446h-47.846Z"/><path fill="#517496" d="M556.13 1348.783h-54.832l12.578-14.273h53.16Zm-51.91-1.035h50.746l9.322-12.203h-49.311Z"/><path fill="#f16671" d="m502.746 1348.266-4.542 5.156-66.26 75.208-17.316 19.664h387.105l1.339-7.523 2.15-12.14 3.242-18.281.812-4.5 2.149-12.047.08-.515 2.84-15.984 2.636-14.976 2.514-14.062Zm255.394 29.038-4.703 15.984-5.03 17.062-1.378 4.64-4.014 13.64H494.149l13.99-18.28 13.018-17.062 12.206-15.984 11.435-14.976H762.56Zm-14.616 52.01H492.77l51.689-67.667h219.012Zm-247.996-1.364h246.976l19.146-64.938H545.134Z"/><path fill="#ffc73c" d="m977.854 1348.266-79.18-19.565 72.642-17.946 6.538 37.511z"/><path fill="#517496" d="m978.896 1349.087-82.5-20.386 75.689-18.699Zm-77.947-20.386 75.864 18.743-6.264-35.936Z"/><path fill="#f16671" d="M541.916 1332.75c9.058 0 17.834-1.824 19.583-4.054 1.732-2.206-4.085-3.979-12.977-3.979s-17.623 1.773-19.522 3.98c-1.917 2.229 3.857 4.053 12.916 4.053Z"/><path fill="#517496" d="M541.917 1333.267c-6.684 0-11.892-.98-13.583-2.558a1.46 1.46 0 0 1-.139-2.243c2.064-2.392 10.994-4.267 20.328-4.267 6.613 0 11.8.966 13.54 2.523a1.453 1.453 0 0 1 .253 2.188c-1.917 2.444-10.879 4.357-20.399 4.357Zm6.606-8.033c-8.423 0-16.997 1.691-18.724 3.694a.79.79 0 0 0 .056 1.236c1.105 1.03 5.263 2.069 12.062 2.069 9.465 0 17.346-1.939 18.767-3.75a.782.782 0 0 0-.13-1.2c-1.137-1.02-5.299-2.05-12.031-2.05Z"/><path fill="#58adcc" d="M898.817 1258.871c7.519 0 13.568-1.258 13.513-2.797-.055-1.527-6.101-2.754-13.505-2.754s-13.453 1.227-13.513 2.754c-.06 1.54 5.986 2.797 13.505 2.797Z"/><path fill="#517496" d="M898.815 1259.391c-6.067 0-11.326-.792-13.401-2.019-.851-.503-1.014-.988-1.002-1.309.083-2.12 7.489-3.264 14.415-3.264s14.328 1.145 14.403 3.264c.016.465-.321.906-1.006 1.31-2.08 1.226-7.342 2.018-13.41 2.018Zm.012-5.553c-7.762 0-12.582 1.31-12.617 2.248-.008.174.158.364.487.558 1.394.822 5.778 1.708 12.118 1.708 6.344 0 10.732-.886 12.126-1.707.332-.197.499-.385.49-.559-.035-.938-4.846-2.247-12.604-2.247Z"/><path fill="#ffc73c" d="M1255.482 1332.75c9.059 0 14.839-1.824 12.928-4.054-1.891-2.206-10.618-3.979-19.51-3.979s-14.714 1.773-12.99 3.98c1.743 2.229 10.513 4.053 19.572 4.053Z"/><path fill="#517496" d="M1255.483 1333.267c-9.52 0-18.478-1.913-20.387-4.357a1.451 1.451 0 0 1 .258-2.186c1.738-1.559 6.93-2.525 13.547-2.525 9.338 0 18.26 1.875 20.312 4.269a1.458 1.458 0 0 1-.139 2.24c-1.695 1.58-6.903 2.56-13.591 2.56Zm-6.582-8.033c-6.736 0-10.902 1.03-12.043 2.05a.782.782 0 0 0-.13 1.2c1.414 1.81 9.29 3.749 18.755 3.749 6.8 0 10.962-1.04 12.066-2.071a.787.787 0 0 0 .056-1.236c-1.711-2-10.277-3.692-18.704-3.692Z"/><path fill="#fff" d="M1204.513 1332.75c9.059 0 15.053-1.824 13.403-4.054-1.632-2.206-10.151-3.979-19.042-3.979s-14.922 1.773-13.457 3.98c1.481 2.229 10.037 4.053 19.096 4.053ZM1153.544 1332.75c9.058 0 15.266-1.824 13.879-4.054-1.374-2.206-9.685-3.979-18.577-3.979s-15.13 1.773-13.922 3.98c1.22 2.229 9.56 4.053 18.62 4.053ZM1161.203 1345.849c9.332 0 15.692-1.936 14.22-4.3-1.457-2.34-10.047-4.22-19.202-4.22s-15.547 1.88-14.267 4.22c1.293 2.364 9.917 4.3 19.25 4.3ZM1102.575 1332.75c9.058 0 15.48-1.824 14.354-4.054-1.115-2.206-9.218-3.979-18.11-3.979s-15.337 1.773-14.389 3.98c.958 2.229 9.086 4.053 18.145 4.053ZM1051.606 1332.75c9.059 0 15.694-1.824 14.83-4.054-.857-2.206-8.752-3.979-17.643-3.979s-15.546 1.773-14.856 3.98c.696 2.229 8.61 4.053 17.669 4.053ZM1000.637 1332.75c9.059 0 15.908-1.824 15.305-4.054-.597-2.206-8.285-3.979-17.176-3.979s-15.754 1.773-15.323 3.98c.435 2.229 8.135 4.053 17.194 4.053ZM912.801 1265.128c-.058-1.605-6.258-2.895-13.847-2.895s-13.791 1.29-13.854 2.895c-.063 1.618 6.136 2.94 13.847 2.94s13.913-1.322 13.854-2.94ZM913.141 1274.424c-.062-1.687-6.418-3.043-14.198-3.043s-14.139 1.356-14.205 3.043c-.066 1.702 6.29 3.093 14.198 3.093s14.267-1.391 14.205-3.093ZM957.27 1274.424c-.26-1.687-6.774-3.043-14.554-3.043s-13.98 1.356-13.848 3.043c.133 1.702 6.652 3.093 14.56 3.093s14.104-1.391 13.842-3.093ZM913.498 1284.204c-.065-1.776-6.586-3.203-14.566-3.203s-14.505 1.427-14.575 3.203c-.07 1.791 6.452 3.256 14.567 3.256s14.64-1.465 14.574-3.256ZM913.875 1294.505c-.069-1.871-6.764-3.375-14.956-3.375s-14.89 1.504-14.963 3.375c-.073 1.889 6.622 3.433 14.955 3.433s15.033-1.544 14.964-3.433ZM914.272 1305.371c-.073-1.975-6.951-3.561-15.365-3.561s-15.297 1.586-15.374 3.561c-.077 1.994 6.801 3.625 15.365 3.625s15.447-1.631 15.374-3.625ZM599.734 1324.969c-8.897 0-17.422 1.774-19.056 3.983-1.651 2.232 4.346 4.059 13.41 4.059s17.626-1.827 19.108-4.059c1.468-2.209-4.566-3.983-13.462-3.983ZM649.79 1324.969c-8.896 0-17.213 1.774-18.588 3.983-1.39 2.232 4.821 4.059 13.886 4.059s17.411-1.827 18.632-4.059c1.209-2.209-5.033-3.983-13.93-3.983ZM656.762 1313.047c-8.649 0-16.703 1.676-18.002 3.763-1.312 2.108 4.754 3.832 13.56 3.832s16.889-1.724 18.042-3.832c1.141-2.087-4.952-3.763-13.6-3.763ZM699.847 1324.969c-8.897 0-17.005 1.774-18.122 3.983-1.127 2.232 5.298 4.059 14.362 4.059s17.198-1.827 18.157-4.059c.95-2.209-5.5-3.983-14.397-3.983ZM749.903 1324.969c-8.896 0-16.797 1.774-17.654 3.983-.866 2.232 5.774 4.059 14.838 4.059s16.983-1.827 17.68-4.059c.69-2.209-5.967-3.983-14.864-3.983ZM799.96 1324.969c-8.897 0-16.59 1.774-17.187 3.983-.605 2.232 6.25 4.059 15.313 4.059s16.77-1.827 17.205-4.059c.431-2.209-6.435-3.983-15.331-3.983ZM880.35 1419.273c-.119 3.27 8.69 5.95 19.675 5.95s19.788-2.68 19.661-5.95c-.126-3.229-8.934-5.817-19.675-5.817s-19.542 2.588-19.66 5.817ZM880.996 1401.61c-.112 3.052 8.398 5.553 19.008 5.553s19.113-2.501 18.994-5.552c-.117-3.015-8.627-5.432-19.008-5.432s-18.884 2.417-18.994 5.432ZM821.952 1401.61c-.47 3.052 7.747 5.553 18.357 5.553s19.406-2.501 19.645-5.552c.236-3.015-7.99-5.432-18.37-5.432s-19.169 2.417-19.632 5.432ZM881.599 1385.106c-.104 2.854 8.126 5.192 18.384 5.192s18.484-2.338 18.372-5.192c-.11-2.82-8.34-5.083-18.384-5.083s-18.269 2.263-18.372 5.083ZM882.164 1369.65c-.098 2.675 7.871 4.866 17.8 4.866s17.894-2.191 17.79-4.866c-.103-2.645-8.073-4.768-17.801-4.768s-17.693 2.123-17.79 4.768ZM882.694 1355.144c-.092 2.512 7.632 4.57 17.253 4.57s17.34-2.058 17.242-4.57c-.097-2.485-7.821-4.48-17.253-4.48s-17.152 1.995-17.242 4.48Z" opacity=".3" style="mix-blend-mode:overlay"/><path fill="#49ad87" d="M898.52 1444.68c11.392 0 20.522-2.881 20.395-6.394-.125-3.469-9.247-6.248-20.375-6.248s-20.258 2.78-20.395 6.248c-.138 3.513 8.983 6.395 20.375 6.395Z"/><path fill="#517496" d="M898.522 1445.199c-7.837 0-15.001-1.355-18.696-3.54-1.73-1.024-2.621-2.196-2.574-3.386.147-3.785 9.496-6.752 21.29-6.752 11.789 0 21.13 2.967 21.27 6.752.043 1.193-.852 2.362-2.587 3.385-3.698 2.186-10.866 3.54-18.703 3.54Zm.02-12.643c-10.63 0-19.377 2.575-19.5 5.74-.036.92.657 1.808 2.067 2.639 3.366 1.991 10.04 3.23 17.413 3.23s14.05-1.239 17.424-3.23c1.41-.833 2.107-1.721 2.075-2.639-.114-3.165-8.854-5.74-19.48-5.74Z"/><path fill="#fff" d="M583.647 1345.849c9.332 0 18.19-1.936 19.768-4.3 1.562-2.34-4.605-4.22-13.76-4.22s-17.97 1.88-19.71 4.22c-1.756 2.364 4.37 4.3 13.702 4.3Z"/><path fill="#517496" d="M583.649 1346.403c-6.879 0-12.332-1.035-14.229-2.699a1.6 1.6 0 0 1-.352-2.373c1.897-2.555 10.942-4.555 20.589-4.555 6.799 0 12.228 1.019 14.173 2.657a1.607 1.607 0 0 1 .475 2.314c-1.738 2.61-10.811 4.656-20.656 4.656Zm6.008-8.52c-8.641 0-17.267 1.78-18.83 3.883a.877.877 0 0 0 .193 1.33c1.248 1.093 5.635 2.199 12.629 2.199 9.714 0 17.603-2.04 18.87-3.946a.878.878 0 0 0-.27-1.29c-1.282-1.083-5.674-2.175-12.592-2.175Z"/><path fill="#fff" d="M855.444 1267.85c7.706 0 14.06-1.322 14.191-2.938.13-1.603-5.914-2.892-13.498-2.892s-13.935 1.29-14.186 2.892c-.253 1.616 5.787 2.937 13.493 2.937Z"/><path fill="#517496" d="M855.444 1268.404c-6.182 0-11.485-.83-13.512-2.115-.871-.549-.986-1.08-.935-1.428.345-2.204 8.059-3.394 15.14-3.394 6.094 0 11.37.812 13.444 2.069.701.426 1.054.91 1.01 1.4-.182 2.253-7.94 3.468-15.147 3.468Zm.693-5.83c-7.968 0-13.077 1.39-13.231 2.388-.032.185.115.378.44.581 1.334.845 5.686 1.753 12.098 1.753 8.078 0 13.155-1.403 13.238-2.41.012-.185-.15-.382-.487-.586-1.37-.83-5.73-1.725-12.058-1.725Z"/><path fill="#fff" d="M1195.84 1320.396c8.801 0 14.662-1.722 13.105-3.828-1.542-2.084-9.788-3.759-18.431-3.759s-14.538 1.675-13.153 3.76c1.399 2.105 9.678 3.827 18.479 3.827Z"/><path fill="#517496" d="M1195.84 1320.95c-9.307 0-17.817-1.839-19.373-4.182a1.428 1.428 0 0 1 .435-2.044c1.81-1.522 7.025-2.467 13.611-2.467 9.132 0 17.615 1.799 19.31 4.094a1.415 1.415 0 0 1-.321 2.092c-1.766 1.545-7.001 2.506-13.662 2.506Zm-5.327-7.586c-6.68 0-10.858.998-12.035 1.987-.392.332-.463.655-.221 1.019 1.112 1.677 8.443 3.472 17.583 3.472 6.748 0 10.922-1.007 12.062-2.008a.69.69 0 0 0 .162-1.048c-1.223-1.652-8.565-3.422-17.55-3.422Z"/><path fill="#fff" d="M960.372 1425.286c10.987 0 19.483-2.681 18.981-5.951-.495-3.23-9.6-5.82-20.343-5.82s-19.249 2.59-18.997 5.82c.255 3.27 9.371 5.951 20.359 5.951Z"/><path fill="#517496" d="M960.371 1425.84c-11.666 0-21.028-2.847-21.313-6.481-.088-1.09.685-2.156 2.225-3.088 3.378-2.041 10.17-3.31 17.726-3.31 11.397 0 20.75 2.78 21.297 6.325.17 1.105-.542 2.197-2.059 3.154-3.319 2.098-10.17 3.4-17.876 3.4Zm-1.362-11.77c-7.053 0-13.314 1.135-16.34 2.966-1.192.716-1.762 1.483-1.703 2.273.234 2.94 9.12 5.424 19.405 5.424 7.077 0 13.544-1.193 16.466-3.04 1.16-.732 1.683-1.51 1.56-2.311-.44-2.88-9.318-5.312-19.388-5.312Z"/><path fill="#1d1d1b" d="m826.149 1310.755 10.462-58.942H587.722l-2.802 3.18h235.461l-12.346 55.762h18.114zM1261.656 1310.755l-51.746-58.942H961.026l.554 3.18h235.456l46.506 55.762h18.114zM801.738 1448.285l17.753-100.017h-.041v-.002H502.73l-4.55 5.165h300.407l-21 94.854h24.151zM1382.396 1448.285l-87.807-100.017h-.035l-.001-.002h-316.72l.9 5.165h300.402l79.11 94.854h24.151z" opacity=".3" style="mix-blend-mode:overlay"/><path fill="#fff" d="m977.828 1348.268 17.427 100.017h387.141l-6.604-7.522h-358.027l-20.177-92.495h-19.76zM502.729 1348.268l-88.132 100.017h387.134l1.335-7.522h-358.02l77.444-92.495h-19.761zM961.021 1251.813l10.27 58.942h.038v.001h290.328l-3.728-4.246h-269.45l-11.931-54.697h-15.527zM587.722 1251.813l-51.937 58.942h.032l-.001.001h290.328l.754-4.246H557.453l45.796-54.697h-15.527z" opacity=".3" style="mix-blend-mode:overlay"/><path fill="#1d1d1b" d="M1162.425 1293.199c2.006-.945 2.784-2.057 1.978-3.248-2.243-3.317-15.937-5.97-30.54-5.97a91.618 91.618 0 0 0-13.625.914c3.745-1.66 11.392-2.749 20.791-2.749 14.534 0 28.212 2.629 30.504 5.913 1.499 2.148-2.228 4.051-9.108 5.14ZM1150.314 1275.068c1.982-.86 2.757-1.872 2.023-2.957-2.044-3.023-15.04-5.435-28.99-5.435a93.537 93.537 0 0 0-13.04.826c3.623-1.505 10.955-2.5 19.936-2.5 13.885 0 26.867 2.39 28.957 5.385 1.366 1.957-2.243 3.699-8.886 4.681ZM1080.97 1293.189c2.205-.935 3.212-2.047 2.652-3.238-1.56-3.317-14.665-5.97-29.31-5.97a94.52 94.52 0 0 0-13.77.914c4.045-1.66 11.916-2.749 21.316-2.749 14.575 0 27.669 2.629 29.284 5.913 1.056 2.148-3.059 4.06-10.172 5.13ZM1072.642 1275.068c2.119-.86 3.103-1.872 2.592-2.957-1.42-3.023-13.88-5.435-27.869-5.435a96.272 96.272 0 0 0-13.17.826c3.893-1.505 11.43-2.5 20.41-2.5 13.925 0 26.374 2.39 27.847 5.385.963 1.957-3.005 3.699-9.81 4.681Z" opacity=".3"/><path fill="#fff" d="M1041.512 1265.82c-2.145.822-3.209 1.8-2.81 2.86 1.133 3.015 13.665 5.502 27.898 5.502a94.053 94.053 0 0 0 13.37-.865c-3.832 1.575-11.488 2.624-20.736 2.624-14.299 0-26.84-2.51-27.918-5.554-.687-1.937 3.447-3.619 10.196-4.567ZM1048.214 1283.052c-2.273.9-3.368 1.972-2.931 3.134 1.244 3.309 14.42 6.03 29.335 6.03a95.211 95.211 0 0 0 13.996-.94c-3.984 1.72-11.984 2.871-21.677 2.871-14.989 0-28.175-2.747-29.36-6.088-.752-2.125 3.544-3.977 10.637-5.007ZM1117.324 1265.829c-1.982.813-2.844 1.79-2.227 2.85 1.756 3.016 14.76 5.503 29.033 5.503a89.268 89.268 0 0 0 13.152-.865c-3.468 1.575-10.907 2.624-20.155 2.624-14.34 0-27.358-2.51-29.064-5.554-1.086-1.937 2.697-3.627 9.26-4.558ZM1127.53 1283.052c-2.045.9-2.919 1.972-2.242 3.134 1.925 3.309 15.62 6.03 30.578 6.03a90.222 90.222 0 0 0 13.759-.94c-3.587 1.72-11.35 2.871-21.043 2.871-15.03 0-28.74-2.747-30.613-6.088-1.191-2.125 2.723-3.977 9.562-5.007Z" opacity=".3"/><path fill="#1d1d1b" d="M1245.186 1417.51c2.376-1.631 3.089-3.549 1.702-5.6-3.846-5.687-22.44-10.216-41.497-10.216a88.836 88.836 0 0 0-17.572 1.559c4.506-2.827 14.219-4.678 26.468-4.678 18.94 0 37.496 4.473 41.415 10.089 2.574 3.688-1.779 6.966-10.516 8.846ZM1224.57 1386.622c2.348-1.443 3.09-3.14 1.862-4.956-3.409-5.041-20.75-9.046-38.708-9.046a90.981 90.981 0 0 0-16.614 1.37c4.343-2.496 13.557-4.14 25.103-4.14 17.853 0 35.163 3.957 38.64 8.939 2.28 3.267-1.932 6.184-10.283 7.833ZM1138.1 1417.493c2.72-1.614 3.828-3.532 2.864-5.582-2.674-5.688-20.278-10.217-39.391-10.217a92.865 92.865 0 0 0-17.838 1.559c5.034-2.827 15.128-4.678 27.378-4.678 18.994 0 36.573 4.473 39.335 10.089 1.813 3.688-3.207 6.983-12.348 8.829ZM1123.912 1386.622c2.593-1.443 3.686-3.14 2.832-4.956-2.37-5.041-18.835-9.046-36.844-9.046a94.74 94.74 0 0 0-16.845 1.37c4.806-2.496 14.36-4.14 25.905-4.14 17.904 0 34.347 3.957 36.797 8.939 1.607 3.267-3.206 6.184-11.845 7.833Z" opacity=".3"/><path fill="#fff" d="M1082.243 1371.202c-2.646 1.361-3.878 2.983-3.216 4.743 1.89 5.026 18.473 9.189 36.904 9.189a92.01 92.01 0 0 0 17.157-1.45c-4.677 2.642-14.417 4.403-26.41 4.403-18.543 0-35.146-4.213-36.948-9.3-1.143-3.223 3.958-6.015 12.513-7.585ZM1093.471 1400.113c-2.827 1.533-4.095 3.36-3.35 5.344 2.132 5.67 19.858 10.354 39.45 10.354a92.967 92.967 0 0 0 18.2-1.62c-4.896 2.967-15.198 4.96-27.951 4.96-19.72 0-37.468-4.746-39.503-10.488-1.289-3.636 4.055-6.797 13.154-8.55ZM1179.783 1371.216c-2.373 1.347-3.271 2.969-2.247 4.729 2.926 5.026 20.315 9.189 38.8 9.189a86.229 86.229 0 0 0 16.805-1.45c-4.08 2.642-13.457 4.403-25.45 4.403-18.596 0-36.015-4.213-38.866-9.3-1.807-3.223 2.71-6.029 10.958-7.571ZM1196.909 1400.113c-2.458 1.533-3.349 3.36-2.194 5.344 3.3 5.67 21.936 10.354 41.585 10.354a86.87 86.87 0 0 0 17.809-1.62c-4.229 2.967-14.12 4.96-26.873 4.96-19.775 0-38.446-4.746-41.665-10.488-2.038-3.636 2.654-6.797 11.338-8.55Z" opacity=".3"/><path fill="#1d1d1b" d="M696.998 1417.51c4.097-1.631 6.833-3.549 7.61-5.6 2.157-5.687-11.655-10.216-30.714-10.216a116.501 116.501 0 0 0-19.216 1.559c7.49-2.827 19.156-4.678 31.405-4.678 18.94 0 32.775 4.473 30.767 10.089-1.32 3.688-9.131 6.966-19.852 8.846ZM708.982 1386.622c3.87-1.443 6.405-3.14 7.093-4.956 1.91-5.041-11.204-9.046-29.162-9.046a117.18 117.18 0 0 0-18.059 1.37c6.977-2.496 17.927-4.14 29.473-4.14 17.853 0 30.985 3.957 29.204 8.939-1.168 3.267-8.458 6.184-18.55 7.833ZM589.93 1417.493c4.423-1.614 7.555-3.532 8.755-5.582 3.329-5.688-9.496-10.217-28.608-10.217a121.24 121.24 0 0 0-19.484 1.559c8.018-2.827 20.066-4.678 32.316-4.678 18.994 0 31.852 4.473 28.686 10.089-2.08 3.688-10.577 6.983-21.666 8.829ZM608.324 1386.622c4.116-1.443 7-3.14 8.062-4.956 2.95-5.041-9.287-9.046-27.296-9.046a121.557 121.557 0 0 0-18.29 1.37c7.44-2.496 18.728-4.14 30.274-4.14 17.904 0 30.17 3.957 27.362 8.939-1.842 3.267-9.733 6.184-20.112 7.833Z" opacity=".3"/><path fill="#fff" d="M582.929 1371.202c-4.082 1.361-7.026 2.983-8.222 4.743-3.415 5.026 8.775 9.189 27.207 9.189a119.158 119.158 0 0 0 18.686-1.45c-7.465 2.642-19.064 4.403-31.057 4.403-18.543 0-30.7-4.213-27.133-9.3 2.26-3.223 10.307-6.015 20.519-7.585ZM563.643 1400.113c-4.445 1.533-7.641 3.36-8.99 5.344-3.852 5.67 8.93 10.354 28.522 10.354a121.988 121.988 0 0 0 19.91-1.62c-8.028 2.967-20.432 4.96-33.185 4.96-19.719 0-32.46-4.746-28.435-10.488 2.55-3.636 11.229-6.797 22.178-8.55ZM680.454 1371.216c-3.795 1.347-6.405 2.969-7.238 4.729-2.379 5.026 10.617 9.189 29.101 9.189a112.366 112.366 0 0 0 18.335-1.45c-6.868 2.642-18.104 4.403-30.096 4.403-18.596 0-31.568-4.213-29.051-9.3 1.596-3.223 9.074-6.029 18.949-7.571ZM667.081 1400.113c-4.075 1.533-6.895 3.36-7.834 5.344-2.684 5.67 11.008 10.354 30.656 10.354a114.765 114.765 0 0 0 19.52-1.62c-7.36 2.967-19.354 4.96-32.107 4.96-19.775 0-33.438-4.746-30.596-10.488 1.8-3.636 9.827-6.797 20.361-8.55Z" opacity=".3"/><path fill="#1d1d1b" d="M745.439 1293.197c3.003-.944 4.954-2.056 5.406-3.248 1.257-3.316-9.636-5.97-24.24-5.97a112.832 112.832 0 0 0-14.588.915c5.496-1.66 14.292-2.749 23.691-2.749 14.534 0 25.437 2.628 24.263 5.913-.768 2.148-6.504 4.05-14.532 5.14ZM752.463 1275.067c2.89-.86 4.734-1.872 5.145-2.958 1.146-3.022-9.305-5.434-23.254-5.434a113.918 113.918 0 0 0-13.912.826c5.212-1.505 13.593-2.5 22.573-2.5 13.886 0 24.345 2.39 23.275 5.385-.7 1.957-6.147 3.699-13.827 4.681ZM663.994 1293.188c3.192-.935 5.373-2.047 6.07-3.239 1.941-3.316-8.363-5.97-23.008-5.97a116.113 116.113 0 0 0-14.736.915c5.797-1.66 14.817-2.749 24.217-2.749 14.575 0 24.895 2.628 23.043 5.913-1.21 2.148-7.344 4.06-15.586 5.13ZM674.791 1275.067c3.026-.86 5.08-1.872 5.715-2.958 1.769-3.022-8.146-5.434-22.134-5.434a116.993 116.993 0 0 0-14.042.826c5.482-1.505 14.068-2.5 23.048-2.5 13.925 0 23.852 2.39 22.164 5.385-1.103 1.957-6.909 3.699-14.751 4.681Z" opacity=".3"/><path fill="#fff" d="M653.423 1265.82c-3.014.821-5.109 1.799-5.829 2.858-2.049 3.016 7.859 5.503 22.091 5.503a114.967 114.967 0 0 0 14.283-.865c-5.495 1.575-14.257 2.624-23.505 2.624-14.299 0-24.19-2.51-22.057-5.554 1.358-1.937 7.267-3.619 15.017-4.567ZM641.938 1283.05c-3.224.901-5.45 1.973-6.24 3.134-2.247 3.31 8.057 6.03 22.972 6.03a117.257 117.257 0 0 0 14.988-.94c-5.8 1.72-15.015 2.872-24.708 2.872-14.988 0-25.275-2.747-22.933-6.088 1.49-2.125 7.74-3.978 15.92-5.008ZM729.225 1265.828c-2.84.813-4.734 1.79-5.235 2.85-1.428 3.016 8.952 5.503 23.225 5.503a109.546 109.546 0 0 0 14.064-.865c-5.13 1.575-13.676 2.624-22.924 2.624-14.34 0-24.708-2.51-23.202-5.554.959-1.937 6.525-3.627 14.072-4.558ZM721.254 1283.05c-2.996.901-5.001 1.973-5.55 3.134-1.567 3.31 9.256 6.03 24.214 6.03a111.58 111.58 0 0 0 14.75-.94c-5.401 1.72-14.38 2.872-24.072 2.872-15.031 0-25.842-2.747-24.188-6.088 1.051-2.125 6.92-3.978 14.846-5.008Z" opacity=".3"/><path fill="#fff" d="m898.674 1328.701 73.63-12.133 4.353 24.98-77.983-12.847zM898.674 1328.701l-48.377-17.941h96.781l-48.404 17.941zM898.674 1328.701l-78.027 12.857 4.436-24.981 73.591 12.124zM898.674 1328.701l52.775 19.571H845.871l52.803-19.571z" opacity=".3" style="mix-blend-mode:overlay"/><path fill="#f9a832" d="M354.977 1463.411h1088.851v43.968H354.977z"/><path fill="#517496" d="M1444.773 1507.925H354.03v-45.061h1090.743Zm-1088.85-1.095H1442.88v-42.872H355.922Z"/><path fill="#1d1d1b" d="M1443.828 1463.411v43.967H964.75l61.598-43.967h417.48zM992.934 1463.411l-61.598 43.967H759.762l61.599-43.967h171.573zM772.617 1463.411l-61.597 43.967h-57.097l61.597-43.967h57.097zM460.248 1463.411l-61.598 43.967h-43.673v-9.585l48.174-34.382h57.097zM506.072 1463.411l-61.599 43.967h-28.547l61.597-43.967h28.549z" opacity=".3" style="mix-blend-mode:overlay"/><path fill="#1d1d1b" d="M1443.828 1463.41H1279.39c-6.286-5.226-13.017-10.265-20.073-15.116a328.105 328.105 0 0 0-11.395-7.523q-9.977-6.258-20.723-12.14c-7.218-3.985-14.76-7.852-22.506-11.578v-.024a535.178 535.178 0 0 0-19.423-8.976v-.024c-17.884-7.945-36.822-15.398-56.57-22.546 0-.023-.041-.023-.041-.023-.73-.281-1.5-.54-2.27-.82h-.041q-17.032-6.153-34.794-12c-.892-.305-1.784-.586-2.676-.89-1.095-.352-2.19-.727-3.284-1.079q-13.017-4.254-26.197-8.343a1562.089 1562.089 0 0 0-29.603-8.906 1295.458 1295.458 0 0 0-17.964-5.156q-17.701-4.992-35.645-9.68h-.04q-27.373-7.136-55.232-13.546c-1.297-.305-2.554-.61-3.852-.891a215.818 215.818 0 0 0-3.771-.867q-29.38-6.644-59.206-12.515a.225.225 0 0 0-.12-.024q-13.384-2.637-26.887-5.11h-.04a2203.98 2203.98 0 0 0-17.194-3.093q-14.113-2.46-28.265-4.757c-10.949-1.758-21.978-3.47-33.01-5.063v-.023c-.404-.047-.85-.117-1.256-.164-.933-.14-1.906-.281-2.88-.422q-13.989-2.004-28.02-3.844-4.562-.632-9.125-1.195h-.04q-48.236-6.152-97.121-10.289-13.017-1.09-26.074-2.039c-5.191-.398-10.382-.75-15.573-1.101q-14.537-.95-29.075-1.735l24.939-25.92h670.075Z" opacity=".6" style="mix-blend-mode:overlay"/></g></svg>