<svg xmlns="http://www.w3.org/2000/svg" viewBox="0 0 2800 1900"><g data-name="Layer 1"><ellipse cx="1344.05" cy="1754.756" opacity=".15" rx="418.549" ry="86.238"/><path fill="#231c2d" d="M1071.401 553.725s-74.775 220.633-4.385 304.885 389.958 38.056 423.423-9.189-22.183-264.491-66.924-302.373-352.114 6.677-352.114 6.677Z"/><path fill="#c47c62" d="M1324.382 676.053c1.34-2.51 7.505-73.852 7.505-73.852l-185.845-4.404 3.216 96.31-5.858 73.68 160.302 37.874s47.562-59.012 45.8-66.059-25.12-63.549-25.12-63.549Z"/><path fill="#e5a488" d="M1085.382 978.167a440.867 440.867 0 0 0-37.393 28.018 403.425 403.425 0 0 0-38.508 36.809 364.148 364.148 0 0 0-68.253 106.867c-30.514 73.776-26.132 133.052-26.132 133.052l-96.35 11.208c-22.787-77.76-25.522-147.66-15.961-209.352 10.888-70.271 37.738-129.92 69.102-178.44a548.442 548.442 0 0 1 64.322-81.053c46.476-48.494 86.684-73.405 86.684-73.405s246.24 103.07 62.49 226.296Z"/><path fill="#ffbb10" d="m915.096 1282.913-96.35 11.208c-22.787-77.76-25.522-147.66-15.961-209.352 31.019 6.161 88.303 22.68 138.443 65.092-30.514 73.776-26.132 133.052-26.132 133.052ZM1047.99 1006.185a403.425 403.425 0 0 0-38.509 36.809c-31.072-108.01-95.925-132.681-137.594-136.665a548.442 548.442 0 0 1 64.322-81.053c83.045 24.433 105.646 125.086 111.78 180.91Z"/><path d="M1085.382 978.167a440.867 440.867 0 0 0-37.393 28.018 403.425 403.425 0 0 0-38.508 36.809 364.148 364.148 0 0 0-68.253 106.867c-30.514 73.776-26.132 133.052-26.132 133.052l-61.162 7.118c-12.19-98.953 25.203-241.141 114.197-343.228 60.657-69.554 75.503-139.135 77.601-183.91 56.461 29.69 187.787 115.923 39.65 215.274Z" style="mix-blend-mode:soft-light" opacity=".3"/><path fill="#e5a488" d="M1531.22 996.093a440.851 440.851 0 0 1 37.394 28.018 403.439 403.439 0 0 1 38.508 36.81 364.15 364.15 0 0 1 68.252 106.866c30.515 73.776 26.133 133.053 26.133 133.053l96.35 11.207c22.787-77.76 25.522-147.66 15.961-209.352-10.888-70.271-37.738-129.919-69.102-178.44a548.445 548.445 0 0 0-64.322-81.053c-46.476-48.494-86.683-73.404-86.683-73.404s-246.24 103.069-62.49 226.295Z"/><path fill="#ffbb10" d="m1701.507 1300.84 96.35 11.207c22.787-77.76 25.522-147.66 15.961-209.352-31.019 6.161-88.303 22.68-138.443 65.092 30.514 73.776 26.132 133.053 26.132 133.053ZM1568.614 1024.111a403.439 403.439 0 0 1 38.508 36.81c31.072-108.01 95.925-132.682 137.594-136.665a548.445 548.445 0 0 0-64.322-81.054c-83.045 24.433-105.646 125.086-111.78 180.91Z"/><path d="M1531.22 996.093a440.851 440.851 0 0 1 37.394 28.018 403.439 403.439 0 0 1 38.508 36.81 364.15 364.15 0 0 1 68.252 106.866c30.515 73.776 26.133 133.053 26.133 133.053l61.162 7.117c12.19-98.953-25.203-241.141-114.197-343.228-60.657-69.554-75.503-139.134-77.601-183.91-56.461 29.691-187.787 115.923-39.65 215.274Z" style="mix-blend-mode:soft-light" opacity=".3"/><path fill="#ed9c1b" d="M1286.43 1734.824s49.012-5.498 86.378 5.879 80.609 18.36 76.31-21.498c0 0 16.674 37.538-22.482 54.233s-67.844 8.98-84.619 4.886c-14.212-3.47-36.106-2.192-53.645-3.87a8.39 8.39 0 0 1-7.402-9.89Z"/><path d="M1288.376 1774.464c17.547 1.668 39.436.402 53.647 3.854 16.769 4.113 45.447 11.823 84.625-4.89 35.351-15.072 25.169-47.116 22.839-53.214 1.207 3.595 4.2 16.08-6.961 29.483-13.203 15.907-34.518 20.222-82.238 15.907-41.594-3.768-56.782-20.394-25.256-31.382a293.774 293.774 0 0 0-48.612.604l-5.436 29.743a8.388 8.388 0 0 0 7.392 9.895Z" style="mix-blend-mode:soft-light" opacity=".3"/><path fill="#ed9c1b" d="M1216.21 1714.688s-49.012-5.497-86.378 5.88-80.609 18.36-76.31-21.498c0 0-16.674 37.538 22.482 54.233s67.844 8.98 84.618 4.886c14.213-3.47 36.107-2.192 53.645-3.871a8.39 8.39 0 0 0 7.403-9.89Z"/><path d="M1214.264 1754.329c-17.547 1.668-39.437.402-53.647 3.854-16.77 4.113-45.447 11.822-84.625-4.89-35.352-15.073-25.169-47.116-22.839-53.214-1.208 3.595-4.2 16.079 6.961 29.483 13.203 15.907 34.518 20.222 82.238 15.907 41.594-3.768 56.781-20.394 25.256-31.382a293.774 293.774 0 0 1 48.611.604l5.437 29.743a8.388 8.388 0 0 1-7.392 9.895Z" style="mix-blend-mode:soft-light" opacity=".3"/><path fill="#8d32ce" d="M1479.488 1603.79c-21.055 51.777-152.107 153.719-203.883 144.025-51.776-9.722-153.69-53.416-171.494-105.192-9.895-28.793 1.553-144.916 13.692-242.399q1.165-9.406 2.33-18.524c1.15-9.09 2.33-17.92 3.451-26.435a6151.092 6151.092 0 0 1 10.442-75.075c2.215-14.987 3.567-23.817 3.567-23.817 3.94-6.501 7.536-12.168 10.816-17.115 29.943-45.276 33.366-30.26 33.366-30.26l137.984 12.77 65.21 6.041s1.495 4.2 4.141 11.765c7.91 22.695 26.061 75.565 44.212 134.503 4.17 13.49 8.312 27.269 12.339 41.105 1.007 3.423 2.013 6.846 2.992 10.269 22.523 78.354 40.184 155.3 30.835 178.34Z"/><path d="M1275.059 1333.059c66.705 117.762 166.748 192.435 203.595 217.316-1.726-10.93-4.084-22.925-6.903-35.725-32.85-43.981-110.226-140.487-201.007-205.322 0 0 103.063 59.456 184.151 138.271a2034.258 2034.258 0 0 0-6.242-22.148c-.979-3.423-1.985-6.846-2.992-10.27a2589.959 2589.959 0 0 0-12.34-41.104c-18.15-58.938-36.3-111.808-44.21-134.503-2.647-7.565-4.143-11.765-4.143-11.765l-65.209-6.04-137.984-12.772s-3.423-15.015-33.367 30.26c-3.279 4.948-6.875 10.615-10.815 17.116 0 0-1.352 8.83-3.567 23.817a6151.092 6151.092 0 0 0-10.442 75.075c-1.121 8.514-2.3 17.345-3.451 26.435q-1.165 9.104-2.33 18.524a3477.489 3477.489 0 0 0-3.71 30.692c16.855-30.347 43.808-70.243 81.172-100.014 0 0-6.299 104.185-90.176 186.336-1.323 14.756-2.417 28.966-3.221 42.227 28.102-25.802 68.977-75.248 89.083-156.307 0 0 19.761 213.98-82.986 248.238 25.428 47.864 118.827 87.243 167.64 96.419 51.23 9.579 180.01-90.062 203.164-142.327-155.357 17.748-203.71-272.43-203.71-272.43Zm9.722 114.339s39.897 193.068 172.587 176.902c0 0-167.208 155.329-172.587-176.902Z" style="mix-blend-mode:soft-light" opacity=".3"/><path fill="#ce3e3e" d="M1448.653 1425.45c-139.71-131.338-210.04-141.924-210.04-141.924-60.29 27.93-98.834 79.016-120.81 116.698q1.165-9.406 2.33-18.524c1.15-9.09 2.33-17.92 3.451-26.435a6151.092 6151.092 0 0 1 10.442-75.075c2.215-14.987 3.567-23.817 3.567-23.817 3.94-6.501 7.536-12.168 10.815-17.115l91.644 18.812 79.707-36.301 42.082-19.157 22.034 19.876s.144.374.374 1.064c.058.173.143.374.23.604.316.892.776 2.186 1.381 3.826.949 2.675 2.243 6.3 3.854 10.758-.2.259-.402.546-.604.834 7.91 22.695 26.061 75.565 44.212 134.503 4.17 13.49 8.312 27.269 12.339 41.105 1.007 3.423 2.013 6.846 2.992 10.269ZM1458.634 1432.325c-.431-1.208-.863-2.416-1.294-3.595v-.058c.431 1.208.863 2.417 1.294 3.653Z"/><path d="M1448.653 1425.45c-139.71-131.338-210.04-141.924-210.04-141.924-60.29 27.93-98.834 79.016-120.81 116.698q1.165-9.406 2.33-18.524c35.236-61.96 81.806-88.94 81.806-88.94-3.74.115-7.249.143-10.643.086h-.115c-29.196-.46-46.829-6.645-57.155-12.656 2.215-14.987 3.567-23.817 3.567-23.817 3.94-6.501 7.536-12.168 10.815-17.115l91.644 18.812 79.707-36.301 42.082-19.157 22.034 19.876s.144.374.374 1.064c.058.173.143.374.23.604.316.892.776 2.186 1.381 3.826.949 2.675 2.243 6.3 3.854 10.758-.2.259-.402.546-.604.834-7.393 9.636-31.9 33.683-95.153 44.758-.173.028-.374.057-.547.086a347.027 347.027 0 0 1-14.18 2.129s81.863 28.189 166.431 128.635c1.007 3.423 2.013 6.846 2.992 10.269Z" style="mix-blend-mode:soft-light" opacity=".3"/><path fill="#ffbb10" d="M1448.653 1425.45c-139.71-131.338-210.04-141.924-210.04-141.924-60.29 27.93-98.834 79.016-120.81 116.698q1.165-9.406 2.33-18.524c1.15-9.09 2.33-17.92 3.451-26.435 13.463-20.221 34.978-44.93 67.712-62.419q4.272-2.287 8.802-4.401c3.05-1.438 6.184-2.761 9.435-4.056.259-.115.518-.201.806-.316 1.495-.575 3.02-1.15 4.544-1.697a161.06 161.06 0 0 1 5.235-1.812 57.74 57.74 0 0 1 3.625-1.094 86.79 86.79 0 0 1 6.012-1.438c.747-.144 1.524-.287 2.272-.431 19.244-3.308 40.04-.374 61.383 6.817 48.181 16.28 98.95 54.106 139.912 89.66 4.17 13.49 8.312 27.268 12.339 41.104 1.007 3.423 2.013 6.846 2.992 10.269ZM1458.634 1432.325c-.431-1.208-.863-2.416-1.294-3.595v-.058c.431 1.208.863 2.417 1.294 3.653Z"/><path d="M1448.653 1425.45c-139.71-131.338-210.04-141.924-210.04-141.924-60.29 27.93-98.834 79.016-120.81 116.698q1.165-9.406 2.33-18.524c35.236-61.96 81.806-88.94 81.806-88.94-3.74.115-7.249.143-10.643.086h-.115a171.27 171.27 0 0 1 8.917-4.401c3.05-1.438 6.184-2.761 9.435-4.056.259-.115.518-.201.806-.316 1.495-.575 3.02-1.15 4.544-1.697a161.06 161.06 0 0 1 5.235-1.813 57.74 57.74 0 0 1 3.625-1.093 86.79 86.79 0 0 1 6.012-1.438c.747-.144 1.524-.287 2.272-.431 19.704-3.567 40.587-.575 61.93 6.73-.173.03-.374.058-.547.087a347.027 347.027 0 0 1-14.18 2.129s81.863 28.189 166.431 128.635c1.007 3.423 2.013 6.846 2.992 10.269Z" style="mix-blend-mode:soft-light" opacity=".3"/><path fill="#ce3e3e" d="m1208.493 1193.069-20.44 562.27s11.602 10.71 25.933 3.895l.387 12.164s16.958 10.161 44.268 2.18l-1.567-24.064s13.959 6.876 33.927-4.777l-34.828-560.413Z"/><path d="m1288.138 1746.307-39.035-504.159 15.11 509.16a23.009 23.009 0 0 1-7.148-1.793l1.572 24.073c-1.939.56-3.85 1.059-5.678 1.444l-22.227-540.539-3.78 541.13a41.278 41.278 0 0 1-12.58-4.222l-.377-12.18a21.873 21.873 0 0 1-5.833 1.886l6.362-518.207-19.969 516.479a25.233 25.233 0 0 1-6.495-4.036l20.428-562.267 47.686-8.757 34.821 560.431c-.971.57-1.914 1.08-2.857 1.557Z" style="mix-blend-mode:soft-light" opacity=".3"/><path fill="#991d1d" d="M1213.986 1759.234q-1.237-67.709-.91-135.392c.103-45.123.686-90.239 1.361-135.353.829-45.111 1.76-90.221 3.168-135.323q1.938-67.655 5.465-135.284 1.251 67.709.923 135.391c-.106 45.124-.689 90.24-1.374 135.353-.839 45.112-1.77 90.221-3.18 135.323q-1.944 67.656-5.453 135.285ZM1257.074 1749.514q-4.22-66.484-6.876-133.01c-1.884-44.348-3.29-88.71-4.603-133.074-1.16-44.368-2.217-88.739-2.798-133.123q-1.045-66.572-.501-133.187 4.233 66.483 6.888 133.01c1.882 44.348 3.288 88.709 4.59 133.073 1.15 44.369 2.208 88.74 2.786 133.124q1.04 66.572.514 133.187Z"/><path fill="#ffbb10" d="M1144.564 1205.219s-10.42 29.572-6.958 51.164c0 0 107.02 73.944 247.365-28.583 0 0 4.06-41.174-15.572-59.268-16.353-15.071-224.835 36.687-224.835 36.687Z"/><path d="M1384.905 1208.773c-140.312 103.588-247.3 30.518-247.3 30.518a31.127 31.127 0 0 1-.231-1.587c.416-4.228 1.064-8.4 1.828-12.268a163.682 163.682 0 0 1 5.362-20.217s208.49-51.753 224.848-36.688c6.963 6.44 10.976 15.825 13.19 25.29a97.684 97.684 0 0 1 2.303 14.952Z" style="mix-blend-mode:soft-light" opacity=".3"/><path d="M1382.601 1193.82c-129.48 94.995-229.953 39.807-243.4 31.616a163.682 163.682 0 0 1 5.363-20.217s208.49-51.753 224.848-36.688c6.963 6.44 10.976 15.825 13.19 25.29Z" style="mix-blend-mode:soft-light" opacity=".3"/><path fill="#e5a488" d="M1454.366 1093.09c-54.16 59.568-70.416 120.949-70.416 120.949-149.834 68.602-241.913 0-241.913 0-83.045-90.266-86.656-270.798-86.656-270.798-64.991-75.824-32.495-191.364-32.495-191.364 15.534-18.968 45.045-32.993 71.651-42.477a418.425 418.425 0 0 1 54.721-15.294c95.69 122.762 175.124-18.053 175.124-18.053 28.66-6.547 58.429-5.215 87.33.787 98.562 20.428 187.08 94.903 187.08 94.903 12.629 110.117-90.267 261.764-144.426 321.347Z"/><path fill="#c47c62" d="M1531.991 793.403a339.441 339.441 0 0 1-17.394 65.2 297.3 297.3 0 0 1-13.668 31.164 222.213 222.213 0 0 1-17.678 29.42 173.783 173.783 0 0 1-22.765 26.321 124.984 124.984 0 0 1-29.127 20.246l-8.254 3.624c-2.83 1.02-5.707 1.94-8.568 2.904-2.896.84-5.866 1.441-8.81 2.13-2.957.66-5.782.835-8.682 1.273a142.912 142.912 0 0 1-17.359 1.683l-8.735.36c-2.914.16-5.814-.156-8.723-.214-23.357-.668-45.836-6.055-67.535-10.899-21.759-4.838-43.219-9.254-65.116-10.954-21.844-1.571-43.917-2.1-65.965.005-2.758.194-5.53.258-8.283.558l-8.257.967-16.542 1.935-33 5.267-.709.113-.351-.077a99.502 99.502 0 0 1-11.349-3.315 115.175 115.175 0 0 1-10.848-4.43c-7.028-3.357-13.714-7.708-18.886-13.44 5.872 5.027 12.895 8.187 20.014 10.694a111.597 111.597 0 0 0 10.904 3.106c3.658.843 7.441 1.54 11.044 2.024l-1.06.035c43.187-12.335 88.53-19.647 134.262-17.409 22.82 1.083 45.535 4.827 67.456 9.676 21.969 4.705 43.395 9.35 64.86 10.356 2.681.077 5.369.418 8.048.286l8.041-.255a128.856 128.856 0 0 0 16.045-1.393c2.634-.37 5.426-.515 7.933-1.067 2.505-.571 5.06-.95 7.552-1.599l7.405-2.254 7.214-2.902a110.934 110.934 0 0 0 26.358-17.18 164.113 164.113 0 0 0 22.284-23.311c13.428-17.108 24.645-36.261 34.114-56.302a462.146 462.146 0 0 0 24.13-62.346ZM1134.821 1059.236a63.686 63.686 0 0 1 4.071-17.745 72.706 72.706 0 0 1 37.597-40.848c11.667-5.556 24.55-8.021 37.211-8.523 12.589-.131 25.346 1.021 37.678 4.769a104.384 104.384 0 0 1 33.886 17.941 102.622 102.622 0 0 1 24.674 28.685 137.245 137.245 0 0 1 14.478 34.008 165.584 165.584 0 0 1 5.38 35.872c-3.897-11.407-7.84-22.565-12.784-33.177a168.324 168.324 0 0 0-17.476-29.73 103.246 103.246 0 0 0-52.831-38.253c-10.514-3.269-21.68-4.477-32.874-4.932a98.47 98.47 0 0 0-32.53 4.85c-20.74 7.1-37.741 24.72-46.48 47.083Z"/><path fill="#ffe812" d="M1195.298 922.476c-95.754-9.003-110.87-92.208-107.854-156.622a380.69 380.69 0 0 1 7.093-56.454 418.425 418.425 0 0 1 54.721-15.293c95.69 122.761 175.124-18.054 175.124-18.054 28.244-6.45 57.546-5.247 86.046.53.433.08.85.16 1.284.257 2.728 92.288-70.801 259.34-216.414 245.636Z"/><path fill="#ffbb10" d="M1410.428 676.583c-10.655 94.294-83.382 229.861-215.13 217.457-82.098-7.719-104.917-69.982-107.854-128.186a380.69 380.69 0 0 1 7.093-56.454 418.425 418.425 0 0 1 54.721-15.293c95.69 122.761 175.124-18.054 175.124-18.054 28.244-6.45 57.546-5.247 86.046.53Z"/><path d="M1454.366 1093.09c-54.16 59.568-70.416 120.949-70.416 120.949-149.834 68.602-241.913 0-241.913 0-.674-.738-1.348-1.476-2.006-2.23 78.038 20.636 157.023 21.054 174.418-52.379 36.556-154.359-150.299-150.299-150.299-150.299 147.587-54.16 207.17 90.731 207.17 90.731 5.409-131.347-153.01-131.347-238.302-124.575-43.76 3.466-65.424-1.251-76.144-6.66-1.3-15.822-1.493-25.386-1.493-25.386a153.608 153.608 0 0 1-21.407-32.705c44.243 40.231 121.318 28.404 143.72 24.136 28.436-5.424 94.775 5.408 188.203 9.468 93.427 4.076 83.96-121.848 83.96-121.848-222.609 32.833-342.61-54.801-387.72-99.22a288.29 288.29 0 0 1 32.4-13.672 418.425 418.425 0 0 1 54.721-15.293c95.69 122.761 175.124-18.054 175.124-18.054 28.66-6.547 58.429-5.215 87.33.787 98.562 20.428 187.08 94.903 187.08 94.903 12.629 110.117-90.267 261.764-144.426 321.347Z" style="mix-blend-mode:soft-light" opacity=".3"/><circle cx="1236.521" cy="1262.785" r="45.735" fill="#ffe812" transform="rotate(-80.783 1236.52 1262.785)"/><circle cx="1236.521" cy="1262.785" r="35.87" fill="#ffbb10"/><circle cx="1236.521" cy="1262.785" r="23.729" transform="rotate(-45 1236.52 1262.785)" style="mix-blend-mode:soft-light" opacity=".3"/><circle cx="1236.521" cy="1262.785" r="23.729" transform="rotate(-45 1236.52 1262.785)" style="mix-blend-mode:soft-light" opacity=".3"/><path fill="#ffbb10" d="M1805.363 1134.628h48.632v379.328h-48.632z" transform="rotate(-134.864 1829.68 1324.292)"/><path d="m1678.086 1440.846 268.862-267.587 34.306 34.47-16.729 16.65a62.288 62.288 0 0 1-27.192-11.819l-200.505 199.555c5.945 6.464 10.998 15.707 14.844 24.107l-39.28 39.094Z" style="mix-blend-mode:soft-light" opacity=".3"/><path d="m1678.086 1440.846 268.862-267.587 34.306 34.47-16.729 16.65a62.288 62.288 0 0 1-27.192-11.819l-200.505 199.555c5.945 6.464 10.998 15.707 14.844 24.107l-39.28 39.094Z" style="mix-blend-mode:soft-light" opacity=".3"/><path fill="#ffbb10" d="m1452.647 1746.809-93.944 48.567a5.065 5.065 0 0 1-6.802-6.88c16.086-30.084 52.028-96.878 53.358-95.542 1.38 1.386 35.308 33.247 48.539 45.668a5.06 5.06 0 0 1-1.151 8.187Z"/><path d="M1405.257 1692.958c1.372 1.378 35.317 33.249 48.539 45.675a5.057 5.057 0 0 1-1.136 8.174l-13.74 7.09c-14.976-14.066-33.29-31.273-34.297-32.284-1.037-1.042-22.803 38.735-40.043 70.714l-5.876 3.042a5.055 5.055 0 0 1-6.8-6.863c16.089-30.1 52.026-96.881 53.353-95.548Z" style="mix-blend-mode:soft-light" opacity=".3"/><path d="M1405.257 1692.958c1.372 1.378 35.317 33.249 48.539 45.675a5.057 5.057 0 0 1-1.136 8.174l-13.74 7.09c-14.976-14.066-33.29-31.273-34.297-32.284-1.037-1.042-22.803 38.735-40.043 70.714l-5.876 3.042a5.055 5.055 0 0 1-6.8-6.863c16.089-30.1 52.026-96.881 53.353-95.548Z" style="mix-blend-mode:soft-light" opacity=".3"/><ellipse cx="1709.996" cy="1442.264" fill="#d38905" rx="25.863" ry="38.483" transform="rotate(-44.864 1709.996 1442.264)"/><path d="M1682.84 1414.983c10.126-10.079 30.505-6.026 45.493 9.033a54.146 54.146 0 0 1 8.897 11.667c-21.49-25.33-38.844-15.467-22.942.878a115.826 115.826 0 0 1 22.326 33.463c-10.293 9.452-30.198 5.293-44.942-9.521-14.987-15.06-18.959-35.442-8.832-45.52Z" style="mix-blend-mode:soft-light" opacity=".3"/><ellipse cx="1677.447" cy="1472.372" fill="#e0990a" rx="44.849" ry="66.734" transform="rotate(-44.864 1677.447 1472.372)"/><path d="M1630.362 1425.067c17.557-17.473 52.876-10.45 78.872 15.67a91.537 91.537 0 0 1 19.891 29.33c-21.404-35.57-51.981-44.323-54.589-40.264-3.007 4.73 10.931 17.877 34.492 46.3 14.844 17.917 18.893 30.932 19.84 38.103a31.054 31.054 0 0 1-4.354 5.461c-17.557 17.473-52.86 10.466-78.857-15.654s-32.85-61.472-15.294-78.946Z" style="mix-blend-mode:soft-light" opacity=".3"/><path fill="#efa707" d="M1572.667 1425.313c20.942-20.844 70.865-4.631 111.484 36.18 40.633 40.828 56.593 90.812 35.65 111.655a28.06 28.06 0 0 1-3.246 2.774c-22.521 16.437-69.586-.12-108.237-38.955-38.652-38.836-54.985-85.978-38.44-108.421a28.037 28.037 0 0 1 2.789-3.234Z"/><ellipse cx="1643.216" cy="1502.234" rx="49.237" ry="103.964" transform="rotate(-44.864 1643.216 1502.234)" style="mix-blend-mode:soft-light" opacity=".3"/><ellipse cx="1451.62" cy="1697.128" fill="#e0990a" rx="44.849" ry="66.734" transform="rotate(-44.864 1451.62 1697.128)"/><path d="M1404.534 1649.826c17.556-17.473 52.875-10.45 78.872 15.67s32.835 61.456 15.279 78.93a30.931 30.931 0 0 1-7.93 5.697c-35.066-10.599-69.379-55.37-81.004-51.362-3.334 1.154-4.856 4.925-5.342 9.83-12.465-21.992-13.188-45.515.125-58.765Z" style="mix-blend-mode:soft-light" opacity=".3"/><ellipse cx="1478.632" cy="1666.052" fill="#efa707" rx="53.495" ry="104.288" transform="rotate(-44.864 1478.632 1666.052)"/><path d="M1405.053 1592.132a28.813 28.813 0 0 1 8.19-5.682l.015-.015c23.976-11.146 67.28 5.708 103.279 41.878 39.353 39.54 55.561 87.66 37.52 109.61l-.015.016a28.858 28.858 0 0 1-1.854 2.028c-20.942 20.843-70.85 4.646-111.484-36.18-40.618-40.813-56.593-90.813-35.651-111.655Z" style="mix-blend-mode:soft-light" opacity=".3"/><path d="m1413.243 1586.45.015-.015c23.976-11.146 67.28 5.708 103.279 41.878 39.353 39.54 55.561 87.66 37.52 109.61l-.015.016c-23.976 11.146-67.265-5.692-103.278-41.878-39.338-39.525-55.562-87.66-37.52-109.61Z" style="mix-blend-mode:soft-light" opacity=".3"/><ellipse cx="1565.43" cy="1580.427" fill="#ffbb10" rx="149.137" ry="179.937" transform="rotate(-44.864 1565.43 1580.427)"/><path d="M1438.488 1452.886c58.384-58.107 162.548-48.093 232.639 22.332 55.195 55.457 72.819 131.84 49.327 190.168-5.332-39.429-27.207-82.886-63.54-119.393-67.439-67.76-159.067-85.89-204.674-40.499-45.591 45.376-27.897 137.089 39.541 204.848q2.86 2.872 5.795 5.638a214.24 214.24 0 0 1-37.862-30.351c-70.091-70.425-79.61-174.636-21.226-232.743Z" style="mix-blend-mode:soft-light" opacity=".3"/><path d="M1438.488 1452.886c58.384-58.107 162.548-48.093 232.639 22.332 55.195 55.457 72.819 131.84 49.327 190.168-5.332-39.429-27.207-82.886-63.54-119.393-67.439-67.76-159.067-85.89-204.674-40.499-45.591 45.376-27.897 137.089 39.541 204.848q2.86 2.872 5.795 5.638a214.24 214.24 0 0 1-37.862-30.351c-70.091-70.425-79.61-174.636-21.226-232.743Z" style="mix-blend-mode:soft-light" opacity=".3"/><ellipse cx="1968.873" cy="1185.758" fill="#ffbb10" rx="28.878" ry="37.645" transform="rotate(-44.864 1968.873 1185.758)"/><path d="M1942.32 1159.08c11.306-11.253 32.36-8.421 47.013 6.301 10.734 10.785 15.071 24.948 12.187 36.175a47.483 47.483 0 0 0-7.36-9.509c-14.668-14.737-35.737-17.554-47.028-6.317a23.054 23.054 0 0 0-6.093 10.883c-7.824-13.285-7.757-28.537 1.281-37.533Z" style="mix-blend-mode:soft-light" opacity=".3"/><path d="M1942.32 1159.08c11.306-11.253 32.36-8.421 47.013 6.301 10.734 10.785 15.071 24.948 12.187 36.175a47.483 47.483 0 0 0-7.36-9.509c-14.668-14.737-35.737-17.554-47.028-6.317a23.054 23.054 0 0 0-6.093 10.883c-7.824-13.285-7.757-28.537 1.281-37.533Z" style="mix-blend-mode:soft-light" opacity=".3"/><ellipse cx="1545.722" cy="1642.925" fill="#ffe812" rx="64.437" ry="117.932" transform="rotate(-44.864 1545.722 1642.925)"/><path fill="#e5a488" d="M915.096 1282.913s43.565 27.898 45.557 46.82-5.975 22.906-5.975 22.906 9.959 22.906 8.963 35.852-20.914 15.935-20.914 15.935l-18.922-17.926s-58.758 11.95-75.689 6.971-34.856-39.836-34.856-39.836l5.486-59.514s35.855-23.17 96.35-11.208Z"/><path d="M963.643 1388.48a13.281 13.281 0 0 1-5.046 9.215c-5.763-13.226-32.426-41.483-41.456-45.68-10.092-4.673-19.042 4.675-19.042 4.675l25.708 29.797s-58.772 11.951-75.689 6.985c-16.943-4.993-34.87-39.836-34.87-39.836s80.92-1.992 88.41-8.711c7.463-6.719-3-44.829-8.233-50.06-4.594-4.569-41.907-8.579-75.184 4.594l.505-5.338s35.852-23.158 96.35-11.208c0 0 8.897 5.684 18.83 13.704-1.753 4.25-2.205 9.88-.532 17.315 5.02 22.548 17.9 27.195 27.142 27.408-1.408 9.056-5.87 11.287-5.87 11.287s9.96 22.919 8.977 35.852Z" style="mix-blend-mode:soft-light" opacity=".3"/><path fill="#e5a488" d="M1797.857 1312.047s39.687 23.91 43.422 36.608-50.044 59.755-50.044 59.755 12.697 18.673-2.988 22.407-61.248-38.466-61.248-38.466l-11.577 11.203s-38.467-16.058-33.612-40.707 19.697-62.007 19.697-62.007 58.158-10.463 96.35 11.207Z"/><path d="M1795.13 1426.164c-1.09 2.098-3.214 3.771-6.88 4.648-15.695 3.744-61.24-38.455-61.24-38.455l-11.58 11.207s-26.69-11.128-32.798-29.107c39.916-4.25 23.503-40.713 13.12-58.267 3.266-9.083 5.762-15.35 5.762-15.35s58.081-10.437 96.27 11.18c-1.778-.425-39.251-8.923-62.568 20.954-23.902 30.62 38.827 53.035 51.548 49.29 9.852-2.894 34.95-30.939 46.767-44.085 3.93 3.798 6.879 7.436 7.755 10.464 3.718 12.721-50.06 59.754-50.06 59.754s-23.159-27.248-33.968-26.504c-9.56.664 15.43 34.71 37.871 44.271Z" style="mix-blend-mode:soft-light" opacity=".3"/><path fill="#f9a832" d="M1320.47 184.179s-33.985-114.873-59.446-124.674-72.337 128.035-67.654 126.957 127.1-2.283 127.1-2.283Z"/><path d="M1193.363 186.445c4.704-1.072 127.117-2.263 127.117-2.263s-33.991-114.862-59.463-124.664a7.747 7.747 0 0 0-4.013-.407c12.764 26.682 34.943 92.79-55.408 97.15-6.216 17.663-9.69 30.53-8.233 30.184Z" style="mix-blend-mode:soft-light" opacity=".45"/><ellipse cx="1264.249" cy="429.184" fill="#f7c434" rx="233.52" ry="227.539"/><ellipse cx="1264.249" cy="429.184" rx="208.882" ry="203.531" style="mix-blend-mode:soft-light" opacity=".45"/><ellipse cx="1264.249" cy="429.184" rx="208.882" ry="203.531" style="mix-blend-mode:soft-light" opacity=".45"/><ellipse cx="1264.249" cy="429.184" rx="208.882" ry="203.531" style="mix-blend-mode:soft-light" opacity=".45"/><ellipse cx="1264.249" cy="429.184" rx="208.882" ry="203.531" style="mix-blend-mode:soft-light" opacity=".45"/><path fill="#f9a832" d="m1324.909 260.35 36.596-65.759s-23.153-25.092-105.308-25.092-102.32 23.362-102.32 23.362l27.633 62.297Z"/><path d="m1169.962 229.138 11.552 26.026 143.399 5.2L1358 200.895c-10.967-5.383-42.886-18.981-82.56-16.89l-8.206 32.026s-31.999-12.86-97.272 13.106Z" style="mix-blend-mode:soft-light" opacity=".45"/><path fill="#f9a832" d="M1382.418 309.668s-12.697-82.198-137.424-82.198-138.917 83.063-138.917 83.063Z"/><path fill="#f9a832" d="M1061.873 481.988a398.349 398.349 0 0 0 9.587 59.005c.531 2.123.85 3.261.85 3.261l16.49-35.502 26.635 4.276 273.84 44.055 3.265.523 27.06-15.967s73.93-242.236-114.665-281.122a274.106 274.106 0 0 0-55.634-5.26c-76.586 0-123.27 25.534-151.047 61.405-37.761 48.668-40.735 116.41-36.38 165.326Z"/><path d="M1061.873 481.988a398.349 398.349 0 0 0 9.587 59.005l9.267-34.056 34.708 6.091L1385 560.405l4.275-3.322 22.253-17.259s71.78-235.222-106.593-279.307a274.106 274.106 0 0 0-55.633-5.26c-76.586 0-123.27 25.534-151.047 61.405 51.04-30.55 139.363-65.313 230.208-17.567 0 0 38.851 59.99-17.925 116.504 0 0-159.783-75.957-248.664 66.389Z" style="mix-blend-mode:soft-light" opacity=".45"/><path fill="#e5a488" d="M1381.661 615.965c20.687 9.352 35.133 3.723 44.242-8.214 17.606-22.95 15.242-69.28-.85-76.264h-.027a8.425 8.425 0 0 0-.797-.308c-25.386-8.675-45.542 31.134-45.542 31.134s-58.262 25.964 2.974 53.652Z"/><path d="M1381.661 615.965c20.687 9.352 35.133 3.723 44.242-8.214-21.457 17.966-39.7-6.922-28.15-5.384 13.066 1.723 39.78-30.518 31.363-41.962-5.869-7.998-21.723.738-30.778 6.737-.027.031-.053.062-.08.062-3.877 2.584-6.48 4.645-6.48 4.645 5.365-27.38 21.962-36.978 33.248-40.362a8.425 8.425 0 0 0-.797-.308c-25.386-8.675-45.542 31.134-45.542 31.134s-58.262 25.964 2.974 53.652Z" style="mix-blend-mode:soft-light" opacity=".45"/><path fill="#c47c62" d="M1378.683 599.522a44.126 44.126 0 0 1 3.851-18.183 50.802 50.802 0 0 1 10.62-15.748 39.617 39.617 0 0 1 16.72-9.851 31.47 31.47 0 0 1 18.85.52c-5.998 2.036-11.4 3.428-16.13 6.329a62.144 62.144 0 0 0-12.876 9.688c-7.748 7.695-14.016 17.056-21.035 27.245Z"/><path fill="#e5a488" d="M1153.49 720.747c89.889 15.936 209.07 8.953 232.04-93.307a156.958 156.958 0 0 0 3.107-19.75c2.602-27.442-.823-60.698-12.03-100.753 0 0-15.375-41.931-59.67-71.188-27.458-18.15-66.016-31.41-118.888-26.765 0 0-52.287 0-121.013 63.16 0 0-.212 2.522-.557 6.798-1.647 19.658-6.639 76.356-11.127 95.307-5.47 23.073-28.892 125.733 88.137 146.498Z"/><ellipse cx="1240.487" cy="526.914" rx="29.46" ry="34.13" style="mix-blend-mode:soft-light" opacity=".45"/><ellipse cx="1240.487" cy="535.558" fill="#1b1723" rx="19.484" ry="22.572"/><ellipse cx="1231.885" cy="527.514" fill="#fff" rx="6.115" ry="7.084"/><path fill="#fff" d="M1242.132 536.679a3.13 3.13 0 1 1-3.096-3.587 3.369 3.369 0 0 1 3.096 3.587Z"/><ellipse cx="1114.873" cy="528.761" rx="22.34" ry="25.881" style="mix-blend-mode:soft-light" opacity=".45"/><ellipse cx="1114.873" cy="535.317" fill="#1b1723" rx="14.775" ry="17.117"/><ellipse cx="1108.35" cy="529.217" fill="#fff" rx="4.637" ry="5.372"/><ellipse cx="1113.773" cy="536.166" fill="#fff" rx="2.348" ry="2.72"/><path fill="#231c2d" d="M1131.844 519.393a13.918 13.918 0 0 0-.757-1.374 22.415 22.415 0 0 0-1.225-2.129 47.973 47.973 0 0 0-3.644-5.166q-.984-1.283-2.08-2.574a91.557 91.557 0 0 0-6.95-7.03c-15.055-13.61-33.797-22.04-33.797-22.04 7.515-14.866 27.696-1.773 27.696-1.773-4.294-4.134-15.273-6.536-15.96-6.688 12.428.525 21.76 3.467 28.566 6.996a46.726 46.726 0 0 1 11.167 7.88 36.19 36.19 0 0 1 4.164 4.762 12.538 12.538 0 0 1 1.02 1.568l-1.931 6.657 3.748-5.194a14.97 14.97 0 0 1 .123 5.615c.015.019-.007.035-.015.07-.999 6.368-5.29 11.808-5.956 12.644 7.969-8.012 8.903-14.984 8.903-14.984a11.202 11.202 0 0 1 .264 2.381c.054 10.424-13.336 20.379-13.336 20.379Z"/><path fill="#322a3f" d="M1124.138 508.15a91.557 91.557 0 0 0-6.95-7.03c6.671-9.793 7.306-18.055 6.505-23.505a46.726 46.726 0 0 1 11.167 7.88 32.05 32.05 0 0 1-10.722 22.655ZM1129.862 515.89a47.973 47.973 0 0 0-3.644-5.166c9.108-8.305 12.065-15.527 12.806-20.467a12.538 12.538 0 0 1 1.02 1.568l-1.931 6.657 3.748-5.194a14.97 14.97 0 0 1 .123 5.615c.015.019-.007.035-.015.07a36.903 36.903 0 0 1-12.107 16.917ZM1131.844 519.393a13.918 13.918 0 0 0-.757-1.374c8.868-7.51 12.559-14.436 14.093-19.005.054 10.424-13.336 20.379-13.336 20.379Z"/><path fill="#d33c3c" d="M1168.872 438.863s-20.262 57.783 1.196 57.181c0 0 19.589 3.377-1.196-57.18Z"/><path fill="#231c2d" d="M1215.515 508.021a17.013 17.013 0 0 1 1.231-1.447 27.3 27.3 0 0 1 1.967-2.229 57.512 57.512 0 0 1 5.544-5.22q1.467-1.275 3.064-2.528a106.961 106.961 0 0 1 9.823-6.546c20.846-12.224 44.536-17.156 44.536-17.156-4.65-20.066-31.225-9.902-31.225-9.902 6.013-3.793 19.215-3.618 20.043-3.61-14.363-2.847-25.825-1.908-34.551.449a53.354 53.354 0 0 0-14.875 6.392 42.725 42.725 0 0 0-6.031 4.585 15.152 15.152 0 0 0-1.583 1.608l.44 8.585-2.91-7.326a19.406 19.406 0 0 0-1.632 6.75c-.023.018-.001.044-.002.088-.55 7.973 2.916 15.748 3.455 16.945-6.99-11.912-6.207-20.598-6.207-20.598a14.423 14.423 0 0 0-.934 2.803c-2.832 12.58 9.847 28.357 9.847 28.357Z"/><path fill="#322a3f" d="M1227.321 496.598a106.961 106.961 0 0 1 9.823-6.546c-5.032-13.7-3.563-23.86-1.197-30.22a53.354 53.354 0 0 0-14.875 6.392 41.43 41.43 0 0 0 6.25 30.374ZM1218.714 504.345a57.512 57.512 0 0 1 5.543-5.22c-8.217-12.586-9.681-22.14-9.216-28.316a15.152 15.152 0 0 0-1.583 1.608l.44 8.585-2.91-7.326a19.406 19.406 0 0 0-1.632 6.75c-.023.018-.001.044-.002.088a47.064 47.064 0 0 0 9.36 23.831ZM1215.515 508.021a17.013 17.013 0 0 1 1.231-1.447c-8.153-11.559-10.536-20.96-11.078-26.91-2.832 12.58 9.847 28.357 9.847 28.357Z"/><ellipse cx="1166.887" cy="587.84" fill="#f2baa7" rx="18.405" ry="34.917" transform="rotate(-89.829 1166.887 587.84)"/><path fill="#c47c62" d="M1201.788 587.331c1.304 3.655-.344 8.095-2.857 11.21a29.706 29.706 0 0 1-9.438 7.335 52.78 52.78 0 0 1-45.304-.114 29.67 29.67 0 0 1-9.402-7.388c-2.494-3.134-4.12-7.583-2.795-11.232a12.802 12.802 0 0 0 5.966 7.897 33.623 33.623 0 0 0 9.026 3.905 78.674 78.674 0 0 0 39.76.122 33.496 33.496 0 0 0 9.051-3.858 12.772 12.772 0 0 0 5.993-7.877Z"/><path d="M1092.757 685.03c.823 1.323 32.345 48.792 176.726 36.302 65.007-5.63 98.68-48.238 116.047-93.892a156.958 156.958 0 0 0 3.107-19.75c2.602-27.442-.823-60.698-12.03-100.753 0 0-15.375-41.931-59.67-71.188-27.458-18.15-66.016-31.41-118.888-26.765 0 0-52.287 0-121.012 63.16 0 0-.213 2.522-.558 6.798 21.935-18.674 92.04-70.05 179.062-50.053 105.558 24.211 84.154 264.17 18.43 276.876-65.725 12.675-125.952 12.09-181.214-20.735Z" style="mix-blend-mode:soft-light" opacity=".45"/><path fill="#f9a832" d="M1156.194 274.708s141.66 145.87 4.65 151.514c0 0-124.235 15.529-4.65-151.514Z"/><path d="M1156.194 274.708s141.66 145.87 4.65 151.514c0 0-124.235 15.529-4.65-151.514Z" style="mix-blend-mode:soft-light" opacity=".45"/><path d="M1157.113 288.36s116.116 119.567 3.812 124.193c0 0-101.833 12.729-3.812-124.193Z" style="mix-blend-mode:soft-light" opacity=".45"/><path fill="#f9a832" d="M1158.708 312.064s71.764 73.897 2.356 76.756c0 0-62.937 7.867-2.356-76.756Z"/><path fill="#231c2d" d="M1316.938 435.75c.079 4.921.398 11.413 1.141 18.92a238.557 238.557 0 0 0 3.054 20.826c.505 2.615 1.036 5.261 1.673 7.968 4.275 18.736 11.631 39.563 24.113 58.575a132.656 132.656 0 0 0 28.387 31.318s2.974 55.375-27.644 56.267c0 0 24.484 9.568 40.975-21.935 1.62-17.135.902-36.578-2.629-58.513a270.796 270.796 0 0 0-2.39-13.26 374.486 374.486 0 0 0-3.134-14.15 422.418 422.418 0 0 0-3.372-12.952c-.16-.616-.319-1.23-.505-1.877 0 0-15.375-41.931-59.67-71.188Z"/><path fill="#322a3f" d="M1322.806 483.464c4.275 18.736 11.631 39.563 24.113 58.575 14.605 4.83 30.511 7.845 39.089 7.137a270.796 270.796 0 0 0-2.39-13.26c-1.726-1.26-3.744-2.614-6.082-4.09-29.37-18.52-45.993-36.58-54.73-48.362ZM1318.08 454.67a238.557 238.557 0 0 0 3.053 20.826c13.119 10.706 42.33 34.272 59.351 46.27a422.418 422.418 0 0 0-3.372-12.952c-33.3-35.071-51.279-49.007-59.033-54.145Z"/><ellipse cx="1408.145" cy="623.123" fill="#f9a832" rx="15.311" ry="17.737"/><ellipse cx="1408.145" cy="623.123" rx="15.311" ry="17.737" style="mix-blend-mode:soft-light" opacity=".45"/><ellipse cx="1408.145" cy="623.339" rx="11.96" ry="13.856" style="mix-blend-mode:soft-light" opacity=".45"/><ellipse cx="1410.013" cy="620.11" fill="#f9a832" rx="6.176" ry="8.811" transform="rotate(-48.953 1410.013 620.11)"/><path fill="#c47c62" d="M1184.461 668.221a32.297 32.297 0 0 1-11.821 5.705 46.297 46.297 0 0 1-12.814 1.565 43.257 43.257 0 0 1-12.805-2.045 30.874 30.874 0 0 1-11.51-6.39 110.113 110.113 0 0 1 12.61-.897c4.003-.084 7.918-.083 11.853-.036 3.93.065 7.876.236 11.91.499a98.005 98.005 0 0 1 12.577 1.599Z"/><path fill="#1b1723" d="M1116.976 651.524c.44-.88 97.327-54.608 158.981-29.946s-158.98 29.946-158.98 29.946Z"/></g></svg>