<svg xmlns="http://www.w3.org/2000/svg" viewBox="0 0 2800 1900"><g data-name="Layer 1"><ellipse cx="1469.917" cy="1601.854" opacity=".15" rx="872.512" ry="120.416"/><path fill="#231c2d" d="M1130.847 563.398s92.408 173.134 45.454 252.817-318.913 85.105-353.206 50.425-17.832-222.885 14.163-260.507 293.59-42.735 293.59-42.735Z"/><path fill="#c47c62" d="m1113.85 707.182 2.927-20.186S971.926 704.83 969.751 704.83s-58.724-9.57-12.18 34.364 114.837 51.328 127.017 37.844 29.263-69.857 29.263-69.857Z"/><path fill="#e5a488" d="M1358.815 625.847a508.081 508.081 0 0 1-30.549 108.518 426.144 426.144 0 0 1-46.948 85.932c-34.967 49.179-67.273 70.53-67.273 70.53l-228.126-39.995-30.814-54.797c75.248 4.268 127.764-45.383 127.764-45.383s42.264-34.165 75.156-69.838c10.995-11.955 20.929-24.06 27.907-35.111 7.33-11.677 11.355-22.154 9.812-30.053-2.027-10.36-26.227-25.533-60.218-42.06-69.035-33.571-178.555-72.8-225.333-89.1l65.541-40.351c104.027-11.713 184.147 5.062 243.835 30.878 57.691 24.955 96.285 58.368 118.907 82.647a80.366 80.366 0 0 1 20.34 68.183Z"/><path fill="#ffbb10" d="M1135.525 573.59c-69.034-33.571-178.554-72.8-225.332-89.1l65.541-40.351c104.027-11.714 184.147 5.062 243.835 30.877-20.398 58.903-57.856 86.278-84.043 98.573ZM1328.266 734.365a426.144 426.144 0 0 1-46.948 85.932c-27.179-104.891-93.267-132.358-123.293-139.483 10.995-11.955 20.929-24.06 27.907-35.111 85.783 3.615 124.761 50.507 142.334 88.662Z"/><path fill="#ffbb10" d="M849.381 197.933h51.052v644.169h-51.052z" transform="rotate(-119.211 874.906 520.018)"/><path d="m581.315 654.919 562.25-314.374 24.914 44.56-34.984 19.56c-21.046-4.246-30.33-16.186-30.33-16.186l-419.3 234.446c3.983 8.327 4.808 20.031 4.507 30.624l-82.143 45.929Z" style="mix-blend-mode:soft-light" opacity=".3"/><path d="m581.315 654.919 562.25-314.374 24.914 44.56-34.984 19.56c-21.046-4.246-30.33-16.186-30.33-16.186l-419.3 234.446c3.983 8.327 4.808 20.031 4.507 30.624l-82.143 45.929Z" style="mix-blend-mode:soft-light" opacity=".3"/><path fill="#ffbb10" d="M266.776 900.341 158.06 922.827a5.317 5.317 0 0 1-4.926-8.881c24.78-25.855 80.03-83.191 80.995-81.464 1.002 1.792 26.274 43.607 36.13 59.91a5.312 5.312 0 0 1-3.482 7.95Z"/><path d="M234.125 832.485c.997 1.782 26.283 43.612 36.128 59.918a5.309 5.309 0 0 1-3.463 7.94l-15.898 3.275c-11.153-18.46-24.793-41.04-25.523-42.347-.753-1.347-34.022 32.696-60.505 60.138l-6.802 1.41a5.306 5.306 0 0 1-4.93-8.862c24.789-25.87 80.03-83.195 80.993-81.472Z" style="mix-blend-mode:soft-light" opacity=".3"/><path d="M234.125 832.485c.997 1.782 26.283 43.612 36.128 59.918a5.309 5.309 0 0 1-3.463 7.94l-15.898 3.275c-11.153-18.46-24.793-41.04-25.523-42.347-.753-1.347-34.022 32.696-60.505 60.138l-6.802 1.41a5.306 5.306 0 0 1-4.93-8.862c24.789-25.87 80.03-83.195 80.993-81.472Z" style="mix-blend-mode:soft-light" opacity=".3"/><ellipse cx="613.169" cy="665.389" fill="#d38905" rx="27.15" ry="40.398" transform="rotate(-29.211 613.169 665.39)"/><path d="M593.445 630.121c13.09-7.32 32.542 2.55 43.427 22.017a56.844 56.844 0 0 1 5.69 14.313c-14.548-31.69-34.885-26.637-23.44-5.61a121.59 121.59 0 0 1 13.09 40.148c-13.081 6.639-32.024-3.203-42.731-22.353-10.885-19.468-9.126-41.195 3.964-48.515Z" style="mix-blend-mode:soft-light" opacity=".3"/><ellipse cx="571.74" cy="686.604" fill="#e0990a" rx="47.081" ry="70.054" transform="rotate(-29.211 571.74 686.604)"/><path d="M537.543 625.452c22.696-12.69 56.408 4.412 75.288 38.178a96.09 96.09 0 0 1 11.799 35.282c-11.562-42.017-39.99-59.526-43.776-56.162-4.38 3.93 5.986 21.167 21.752 56.57 9.93 22.315 10.336 36.62 9.262 44.135a32.596 32.596 0 0 1-5.948 4.287c-22.695 12.69-56.396-4.392-75.276-38.158s-15.796-71.442 6.9-84.132Z" style="mix-blend-mode:soft-light" opacity=".3"/><path fill="#efa707" d="M479.153 609.358c27.073-15.137 72.945 15.39 102.444 68.149 29.51 52.778 31.485 107.824 4.412 122.961a29.436 29.436 0 0 1-4.067 1.884c-27.42 10.237-70.305-19.83-98.376-70.033-28.07-50.203-31.228-102.482-8.148-120.482a29.45 29.45 0 0 1 3.735-2.479Z"/><ellipse cx="528.68" cy="707.094" rx="51.687" ry="109.137" transform="rotate(-29.211 528.68 707.094)" style="mix-blend-mode:soft-light" opacity=".3"/><ellipse cx="279.81" cy="849.832" fill="#e0990a" rx="47.081" ry="70.054" transform="rotate(-29.211 279.81 849.832)"/><path d="M245.61 788.681c22.696-12.69 56.409 4.413 75.288 38.179s15.785 71.422-6.91 84.112a32.475 32.475 0 0 1-9.63 3.513c-32.444-20.645-54.447-75.619-67.333-74.861-3.697.222-6.304 3.603-8.184 8.423-6.371-25.76-.44-49.743 16.77-59.366Z" style="mix-blend-mode:soft-light" opacity=".3"/><ellipse cx="315.915" cy="826.07" fill="#efa707" rx="56.157" ry="109.477" transform="rotate(-29.211 315.915 826.07)"/><path d="M262.476 730.51a30.245 30.245 0 0 1 9.888-3.423l.02-.012c27.392-4.475 66.392 24.826 92.536 71.583 28.58 51.115 31.334 104.347 6.881 121.425l-.02.011a30.306 30.306 0 0 1-2.448 1.525c-27.073 15.137-72.934-15.37-102.444-68.148-29.499-52.759-31.485-107.824-4.413-122.961Z" style="mix-blend-mode:soft-light" opacity=".3"/><path d="m272.365 727.087.02-.012c27.392-4.475 66.391 24.826 92.535 71.583 28.58 51.115 31.334 104.347 6.881 121.425l-.02.011c-27.392 4.476-66.38-24.805-92.535-71.583-28.569-51.094-31.335-104.346-6.881-121.424Z" style="mix-blend-mode:soft-light" opacity=".3"/><ellipse cx="427.905" cy="764.103" fill="#ffbb10" rx="156.558" ry="188.891" transform="rotate(-29.211 427.905 764.103)"/><path d="M335.712 599.227c75.474-42.2 177.93-2.576 228.833 88.464 40.085 71.691 36.265 153.893-4.001 206.198 5.778-41.366-4.025-91.49-30.412-138.683-48.977-87.593-136.462-131.871-195.419-98.907-58.937 32.954-67.027 130.671-18.05 218.265a263.544 263.544 0 0 0 4.26 7.34 224.906 224.906 0 0 1-29.675-41.403c-50.903-91.04-31.01-199.075 44.464-241.274Z" style="mix-blend-mode:soft-light" opacity=".3"/><path d="M335.712 599.227c75.474-42.2 177.93-2.576 228.833 88.464 40.085 71.691 36.265 153.893-4.001 206.198 5.778-41.366-4.025-91.49-30.412-138.683-48.977-87.593-136.462-131.871-195.419-98.907-58.937 32.954-67.027 130.671-18.05 218.265a263.544 263.544 0 0 0 4.26 7.34 224.906 224.906 0 0 1-29.675-41.403c-50.903-91.04-31.01-199.075 44.464-241.274Z" style="mix-blend-mode:soft-light" opacity=".3"/><ellipse cx="1165.991" cy="357.262" fill="#ffbb10" rx="49.04" ry="39.518" transform="rotate(-29.211 1165.991 357.262)"/><path d="M1146.707 322.775c23.644-13.22 51.439-8.485 62.08 10.547 7.795 13.942 4.254 31.675-7.481 45.36a32.168 32.168 0 0 0-3.902-12.168c-10.652-19.052-38.48-23.77-62.09-10.567a58.313 58.313 0 0 0-16.032 13.07c-1.98-16.855 8.523-35.674 27.425-46.242Z" style="mix-blend-mode:soft-light" opacity=".3"/><path d="M1146.707 322.775c23.644-13.22 51.439-8.485 62.08 10.547 7.795 13.942 4.254 31.675-7.481 45.36a32.168 32.168 0 0 0-3.902-12.168c-10.652-19.052-38.48-23.77-62.09-10.567a58.313 58.313 0 0 0-16.032 13.07c-1.98-16.855 8.523-35.674 27.425-46.242Z" style="mix-blend-mode:soft-light" opacity=".3"/><ellipse cx="390.283" cy="821.695" fill="#ffe812" rx="67.643" ry="123.8" transform="rotate(-29.211 390.283 821.695)"/><path fill="#e5a488" d="m842.845 798.02-32.191 178.754s-7.112-1.95-18.995-5.91q-1.481-.475-3.036-1.012c-.613-.216-1.249-.43-1.862-.645-.871-.305-1.766-.608-2.71-.952-2.662-.91-5.467-1.9-8.441-2.986a651.221 651.221 0 0 1-79.23-34.864c-26.476-13.932-53.941-31.099-78.148-51.649-33.348-28.302-60.51-63.023-70.286-104.513a65.423 65.423 0 0 1-1.716-12.874 60.873 60.873 0 0 1-.041-4.053c.004-.434.009-.867.036-1.303.043-1.234.11-2.449.244-3.692.037-.573.1-1.126.159-1.701.08-.6.158-1.223.238-1.824.08-.6.182-1.202.285-1.804.253-1.665.596-3.338.965-4.991.226-.979.476-1.96.75-2.92.214-.863.472-1.754.732-2.621.416-1.384.88-2.75 1.364-4.14 7.27-20.514 22.655-41.75 45.094-63.331 48.603-46.683 119.929-91.432 163.87-117.004a1241.757 1241.757 0 0 1 15.544-8.92c.78-.438 1.558-.877 2.315-1.313.627-.355 1.212-.684 1.796-1.012.543-.28 1.062-.58 1.56-.854 1.43-.796 2.77-1.56 4.05-2.251.584-.329 1.148-.633 1.711-.937.974-.548 1.905-1.068 2.795-1.54.564-.304 1.128-.608 1.646-.907 5.073-2.758 7.897-4.233 7.897-4.233l23.072 79.024 1.346 4.59c-27.588 35.606-104.867 135.82-107.474 143.45 0 0 2.692 1.956 7.36 5.048a339.453 339.453 0 0 0 36.744 21.304c13.676 6.777 29.059 13.05 43.895 16.185 13.745 2.918 26.972 2.285 38.662-1.6Z"/><path fill="#ffbb10" d="m822.312 609.042-106.128 148.04s-98.666-16.711-120.128-88.093c74.722-71.78 203.184-138.971 203.184-138.971ZM760.288 783.434c-11.053 11.596-68.89 75.856-63.908 146.97-26.476-13.931-53.941-31.098-78.148-51.648 3.852-35.484 36.835-90.219 105.311-116.626a339.453 339.453 0 0 0 36.745 21.304Z"/><path d="m842.845 798.02-32.191 178.754s-7.112-1.95-18.995-5.91q-1.485-.51-3.036-1.012c-.613-.216-1.249-.43-1.862-.645-.894-.303-1.789-.606-2.71-.952-2.662-.91-5.467-1.9-8.441-2.986-6.55-106.543-181.702-184.586-229.38-203.9a60.873 60.873 0 0 1-.041-4.053c.004-.434.009-.867.036-1.303.043-1.234.11-2.449.244-3.692.037-.573.1-1.126.159-1.701.08-.6.158-1.223.238-1.824.08-.6.182-1.202.285-1.804.253-1.665.596-3.338.965-4.991.226-.979.476-1.96.75-2.92.214-.863.472-1.754.732-2.621.416-1.384.88-2.75 1.364-4.14 188.5-38.15 210.377-133.27 208.964-180.335a1241.757 1241.757 0 0 1 15.544-8.92c.78-.438 1.558-.877 2.315-1.313.627-.355 1.212-.684 1.796-1.012.543-.28 1.062-.58 1.56-.854 1.43-.796 2.77-1.56 4.05-2.251.584-.329 1.148-.633 1.711-.937.974-.548 1.905-1.068 2.795-1.54.564-.304 1.128-.608 1.646-.907 5.073-2.758 7.897-4.233 7.897-4.233l23.072 79.024 1.346 4.59c-27.588 35.606-104.867 135.82-107.474 143.45 0 0 46.14 33.68 88 42.537 13.744 2.918 26.971 2.285 38.66-1.6ZM1359.891 610.202c-49.88 22.304-108.939 71.934-168.641 175.092-19.613 33.895-28.286 66.347-28.327 96.571l-177.004-31.034-30.814-54.796c75.248 4.268 127.764-45.383 127.764-45.383s42.264-34.165 75.156-69.838c10.995-11.955 20.929-24.06 27.907-35.111 7.33-11.677 11.355-22.154 9.812-30.053-2.027-10.36-26.227-25.533-60.218-42.06-69.035-33.571-178.555-72.8-225.333-89.1l60.825-37.444c100.294 59.79 292.003 162.32 381.745 132.082a79.842 79.842 0 0 1 7.128 31.074Z" style="mix-blend-mode:soft-light" opacity=".3"/><path fill="#f9a832" d="M862.86 1567.318s-41.542 31.6-47.897 42.31c-6.27 10.565 4.696 31.944 14.745 30.08 9.987-1.853 36.721-9.534 44.213-17.536 7.552-8.067 16.479-51.699 16.479-51.699Z"/><path d="M890.412 1570.472s-3.817 18.674-8.535 33.755c-19.46-.303-45.385.368-51.281 5.7-7.445 6.733 1.774 21.548 6.503 28.108-2.896.744-5.462 1.311-7.384 1.668-10.076 1.87-21.022-19.512-14.742-30.068 6.345-10.719 47.881-42.323 47.881-42.323Z" style="mix-blend-mode:soft-light" opacity=".25"/><path fill="#f9a832" d="M1233.456 1516.975s4.432 21.63 3.011 26.819c-1.407 5.14-4.604 13.727 1.504 18.766 6 4.952 21.888 3.448 29.34 6.612 7.34 3.115 30.534 13.561 48.509 6.477 17.89-7.051 13.863-17.06 13.863-17.06s-7.464 8.627-12.64 7.665c-5.218-.971-20.53-13.546-27.935-20.1-7.577-6.708-11.487-21.805-11.487-21.805Z"/><path d="M1329.678 1558.59s4.042 10.01-13.86 17.062c-17.966 7.077-41.16-3.37-48.509-6.476-7.439-3.165-23.345-1.667-29.347-6.61-6.094-5.053-2.896-13.627-1.491-18.77 1.419-5.194-3.02-26.82-3.02-26.82l44.173 7.375a70.902 70.902 0 0 0 4.107 11.143c-4.03 4.195-8.606 11.677-2.276 20.327 8.203 11.232 28.907 23.22 40.948 9.977 4.543-1.731 9.275-7.209 9.275-7.209Z" style="mix-blend-mode:soft-light" opacity=".25"/><path fill="#8d32ce" d="M1306.982 1361.144c16.693 50.386-26.007 170.786-26.007 170.786s-63.619-3.461-108.941-51.779c-52.61-56.086-65.862-63.015-65.862-63.015s-170.014 174.045-229.654 164.71c-27.41-4.288-29.283-35.944-21.402-76.165 3.923-19.894 10.238-41.96 17.072-63.775 12.402-39.688 26.488-78.245 30.523-99.867a299.674 299.674 0 0 1 8.556-33.742c17.855-58.553 50.887-123.597 50.887-123.597l59.572-14.104 32.936-7.786 65.254-15.458 37.789 25.84s47.675 47.982 88.942 97.43c27.812 33.338 52.632 67.238 60.335 90.522Z"/><path d="M1299.975 1466.278a623.467 623.467 0 0 1-5.156 20.327c-91.25-19.742-117.9-117.48-117.9-117.48 50.586 78.121 97.165 94.398 123.056 97.153Z" style="mix-blend-mode:soft-light" opacity=".25"/><path d="M1310.41 1380.178c.96 13.302-.156 28.83-2.41 44.674-102.361-.129-184.801-156.29-184.801-156.29 19.727 154.112 118.348 216.757 120.603 218.184-74.35-33.995-116.047-116.437-116.047-116.437 36.2 124.721 130.624 147.034 156.78 151.008-2.177 6.693-3.56 10.613-3.56 10.613s-63.619-3.461-108.941-51.779c-52.61-56.086-65.862-63.015-65.862-63.015s-170.014 174.045-229.654 164.71c-12.777-2.003-19.984-9.86-23.248-21.709 118.314-19.245 232.59-170.756 237.425-177.225-62.104 78.119-169.44 118.932-238.24 138.78.683-5.142 1.593-10.497 2.661-16.011 3.923-19.894 10.238-41.96 17.072-63.775 2.333-7.507 4.745-14.986 7.147-22.337 139.662-55.739 142.57-161.136 142.57-161.136-36.112 11.74-86.005 50.047-117.41 74.988 1.802-8.101 4.086-16.535 6.771-25.124 17.856-58.553 50.888-123.597 50.888-123.597l59.572-14.104 32.936-7.786 65.254-15.458 37.789 25.84s47.675 47.982 88.942 97.43c5.924 7.113 11.721 14.208 17.236 21.255-71.06-33.807-146.818-46.607-146.818-46.607 87.304 106.756 156.122 135.563 193.346 134.908Z" style="mix-blend-mode:soft-light" opacity=".25"/><path fill="#f9a832" d="M1246.647 1270.622c-140.472-53.68-188.78-40-188.78-40-63.883 13.656-114.635 49.04-146.6 77.675 4.018-13.113 8.769-26.57 13.782-39.575 17.261-44.978 37.105-84.022 37.105-84.022l59.572-14.104 32.936-7.786 65.254-15.458 37.789 25.84s35.753 35.984 72.193 77.818a1327.74 1327.74 0 0 1 16.75 19.612Z"/><path fill="#ce3e3e" d="M1229.898 1251.01c-136.401-51.856-183.214-38.77-183.214-38.77-48.78 10.192-90.228 33.22-121.635 56.482 17.261-44.978 37.105-84.022 37.105-84.022l59.572-14.104 32.936-7.786 65.254-15.458 37.789 25.84s35.753 35.984 72.193 77.818Z"/><path fill="#ce3e3e" d="M973.964 1492.759c-17.354 5.24-38.481.632-50.567.695-12.184.052-44.227 17.022-66.985 12.49-.453-.08-.874-.171-1.296-.263-21.96-4.6-18.959-9.8-23.367-13.754-4.548-4.08-13.403-4.882-25.08-8.063-11.856-3.23-28.723-15.918-28.723-15.918 36.988-7.25 67.995-16.076 94.243-26.04 191.941-73.018 161.445-249.016 161.445-249.016s-4.99-9.097-11.908-22.294l32.936-7.786c6.605 9.464 13.666 19.767 21.168 30.806 132.184 194.747-84.653 293.948-101.866 299.143Z"/><path d="M1095.271 1402.273c48.514-87.87-14.612-180.958-14.612-180.958 34.519 170.718-87.058 247.309-140.025 273.324-6.61-.551-12.588-1.204-17.237-1.185-10.577.04-36.129 12.836-57.472 13.237 69.428-18.439 235.151-78.899 208.268-273.364.531 6.5 14.425 200.863-240.823 260.558a9.099 9.099 0 0 0-1.621-1.959c-3.69-3.31-10.181-4.464-18.713-6.462 85.622-21.217 258.752-81.25 242.365-250.658-.72 6.05-24.601 197.854-268.937 238.971-5-3.2-8.518-5.832-8.518-5.832 36.988-7.248 67.995-16.075 94.242-26.039 191.942-73.019 161.446-249.016 161.446-249.016s-4.99-9.097-11.908-22.294l32.936-7.786c6.604 9.464 13.666 19.766 21.168 30.806 65.312 96.203 52.087 162.671 19.441 208.657Z" style="mix-blend-mode:soft-light" opacity=".25"/><path fill="#ffbb10" d="M1140.45 1127.082s15.736 24.446 18.374 44.132c0 0-63.554 83.113-201.536 23.403 0 0-16.632-35.59-6.96-55.874 8.159-17.112 190.123-11.661 190.123-11.661Z"/><path d="M951.195 1177.917c139.366 61.566 203.393-21.723 203.393-21.723a31.88 31.88 0 0 0-.214-1.449 136.662 136.662 0 0 0-4.52-10.546 174.577 174.577 0 0 0-9.403-17.117s-181.97-5.444-190.134 11.662c-3.438 7.247-3.537 16.52-2.183 25.44a102.443 102.443 0 0 0 3.061 13.733Z" style="mix-blend-mode:soft-light" opacity=".3"/><path d="M948.134 1164.185c129.57 57.202 193.202-10.05 201.72-19.986a174.577 174.577 0 0 0-9.403-17.117s-181.97-5.444-190.134 11.662c-3.438 7.247-3.537 16.52-2.183 25.44Z" style="mix-blend-mode:soft-light" opacity=".3"/><path fill="#e5a488" d="M881.2 1067.765c50.185 47.04 68.212 98.205 68.212 98.205 132.28 48.213 206.023-16.486 206.023-16.486 64.572-82.534 55.344-236.528 55.344-236.528 50.181-69.003 14.632-165.188 14.632-165.188-14.521-15.095-40.61-25.028-63.915-31.292a357.497 357.497 0 0 0-47.645-9.294c-73.127 111.07-150.373-3.44-150.373-3.44-24.855-3.623-50.115-.46-74.32 6.621-82.547 24.115-152.856 93.573-152.856 93.573-3.25 94.64 94.714 216.776 144.899 263.83Z"/><path fill="#c47c62" d="M794.668 817.83a394.851 394.851 0 0 0 24.799 51.452 252.374 252.374 0 0 0 32.89 45.624c12.657 13.498 27.441 25.055 44.185 31.168a79.477 79.477 0 0 0 26.17 4.61 110.054 110.054 0 0 0 13.76.093 111.734 111.734 0 0 0 13.7-1.123c18.211-2.32 36.143-7.735 54.532-13.24 18.338-5.623 37.427-10.36 56.787-12.837 38.796-5.023 77.91-1.886 115.529 5.676l-.903.042a100.292 100.292 0 0 0 18.341-5.864c5.892-2.62 11.658-5.79 16.316-10.472a51.296 51.296 0 0 1-15.168 12.734 98.427 98.427 0 0 1-8.937 4.511 84.9 84.9 0 0 1-9.439 3.597l-.294.09-.611-.048-28.463-2.237-14.22-.52c-4.734-.214-9.464-.375-14.19-.172-18.92-.29-37.683 1.665-56.179 4.491-18.532 2.94-36.507 8.163-54.708 13.767-18.15 5.604-36.927 11.724-56.773 13.884a123.946 123.946 0 0 1-14.878 1.067 122.172 122.172 0 0 1-14.899-.25 86.421 86.421 0 0 1-29.899-6.12 106.766 106.766 0 0 1-26.186-15.258 148.48 148.48 0 0 1-21.181-20.864c-12.7-15.066-22.556-32.016-30.825-49.46a290.022 290.022 0 0 1-19.256-54.341ZM1151.03 1017.155c-8.966-18.45-24.646-32.295-42.793-36.93-18.034-4.583-38.205-2.091-55.695 4.527a87.474 87.474 0 0 0-42.386 36.18 143.818 143.818 0 0 0-12.857 26.51 285.11 285.11 0 0 0-8.626 29.126 141.516 141.516 0 0 1 2.137-30.917 117.255 117.255 0 0 1 10.012-29.949 89.372 89.372 0 0 1 19.066-26.103 92.233 92.233 0 0 1 27.63-17.595 110.652 110.652 0 0 1 31.762-6.617c10.812-.323 21.955.732 32.27 4.709a62.112 62.112 0 0 1 34.803 32.225 55.005 55.005 0 0 1 4.677 14.834Z"/><path fill="#ffe812" d="M1090.205 904.807c80.935-14.193 88.138-86.084 81.179-140.735a325.255 325.255 0 0 0-9.888-47.596 357.497 357.497 0 0 0-47.645-9.294c-73.127 111.07-150.373-3.44-150.373-3.44-24.493-3.57-49.366-.547-73.244 6.315-.363.098-.713.195-1.076.306 3.967 78.782 77.971 216.04 201.047 194.444Z"/><path fill="#ffbb10" d="M890.234 710.057c15.5 79.578 86.677 190.076 198.033 170.533 69.392-12.169 84.582-66.75 83.117-116.518a325.255 325.255 0 0 0-9.888-47.596 357.497 357.497 0 0 0-47.645-9.294c-73.127 111.07-150.373-3.44-150.373-3.44-24.493-3.57-49.366-.547-73.244 6.315Z"/><path d="M881.2 1067.765c50.185 47.04 68.212 98.205 68.212 98.205 132.28 48.213 206.023-16.486 206.023-16.486.523-.675 1.047-1.35 1.556-2.037-65.054 22.894-132.292 28.632-152.11-32.72-41.653-128.967 117.757-138.244 117.757-138.244-129.382-36.066-170.251 91.39-170.251 91.39-13.558-111.492 121.358-122.288 194.457-122.334 37.505-.03 55.633-5.525 64.394-10.86.028-13.565-.46-21.723-.46-21.723a131.242 131.242 0 0 0 16.003-29.311c-34.937 37.277-101.383 32.458-120.752 30.349-24.587-2.681-80.346 11.065-159.636 20.89-79.288 9.838-79.807-98.048-79.807-98.048 191.819 12.79 288.045-70.02 323.434-110.924a246.316 246.316 0 0 0-28.524-9.436 357.497 357.497 0 0 0-47.645-9.294c-73.127 111.07-150.373-3.44-150.373-3.44-24.855-3.623-50.115-.46-74.32 6.621-82.547 24.115-152.856 93.573-152.856 93.573-3.25 94.64 94.714 216.776 144.899 263.83Z" style="mix-blend-mode:soft-light" opacity=".3"/><circle cx="1065.923" cy="1196.88" r="45.174" fill="#ffe812" transform="rotate(-80.783 1065.923 1196.88)"/><circle cx="1065.923" cy="1196.88" r="35.43" fill="#ffbb10"/><circle cx="1065.923" cy="1196.88" r="23.438" transform="rotate(-80.783 1065.923 1196.88)" style="mix-blend-mode:soft-light" opacity=".3"/><circle cx="1065.923" cy="1196.88" r="23.438" transform="rotate(-80.783 1065.923 1196.88)" style="mix-blend-mode:soft-light" opacity=".3"/><path fill="#f9a832" d="M873.148 290.388s12.496-100.141 32.315-111.78 77.684 96.503 73.643 96.249-105.958 15.53-105.958 15.53Z"/><path d="M979.11 274.842c-4.057-.247-105.97 15.55-105.97 15.55s12.503-100.134 32.33-111.774a6.526 6.526 0 0 1 3.28-.888c-6.95 23.928-16.32 81.917 59.377 73.151 7.59 13.83 12.24 24.048 10.982 23.96Z" style="mix-blend-mode:soft-light" opacity=".45"/><ellipse cx="953.476" cy="486.325" fill="#f7c434" rx="196.724" ry="191.685" transform="rotate(-9.368 953.476 486.325)"/><ellipse cx="953.476" cy="486.325" rx="175.968" ry="171.461" transform="rotate(-9.368 953.476 486.325)" style="mix-blend-mode:soft-light" opacity=".45"/><ellipse cx="953.476" cy="486.325" rx="175.968" ry="171.461" transform="rotate(-9.368 953.476 486.325)" style="mix-blend-mode:soft-light" opacity=".45"/><ellipse cx="953.476" cy="486.325" rx="175.968" ry="171.461" transform="rotate(-9.368 953.476 486.325)" style="mix-blend-mode:soft-light" opacity=".45"/><ellipse cx="953.476" cy="486.325" rx="175.968" ry="171.461" transform="rotate(-9.368 953.476 486.325)" style="mix-blend-mode:soft-light" opacity=".45"/><path fill="#f9a832" d="m879.904 354.309-39.436-49.64s15.804-24.03 84.09-35.296 88.252 5.386 88.252 5.386l-14.426 55.57Z"/><path d="m1004.415 307.119-6.033 23.216-118.48 23.986-35.656-44.891c8.377-5.979 33.044-21.659 66.308-25.36l11.211 25.494s24.835-15.077 82.65-2.445Z" style="mix-blend-mode:soft-light" opacity=".45"/><path fill="#f9a832" d="M838.866 403.188s-.718-70.063 102.954-87.167 126.857 49.992 126.857 49.992Z"/><path fill="#f9a832" d="M1128.93 502.464a335.597 335.597 0 0 1 .123 50.36c-.15 1.836-.26 2.826-.26 2.826l-18.574-27.247-21.553 7.206-221.572 74.169-2.643.883-24.681-9.561s-94.668-191.207 56.76-249.39a230.908 230.908 0 0 1 45.52-12.002c63.658-10.502 105.963 4.32 133.97 30.327 38.06 35.275 49.822 91.174 52.91 132.429Z"/><path d="M1128.93 502.464a335.597 335.597 0 0 1 .123 50.36l-12.373-27.037-28.014 9.822-217.562 76.344-4.01-2.175-20.863-11.294s-91.918-185.672 50.298-246.775a230.908 230.908 0 0 1 45.522-12.001c63.657-10.502 105.962 4.32 133.969 30.327-46.613-18.393-124.793-35.177-193.756 16.967 0 0-24.067 55.19 30.874 94.378 0 0 122.395-85.045 215.792 21.084Z" style="mix-blend-mode:soft-light" opacity=".45"/><path fill="#e5a488" d="M881.497 657.677c-15.913 10.61-28.692 7.911-37.9-.761-17.781-16.662-22.17-55.496-9.752-63.507l.023-.004a7.117 7.117 0 0 1 .62-.364c19.911-10.693 42.123 19.632 42.123 19.632s51.988 13.592 4.886 45.004Z"/><path d="M881.497 657.677c-15.913 10.61-28.692 7.911-37.9-.761 20.298 11.99 32.05-11.198 22.659-8.335-10.624 3.224-37.25-19.911-31.822-30.578 3.78-7.453 18.157-2.365 26.506 1.38.026.021.053.043.075.04 3.577 1.616 6.022 2.972 6.022 2.972-8.213-22.022-23.325-27.724-33.17-28.99a7.117 7.117 0 0 1 .62-.364c19.912-10.693 42.124 19.632 42.124 19.632s51.988 13.592 4.886 45.004Z" style="mix-blend-mode:soft-light" opacity=".45"/><path fill="#c47c62" d="M881.717 643.601c-7.231-7.507-13.725-14.428-21.22-19.762a52.374 52.374 0 0 0-12.031-6.287c-4.329-1.762-9.01-2.178-14.275-3.048a26.508 26.508 0 0 1 15.596-3.017 33.377 33.377 0 0 1 15.25 5.895 42.786 42.786 0 0 1 10.985 11.633 37.167 37.167 0 0 1 5.695 14.586Z"/><path fill="#e5a488" d="M1085.52 713.482c-72.53 25.572-172.55 36.11-205.665-45.737a132.208 132.208 0 0 1-5.292-15.99c-5.926-22.453-7.639-50.565-3.817-85.395 0 0 7.03-36.961 39.836-67.353 20.334-18.852 50.565-35.16 95.149-38.55 0 0 43.46-7.17 109.245 35.903 0 0 .523 2.068 1.396 5.575 4.065 16.114 15.989 62.556 22.318 77.693 7.71 18.428 41.256 100.546-53.17 133.854Z"/><ellipse cx="986.628" cy="564.299" rx="24.818" ry="28.752" transform="rotate(-9.368 986.629 564.299)" style="mix-blend-mode:soft-light" opacity=".45"/><ellipse cx="987.814" cy="571.484" fill="#1b1723" rx="16.414" ry="19.015" transform="rotate(-9.369 987.814 571.484)"/><path fill="#fff" d="M988.778 564.457c.536 3.251 3.247 5.512 6.054 5.05s4.648-3.476 4.111-6.727-3.247-5.513-6.054-5.05-4.648 3.475-4.111 6.727ZM986.6 572.641a2.637 2.637 0 1 0 2.081-3.406 2.838 2.838 0 0 0-2.081 3.406Z"/><path d="M1072.722 551.673c1.96 11.88 11.863 20.14 22.118 18.448s16.98-12.694 15.02-24.575-11.863-20.14-22.118-18.448-16.98 12.694-15.02 24.575Z" style="mix-blend-mode:soft-light" opacity=".45"/><ellipse cx="1092.19" cy="554.058" fill="#1b1723" rx="12.447" ry="14.419" transform="rotate(-9.368 1092.19 554.058)"/><path fill="#fff" d="M1092.921 548.73c.407 2.465 2.462 4.18 4.591 3.828s3.524-2.635 3.118-5.1-2.463-4.18-4.591-3.83-3.524 2.635-3.118 5.101ZM1091.27 554.935a2 2 0 1 0 1.578-2.582 2.152 2.152 0 0 0-1.578 2.582Z"/><path fill="#231c2d" d="M1075.9 543.15a11.742 11.742 0 0 1 .441-1.246 18.926 18.926 0 0 1 .726-1.938 40.398 40.398 0 0 1 2.32-4.793q.643-1.202 1.376-2.425a77.125 77.125 0 0 1 4.813-6.797c10.647-13.377 25.07-22.953 25.07-22.953-8.285-11.326-23.264 2.324-23.264 2.324 3.002-4.026 11.798-7.527 12.349-7.748-10.258 2.14-17.612 5.866-22.784 9.732a39.368 39.368 0 0 0-8.202 8.082 30.487 30.487 0 0 0-2.808 4.528 10.56 10.56 0 0 0-.632 1.443l2.517 5.27-3.828-3.804a12.614 12.614 0 0 0 .668 4.684c-.01.018.011.028.022.056 1.704 5.156 6.016 9.09 6.684 9.693-7.721-5.567-9.455-11.233-9.455-11.233a9.445 9.445 0 0 0 .108 2.014c1.385 8.673 13.88 15.11 13.88 15.11Z"/><path fill="#322a3f" d="M1080.763 532.748a77.125 77.125 0 0 1 4.813-6.797c-6.888-7.225-8.548-14.005-8.63-18.645a39.368 39.368 0 0 0-8.201 8.082 27 27 0 0 0 12.018 17.36ZM1077.067 539.966a40.398 40.398 0 0 1 2.32-4.793c-8.709-5.654-12.157-11.252-13.45-15.257a10.56 10.56 0 0 0-.632 1.443l2.517 5.27-3.828-3.804a12.614 12.614 0 0 0 .668 4.684c-.01.018.011.028.022.056a31.087 31.087 0 0 0 12.383 12.401ZM1075.9 543.15a11.742 11.742 0 0 1 .441-1.246c-8.401-5.026-12.418-10.278-14.32-13.865 1.385 8.673 13.88 15.11 13.88 15.11Z"/><path fill="#d33c3c" d="M1034.08 481.291s24.765 45.25 6.847 47.693c0 0-15.82 5.493-6.847-47.693Z"/><path fill="#231c2d" d="M1004.794 545.171a14.33 14.33 0 0 0-1.222-1.034 23.019 23.019 0 0 0-1.94-1.583 48.465 48.465 0 0 0-5.324-3.579q-1.395-.858-2.894-1.68a90.084 90.084 0 0 0-9.062-4.094c-19.004-7.302-39.371-8.153-39.371-8.153 1.113-17.317 24.596-12.513 24.596-12.513-5.517-2.328-16.467-.372-17.154-.251 11.547-4.337 21.204-5.128 28.78-4.366a44.945 44.945 0 0 1 13.24 3.273 35.984 35.984 0 0 1 5.642 2.984 12.77 12.77 0 0 1 1.536 1.12l.812 7.196 1.413-6.488a16.347 16.347 0 0 1 2.283 5.386c.021.012.007.037.014.073 1.55 6.552-.264 13.49-.549 14.559 4.177-10.86 2.335-17.972 2.335-17.972a12.151 12.151 0 0 1 1.161 2.201c4.079 10.068-4.296 24.921-4.296 24.921Z"/><path fill="#322a3f" d="M993.414 537.295a90.084 90.084 0 0 0-9.062-4.094c2.304-12.078-.31-20.32-3.149-25.283a44.945 44.945 0 0 1 13.24 3.273 34.902 34.902 0 0 1-1.029 26.104ZM1001.631 542.554a48.465 48.465 0 0 0-5.323-3.579c5.104-11.588 5.01-19.73 3.777-24.8a12.77 12.77 0 0 1 1.536 1.12l.812 7.196 1.413-6.488a16.347 16.347 0 0 1 2.283 5.386c.021.012.007.037.014.073a39.649 39.649 0 0 1-4.512 21.092ZM1004.794 545.171a14.33 14.33 0 0 0-1.222-1.034c5.192-10.725 5.884-18.867 5.518-23.887 4.079 10.068-4.296 24.921-4.296 24.921Z"/><ellipse cx="1056.158" cy="604.848" fill="#f2baa7" rx="29.415" ry="15.505" transform="rotate(-9.539 1056.158 604.848)"/><path fill="#c47c62" d="M1027.08 609.211a10.755 10.755 0 0 0 6.06 5.725 29.118 29.118 0 0 0 8.047 1.99 66.988 66.988 0 0 0 33.05-5.558 29.132 29.132 0 0 0 6.955-4.503 10.783 10.783 0 0 0 3.875-7.383c1.601 2.852.861 6.773-.783 9.72a24.566 24.566 0 0 1-6.814 7.41c-5.357 4.035-11.699 6.214-18.097 7.416-6.442.944-13.147.954-19.526-1.113a24.546 24.546 0 0 1-8.856-4.778c-2.517-2.245-4.493-5.71-3.912-8.926Z"/><path d="M1131.102 675.466c-.503 1.213-20.194 44.991-141.915 54.408-54.806 4.235-88.637-26.563-109.332-62.13a132.208 132.208 0 0 1-5.292-15.99c-5.926-22.452-7.639-50.564-3.817-85.394 0 0 7.03-36.961 39.836-67.353 20.334-18.852 50.565-35.16 95.149-38.55 0 0 43.46-7.17 109.245 35.903 0 0 .523 2.068 1.396 5.575-20.793-12.514-86.109-45.604-155.699-17.05-84.419 34.6-33.723 231.117 22.65 232.666 56.367 1.522 106.347-7.223 147.78-42.085Z" style="mix-blend-mode:soft-light" opacity=".45"/><path fill="#f9a832" d="M1022.107 343.108s-97.743 140.673 16.912 126.576c0 0 105.393-4.13-16.912-126.576Z"/><path d="M1022.107 343.108s-97.743 140.673 16.912 126.576c0 0 105.393-4.13-16.912-126.576Z" style="mix-blend-mode:soft-light" opacity=".45"/><path d="M1023.216 354.582s-80.119 115.306 13.862 103.751c0 0 86.388-3.384-13.862-103.751Z" style="mix-blend-mode:soft-light" opacity=".45"/><path fill="#f9a832" d="M1025.14 374.503s-49.516 71.264 8.568 64.122c0 0 53.39-2.091-8.568-64.122Z"/><path fill="#231c2d" d="M910.582 499.007c.609 4.102 1.234 9.541 1.645 15.883.335 5.329.484 11.32.318 17.73-.061 2.243-.14 4.514-.298 6.852-.984 16.16-4.243 34.48-12.01 51.993a111.755 111.755 0 0 1-19.301 29.924s5.122 46.436 30.694 42.979c0 0-19.04 11.31-37.067-12.613-3.695-14.021-5.766-30.28-5.838-48.997-.039-3.67.016-7.462.168-11.349.14-3.963.356-8.017.664-12.192.279-3.67.616-7.404 1.028-11.228.048-.533.095-1.066.161-1.629 0 0 7.03-36.961 39.836-67.353Z"/><path fill="#322a3f" d="M912.247 539.472c-.984 16.16-4.243 34.48-12.01 51.993-11.478 6.018-24.285 10.705-31.512 11.293-.039-3.67.016-7.462.168-11.349 1.262-1.285 2.754-2.687 4.494-4.234 21.872-19.421 33.214-36.711 38.86-47.703ZM912.227 514.89c.335 5.329.484 11.32.318 17.73-9.436 10.697-30.485 34.29-42.988 46.597.279-3.67.616-7.404 1.028-11.228 22.87-33.717 35.902-47.766 41.642-53.1Z"/><ellipse cx="860.465" cy="667.258" fill="#f9a832" rx="12.898" ry="14.942" transform="rotate(-9.368 860.465 667.258)"/><ellipse cx="860.465" cy="667.258" rx="12.898" ry="14.942" transform="rotate(-9.368 860.465 667.258)" style="mix-blend-mode:soft-light" opacity=".45"/><ellipse cx="860.494" cy="667.438" rx="10.076" ry="11.672" transform="rotate(-9.366 860.494 667.437)" style="mix-blend-mode:soft-light" opacity=".45"/><ellipse cx="858.499" cy="665.009" fill="#f9a832" rx="7.423" ry="5.203" transform="rotate(-50.415 858.5 665.01)"/><path fill="#c47c62" d="M1052.573 674.07c7.09-2.633 13.528-3.832 20.067-5.102a303.473 303.473 0 0 1 9.857-1.596 94.248 94.248 0 0 1 10.603-.983c-4.848 5.923-11.949 9.033-19.053 10.345a39.009 39.009 0 0 1-10.865.457 27.334 27.334 0 0 1-10.609-3.121Z"/><path fill="#1b1723" d="M1106.363 650.951s-30.87 4.33-64.061 7.455c-24.406 2.32-50.049 3.96-65.577 2.722-14.6-1.114-20.23-4.764-7.3-12.837.216-.124.464-.278.71-.433 26.047-15.745 63.908-13.641 93.14-8.352 24.497 4.455 42.872 11.136 43.088 11.445Z"/><path fill="#fff" d="M1063.274 639.506c-8.97 4.547-27.499 11.724-57.411 13.332-19.951 1.083-30.685-1.423-36.439-4.547.217-.124.465-.278.712-.433 26.046-15.745 63.907-13.641 93.138-8.352Z"/><path fill="#fff" d="M1042.302 658.406c-24.406 2.32-50.049 3.96-65.577 2.722 4.609-3.217 11.94-6.774 22.673-8.073a74.681 74.681 0 0 1 10.827-.495c8.877.216 19.487 1.887 32.077 5.846Z"/><path fill="#332623" d="M1691.42 593.576s-92.408 173.134-45.453 252.817 318.912 85.105 353.206 50.425 17.831-222.885-14.163-260.507-293.59-42.735-293.59-42.735Z"/><path fill="#dd9666" d="M1494.695 621.885a485.558 485.558 0 0 0 29.195 103.708 407.248 407.248 0 0 0 44.867 82.123c33.417 46.998 64.292 67.403 64.292 67.403l218.014-38.222 29.447-52.368c-71.912 4.079-122.1-43.371-122.1-43.371s-40.39-32.65-71.825-66.743c-10.508-11.425-20-22.993-26.67-33.555-7.005-11.16-10.852-21.171-9.377-28.72 1.937-9.902 25.065-24.402 57.55-40.196 65.974-32.083 170.639-69.573 215.344-85.15l-62.637-38.563c-99.415-11.194-175.984 4.838-233.025 29.51-55.135 23.848-92.018 55.78-113.637 78.983a76.803 76.803 0 0 0-19.438 65.16Z"/><path fill="#b2aa9a" d="M1708.087 571.944c65.975-32.083 170.64-69.573 215.345-85.15l-62.637-38.563c-99.415-11.194-175.984 4.838-233.025 29.51 19.493 56.29 55.29 82.452 80.317 94.203ZM1523.89 725.593a407.248 407.248 0 0 0 44.867 82.123c25.974-100.242 89.133-126.492 117.828-133.3-10.508-11.426-20-22.994-26.67-33.556-81.98 3.455-119.23 48.268-136.025 84.733Z"/><path fill="#ffbb10" d="M1932.76 212.939h48.789v615.615h-48.789z" transform="rotate(-60.789 1957.154 520.747)"/><path d="m2237.732 649.668-537.327-300.439-23.81 42.585 33.433 18.693c20.113-4.057 28.985-15.468 28.985-15.468l400.714 224.053c-3.807 7.958-4.595 19.144-4.307 29.267l78.502 43.893Z" style="mix-blend-mode:soft-light" opacity=".3"/><path d="m2237.732 649.668-537.327-300.439-23.81 42.585 33.433 18.693c20.113-4.057 28.985-15.468 28.985-15.468l400.714 224.053c-3.807 7.958-4.595 19.144-4.307 29.267l78.502 43.893Z" style="mix-blend-mode:soft-light" opacity=".3"/><path fill="#ffbb10" d="m2538.328 884.212 103.898 21.488a5.081 5.081 0 0 0 4.708-8.487c-23.682-24.708-76.483-79.504-77.406-77.853-.957 1.712-25.109 41.674-34.528 57.255a5.076 5.076 0 0 0 3.328 7.597Z"/><path d="M2569.532 819.363c-.953 1.703-25.118 41.68-34.527 57.262a5.073 5.073 0 0 0 3.31 7.589l15.193 3.13c10.659-17.642 23.693-39.222 24.392-40.47.72-1.288 32.513 31.246 57.822 57.471l6.5 1.349a5.071 5.071 0 0 0 4.712-8.47c-23.69-24.724-76.482-79.507-77.403-77.86Z" style="mix-blend-mode:soft-light" opacity=".3"/><path d="M2569.532 819.363c-.953 1.703-25.118 41.68-34.527 57.262a5.073 5.073 0 0 0 3.31 7.589l15.193 3.13c10.659-17.642 23.693-39.222 24.392-40.47.72-1.288 32.513 31.246 57.822 57.471l6.5 1.349a5.071 5.071 0 0 0 4.712-8.47c-23.69-24.724-76.482-79.507-77.403-77.86Z" style="mix-blend-mode:soft-light" opacity=".3"/><ellipse cx="2207.29" cy="659.674" fill="#d38905" rx="38.607" ry="25.947" transform="rotate(-60.789 2207.29 659.675)"/><path d="M2226.14 625.97c-12.511-6.995-31.1 2.436-41.503 21.04a54.321 54.321 0 0 0-5.437 13.68c13.903-30.287 33.338-25.457 22.4-5.363a116.203 116.203 0 0 0-12.51 38.37c12.502 6.343 30.605-3.062 40.838-21.363 10.402-18.605 8.721-39.37-3.789-46.364Z" style="mix-blend-mode:soft-light" opacity=".3"/><ellipse cx="2246.882" cy="679.949" fill="#e0990a" rx="66.949" ry="44.994" transform="rotate(-60.789 2246.882 679.949)"/><path d="M2279.563 621.507c-21.69-12.127-53.908 4.217-71.95 36.486a91.831 91.831 0 0 0-11.276 33.718c11.049-40.155 38.217-56.888 41.835-53.672 4.185 3.756-5.72 20.228-20.788 54.062-9.49 21.326-9.878 34.996-8.851 42.179a31.154 31.154 0 0 0 5.684 4.097c21.69 12.127 53.897-4.198 71.94-36.467s15.095-68.275-6.594-80.403Z" style="mix-blend-mode:soft-light" opacity=".3"/><path fill="#efa707" d="M2335.365 606.127c-25.873-14.466-69.711 14.708-97.903 65.128-28.202 50.438-30.09 103.044-4.217 117.51a28.139 28.139 0 0 0 3.887 1.801c26.205 9.783 67.19-18.95 94.015-66.929s29.844-97.94 7.787-115.142a28.122 28.122 0 0 0-3.57-2.368Z"/><ellipse cx="2288.033" cy="699.531" rx="104.299" ry="49.396" transform="rotate(-60.789 2288.033 699.53)" style="mix-blend-mode:soft-light" opacity=".3"/><ellipse cx="2525.872" cy="835.942" fill="#e0990a" rx="66.949" ry="44.994" transform="rotate(-60.789 2525.872 835.942)"/><path d="M2558.555 777.501c-21.69-12.127-53.907 4.217-71.95 36.486s-15.086 68.257 6.604 80.384a31.034 31.034 0 0 0 9.203 3.357c31.006-19.73 52.034-72.267 64.348-71.542 3.534.212 6.025 3.443 7.821 8.05 6.089-24.619.42-47.539-16.026-56.735Z" style="mix-blend-mode:soft-light" opacity=".3"/><ellipse cx="2491.367" cy="813.233" fill="#efa707" rx="104.624" ry="53.667" transform="rotate(-60.789 2491.367 813.233)"/><path d="M2542.437 721.908a28.905 28.905 0 0 0-9.45-3.271l-.019-.01c-26.178-4.278-63.449 23.724-88.433 68.41-27.313 48.848-29.946 99.72-6.577 116.041l.02.011c.752.52 1.526 1.003 2.34 1.458 25.872 14.466 69.7-14.69 97.902-65.128 28.19-50.42 30.089-103.045 4.217-117.51Z" style="mix-blend-mode:soft-light" opacity=".3"/><path d="m2532.987 718.637-.019-.01c-26.178-4.278-63.449 23.724-88.433 68.41-27.313 48.848-29.946 99.72-6.577 116.041l.02.011c26.177 4.277 63.437-23.706 88.433-68.41 27.302-48.83 29.945-99.721 6.576-116.042Z" style="mix-blend-mode:soft-light" opacity=".3"/><ellipse cx="2384.341" cy="754.012" fill="#ffbb10" rx="180.518" ry="149.618" transform="rotate(-60.789 2384.341 754.012)"/><path d="M2472.447 596.444c-72.128-40.329-170.042-2.46-218.689 84.544-38.308 68.513-34.658 147.07 3.824 197.057-5.522-39.532 3.846-87.434 29.064-132.535 46.806-83.71 130.412-126.026 186.756-94.523 56.325 31.493 64.056 124.88 17.25 208.59a252 252 0 0 1-4.07 7.015 214.934 214.934 0 0 0 28.359-39.568c48.647-87.005 29.634-190.25-42.494-230.58Z" style="mix-blend-mode:soft-light" opacity=".3"/><path d="M2472.447 596.444c-72.128-40.329-170.042-2.46-218.689 84.544-38.308 68.513-34.658 147.07 3.824 197.057-5.522-39.532 3.846-87.434 29.064-132.535 46.806-83.71 130.412-126.026 186.756-94.523 56.325 31.493 64.056 124.88 17.25 208.59a252 252 0 0 1-4.07 7.015 214.934 214.934 0 0 0 28.359-39.568c48.647-87.005 29.634-190.25-42.494-230.58Z" style="mix-blend-mode:soft-light" opacity=".3"/><ellipse cx="1678.972" cy="365.205" fill="#ffbb10" rx="37.766" ry="46.867" transform="rotate(-60.789 1678.972 365.205)"/><path d="M1697.401 332.247c-22.595-12.634-49.158-8.109-59.328 10.08-7.45 13.324-4.065 30.271 7.15 43.349a30.74 30.74 0 0 1 3.729-11.629c10.18-18.207 36.774-22.715 59.338-10.099a55.73 55.73 0 0 1 15.32 12.492c1.894-16.108-8.145-34.093-26.209-44.193Z" style="mix-blend-mode:soft-light" opacity=".3"/><path d="M1697.401 332.247c-22.595-12.634-49.158-8.109-59.328 10.08-7.45 13.324-4.065 30.271 7.15 43.349a30.74 30.74 0 0 1 3.729-11.629c10.18-18.207 36.774-22.715 59.338-10.099a55.73 55.73 0 0 1 15.32 12.492c1.894-16.108-8.145-34.093-26.209-44.193Z" style="mix-blend-mode:soft-light" opacity=".3"/><ellipse cx="2420.296" cy="809.051" fill="#ffe812" rx="118.312" ry="64.645" transform="rotate(-60.789 2420.296 809.051)"/><path fill="#dd9666" d="m1987.795 786.426 30.763 170.83s6.797-1.863 18.154-5.647q1.415-.455 2.9-.968c.587-.206 1.194-.41 1.78-.616.833-.292 1.688-.581 2.59-.91 2.544-.87 5.225-1.815 8.067-2.854a622.336 622.336 0 0 0 75.718-33.318c25.302-13.315 51.55-29.72 74.684-49.36 31.87-27.048 57.828-60.23 67.17-99.88a62.52 62.52 0 0 0 1.64-12.304c.056-1.28.07-2.585.04-3.873-.005-.414-.01-.828-.035-1.245a48.785 48.785 0 0 0-.233-3.528c-.036-.548-.095-1.077-.152-1.626-.076-.574-.15-1.17-.228-1.743a47.74 47.74 0 0 0-.272-1.724c-.242-1.591-.57-3.19-.922-4.77a57.052 57.052 0 0 0-.717-2.79 55.305 55.305 0 0 0-.7-2.506 97.099 97.099 0 0 0-1.303-3.956c-6.949-19.605-21.65-39.898-43.095-60.524-46.449-44.613-114.613-87.379-156.606-111.817-5.43-3.17-10.41-6.014-14.856-8.525-.744-.419-1.489-.837-2.212-1.254-.6-.34-1.158-.654-1.716-.968-.52-.267-1.015-.553-1.491-.816-1.366-.76-2.647-1.491-3.87-2.151-.559-.314-1.097-.605-1.636-.895-.93-.524-1.82-1.022-2.67-1.472-.54-.29-1.079-.581-1.574-.868-4.848-2.635-7.546-4.044-7.546-4.044l-22.05 75.52-1.286 4.388c26.365 34.027 100.218 129.798 102.71 137.09 0 0-2.573 1.87-7.034 4.825a324.39 324.39 0 0 1-35.115 20.36c-13.07 6.476-27.771 12.471-41.95 15.467-13.135 2.79-25.776 2.184-36.947-1.528Z"/><path fill="#b2aa9a" d="m2007.417 605.825 101.424 141.477s94.292-15.97 114.803-84.188c-71.41-68.598-194.177-132.81-194.177-132.81ZM2066.692 772.487c10.563 11.081 65.836 72.493 61.075 140.456 25.302-13.315 51.55-29.72 74.684-49.36-3.681-33.91-35.202-86.22-100.643-111.456a324.39 324.39 0 0 1-35.116 20.36Z"/><path d="m1987.795 786.426 30.763 170.83s6.797-1.863 18.154-5.647q1.418-.487 2.9-.968c.587-.206 1.194-.41 1.78-.616.854-.29 1.71-.58 2.59-.91 2.544-.87 5.225-1.815 8.067-2.854 6.26-101.82 173.648-176.403 219.213-194.862.055-1.28.07-2.585.039-3.873-.005-.414-.01-.828-.035-1.245a48.785 48.785 0 0 0-.233-3.528c-.036-.548-.095-1.076-.152-1.626-.076-.574-.15-1.17-.228-1.743a47.74 47.74 0 0 0-.272-1.724c-.242-1.591-.57-3.19-.922-4.77a57.052 57.052 0 0 0-.717-2.79 55.305 55.305 0 0 0-.7-2.506 97.099 97.099 0 0 0-1.303-3.956c-180.144-36.459-201.052-127.362-199.701-172.341-5.43-3.17-10.41-6.014-14.856-8.525-.744-.419-1.489-.837-2.212-1.254-.6-.34-1.158-.654-1.716-.968-.52-.267-1.015-.553-1.491-.816-1.366-.76-2.647-1.491-3.87-2.151-.559-.314-1.097-.605-1.636-.895-.93-.524-1.82-1.022-2.67-1.472-.54-.29-1.079-.581-1.574-.867-4.848-2.636-7.546-4.045-7.546-4.045l-22.05 75.52-1.286 4.388c26.365 34.027 100.218 129.799 102.71 137.09 0 0-44.095 32.188-84.099 40.652-13.135 2.79-25.776 2.184-36.947-1.528ZM1493.667 606.933c47.669 21.316 104.11 68.746 161.166 167.33 18.744 32.394 27.032 63.407 27.071 92.292l169.159-29.659 29.447-52.367c-71.912 4.079-122.1-43.371-122.1-43.371s-40.39-32.65-71.825-66.743c-10.508-11.425-20-22.993-26.67-33.555-7.005-11.16-10.852-21.171-9.377-28.72 1.937-9.902 25.065-24.402 57.55-40.196 65.974-32.083 170.639-69.573 215.344-85.15l-58.129-35.785c-95.849 57.14-279.06 155.126-364.824 126.228a76.3 76.3 0 0 0-6.812 29.697Z" style="mix-blend-mode:soft-light" opacity=".3"/><path fill="#f9a832" d="M1968.667 1521.624s39.7 30.2 45.774 40.435c5.99 10.096-4.489 30.527-14.092 28.745-9.544-1.77-35.093-9.11-42.253-16.758-7.218-7.71-15.749-49.408-15.749-49.408Z"/><path d="M1942.336 1524.638s3.647 17.846 8.156 32.258c18.598-.29 43.374.352 49.009 5.447 7.114 6.435-1.696 20.594-6.216 26.862 2.768.712 5.22 1.254 7.057 1.595 9.63 1.786 20.09-18.647 14.089-28.736-6.064-10.243-45.76-40.447-45.76-40.447Z" style="mix-blend-mode:soft-light" opacity=".25"/><path fill="#f9a832" d="M1614.497 1473.512s-4.235 20.67-2.877 25.63c1.345 4.912 4.4 13.118-1.437 17.935-5.735 4.731-20.918 3.294-28.04 6.318-7.013 2.977-29.18 12.96-46.358 6.19-17.097-6.739-13.248-16.304-13.248-16.304s7.132 8.245 12.078 7.325c4.988-.928 19.62-12.945 26.697-19.209 7.242-6.41 10.978-20.838 10.978-20.838Z"/><path d="M1522.54 1513.282s-3.862 9.567 13.248 16.306c17.168 6.763 39.335-3.22 46.357-6.19 7.11-3.024 22.31-1.592 28.047-6.315 5.823-4.83 2.767-13.024 1.424-17.94-1.355-4.963 2.886-25.63 2.886-25.63l-42.215 7.048a67.758 67.758 0 0 1-3.925 10.65c3.852 4.009 8.225 11.159 2.176 19.425-7.84 10.734-27.626 22.19-39.134 9.535-4.341-1.655-8.863-6.89-8.863-6.89Z" style="mix-blend-mode:soft-light" opacity=".25"/><path fill="#6d3c3c" d="M1544.231 1324.589c-15.953 48.152 24.854 163.216 24.854 163.216s60.799-3.309 104.112-49.485c50.278-53.6 62.943-60.222 62.943-60.222s162.478 166.33 219.474 157.41c26.194-4.099 27.985-34.351 20.453-72.79-3.749-19.012-9.784-40.1-16.315-60.947-11.853-37.93-25.314-74.777-29.17-95.44a286.377 286.377 0 0 0-8.176-32.247c-17.064-55.957-48.632-118.118-48.632-118.118l-56.931-13.48-31.477-7.44-62.361-14.773-36.114 24.694s-45.562 45.856-85 93.112c-26.579 31.86-50.298 64.258-57.66 86.51Z"/><path d="M1550.927 1425.062a595.925 595.925 0 0 0 4.927 19.426c87.205-18.866 112.674-112.272 112.674-112.272-48.343 74.658-92.857 90.214-117.6 92.846Z" style="mix-blend-mode:soft-light" opacity=".25"/><path d="M1540.954 1342.78c-.917 12.711.15 27.551 2.305 42.693 97.823-.123 176.609-149.363 176.609-149.363-18.853 147.281-113.102 207.15-115.258 208.513 71.056-32.488 110.903-111.276 110.903-111.276-34.594 119.193-124.834 140.517-149.83 144.315 2.08 6.395 3.402 10.143 3.402 10.143s60.799-3.309 104.112-49.485c50.278-53.6 62.943-60.222 62.943-60.222s162.478 166.33 219.474 157.41c12.21-1.914 19.098-9.424 22.217-20.747-113.07-18.392-222.28-163.187-226.9-169.37 59.35 74.657 161.929 113.661 227.678 132.63-.651-4.915-1.522-10.033-2.542-15.303-3.749-19.012-9.784-40.1-16.315-60.947a1537.058 1537.058 0 0 0-6.83-21.348c-133.472-53.268-136.25-153.993-136.25-153.993 34.51 11.22 82.192 47.828 112.205 71.665-1.722-7.743-3.904-15.802-6.471-24.011-17.064-55.957-48.632-118.118-48.632-118.118l-56.931-13.48-31.477-7.44-62.361-14.773-36.114 24.694s-45.562 45.856-85 93.112c-5.661 6.797-11.201 13.578-16.472 20.313 67.91-32.309 140.31-44.541 140.31-44.541-83.433 102.023-149.202 129.554-184.775 128.928Z" style="mix-blend-mode:soft-light" opacity=".25"/><path fill="#b2aa9a" d="M1601.891 1238.079c134.246-51.301 180.413-38.227 180.413-38.227 61.051 13.05 109.553 46.867 140.102 74.232-3.84-12.531-8.38-25.393-13.172-37.82-16.496-42.985-35.46-80.298-35.46-80.298l-56.931-13.48-31.477-7.44-62.361-14.773-36.114 24.694s-34.168 34.39-68.993 74.37a1268.722 1268.722 0 0 0-16.007 18.742Z"/><path fill="#ffbb10" d="M1617.899 1219.336c130.354-49.557 175.091-37.052 175.091-37.052 46.618 9.74 86.23 31.748 116.244 53.98-16.496-42.985-35.46-80.298-35.46-80.298l-56.931-13.48-31.477-7.44-62.361-14.773-36.114 24.694s-34.168 34.39-68.993 74.37Z"/><path fill="#b2aa9a" d="M1862.487 1450.369c16.585 5.007 36.776.604 48.326.664 11.643.05 42.267 16.268 64.015 11.937.433-.076.836-.164 1.239-.252 20.987-4.395 18.119-9.365 22.332-13.144 4.346-3.9 12.808-4.665 23.968-7.706 11.33-3.086 27.45-15.212 27.45-15.212-35.349-6.928-64.981-15.363-90.065-24.886-183.434-69.781-154.29-237.978-154.29-237.978s4.77-8.693 11.38-21.305l-31.476-7.44c-6.311 9.043-13.06 18.89-20.23 29.44-126.324 186.114 80.901 280.918 97.351 285.882Z"/><path d="M1746.557 1363.894c-46.363-83.975 13.964-172.937 13.964-172.937-32.988 163.152 83.2 236.347 133.819 261.209 6.317-.527 12.03-1.15 16.473-1.132 10.107.038 34.527 12.266 54.924 12.65-66.35-17.621-224.728-75.401-199.036-261.246-.508 6.21-13.786 191.958 230.148 249.008a8.696 8.696 0 0 1 1.55-1.872c3.526-3.164 9.73-4.267 17.883-6.176-81.827-20.277-247.283-77.648-231.622-239.547.688 5.78 23.51 189.084 257.016 228.378 4.78-3.059 8.14-5.573 8.14-5.573-35.348-6.928-64.98-15.363-90.064-24.885-183.434-69.782-154.29-237.979-154.29-237.979s4.77-8.693 11.38-21.305l-31.476-7.44c-6.311 9.044-13.06 18.89-20.23 29.44-62.416 91.938-49.778 155.46-18.579 199.407Z" style="mix-blend-mode:soft-light" opacity=".25"/><path fill="#b2aa9a" d="M1703.38 1100.902s-15.038 23.362-17.558 42.175c0 0 60.737 79.43 192.603 22.366 0 0 15.894-34.013 6.651-53.397-7.797-16.354-181.696-11.144-181.696-11.144Z"/><path d="M1884.247 1149.484c-133.189 58.836-194.377-20.76-194.377-20.76.054-.455.126-.908.205-1.385a130.589 130.589 0 0 1 4.319-10.08 166.826 166.826 0 0 1 8.986-16.357s173.904-5.203 181.706 11.145c3.286 6.925 3.38 15.787 2.086 24.313a97.915 97.915 0 0 1-2.925 13.124Z" style="mix-blend-mode:soft-light" opacity=".3"/><path d="M1887.172 1136.36c-123.827 54.666-184.637-9.604-192.778-19.1a166.826 166.826 0 0 1 8.986-16.358s173.904-5.203 181.706 11.145c3.286 6.925 3.38 15.787 2.086 24.313Z" style="mix-blend-mode:soft-light" opacity=".3"/><path fill="#dd9666" d="M1951.139 1044.214c-47.96 44.954-65.188 93.852-65.188 93.852-126.416 46.076-196.89-15.756-196.89-15.756-61.71-78.875-52.89-226.043-52.89-226.043-47.958-65.945-13.985-157.865-13.985-157.865 13.878-14.426 38.81-23.92 61.082-29.905a341.641 341.641 0 0 1 45.533-8.883c69.886 106.147 143.708-3.287 143.708-3.287 23.753-3.462 47.893-.44 71.025 6.327 78.888 23.046 146.08 89.426 146.08 89.426 3.107 90.445-90.515 207.167-138.476 252.134Z"/><path fill="#c47c62" d="M2033.836 805.358a277.147 277.147 0 0 1-18.403 51.932c-7.903 16.67-17.32 32.87-29.458 47.267a141.91 141.91 0 0 1-20.243 19.94 102.044 102.044 0 0 1-25.025 14.58 82.59 82.59 0 0 1-28.574 5.85 116.804 116.804 0 0 1-14.238.239 118.475 118.475 0 0 1-14.218-1.02c-18.967-2.064-36.911-7.912-54.256-13.268-17.395-5.355-34.573-10.347-52.284-13.157-17.676-2.7-35.607-4.569-53.688-4.292-4.518-.194-9.038-.04-13.561.164l-13.59.498-27.202 2.137-.592.047-.273-.087a91.977 91.977 0 0 1-17.56-7.749 49.013 49.013 0 0 1-14.496-12.169c4.45 4.474 9.961 7.503 15.592 10.008a95.888 95.888 0 0 0 17.529 5.604l-.864-.04c35.952-7.227 73.331-10.225 110.407-5.424 18.503 2.367 36.746 6.893 54.271 12.268 17.575 5.26 34.71 10.435 52.114 12.653a106.7 106.7 0 0 0 13.094 1.073 105.157 105.157 0 0 0 13.15-.089 75.968 75.968 0 0 0 25.01-4.405c16.001-5.843 30.13-16.887 42.226-29.788a241.156 241.156 0 0 0 31.432-43.602 377.364 377.364 0 0 0 23.7-49.17ZM1693.27 995.848a52.006 52.006 0 0 1 4.47-14.176 59.366 59.366 0 0 1 33.26-30.798c9.858-3.8 20.506-4.809 30.84-4.5a101.113 101.113 0 0 1 30.355 6.322 83.892 83.892 0 0 1 44.625 41.763c9.19 18.325 12.398 38.604 11.61 58.168a272.622 272.622 0 0 0-8.244-27.836 137.455 137.455 0 0 0-12.286-25.334 83.984 83.984 0 0 0-40.508-34.575c-16.744-6.186-35.972-8.792-53.226-4.328-17.342 4.43-32.327 17.662-40.896 35.294Z"/><path fill="#d6ccba" d="M1751.399 888.48c-77.347-13.564-84.231-82.268-77.58-134.498a310.853 310.853 0 0 1 9.45-45.485 341.641 341.641 0 0 1 45.532-8.883c69.886 106.147 143.708-3.287 143.708-3.287 23.407-3.411 47.177-.523 69.997 6.035.347.094.682.186 1.028.293-3.79 75.29-74.515 206.462-192.135 185.825Z"/><path fill="#b2aa9a" d="M1942.506 702.362c-14.814 76.05-82.835 181.65-189.255 162.974-66.316-11.63-80.833-63.791-79.432-111.353a310.853 310.853 0 0 1 9.45-45.486 341.641 341.641 0 0 1 45.532-8.883c69.886 106.147 143.708-3.287 143.708-3.287 23.407-3.411 47.177-.523 69.997 6.035Z"/><path d="M1951.139 1044.214c-47.96 44.954-65.188 93.852-65.188 93.852-126.416 46.076-196.89-15.756-196.89-15.756-.5-.644-1.001-1.289-1.488-1.946 62.17 21.88 126.428 27.363 145.368-31.27 39.806-123.25-112.537-132.115-112.537-132.115 123.647-34.468 162.704 87.338 162.704 87.338 12.956-106.55-115.979-116.868-185.837-116.911-35.843-.03-53.167-5.28-61.54-10.38-.027-12.962.44-20.759.44-20.759a125.42 125.42 0 0 1-15.294-28.012c33.388 35.625 96.89 31.02 115.4 29.004 23.497-2.562 76.784 10.574 152.56 19.964 75.773 9.402 76.269-93.702 76.269-93.702-183.317 12.224-275.277-66.917-309.098-106.007a235.382 235.382 0 0 1 27.26-9.017 341.641 341.641 0 0 1 45.534-8.883c69.885 106.147 143.707-3.287 143.707-3.287 23.753-3.462 47.893-.44 71.025 6.327 78.888 23.046 146.08 89.426 146.08 89.426 3.107 90.445-90.515 207.167-138.476 252.134Z" style="mix-blend-mode:soft-light" opacity=".3"/><circle cx="1772.942" cy="1168.07" r="43.171" fill="#ffe812" transform="rotate(-45 1772.942 1168.07)"/><circle cx="1772.942" cy="1168.07" r="33.86" fill="#ffbb10"/><circle cx="1772.942" cy="1168.07" r="22.399" transform="rotate(-22.5 1772.942 1168.07)" style="mix-blend-mode:soft-light" opacity=".3"/><circle cx="1772.942" cy="1168.07" r="22.399" transform="rotate(-22.5 1772.942 1168.07)" style="mix-blend-mode:soft-light" opacity=".3"/><path fill="#f9a832" d="M1949.12 320.566s-12.497-100.141-32.316-111.78-77.683 96.503-73.643 96.249 105.959 15.53 105.959 15.53Z"/><path d="M1843.158 305.02c4.057-.247 105.969 15.55 105.969 15.55s-12.503-100.134-32.33-111.774a6.525 6.525 0 0 0-3.28-.888c6.95 23.928 16.32 81.917-59.377 73.151-7.589 13.83-12.24 24.048-10.982 23.96Z" style="mix-blend-mode:soft-light" opacity=".45"/><ellipse cx="1868.792" cy="516.503" fill="#f7c434" rx="191.685" ry="196.724" transform="rotate(-80.632 1868.791 516.503)"/><ellipse cx="1868.792" cy="516.503" rx="171.461" ry="175.968" transform="rotate(-80.632 1868.792 516.503)" style="mix-blend-mode:soft-light" opacity=".45"/><ellipse cx="1868.792" cy="516.503" rx="171.461" ry="175.968" transform="rotate(-80.632 1868.792 516.503)" style="mix-blend-mode:soft-light" opacity=".45"/><ellipse cx="1868.792" cy="516.503" rx="171.461" ry="175.968" transform="rotate(-80.632 1868.792 516.503)" style="mix-blend-mode:soft-light" opacity=".45"/><ellipse cx="1868.792" cy="516.503" rx="171.461" ry="175.968" transform="rotate(-80.632 1868.792 516.503)" style="mix-blend-mode:soft-light" opacity=".45"/><path fill="#f9a832" d="m1942.363 384.487 39.436-49.64s-15.803-24.03-84.09-35.296-88.252 5.387-88.252 5.387l14.426 55.57Z"/><path d="m1817.853 337.297 6.033 23.217 118.479 23.985 35.657-44.891c-8.378-5.979-33.045-21.658-66.308-25.36l-11.212 25.494s-24.834-15.076-82.65-2.445Z" style="mix-blend-mode:soft-light" opacity=".45"/><path fill="#f9a832" d="M1983.401 433.366s.719-70.063-102.954-87.166-126.857 49.991-126.857 49.991Z"/><path fill="#f9a832" d="M1693.338 532.642a335.584 335.584 0 0 0-.123 50.36c.15 1.837.259 2.826.259 2.826l18.575-27.247 21.552 7.207 221.572 74.168 2.643.883 24.682-9.561s94.667-191.207-56.76-249.39a230.915 230.915 0 0 0-45.521-12.002c-63.657-10.502-105.963 4.32-133.97 30.327-38.06 35.275-49.822 91.174-52.91 132.429Z"/><path d="M1693.338 532.642a335.584 335.584 0 0 0-.123 50.36l12.373-27.037 28.013 9.822 217.563 76.344 4.01-2.175 20.863-11.294s91.917-185.672-50.299-246.775a230.915 230.915 0 0 0-45.521-12.001c-63.657-10.502-105.962 4.32-133.97 30.327 46.613-18.393 124.794-35.177 193.757 16.967 0 0 24.066 55.19-30.875 94.378 0 0-122.395-85.045-215.791 21.084Z" style="mix-blend-mode:soft-light" opacity=".45"/><path fill="#dd9666" d="M1940.77 687.855c15.913 10.61 28.693 7.911 37.9-.761 17.781-16.662 22.17-55.495 9.752-63.507l-.022-.003a7.092 7.092 0 0 0-.62-.365c-19.912-10.693-42.124 19.632-42.124 19.632s-51.988 13.593-4.885 45.004Z"/><path d="M1940.77 687.855c15.913 10.61 28.693 7.911 37.9-.761-20.298 11.99-32.05-11.197-22.659-8.335 10.624 3.224 37.25-19.911 31.823-30.578-3.781-7.453-18.157-2.365-26.507 1.38-.026.021-.052.043-.074.04-3.577 1.616-6.023 2.972-6.023 2.972 8.213-22.022 23.325-27.724 33.17-28.99a7.092 7.092 0 0 0-.62-.364c-19.912-10.693-42.124 19.632-42.124 19.632s-51.988 13.593-4.885 45.004Z" style="mix-blend-mode:soft-light" opacity=".45"/><path fill="#b77548" d="M1940.55 673.78a37.169 37.169 0 0 1 5.695-14.586 42.795 42.795 0 0 1 10.986-11.634 33.38 33.38 0 0 1 15.25-5.895 26.51 26.51 0 0 1 15.595 3.017c-5.265.87-9.946 1.286-14.274 3.048a52.34 52.34 0 0 0-12.032 6.287c-7.494 5.334-13.989 12.255-21.22 19.762Z"/><path fill="#dd9666" d="M1736.747 743.66c72.53 25.572 172.55 36.11 205.666-45.737a132.21 132.21 0 0 0 5.29-15.99c5.927-22.453 7.64-50.565 3.818-85.395 0 0-7.03-36.961-39.835-67.353-20.335-18.852-50.566-35.16-95.15-38.55 0 0-43.46-7.17-109.245 35.903 0 0-.523 2.068-1.396 5.575-4.064 16.114-15.989 62.557-22.317 77.693-7.711 18.428-41.257 100.546 53.17 133.854Z"/><ellipse cx="1835.639" cy="594.477" rx="28.752" ry="24.818" transform="rotate(-80.632 1835.64 594.477)" style="mix-blend-mode:soft-light" opacity=".45"/><ellipse cx="1834.454" cy="601.662" fill="#1b1723" rx="19.015" ry="16.414" transform="rotate(-80.632 1834.454 601.662)"/><path fill="#fff" d="M1833.49 594.635c-.537 3.252-3.248 5.512-6.055 5.05s-4.647-3.475-4.11-6.727 3.246-5.513 6.053-5.05 4.648 3.475 4.111 6.727ZM1835.668 602.82a2.637 2.637 0 1 1-2.082-3.407 2.838 2.838 0 0 1 2.082 3.406Z"/><path d="M1749.545 581.85c-1.96 11.882-11.862 20.141-22.118 18.45s-16.98-12.695-15.02-24.576 11.863-20.14 22.118-18.448 16.98 12.694 15.02 24.575Z" style="mix-blend-mode:soft-light" opacity=".45"/><ellipse cx="1730.077" cy="584.236" fill="#1b1723" rx="14.419" ry="12.447" transform="rotate(-80.632 1730.085 584.237)"/><path fill="#fff" d="M1729.346 578.907c-.407 2.466-2.462 4.18-4.59 3.83s-3.525-2.636-3.118-5.102 2.462-4.18 4.59-3.829 3.525 2.635 3.118 5.101Z"/><ellipse cx="1729.046" cy="584.792" fill="#fff" rx="2.291" ry="1.978" transform="rotate(-80.63 1729.046 584.792)"/><path fill="#332623" d="M1746.367 573.327a11.734 11.734 0 0 0-.44-1.245 18.917 18.917 0 0 0-.727-1.937 40.398 40.398 0 0 0-2.32-4.794q-.642-1.202-1.376-2.425a77.131 77.131 0 0 0-4.813-6.797c-10.647-13.377-25.07-22.953-25.07-22.953 8.285-11.326 23.264 2.324 23.264 2.324-3.002-4.025-11.798-7.527-12.349-7.748 10.259 2.14 17.612 5.866 22.785 9.733a39.366 39.366 0 0 1 8.202 8.081 30.487 30.487 0 0 1 2.808 4.528 10.576 10.576 0 0 1 .632 1.443l-2.517 5.27 3.827-3.804a12.614 12.614 0 0 1-.668 4.684c.01.018-.01.028-.021.056-1.704 5.156-6.017 9.09-6.685 9.693 7.722-5.566 9.455-11.233 9.455-11.233a9.445 9.445 0 0 1-.107 2.015c-1.385 8.672-13.88 15.11-13.88 15.11Z"/><path fill="#47322f" d="M1741.504 562.926a77.131 77.131 0 0 0-4.813-6.797c6.888-7.224 8.549-14.005 8.63-18.645a39.366 39.366 0 0 1 8.202 8.082 27 27 0 0 1-12.019 17.36ZM1745.2 570.145a40.398 40.398 0 0 0-2.32-4.794c8.71-5.654 12.157-11.252 13.45-15.257a10.576 10.576 0 0 1 .633 1.443l-2.517 5.27 3.827-3.804a12.614 12.614 0 0 1-.668 4.684c.01.018-.01.028-.021.056a31.088 31.088 0 0 1-12.384 12.402ZM1746.367 573.327a11.734 11.734 0 0 0-.44-1.245c8.4-5.026 12.418-10.277 14.32-13.864-1.385 8.672-13.88 15.11-13.88 15.11Z"/><path fill="#d33c3c" d="M1788.987 527.928s-34.073 29.039-4.9 33.08c0 0 26.184 5.944 4.9-33.08Z"/><path fill="#332623" d="M1817.473 575.35a14.33 14.33 0 0 1 1.222-1.035 22.999 22.999 0 0 1 1.941-1.583 48.473 48.473 0 0 1 5.324-3.579q1.394-.858 2.893-1.68a90.096 90.096 0 0 1 9.062-4.094c19.004-7.302 39.371-8.153 39.371-8.153-1.113-17.317-24.596-12.513-24.596-12.513 5.518-2.328 16.468-.372 17.155-.251-11.548-4.337-21.204-5.128-28.78-4.366a44.946 44.946 0 0 0-13.241 3.273 35.995 35.995 0 0 0-5.642 2.984 12.778 12.778 0 0 0-1.536 1.12l-.812 7.196-1.413-6.488a16.349 16.349 0 0 0-2.283 5.386c-.021.012-.007.037-.014.073-1.55 6.553.264 13.49.549 14.559-4.177-10.86-2.335-17.972-2.335-17.972a12.146 12.146 0 0 0-1.16 2.201c-4.08 10.068 4.295 24.921 4.295 24.921Z"/><path fill="#47322f" d="M1828.853 567.473a90.096 90.096 0 0 1 9.062-4.094c-2.304-12.078.31-20.32 3.15-25.283a44.946 44.946 0 0 0-13.241 3.273 34.903 34.903 0 0 0 1.03 26.104ZM1820.636 572.732a48.473 48.473 0 0 1 5.324-3.579c-5.104-11.588-5.011-19.73-3.778-24.8a12.778 12.778 0 0 0-1.536 1.12l-.812 7.196-1.413-6.488a16.349 16.349 0 0 0-2.283 5.386c-.021.012-.007.037-.014.073a39.65 39.65 0 0 0 4.512 21.092ZM1817.473 575.35a14.33 14.33 0 0 1 1.222-1.035c-5.192-10.725-5.883-18.867-5.518-23.887-4.078 10.068 4.296 24.921 4.296 24.921Z"/><path d="M1691.165 705.644c.503 1.213 20.194 44.991 141.915 54.408 54.806 4.235 88.637-26.563 109.333-62.129a132.21 132.21 0 0 0 5.29-15.99c5.927-22.453 7.64-50.565 3.818-85.395 0 0-7.03-36.961-39.835-67.353-20.335-18.852-50.566-35.16-95.15-38.55 0 0-43.46-7.17-109.245 35.903 0 0-.523 2.068-1.396 5.575 20.793-12.514 86.11-45.604 155.7-17.05 84.418 34.6 33.722 231.118-22.65 232.666-56.368 1.522-106.348-7.223-147.78-42.085Z" style="mix-blend-mode:soft-light" opacity=".45"/><path fill="#f9a832" d="M1800.16 373.286s97.744 140.673-16.912 126.576c0 0-105.392-4.13 16.912-126.576Z"/><path d="M1800.16 373.286s97.744 140.673-16.912 126.576c0 0-105.392-4.13 16.912-126.576Z" style="mix-blend-mode:soft-light" opacity=".45"/><path d="M1799.052 384.76s80.118 115.306-13.862 103.751c0 0-86.389-3.384 13.862-103.751Z" style="mix-blend-mode:soft-light" opacity=".45"/><path fill="#f9a832" d="M1797.127 404.681s49.516 71.264-8.567 64.122c0 0-53.391-2.091 8.567-64.122Z"/><path fill="#332623" d="M1911.686 529.185c-.61 4.102-1.235 9.541-1.646 15.883-.335 5.33-.484 11.32-.318 17.73.061 2.243.14 4.515.299 6.852.984 16.16 4.242 34.48 12.01 51.994a111.757 111.757 0 0 0 19.3 29.924s-5.121 46.435-30.693 42.978c0 0 19.04 11.31 37.066-12.613 3.696-14.021 5.766-30.28 5.839-48.997.038-3.67-.017-7.462-.17-11.349-.139-3.963-.354-8.017-.663-12.192-.278-3.67-.615-7.403-1.027-11.228-.048-.533-.096-1.066-.162-1.629 0 0-7.03-36.961-39.835-67.353Z"/><path fill="#47322f" d="M1910.02 569.65c.985 16.16 4.243 34.48 12.01 51.994 11.478 6.017 24.286 10.704 31.513 11.292.038-3.67-.016-7.462-.17-11.349-1.26-1.285-2.753-2.686-4.493-4.234-21.872-19.421-33.213-36.711-38.86-47.703ZM1910.04 545.068c-.335 5.33-.484 11.32-.318 17.73 9.436 10.697 30.485 34.29 42.988 46.597-.278-3.67-.615-7.403-1.027-11.228-22.87-33.717-35.902-47.766-41.643-53.1Z"/><ellipse cx="1961.803" cy="697.436" fill="#f9a832" rx="14.942" ry="12.898" transform="rotate(-80.632 1961.803 697.436)"/><ellipse cx="1961.803" cy="697.436" rx="14.942" ry="12.898" transform="rotate(-80.632 1961.803 697.436)" style="mix-blend-mode:soft-light" opacity=".45"/><path d="M1951.832 695.976c-1.05 6.36 2.55 12.25 8.041 13.156s10.792-3.516 11.841-9.876-2.55-12.251-8.04-13.157-10.793 3.516-11.842 9.876Z" style="mix-blend-mode:soft-light" opacity=".45"/><ellipse cx="1963.768" cy="695.187" fill="#f9a832" rx="5.203" ry="7.423" transform="rotate(-39.585 1963.768 695.187)"/><path fill="#b77548" d="M1769.694 704.248a27.327 27.327 0 0 1-10.608 3.121 39.012 39.012 0 0 1-10.865-.457c-7.105-1.312-14.206-4.422-19.054-10.345a94.211 94.211 0 0 1 10.604.984c3.339.479 6.593 1.016 9.857 1.595 6.539 1.27 12.976 2.47 20.066 5.102Z"/><path fill="#1b1723" d="M1715.904 681.13s30.871 4.33 64.062 7.454c24.406 2.32 50.048 3.96 65.577 2.722 14.6-1.113 20.23-4.764 7.3-12.837a21.032 21.032 0 0 1-.711-.433c-26.046-15.745-63.908-13.641-93.139-8.352-24.498 4.455-42.872 11.136-43.089 11.445Z"/><path fill="#fff" d="M1758.993 669.684c8.97 4.547 27.5 11.724 57.411 13.332 19.952 1.083 30.685-1.423 36.44-4.547a21.032 21.032 0 0 1-.712-.433c-26.046-15.745-63.908-13.641-93.139-8.352Z"/><path fill="#fff" d="M1779.966 688.584c24.406 2.32 50.048 3.96 65.577 2.722-4.61-3.217-11.94-6.774-22.674-8.073a74.667 74.667 0 0 0-10.826-.495c-8.878.216-19.488 1.887-32.077 5.846Z"/><path fill="#332623" d="M1740.89 641.813s-19.512 21.042-37.11 13.39-9.183-16.069-9.183-16.069-14.92 16.452 14.156 29.843 57.389-6.887 57.389-6.887 68.483 45.91 100.238 4.973c0 0-13.008 5.74-32.902-2.678s-27.164-17.599-40.555-20.277Z"/><ellipse cx="1766.109" cy="635.026" fill="#e8ae87" rx="15.505" ry="29.415" transform="rotate(-80.461 1766.109 635.026)"/><path fill="#b77548" d="M1795.188 639.389c.581 3.215-1.395 6.68-3.912 8.926a24.563 24.563 0 0 1-8.856 4.778c-6.378 2.068-13.084 2.057-19.526 1.114-6.397-1.203-12.74-3.382-18.097-7.417a24.58 24.58 0 0 1-6.814-7.41c-1.643-2.947-2.384-6.868-.783-9.72a10.78 10.78 0 0 0 3.876 7.383 29.119 29.119 0 0 0 6.955 4.503 66.986 66.986 0 0 0 33.049 5.558 29.122 29.122 0 0 0 8.047-1.99 10.757 10.757 0 0 0 6.061-5.725Z"/></g></svg>