<svg xmlns="http://www.w3.org/2000/svg" viewBox="0 0 1659.52 2141.92"><g data-name="Layer 1" style="isolation:isolate"><ellipse cx="829.76" cy="1882.405" opacity=".15" rx="334.729" ry="77.245"/><path fill="#1e1918" d="M1092.79 952.443c.837 28.898-37.128 33.013-37.128 33.013s21.458 46.219-55.308 66.027c0 0-11.555 80.067-94.902 40.452 0 0 18.62 81.498-90.147 72.122-108.811 9.376-90.17-72.122-90.17-72.122-83.37 39.615-94.924-40.452-94.924-40.452-76.745-19.808-55.286-66.027-55.286-66.027s-37.965-4.115-37.15-33.013c.836-28.875 28.06-33.827 28.06-33.827s-35.478-5.788-36.314-38.801c-.814-33.014 34.664-33.828 34.664-33.828-41.266-53.657 34.664-61.91 34.664-61.91l205.913-17.211 10.52-.88 10.542.88 205.892 17.21s75.93 8.254 34.664 61.911c0 0 35.5.814 34.664 33.828-.814 33.013-36.315 38.8-36.315 38.8s27.247 4.953 28.061 33.828Z"/><path fill="#f7c434" d="M776.306 1870.728a8.916 8.916 0 0 1-8.296 9.9c-3.588.224-8.116.391-13.42.435-14.101.116-17.657 4.285-28.06 13.622-10.403 9.368-37.223 12.694-58.657 6.175-21.401-6.52-35.63-21.896-28.984-43.59 6.614-21.725 18.964-14.582 18.964-14.582s-15.02-1.428-10.813 14.516c3.403 12.683 20.451 8.953 42.756-4.395a98.847 98.847 0 0 1 1.899-1.18c5.181-3.18 10.618-6.848 16.212-10.905 30.738-22.41 64.532-3.636 64.532-3.636l1.046 9.274.697 6.075Z"/><path d="M713.261 1866.362c-16.62-3.292-20.639-8.175-28.261-10.797a126.246 126.246 0 0 0 4.796-2.756 98.847 98.847 0 0 1 1.899-1.18c5.181-3.18 10.618-6.848 16.212-10.905 30.738-22.41 64.532-3.636 64.532-3.636l1.046 9.274.697 6.075.767 6.657c-10.231 2.77-43.124 10.9-61.688 7.268Z" opacity=".45" style="mix-blend-mode:soft-light"/><path d="M776.343 1871.277a8.9 8.9 0 0 1-8.333 9.352c-3.588.223-8.116.39-13.42.434-14.101.116-17.657 4.285-28.06 13.621-6.037 5.452-17.685 8.847-30.586 9.47-28.092-1.968-48.435-17.488-53.927-32.354-3.938-10.738 1.628-22.234 5.716-28.64a10.262 10.262 0 0 1 10.12-.472s-15.02-1.429-10.813 14.515a9.61 9.61 0 0 0 5.327 6.685c4.012 8.053 16.931 25.38 52.851 23.468 44.552-2.404 25.492-19.197 71.125-16.079Z" opacity=".45" style="mix-blend-mode:soft-light"/><path fill="#b7765a" d="M774.182 1852.437c-28.385 9.55-63.103 8.186-63.103 8.186a44.047 44.047 0 0 0-21.282-7.814 98.847 98.847 0 0 1 1.898-1.18c5.181-3.18 10.618-6.848 16.212-10.905 30.738-22.41 64.532-3.636 64.532-3.636l1.046 9.274Z"/><path d="M774.182 1852.437c-28.385 9.55-63.103 8.186-63.103 8.186a44.047 44.047 0 0 0-21.282-7.814 98.847 98.847 0 0 1 1.898-1.18 57.67 57.67 0 0 0 2.832-1.803c22.008 9.49 52.437.733 47.656-6.44-3.308-4.955-15.329-7.54-23.717-8.765 27.425-12.29 53.973 2.467 53.973 2.467l1.046 9.274Z" opacity=".22" style="mix-blend-mode:soft-light"/><path fill="#f7c434" d="M893.35 1870.728a8.916 8.916 0 0 0 8.296 9.9c3.588.224 8.116.391 13.42.435 14.101.116 17.657 4.285 28.06 13.622 10.403 9.368 37.223 12.694 58.657 6.175 21.401-6.52 35.63-21.896 28.984-43.59-6.614-21.725-18.964-14.582-18.964-14.582s15.02-1.428 10.814 14.516c-3.404 12.683-20.452 8.953-42.757-4.395a99.17 99.17 0 0 0-1.899-1.18c-5.181-3.18-10.617-6.848-16.212-10.905-30.738-22.41-64.532-3.636-64.532-3.636l-1.046 9.274-.697 6.075Z"/><path d="M956.395 1866.362c16.62-3.292 20.639-8.175 28.261-10.797a126.166 126.166 0 0 1-4.796-2.756 99.17 99.17 0 0 0-1.899-1.18c-5.181-3.18-10.618-6.848-16.212-10.905-30.738-22.41-64.532-3.636-64.532-3.636l-1.046 9.274-.697 6.075-.767 6.657c10.231 2.77 43.124 10.9 61.688 7.268Z" opacity=".45" style="mix-blend-mode:soft-light"/><path d="M893.313 1871.277a8.9 8.9 0 0 0 8.333 9.352c3.589.223 8.116.39 13.42.434 14.102.116 17.658 4.285 28.06 13.621 6.037 5.452 17.685 8.847 30.586 9.47 28.092-1.968 48.436-17.488 53.927-32.354 3.938-10.738-1.628-22.234-5.715-28.64a10.262 10.262 0 0 0-10.12-.472s15.02-1.429 10.813 14.515a9.61 9.61 0 0 1-5.328 6.685c-4.012 8.053-16.931 25.38-52.851 23.468-44.552-2.404-25.492-19.197-71.125-16.079Z" opacity=".45" style="mix-blend-mode:soft-light"/><path fill="#b7765a" d="M895.474 1852.437c28.385 9.55 63.103 8.186 63.103 8.186a44.047 44.047 0 0 1 21.283-7.814 99.17 99.17 0 0 0-1.899-1.18c-5.181-3.18-10.617-6.848-16.212-10.905-30.738-22.41-64.532-3.636-64.532-3.636l-1.046 9.274Z"/><path d="M895.474 1852.437c28.385 9.55 63.103 8.186 63.103 8.186a44.047 44.047 0 0 1 21.283-7.814 99.17 99.17 0 0 0-1.899-1.18 57.766 57.766 0 0 1-2.831-1.803c-22.009 9.49-52.438.733-47.657-6.44 3.308-4.955 15.33-7.54 23.717-8.765-27.425-12.29-53.973 2.467-53.973 2.467l-1.046 9.274Z" opacity=".22" style="mix-blend-mode:soft-light"/><path fill="#771131" d="M1013.738 1778.954c-10.6 23.545-137.865 80.915-181.89 83.2l-1.202-9.358c-52.68-4.79-164.495-43.524-176.318-63.963-12.925-22.323 18.376-425.717 18.376-425.717l-2.425-35.589 187.62 5.11-.02 1.062 93.279-12.063 1.202 35.649s71.958 398.144 61.378 421.669Z"/><path d="M991.034 1799.032c-41.099 26.551-125.1 61.358-159.185 63.122l-1.203-9.358c-45.447-4.128-134.919-33.545-166.218-54.665 100.853-37.532 95.663-235.492 95.663-235.492-21.862 73.681-77.448 102.577-107.045 112.997.48-11.362 1.022-23.205 1.623-35.348 87.688-33.885 105.422-131.753 105.422-131.753-42.962 28.875-78.871 33.103-99.771 32.222 5.85-93.54 12.384-177.641 12.384-177.641l-2.425-35.589 187.62 5.11-.02 1.062 93.279-12.063 1.202 35.649s15.89 87.888 31.64 183.532c-21.46-.621-53.662-7.034-91.234-32.282 0 0 17.954 99.09 107.065 132.374a4705.08 4705.08 0 0 1 5.31 36.51c-27.673-8.697-89.11-36.39-112.375-114.78 0 0-5.29 201.346 98.268 236.393Z" opacity=".3" style="mix-blend-mode:soft-light"/><path fill="#b7305a" d="m874.791 1854.158 1.282 19.197c-23.384 12.464-67.73 3.607-67.73 3.607l-.961-7.354c-13.586 2.525-37.071-6.452-37.071-6.452l.22-12.124.38-22.663.221-12.104.38-22.523 7.696-441.106 66.828-14.328 55.787 433.612 2.905 22.443 1.183 9.258 2.885 22.463 1.824 14.208c-17.273 15.97-35.829 13.866-35.829 13.866Z"/><path fill="#ea831c" d="m873.188 1841.794 1.122 10.52c-24.426 21.041-66.507 11.663-66.507 11.663l-.742-9.398c-14.668 2.565-28.976-1.022-36.53-3.547l.38-22.663c19.638 10.6 35.77 2.545 35.77 2.545l.76 6.372c36.07 12.023 64.986-4.87 64.986-4.87l-1.503-15.79c15.83 1.042 28.595-7.594 34.987-13.005l2.885 22.463c-15.249 13.526-35.608 15.71-35.608 15.71Z"/><path fill="#ea831c" d="m870.844 1806.807.56 11.843c-24.426 21.04-63.601 10.38-63.601 10.38l-.742-9.398c-14.287 2.505-28.234-.842-35.929-3.367l.38-22.523c19.358 10.12 35.169 2.225 35.169 2.225l.76 6.372c36.07 12.023 62.4-3.707 62.4-3.707l-1.542-14.368c13.085.862 25.87-6.653 33.524-12.344l2.906 22.443c-14.909 10.66-33.885 12.444-33.885 12.444Z"/><path d="M910.62 1840.292a53.853 53.853 0 0 1-12.544 8.736l-1.603-14.628-2.485-22.824-1.162-10.64-2.405-21.962-34.887-319.654-8.276-9.778 27.533 334.482 1.804 21.862.882 10.62 1.983 24.126 1.103 13.466a33.08 33.08 0 0 1-5.772.06l1.282 19.197a48.013 48.013 0 0 1-10.98 4.088l-1.423-18.215-1.743-22.283-.902-11.502-1.744-22.363-28.554-366.303-18.035-4.509 6.793 373.177.461 25.709.18 9.298.461 25.268.24 13.086c-7.494-.842-12.483-1.844-12.483-1.844l-.962-7.354a35.603 35.603 0 0 1-9.759.22l-.06-14.387-.06-22.003-.04-12.944-.08-21.983-1.223-370.751-11.262-6.012-6.893 374.8-.4 21.56-.24 13.146-.402 21.642-.22 12.444c-3.887-1.223-6.432-2.184-6.432-2.184l.22-12.124.38-22.663.221-12.104.38-22.523 7.696-441.106 66.828-14.328 55.787 433.612 2.905 22.443 1.183 9.258 2.885 22.463Z" opacity=".3" style="mix-blend-mode:soft-light"/><path d="M770.912 1828.369a47.165 47.165 0 0 0 6.452 2.885l-.4 21.642a78.456 78.456 0 0 1-6.433-1.864ZM820.126 1840.452l.461 25.268a100.033 100.033 0 0 1-12.784-1.743l-.742-9.398a59.556 59.556 0 0 1-9.498.862l-.06-22.003a32.117 32.117 0 0 0 9.177-2.524l.762 6.372a86.292 86.292 0 0 0 12.684 3.166ZM879.46 1840.632a56.41 56.41 0 0 1-6.272 1.162l1.122 10.52a48.158 48.158 0 0 1-10.64 6.914l-1.743-22.283a64.131 64.131 0 0 0 10.5-4.529l-1.283-13.546-.22-2.244c.12 0 .26.02.38.02a39.31 39.31 0 0 0 6.172-.14ZM908.796 1826.084a58.725 58.725 0 0 1-12.323 8.316l-2.485-22.824a62.388 62.388 0 0 0 11.923-7.955ZM771.513 1793.742a46.753 46.753 0 0 0 6.492 2.806l-.4 21.56a85.518 85.518 0 0 1-6.473-1.843ZM819.485 1805.445l.461 25.709a86.284 86.284 0 0 1-12.143-2.124l-.742-9.398a61.003 61.003 0 0 1-9.598.862l-.08-21.983a32.34 32.34 0 0 0 9.298-2.544l.76 6.372a87.489 87.489 0 0 0 12.044 3.106Z" opacity=".3" style="mix-blend-mode:soft-light"/><path d="M876.595 1805.886a57.67 57.67 0 0 1-5.751.921l.46 9.84.1 2.003c-.08.08-.18.14-.26.22a47.26 47.26 0 0 1-10.119 6.573l-1.744-22.363a55.82 55.82 0 0 0 10.56-4.448l-1.542-14.368a31.91 31.91 0 0 0 6.492-.24ZM904.729 1794.363a61.932 61.932 0 0 1-11.903 6.573l-2.405-21.962a75.578 75.578 0 0 0 11.402-7.054Z" opacity=".3" style="mix-blend-mode:soft-light"/><path fill="#680e2a" d="M807.379 1869.606c-1.104-41.449-1.769-82.9-2.367-124.353l-1.299-124.36-.371-124.368.143-62.185.566-62.188 1.398 62.175.976 62.178 1.291 124.36.365 124.367c-.043 41.457-.153 82.914-.702 124.374ZM874.798 1854.166c-5.318-40.546-8.727-81.304-12.654-121.992-3.788-40.706-7.158-81.446-10.71-122.17l-9.625-122.26c-3.022-40.77-5.969-81.544-8.451-122.355l5.96 61.035 5.563 61.067 10.543 122.181 9.778 122.242 4.698 61.137c1.556 20.378 2.85 40.788 4.898 61.115Z"/><path fill="#ea831c" d="M686.827 1353.554s125.114 40.577 253.61-16.908l11.836-113.28-299.261 8.454Z"/><path d="m653.006 1231.824 33.824 121.733s125.12 40.578 253.607-16.912l11.843-113.277Zm105.582 124.539-9.759-81.897c42.823 9.017 111.955 3.005 111.955 3.005-16.531 102.197-102.196 78.892-102.196 78.892Z" opacity=".3" style="mix-blend-mode:soft-light"/><path fill="#b76e4e" d="M968.611 928.04c-1.122 82.299-40.577 326.888-40.577 326.888-132.996 33.805-251.343-4.509-251.343-4.509-36.07-91.295-65.386-318.992-65.386-318.992l94.562-10.5 7.234-.801 5.891-.662 6.412-.701 6.392-.721 62.12-6.894c13.245 1.463 36.45 3.768 61.698 6.232a6124.13 6124.13 0 0 1 21.181 2.044c2.806.26 5.61.521 8.416.802 4.329.4 8.617.801 12.825 1.222 37.953 3.567 70.575 6.593 70.575 6.593Z"/><path d="m793.916 911.148-182.61 20.28s29.316 227.696 65.385 318.991c0 0 118.347 38.314 251.343 4.51 0 0 39.455-244.59 40.577-326.888 0 0-134.117-12.384-174.695-16.893Zm67.049 339.271s-91.296 16.913-148.786-15.209l-13.526-260.38s37.212 38.875 180.927 45.648Z" opacity=".3" style="mix-blend-mode:soft-light"/><ellipse cx="807.996" cy="1319.739" fill="#c4b6ae" rx="55.794" ry="59.176"/><ellipse cx="807.996" cy="1319.739" fill="#aa9d96" rx="48.411" ry="51.345"/><ellipse cx="807.996" cy="1319.739" fill="#c4b6ae" rx="34.515" ry="36.607"/><ellipse cx="807.996" cy="1319.739" fill="#aa9d96" rx="23.133" ry="24.535"/><ellipse cx="807.996" cy="1319.739" fill="#dbcec8" rx="19.206" ry="20.37"/><g opacity=".3" style="mix-blend-mode:soft-light"><path d="M863.79 1319.733c0 32.682-24.988 59.173-55.787 59.173-24.808 0-45.828-17.173-53.082-40.898a50.537 50.537 0 0 0 9.459 4.047 52.367 52.367 0 0 0 16.01 2.485c.741 0 1.463-.02 2.184-.06a51.873 51.873 0 0 0 15.009-2.825 43.425 43.425 0 0 0 5.47-2.225 56.68 56.68 0 0 0 24.047-21.741 53.652 53.652 0 0 0 2.946-5.37 60.191 60.191 0 0 0 5.029-15.27 62.072 62.072 0 0 0 1.102-11.682 62.786 62.786 0 0 0-2.725-18.276c18.015 9.8 30.338 29.697 30.338 52.642Z"/><path d="M856.416 1319.733c0 28.354-21.682 51.358-48.413 51.358-19.197 0-35.789-11.863-43.623-29.036a52.367 52.367 0 0 0 16.01 2.485c.741 0 1.463-.02 2.184-.06a51.873 51.873 0 0 0 15.009-2.825 43.425 43.425 0 0 0 5.47-2.225 56.68 56.68 0 0 0 24.047-21.741 53.652 53.652 0 0 0 2.946-5.37 60.191 60.191 0 0 0 5.029-15.27 62.072 62.072 0 0 0 1.102-11.682 61.373 61.373 0 0 0-.48-7.735 52.208 52.208 0 0 1 20.719 42.1Z"/><path d="M842.509 1319.733c0 20.218-15.45 36.61-34.506 36.61a33.5 33.5 0 0 1-25.429-11.863 51.873 51.873 0 0 0 15.009-2.825 43.425 43.425 0 0 0 5.47-2.225 56.68 56.68 0 0 0 24.046-21.741 53.652 53.652 0 0 0 2.947-5.37 60.191 60.191 0 0 0 5.029-15.27 37.884 37.884 0 0 1 7.434 22.684Z"/><path d="M831.127 1319.733c0 13.565-10.36 24.547-23.124 24.547a21.908 21.908 0 0 1-10.42-2.625 43.425 43.425 0 0 0 5.47-2.225 56.68 56.68 0 0 0 24.047-21.741 53.652 53.652 0 0 0 2.946-5.37 25.821 25.821 0 0 1 1.081 7.414Z"/><path d="M827.2 1319.733c0 11.261-8.597 20.379-19.197 20.379a18.446 18.446 0 0 1-4.95-.682 56.68 56.68 0 0 0 24.047-21.741c.06.68.1 1.362.1 2.044Z"/></g><ellipse cx="806.542" cy="1139.159" fill="#f9a832" rx="21.819" ry="25.339" transform="rotate(-5.526 806.542 1139.159)"/><ellipse cx="806.542" cy="1139.159" opacity=".45" rx="21.819" ry="25.339" transform="rotate(-5.526 806.542 1139.159)" style="mix-blend-mode:soft-light"/><ellipse cx="806.542" cy="1139.159" opacity=".45" rx="13.795" ry="16.02" transform="rotate(-5.526 806.542 1139.16)" style="mix-blend-mode:soft-light"/><path fill="#f9a832" d="M874.49 1068.931a119.376 119.376 0 0 1-7.935 14.207 88.028 88.028 0 0 1-8.956 11.583c-11.182 12.203-25.35 20.038-43.284 21.06-2.384.14-4.83.14-7.334.04-2.685-.12-5.31-.36-7.875-.701h-.02c-79.332-10.74-91.455-129.028-93.019-178.984-.2-6.252-.22-11.442-.2-15.209l7.234-.801c5.03 34.987 39.015 144.296 96.505 138.726 45.848-4.429 67.21-90.434 75.605-138.626 4.329.4 8.617.801 12.825 1.222.4 40.297-2.826 104.04-23.545 147.483Z"/><path fill="#f9a832" d="M876.795 919.424c-5.71 20.92-15.35 47.692-30.518 67.25a93.279 93.279 0 0 1-7.575 8.656 72.303 72.303 0 0 1-8.356 7.214 51.484 51.484 0 0 1-31.28 10.5c-54.124-.24-74.323-67.81-80.074-93.58l6.412-.701 6.392-.721c52.18 66.347 99.271 29.356 123.818-.662a6124.13 6124.13 0 0 1 21.181 2.044Z"/><path d="M876.795 919.424c-5.71 20.92-15.35 47.692-30.518 67.25l-2.065-26.191-8.776 3.908 3.266 30.939a72.303 72.303 0 0 1-8.356 7.214l-3.086-38.394c-57.51 17.013-88.51-21.18-101.856-45.387l6.393-.722c52.18 66.348 99.27 29.357 123.817-.66 6.954.66 14.067 1.342 21.181 2.043ZM851.63 1058.197a86.121 86.121 0 0 1 5.971 36.522 86.684 86.684 0 0 0 8.945-11.583c-2.068-10.396-5.332-22.922-10.012-30.386Z" opacity=".45" style="mix-blend-mode:soft-light"/><path d="M874.49 1068.931c-2.865-25.509-13.786-38.774-13.786-38.774s-30.9 69.092-87.407 36.97c-41.12-23.344-59.996-94.14-67.23-130.99-.2-6.253-.22-11.443-.2-15.21l7.234-.801c5.03 34.987 39.015 144.296 96.505 138.726 45.848-4.429 67.21-90.434 75.605-138.626 4.329.4 8.617.801 12.825 1.222.4 40.297-2.826 104.04-23.545 147.483Z" opacity=".45" style="mix-blend-mode:soft-light"/><path fill="#a31c3f" d="M1019.348 907.762s-14.908 280.077-27.652 451.627q-.902 12.113-1.804 23.465a2260.36 2260.36 0 0 1-1.603 20.078c-1.503 18.315-2.945 34.466-4.308 47.692-1.483 14.407-2.846 25.368-4.088 31.981 0 0-63.121 38.334-126.243 10.16l2.305-28.435 2.825-34.847 1.764-21.581 1.843-22.784 38.595-475.112s98.068-4.509 118.366-2.244Z"/><path fill="#a31c3f" d="M1007.926 1109.567v.04a38452.943 38452.943 0 0 1-4.69 77.63q-.81 12.955-1.622 25.89c-3.266 51.518-6.673 102.436-9.92 146.26q-.9 12.113-1.802 23.465a2260.24 2260.24 0 0 1-1.604 20.079c-1.503 18.315-2.945 34.466-4.308 47.691-1.483 14.408-2.846 25.369-4.088 31.981 0 0-63.12 38.334-126.242 10.16l2.304-28.435 2.826-34.847 1.763-21.58 1.844-22.785 15.79-194.513.38-4.549.802-9.758 1.183-14.709 4.128-50.777.3-3.687c10.04.36 20.259.621 26.17.761.4 0 .782.02 1.123.02.36 0 .7.02 1.022.02.3 0 .6.02.861.02 1.343.02 2.104.04 2.104.04a8.206 8.206 0 0 1 2.746-2.705 4.897 4.897 0 0 1 .861-.42 2.89 2.89 0 0 1 .44-.16 4.806 4.806 0 0 1 3.167.1c-.02.02-.06.04-.08.06a9.695 9.695 0 0 1 3.847 2.785s.3.5.782 1.422c9.117-1.623 18.635-3.386 28.755-4.047.38-.04.821-.04 1.242-.08 1.583-.1 3.226-.18 4.85-.18.74-.02 1.482-.02 2.224-.02 1.723-.04 3.467 0 5.21.06-1.242-.241-2.545-.462-3.847-.702a157.716 157.716 0 0 1 19.397 2.324 5.86 5.86 0 0 0 .841-.36l.04.04c-.28.14-.5.24-.801.38 1.022.18 1.944.421 2.745.622 3.387.4 6.913.821 10.46 1.302l2.826.361c2.024.26 4.007.521 5.971.801ZM1007.706 1097.765c-.04 0-.08.04-.14.04.36-.14.72-.28 1.062-.38-.301.12-.622.22-.922.34Z"/><path fill="#ea831c" d="M988.289 1402.932c-1.503 18.315-2.945 34.466-4.308 47.692a170.328 170.328 0 0 1-128.026 13.706l2.825-34.847c28.716 3.146 91.616 5.53 129.509-26.55ZM991.696 1359.389q-.902 12.113-1.804 23.465c-16.652 9.277-73.801 37.652-129.348 25.048l1.843-22.784c17.514 2.906 72.46 8.196 129.309-25.73Z"/><g opacity=".3" style="mix-blend-mode:soft-light"><path d="m937.05 1061.056-30.778 325.585-2.245 23.766-1.943 20.519-3.768 40.037-3.026 31.9a124.171 124.171 0 0 1-18.716-2.584l4.229-30.719 5.29-38.394 2.765-20.118 3.286-23.786Z"/><path d="M1019.348 907.762s-14.908 280.077-27.652 451.627q-.902 12.113-1.804 23.465a2260.36 2260.36 0 0 1-1.603 20.078c-1.503 18.315-2.945 34.466-4.308 47.692-1.483 14.407-2.846 25.368-4.088 31.981 0 0-15.57 9.458-38.975 15.53l2.345-31.921 3.065-42.021 1.704-23.144 1.663-22.824 27.934-381.412c-45.608 15.67-76.808 20.54-85.464 21.681l8.817-108.488s98.068-4.509 118.366-2.244ZM902.084 1430.926l-3.768 40.037a168.208 168.208 0 0 1-17.513-1.403l5.29-38.394c5.09.08 10.46.02 15.99-.24Z"/><path d="M988.289 1402.932c-1.503 18.315-2.945 34.466-4.308 47.692a166.645 166.645 0 0 1-40.718 15.59l3.065-42.021c15.25-4.308 29.878-11.021 41.96-21.26ZM906.271 1386.64l-2.244 23.767a146.017 146.017 0 0 1-15.169.64l3.286-23.785c4.41-.02 9.138-.22 14.127-.621ZM991.696 1359.389q-.902 12.113-1.804 23.465a245.79 245.79 0 0 1-41.86 18.195l1.663-22.824a197.387 197.387 0 0 0 42-18.836Z"/></g><path fill="#a31c3f" d="M595.656 907.762s14.908 280.077 27.653 451.627q.901 12.113 1.803 23.465c.521 6.933 1.062 13.646 1.603 20.078 1.503 18.315 2.946 34.466 4.309 47.692 1.482 14.407 2.845 25.368 4.087 31.981 0 0 63.122 38.334 126.243 10.16l-2.305-28.435-2.825-34.847-1.763-21.581-1.844-22.784-38.594-475.112s-98.068-4.509-118.367-2.244Z"/><path fill="#ea831c" d="M626.715 1402.932c1.503 18.315 2.946 34.466 4.309 47.692a170.328 170.328 0 0 0 128.025 13.706l-2.825-34.847c-28.716 3.146-91.616 5.53-129.509-26.55ZM623.308 1359.389q.902 12.113 1.804 23.465c16.652 9.277 73.802 37.652 129.349 25.048l-1.844-22.784c-17.514 2.906-72.46 8.196-129.308-25.73Z"/><g opacity=".3" style="mix-blend-mode:soft-light"><path d="M761.353 1492.765a120.772 120.772 0 0 1-50.737 10.32l-2.505-32.082-3.186-40.558-1.643-20.9-1.864-23.625-33.183-422.932 6.893 418.022.38 22.664.361 22.383.682 41.259.14 7.975-.54-8.055-2.766-41.78-1.503-22.864h-.02l-1.503-22.884-31.32-472.307c34.366.742 74.984 2.605 74.984 2.605l38.594 475.112 1.843 22.784 1.764 21.581 2.825 34.847Z"/><path d="m675.87 1426.057.68 41.259c-.14-.02-.28-.06-.4-.08l-2.765-41.78c.822.2 1.643.4 2.484.6ZM759.049 1464.33a170 170 0 0 1-50.938 6.673l-3.186-40.558a278.664 278.664 0 0 0 51.299-.962ZM675.128 1381.01l.38 22.663c-1.222-.36-2.444-.72-3.626-1.082h-.02l-1.503-22.883c1.603.48 3.186.901 4.77 1.302ZM754.46 1407.902c-17.333 3.927-34.806 3.867-51.178 1.643l-1.864-23.625a186.258 186.258 0 0 0 51.199-.802Z"/></g><path fill="#1e1918" d="M825.824 765.105v1.761l-10.541-.881 10.541-.88z"/><path fill="#1e1918" d="m815.283 765.985-10.521.881v-1.761l10.521.88z"/><path fill="#b76e4e" d="M991.827 722.122s47.888-39.158 60.904 14.987-52.23 92.233-77.67 57.85 16.766-72.837 16.766-72.837Z"/><path d="M975.059 794.948c11.288 15.24 30.382 16.258 47.012 7.92-24.4-.373-25.35-22.416-25.35-22.416 16.178 19.556 41.231 1.787 44.947-16.524 3.741-18.31-24.582-14.913-24.582-14.913s-15.564-7.598-2.566-25.507c8.323-11.461 22.19-7.85 31.077-3.798-18.156-26.702-53.779 2.404-53.779 2.404s-42.208 38.454-16.759 72.834Z" opacity=".3" style="mix-blend-mode:soft-light"/><path fill="#a35b41" d="M984.122 770.251a43.224 43.224 0 0 1 9.228-12.393 50.45 50.45 0 0 1 12.807-8.903 31.629 31.629 0 0 1 15.892-3.467c5.625.305 11.285 3.078 14.052 7.615a26.573 26.573 0 0 0-13.708-.701 51.906 51.906 0 0 0-12.458 4.502c-4.118 1.977-8.256 4.195-12.487 6.504-4.258 2.294-8.532 4.688-13.326 6.843Z"/><path fill="#f7991e" d="M1024.775 847.912c.025 9.683-6.971 17.556-15.627 17.584s-15.693-7.8-15.719-17.482 6.972-17.556 15.628-17.584 15.693 7.798 15.718 17.482Z"/><path fill="#f4bd21" d="M1016.398 843.73c.015 5.823-4.191 10.556-9.395 10.573s-9.435-4.69-9.45-10.51 4.191-10.556 9.395-10.573 9.435 4.69 9.45 10.51Z"/><ellipse cx="1009.268" cy="821.268" fill="#cec7c2" rx="7.993" ry="8.942"/><path fill="#eae6e4" d="M1012.989 819.11a4.836 4.836 0 1 1-4.82-5.36 5.119 5.119 0 0 1 4.82 5.36Z"/><path fill="#f7991e" d="M1016.392 803.36c.013 4.94-3.556 8.954-7.97 8.969s-8.004-3.978-8.017-8.916 3.556-8.954 7.97-8.968 8.004 3.977 8.017 8.916Z"/><path fill="#f4bd21" d="M1012.12 801.228a4.836 4.836 0 1 1-4.82-5.36 5.119 5.119 0 0 1 4.82 5.36Z"/><path fill="#b76e4e" d="M619.315 726.524s-47.888-39.159-60.904 14.987 52.23 92.232 77.67 57.85-16.766-72.837-16.766-72.837Z"/><path d="M636.083 799.35c-11.287 15.239-30.382 16.258-47.012 7.92 24.401-.373 25.35-22.416 25.35-22.416-16.177 19.556-41.23 1.787-44.947-16.524-3.74-18.31 24.582-14.913 24.582-14.913s15.564-7.598 2.566-25.507c-8.323-11.461-22.19-7.85-31.076-3.798 18.156-26.702 53.778 2.404 53.778 2.404s42.208 38.453 16.76 72.833Z" opacity=".3" style="mix-blend-mode:soft-light"/><path fill="#a35b41" d="M627.02 774.653c-4.794-2.156-9.068-4.549-13.325-6.843-4.231-2.31-8.37-4.527-12.488-6.504a51.906 51.906 0 0 0-12.458-4.502 26.572 26.572 0 0 0-13.707.701c2.766-4.537 8.426-7.31 14.051-7.615a31.627 31.627 0 0 1 15.893 3.467 50.439 50.439 0 0 1 12.806 8.903 43.211 43.211 0 0 1 9.228 12.393Z"/><ellipse cx="602.04" cy="852.364" fill="#f7991e" rx="15.673" ry="17.533"/><path fill="#f4bd21" d="M594.744 848.133c-.015 5.821 4.191 10.554 9.395 10.571s9.435-4.688 9.45-10.51-4.19-10.555-9.395-10.572-9.435 4.689-9.45 10.51Z"/><path fill="#cec7c2" d="M593.881 825.643c-.013 4.939 3.556 8.954 7.97 8.968s8.004-3.977 8.017-8.916-3.556-8.953-7.97-8.967-8.004 3.977-8.017 8.915Z"/><path fill="#eae6e4" d="M598.154 823.511a4.836 4.836 0 1 0 4.819-5.36 5.119 5.119 0 0 0-4.82 5.36Z"/><path fill="#f7991e" d="M594.75 807.762c-.012 4.939 3.556 8.954 7.97 8.968s8.004-3.977 8.017-8.916-3.555-8.953-7.97-8.967-8.004 3.977-8.016 8.915Z"/><path fill="#f4bd21" d="M599.023 805.63a4.836 4.836 0 1 0 4.82-5.36 5.119 5.119 0 0 0-4.82 5.36Z"/><path fill="#b7305a" d="M567.075 467.988s43.33-148.559 194.364-173.319 237.694 159.7 237.694 159.7l-220.362 66.852Z"/><path d="M999.143 454.364 778.77 521.226l-211.702-53.239s7.483-25.684 27.093-57.464c87.815 18.949 279.4 28.655 259.724-39.088-10.828-37.26-53.942-61.779-93.052-76.656.198-.044.418-.066.616-.11 151.024-24.76 237.694 159.695 237.694 159.695Z" opacity=".3" style="mix-blend-mode:soft-light"/><path fill="#b7305a" d="M521.27 620.26s-76.756-125.037 42.091-169.604 220.362 23.522 220.362 23.522 96.563-94.087 199.316-61.9 122.561 163.415 71.803 175.795S521.27 620.26 521.27 620.26Z"/><path d="M1054.847 588.067c-50.752 12.39-533.58 32.199-533.58 32.199s-29.6-48.221-23.57-95.43c14.635-.352 38.603-3.522 71.858-16 59.424-22.273 89.135-30.945 133.703-33.41 21.7-1.21 35.786-10.058 44.348-19.522 22.734 9.288 36.116 18.268 36.116 18.268a258.73 258.73 0 0 1 30.152-24.1c39.88 12.963 164.009 48.595 244.78 19.434 32.508 49.3 29.999 110.33-3.807 118.56Z" opacity=".3" style="mix-blend-mode:soft-light"/><path fill="#b7305a" d="M626.499 727.965s-115.133-29.711-117.61-103.99S642.593 472.94 784.962 517.506c0 0 199.316-54.471 290.927 47.044S933.52 747.773 933.52 747.773Z"/><path d="m933.514 747.762-307.022-19.808s-115.128-29.711-117.593-103.969a63.22 63.22 0 0 1 .11-6.118c44.105 11.18 130.644 10.432 229.88-110.748a289.84 289.84 0 0 1 46.066 10.388 428.71 428.71 0 0 1 44.061-8.804c30.636 27.291 114.996 95.716 187.448 91.755 37.481-2.047 56.012-14.966 64.882-29.382 76.216 98.467-147.832 176.686-147.832 176.686Z" opacity=".3" style="mix-blend-mode:soft-light"/><path fill="#b76e4e" d="M625.88 703.206s1.857 158.462 73.04 201.792 172.7 50.757 207.983 27.235 55.09-61.28 61.28-86.659 11.761-129.885 11.761-129.885-53.44-154.44-200.554-129.473c0 0-105.848 29.092-153.51 116.99Z"/><path d="M979.952 715.695s-5.569 104.498-11.775 129.874c-6.184 25.376-25.992 63.143-61.272 86.67-35.28 23.506-136.806 16.089-207.983-27.246-30.856-18.774-48.683-59.182-58.983-98.952 33.079 56.739 98.753 96.663 187.118 78.527 93.472-19.191 113.895-130.6 108.327-176.422-5.568-45.8-61.91-102.736-155.998-91.6-76.678 9.068-133.615 75.292-152.938 100.404-.507-8.65-.573-13.755-.573-13.755 47.671-87.881 153.511-116.977 153.511-116.977 147.128-24.958 200.566 129.477 200.566 129.477Z" opacity=".3" style="mix-blend-mode:soft-light"/><path fill="#2d2523" d="M996.062 838.504a57.374 57.374 0 0 1-7.923 20.974 65.47 65.47 0 0 1-11.885 14.57c1.167 3.06 2.157 6.03 2.994 8.914 6.162 20.578 4.886 36.622-.617 49.101a57.538 57.538 0 0 1-17.54 22.163c-15.76 12.5-36.14 17.805-48.046 19.962-5.986 1.078-9.838 1.364-9.838 1.364 1.255 19.016-7.152 30.725-18.971 38.494-11.643 7.659-26.587 11.51-38.89 14.724-4.093 1.078-7.879 2.068-11.158 3.125a56.914 56.914 0 0 0-12.677 5.854 51.264 51.264 0 0 0-15.56 15.054c-.485.77-.903 1.453-1.233 2.047q-.528-.891-1.254-2.047a49.302 49.302 0 0 0-4.644-5.964 53.67 53.67 0 0 0-23.593-14.944c-.727-.242-1.497-.462-2.267-.682-4.82-1.431-10.52-2.818-16.507-4.468-15.868-4.358-33.893-10.542-43.467-24.232-4.82-6.867-7.505-15.604-6.757-26.96 0 0-2.64-.199-6.976-.881a143.174 143.174 0 0 1-13.514-2.839 122.665 122.665 0 0 1-19.632-6.91c-23.923-10.895-47.825-32.662-37.613-75.799a122.274 122.274 0 0 1 4.666-15.076 62.732 62.732 0 0 1-9.485-10.894c-8.98-12.831-18.708-35.852-1.079-62.769a86.105 86.105 0 0 1 7.087-9.288 41.874 41.874 0 0 1-3.412-4.996c-4.225-7.064-10.96-21.458-11.202-42.058a102.762 102.762 0 0 1 1.607-19.412 174.27 174.27 0 0 1 11.51-24.76c2.884 26.85 14.416 111.1 48.838 154.061a80.142 80.142 0 0 0 16.968 16.133 55.153 55.153 0 0 0 17.321 8.01h.022a51.047 51.047 0 0 0 10.146 1.52 52.94 52.94 0 0 0 5.613.022s10.718-5.26 8.693-32.485l24.078 1.232s-.88 52.6 14.481 57.861c15.384 5.282 24.078-10.828 21.459-34.664h17.827c-2.62 23.836 6.074 39.946 21.436 34.664 15.362-5.26 14.482-57.86 14.482-57.86l24.056-1.233c-2.003 27.224 8.715 32.485 8.715 32.485a51.323 51.323 0 0 0 20.71-3.126c8.76-3.191 16.55-8.737 23.506-15.934 7.373-7.593 13.777-17.013 19.367-27.533q2.972-5.546 5.635-11.467c16.396-36.424 24.43-81.322 28.017-107.732 1.893 3.345 3.543 7.219 10.498 9.287 6.669 41.333-10.322 67.985-10.322 67.985 15.406 17.63 18.42 33.982 16.33 47.407ZM819.002 1052.803v4.468a25.955 25.955 0 0 0-1.32-2.421q.528-.891 1.32-2.047ZM817.681 1054.85a23.936 23.936 0 0 0-1.342 2.42v-4.467c.528.77.968 1.453 1.342 2.047Z"/><path fill="#a35b41" d="M780.319 866.62a108.651 108.651 0 0 0 13.52.868c4.338.063 8.622-.102 12.937-.276l13.138-.617c2.227-.133 4.5-.183 6.814-.188a51.032 51.032 0 0 1 7.134.213 46.23 46.23 0 0 1-6.062 3.974 69.9 69.9 0 0 1-6.578 2.798 50.727 50.727 0 0 1-14.086 2.614 43.647 43.647 0 0 1-14.417-1.71c-4.616-1.51-9.292-3.731-12.4-7.676ZM695.826 746.948c5.358.539 9.792 1.036 14.096 1.348a120.497 120.497 0 0 0 12.23.443c3.962-.13 7.974-.129 12.229-.655 2.188-.03 4.316-.527 6.71-.608a68.725 68.725 0 0 1 7.556-.528 28.232 28.232 0 0 1-4.708 6.354 29.224 29.224 0 0 1-6.32 4.648 32.53 32.53 0 0 1-30.848.202c-4.622-2.534-8.747-6.185-10.945-11.204Z"/><path fill="#2d2523" d="M678.494 694.952s30.124 71.804 88.31 16.507c0 0-2.476-8.253-16.507-11.967 0 0-21.458 16.919-71.803-4.54ZM921.346 687.195s-30.124-71.804-88.31-16.507c0 0 2.476 8.254 16.507 11.967 0 0 21.458-16.919 71.803 4.54Z"/><path fill="#c13a3a" d="M819.926 657.086a22.284 22.284 0 1 1-41.992-10.41 19.939 19.939 0 0 0 39.44.044 22.097 22.097 0 0 1 2.552 10.366Z"/><ellipse cx="879.428" cy="742.693" opacity=".3" rx="32.947" ry="16.303" transform="rotate(-88.178 879.428 742.693)" style="mix-blend-mode:soft-light"/><ellipse cx="879.204" cy="749.722" fill="#191919" rx="22.015" ry="11.569" transform="rotate(-88.178 879.204 749.722)"/><path fill="#fff" d="M879.66 739.207c-.12 3.795-1.933 6.816-4.049 6.75s-3.733-3.199-3.612-6.993 1.934-6.816 4.05-6.75 3.732 3.199 3.611 6.993ZM883.117 748c-.233 2.307-1.464 4.073-2.751 3.943s-2.14-2.106-1.908-4.414 1.465-4.073 2.752-3.943 2.14 2.106 1.907 4.413Z"/><path fill="#ddcdc3" d="M798.46 485.04c-.4 3.242-.62 5-.62 5l-11.075.27-2.858.078s-27.033-190.053-21.399-210.068c5.297-18.811 11.783 11.72 12.574 15.495-.832-5.155-9.115-56.92-3.33-65.623 6.073-9.136 10.305 42.175 10.305 42.175s-5.186-83.109 5.425-89.79c4.339-2.68 6.128 12.54 6.728 31.587.918 27.604-.716 63.239-.716 63.239s9.315-52.498 14.24-49.205c3.231 2.14.51 31.067-1.764 50.743-.003.11-.032.164-.034.22-1.011 8.848-1.937 15.824-2.154 17.527.128-.602.416-1.917.828-3.725a.79.79 0 0 1 .032-.164c2.316-10.243 8.62-35.09 13.994-29.357 6.118 6.53-16.133 188.96-20.176 221.598Z"/><path d="M774.934 320.519c-3.736 9.98 8.934 140.471 11.831 169.79l-2.858.079s-27.033-190.053-21.399-210.068c5.297-18.811 11.783 11.72 12.574 15.495-.832-5.155-9.115-56.92-3.33-65.623 6.073-9.136 10.305 42.175 10.305 42.175s-5.186-83.109 5.425-89.79c4.339-2.68 6.128 12.54 6.728 31.587-.597-11.049-1.865-19.912-4.287-22.467-7.98-8.516-5.724 103.237-5.724 103.237s-6.012-55.998-9.481-60.24c-3.496-4.243 4.185 56.494 9.924 105.259 5.71 48.763 4.029 121.128 3.982 122.67-.047 1.544-9.503-153.338-13.69-142.104Z" opacity=".3" style="mix-blend-mode:soft-light"/><path d="m792.09 298.263 1.403-20.86s9.316-52.498 14.242-49.205c3.23 2.14.51 31.067-1.765 50.743 1.147-13.312 2.429-31.97.948-36.538-2.358-7.352-14.828 55.86-14.828 55.86ZM798.46 485.04a6.404 6.404 0 0 1-.991.08s23.829-182.824 19.465-200.054c-4.242-16.73-15.275 29.041-15.844 31.506l3.52-23.609a.79.79 0 0 1 .032-.164c2.316-10.243 8.62-35.09 13.993-29.357 6.119 6.53-16.132 188.96-20.175 221.598Z" opacity=".3" style="mix-blend-mode:soft-light"/><ellipse cx="793.597" cy="544.481" fill="#ffa910" rx="56.856" ry="42.72" transform="rotate(-88.256 793.597 544.481)"/><ellipse cx="793.598" cy="544.481" fill="#ff7a0d" rx="43.801" ry="32.911" transform="rotate(-88.256 793.597 544.481)"/><ellipse cx="793.597" cy="544.481" fill="#ddcdc3" rx="37.981" ry="28.538" transform="rotate(-88.256 793.598 544.481)"/><ellipse cx="793.597" cy="544.481" fill="#ffa910" rx="27.505" ry="20.666" transform="rotate(-88.257 793.598 544.481)"/><g opacity=".3" style="mix-blend-mode:soft-light"><path d="M790.622 574.727c-3.754-1.176-7.139.845-9.385 4.265a16.532 16.532 0 0 0-2.215 5.09c-1.525 5.895-.255 12.886 5.85 16.232-20.114-5.062-34.822-28.92-33.964-57.133.493-16.19 6.013-30.609 14.477-40.717.476 4.237 1.765 8.801 4.834 11.752a10.714 10.714 0 0 0 4.261 2.531c3.535 1.17 8.32.936 14.85-1.545 0 0 16.418-6.15 25.804 15.726 9.36 21.85-8.708 48.78-24.512 43.8Z"/><path d="M790.622 574.727c-3.754-1.176-7.139.845-9.385 4.265a16.532 16.532 0 0 0-2.215 5.09c-11.29-7.17-18.86-22.77-18.318-40.603.347-11.39 3.928-21.647 9.515-29.263a10.714 10.714 0 0 0 4.261 2.531c3.535 1.17 8.32.936 14.85-1.545 0 0 16.418-6.15 25.804 15.726 9.36 21.85-8.708 48.78-24.512 43.8Z"/><path d="M790.622 574.727c-3.754-1.176-7.139.845-9.385 4.265-9.948-6.117-16.646-19.745-16.17-35.38.324-10.633 3.908-20.13 9.413-26.865 3.535 1.17 8.32.936 14.85-1.545 0 0 16.418-6.15 25.804 15.726 9.36 21.85-8.708 48.78-24.512 43.8Z"/><ellipse cx="793.597" cy="544.481" rx="27.505" ry="20.666" transform="rotate(-88.257 793.598 544.481)"/></g><ellipse cx="793.597" cy="544.481" fill="#c00003" rx="22.22" ry="16.695" transform="rotate(-88.256 793.598 544.481)"/><path d="M794.278 522.28c-9.219-.281-16.984 9.418-17.358 21.693s6.787 22.429 16.006 22.71c9.22.28 16.985-9.42 17.359-21.694s-6.788-22.429-16.007-22.71Zm4.998 33.37c-4.98.33-9.593-6.005-10.305-14.192-.686-8.161 2.793-15.058 7.802-15.412 4.98-.328 9.593 6.031 10.278 14.193.712 8.187-2.766 15.084-7.775 15.412Z" opacity=".3" style="mix-blend-mode:soft-light"/><path fill="#a35b41" d="M726.157 797.293a83.063 83.063 0 0 0 24.392 36.416c11.03 9.36 24.586 15.104 38.827 17.658a124.992 124.992 0 0 0 21.778 1.918c3.671.11 7.365-.128 11.057-.218 3.681-.39 7.395-.514 11.093-.949 14.812-1.64 29.573-4.651 44.506-7.782a182.36 182.36 0 0 1-43.472 14.574 127.394 127.394 0 0 1-46.547 1.11 91.031 91.031 0 0 1-22.577-7.42 72.498 72.498 0 0 1-19.327-13.882c-11.187-11.25-18.386-26.19-19.73-41.425Z"/><path fill="#a35b41" d="M736.99 797.293a19.14 19.14 0 0 1-5.465 3.342 21.256 21.256 0 0 1-5.053 1.32 23.01 23.01 0 0 1-4.925.072c-1.717-.143-3.33-.555-5.913-.711.154-2.687 2.024-4.603 3.804-5.882a13.186 13.186 0 0 1 5.916-2.21 14.269 14.269 0 0 1 6.008.514 12.368 12.368 0 0 1 5.627 3.555Z"/><path fill="#2d2523" d="M806.831 819.577q-.033 1.221 0 2.443c-.55 23.483-20.798 45.646-55.088 40.276-34.224-5.392-51.83-32.441-52.315-38.428a1.654 1.654 0 0 1 0-.572c.837-4.556 4.952-15.274 11.665-13.733a9.785 9.785 0 0 1 1.145.33 12.335 12.335 0 0 1 7.615 6.889s-6.273-2.465-8.562-2.047c-2.266.396-11.334 9.794 3.522 17.629 6.316 3.323 8.67 2.64 11.422-1.167 3.72-5.128 8.144-15.956 24.056-30.196a30.482 30.482 0 0 1 9.882-6.118c7.813-2.883 15.428-1.343 22.163 2.069 3.41 11.51 10.101 19.323 22.03 19.323h.044c1.563 2.003 2.421 3.302 2.421 3.302Z"/><path fill="#2d2523" d="M861.919 862.296c-35.478 5.568-55.924-18.378-55.088-42.72 0 0 16.529-24.781 36.535-26.146 6.448-.462 13.27 1.54 20.005 7.571a103.35 103.35 0 0 1 17.872 20.402c7.527 11.379 7.57 16.265 17.607 10.96 14.856-7.834 5.788-17.232 3.499-17.628-2.267-.418-8.561 2.047-8.561 2.047a12.543 12.543 0 0 1 8.781-7.22c6.713-1.54 10.828 9.178 11.665 13.734.814 4.534-16.837 33.41-52.315 39Z"/><ellipse cx="804.305" cy="797.138" fill="#ce846a" rx="23.677" ry="18.106"/><path fill="#a35b41" d="M814.666 706.1c8.224 19.177 14.926 39.196 17.64 60.356 1.257 10.56 1.5 21.555-1.724 32.535a33.4 33.4 0 0 1-9.163 15.053 25.14 25.14 0 0 1-17.11 6.628 24.477 24.477 0 0 1-17.186-6.697 34.384 34.384 0 0 1-8.62-15.326c-2.923-10.867-3.161-21.68-2.517-32.264a241.628 241.628 0 0 1 12.688-61.54c-3.16 20.612-5.722 41.285-5.821 61.74.153 10.156.658 20.44 3.617 29.61 1.462 4.533 3.568 8.723 6.589 11.554a15.742 15.742 0 0 0 11.266 4.125 16.435 16.435 0 0 0 11.37-4.238c3.21-2.77 5.412-6.824 6.99-11.239 3.125-8.96 3.251-19.248 2.804-29.332-1.32-20.342-6.048-40.665-10.823-60.965Z"/><path fill="#4c413f" d="M782.071 822.878c-.396 19.258-39.307 28.105-55.836 8.32 3.72-5.129 8.144-15.957 24.056-30.197a30.482 30.482 0 0 1 9.882-6.118c7.835 3.83 22.207 12.963 21.898 27.995ZM712.238 809.893c-1.519.198-3.192 1.1-4.446 3.587-2.047 4.094-4.27 8.518-8.364 10.388a1.654 1.654 0 0 1 0-.572c.837-4.556 4.952-15.274 11.665-13.733a9.785 9.785 0 0 1 1.145.33ZM881.243 821.403c-.88 6.911-4.578 14.526-14.988 19.632-23.528 11.555-49.938-9.486-49.938-9.486 31.01-6.602 29.073-29.293 27.049-38.119 6.448-.462 13.27 1.54 20.005 7.571a103.35 103.35 0 0 1 17.872 20.402ZM626.271 786.101c-4.225-7.064-10.96-21.458-11.202-42.058 9.596 9.552 27.49 30.68 11.202 42.058ZM623.675 863.154c-8.98-12.831-18.708-35.852-1.079-62.769 7.153 7.791 28.545 32.199 28.04 44.568-.397 9.574-13.14 15.802-26.961 18.2ZM666.107 964.922c-23.923-10.894-47.825-32.66-37.613-75.798 7.747-13.029 22.12-26.696 48.53-35.192a80.142 80.142 0 0 0 16.968 16.133c-13.425 16.528-39.373 55.044-27.885 94.857ZM699.253 974.672a143.174 143.174 0 0 1-13.514-2.839c-3.478-21.084-5.788-64.53 25.574-93.757h.022a51.047 51.047 0 0 0 10.146 1.518c-8.429 11.467-28.941 45.272-22.228 95.078ZM756.453 1026.745c-15.868-4.358-33.893-10.542-43.467-24.232-3.323-22.25-2.31-58.301 31.12-102.89 0 0-17.123 66.07 12.347 127.122ZM798.82 1046.839a53.67 53.67 0 0 0-23.593-14.944c-.727-.242-1.497-.462-2.267-.682-10.52-25.31-24.474-77.603 13.249-122.501 0 0-21.7 85.746 12.611 138.127ZM801.065 901.273s26.652 49.806 20.446 136.476a51.264 51.264 0 0 0-15.56 15.054c-.485.77-.903 1.453-1.233 2.047ZM845.346 1028.77a198.265 198.265 0 0 0-23.659-108.503s50.642 19.565 62.549 93.779c-11.643 7.659-26.587 11.51-38.89 14.724ZM961.09 954.226c-15.758 12.5-36.138 17.805-48.045 19.962-4.357-20.182-18.377-47.319-57.509-74.147 0 0 77.515-6.075 105.555 54.185ZM978.631 932.063c-6.272-18.553-24.341-44.237-75.6-55.572 8.76-3.191 16.55-8.737 23.506-15.934 15.142 1.386 36.666 6.382 52.71 22.405 6.163 20.578 4.887 36.622-.616 49.101ZM996.062 838.504a57.374 57.374 0 0 1-7.923 20.974 90.295 90.295 0 0 0-42.235-26.454q2.972-5.546 5.634-11.467c14.13 1.607 30.967 6.471 44.524 16.947Z"/><path fill="#b76e4e" d="M740.268 1168.001c-.72-.28-1.15-.466-1.15-.466s-4.51 2.47-12.761 6.244a390.058 390.058 0 0 1-54.64 19.805c-39.72 11.278-93.927 20.365-154.274 12.909 0 0-.05 0-.05-.047a52.599 52.599 0 0 1-13.43-19.898c-9.979-25.724-7.484-56.433 1.438-87.469 2.111-7.316 4.605-14.679 7.34-21.995.576-1.538 1.15-3.076 1.775-4.567 1.2-3.17 2.494-6.291 3.838-9.413 5.9-13.934 12.664-27.588 19.667-40.403a293.398 293.398 0 0 1 5.182-9.274c1.87-3.308 3.79-6.57 5.708-9.785a482.948 482.948 0 0 1 6.909-11.37 536.611 536.611 0 0 1 6.235-9.834c18.804-29.078 34.444-48.37 34.444-48.37l5.708 26.795 15.687 73.86 3.74 17.663.673 3.215.911 4.194 7.868 37.187.383 1.678c-.575.093-1.103.14-1.678.186-1.103.14-2.256.233-3.359.28a171.321 171.321 0 0 0-25.472 2.656.151.151 0 0 1-.096.047 42.677 42.677 0 0 0-9.162 2.702 102.265 102.265 0 0 1 9.69-2.47h.095a104.175 104.175 0 0 1 27.297-1.77c23.793 1.305 44.277 8.993 63.993 6.897 29.215-3.076 44.853-5.825 44.853-5.825l.384-.746Z"/><path d="M740.077 1163.154a723.427 723.427 0 0 1-14.008 3.822c-21.78 5.732-41.399 9.925-59.052 12.722-135.328 21.575-154.755-35.463-142.043-57.459 7.435-12.955 61.931-19.711 113.931-23.253l-7.291.28-9.979-46.88v3.448l-19.955 38.818-74.596 4.054s.288-.746.817-2.19c4.028-10.578 21.73-56.573 38.856-92.735a498.805 498.805 0 0 1 7.8-15.782c-2.222.202-4.452.353-6.691.353a81.578 81.578 0 0 1-9.241-.565c-19.598 30.836-41.716 71.328-53.224 111.292-8.922 31.036-11.417 61.745-1.438 87.469a52.598 52.598 0 0 0 13.43 19.898.047.047 0 0 0 .05.047c60.347 7.456 114.555-1.631 154.275-12.909a390.058 390.058 0 0 0 54.639-19.805c8.25-3.774 12.761-6.244 12.761-6.244s.431.186 1.15.466Z" opacity=".3" style="mix-blend-mode:soft-light"/><path fill="#b76e4e" d="M737.614 1101.392a31.021 31.021 0 0 0 18.454-24.662c3.028-26.372 12.613-76.32 42.506-98.78 0 0 25.128 11.287 32.532 105.229a31.782 31.782 0 0 0 20.72 27.207l.124.046 3.258 58.771s-40.992 13.473-60.999-4.277c0 0-30.436 17.54-55.128 2.602Z"/><path d="M855.228 1169.206s-41.002 13.474-61-4.267c0 0-30.464 17.51-55.128 2.583l-1.476-66.146a30.985 30.985 0 0 0 18.449-24.647c.118-1.026.236-2.051.357-3.156.207 45.708 18.56 69.532 23.768 60.638 5.25-8.892 8.533-117.095 9.388-147.996l.001-.04a62.262 62.262 0 0 1 8.977-8.212s4.814 2.181 10.85 12.443c-1.452 6.407-2.386 16.593-1.739 32.772 1.797 45.722-6.38 115.069 1.323 123.13 6.329 6.588 18.872-20.514 25.205-51.825a32.258 32.258 0 0 0 17.616 15.918l.121.044Z" opacity=".3" style="mix-blend-mode:soft-light"/><path fill="#894631" d="M798.574 977.95c1.458 15.625 2.047 31.228 2.33 46.824.338 15.598.162 31.184-.114 46.767-.44 15.58-.992 31.156-2.055 46.72-1.009 15.567-2.33 31.126-4.526 46.665-1.468-15.624-2.061-31.228-2.342-46.824-.336-15.598-.16-31.183.127-46.767.452-15.579 1.003-31.156 2.068-46.72 1.011-15.567 2.328-31.126 4.512-46.664Z"/><path fill="#f7c434" d="M670.535 1103.333s51.218-1.032 59.29-2.612l7.18 73.55-2.37.134s-33.467 18.724-71.428 22.328l-10.751-7.87.73-58.202Z"/><path d="M670.535 1103.333s51.218-1.032 59.29-2.612l7.18 73.55-2.37.134s-33.467 18.724-71.428 22.328l-10.751-7.87.73-58.202Z" opacity=".45" style="mix-blend-mode:soft-light"/><path d="m737.022 1174.28-2.409.135s-33.439 18.706-71.397 22.316l-10.75-7.873.705-58.19 17.368-27.344 5.105-.108c-3.636 9.846-11.084 32.814-10.962 55.346 0 0 22.772 5.086 53.849-4.963 0 0-7.169-29.43 4.244-52.17 3.313-.218 5.803-.466 7.057-.703Z" opacity=".45" style="mix-blend-mode:soft-light"/><path fill="#f7c434" d="M741.124 1100.36s-11.071 24.014 9.05 67.957c0 0-.297 10.666-15.54 6.088 0 0-17.189-32.526-6.368-72.962 0 0 5.244-6.952 12.858-1.083ZM659.548 1102.983s-29.296 49.394-9.85 96.4c0 0 7.205 5.25 13.509-2.65 0 0-17.462-33.646 7.328-93.4 0 0-4.392-7.54-10.987-.35Z"/><path d="M734.613 1174.415s-.32-.607-.871-1.782c8.028-.248 8.334-6.998 8.334-6.998-18.498-42.583-7.469-66.022-7.469-66.022a9.816 9.816 0 0 0-1.953-1.25c2.183-.73 5.053-.644 8.47 1.997 0 0-11.075 24 9.05 67.957 0 0-.291 10.67-15.56 6.098ZM663.083 1196.653c-6.305 7.902-13.515 2.658-13.515 2.658-.279-.704-.568-1.37-.818-2.05 2.38.094 5.353-.793 8.125-4.264 0 0-16.165-32.307 8.558-90.504a8.33 8.33 0 0 0-2.104-2.364c4.34-1.547 7.104 3.178 7.104 3.178-24.788 59.727-7.35 93.346-7.35 93.346Z" opacity=".45" style="mix-blend-mode:soft-light"/><path fill="#f9a832" d="m554.86 1085.378 2.446.7c.912.233 1.823.466 2.734.745a289.101 289.101 0 0 1 16.694 5.406c7.436 2.563 15.255 5.639 23.363 9.18a6.827 6.827 0 0 0 .863.373 5.387 5.387 0 0 0 .527.28c.863.372 1.776.792 2.639 1.211.21.092.421.204.632.297a78.224 78.224 0 0 1 25.23-5.008c.376-.524.773-1.067 1.098-1.58l-7.868-37.187.911-2.097c-.575-.699-1.199-1.398-1.822-2.097l-.672-3.215-3.74-17.662a224.424 224.424 0 0 0-18.326-16.496c-12.568-10.113-27.248-19.48-43.75-25.957-.049 0-.049-.046-.095-.046a125.32 125.32 0 0 0-5.038-1.864l-.048.093c-.096.093-.24.326-.48.559-.192.28-.384.559-.623.885a85.469 85.469 0 0 0-1.391 1.911c-1.344 1.77-3.023 4.24-5.037 7.316a239.7 239.7 0 0 0-7.532 12.21 50.688 50.688 0 0 0-1.248 2.143c-.43.746-.863 1.491-1.294 2.284-.384.745-.816 1.537-1.248 2.33a301.331 301.331 0 0 0-19.235 42.732 142.343 142.343 0 0 0-1.488 4.194.274.274 0 0 0-.048.187 123.263 123.263 0 0 0-1.487 4.52c-.528 1.584-1.056 3.262-1.584 4.94 0 0 .24 0 .673.046.286 0 .67.047 1.103.093a8.863 8.863 0 0 1 1.055.093c.527.047 1.151.093 1.822.187h.144c.48.046 1.056.093 1.632.186a17.479 17.479 0 0 1 2.014.28c.48.046.96.093 1.536.186.288.047.624.047.959.093 1.823.28 3.886.56 6.092.979 3.358.513 7.148 1.212 11.322 2.05.479.14 1.007.233 1.486.327 1.632.373 3.311.745 5.086 1.165.719.14 1.439.326 2.206.512h.048c3.07.746 6.285 1.585 9.69 2.516Z"/><path d="M548.91 1003.642c-2.158-.932-4.076-1.818-5.803-2.517 2.014-3.075 3.693-5.545 5.037-7.316a85.469 85.469 0 0 1 1.391-1.91c.239-.327.431-.607.623-.886.24-.233.384-.466.48-.56l.048-.092a125.32 125.32 0 0 1 5.038 1.864c.046 0 .046.046.096.046 16.501 6.478 31.181 15.844 43.749 25.957a224.424 224.424 0 0 1 18.325 16.496l3.74 17.662.673 3.215a174.256 174.256 0 0 0-28.735-26.19 253.401 253.401 0 0 0-43.894-25.443c-.239-.093-.527-.233-.767-.326ZM554.86 1085.378l2.446.7c4.89 1.369 10.054 2.999 15.466 4.803.852.29 1.684.563 2.549.867 1.234.437 2.466.88 3.735 1.338l.185.069c6.684 2.369 13.602 5.148 20.807 8.3.288.14.528.234.816.374a2.61 2.61 0 0 1 .528.232c.911.42 1.823.793 2.734 1.212.21.097.421.2.632.297a78.224 78.224 0 0 1 25.23-5.008c.376-.524.773-1.067 1.098-1.58l-7.868-37.187-2.686 6.198s-9.787-13.887-31.133-28.846a194.662 194.662 0 0 0-44.853-23.253c-.432-.14-.911-.326-1.343-.466-2.11-.746-4.223-1.445-6.381-2.19-.383.652-.815 1.397-1.247 2.097a50.688 50.688 0 0 0-1.248 2.143c-.43.746-.863 1.491-1.294 2.284-.384.745-.816 1.537-1.248 2.33 1.871.745 3.934 1.63 6.236 2.61.528.186 1.055.419 1.632.651a304.108 304.108 0 0 1 44.325 23.627c11.177 7.27 22.115 15.75 31.181 25.35l-10.985 16.777s-13.96-8.389-35.69-15.705a199.269 199.269 0 0 0-49.027-10.205c-.384-.047-.72-.047-1.103-.093-1.92-.14-3.838-.187-5.805-.28a142.343 142.343 0 0 0-1.487 4.194.274.274 0 0 0-.048.187 123.263 123.263 0 0 0-1.487 4.52c-.529 1.584-1.056 3.262-1.584 4.94 0 0 .24 0 .672.046.287 0 .672.047 1.104.093a8.863 8.863 0 0 1 1.055.093c.527.047 1.151.093 1.822.187h.144c.48.046 1.056.093 1.632.186a17.479 17.479 0 0 1 2.014.28c.48.046.96.093 1.536.186.288.047.624.047.959.093 1.823.28 3.886.56 6.092.979 3.358.56 7.148 1.212 11.322 2.097 2.062.42 4.269.932 6.571 1.445.72.186 1.488.326 2.207.512h.048c3.07.746 6.284 1.585 9.69 2.516Z" opacity=".45" style="mix-blend-mode:soft-light"/><path fill="#f9a832" d="m602.584 1099.233-2.55 2.222c-51.696-22.731-92.086-24.794-92.086-24.794.515-1.67 1.032-3.344 1.58-4.948 17.396 2.637 62.246 10.747 93.056 27.52Z"/><path fill="#894631" d="M631.635 1099.247a189.932 189.932 0 0 1-22.583 5.46c-7.535 1.467-15.082 2.62-22.635 3.64-7.56.988-15.108 1.881-22.696 2.582l-22.976 2.094c6.712-4.236 14.238-6.78 21.715-8.847a163.574 163.574 0 0 1 22.793-4.552 194.117 194.117 0 0 1 23.1-1.726 132.085 132.085 0 0 1 23.282 1.349Z"/><path fill="#894631" d="M605.37 971.632c3.684 10.328 6.684 20.796 9.573 31.287q4.19 15.765 7.734 31.665c2.38 10.596 4.485 21.248 6.505 31.918 1.897 10.695 3.704 21.409 5.126 32.202l-.27-.743.85 1.89-1.903-1.322c8.462 1.79 16.898 3.768 25.277 6.148-8.71-.023-17.365-.447-25.992-1.06l-1.11-.08-.794-1.245-1.114-1.747-.109-.171-.162-.573c-2.957-10.478-5.529-21.034-8.01-31.608-2.36-10.6-4.634-21.218-6.633-31.892q-3.053-16-5.404-32.145c-1.49-10.78-2.869-21.581-3.564-32.524Z"/><path fill="#b76e4e" d="M985.924 1106.481s-.04 0-.08-.06a5.86 5.86 0 0 0 .841-.36l.04.04c-.28.14-.5.24-.801.38ZM1007.566 1097.805c.36-.14.72-.28 1.062-.38-.301.12-.622.22-.922.34-.04 0-.08.04-.14.04Z"/><path fill="#b76e4e" d="M1082.83 1191.184a52.49 52.49 0 0 1-13.426 19.898.059.059 0 0 1-.06.06 366.985 366.985 0 0 1-67.73 1.984 403.227 403.227 0 0 1-64.364-9.258h-.08a396.836 396.836 0 0 1-12.744-3.106h-.02c-.14-.04-.26-.06-.4-.1-.021 0-.04-.02-.061-.02a372.552 372.552 0 0 1-8.857-2.404c-1.984-.562-3.948-1.123-5.871-1.744a401.207 401.207 0 0 1-30.66-10.44 359.64 359.64 0 0 1-16.25-6.793q-.992-.42-1.864-.841a245.086 245.086 0 0 1-6.572-3.106c-1.444-.682-2.625-1.283-3.568-1.744l-.02-.02c-1.723-.882-2.604-1.362-2.604-1.362s-.441.18-1.143.46l.04-1.162v-.02l.2-6.192.943-28.194c.02-.02.02-.02 0-.04l.66-19.658v-.02l.281-8.356v-.02l.12-3.727c.241.461.381.742.381.742s1.323.24 3.908.64c1.042.161 2.264.361 3.707.562.661.1 1.343.2 2.084.3h.02c1.824.281 3.888.562 6.212.882 5.27.722 11.802 1.543 19.578 2.425 2.945.34 6.071.681 9.357 1.022a80.2 80.2 0 0 0 8.196.38 98.596 98.596 0 0 0 10.2-.74c1.643-.181 3.286-.402 4.97-.662.02.02.06 0 .1 0 .16-.02.32-.04.5-.08 1.504-.22 3.026-.461 4.55-.722 1.803-.3 3.626-.62 5.47-.942 9.117-1.623 18.635-3.386 28.755-4.047.38-.04.821-.04 1.242-.08 1.583-.1 3.226-.18 4.85-.18.74-.02 1.482-.02 2.224-.02 1.723-.04 3.467 0 5.21.06a103.163 103.163 0 0 1 15.009 1.903h.1a3.526 3.526 0 0 0 .4.08.074.074 0 0 0 .06.02 2.333 2.333 0 0 1 .361.08c2.866.621 5.851 1.363 8.878 2.285a32.344 32.344 0 0 0-6.012-1.944l-.42-.12c3.386.4 6.912.821 10.459 1.302l2.826.361c2.024.26 4.007.521 5.971.801.18-3.005.36-5.991.521-8.977.08-1.062.14-2.104.18-3.166v-.02c.02-.02.02-.02.02-.04l.24-4.328q.362-5.982.702-11.863c.722-12.043 1.403-23.766 2.044-35.047.26-4.67.542-9.278.782-13.807.22-3.787.44-7.534.641-11.221q.48-8.326.942-16.211c.14-2.706.28-5.37.44-7.976.461-8.215.902-16.01 1.303-23.325 2.906 4.208 5.931 8.697 8.998 13.507a387.698 387.698 0 0 0 3.125 4.829c1.002 1.643 2.064 3.306 3.106 4.99 1.163 1.863 2.304 3.726 3.467 5.59a141.895 141.895 0 0 1 3.447 5.79 417.623 417.623 0 0 1 5.71 9.78c.401.701.822 1.403 1.223 2.104.4.721.781 1.423 1.182 2.144a5.841 5.841 0 0 1 .481.782c.38.7.762 1.422 1.142 2.124.381.72.762 1.422 1.142 2.123 1.744 3.207 3.507 6.473 5.19 9.74a522.048 522.048 0 0 1 5.09 10.059 835.35 835.35 0 0 1 4.449 9.378c.3.641.58 1.302.921 2.004 1.303 2.825 2.545 5.73 3.788 8.616a1.807 1.807 0 0 1 .24.601 385.572 385.572 0 0 1 3.848 9.398c.6 1.523 1.182 3.046 1.763 4.59a113.368 113.368 0 0 1 2.024 5.49c.621 1.823 1.282 3.687 1.863 5.51l1.443 4.328a148.91 148.91 0 0 1 2.004 6.653c8.938 31.04 11.422 61.759 1.443 87.468Z"/><path d="M999.129 1108.405c-3.286-.42-6.632-.801-10.039-1.182-.942-.14-1.904-.24-2.866-.34-.34-.04-.68-.04-1.022-.08h-.04a383.024 383.024 0 0 0-11.281-1.123c-3.627-.32-7.334-.661-11.021-.922.74-.02 1.482-.02 2.224-.02 1.723-.04 3.467 0 5.21.06-1.242-.24-2.545-.46-3.847-.701a157.716 157.716 0 0 1 19.397 2.324 5.86 5.86 0 0 0 .841-.36l.04.04c-.28.14-.5.24-.801.38 1.022.18 1.944.421 2.745.622 3.387.4 6.913.821 10.46 1.302Z" opacity=".3" style="mix-blend-mode:soft-light"/><path d="M1082.83 1191.184a52.49 52.49 0 0 1-13.426 19.898.059.059 0 0 1-.06.06 366.985 366.985 0 0 1-67.73 1.984 403.227 403.227 0 0 1-64.364-9.258h-.08a396.836 396.836 0 0 1-12.744-3.106h-.02c-.14-.04-.26-.06-.4-.1-.021 0-.04-.02-.061-.02a372.552 372.552 0 0 1-8.857-2.404c-1.984-.562-3.948-1.123-5.871-1.744a401.207 401.207 0 0 1-30.66-10.44 359.64 359.64 0 0 1-16.25-6.793q-.992-.42-1.864-.841a245.086 245.086 0 0 1-6.572-3.106c-1.444-.682-2.625-1.283-3.568-1.744l-.02-.02c-1.723-.882-2.604-1.362-2.604-1.362s-.441.18-1.143.46l.04-1.162v-.02l.14-3.667c1.343.38 2.686.762 4.029 1.123h.02c.941.26 1.883.52 2.805.78q1.111.302 2.224.602l4.93 1.322c1.823.462 3.646.982 5.47 1.443a887.415 887.415 0 0 0 13.165 3.227q19.838 4.659 37.151 7.494c1.103.22 2.165.36 3.267.561 2.845.46 5.65.882 8.396 1.263h.08c1.724.24 3.427.48 5.11.68.3.04.581.08.882.121 2.665.34 5.27.641 7.835.922 24.687 2.585 44.846 2.244 61.157-.1 59.795-8.597 67.99-44.065 58.592-60.356-4.488-7.815-26.07-13.346-53.903-17.314.18-3.005.36-5.991.521-8.977l51.258 2.766s-.28-.742-.801-2.205c-1.102-2.925-3.326-8.556-6.252-16.03v-.04c-.48-1.243-.982-2.545-1.523-3.888-1.303-3.306-2.745-6.873-4.268-10.64-4.328-10.721-9.418-23.085-14.829-35.529-1.482-3.486-3.025-6.933-4.548-10.38q-2.074-4.658-4.189-9.237c-1.082-2.365-2.183-4.69-3.266-6.974-.862-1.823-1.723-3.587-2.585-5.37a354.895 354.895 0 0 0-3.005-6.152c.46-8.215.901-16.01 1.302-23.325 2.906 4.208 5.931 8.697 8.998 13.507a387.698 387.698 0 0 0 3.125 4.829c1.042 1.643 2.104 3.286 3.146 4.97h.02v.02c1.143 1.823 2.245 3.687 3.407 5.59a141.895 141.895 0 0 1 3.447 5.79 417.623 417.623 0 0 1 5.71 9.78h.04c.401.701.782 1.403 1.183 2.104.4.721.782 1.423 1.182 2.144a5.841 5.841 0 0 1 .481.782c.38.7.762 1.422 1.142 2.124.401.7.802 1.402 1.202 2.124a400.78 400.78 0 0 1 5.13 9.738 522.048 522.048 0 0 1 5.09 10.06 835.35 835.35 0 0 1 4.449 9.378c.3.641.58 1.302.921 2.004 1.303 2.825 2.545 5.73 3.788 8.616a1.807 1.807 0 0 1 .24.601 385.572 385.572 0 0 1 3.848 9.398c.6 1.523 1.182 3.046 1.763 4.59a113.368 113.368 0 0 1 2.024 5.49c.621 1.823 1.282 3.687 1.863 5.51l1.443 4.328a148.91 148.91 0 0 1 2.004 6.653c8.938 31.04 11.422 61.759 1.443 87.468Z" opacity=".3" style="mix-blend-mode:soft-light"/><path fill="#f7c434" d="M934.325 1193.509v.02l-3.828 2.805-6.071 4.428-.722.521v.02l-.1.06-.02.02h-.02a165.121 165.121 0 0 1-24.787-4.388c-1.583-.4-3.126-.801-4.65-1.242a211.479 211.479 0 0 1-15.95-5.15 217.975 217.975 0 0 1-12.424-4.99c-.681-.28-1.343-.58-1.983-.861-.301-.14-.622-.28-.922-.421-.621-.28-1.203-.541-1.764-.802a42.673 42.673 0 0 1-1.643-.781l-1.463-.701c-.48-.22-.922-.441-1.322-.642-2.886-1.422-4.489-2.324-4.489-2.324l-.02-.02-2.364-.12.2-2.144.32-3.227.301-3.045v-.02l.16-1.583 2.345-24.127.48-4.87v-.12l1.804-18.395v-.04l1.383-14.167.18-1.824a10.124 10.124 0 0 0 1.062.16l.02.02c.261.02.541.06.842.101.52.06 1.122.12 1.784.18.36.02.761.06 1.161.1.682.06 1.423.12 2.205.18 5.51.381 13.165.722 20.94 1.003 10.04.36 20.259.621 26.17.761.4 0 .781.02 1.122.02.361 0 .701.02 1.022.02.3 0 .602.02.862.02 1.343.02 2.104.04 2.104.04l.3.481 1.444 2.265 10.84 17.053v.02l4.77 7.514.18 14.648.4 31.52v.04l.06 4.89Z"/><path d="M934.325 1193.509v.02l-3.828 2.805-6.071 4.428-.722.521v.02l-.1.06-.02.02h-.02a165.121 165.121 0 0 1-24.787-4.388c-1.583-.4-3.126-.801-4.65-1.242a211.479 211.479 0 0 1-15.95-5.15 217.975 217.975 0 0 1-12.424-4.99c-.681-.28-1.343-.58-1.983-.861-.301-.14-.622-.28-.922-.421-.621-.28-1.203-.541-1.764-.802a42.673 42.673 0 0 1-1.643-.781l-1.463-.701c-.48-.22-.922-.441-1.322-.642-2.886-1.422-4.489-2.324-4.489-2.324l-.02-.02-2.364-.12.2-2.144.32-3.227.301-3.045v-.02l.16-1.583 2.345-24.127.48-4.87v-.12l1.804-18.395v-.04l1.383-14.167.18-1.824a10.124 10.124 0 0 0 1.062.16l.02.02c.261.02.541.06.842.101.52.06 1.122.12 1.784.18.36.02.761.06 1.161.1.682.06 1.423.12 2.205.18 5.51.381 13.165.722 20.94 1.003 10.04.36 20.259.621 26.17.761.4 0 .781.02 1.122.02.361 0 .701.02 1.022.02.3 0 .602.02.862.02 1.343.02 2.104.04 2.104.04l.3.481 1.444 2.265 10.84 17.053v.02l4.77 7.514.18 14.648.4 31.52v.04l.06 4.89Z" opacity=".45" style="mix-blend-mode:soft-light"/><path d="m934.325 1193.509-3.828 2.785-6.071 4.468h-.02l-.682.501-.02.02-.1.06v.02l-.02.02h-.02a165.121 165.121 0 0 1-24.787-4.388c-1.583-.4-3.126-.801-4.65-1.242a211.479 211.479 0 0 1-15.95-5.15 217.975 217.975 0 0 1-12.424-4.99c-.681-.28-1.343-.58-1.983-.861-.301-.14-.622-.28-.922-.421-.621-.28-1.203-.541-1.764-.802a42.673 42.673 0 0 1-1.643-.781l-1.463-.701c-.48-.22-.922-.441-1.322-.642-2.886-1.422-4.489-2.324-4.489-2.324h-.08l-2.304-.14h-.02l.2-2.144h.02l.3-3.247.301-3.025.16-1.603 2.345-24.027a.181.181 0 0 0 .02-.1l.48-4.93v-.06l1.804-18.395v-.04l1.383-14.167.18-1.824a10.124 10.124 0 0 0 1.062.16l.02.02c.261.02.541.06.842.101.52.06 1.122.12 1.784.18.36.02.761.06 1.161.1.682.04 1.403.1 2.185.14 0 .02.02.02.02.04.38.742.721 1.504 1.062 2.265 9.86 22.383 3.166 49.876 3.166 49.876a132.04 132.04 0 0 0 12.283 3.326c24.608 5.41 41.56 1.643 41.56 1.643.1-20.138-5.81-40.618-9.679-51.759-.46-1.342-.9-2.545-1.282-3.587.4 0 .781.02 1.122.02.361 0 .701.02 1.022.02.3 0 .602.02.862.02 1.343.02 2.104.04 2.104.04l.3.481 1.444 2.265 10.84 17.053v.02l4.77 7.514.02.02.18 14.748.38 31.4v.04l.06 4.89Z" opacity=".45" style="mix-blend-mode:soft-light"/><path fill="#f7c434" d="M845.664 1105.02s11.071 24.014-9.05 67.957c0 0 .297 10.666 15.54 6.088 0 0 17.189-32.526 6.368-72.962 0 0-5.244-6.952-12.858-1.083ZM942.08 1187.337a86.7 86.7 0 0 1-4.148 14.588c-.24.661-.501 1.302-.762 1.944a.713.713 0 0 0-.08.18c-.12.08-.34.22-.64.4-1.905 1.063-7.696 3.447-12.866-3.065l.02-.02v-.02c.04-.08.16-.321.34-.702a65.28 65.28 0 0 0 4.229-15.028c2.545-15.03 2.905-40.458-10.78-74.804q-.541-1.413-1.143-2.826a8.206 8.206 0 0 1 2.746-2.705 4.897 4.897 0 0 1 .861-.42 4.949 4.949 0 0 1 3.527 0 9.695 9.695 0 0 1 3.847 2.785s.3.5.782 1.422c3.967 7.294 21.1 41.64 14.067 78.27Z"/><path d="M852.175 1179.075s.32-.607.871-1.782c-8.028-.248-8.334-6.998-8.334-6.998 18.498-42.583 7.469-66.022 7.469-66.022a9.81 9.81 0 0 1 1.953-1.25c-2.183-.73-5.053-.644-8.47 1.997 0 0 11.075 24-9.05 67.957 0 0 .291 10.67 15.56 6.098ZM938.032 1201.925c-.22.64-.521 1.282-.782 1.944-.02.04-.02.06-.04.1a.492.492 0 0 1-.12.08c-.12.08-.34.22-.64.4-2.005 1.063-7.656 3.227-12.746-3.145v-.02l.02-.02c.04-.06.14-.28.281-.602a62.878 62.878 0 0 0 4.248-15.048c2.565-15.01 2.946-40.438-10.76-74.804-.301-.762-.602-1.543-.943-2.345-.06-.16-.14-.34-.2-.5a8.755 8.755 0 0 1 2.646-2.686 4.897 4.897 0 0 1 .861-.42 4.824 4.824 0 0 1 3.607-.06c-.02.02-.06.04-.08.06a8.02 8.02 0 0 0-2.024 2.304c.4.962.801 1.903 1.182 2.845q3.817 9.348 6.292 17.775v.02a153.862 153.862 0 0 1 4.95 22.162c0 .04.02.08.02.12a111.26 111.26 0 0 1 .38 31.4v.04c-.26 1.724-.52 3.327-.82 4.77a57.633 57.633 0 0 1-2.867 9.999v.04c-.36.882-.58 1.322-.58 1.322 2.724 3.427 5.67 4.349 8.015 4.269Z" opacity=".45" style="mix-blend-mode:soft-light"/><path fill="#f9a832" d="M985.844 1106.421a3.431 3.431 0 0 1-.541.281c-.02 0-.02 0-.04.02a.418.418 0 0 0-.1.08c-.822.36-1.684.742-2.486 1.122a3.588 3.588 0 0 0-.62.321c-2.706-.982-5.431-1.864-8.176-2.565-.28-.08-.561-.14-.842-.22-.901-.24-1.824-.441-2.745-.661-1.242-.241-2.545-.462-3.847-.702a157.716 157.716 0 0 1 19.397 2.324ZM1078.842 1081.313s-.26.02-.741.04a4.467 4.467 0 0 0-.662.06c-.16.02-.32.02-.5.04-.28.02-.562.04-.882.08-.38.04-.822.08-1.283.12-.18.021-.38.061-.58.081h-.141c-.42.04-.942.08-1.443.16-.28.02-.58.06-.882.1a1.82 1.82 0 0 0-.46.06c-.28.04-.561.08-.862.141-.481.04-.962.1-1.523.18a3.888 3.888 0 0 1-.481.06.226.226 0 0 0-.16.02 1.73 1.73 0 0 0-.32.02c-.202.04-.422.06-.642.1-.783.114-1.612.234-2.465.366l-.214.033c-.894.14-1.82.297-2.772.483l-2.604.421-1.143.18c-.46.08-.941.16-1.422.261-.481.08-.962.16-1.463.26-.28.06-.561.12-.842.16-.2.041-.42.08-.64.141-.362.06-.702.14-1.063.2-.16.04-.32.06-.48.1-.562.101-1.103.221-1.664.321-.22.06-.461.12-.682.16a.286.286 0 0 1-.14.04c-.24.04-.46.081-.681.12-.46.101-.942.221-1.423.342-.34.08-.701.16-1.062.24-.842.2-1.703.38-2.585.581a314.328 314.328 0 0 0-14.608 3.788c-.841.2-1.723.44-2.565.7a6.664 6.664 0 0 0-1.021.322c-3.648 1.021-7.435 2.244-11.363 3.586-.14.04-.24.1-.38.14-.822.241-1.684.562-2.545.882-.44.14-.922.28-1.383.461-.48.16-.941.34-1.423.501l.24-4.328q.362-5.982.702-11.863c.722-12.043 1.403-23.766 2.044-35.047.26-4.67.542-9.278.782-13.807.22-3.787.44-7.534.641-11.221q.48-8.326.942-16.211a81.009 81.009 0 0 1 3.446-1.824 90.118 90.118 0 0 1 4.85-2.364c.821-.421 1.683-.802 2.544-1.183 2.004-.921 4.068-1.763 6.132-2.605.02 0 .04 0 .04-.02h.02c.02 0 .02-.02.04-.02a113.96 113.96 0 0 1 5.03-1.863l.06.1c.1.08.24.32.481.54.18.281.381.562.622.903.38.5.861 1.162 1.382 1.903 1.343 1.764 3.025 4.248 5.05 7.314a219.405 219.405 0 0 1 6.272 10.12c.38.64.822 1.382 1.262 2.084.421.701.862 1.442 1.242 2.144.421.761.862 1.503 1.283 2.284.4.742.822 1.543 1.262 2.345a303.887 303.887 0 0 1 19.238 42.722c.52 1.402 1.001 2.805 1.482 4.188a.36.36 0 0 1 .04.2 84.544 84.544 0 0 1 1.483 4.509c.541 1.623 1.062 3.286 1.583 4.95Z"/><path d="M1043.695 1005.768c-1.724.702-3.647 1.583-5.811 2.525-.24.08-.522.22-.762.32a266.151 266.151 0 0 0-13.827 6.794 232.903 232.903 0 0 0-10.239 5.69q.48-8.325.942-16.21a81.009 81.009 0 0 1 3.446-1.824 90.118 90.118 0 0 1 4.85-2.364c.821-.421 1.683-.802 2.544-1.183 2.004-.921 4.068-1.763 6.132-2.605.02 0 .04 0 .04-.02h.02c.02 0 .02-.02.04-.02a113.96 113.96 0 0 1 5.03-1.863l.06.1c.1.08.24.32.481.54.18.281.381.562.622.903.38.5.861 1.162 1.382 1.903 1.343 1.764 3.025 4.248 5.05 7.314ZM1055.016 1024.745c-1.883.741-3.887 1.623-6.192 2.605h-.06c-.52.18-1.042.42-1.622.64a302.238 302.238 0 0 0-15.11 7.034 295.112 295.112 0 0 0-20.399 11.102c.26-4.67.542-9.278.782-13.807a191.515 191.515 0 0 1 15.069-7.674c4.589-2.145 9.538-4.189 14.768-6.112.42-.14.902-.32 1.343-.461h.04c2.124-.742 4.188-1.443 6.332-2.184.38.64.822 1.382 1.262 2.084.421.701.862 1.442 1.243 2.144.42.761.861 1.503 1.282 2.284.4.742.822 1.543 1.263 2.345ZM986.725 1106.1c-.28.141-.5.241-.801.381a3.642 3.642 0 0 0-.521.221c-.02.02-.04.04-.06.04-.04.02-.1.04-.14.06h-.04c-.822.36-1.684.742-2.486 1.122a3.588 3.588 0 0 0-.62.321c-2.706-.982-5.431-1.864-8.176-2.565-.28-.08-.561-.14-.842-.22-.901-.24-1.823-.441-2.745-.661-1.242-.241-2.545-.462-3.847-.702a157.716 157.716 0 0 1 19.397 2.324 5.86 5.86 0 0 0 .841-.36ZM1007.566 1097.805c.36-.14.72-.28 1.062-.38-.301.12-.622.22-.922.34-.04 0-.08.04-.14.04ZM1078.842 1081.313s-.26.02-.741.04a4.467 4.467 0 0 0-.662.06c-.16.02-.32.02-.5.04-.28.02-.562.04-.882.08-.38.04-.822.08-1.283.12-.18.021-.38.061-.58.081h-.141c-.42.04-.942.08-1.443.16-.28.02-.58.06-.882.1a1.82 1.82 0 0 0-.46.06c-.28.04-.561.08-.862.141-.481.04-.962.1-1.523.18a3.888 3.888 0 0 1-.481.06.226.226 0 0 0-.16.02 1.73 1.73 0 0 0-.32.02c-.202.04-.422.06-.642.1-.783.114-1.612.234-2.465.366l-.214.033c-.894.14-1.82.297-2.772.483l-2.604.421c-.842.14-1.684.3-2.565.441-.22.04-.421.08-.642.12-.54.1-1.102.22-1.663.321-.56.12-1.122.24-1.703.36-.721.1-1.423.281-2.144.421-.942.2-1.924.401-2.926.622-.34.08-.701.16-1.062.24-.842.2-1.703.38-2.585.581a314.328 314.328 0 0 0-14.608 3.788c-1.182.32-2.344.66-3.586 1.022-.762.24-1.503.46-2.285.72a237.198 237.198 0 0 0-6.152 1.925c-.962.32-1.944.62-2.926.941-.14.04-.24.1-.38.14-.822.241-1.684.562-2.545.882-.4.14-.802.28-1.223.441a5.714 5.714 0 0 0-.621.22c-.32.12-.64.241-.981.361v-.02c.02-.02.02-.02.02-.04l.24-4.328q.361-5.982.701-11.863a224.622 224.622 0 0 1 8.717-3.126 204.523 204.523 0 0 1 28.555-7.494 171.26 171.26 0 0 1 20.479-2.706c.38-.06.722-.06 1.102-.1 1.924-.14 3.848-.18 5.812-.28.52 1.402 1.002 2.805 1.482 4.188a.36.36 0 0 1 .04.2 84.544 84.544 0 0 1 1.483 4.509c.541 1.623 1.062 3.286 1.583 4.95Z" opacity=".45" style="mix-blend-mode:soft-light"/><path fill="#f9a832" d="M1078.842 1081.313s-.26.02-.741.04q-.301.03-.662.06c-.16.02-.32.02-.5.04-.28.02-.562.04-.882.08-.38.04-.822.08-1.283.12-.22.021-.46.041-.68.081h-.041c-.46.04-.922.1-1.443.16-.28.02-.58.06-.882.1l-.46.06c-.882.1-1.844.221-2.866.381a.226.226 0 0 0-.16.02c-.32.02-.641.08-.962.12-2.665.381-5.751.862-9.198 1.484-.46.08-.941.16-1.422.26-.22.04-.422.08-.642.12-.26.04-.54.1-.822.14-.28.06-.56.12-.841.16v.021c-.22.04-.44.08-.64.12-.362.06-.702.14-1.063.2-.16.04-.32.06-.48.1q-1.144.241-2.346.482a.286.286 0 0 1-.14.04c-.681.14-1.383.3-2.104.46-.34.08-.701.16-1.062.241-.842.18-1.703.38-2.585.581a314.328 314.328 0 0 0-14.608 3.788c-1.924.54-3.867 1.122-5.871 1.743a237.198 237.198 0 0 0-6.152 1.924q-1.622.54-3.306 1.081c-1.243.441-2.505.882-3.768 1.323a5.714 5.714 0 0 0-.621.22c-.32.12-.66.221-.981.341.02-.02.02-.02.02-.04l.24-4.328a338.68 338.68 0 0 1 42.241-11.843 435.265 435.265 0 0 1 21.16-4.048c1.844-.3 3.508-.56 4.97-.781.541 1.623 1.062 3.286 1.583 4.95Z"/><path fill="#894631" d="m955.145 1103.917.04-.01h.001a119.834 119.834 0 0 1 15.29-1.3c5.088-.18 10.154-.026 15.218.177l2.36 1.127a3.814 3.814 0 0 0-2.698-1.136l.548.04a.138.138 0 0 0-.1-.029l2.813 1.158a3.895 3.895 0 0 0-2.735-1.14l.414.023a202.34 202.34 0 0 1 30.563 4.115 138.644 138.644 0 0 1 14.962 4.178 65.972 65.972 0 0 1 14.218 6.563l-15.335-1.399-15.137-1.454c-10.08-1.12-20.108-2.372-30.135-4.053l.413.024a4.215 4.215 0 0 1-2.854-1.18l2.812 1.157-1.02-.109.545.04a4.232 4.232 0 0 1-2.857-1.175l2.36 1.126c-4.956-.8-9.896-1.783-14.839-2.857a142.451 142.451 0 0 1-14.808-3.876Z"/></g></svg>