<svg xmlns="http://www.w3.org/2000/svg" xmlns:xlink="http://www.w3.org/1999/xlink" width="200" zoomAndPan="magnify" viewBox="0 0 150 149.999998" height="200" preserveAspectRatio="xMidYMid meet" version="1.0"><rect x="-15" width="180" fill="#ffffff" y="-15" height="179.999997" fill-opacity="1"/><rect x="-15" width="180" fill="#ffffff" y="-15" height="179.999997" fill-opacity="1"/><rect x="-15" width="180" fill="#ffffff" y="-15" height="179.999997" fill-opacity="1"/><path fill="#8a8a8a" d="M 75 150 C 73.773438 150 72.546875 149.96875 71.320312 149.910156 C 70.09375 149.847656 68.871094 149.757812 67.648438 149.640625 C 66.425781 149.519531 65.210938 149.367188 63.996094 149.1875 C 62.78125 149.007812 61.570312 148.796875 60.367188 148.558594 C 59.164062 148.320312 57.96875 148.050781 56.777344 147.753906 C 55.585938 147.453125 54.402344 147.125 53.230469 146.769531 C 52.054688 146.414062 50.890625 146.03125 49.734375 145.617188 C 48.578125 145.203125 47.433594 144.761719 46.296875 144.289062 C 45.164062 143.820312 44.042969 143.324219 42.933594 142.800781 C 41.824219 142.273438 40.726562 141.722656 39.644531 141.144531 C 38.5625 140.566406 37.496094 139.960938 36.441406 139.328125 C 35.390625 138.699219 34.351562 138.042969 33.332031 137.359375 C 32.3125 136.679688 31.308594 135.972656 30.324219 135.242188 C 29.335938 134.507812 28.371094 133.753906 27.421875 132.976562 C 26.472656 132.195312 25.542969 131.394531 24.632812 130.570312 C 23.722656 129.746094 22.835938 128.902344 21.96875 128.03125 C 21.097656 127.164062 20.253906 126.277344 19.429688 125.367188 C 18.605469 124.457031 17.804688 123.527344 17.023438 122.578125 C 16.246094 121.628906 15.492188 120.664062 14.757812 119.675781 C 14.027344 118.691406 13.320312 117.6875 12.640625 116.667969 C 11.957031 115.648438 11.300781 114.609375 10.671875 113.558594 C 10.039062 112.503906 9.433594 111.4375 8.855469 110.355469 C 8.277344 109.273438 7.726562 108.175781 7.199219 107.066406 C 6.675781 105.957031 6.179688 104.835938 5.710938 103.703125 C 5.238281 102.566406 4.796875 101.421875 4.382812 100.265625 C 3.96875 99.109375 3.585938 97.945312 3.230469 96.769531 C 2.875 95.597656 2.546875 94.414062 2.246094 93.222656 C 1.949219 92.03125 1.679688 90.835938 1.441406 89.632812 C 1.203125 88.429688 0.992188 87.21875 0.8125 86.003906 C 0.632812 84.789062 0.480469 83.574219 0.359375 82.351562 C 0.242188 81.128906 0.152344 79.90625 0.0898438 78.679688 C 0.03125 77.453125 0 76.226562 0 75 C 0 73.773438 0.03125 72.546875 0.0898438 71.320312 C 0.152344 70.09375 0.242188 68.871094 0.359375 67.648438 C 0.480469 66.425781 0.632812 65.210938 0.8125 63.996094 C 0.992188 62.78125 1.203125 61.570312 1.441406 60.367188 C 1.679688 59.164062 1.949219 57.96875 2.246094 56.777344 C 2.546875 55.585938 2.875 54.402344 3.230469 53.230469 C 3.585938 52.054688 3.96875 50.890625 4.382812 49.734375 C 4.796875 48.578125 5.238281 47.433594 5.710938 46.296875 C 6.179688 45.164062 6.675781 44.042969 7.199219 42.933594 C 7.726562 41.824219 8.277344 40.726562 8.855469 39.644531 C 9.433594 38.5625 10.039062 37.496094 10.671875 36.441406 C 11.300781 35.390625 11.957031 34.351562 12.640625 33.332031 C 13.320312 32.3125 14.027344 31.308594 14.757812 30.324219 C 15.492188 29.335938 16.246094 28.371094 17.023438 27.421875 C 17.804688 26.472656 18.605469 25.542969 19.429688 24.632812 C 20.253906 23.722656 21.097656 22.835938 21.96875 21.96875 C 22.835938 21.097656 23.722656 20.253906 24.632812 19.429688 C 25.542969 18.605469 26.472656 17.804688 27.421875 17.023438 C 28.371094 16.246094 29.335938 15.492188 30.324219 14.757812 C 31.308594 14.027344 32.3125 13.320312 33.332031 12.640625 C 34.351562 11.957031 35.390625 11.300781 36.441406 10.671875 C 37.496094 10.039062 38.5625 9.433594 39.644531 8.855469 C 40.726562 8.277344 41.824219 7.726562 42.933594 7.199219 C 44.042969 6.675781 45.164062 6.179688 46.296875 5.710938 C 47.433594 5.238281 48.578125 4.796875 49.734375 4.382812 C 50.890625 3.96875 52.054688 3.585938 53.230469 3.230469 C 54.402344 2.875 55.585938 2.546875 56.777344 2.246094 C 57.96875 1.949219 59.164062 1.679688 60.367188 1.441406 C 61.570312 1.203125 62.78125 0.992188 63.996094 0.8125 C 65.210938 0.632812 66.425781 0.480469 67.648438 0.359375 C 68.871094 0.242188 70.09375 0.152344 71.320312 0.0898438 C 72.546875 0.03125 73.773438 0 75 0 C 76.226562 0 77.453125 0.03125 78.679688 0.0898438 C 79.90625 0.152344 81.128906 0.242188 82.351562 0.359375 C 83.574219 0.480469 84.789062 0.632812 86.003906 0.8125 C 87.21875 0.992188 88.429688 1.203125 89.632812 1.441406 C 90.835938 1.679688 92.03125 1.949219 93.222656 2.246094 C 94.414062 2.546875 95.597656 2.875 96.769531 3.230469 C 97.945312 3.585938 99.109375 3.96875 100.265625 4.382812 C 101.421875 4.796875 102.566406 5.238281 103.703125 5.710938 C 104.835938 6.179688 105.957031 6.675781 107.066406 7.199219 C 108.175781 7.726562 109.273438 8.277344 110.355469 8.855469 C 111.4375 9.433594 112.503906 10.039062 113.558594 10.671875 C 114.609375 11.300781 115.648438 11.957031 116.667969 12.640625 C 117.6875 13.320312 118.691406 14.027344 119.675781 14.757812 C 120.664062 15.492188 121.628906 16.246094 122.578125 17.023438 C 123.527344 17.804688 124.457031 18.605469 125.367188 19.429688 C 126.277344 20.253906 127.164062 21.097656 128.03125 21.96875 C 128.902344 22.835938 129.746094 23.722656 130.570312 24.632812 C 131.394531 25.542969 132.195312 26.472656 132.976562 27.421875 C 133.753906 28.371094 134.507812 29.335938 135.242188 30.324219 C 135.972656 31.308594 136.679688 32.3125 137.359375 33.332031 C 138.042969 34.351562 138.699219 35.390625 139.328125 36.441406 C 139.960938 37.496094 140.566406 38.5625 141.144531 39.644531 C 141.722656 40.726562 142.273438 41.824219 142.800781 42.933594 C 143.324219 44.042969 143.820312 45.164062 144.289062 46.296875 C 144.761719 47.433594 145.203125 48.578125 145.617188 49.734375 C 146.03125 50.890625 146.414062 52.054688 146.769531 53.230469 C 147.125 54.402344 147.453125 55.585938 147.753906 56.777344 C 148.050781 57.96875 148.320312 59.164062 148.558594 60.367188 C 148.796875 61.570312 149.007812 62.78125 149.1875 63.996094 C 149.367188 65.210938 149.519531 66.425781 149.640625 67.648438 C 149.757812 68.871094 149.847656 70.09375 149.910156 71.320312 C 149.96875 72.546875 150 73.773438 150 75 C 150 76.226562 149.96875 77.453125 149.910156 78.679688 C 149.847656 79.90625 149.757812 81.128906 149.640625 82.351562 C 149.519531 83.574219 149.367188 84.789062 149.1875 86.003906 C 149.007812 87.21875 148.796875 88.429688 148.558594 89.632812 C 148.320312 90.835938 148.050781 92.03125 147.753906 93.222656 C 147.453125 94.414062 147.125 95.597656 146.769531 96.769531 C 146.414062 97.945312 146.03125 99.109375 145.617188 100.265625 C 145.203125 101.421875 144.761719 102.566406 144.289062 103.703125 C 143.820312 104.835938 143.324219 105.957031 142.800781 107.066406 C 142.273438 108.175781 141.722656 109.273438 141.144531 110.355469 C 140.566406 111.4375 139.960938 112.503906 139.328125 113.558594 C 138.699219 114.609375 138.042969 115.648438 137.359375 116.667969 C 136.679688 117.6875 135.972656 118.691406 135.242188 119.675781 C 134.507812 120.664062 133.753906 121.628906 132.976562 122.578125 C 132.195312 123.527344 131.394531 124.457031 130.570312 125.367188 C 129.746094 126.277344 128.902344 127.164062 128.03125 128.03125 C 127.164062 128.902344 126.277344 129.746094 125.367188 130.570312 C 124.457031 131.394531 123.527344 132.195312 122.578125 132.976562 C 121.628906 133.753906 120.664062 134.507812 119.675781 135.242188 C 118.691406 135.972656 117.6875 136.679688 116.667969 137.359375 C 115.648438 138.042969 114.609375 138.699219 113.558594 139.328125 C 112.503906 139.960938 111.4375 140.566406 110.355469 141.144531 C 109.273438 141.722656 108.175781 142.273438 107.066406 142.800781 C 105.957031 143.324219 104.835938 143.820312 103.703125 144.289062 C 102.566406 144.761719 101.421875 145.203125 100.265625 145.617188 C 99.109375 146.03125 97.945312 146.414062 96.769531 146.769531 C 95.597656 147.125 94.414062 147.453125 93.222656 147.753906 C 92.03125 148.050781 90.835938 148.320312 89.632812 148.558594 C 88.429688 148.796875 87.21875 149.007812 86.003906 149.1875 C 84.789062 149.367188 83.574219 149.519531 82.351562 149.640625 C 81.128906 149.757812 79.90625 149.847656 78.679688 149.910156 C 77.453125 149.96875 76.226562 150 75 150 Z M 75 15 C 73.035156 15 71.074219 15.097656 69.117188 15.289062 C 67.164062 15.480469 65.222656 15.769531 63.292969 16.152344 C 61.367188 16.535156 59.464844 17.011719 57.582031 17.582031 C 55.703125 18.152344 53.855469 18.816406 52.039062 19.566406 C 50.222656 20.320312 48.449219 21.160156 46.714844 22.085938 C 44.984375 23.011719 43.300781 24.019531 41.664062 25.113281 C 40.03125 26.203125 38.457031 27.371094 36.9375 28.621094 C 35.417969 29.867188 33.964844 31.183594 32.574219 32.574219 C 31.183594 33.964844 29.867188 35.417969 28.621094 36.9375 C 27.371094 38.457031 26.203125 40.03125 25.113281 41.664062 C 24.019531 43.300781 23.011719 44.984375 22.085938 46.714844 C 21.160156 48.449219 20.320312 50.222656 19.566406 52.039062 C 18.816406 53.855469 18.152344 55.703125 17.582031 57.582031 C 17.011719 59.464844 16.535156 61.367188 16.152344 63.292969 C 15.769531 65.222656 15.480469 67.164062 15.289062 69.117188 C 15.097656 71.074219 15 73.035156 15 75 C 15 76.964844 15.097656 78.925781 15.289062 80.882812 C 15.480469 82.835938 15.769531 84.777344 16.152344 86.707031 C 16.535156 88.632812 17.011719 90.535156 17.582031 92.417969 C 18.152344 94.296875 18.816406 96.144531 19.566406 97.960938 C 20.320312 99.777344 21.160156 101.550781 22.085938 103.285156 C 23.011719 105.015625 24.019531 106.699219 25.113281 108.335938 C 26.203125 109.96875 27.371094 111.542969 28.621094 113.0625 C 29.867188 114.582031 31.183594 116.035156 32.574219 117.425781 C 33.964844 118.816406 35.417969 120.132812 36.9375 121.378906 C 38.457031 122.628906 40.03125 123.796875 41.664062 124.886719 C 43.300781 125.980469 44.984375 126.988281 46.714844 127.914062 C 48.449219 128.839844 50.222656 129.679688 52.039062 130.433594 C 53.855469 131.183594 55.703125 131.847656 57.582031 132.417969 C 59.464844 132.988281 61.367188 133.464844 63.292969 133.847656 C 65.222656 134.230469 67.164062 134.519531 69.117188 134.710938 C 71.074219 134.902344 73.035156 135 75 135 C 76.964844 135 78.925781 134.902344 80.882812 134.710938 C 82.835938 134.519531 84.777344 134.230469 86.707031 133.847656 C 88.632812 133.464844 90.535156 132.988281 92.417969 132.417969 C 94.296875 131.847656 96.144531 131.183594 97.960938 130.433594 C 99.777344 129.679688 101.550781 128.839844 103.285156 127.914062 C 105.015625 126.988281 106.699219 125.980469 108.335938 124.886719 C 109.96875 123.796875 111.542969 122.628906 113.0625 121.378906 C 114.582031 120.132812 116.035156 118.816406 117.425781 117.425781 C 118.816406 116.035156 120.132812 114.582031 121.378906 113.0625 C 122.628906 111.542969 123.796875 109.96875 124.886719 108.335938 C 125.980469 106.699219 126.988281 105.015625 127.914062 103.285156 C 128.839844 101.550781 129.679688 99.777344 130.433594 97.960938 C 131.183594 96.144531 131.847656 94.296875 132.417969 92.417969 C 132.988281 90.535156 133.464844 88.632812 133.847656 86.707031 C 134.230469 84.777344 134.519531 82.835938 134.710938 80.882812 C 134.902344 78.925781 135 76.964844 135 75 C 135 73.035156 134.902344 71.074219 134.710938 69.117188 C 134.519531 67.164062 134.230469 65.222656 133.847656 63.292969 C 133.464844 61.367188 132.988281 59.464844 132.417969 57.582031 C 131.847656 55.703125 131.183594 53.855469 130.433594 52.039062 C 129.679688 50.222656 128.839844 48.449219 127.914062 46.714844 C 126.988281 44.984375 125.980469 43.300781 124.886719 41.664062 C 123.796875 40.03125 122.628906 38.457031 121.378906 36.9375 C 120.132812 35.417969 118.816406 33.964844 117.425781 32.574219 C 116.035156 31.183594 114.582031 29.867188 113.0625 28.621094 C 111.542969 27.371094 109.96875 26.203125 108.335938 25.113281 C 106.699219 24.019531 105.015625 23.011719 103.285156 22.085938 C 101.550781 21.160156 99.777344 20.320312 97.960938 19.566406 C 96.144531 18.816406 94.296875 18.152344 92.417969 17.582031 C 90.535156 17.011719 88.632812 16.535156 86.707031 16.152344 C 84.777344 15.769531 82.835938 15.480469 80.882812 15.289062 C 78.925781 15.097656 76.964844 15 75 15 Z M 75 15 " fill-opacity="1" fill-rule="nonzero"/><path fill="#8a8a8a" d="M 50.625 110.625 C 49.136719 110.613281 47.703125 110.320312 46.328125 109.75 C 44.953125 109.179688 43.734375 108.371094 42.675781 107.324219 C 41.957031 106.597656 41.351562 105.792969 40.851562 104.902344 C 40.355469 104.011719 39.984375 103.070312 39.738281 102.082031 C 39.496094 101.089844 39.386719 100.085938 39.414062 99.066406 C 39.441406 98.046875 39.601562 97.050781 39.898438 96.074219 L 50.175781 62.625 C 50.613281 61.152344 51.226562 59.757812 52.015625 58.4375 C 52.800781 57.117188 53.738281 55.914062 54.828125 54.828125 C 55.914062 53.738281 57.117188 52.800781 58.4375 52.015625 C 59.757812 51.226562 61.152344 50.613281 62.625 50.175781 L 96.074219 39.898438 C 97.050781 39.589844 98.050781 39.421875 99.070312 39.386719 C 100.09375 39.351562 101.101562 39.457031 102.097656 39.699219 C 103.089844 39.941406 104.03125 40.3125 104.925781 40.816406 C 105.816406 41.316406 106.625 41.929688 107.347656 42.652344 C 108.070312 43.375 108.683594 44.183594 109.183594 45.074219 C 109.6875 45.96875 110.058594 46.910156 110.300781 47.902344 C 110.542969 48.898438 110.648438 49.90625 110.613281 50.929688 C 110.578125 51.949219 110.410156 52.949219 110.101562 53.925781 L 99.824219 87.375 C 99.386719 88.847656 98.773438 90.242188 97.984375 91.5625 C 97.199219 92.882812 96.261719 94.085938 95.171875 95.171875 C 94.085938 96.261719 92.882812 97.199219 91.5625 97.984375 C 90.242188 98.773438 88.847656 99.386719 87.375 99.824219 L 53.925781 110.101562 C 52.847656 110.425781 51.75 110.601562 50.625 110.625 Z M 93.675781 56.324219 L 66.976562 64.5 C 66.382812 64.683594 65.867188 64.992188 65.429688 65.429688 C 64.992188 65.867188 64.683594 66.382812 64.5 66.976562 L 56.324219 93.675781 L 83.023438 85.5 C 83.617188 85.316406 84.132812 85.007812 84.570312 84.570312 C 85.007812 84.132812 85.316406 83.617188 85.5 83.023438 Z M 93.675781 56.324219 " fill-opacity="1" fill-rule="nonzero"/></svg>