<svg xmlns="http://www.w3.org/2000/svg" xmlns:xlink="http://www.w3.org/1999/xlink" width="200" zoomAndPan="magnify" viewBox="0 0 150 149.999998" height="200" preserveAspectRatio="xMidYMid meet" version="1.0"><defs><clipPath id="1c85e09198"><path d="M 3 7 L 114 7 L 114 143.53125 L 3 143.53125 Z M 3 7 " clip-rule="nonzero"/></clipPath></defs><rect x="-15" width="180" fill="#ffffff" y="-15" height="179.999997" fill-opacity="1"/><rect x="-15" width="180" fill="#ffffff" y="-15" height="179.999997" fill-opacity="1"/><rect x="-15" width="180" fill="#ffffff" y="-15" height="179.999997" fill-opacity="1"/><g clip-path="url(#1c85e09198)"><path fill="#9064aa" d="M 106.378906 61.132812 L 29.988281 10.277344 C 28.710938 9.425781 27.347656 8.761719 25.890625 8.285156 C 24.433594 7.804688 22.9375 7.527344 21.40625 7.453125 C 19.875 7.378906 18.359375 7.511719 16.863281 7.847656 C 15.367188 8.183594 13.945312 8.714844 12.59375 9.4375 C 11.242188 10.160156 10.007812 11.050781 8.898438 12.105469 C 7.789062 13.164062 6.839844 14.347656 6.050781 15.660156 C 5.261719 16.976562 4.664062 18.371094 4.253906 19.847656 C 3.847656 21.324219 3.640625 22.824219 3.640625 24.359375 L 3.640625 126.070312 C 3.640625 127.601562 3.84375 129.109375 4.25 130.585938 C 4.65625 132.0625 5.253906 133.457031 6.042969 134.773438 C 6.832031 136.089844 7.78125 137.273438 8.890625 138.332031 C 10 139.390625 11.234375 140.28125 12.585938 141.003906 C 13.9375 141.726562 15.363281 142.253906 16.859375 142.589844 C 18.359375 142.929688 19.871094 143.058594 21.40625 142.984375 C 22.9375 142.910156 24.433594 142.632812 25.890625 142.152344 C 27.347656 141.667969 28.714844 141.003906 29.988281 140.152344 L 106.410156 89.296875 C 106.988281 88.910156 107.542969 88.492188 108.070312 88.039062 C 108.597656 87.585938 109.09375 87.105469 109.5625 86.589844 C 110.027344 86.078125 110.460938 85.535156 110.863281 84.96875 C 111.261719 84.402344 111.628906 83.8125 111.957031 83.199219 C 112.285156 82.589844 112.574219 81.960938 112.824219 81.3125 C 113.074219 80.664062 113.285156 80.003906 113.453125 79.332031 C 113.621094 78.65625 113.75 77.976562 113.835938 77.289062 C 113.917969 76.597656 113.960938 75.90625 113.960938 75.214844 C 113.960938 74.519531 113.917969 73.828125 113.835938 73.140625 C 113.75 72.449219 113.621094 71.769531 113.453125 71.097656 C 113.285156 70.421875 113.074219 69.761719 112.824219 69.117188 C 112.574219 68.46875 112.285156 67.839844 111.957031 67.226562 C 111.628906 66.617188 111.261719 66.027344 110.863281 65.457031 C 110.460938 64.890625 110.027344 64.351562 109.5625 63.835938 C 109.09375 63.324219 108.597656 62.839844 108.070312 62.386719 C 107.542969 61.933594 106.988281 61.515625 106.410156 61.132812 Z M 106.378906 61.132812 " fill-opacity="1" fill-rule="nonzero"/></g><path fill="#9064aa" d="M 134.609375 9.050781 C 133.699219 9.050781 132.796875 9.140625 131.902344 9.320312 C 131.011719 9.5 130.144531 9.761719 129.304688 10.109375 C 128.464844 10.457031 127.664062 10.886719 126.90625 11.390625 C 126.152344 11.894531 125.453125 12.46875 124.808594 13.113281 C 124.164062 13.753906 123.589844 14.453125 123.082031 15.210938 C 122.578125 15.964844 122.148438 16.761719 121.800781 17.601562 C 121.453125 18.441406 121.1875 19.308594 121.011719 20.199219 C 120.832031 21.089844 120.742188 21.988281 120.742188 22.898438 L 120.742188 127.527344 C 120.742188 128.4375 120.828125 129.339844 121.007812 130.230469 C 121.183594 131.121094 121.449219 131.988281 121.796875 132.828125 C 122.144531 133.667969 122.570312 134.464844 123.078125 135.222656 C 123.582031 135.980469 124.160156 136.679688 124.800781 137.320312 C 125.445312 137.964844 126.148438 138.539062 126.902344 139.042969 C 127.660156 139.546875 128.460938 139.976562 129.300781 140.324219 C 130.140625 140.671875 131.007812 140.933594 131.902344 141.109375 C 132.796875 141.289062 133.695312 141.378906 134.609375 141.378906 C 135.519531 141.378906 136.421875 141.289062 137.3125 141.109375 C 138.207031 140.933594 139.074219 140.671875 139.914062 140.324219 C 140.753906 139.976562 141.554688 139.546875 142.3125 139.042969 C 143.070312 138.539062 143.769531 137.964844 144.414062 137.320312 C 145.058594 136.679688 145.632812 135.980469 146.136719 135.222656 C 146.644531 134.464844 147.070312 133.667969 147.417969 132.828125 C 147.769531 131.988281 148.03125 131.121094 148.207031 130.230469 C 148.386719 129.339844 148.476562 128.4375 148.476562 127.527344 L 148.476562 22.898438 C 148.472656 21.988281 148.382812 21.089844 148.207031 20.199219 C 148.027344 19.308594 147.761719 18.441406 147.414062 17.601562 C 147.066406 16.761719 146.636719 15.964844 146.132812 15.210938 C 145.625 14.453125 145.050781 13.753906 144.40625 13.113281 C 143.765625 12.46875 143.0625 11.894531 142.308594 11.390625 C 141.550781 10.886719 140.753906 10.457031 139.910156 10.109375 C 139.070312 9.761719 138.203125 9.5 137.3125 9.320312 C 136.417969 9.140625 135.519531 9.050781 134.609375 9.050781 Z M 134.609375 9.050781 " fill-opacity="1" fill-rule="nonzero"/></svg>