<svg xmlns="http://www.w3.org/2000/svg" xmlns:xlink="http://www.w3.org/1999/xlink" width="200" zoomAndPan="magnify" viewBox="0 0 150 149.999998" height="200" preserveAspectRatio="xMidYMid meet" version="1.0"><defs><clipPath id="17fddf31ae"><path d="M 36 7 L 147 7 L 147 143.53125 L 36 143.53125 Z M 36 7 " clip-rule="nonzero"/></clipPath></defs><g clip-path="url(#17fddf31ae)"><path fill="#9064aa" d="M 43.621094 61.132812 L 120.011719 10.277344 C 121.289062 9.425781 122.652344 8.761719 124.109375 8.285156 C 125.566406 7.804688 127.0625 7.527344 128.59375 7.453125 C 130.125 7.378906 131.640625 7.511719 133.136719 7.847656 C 134.632812 8.183594 136.054688 8.714844 137.40625 9.4375 C 138.757812 10.160156 139.992188 11.050781 141.101562 12.105469 C 142.210938 13.164062 143.160156 14.347656 143.949219 15.660156 C 144.738281 16.976562 145.335938 18.371094 145.746094 19.847656 C 146.152344 21.324219 146.359375 22.824219 146.359375 24.359375 L 146.359375 126.070312 C 146.359375 127.601562 146.15625 129.109375 145.75 130.585938 C 145.34375 132.0625 144.746094 133.457031 143.957031 134.773438 C 143.167969 136.089844 142.21875 137.273438 141.109375 138.332031 C 140 139.390625 138.765625 140.28125 137.414062 141.003906 C 136.0625 141.726562 134.636719 142.253906 133.140625 142.589844 C 131.640625 142.929688 130.128906 143.058594 128.59375 142.984375 C 127.0625 142.910156 125.566406 142.632812 124.109375 142.152344 C 122.652344 141.667969 121.285156 141.003906 120.011719 140.152344 L 43.589844 89.296875 C 43.011719 88.910156 42.457031 88.492188 41.929688 88.039062 C 41.402344 87.585938 40.90625 87.105469 40.4375 86.589844 C 39.972656 86.078125 39.539062 85.535156 39.136719 84.96875 C 38.738281 84.402344 38.371094 83.8125 38.042969 83.199219 C 37.714844 82.589844 37.425781 81.960938 37.175781 81.3125 C 36.925781 80.664062 36.714844 80.003906 36.546875 79.332031 C 36.378906 78.65625 36.25 77.976562 36.164062 77.289062 C 36.082031 76.597656 36.039062 75.90625 36.039062 75.214844 C 36.039062 74.519531 36.082031 73.828125 36.164062 73.140625 C 36.25 72.449219 36.378906 71.769531 36.546875 71.097656 C 36.714844 70.421875 36.925781 69.761719 37.175781 69.117188 C 37.425781 68.46875 37.714844 67.839844 38.042969 67.226562 C 38.371094 66.617188 38.738281 66.027344 39.136719 65.457031 C 39.539062 64.890625 39.972656 64.351562 40.4375 63.835938 C 40.90625 63.324219 41.402344 62.839844 41.929688 62.386719 C 42.457031 61.933594 43.011719 61.515625 43.589844 61.132812 Z M 43.621094 61.132812 " fill-opacity="1" fill-rule="nonzero"/></g><path fill="#9064aa" d="M 15.390625 9.050781 C 16.300781 9.050781 17.203125 9.140625 18.097656 9.320312 C 18.988281 9.5 19.855469 9.761719 20.695312 10.109375 C 21.535156 10.457031 22.335938 10.886719 23.09375 11.390625 C 23.847656 11.894531 24.546875 12.46875 25.191406 13.113281 C 25.835938 13.753906 26.410156 14.453125 26.917969 15.210938 C 27.421875 15.964844 27.851562 16.761719 28.199219 17.601562 C 28.546875 18.441406 28.8125 19.308594 28.988281 20.199219 C 29.167969 21.089844 29.257812 21.988281 29.257812 22.898438 L 29.257812 127.527344 C 29.257812 128.4375 29.171875 129.339844 28.992188 130.230469 C 28.816406 131.121094 28.550781 131.988281 28.203125 132.828125 C 27.855469 133.667969 27.429688 134.464844 26.921875 135.222656 C 26.417969 135.980469 25.839844 136.679688 25.199219 137.320312 C 24.554688 137.964844 23.851562 138.539062 23.097656 139.042969 C 22.339844 139.546875 21.539062 139.976562 20.699219 140.324219 C 19.859375 140.671875 18.992188 140.933594 18.097656 141.109375 C 17.203125 141.289062 16.304688 141.378906 15.390625 141.378906 C 14.480469 141.378906 13.578125 141.289062 12.6875 141.109375 C 11.792969 140.933594 10.925781 140.671875 10.085938 140.324219 C 9.246094 139.976562 8.445312 139.546875 7.6875 139.042969 C 6.929688 138.539062 6.230469 137.964844 5.585938 137.320312 C 4.941406 136.679688 4.367188 135.980469 3.863281 135.222656 C 3.355469 134.464844 2.929688 133.667969 2.582031 132.828125 C 2.230469 131.988281 1.96875 131.121094 1.792969 130.230469 C 1.613281 129.339844 1.523438 128.4375 1.523438 127.527344 L 1.523438 22.898438 C 1.527344 21.988281 1.617188 21.089844 1.792969 20.199219 C 1.972656 19.308594 2.238281 18.441406 2.585938 17.601562 C 2.933594 16.761719 3.363281 15.964844 3.867188 15.210938 C 4.375 14.453125 4.949219 13.753906 5.59375 13.113281 C 6.234375 12.46875 6.9375 11.894531 7.691406 11.390625 C 8.449219 10.886719 9.246094 10.457031 10.089844 10.109375 C 10.929688 9.761719 11.796875 9.5 12.6875 9.320312 C 13.582031 9.140625 14.480469 9.050781 15.390625 9.050781 Z M 15.390625 9.050781 " fill-opacity="1" fill-rule="nonzero"/></svg>