<svg xmlns="http://www.w3.org/2000/svg" xmlns:xlink="http://www.w3.org/1999/xlink" width="200" zoomAndPan="magnify" viewBox="0 0 150 149.999998" height="200" preserveAspectRatio="xMidYMid meet" version="1.0"><defs><filter x="0%" y="0%" width="100%" height="100%" id="bb81bc219b"><feColorMatrix values="0 0 0 0 1 0 0 0 0 1 0 0 0 0 1 0 0 0 1 0" color-interpolation-filters="sRGB"/></filter><mask id="cd31a81f79"><g filter="url(#bb81bc219b)"><rect x="-15" width="180" fill="#000000" y="-15" height="179.999997" fill-opacity="0.6"/></g></mask><clipPath id="fa0a0f5220"><path d="M 32 1.621094 L 114 1.621094 L 114 83 L 32 83 Z M 32 1.621094 " clip-rule="nonzero"/></clipPath><clipPath id="1c049d6e95"><rect x="0" width="150" y="0" height="149"/></clipPath></defs><rect x="-15" width="180" fill="transparent" y="-15" height="179.999997" fill-opacity="1"/><rect x="-15" width="180" fill="transparent" y="-15" height="179.999997" fill-opacity="1"/><rect x="-15" width="180" fill="transparent" y="-15" height="179.999997" fill-opacity="1"/><g mask="url(#cd31a81f79)"><g transform="matrix(1, 0, 0, 1, 0, -0.000000000000007522)"><g clip-path="url(#1c049d6e95)"><path fill="#cdc1de" d="M 101.507812 78.390625 C 93.617188 84.59375 83.683594 88.304688 72.886719 88.304688 C 62.359375 88.304688 52.644531 84.777344 44.851562 78.847656 C 19.421875 82.953125 0 104.984375 0 131.550781 C 0 161.046875 23.925781 141.871094 53.441406 141.871094 L 96.554688 141.871094 C 126.070312 141.871094 150 161.046875 150 131.550781 C 150 103.730469 128.699219 80.886719 101.507812 78.390625 Z M 101.507812 78.390625 " fill-opacity="1" fill-rule="nonzero"/><g clip-path="url(#fa0a0f5220)"><path fill="#cdc1de" d="M 72.886719 82.089844 C 95.027344 82.089844 113.039062 64.089844 113.039062 41.964844 C 113.039062 19.839844 95.027344 1.839844 72.886719 1.839844 C 50.746094 1.839844 32.730469 19.839844 32.730469 41.964844 C 32.734375 64.089844 50.746094 82.089844 72.886719 82.089844 Z M 72.886719 82.089844 " fill-opacity="1" fill-rule="nonzero"/></g></g></g></g></svg>