<svg xmlns="http://www.w3.org/2000/svg" viewBox="0 0 2800 1900"><g data-name="Layer 1"><path fill="#f7a226" d="m759.812 1106.936-81.432-66.686c-4.801-28.153-28.238-25.198-41.238-21.212a64.65 64.65 0 0 0-8.755 3.34c-.131 3.768-.15 7.223.007 10.367.073 1.591.199 3.092.327 4.527.093 1.159.241 2.291.39 3.359 1.495 10.832 4.947 17.355 9.219 21.084 5.922 5.222 13.468 5.024 19.57 3.496q1.01-.236 1.983-.55l3.899 3.352 87.336 74.679a56.408 56.408 0 0 1-4.348-10.195c-1.079-4.332.536-10.593 5.66-17.476a54.626 54.626 0 0 1 7.382-8.085ZM834.318 1195.144a167.34 167.34 0 0 0-3.334 1.744 451.59 451.59 0 0 1-9.976 5.154c3.034-1.212 7.247-1.584 12.94-.48a36.18 36.18 0 0 1 .37-6.418Z"/><path d="m759.812 1106.936-81.432-66.686c-4.801-28.153-28.238-25.198-41.238-21.212a64.65 64.65 0 0 0-8.755 3.34c-.131 3.768-.15 7.223.007 10.367.073 1.591.199 3.092.327 4.527.093 1.159.241 2.291.39 3.359 11.53-8.524 31.162-15.527 35.272-.895 2.998 10.64-1.869 19.71-6.483 25.474q1.01-.235 1.983-.55l3.899 3.353 9.865-17.52 78.783 64.528a54.626 54.626 0 0 1 7.382-8.085ZM834.318 1195.144a167.34 167.34 0 0 0-3.334 1.744 451.59 451.59 0 0 1-9.976 5.154c3.034-1.212 7.247-1.584 12.94-.48a36.18 36.18 0 0 1 .37-6.418Z" style="mix-blend-mode:soft-light" opacity=".37"/><path fill="#af7351" d="M910.196 1174.263s-16.258 103.249-129.508 93.5-165.132-22.31-211.843 15.98-68.567 83.298-111.85 78.392-83.32-43.36-140.14 25.17c0 0 71.036 74.468 144.99-5.435 0 0 45.531 18.12 117.408-72.04 0 0 27.06-31.964 100.583-16.949s228.663 31.233 255.545-93.389-25.185-25.229-25.185-25.229Z"/><path d="M461.845 1381.872s45.531 18.12 117.408-72.042c0 0 27.05-31.972 100.573-16.957s228.683 31.232 255.565-93.39c26.864-124.601-25.185-25.23-25.185-25.23s-2.687 17.079-13.513 36.665c-9.144 81.367-93.633 72.581-134.66 73.871-41.067 1.253-120.8-18.583-158.58-5.283-37.798 13.32-57.995 48.592-92.69 76.56-34.718 27.948-47.214 10.504-66.917 16.094-19.663 5.588-34.321 2.364-52.516 1.56-18.234-.802-40.871 4.977-40.871 4.977s21.46-.511 40.636 3.933c19.158 4.465 45.627.678 45.627.678-21.65 10.17-43.903 9.976-82.132 2.544-15.555-3.013-27.697-2.053-36.626.125-.35.436-.74.873-1.109 1.33 0 0 71.036 74.467 144.99-5.435Z" style="mix-blend-mode:soft-light" opacity=".37"/><path fill="#c43939" d="M1284.925 1174.266a950.42 950.42 0 0 1-40.532 141.808c-18.486 49.308-43.712 101.314-76.273 137.487-9.633 10.76-21.652 20.514-35.332 29.338-101.266 65.7-293.205 81.76-293.205 81.76-33.185 33.015-119.261 116.113-133.962 133.888-14.65 17.765-2.8 111.34-13.344 124.96-10.536 13.671-90.043 4.536-99.797-19.951-9.817-24.53 15.452-80.753 7.277-113.864-8.175-33.11 18.804-13.609 51.783-97.821 32.978-84.213 164.665-212.73 164.665-212.73 9.154-86.62 34.968-146.725 66.386-188.415 71.45-94.867 172.033-94.484 172.033-94.484Z"/><path d="M1284.925 1174.266a950.42 950.42 0 0 1-40.532 141.808c-3.517 9.334-7.234 18.763-11.277 28.2-21.303-50.861-51.307-51.612-51.307-51.612 16.049 89.083 5.361 108.91 5.361 108.91-11.142-33.181-27.222-52.318-27.222-52.318 8.509 50.597 9.677 83.395 8.668 103.772a4.091 4.091 0 0 0-.496.535c-9.633 10.76-21.652 20.514-35.332 29.338-101.266 65.7-293.205 81.76-293.205 81.76-33.185 33.015-119.261 116.113-133.962 133.888-14.65 17.765-2.8 111.34-13.344 124.96-10.536 13.671-90.043 4.536-99.797-19.951-9.817-24.53 15.452-80.753 7.277-113.864-8.175-33.11 18.804-13.609 51.783-97.821 32.978-84.213 164.665-212.73 164.665-212.73 1.09-10.55 2.483-20.669 4.054-30.439 32.067 13.139 106.468 31.593 201.468-22.917 0 0-128.017 5.797-191.27-23.771-.063-.043-.125-.085-.178-.075a390.981 390.981 0 0 1 10.766-33.84c49.524 28.723 170.33 82.259 240.911-26.982 0 0-128.59 45.28-215.84-25.813a284.856 284.856 0 0 1 16.475-24.578c71.45-94.867 172.033-94.483 172.033-94.483Z" style="mix-blend-mode:soft-light" opacity=".37"/><path fill="#ce9065" d="M1132.788 1482.9c-101.266 65.698-293.205 81.759-293.205 81.759-33.185 33.015-119.261 116.113-133.962 133.888-14.65 17.765-2.8 111.34-13.344 124.96-10.536 13.671-90.043 4.536-99.797-19.951-9.817-24.53 15.452-80.753 7.277-113.864-8.175-33.11 18.804-13.609 51.783-97.821 32.978-84.213 164.665-212.73 164.665-212.73s83.307 70.231 224.492 16.723c0 0 69.026 1.743 91.727 85.467a16.085 16.085 0 0 1 .364 1.568Z"/><path d="M870.983 1406.225c-69.07 56.776-161.304 161.595-183.007 218.155-24.753 64.653 3.713 78.94 13.932 81.954a72.67 72.67 0 0 0-2.355 11.346c-25.126.694-73.397 4.643-78.55 24.526-5.144 19.935 17.38 49.557 75.828 56.997-.588 11.709-1.81 20.754-4.554 24.303-10.536 13.672-90.043 4.537-99.797-19.95-9.817-24.53 15.452-80.753 7.277-113.864-8.175-33.11 18.804-13.609 51.783-97.821 32.979-84.213 164.665-212.73 164.665-212.73s19.212 16.167 54.778 27.084ZM1132.788 1482.9a287.932 287.932 0 0 1-26.183 15.009c-15.29-15.958-41.247-35.552-74.745-32.66-42.736 3.732-116.53 56.792-149.684 94.394-19.483 2.697-33.627 4.176-39.531 4.74l101.982-94.221 82.78-69.598c4.37-1.409 8.814-2.997 13.29-4.7 0 0 69.026 1.743 91.727 85.467a16.085 16.085 0 0 1 .364 1.568Z" style="mix-blend-mode:soft-light" opacity=".37"/><path fill="#f77f26" d="M1284.925 1174.266a950.42 950.42 0 0 1-40.532 141.808c-25.141-92.756-89.017-108.585-89.017-108.585-146.468 53.894-241.097 4.708-272.785-16.763 71.45-94.867 172.033-94.484 172.033-94.484Z"/><path d="M1280.824 1193.668c2.778-12.25 4.1-19.402 4.1-19.402l-230.3-78.024s-100.583-.383-172.033 94.484c31.688 21.47 126.317 70.657 272.785 16.763 0 0 63.876 15.829 89.017 108.585 2.33-6.2 4.608-12.392 6.739-18.5-8.667-33.943-27.504-69.816-28.655-72.049l23.666 19.062-16.144-35.257c11.171 4.795 27.216 21.534 38.2 33.966 2.07-7.517 4.004-14.624 5.651-21.238-26.134-4.412-37.501-23.222-37.501-23.222 20.84.59 35.125-2.12 44.476-5.168Zm-306.09-27.031s46.796 38.448 130.557 34.222c0 0-76.886 35.186-172.932-15.087 0 0 25.742-56.592 109.076-70.74 0 0 36.561 49.49 57.31 57.097-2.724-.501-46.386-8.946-79.25-39.7 0 0 36.117 50.564 85.824 53.058 0 0-58.776 13.896-130.585-18.85Z" style="mix-blend-mode:soft-light" opacity=".37"/><path fill="#a8704a" d="M839.583 1564.658c15.312-15.877 31.2-30.976 47.2-45.904 15.901-15.018 32.185-29.603 47.855-44.627 3.984-3.696 7.862-7.449 11.712-11.226 3.998-3.854 7.977-7.83 12.184-11.458 8.43-7.267 16.96-14.341 25.94-20.8a398.923 398.923 0 0 1 56.222-34.78c-16.807 14.269-33.621 28.228-50.05 42.49-8.099 7.26-16.296 14.35-23.996 21.903-3.913 3.728-7.697 7.48-11.493 11.323-3.902 3.962-7.81 7.912-11.81 11.718-16.134 15.114-32.86 29.363-50.16 42.923a657.563 657.563 0 0 1-53.604 38.438Z"/><path fill="#f77f26" d="m1192.363 1215.72-78.38 207.78-22.404-6.433 7.543 20.014-8.773 20.082s-36.832-.778-62.618-35.633l13.898-21.036-16.73 12.656-24.773-15.746 130.082-218.25 48.043 6.324Z"/><path d="m1117.219 1229.696 7.168 5.904-99.503 177.54 16.754-12.634-13.918 21.026a88.79 88.79 0 0 0 10.392 11.758l109.3-189.4 9.966 4.931s-73.982 168.583-89.302 203.306c12.75 4.82 22.282 5.028 22.282 5.028l8.767-20.06-7.542-20.024 7.75 2.221c10.822-23.963 69.868-169.294 69.868-169.294l1.866 22.22 21.296-56.495-14.1-30.257-48.062-6.33-130.08 218.279 6.065 3.87Z" style="mix-blend-mode:soft-light" opacity=".37"/><path fill="#d3661c" d="M1091.58 1417.067c2.736-9.073 5.913-17.97 8.857-26.958l9.577-26.67c6.394-17.777 13.328-35.336 20.265-52.895 7.1-17.494 14.213-34.98 21.86-52.255l11.494-25.901c4.083-8.533 7.93-17.161 12.22-25.61-2.73 9.074-5.907 17.97-8.847 26.962l-9.574 26.67c-6.4 17.774-13.332 35.335-20.277 52.89-7.11 17.49-14.221 34.978-21.873 52.25l-11.492 25.903c-4.079 8.534-7.924 17.162-12.21 25.614ZM1041.629 1400.493c4.288-8.945 8.985-17.65 13.467-26.481l14.135-26.09c9.431-17.388 19.366-34.48 29.301-51.573 10.089-17.002 20.19-33.997 30.785-50.701l15.916-25.043c5.539-8.21 10.858-16.55 16.59-24.647-4.284 8.948-8.98 17.654-13.457 26.488l-14.134 26.09c-9.437 17.386-19.368 34.48-29.313 51.567-10.096 16.997-20.194 33.993-30.795 50.695l-15.914 25.044c-5.535 8.213-10.853 16.552-16.582 24.651Z"/><ellipse cx="1167.364" cy="1183.193" fill="#f9c023" rx="49.34" ry="59.069" transform="rotate(-63.675 1167.364 1183.193)"/><ellipse cx="1167.364" cy="1183.193" fill="#f77f26" rx="27.097" ry="32.44" transform="rotate(-63.675 1167.364 1183.193)"/><path fill="#ce9065" d="M1877.895 654.944c-3.73 42.623-64.004 66.658-64.004 66.658s-30.436 52.76-68.21 99.094c-25.225 30.953-53.756 59.003-78.732 66.557-26.777 8.128-70.706 9.688-112.169 8.794-23.935-.472-47.004-1.825-65.477-3.155-24.015-1.714-40.161-3.449-40.161-3.449 11.88 160.775-164.217 284.823-164.217 284.823-141.89 12.527-230.3-78.024-230.3-78.024 2.28-61.038 18.102-151.27 18.102-151.27l-17.863 3.415-41.263 7.87-25.295 4.828c-10.182 15.188-22.732 31.116-35.965 46.633-43.246 50.749-93.898 96.946-93.898 96.946 26.088 55.44-11.558 76.65-11.558 76.65l-32.067-25.607c-21.122 14.612-2.475 50.358-2.475 50.358-36.387 26.485-47.397-16.838-47.397-16.838s-34.962-25.036-37.275-29.555c-2.262-4.53-.286-23.895 4.88-36.78 5.168-12.887 70.409-45.284 70.409-45.284 6.953-44.845 40.35-103.11 66.09-142.805 17.356-26.774 31.301-45.056 31.301-45.056 23.465-21.856 50.69-40.189 79.22-55.498a548.684 548.684 0 0 1 58.525-27.08 741.754 741.754 0 0 1 88.157-28.498c55.736-14.335 96.76-18.712 96.76-18.712s22.89-6.76 92.47-11.632c19.204-1.329 52.057.554 89.6 4.027 22.95 2.142 47.595 4.824 71.955 7.727 23.97 2.87 47.594 5.92 68.987 8.75 50.169 6.779 87.884 12.515 87.884 12.515 5.689-2.764 12.01-6.199 18.69-10.032 43.117-24.804 101.524-67.719 101.524-67.719l29.506-79.645s97.993-11.629 94.266 30.994Z"/><path fill="#f9c023" d="M952.341 1007.718c-43.246 50.749-93.898 96.946-93.898 96.946-24.963-26.189-55.483-27.056-55.483-27.056 6.953-44.845 40.35-103.11 66.09-142.805 40.617-5.609 70.973 47.075 83.291 72.915ZM1054.864 948.387c8.534-33.236 20.136-102.184-16.768-141.217a548.54 548.54 0 0 0-58.525 27.08c17.336 13.31 52.593 50.373 34.03 122.007ZM1554.78 896.047c-23.935-.472-47.004-1.825-65.477-3.155 20.954-51.765 1.206-105.557-12.265-132.81 23.97 2.87 47.594 5.918 68.987 8.75 37.832 46.233 24.512 95.943 8.755 127.215ZM1813.891 721.602s-30.436 52.76-68.21 99.094c-35.639-2.7-94.922-12.71-93.082-49.382 43.117-24.804 101.524-67.719 101.524-67.719s11.086 26.52 59.768 18.007ZM1346.575 974.046c-124.16 24.503-199.302-141.231-220.322-195.375 55.736-14.335 96.76-18.713 96.76-18.713s22.89-6.758 92.47-11.631c19.203-1.329 52.057.554 89.6 4.027 22.692 78.42 41.284 201.998-58.508 221.692Z"/><path d="M1132.162 916.4s-70.434 236.896 181.218 234.971c-16.934 14.77-28.455 22.895-28.455 22.895-141.89 12.527-230.3-78.024-230.3-78.024 2.28-61.038 18.102-151.27 18.102-151.27l-17.863 3.415-41.263 7.87-25.295 4.828c-10.182 15.188-22.732 31.116-35.965 46.633-43.246 50.749-93.898 96.946-93.898 96.946 26.088 55.44-11.558 76.65-11.558 76.65l-32.067-25.607c-21.122 14.612-2.475 50.358-2.475 50.358-36.387 26.485-47.397-16.838-47.397-16.838s-34.962-25.036-37.275-29.555c-2.262-4.53-.286-23.895 4.88-36.78 35.098 37.64 87.652 12.996 93.454-9.695 3.805-15.077-21.435-23.548-38.721-27.464 9.102-4.859 15.676-8.125 15.676-8.125a42.59 42.59 0 0 1 .619-3.512 99.743 99.743 0 0 1 18.362 7.422 81.933 81.933 0 0 1 13.316 5.684c20.796-56.162 53.335-95.776 88.12-125.389 31.95-27.358 65.834-46.294 94.145-61.888 18.143-10.033 33.99-18.683 45.626-27.323 14.727-10.999 22.73-21.983 20.019-35.721-4.103-20.79-14.08-31.726-25.43-37.142 23.99-8.671 47.344-15.577 68.516-21.068 55.736-14.335 96.76-18.712 96.76-18.712s22.89-6.76 92.47-11.632c19.204-1.329 52.057.554 89.6 4.027 9.75.919 19.848 1.933 30.06 2.98a187.752 187.752 0 0 1-19.835 38.31c-28.612 43.16-89.01 98.99-213.513 117.052a587.017 587.017 0 0 1-69.633 5.704ZM1877.895 654.944c-.803 9.51-4.466 18.107-9.64 25.69-17.714-1.918-86.428-6.24-87.831 40.956a.166.166 0 0 0-.095.074c-2.91 1.886-63.96 41.659-104.121 83.104-32.302 33.334-51.222 67.69-15.797 84.268-27.078 6.601-67.41 7.834-105.63 7.01-23.936-.47-47.005-1.824-65.478-3.154-24.015-1.714-40.161-3.449-40.161-3.449l-5.73-63.668a491.442 491.442 0 0 0 54.394 4.905c22.482.867 48.766.219 72.345-4.434 30.896-6.097 57.085-19.14 63.758-44.9 5.689-2.764 12.01-6.199 18.69-10.032 43.117-24.805 101.524-67.719 101.524-67.719l29.506-79.645s97.993-11.629 94.266 30.994Z" style="mix-blend-mode:soft-light" opacity=".37"/><path d="M803.579 1074.096a99.743 99.743 0 0 1 18.362 7.422 73.86 73.86 0 0 0-18.981-3.91 42.59 42.59 0 0 1 .619-3.512ZM952.341 1007.718c-43.246 50.749-93.898 96.946-93.898 96.946a88.763 88.763 0 0 0-23.186-17.462c20.796-56.162 53.335-95.776 88.12-125.389 13.187 15.28 23.103 33.664 28.964 45.905ZM1063.148 872.602c1.958 28.76-3.619 57.585-8.284 75.785l-41.263 7.87c5.684-21.902 6.321-40.564 3.92-56.332 18.144-10.033 33.99-18.683 45.627-27.323ZM1570.151 826.246c2.31 26.666-6.097 51.401-15.37 69.8-23.936-.47-47.005-1.824-65.478-3.154 8.535-21.042 10.336-42.397 8.503-62.212 22.482.867 48.766.219 72.345-4.434ZM1780.329 721.664c-2.91 1.886-63.96 41.659-104.121 83.104-14.427-7.432-24.353-18.106-23.61-33.454 43.118-24.805 101.525-67.719 101.525-67.719s5.585 13.334 26.206 18.069ZM1415.308 793.645c-28.612 43.158-89.01 98.988-213.513 117.05-39.253-45.95-64.65-103.988-75.542-132.024 55.736-14.335 96.76-18.713 96.76-18.713s22.89-6.758 92.47-11.631c19.203-1.329 52.057.554 89.6 4.027 3.67 12.782 7.295 26.721 10.225 41.29Z" style="mix-blend-mode:soft-light" opacity=".37"/><path fill="#f9c023" d="M646.424 1600.797s5.154 67.678 93.543 63.564c0 0 12.945 29.23-17.868 44.538s-109.204-33.815-105.736-78.587 35.177-38.442 35.177-38.442Z"/><path d="M735.469 1698.782a41.175 41.175 0 0 1-13.367 10.129c-30.824 15.325-109.21-33.842-105.739-78.601 2.677-34.377 22.016-38.631 30.8-38.724-3.843 5.735-6.748 14.019-7.673 25.957-3.143 40.594 61.039 84.853 95.979 81.239Z" style="mix-blend-mode:soft-light" opacity=".37"/><path fill="#3a4c29" d="M1509.416 708.93s54.757-18.52 96.31-14.597 71.254-1.94 125.997-14.947 117.107-20.906 150.41-25.274 24.385.698 64.514-19.345 68.52-10.215 99.688-8.651 52.97 17.1 92.903-9.518-19.219-30.372 71.982-37.35 105.41-7.576 131.93-12.81 125.845-38.06 130.102-44.411 18.257-8.012 2.806-19.29-83.48-110.269-86.662-109.64 21.844-1.005-9.548 1.883-49.662 16.414-70.375-10.358-43.253-85.144-67.624-91.355-26.701-6.854-36.862-13.666-39.78-34.03-39.78-34.03-7.34-31.615-35.982-25.962-34.379 10.09-55.985 1.13-35.774-24.902-41.064-29.37-57.394-28.349-81.108-42.405-62.893-33.877-70.724-40.046-23.239-33.988-33.833-37.408-25.654-1.55-29.52 17.95-22.767 29.84-31.1 54.63-16.345 6.532-7.3 35.606 16.469 27.609 5.4 44.12-27.68 44.037-48.644 32.745-25.165-26.995-27.748-12.158-16.61 27.525-17.28 40.882 4.563 39.878-9.884 50.444-24.203 11.389-31.643 18.368-2.721-13.79-12.757 13.539-20.03 38.118-35.105 45.501-48.574 5.178-45.657 25.542-9.128 4.006 3.098 32.452 6.029 47.304-9.897 55.957-.544-36.262-21.035 16.275 10.62 76.154 2.524 90.977-15.465-5.765-20.853 28.362.306 46.229.306 46.229Z"/><path fill="#60843a" d="M1819.463 151.757s-20.14 7.05-6.604 36.676-1.48.293 23.1-7.634 19.031-36.053 19.031-36.053-24.016 18.581-25.477 11.18-10.05-4.169-10.05-4.169ZM1808.282 223.162c-7.423 6.51-12.26 17.046-6.974 26.478 4.974 8.876 17.456 11.034 24.763 3.765 7.353-7.315-4.026-18.697-11.38-11.38.177-.177.808-.11.92-.235.435-.484-.473.668-.58-.099.225 1.61.434-2.296.126-.718.544-2.787 2.218-4.424 4.505-6.43 3.269-2.867 2.932-8.449 0-11.38-3.245-3.245-8.103-2.875-11.38 0ZM1844.729 228.762c-3.372 6.619-6.2 14.465-2.064 21.456a14.129 14.129 0 0 0 18.522 5.743c3.949-1.816 4.928-7.52 2.887-11.01-2.37-4.053-7.047-4.71-11.01-2.887a3.43 3.43 0 0 1 3.616-.03q-1.238-.699-.35-.225c.155-.049.488.865.324.87-.567.02 1.83-5.516 1.972-5.794a8.238 8.238 0 0 0-2.887-11.01c-3.59-2.1-9.03-1-11.01 2.887ZM1864.189 220.186l3.155.402c4.319.552 8.047-4.092 8.047-8.047 0-4.806-3.716-7.494-8.047-8.047l-3.155-.403c-4.319-.55-8.048 4.093-8.048 8.048 0 4.806 3.716 7.494 8.048 8.047ZM1872.49 188.09a47.684 47.684 0 0 1 8.175 8.266c2.587 3.484 6.968 5.252 11.01 2.887 3.436-2.01 5.493-7.5 2.887-11.01a63.267 63.267 0 0 0-10.692-11.523c-3.36-2.751-8.093-3.287-11.38 0-2.84 2.84-3.38 8.613 0 11.38Z"/><path fill="#60843a" d="M1902.527 196.16a12.688 12.688 0 0 0 9.475-4.038 8.217 8.217 0 0 0 0-11.38c-2.978-2.98-8.43-3.214-11.38 0q.952-.34 1.905-.676c-10.352.082-10.376 16.177 0 16.094ZM1937.24 185.023a19.708 19.708 0 0 0 7.778 7.071c3.927 1.855 8.682 1.093 11.01-2.887 2.047-3.5 1.06-9.146-2.887-11.01a6.004 6.004 0 0 1-2.004-1.297c-2.44-3.59-7.078-5.187-11.01-2.887-3.56 2.082-5.341 7.398-2.887 11.01ZM1969.152 221.881l3.158.376c4.323.515 8.047-4.067 8.047-8.047 0-4.777-3.712-7.531-8.047-8.047l-3.158-.376c-4.323-.515-8.048 4.067-8.048 8.047 0 4.777 3.712 7.53 8.048 8.047ZM1870.722 133.797l3.155.402c4.319.551 8.047-4.093 8.047-8.047 0-4.806-3.715-7.495-8.047-8.047l-3.155-.403c-4.319-.55-8.047 4.093-8.047 8.047 0 4.807 3.716 7.495 8.047 8.048ZM1847.944 90.622l-4.35 3.934c-3.225 2.917-2.965 8.416 0 11.38a8.191 8.191 0 0 0 11.38 0l4.35-3.934c3.225-2.916 2.965-8.416 0-11.38a8.191 8.191 0 0 0-11.38 0ZM1812.09 123.684l1.574 2.764c5.125 9 19.036.9 13.898-8.123l-1.575-2.764c-5.125-9-19.035-.9-13.897 8.123ZM1722.184 268.24l-13.085 18.654c-2.497 3.56-.645 8.945 2.887 11.01 4.017 2.35 8.507.682 11.01-2.886l13.085-18.654c2.498-3.56.645-8.945-2.886-11.01-4.018-2.35-8.508-.682-11.01 2.887ZM1776.562 310.672a49.17 49.17 0 0 1 11.798-18.135c7.362-7.306-4.018-18.688-11.38-11.38a67.58 67.58 0 0 0-15.938 25.237c-1.485 4.085 1.669 8.813 5.62 9.899 4.478 1.23 8.409-1.521 9.9-5.62ZM1788.15 271.684a10.125 10.125 0 0 1 3.084 6.574 8.227 8.227 0 0 0 8.047 8.047c4.163 0 8.299-3.686 8.047-8.047a27.229 27.229 0 0 0-7.798-17.955c-7.277-7.393-18.656 3.99-11.38 11.38ZM1829.086 318.128a12.26 12.26 0 0 1-.418 1.667c.279-.769-.11.163-.258.407a4.512 4.512 0 0 1-1.373 1.534 13.382 13.382 0 0 1-1.436.727c-.163.05-1.61.344-1.023.277.614-.07-1.494-.088-1.497-.089-4.342-.288-8.048 3.906-8.048 8.048 0 4.596 3.693 7.757 8.048 8.047a21.206 21.206 0 0 0 21.525-16.34c.894-4.249-1.25-8.698-5.621-9.899-3.998-1.098-9 1.348-9.899 5.62Z"/><path fill="#60843a" d="M1811.378 316.29c-15.021 3.098-29.812 9.226-44.37 14.01-9.796 3.217-5.601 18.764 4.278 15.519 14.558-4.783 29.35-10.911 44.37-14.01 10.138-2.09 5.848-17.607-4.278-15.519ZM1754.077 327.247c.88.352.454.06.457.059q-.425-.708-.056-.127.056 1.017.057-.512a8.047 8.047 0 0 0-16.094 0c-.245 7.613 4.577 13.383 11.358 16.1 4.036 1.616 8.84-1.765 9.899-5.621 1.26-4.588-1.57-8.277-5.62-9.9ZM1741.452 310.027c10.356 0 10.373-16.095 0-16.095-10.356 0-10.373 16.095 0 16.095ZM1690.972 350.529c1.214 1.574 2.603 3.654 2.832 5.403.565 4.309 3.295 8.047 8.048 8.047 3.909 0 8.616-3.707 8.047-8.047-.648-4.941-1.936-9.515-5.03-13.527-2.65-3.435-6.918-5.28-11.01-2.886-3.381 1.977-5.558 7.546-2.887 11.01ZM1732.255 354.665a33.019 33.019 0 0 1 .913 20.156c-2.693 10.014 12.828 14.286 15.52 4.278a48.402 48.402 0 0 0-.914-28.713c-3.407-9.709-18.962-5.53-15.52 4.279Z"/><path fill="#60843a" d="M1728.156 380.156c-.602 1.3-.198.312.649.269a8.22 8.22 0 0 0-8.047 8.047c0 4.188 3.685 8.269 8.047 8.048 5.543-.281 10.836-3.028 13.248-8.24 1.824-3.942 1.114-8.67-2.887-11.01-3.476-2.033-9.177-1.076-11.01 2.886ZM1663.31 392.268l-.987.195c-4.266.842-6.711 5.93-5.62 9.899 1.223 4.451 5.62 6.465 9.898 5.62l.987-.194c4.266-.842 6.711-5.931 5.62-9.9-1.223-4.45-5.62-6.464-9.898-5.62ZM1642.652 419.489l3.311 16.777c.842 4.266 5.931 6.71 9.9 5.62 4.45-1.223 6.464-5.62 5.62-9.899l-3.311-16.777c-.842-4.266-5.931-6.71-9.9-5.62-4.45 1.223-6.464 5.62-5.62 9.899ZM1756.507 468.768c.12-1.114-.392 1.284-.403 1.316-.072.216-.565 1.192-.212.51a7.278 7.278 0 0 1-2.201 2.932 8.39 8.39 0 0 1-5.016 2.26 8.224 8.224 0 0 0-8.047 8.048c0 4.173 3.686 8.286 8.047 8.047 12.904-.705 22.563-10.436 23.927-23.113.465-4.328-4.032-8.047-8.048-8.047-4.737 0-7.58 3.707-8.047 8.047ZM1680.143 535.957a63.468 63.468 0 0 1 5.839-25.078c4.356-9.327-9.514-17.51-13.898-8.123a83.492 83.492 0 0 0-8.035 33.201c-.316 10.36 15.779 10.35 16.094 0ZM1711.63 490.521a93.803 93.803 0 0 0 22.14-12.252c3.457-2.622 5.268-6.94 2.887-11.01-1.992-3.404-7.527-5.53-11.01-2.887a79.375 79.375 0 0 1-18.296 10.63c-4.032 1.614-6.864 5.372-5.62 9.899 1.053 3.83 5.84 7.245 9.899 5.62ZM1806.187 434.475c8.408-5.233 17.357-11.095 27.524-7.51 9.787 3.452 13.996-12.092 4.278-15.519-14.337-5.056-27.89 1.64-39.926 9.132-8.775 5.461-.704 19.39 8.124 13.897ZM1882.311 462.873a96.077 96.077 0 0 1 26.511 3.941c9.96 2.916 14.214-12.61 4.279-15.52a112.714 112.714 0 0 0-30.79-4.515c-10.359-.086-10.369 16.009 0 16.094ZM1958.408 457.81a160.071 160.071 0 0 0-8.982-60.164c-3.417-9.705-18.972-5.528-15.52 4.278a147.712 147.712 0 0 1 8.408 55.885c-.425 10.357 15.67 10.338 16.094 0ZM1962.149 397.743l4.71 3.193c3.599 2.44 8.92.687 11.01-2.887 2.321-3.969.72-8.565-2.887-11.01l-4.71-3.193c-3.6-2.44-8.92-.686-11.01 2.887-2.322 3.97-.72 8.565 2.887 11.01Z"/><path fill="#60843a" d="M1977.284 398.538q-2.474-2.152-.952-.016l.538 1.043a29.956 29.956 0 0 0 1.865 3.163 27.595 27.595 0 0 0 6.408 6.497 27.061 27.061 0 0 0 15.822 5.068c10.36.11 10.367-15.985 0-16.095a10.835 10.835 0 0 1-9.043-4.638c-3.187-4.618-4.563-8.516-10.36-10.542-9.797-3.424-14.009 12.12-4.278 15.52Z"/><path fill="#60843a" d="m2021.463 400.869.2-7.49h-15.52c3.363 8.292 6.307 23.043 16.796 25.34a13.139 13.139 0 0 0 9.877-2.006c1.596-1.127 4.66-8.779 5.197-9.006h-8.123c3.855 1.635 5.765 4.969 10.2 5.396 4.898.471 8.53-2.418 11.878-5.45l-12.64-1.63c3.67 8.038 13.684 20.53 24.052 16.797 12.362-4.452 8.56-26.268 7.478-35.662l-3.986 6.948a36.375 36.375 0 0 1 13.461-3.777c10.173-1.16 10.29-17.268 0-16.094a68.348 68.348 0 0 0-21.584 5.974 7.749 7.749 0 0 0-3.986 6.949c.436 3.781 3.464 19.512-.174 22.617l7.83-2.07c-4.92-1.222-7.302-5.663-9.193-9.805-2.27-4.974-9.156-4.783-12.639-1.628 1.427-1.292-1.985-2.804-4.496-3.273a11.142 11.142 0 0 0-8.873 2.227c-1.41 1.14-4.835 5.33-4.298 7.38q-1.351 2.542 2.086.897 4.347.57 1.332-2.995c-.051-2.838-3.677-8.944-4.676-11.408-3.084-7.607-12.418-7.583-15.52 0-2.357 5.765-2.34 10.26-.199 16.047 3.564 9.631 19.125 5.466 15.52-4.278Z"/><path fill="#60843a" d="m2031.492 392.149 6.332-6.173c1.82-1.774 5.109-3.964 6.332-6.172q4.748-3.262-4.032-3.378.695 1.605 1.231 3.27a80.033 80.033 0 0 1 2.174 7.805c1.158 4.924 7.548 7.555 11.822 4.81 4.725-3.037 8.162-7.363 8.978-13.022.626-4.335-1.071-8.593-5.62-9.9-3.771-1.082-9.28 1.326-9.9 5.621-.228 1.585-.232 2.536-1.581 3.403l11.82 4.81c-1.874-7.981-4.548-20.903-14.964-20.87-5.188.016-8.613 3.443-12.1 6.842l-11.873 11.573c-7.43 7.243 3.956 18.619 11.38 11.38ZM1990.368 326.04c-.633-1.86-.58-3.11.307-3.914a2.606 2.606 0 0 1 1.465-.83c.617-.19-.147-.184.983-.13 1.472.073-.122-.14 1.397.332 9.916 3.074 14.157-12.457 4.279-15.52-14.63-4.536-28.943 9.672-23.95 24.341a8.238 8.238 0 0 0 9.898 5.62c4.008-1.1 7.027-5.766 5.62-9.898ZM2011.127 304.148c.404-.165 3.108-.778 1.916-.689a12.274 12.274 0 0 1 1.679.027q-.917-.109-.067.07a9.653 9.653 0 0 1 1.21.364q-.954-.374.35.278 1.226.78.366.267.974 1.066.353.302c2.514 3.538 7.022 5.22 11.01 2.887 3.497-2.046 5.417-7.45 2.887-11.01-5.295-7.452-15.098-11.655-23.982-8.015-4.02 1.646-6.872 5.348-5.62 9.899 1.045 3.805 5.852 7.278 9.898 5.62ZM2045.072 295.002c1.628-3.34 3.074-6.886 5.002-10.061l-2.887 2.887.743-.467-6.201.81c-.329-.05-.705-.619-.354-.166a26.042 26.042 0 0 0 2.161 1.974 21.915 21.915 0 0 1 2.8 3.362 25.52 25.52 0 0 1 3.645 8.84c2.265 10.102 17.785 5.826 15.52-4.28a39.163 39.163 0 0 0-12.746-21.277c-3.872-3.236-8.352-5.87-13.32-2.927-4.33 2.566-6.154 8.863-8.26 13.182-1.905 3.905-1.061 8.701 2.886 11.01 3.537 2.07 9.098 1.036 11.01-2.886ZM2124.15 339.724a62.819 62.819 0 0 1 4.857-10.203 68.629 68.629 0 0 1 2.98-4.645q.76-1.1 1.58-2.155 2.056-1.898.068-.845h-4.278l1.005.265-3.551-2.07c1.14.961 1.807 3.534 2.428 4.954l3.085 7.063c1.582 3.62 6.758 4.74 10.049 3.293 3.836-1.686 5.444-5.448 4.66-9.494l-.57-2.938c-1.97-10.158-17.485-5.858-15.52 4.278l.57 2.939 14.708-6.201c-2.032-4.651-3.598-10.884-7.214-14.586a10.396 10.396 0 0 0-14.256-.69c-7.737 6.426-12.726 17.536-16.12 26.756-1.501 4.08 1.68 8.817 5.62 9.9 4.492 1.233 8.393-1.527 9.9-5.621ZM2156.616 334.13c4.619 4.418 9.94 3.39 15.167.917l.896-.441q1.265-.589-.145.029 1.37-.375-.45-.097a5.357 5.357 0 0 1-4.566-2.959c-.274.315 1.35 4.192 1.52 4.717l1.518 4.717 14.709-6.201-2.666-3.692c-2.54-3.52-7.002-5.231-11.01-2.887-3.475 2.032-5.444 7.467-2.887 11.01l2.666 3.692c2.342 3.245 6.152 5.006 10.049 3.293 3.513-1.545 5.91-5.607 4.659-9.494-2.043-6.341-3.391-16.133-11.07-17.934-3.28-.77-6.26.021-9.26 1.358q-1.206.538-2.384 1.138c-1.655.84.796-.085-.092.013q-.684.181.269.005a4.958 4.958 0 0 1 4.458 1.435c-7.485-7.161-18.883 4.203-11.38 11.38Z"/><path fill="#60843a" d="M2132.073 339.968c8.284 9.145 2.017 31.257 16.311 35.134a8.247 8.247 0 0 0 9.088-3.698l.385-.613c5.522-8.798-8.398-16.885-13.897-8.123l-.385.613 9.088-3.699q4 5.02 2.715 1.923-.46-1.28-.797-2.6c-.32-1.178-.581-2.374-.833-3.568-.692-3.293-1.164-6.63-1.903-9.914a36.05 36.05 0 0 0-8.392-16.836c-6.969-7.693-18.323 3.717-11.38 11.38ZM2174.66 359.712l.22-.62-2.069 3.551q-5.032 2.868-7.147-.124-.434-.6.297.533a15.842 15.842 0 0 0 2.101 3.054 9.172 9.172 0 0 0 7.998 3.1 8.639 8.639 0 0 0 4.846-14.65c-7.334-7.333-18.717 4.044-11.38 11.38l.295.295-2.07-7.83-.108.486 3.699-4.81-.413.278 6.2-.812-.71-.26q1.776 1.034 3.551 2.07c.806.956-.546-1.142-.54-1.132a16.925 16.925 0 0 0-1.99-2.603 11.962 11.962 0 0 0-5.774-3.365c-5.664-1.378-10.653 1.94-12.526 7.18-1.464 4.093 1.652 8.81 5.62 9.9 4.46 1.225 8.43-1.513 9.9-5.62ZM2210.43 379.557a75.461 75.461 0 0 0 16.572-2.001 64.284 64.284 0 0 0 6.958-2.14q2.107-.811 4.178-1.709 3.945-.418.14-3.55c-.026 10.357 16.069 10.372 16.094 0 .023-9.06-7.948-14.753-16.7-13.119-4.334.81-8.355 3.165-12.601 4.378a56.084 56.084 0 0 1-14.641 2.047c-10.345.184-10.378 16.279 0 16.094Z"/><path fill="#60843a" d="M2254.416 394.575c5.114.854 8.51-.648 11.603-4.691 1.847-2.415 1.046-5.65 0-8.124l-1.36-3.22c-1.693-4.004-7.605-4.88-11.011-2.887-4.146 2.425-4.586 6.99-2.887 11.01l1.36 3.22v-8.123l-.444.582 2.887-2.887.574-.279h4.278l-.722-.12c-4.282-.715-8.664 1.125-9.899 5.62-1.06 3.855 1.31 9.18 5.62 9.9ZM2145.42 257.312a127.008 127.008 0 0 0 35.267-13.698l-11.01-2.887c3.236 4.774 4.044 9.135 2.364 14.685-3.008 9.935 12.522 14.181 15.52 4.279a31.401 31.401 0 0 0-3.987-27.087c-2.459-3.628-7.018-5.16-11.01-2.887a112.196 112.196 0 0 1-31.424 12.076c-10.103 2.258-5.827 17.778 4.28 15.52Z"/><path fill="#60843a" d="M2151.547 247.551c10.356 0 10.373-16.094 0-16.094-10.356 0-10.373 16.094 0 16.094Z"/><path fill="#60843a" d="M2135.84 235.395a3.499 3.499 0 0 1-1.5-1.617q-2.13-1.823-.405-4.61c-1.75 3.975-1.163 8.641 2.887 11.01 3.419 2 9.25 1.111 11.01-2.887 1.589-3.607 2.036-7.005.373-10.696a11.64 11.64 0 0 0-8.086-6.72c-4.257-.856-8.69 1.223-9.899 5.62-1.09 3.968 1.34 9.039 5.62 9.9ZM2128.447 252.543l2.95-5.726a8.233 8.233 0 0 0-2.887-11.01c-3.604-2.108-9.012-.99-11.01 2.887l-2.95 5.726a8.233 8.233 0 0 0 2.886 11.01c3.605 2.108 9.013.99 11.01-2.887ZM2090.959 257.458c10.356 0 10.373-16.095 0-16.095-10.356 0-10.374 16.095 0 16.095ZM2163.085 251.123c.43 1.87 1.27 4.362.926 6.337q-.358 1.758-.282 1.106-.013-.078.07-.033c-.197 1.536-2.095-.272.856.347-4.25-.891-8.697 1.246-9.9 5.62-1.097 3.995 1.348 9.004 5.621 9.899a15.85 15.85 0 0 0 17.254-7.752c3.546-6.098 2.472-13.276.974-19.803-2.314-10.09-17.836-5.82-15.52 4.279ZM2029.546 243.585c1.064-2.098 2.065-4.51 3.752-6.186a7.983 7.983 0 0 1 1.313-.956c1.633-.475-.377-.366 1.173.194 4.087 1.478 8.811-1.663 9.899-5.62 1.228-4.472-1.519-8.416-5.62-9.9-11.189-4.044-19.87 5.385-24.415 14.345a8.24 8.24 0 0 0 2.887 11.01c3.585 2.096 9.037 1.003 11.01-2.887ZM2006.94 209.56c1.273-1.472 1.084-1.278 2.285-1.75l.862-.212q-1.013.127.503.042c-1.219-.149 1.243.317 1.33.344 4.146 1.299 8.776-1.535 9.899-5.62a8.182 8.182 0 0 0-5.621-9.9 19.868 19.868 0 0 0-20.638 5.716c-2.84 3.287-3.23 8.15 0 11.38 2.904 2.905 8.527 3.304 11.38 0Z"/><path fill="#60843a" d="m2020.625 199.304 3.475 18.037 5.62-9.9a24.848 24.848 0 0 1-8.02.83q-2.078-.11-4.147-.331-5.103-1.177.414 6.638l-14.709-1.923a20.081 20.081 0 0 1 1.106 11.495l9.899-5.62.073.286c-3.082-9.852-18.624-5.646-15.52 4.278a15.448 15.448 0 0 0 11.168 10.955c4 1.081 9.003-1.339 9.9-5.62a35.972 35.972 0 0 0-1.106-20.052c-2.482-6.88-10.52-7.563-14.708-1.923-4.505 6.065-.228 14.282 6.337 16.469 7.102 2.366 16.48 2.032 23.592.038 4.425-1.24 6.448-5.603 5.62-9.899l-3.475-18.036c-1.957-10.16-17.472-5.858-15.52 4.279ZM1988.998 202.272c3.673-1.916 5.29-5.214 5.43-9.24.154-4.389-3.812-7.994-8.047-8.048a34.79 34.79 0 0 1-16.21-4.112c-9.134-4.878-17.273 9.01-8.124 13.897a52.544 52.544 0 0 0 24.334 6.31l-8.047-8.048-.035.99 1.1-4.062-.534.845 2.887-2.887-.878.458c-9.187 4.79-1.059 18.685 8.124 13.897ZM1956.644 181.896l3.96-5.908c2.422-3.612.701-8.912-2.886-11.01-3.953-2.313-8.584-.734-11.01 2.886l-3.96 5.908c-2.422 3.612-.701 8.912 2.886 11.01 3.954 2.313 8.584.733 11.01-2.886ZM1914.422 139.265l.779 3.947c.841 4.266 5.93 6.711 9.899 5.62 4.451-1.223 6.464-5.62 5.62-9.899l-.779-3.947c-.842-4.266-5.93-6.71-9.899-5.62-4.451 1.223-6.465 5.62-5.62 9.899ZM1914.297 248.337a35.74 35.74 0 0 1 6.517 6.751 26.402 26.402 0 0 1 2.366 3.929 7.615 7.615 0 0 1 .663 1.455q.36 2.517 1.619-2.073h4.278l-1.13-.245c-10.098-2.181-14.413 13.33-4.278 15.52 9.893 2.137 17.334-6.45 15.37-16.074-1.634-8.006-7.906-15.555-14.025-20.643-3.339-2.777-8.11-3.272-11.38 0-2.858 2.858-3.358 8.588 0 11.38ZM1870.92 299.168a41.57 41.57 0 0 1 8.987 17.094c2.662 10 18.19 5.758 15.52-4.279a59.362 59.362 0 0 0-13.126-24.195c-6.869-7.78-18.216 3.637-11.38 11.38ZM1914.04 305.807c-2.506.419-2.378-.76-1.658.093-.56-.663-1.506-2.476-1.166-.93.933 4.246 5.867 6.728 9.899 5.62a8.194 8.194 0 0 0 5.62-9.9c-1.736-7.902-9.499-11.653-16.974-10.403-4.29.718-6.687 6.019-5.62 9.9 1.25 4.548 5.596 6.34 9.898 5.62ZM2345.428 461.25l10.172-11.237c2.536-2.8 6.217-8.583 9.698-10.07l-6.2.81c.304.063 2.247 5.333 2.499 6.04 3.453 9.686 19.01 5.512 15.52-4.28-2.913-8.171-9.022-21.319-19.942-16.468-4.363 1.939-7.458 6.514-10.608 9.994l-12.52 13.831c-6.936 7.663 4.412 19.08 11.381 11.38Z"/><path fill="#60843a" d="M2368.27 425.557c2.596 3.056 6.07 4.685 9.638 6.305 1.032.469 2.658 1.797 3.51 1.924.9.135-.276-.074-.18-1.342.092-1.216 2.476-2.567 2.823-2.693-4.081 1.486-6.838 5.466-5.62 9.899 1.082 3.936 5.795 7.115 9.899 5.62a13.382 13.382 0 0 0 6.967-19.706 19.806 19.806 0 0 0-8.351-7.171c-2.66-1.286-5.47-2.056-7.305-4.217-2.815-3.315-8.484-2.897-11.38 0-3.285 3.284-2.822 8.058 0 11.38ZM2379.593 473.104a18.014 18.014 0 0 1 13.04 2.912c3.626 2.4 8.903.715 11.01-2.887a8.194 8.194 0 0 0-2.886-11.01 31.747 31.747 0 0 0-21.164-5.11c-4.312.538-8.047 3.314-8.047 8.047 0 3.932 3.705 8.59 8.047 8.048ZM2282.901 443.59c4.886 1.475 8.067 5.363 9.074 10.765.797 4.275 5.963 6.702 9.9 5.62 4.485-1.233 6.42-5.611 5.62-9.899-1.964-10.53-10.195-18.951-20.315-22.005-9.938-2.999-14.185 12.53-4.279 15.52ZM2252.74 484.378c2.08.949-.517-1.336-.364-1.305-.075-.015-.969.646-1.645.98a11.023 11.023 0 0 1-2.59.917 5.918 5.918 0 0 1-2.058 0c.09.026.28-.132.4-.02-7.55-7.08-18.955 4.277-11.38 11.38 7.53 7.063 19.281 5.587 26.93-.572 7.798-6.279 9.276-20.515-1.17-25.277-3.952-1.801-8.662-1.129-11.01 2.887-2.023 3.458-1.087 9.199 2.886 11.01ZM2095.695 452.844c3.457 1.756 5.68 5.963 4.09 9.34-1.85 3.93-1.096 8.68 2.887 11.01 3.496 2.045 9.15 1.063 11.01-2.887 5.299-11.253 1.659-25.505-9.863-31.36-9.214-4.683-17.37 9.198-8.124 13.897ZM2118.562 491.337c5.609 2.206 8.93 5.974 11.59 11.227l1.258-9.752c-.504.487-5.825 1.397-7.673 3.524-2.688 3.094-2.84 6.67-1.388 10.297 3.483 8.7 14.586 13.767 23.28 14.965 21.609 2.978 39.506-15.31 37.88-36.684-.78-10.263-16.882-10.347-16.094 0 .618 8.123-2.252 15.958-10.208 19.524-6.615 2.964-17.635 1.45-20.961-5.928v8.123l.759-1.36-4.81 3.699c4.119-1.46 7.27-1.567 10.595-4.78a8.254 8.254 0 0 0 1.259-9.751c-4.657-9.195-11.718-14.89-21.208-18.624-9.642-3.793-13.823 11.765-4.279 15.52ZM2174.74 452.4c.795.437 1.565.898 2.324 1.393-.231-.15.237.81.228.185-.075-5.217-1.352 1.771-1.383 2.741a13.637 13.637 0 0 0 7.74 12.494c3.989 1.718 8.63 1.184 11.01-2.887 1.986-3.394 1.127-9.281-2.886-11.01-1.7-.732-.067.171.163 1.03q-.35 2.647.041 1.162.201-.7.46-1.38a13.617 13.617 0 0 0-.07-7.624c-1.413-4.58-5.47-7.781-9.504-10.001-9.08-4.998-17.209 8.896-8.123 13.897ZM2120.02 425.58c3.63 4.25 6.782 10.414 6.786 16.127l1.099-4.062-.34.712 4.81-3.699-.505.159h4.279l-.482-.199 5.62 5.62-.118-.438c-2.69-9.99-18.22-5.752-15.52 4.278a8.742 8.742 0 0 0 10.752 6.179c5.539-1.545 6.87-6.884 6.188-11.904a46.528 46.528 0 0 0-11.188-24.153c-2.824-3.308-8.477-2.903-11.38 0-3.278 3.277-2.831 8.065 0 11.38ZM2029.386 461.948c2.762 20.804 13.437 38.317 31.263 49.627v-13.897a34.531 34.531 0 0 1-10.799 2.884c-10.201 1.054-10.31 17.16 0 16.095a59.213 59.213 0 0 0 18.922-5.082c5.83-2.609 4.622-10.964 0-13.897a50.378 50.378 0 0 1-23.292-35.73c-1.343-10.118-17.456-10.252-16.094 0ZM2078.542 521.92c-.699-.855-.455.024-.648.507a3.795 3.795 0 0 1-1.415 1.766c-2.836 2.115-7.215 2.168-10.6 2.429l2.14 15.807 6.168-1.77c9.938-2.852 5.712-18.387-4.279-15.52l-6.168 1.77c-8.424 2.417-7.19 16.524 2.14 15.807 8.337-.641 17.61-1.801 23.404-8.575 5.994-7.01 6.488-16.441.638-23.601-2.751-3.369-8.524-2.856-11.38 0-3.33 3.33-2.759 8.003 0 11.38Z"/><path fill="#60843a" d="M2073.091 525.323a119.146 119.146 0 0 1-45.849 17.276c-10.2 1.628-5.87 17.14 4.279 15.52a130.789 130.789 0 0 0 49.693-18.9c8.72-5.535.656-19.47-8.123-13.896ZM1975.924 547.42c-3.015 1.494-.792-.853-1.024 1.72-.107 1.192.651 2.869.84 4.06a19.066 19.066 0 0 1 .405 4.061l-.084 1.409q-1.818 3.087 4.419 3.04c.598-10.347-15.498-10.312-16.094 0-.432 7.46 6.186 13.66 13.58 13.281 7.886-.403 13.204-7.528 14.056-14.875.787-6.796-.565-15.834-4.52-21.569a15.148 15.148 0 0 0-19.702-5.025c-9.28 4.6-1.136 18.487 8.124 13.897Z"/><path fill="#60843a" d="M1969.371 571.382a23.57 23.57 0 0 1 2.435 5.638l13.45-7.83-2.272-2.626c-2.845-3.288-8.464-2.916-11.38 0-3.262 3.262-2.852 8.084 0 11.381l2.271 2.626c5.358 6.193 15.615-.402 13.45-7.83a42.508 42.508 0 0 0-4.056-9.482c-5.21-8.947-19.126-.854-13.897 8.123ZM1977.632 520.459c.896-.022.873.067 1.252.27a22.387 22.387 0 0 0 3.678 1.527 13.84 13.84 0 0 0 8.038.14c5.996-1.714 9.915-7.51 8.233-13.695-2.713-9.983-18.244-5.746-15.52 4.278q-.506-5.187 3.009-6.103a2.923 2.923 0 0 1 1.414.135c-.4.154-1.318-.45-1.598-.56-2.857-1.116-5.333-2.163-8.506-2.087-10.34.25-10.378 16.345 0 16.095ZM1990.96 472.115c-15.674-1.592-37.137-1.567-47.565 12.108-6.28 8.234 7.692 16.26 13.897 8.123 2.986-3.915 11.96-4.051 16.35-4.443a91.034 91.034 0 0 1 17.318.306c10.295 1.046 10.222-15.056 0-16.094ZM1932.112 510.06c-9.882 11.29-25.109 2.066-35.252-3.962-8.925-5.304-17.03 8.604-8.123 13.897 16.588 9.858 39.531 18.838 54.756 1.446 6.796-7.764-4.543-19.191-11.38-11.38Z"/><path fill="#60843a" d="M1875.237 527.23q5.426 15.384 10.93 30.74c2.429 6.775 10.619 7.692 14.709 1.923a19.328 19.328 0 0 0 3.562-12.684c-.62-10.292-16.72-10.363-16.095 0 .14 2.303-.031 2.68-1.364 4.56l14.708 1.923q-5.504-15.356-10.93-30.74c-3.423-9.702-18.978-5.525-15.52 4.278Z"/><path fill="#60843a" d="M1891.964 549.447c3.513 5.194 6.79 11.884 11.486 16.09 5.814 5.206 13.666 3.145 19.582-.636 8.702-5.561.64-19.497-8.123-13.897-.024.015-3.556 2.117-3.591 1.795q3.065 2.043 2.721.617l-1.635-2.419-6.543-9.674c-5.772-8.533-19.721-.488-13.897 8.123Z"/><path fill="#60843a" d="M1916.281 554.98a35.333 35.333 0 0 1-5.68 11.699c-2.546 3.525-.609 8.965 2.887 11.01 4.059 2.374 8.458.647 11.01-2.887a47.871 47.871 0 0 0 7.303-15.544c2.707-10.01-12.815-14.282-15.52-4.278ZM1853.374 594.116c-.455 1.204-2.008 2.113-.667 1.436 3.536-1.786 4.808-6.6 3.292-10.049-1.74-3.959-5.398-5.26-9.493-4.66l-5.356.785c-4.304.63-6.67 6.08-5.62 9.9 1.268 4.615 5.581 6.252 9.898 5.62l5.356-.785-6.2-14.708c-3.41 1.721-5.418 4.705-6.73 8.182-1.534 4.067 1.705 8.823 5.621 9.9 4.519 1.24 8.359-1.54 9.899-5.621ZM1801.982 580.161l8.467 1.474c4.277.744 8.67-1.146 9.899-5.62 1.066-3.88-1.316-9.15-5.62-9.9l-8.467-1.474c-4.277-.744-8.67 1.146-9.9 5.621-1.065 3.878 1.316 9.15 5.621 9.899ZM1830.185 550.502l9.63 1.772c5.731 1.054 11.828-3.598 9.898-9.9q-8.657-28.267-16.05-56.885l-9.9 9.9 13.082 2.38c10.127 1.843 14.47-13.664 4.279-15.52l-13.082-2.38c-5.948-1.083-11.531 3.58-9.899 9.899q7.395 28.623 16.05 56.885l9.9-9.899-9.63-1.771c-10.125-1.863-14.466 13.645-4.278 15.52Z"/><path fill="#60843a" d="M1839.803 495.791c2.993 2.304 8.464 6.83 7.844 11.276-.574 4.11-5.936 6.676-9.046 8.502-8.927 5.24-.838 19.157 8.123 13.897 8.38-4.92 16.776-11.824 17.017-22.399.25-10.938-7.77-18.98-15.814-25.173-3.47-2.671-8.979-.504-11.01 2.887-2.47 4.124-.54 8.373 2.887 11.01ZM1778.077 536.27a31.714 31.714 0 0 0 8.273-8.107l-14.708-1.922c.426 1.631-.039.078.168-.42-.662 1.595.856-.332-.365.977.925-.99-.682 1.103.175-.077-.5.688-.834.308.41.159-4.314.518-8.047 3.327-8.047 8.047 0 3.947 3.703 8.569 8.047 8.047 5.382-.646 9.75-2.832 12.868-7.4a16.569 16.569 0 0 0 2.263-13.612 8.017 8.017 0 0 0-6.69-5.764c-3.409-.406-6.053 1.116-8.018 3.842a16.092 16.092 0 0 1-2.499 2.332c-3.6 2.427-5.181 7.088-2.887 11.01 2.089 3.571 7.39 5.328 11.01 2.887ZM1745.902 562.622a41.626 41.626 0 0 1 4.527 7.476 32.478 32.478 0 0 1 1.43 3.447l.517 1.58q.315 3.593 2.452-.84h4.278l-1.177-.169c-4.296-.619-8.646 1.06-9.899 5.62-1.038 3.78 1.292 9.276 5.62 9.9 9.803 1.412 16.579-6.013 14.932-15.747-1.419-8.392-6.161-16.055-11.3-22.647-2.674-3.43-8.574-2.807-11.38 0-3.387 3.387-2.682 7.94 0 11.38ZM1712.74 596.214q-3.569-4.914 2.496-8.366c-4.1 1.434-6.828 5.504-5.62 9.899 1.093 3.978 5.778 7.062 9.899 5.62 7.598-2.659 11.022-12.608 4.605-18.533-7.6-7.018-19.01 4.336-11.38 11.38Z"/><path fill="#60843a" d="M1758.88 564.696c-3.034 1.87-7.435 5.454-10.911 6.407l9.088 3.699q.787-6.246-3.818-5.266l-6.201-.812c4.284 2.188 6.756 8.475 8.797 12.49 2.154 4.236 9.51 5.621 12.639 1.628l6.98-8.906-13.45-3.551a111.603 111.603 0 0 1 3.48 13.436c1.05 5.403 7.538 6.975 11.822 4.809 10.928-5.526 17.236-15.435 22.91-25.91l-14.996-4.06c-1.104 12.416.925 31.532 16.875 32.922 4.703.41 7.554-4.05 8.047-8.048l.076-.614c.454-3.675-2.86-6.631-5.908-7.76l-.473-.175c-9.727-3.603-13.924 11.947-4.279 15.519l.474.176-5.908-7.76-.076.614 8.047-8.047c-1.925-.167-.954-14.883-.78-16.828.716-8.065-11.346-10.802-14.997-4.061-4.382 8.09-8.631 15.834-17.135 20.135l11.821 4.81a111.603 111.603 0 0 0-3.481-13.436c-1.677-5.14-9.46-8.644-13.45-3.551l-6.98 8.906 12.64 1.629c-3.937-7.743-12.307-23.873-23.717-18.384-9.469 4.556-8.228 21.117-2.856 28.218 2.192 2.898 5.349 4.723 9.087 3.698 5.377-1.474 10.051-5.13 14.756-8.03 8.801-5.426.727-19.353-8.123-13.897Z"/><path fill="#60843a" d="m1785.394 537.753-.374.428q1.776-1.034 3.551-2.07l-.46.129h4.278a4.246 4.246 0 0 1 3.075 2.757l-.244-1.179c-.192-1.38-.573-2.761-.856-4.126l-1.59-7.664c-.883-4.257-5.902-6.719-9.9-5.62-4.418 1.214-6.505 5.629-5.62 9.899 1.038 5 1.378 11.393 3.891 15.889 3.06 5.473 10.964 8.288 15.63 2.938 2.854-3.274 3.22-8.16 0-11.38-2.916-2.916-8.513-3.29-11.381 0Z"/><path fill="#60843a" d="M1774.195 513.37a16.827 16.827 0 0 0 8.265 14.517c8.863 5.413 16.959-8.5 8.123-13.896.538.328-.615-.814-.33-.29.176.324.05 1.645.037-.332-.067-10.353-16.162-10.376-16.095 0ZM1678.572 556.333a22.395 22.395 0 0 1 4.307 3.779 20.25 20.25 0 0 1 1.37 1.716c2.062 2.906-.453 1.439 1.252-1.968l2.887-2.887-.55.409 4.06-1.1q-.383.017-.767.032l6.949 12.11a18.928 18.928 0 0 1 9.144-6.5l-10.187-7.76a16.876 16.876 0 0 1-2.109 10.86l12.639-1.63.61.897c-.654-4.3-6.062-6.675-9.898-5.62-4.597 1.263-6.277 5.585-5.62 9.899a10.37 10.37 0 0 0 3.527 6.205c3.855 3.36 9.893 3.097 12.639-1.628a31.307 31.307 0 0 0 4.307-18.983c-.5-4.847-4.783-9.591-10.187-7.76a37.573 37.573 0 0 0-18.762 13.896c-3.632 4.927 1.255 12.343 6.948 12.109 7.972-.328 11.546-8.047 8.926-15.08-2.323-6.24-7.997-11.263-13.362-14.893-8.601-5.82-16.664 8.118-8.123 13.897ZM1678.575 572.586l-47.659-1.485 6.949 12.11a47.253 47.253 0 0 1 9.87-11.44c7.867-6.764-3.56-18.104-11.38-11.381a61.036 61.036 0 0 0-12.387 14.697c-3.288 5.363 1.01 11.924 6.948 12.109l47.659 1.485c10.36.322 10.349-15.772 0-16.095Z"/><path fill="#60843a" d="M1649.214 576.05c-1.808-.595-1.594-2.801-1.976-.98-.125.597.705 2.668.867 3.158a18.052 18.052 0 0 0 3 5.92c4.114 5.043 10.537 5.123 16.097 2.491a34.928 34.928 0 0 0 17.728-20.76c.388-1.222.62-2.47.909-3.715q.225-1.295.572-2.56.663-1.586-.792-.022c4.736.177 7.52-3.862 8.047-8.047a10.64 10.64 0 0 0-3.62-9.171c-7.576-7.05-18.983 4.306-11.381 11.38l-1.094-2.209 8.048-8.047c-5.841-.218-10.614 2.975-13.267 8.073-2.756 5.296-2.292 11.12-6.282 15.926a18.551 18.551 0 0 1-2.787 2.714c-2.008 1.583-2.739.706-.994 2.866 2.72 3.368.688-1.728.29-2.898-1.595-4.696-4.28-8.054-9.087-9.638-9.86-3.249-14.086 12.288-4.278 15.52ZM1634.545 536.083l1.579-1.708-5.69 2.357 2.323-.088-4.062-14.996c-12.906 9.518-28.075 7.832-38.407-4.47-6.67-7.941-18.004 3.495-11.38 11.38a42.337 42.337 0 0 0 57.91 6.987c5.9-4.35 4.657-15.33-4.06-14.996-4.36.167-6.64.96-9.594 4.153-7.025 7.595 4.33 19.004 11.38 11.38ZM1585.08 494.171l4.766 4.328a8.223 8.223 0 0 0 11.38 0c2.965-2.966 3.23-8.448 0-11.381l-4.765-4.327a8.223 8.223 0 0 0-11.38 0c-2.966 2.965-3.23 8.447 0 11.38Z"/><path fill="#60843a" d="m1608.98 492.78 3.384 18.078 11.821-9.088-.782-.592 3.698 4.81-1.517 5.179h-11.38a8.022 8.022 0 0 1 3.088 3.89 8.162 8.162 0 0 0 14.708 1.922l18.326-27.007h-13.897c2.202 3.63 2.054 11.404-.033 15.117-2.14 3.807-7.32 4.702-11.258 5.51-10.14 2.08-5.848 17.596 4.278 15.519 8.863-1.818 17.784-5.887 21.734-14.559 3.917-8.6 4.13-21.547-.824-29.71-3.281-5.407-10.526-4.968-13.897 0l-18.326 27.006 14.708 1.923a22.946 22.946 0 0 0-7.227-10.992c-3.35-2.747-8.073-3.334-11.38 0-5.113 5.155-3.506 11.82 1.858 15.881 6.181 4.681 12.956-3.022 11.821-9.087l-3.383-18.08c-1.903-10.167-17.417-5.861-15.52 4.28ZM1601.648 529.241l3.697 4.205c.386.44 3.017 4.19 2.354 2.047v-4.279l-.234.748 2.07-3.551c-3.493 4.505-7.59 8.64-11.373 12.906-6.852 7.725 4.49 19.149 11.38 11.38l7.248-8.173c2.268-2.556 5.364-5.28 6.312-8.658 2.034-7.248-5.858-13.21-10.074-18.005-6.852-7.794-18.198 3.625-11.38 11.38ZM1571.216 560.525c-4.325 5.099-5.466 11.507-2.32 17.64a25.103 25.103 0 0 0 5.905 7.2c1.127 1.001 2.362 1.908 3.416 2.99l1.201 1.244q1.105 2.362 2.614-1.527c-10.328-.8-10.276 15.298 0 16.095 8.46.655 14.729-7.334 13.913-15.383a18.833 18.833 0 0 0-5.146-10.565 49.612 49.612 0 0 0-3.905-3.618q-1.452-1.196-2.783-2.526-1.041-2.564-1.514-.17c6.663-7.854-4.668-19.292-11.38-11.38Z"/><path fill="#60843a" d="M1598.762 596.176a49.753 49.753 0 0 0 1.334 8.427c.166.712 1.103 3.158.717 3.98.196-.417.684-.828-.438-.273-2.25 1.114-5.845.877-8.225 1.117l-11.786 1.19c-4.358.44-7.998 3.384-8.047 8.047-.042 4.016 3.728 8.483 8.047 8.047 9.345-.943 22.269.02 30.225-5.728a15.197 15.197 0 0 0 6.252-11.68c.236-4.54-1.727-8.683-1.985-13.127-.597-10.296-16.695-10.364-16.094 0Z"/><path fill="#60843a" d="M1570.306 610.82a246.781 246.781 0 0 1-11.424 23.315 8.234 8.234 0 0 0 1.258 9.752 18.166 18.166 0 0 0 7.088 4.289c9.762 3.513 13.967-12.033 4.278-15.52l.015-.15 1.258 9.752a285.642 285.642 0 0 0 13.047-27.159c1.7-4.037-1.833-8.811-5.62-9.899-4.63-1.33-8.22 1.636-9.9 5.62Z"/><path fill="#60843a" d="M1596.864 637.578c.047-2.31.629-3.948 2.603-5.313l-9.752-1.259c4.244 4.796 2.908 12.484 9.266 15.56a10.844 10.844 0 0 0 7.753.612c1.267-.374 6.188-4.537 6.331-4.524l-5.69-2.357c3.017 2.848 2.464 6.282 7.181 7.851a10.639 10.639 0 0 0 5.405.223c6.368-1.439-1.885-3.965-1.086.27 1.919 10.165 17.433 5.86 15.52-4.279-.852-4.511-2.756-8.963-6.874-11.419a11.835 11.835 0 0 0-6.887-1.596q-1.433.181-2.858.42-6.137 1.854 4.739 2.934c.528-4.209-6.534-7.8-9.45-8.142a10.52 10.52 0 0 0-6.067.926 19.335 19.335 0 0 0-3.562 2.433q-4.262 3.113 2.395 1.99l3.698 4.81c-2.032-6.539-3.805-11.862-8.434-17.092-2.2-2.487-6.971-3.18-9.751-1.259-6.751 4.668-10.407 10.928-10.575 19.21-.21 10.362 15.885 10.36 16.095 0Z"/><path fill="#60843a" d="M1629.649 642.745a21.876 21.876 0 0 1 3.855 7.758c2.18 7.466 13.524 7.85 15.52 0a85.5 85.5 0 0 0 2.616-19.462l-10.187 7.76c-1.75-.555-4.349-4.11-2.902-6.17-2.5 3.558-.642 8.947 2.887 11.01 4.02 2.352 8.504.68 11.01-2.886 4.571-6.505.325-15.239-6.716-17.474-5.094-1.617-10.094 2.718-10.187 7.76a65.743 65.743 0 0 1-2.041 15.184h15.52a41.726 41.726 0 0 0-7.995-14.86c-2.739-3.38-8.533-2.848-11.38 0-3.34 3.34-2.746 7.992 0 11.38ZM1696.12 649.47a24.02 24.02 0 0 1 3.933-4.075 13.019 13.019 0 0 0 1.668-1.229c1.105-1.323-2.446.01-3.357-1.572 5.169 8.972 19.082.876 13.897-8.124-3.695-6.413-11.342-8.219-17.759-4.731-5.01 2.723-8.954 7.075-12.278 11.608-2.573 3.507-.59 8.977 2.887 11.01 4.081 2.388 8.431.628 11.01-2.887ZM1740.793 638.911q16.877-.708 33.732.197c10.35.556 10.32-15.54 0-16.094q-16.869-.905-33.732-.197c-10.32.433-10.374 16.53 0 16.094Z"/><path fill="#60843a" d="M1771.462 627.838a25.844 25.844 0 0 0 17.8 13.044c5.246.946 9.965-2.186 10.187-7.76a33.58 33.58 0 0 1 1.507-8.577l-13.45 3.551c3.662 4.45 9.545 4.556 14.387 2.317 3.945-1.823 4.93-7.515 2.887-11.01-2.368-4.048-7.05-4.717-11.01-2.887l5.116.2c-4.023-4.888-11.846-1.78-13.45 3.55a51.67 51.67 0 0 0-2.082 12.856l10.186-7.76c-3.75-.676-6.328-2.27-8.18-5.647-4.985-9.083-18.888-.971-13.898 8.123Z"/><path d="M2389.697 393.229c-.6.009-.831-.055-.305-.159.053-.01.169.022.305.159ZM2390.6 393.926a8.907 8.907 0 0 0-.85-.707c2.693.07 11.785-.412.85.707ZM2473.244 522.034c-4.267 6.365-103.545 39.19-130.073 44.425-26.526 5.235-40.742 5.799-131.937 12.805-91.206 6.953-32.065 10.702-71.977 37.335-39.965 26.643-61.736 11.09-92.939 9.537-31.149-1.563-59.563-11.431-99.679 8.625-40.116 20.057-31.223 14.966-64.482 19.342-33.31 4.386-95.68 12.266-150.424 25.257-54.733 13.043-84.47 18.911-125.988 14.965-41.57-3.935-96.318 14.579-96.318 14.579s-5.714-12.05-.314-46.2c5.401-34.148 12.745-13.56 20.873-28.343 8.066-14.825-23.059-38.43-2.534-90.984 20.472-52.544 5.111-7.625 21.01-16.286 15.951-8.67 22.133-27.5 9.896-55.98-12.226-28.428-.19-12.047-3.063-32.424-2.925-20.366 30.537-18.166 45.644-25.576 15.064-7.347 25.076-18.128 35.099-45.478 10.023-27.352 5.32-6.573 12.745-13.561 7.435-6.936 17.221-7.774 31.652-18.332s9.196-37.085 9.893-50.456c.644-13.36 14.712-26.034 17.254-40.863 2.594-14.838 6.783.85 27.766 12.129s37.592-16.223 48.66-32.734c11.07-16.511 3.647-15.047-5.421-44.098-9.027-29.115-1.046-10.84 7.297-35.617 8.344-24.777 27.245-35.125 31.105-54.642 3.858-19.517 18.919-21.341 29.536-17.969a9.938 9.938 0 0 1 1.493.635c-3.98 9.207-5.655 22.607-2.128 42.144 11.267 62.356 39.097 57.903 8.099 67.083s-78.263-22.506-58.41 10.487 37.01 26.546 39.59 29.098c2.53 2.563-5.923-3.97-3.806 12.016 2.168 15.977-16.79 23.82 10.063 14.42s24.545-36.615 35.393-28.475c10.785 8.096 32.109 17.231 12.347 26.271-19.77 8.987-17.905-12.87-18.236 22.027-.268 34.941-9.244 72.584-46.638 44.092-37.404-28.546-31.207-69.742-48.88-29.343-17.622 40.388-26.593 67.805-7.466 76.334 19.127 8.53 48.48 17.063-4.36 14.204-52.904-2.903-67.642-20.5-52.904-2.903 14.79 17.587 45.73 18.645 53.038 24.366 7.266 5.785 34.022-35.423 19.516.25-14.505 35.672-3.29 61.184-25.534 36.865-22.243-24.32-12.517-42.643-23.359-40.504-10.895 2.15-60.973-7.49-39.893 10.935 21.07 18.371 28.824-14.93 26.964 17.208-1.85 32.19-33.993 20.05-1.268 35.138s39.061 5.634 37.86 15.058c-1.245 9.486-25.07 2.924-4.798 12.266 20.314 9.279 56.312-21.394 39.667 3.436-16.645 24.83-10.558 34.893 19.435 36.138 29.993 1.244 37.72-16.685 32.499 8.952-5.169 25.628-.105 41.033 9.045 30.041 9.087-11.035 2.494-49.707 13.842-23.238 11.4 26.459 92.328 72.99 86.688 44.41-5.651-28.632-31.568-76.833-3.436-43.45 28.144 33.434 21.615 31.66 55.584 16.755s21.848 22.318 46.393-14.296 67.015-55.277 53.928-22.946c-13.087 32.33 15.127 29.824 25.778 16.458 10.691-13.43 43.666-17.86 49.777-12.94 6.069 4.98-13.122-40.447 8.54-19.075 21.598 21.329-2.25 19.91 17.679 27.242 19.877 7.342-13.208-14.837 26.859-19.627 40.056-4.843 49.649 33.237 49.148-5.598-.51-38.888 2.826-27.243 26.261-12.4 23.446 14.894 18.272 30.242 31.749 10.139 13.434-20.04 35.235 33.074 37.137-19.633 1.913-52.655-7.616-33.33 10.395-61.491 4.68-7.322 8.507-10.647 11.53-12.228 21.035 27.892 62.655 86.392 74.344 94.912 15.458 11.277 1.46 12.946-2.806 19.31Z" style="mix-blend-mode:soft-light" opacity=".37"/><path d="M2389.392 393.07c.053-.01.169.021.305.159-.6.009-.831-.055-.305-.159ZM2390.6 393.926a8.907 8.907 0 0 0-.85-.707c2.693.07 11.785-.412.85.707Z"/><path fill="#72fceb" d="M1762.58 294.734a11.065 11.065 0 1 1-12.999-8.713 11.065 11.065 0 0 1 12.998 8.713ZM1897.778 175.737a11.065 11.065 0 1 1-12.998-8.713 11.065 11.065 0 0 1 12.998 8.713ZM1968.006 276.947a11.065 11.065 0 1 1-1.707 15.555 11.065 11.065 0 0 1 1.707-15.555Z"/><circle cx="1855.569" cy="386.031" r="11.065" fill="#72fceb" transform="rotate(-35.628 1855.57 386.031)"/><circle cx="2114.689" cy="395.644" r="11.065" fill="#72fceb" transform="rotate(-75.588 2114.689 395.644)"/><circle cx="1974.92" cy="521.271" r="11.065" fill="#72fceb" transform="rotate(-75.588 1974.92 521.271)"/><circle cx="1677.168" cy="489.292" r="11.065" fill="#72fceb" transform="rotate(-75.588 1677.168 489.292)"/><path fill="#ffce00" d="M839.488 461.442c25.308 128.24 149.79 211.72 278.067 186.405 128.241-25.308 211.676-149.82 186.369-278.06-25.308-128.24-149.783-211.684-278.024-186.376-128.278 25.316-211.72 149.79-186.412 278.03Zm43.422-8.57c-20.575-104.258 47.3-205.463 151.56-226.038s205.456 47.263 226.031 151.522c20.575 104.259-47.264 205.456-151.522 226.031S903.486 557.131 882.91 452.873Z"/><path d="M864.483 456.51c22.582 114.429 133.673 188.932 248.14 166.342 114.429-22.582 188.888-133.703 166.306-248.132-22.582-114.43-133.667-188.896-248.096-166.313-114.467 22.59-188.933 133.673-166.35 248.102Zm18.428-3.637c-20.576-104.26 47.3-205.464 151.559-226.04s205.456 47.264 226.031 151.523c20.575 104.259-47.263 205.456-151.522 226.031S903.486 557.131 882.91 452.873Z" style="mix-blend-mode:soft-light" opacity=".37"/><path fill="#f9c023" d="M1068.183 308.843s-73.219-82.055-80.4-79.54 32.873 99.886 32.873 99.886Z"/><path d="m1020.667 329.182 47.533-20.338s-8.76-9.812-20.513-22.544a32.19 32.19 0 0 1-34.362-14.079c-8.803-13.781-18.92-30.072-25.856-42.701-5.61 5.357 33.198 99.662 33.198 99.662Z" style="mix-blend-mode:soft-light" opacity=".37"/><path fill="#ffce00" d="M1108.682 314.01s-28.832-29.402-71.082-10.098-25.486 65.346-25.486 65.346Z"/><path d="m1012.125 369.275 96.552-55.278a60.273 60.273 0 0 0-16.761-11.041c-28.22 1.436-69.36 24.333-78.897 24.616-8.82 19.91-.894 41.703-.894 41.703Z" style="mix-blend-mode:soft-light" opacity=".37"/><path fill="#f9c023" d="M1257.412 406.387s-82.342-144.957-203.604-87.03-18.907 215.383-18.907 215.383Z"/><path d="m1034.914 534.742 222.5-128.365s-1.255-2.21-3.67-5.944c-67.248-.142-104.485 36.022-136.848 41.356-33.985 5.615-92.244-31.16-72.156-79.536 12.206-29.43 57.051-45.805 90.278-54.078-24.302-4.991-51.586-2.96-81.196 11.189-121.257 57.93-18.908 215.378-18.908 215.378Z" style="mix-blend-mode:soft-light" opacity=".37"/><path fill="#ffce00" d="M1205.247 425.454s38.465-66.261-80.06-88.93c0 0-29.112 121.99 30.734 111.276s49.326-22.346 49.326-22.346Z"/><path fill="#f9c023" d="M1196.409 417.354s28.405-48.931-59.12-65.671c0 0-21.499 90.084 22.695 82.172s36.425-16.501 36.425-16.501Z"/><ellipse cx="1167.929" cy="393.34" fill="#ef6b29" rx="14.524" ry="21.787" transform="rotate(-28.935 1167.929 393.34)"/><path d="M1155.203 400.384c5.818 10.51 16.24 15.901 23.271 12.018s8-15.577 2.183-26.087c-5.824-10.548-16.247-15.939-23.279-12.056s-8 15.577-2.175 26.125Zm5.87-24.592c4.642-2.554 11.543.997 15.374 7.961 3.831 6.965 3.204 14.653-1.432 17.244-4.643 2.554-11.506-1.004-15.374-7.961-3.831-6.965-3.211-14.69 1.431-17.244Z" style="mix-blend-mode:soft-light" opacity=".37"/><path fill="#ffce00" d="M1131.5 459.471s12.745-32.2-41.756-34.375c0 0-4.823 56.482 21.208 47.675s20.548-13.3 20.548-13.3Z"/><path fill="#f9c023" d="M1127.006 456.444s9.411-23.78-30.835-25.385c0 0-3.562 41.71 15.661 35.206s15.174-9.821 15.174-9.821Z"/><path fill="#ef6b29" d="M1107.453 451.616c3.31 4.317 8.325 6.027 11.202 3.821s2.528-7.493-.782-11.81-8.324-6.026-11.202-3.82-2.527 7.493.782 11.81Z"/><path d="M1107.448 451.625c3.306 4.308 8.326 6.017 11.209 3.81s2.53-7.5-.776-11.808c-3.312-4.324-8.332-6.033-11.215-3.826s-2.53 7.5.782 11.824Zm.972-11.387c1.904-1.453 5.227-.329 7.407 2.527 2.18 2.856 2.416 6.334.518 7.804-1.904 1.453-5.21.323-7.406-2.527-2.18-2.855-2.422-6.35-.519-7.804Z" style="mix-blend-mode:soft-light" opacity=".37"/><path fill="#ffce00" d="M1095.876 487.338s12.745-32.2-41.757-34.376c0 0-4.823 56.483 21.209 47.676s20.548-13.3 20.548-13.3Z"/><path fill="#f9c023" d="M1091.381 484.31s9.412-23.778-30.835-25.385c0 0-3.562 41.71 15.661 35.207s15.174-9.822 15.174-9.822Z"/><path fill="#ef6b29" d="M1071.829 479.483c3.309 4.316 8.324 6.027 11.201 3.82s2.528-7.493-.781-11.809-8.325-6.027-11.202-3.82-2.528 7.493.782 11.81Z"/><path d="M1071.823 479.492c3.306 4.307 8.327 6.017 11.21 3.81s2.53-7.5-.776-11.808c-3.312-4.324-8.333-6.034-11.215-3.826s-2.53 7.5.781 11.824Zm.973-11.387c1.904-1.453 5.227-.33 7.406 2.526 2.18 2.856 2.416 6.335.518 7.805-1.903 1.453-5.21.323-7.406-2.527-2.18-2.856-2.422-6.35-.518-7.804Z" style="mix-blend-mode:soft-light" opacity=".37"/><path fill="#ffce00" d="M1065.834 518.49s12.745-32.201-41.756-34.376c0 0-4.823 56.482 21.208 47.675s20.548-13.3 20.548-13.3Z"/><path fill="#f9c023" d="M1061.34 515.462s9.411-23.78-30.836-25.385c0 0-3.561 41.71 15.662 35.206s15.174-9.821 15.174-9.821Z"/><path fill="#ef6b29" d="M1041.787 510.635c3.31 4.316 8.324 6.026 11.202 3.82s2.527-7.493-.782-11.81-8.324-6.026-11.202-3.82-2.527 7.493.782 11.81Z"/><path d="M1041.782 510.643c3.306 4.308 8.326 6.017 11.209 3.81s2.53-7.5-.776-11.808c-3.312-4.324-8.332-6.033-11.215-3.826s-2.53 7.5.782 11.824Zm.972-11.387c1.904-1.453 5.227-.329 7.407 2.527 2.18 2.856 2.416 6.334.518 7.804-1.904 1.453-5.21.323-7.407-2.527-2.18-2.855-2.421-6.35-.518-7.804Z" style="mix-blend-mode:soft-light" opacity=".37"/><path fill="#ffce00" d="M1245.288 415.406s24.412-24.563-24.813-48.058c0 0-26.71 50.002.685 52.176s24.128-4.118 24.128-4.118Z"/><path fill="#f9c023" d="M1242.352 410.852s18.027-18.14-18.323-35.49c0 0-19.724 36.924.505 38.53s17.818-3.04 17.818-3.04Z"/><path fill="#ef6b29" d="M1226.288 398.704c1.339 5.271 5.273 8.821 8.787 7.929s5.278-5.89 3.94-11.16-5.273-8.822-8.787-7.93-5.278 5.89-3.94 11.16Z"/><path d="M1226.28 398.71c1.34 5.262 5.278 8.813 8.798 7.921s5.283-5.893 3.944-11.156c-1.338-5.28-5.277-8.83-8.797-7.939s-5.283 5.894-3.945 11.173Zm5.385-10.08c2.323-.585 4.933 1.759 5.81 5.243.877 3.484-.279 6.774-2.603 7.375-2.322.585-4.915-1.758-5.81-5.243-.876-3.484.28-6.79 2.603-7.375Z" style="mix-blend-mode:soft-light" opacity=".37"/><path fill="#ce9065" d="M1415.868 465.564c2.588 26.063-6.164 54.611-35.515 75.872 0 0-46.027-14.7-46.848-57.545a86.304 86.304 0 0 1-7.124-32.294c-.236-15.604 4.348-34.02 22.386-48.499 24.596-19.753 62.624 17.652 67.101 62.466Z"/><path fill="#a8704a" d="M1367.941 517.105c-6.456-5.848-11.252-13.31-14.833-21.317a68.618 68.618 0 0 1-5.9-25.915 53.356 53.356 0 0 1 6.099-26.197c3.871-8.186 10.603-14.493 17.665-19.274-4.122 7.698-8.419 14.57-10.526 22.285-2.277 7.521-3.716 15.195-3.316 23.027a105.963 105.963 0 0 0 3.272 23.55 232.86 232.86 0 0 0 7.54 23.84Z"/><path d="M1371.126 503.243s16.104 15.027 33-7.294a61.053 61.053 0 0 0 11.742-30.385c2.588 26.062-6.164 54.611-35.515 75.872 0 0-46.027-14.7-46.848-57.545a86.304 86.304 0 0 1-7.124-32.294c2.648 6.574 6.064 12.583 10.085 13.999 9.66 3.381 14.75-8.878 14.75-8.878s12.816-42.077 31.776-37.055c18.97 5.066 23.72 80.244-11.866 83.58Z" style="mix-blend-mode:soft-light" opacity=".37"/><path fill="#f9c023" d="M1389.756 516.967s11.138 67.203 54.86 87.236c20.136 9.227 44.45-.153 51.77-21.058 4.121-11.772 4.847-27.319-4.397-46.297-22.755-46.715-77.497-48.177-77.497-48.177l-3.394 14.479s59.892 19.89 46.28 51.601-65.587-42.573-65.587-42.573a2.566 2.566 0 0 0-2.872-.078Z"/><path d="M1396.073 540.722a163.472 163.472 0 0 1-6.318-23.763l-.839-4.869a2.602 2.602 0 0 1 2.883.074s30.994 44.307 51.38 49.87c-8.85 17.193-31.11-2.99-47.106-21.312ZM1491.984 536.85c9.253 18.999 8.516 34.516 4.404 46.31a36.757 36.757 0 0 1-27.087 23.662 35.996 35.996 0 0 0 13.52-17.729c4.14-11.776 4.85-27.311-4.403-46.31-16.108-33.092-48.265-43.464-65.662-46.705l1.743-7.41s54.738 1.454 77.485 48.182Z" style="mix-blend-mode:soft-light" opacity=".37"/><path fill="#ce9065" d="M1009.785 771.742c26.769 14.135 61.144 17.216 96.701-4.93 0 0 4.336-55.678-41.168-75.24a99.752 99.752 0 0 0-31.46-21.71c-16.601-7.056-38.312-10.18-61.676 2.814-31.87 17.714-8.414 74.731 37.603 99.066Z"/><path fill="#a8704a" d="M1085.854 742.917a269.095 269.095 0 0 0-22.232-18.467 122.48 122.48 0 0 0-23.78-13.773c-8.21-3.843-17.052-5.648-26.096-6.491-9.177-1.109-18.407.494-28.444 1.549 8.198-5.475 17.885-9.93 28.335-10.504a61.668 61.668 0 0 1 30.702 4.895 79.296 79.296 0 0 1 25.165 17.617c7.01 7.325 12.906 15.713 16.35 25.174Z"/><path d="M1069.628 740.28s9.062 23.79-22.198 32.143a70.565 70.565 0 0 1-37.645-.681c26.769 14.135 61.144 17.216 96.701-4.93 0 0 4.336-55.678-41.168-75.24a99.752 99.752 0 0 0-31.46-21.71c5.881 5.703 10.824 11.98 10.586 16.9-.593 11.815-15.935 11.918-15.935 11.918s-50.628-4.63-53.521 17.854c-2.849 22.515 75.55 60.384 94.64 23.746Z" style="mix-blend-mode:soft-light" opacity=".37"/><path fill="#ce9065" d="M1095.695 765.082c.216.308.433.616.688.917 43.068 59.775 111.603 67.812 175.962 51.134.008.037.008.037.038-.008 47.22-12.243 92.224-37.89 123.206-66.23 73.393-67.123 79.15-176.851 8.803-227.656a869.305 869.305 0 0 1-13.366-9.84c-3.288-2.43-6.538-4.87-9.825-7.301a2288.91 2288.91 0 0 1-36.09-27.776c-33.377-26.283-62.559-50.665-77.344-63.149-6.595-5.56-10.353-8.796-10.353-8.796-83.4 1.602-161.093 66.298-198.728 103.203-15.088 14.832-23.772 25.162-23.772 25.162s-13.637 125.516 60.781 230.34Z"/><path fill="#e89191" d="M1272.345 817.133c.008.037.008.037.038-.008 47.22-12.243 92.224-37.89 123.206-66.23 73.393-67.123 79.15-176.851 8.803-227.656a869.305 869.305 0 0 1-13.366-9.84 227.724 227.724 0 0 0-73.894 18.95c8.527 16.332-2.51 63.546-50.11 30.4a263.934 263.934 0 0 0-40.915 40.632c-75.138 92.266-43.495 210.327 46.238 213.752Z"/><path fill="#c46565" d="M1404.725 558.26c3.611 10.462 2.069 23.05-4.492 33.171-3.227 5.133-7.883 9.117-12.723 12.613a50.16 50.16 0 0 1-7.764 4.368l-4.042 1.84-3.332 1.677c-8.552 4.387-16.239 11.134-23.094 18.895a269.698 269.698 0 0 0-19.715 24.899c-6.497 8.619-12.817 17.552-19.811 26.259-7.22 8.475-14.558 17.418-25.147 23.852a55.37 55.37 0 0 1-34.307 7.676 62.175 62.175 0 0 1-31.196-12.242c20.496 7.684 43.447 6.664 58.883-5.372 7.456-5.941 14.133-14.174 20.313-22.788 6.332-8.56 12.522-17.502 18.949-26.45 6.622-8.792 13.503-17.67 21.57-25.798 8.161-7.912 17.369-15.728 28.953-19.9l4.192-1.529 3.558-1.18a62.509 62.509 0 0 0 6.912-2.801c4.356-2.237 8.633-4.89 11.898-8.6 6.84-7.108 10.652-17.594 10.395-28.59Z"/><ellipse cx="1293.82" cy="479.764" rx="15.041" ry="27.412" transform="rotate(-41.164 1293.82 479.764)" style="mix-blend-mode:soft-light" opacity=".37"/><ellipse cx="1297.185" cy="484.309" fill="#2d2828" rx="9.145" ry="16.666" transform="rotate(-43.977 1297.185 484.309)"/><path fill="#fff" d="M1287.48 482.321c1.546 1.602 3.604 2.125 4.596 1.167s.544-3.033-1.002-4.635-3.605-2.125-4.597-1.167-.544 3.033 1.002 4.635ZM1294.335 482.572c1.07 1.109 2.495 1.47 3.182.808s.376-2.1-.694-3.208-2.495-1.47-3.181-.808-.377 2.1.693 3.208Z"/><ellipse cx="1199.238" cy="549.255" rx="18.608" ry="33.912" transform="rotate(-41.164 1199.238 549.255)" style="mix-blend-mode:soft-light" opacity=".37"/><ellipse cx="1203.4" cy="554.878" fill="#2d2828" rx="11.314" ry="20.618" transform="rotate(-43.977 1203.4 554.878)"/><path fill="#fff" d="M1191.393 552.419c1.913 1.982 4.46 2.628 5.687 1.444s.673-3.752-1.24-5.735-4.459-2.629-5.687-1.444-.672 3.752 1.24 5.735ZM1199.875 552.73c1.324 1.371 3.086 1.819 3.936.999s.465-2.597-.859-3.969-3.086-1.82-3.935-1-.466 2.597.858 3.97Z"/><path fill="#ef6b29" d="M1208.364 444.03a132.802 132.802 0 0 1 12.477 9.777c3.85 3.502 7.7 7.004 11.292 10.707l.421.609a47.1 47.1 0 0 1 7.705 16.271 23.728 23.728 0 0 1 .157 11.032 17.285 17.285 0 0 1-8.19 10.8 20.493 20.493 0 0 1-11.971 2.267 26.485 26.485 0 0 1-9.857-3.22 45.856 45.856 0 0 1-13.72-11.627l-.307-.348c-5.045-8.202-9.905-16.555-13.59-25.865 8.375 5.489 15.574 11.936 22.588 18.534l-.306-.345a52.339 52.339 0 0 0 11.493 6.703c3.952 1.606 6.744 1.42 8.227.557.575-.487.682-.431.993-1.3a9.792 9.792 0 0 0 .177-4.485 52.895 52.895 0 0 0-3.71-12.742l.419.607c-2.752-4.365-5.246-8.933-7.74-13.5a132.847 132.847 0 0 1-6.558-14.432Z"/><path fill="#2d2828" d="M1043.924 646.781c1.676 7.312 3.586 14.812 5.862 22.395 9.2 31.21 23.602 64.474 45.91 95.906.215.308.432.616.687.917 32.72 7.345 50.672-18.657 55.88-36.724 6.162-21.53-8.754-41.592-26.115-32.161-17.318 9.461-11.728 18.223-11.728 18.223s2.335-15.824 22.823-12.185c20.45 3.645-10.904 44.925-25.017 45.527-14.15.609-40.242-20.561-21.547-75.798 3.393-10.067 4.482-21.94 3.974-34.59a190.968 190.968 0 0 0-2.533-24.299c-1.346-8-3.095-16.078-5.048-23.997-2.95-11.779-6.453-23.214-9.99-33.628-8.191-24.119-16.494-42.678-18.396-46.787-15.088 14.832-23.772 25.162-23.772 25.162s-2.55 23.43.578 58.452a390.347 390.347 0 0 0 4.579 34.657c1.095 6.14 2.339 12.445 3.853 18.93Z"/><path fill="#f9c023" d="M1076.194 766.207s67.077 41.228 69.455 96.763c1.096 25.579-19.547 47.514-45.116 46.233-14.398-.722-31.356-6.724-47.64-24.895-40.08-44.729-17.775-103.963-17.775-103.963l16.98 2.68s-4.829 72.784 35.052 72.042-16.97-88.77-16.97-88.77a2.966 2.966 0 0 1 1.169-3.109Z"/><path d="M1098.867 783.328a188.947 188.947 0 0 0-22.68-17.126l-4.847-3.02a3.007 3.007 0 0 0-1.178 3.117s33.911 52.498 30.976 76.745c22.263-1.976 10.366-34.604-2.271-59.716ZM1052.897 884.303c16.302 18.19 33.234 24.167 47.652 24.91 15.4.781 28.976-6.889 37.139-18.677a41.604 41.604 0 0 1-24.873 6.742c-14.41-.705-31.35-6.72-47.651-24.91-28.398-31.671-25.477-70.616-21.36-90.651l-8.691-1.365s-22.314 59.226 17.784 103.952Z" style="mix-blend-mode:soft-light" opacity=".37"/><path fill="#2d2828" d="M1148.439 555.19a73.883 73.883 0 0 1 6.253-19.481c1.638-3.56 3.448-7.036 5.354-10.415.633-1.139 1.311-2.247 1.951-3.349 2.26-3.76 4.528-7.288 6.712-10.448 6.16-9.092 11.33-15.298 11.33-15.298-2.25-14.958-19.553-13.727-19.553-13.727-8.69 9.513-13.785 18.863-16.479 27.544a57.477 57.477 0 0 0-2.284 10.55 60.864 60.864 0 0 0-.405 5.46 54.978 54.978 0 0 0 .539 9.252 53.901 53.901 0 0 0 6.582 19.913Z"/><path fill="#423f3f" d="M1141.723 520.566c7.03-.53 14.99-.502 20.274 1.38 2.26-3.76 4.528-7.289 6.712-10.449-4.497-2.037-14.04-5.145-24.702-1.48a57.477 57.477 0 0 0-2.284 10.549ZM1141.857 535.278a48.374 48.374 0 0 1 12.835.43c1.638-3.559 3.448-7.035 5.354-10.414a31.558 31.558 0 0 0-18.728.732 54.978 54.978 0 0 0 .539 9.252Z"/><path fill="#2d2828" d="M1298.984 445.334a61.142 61.142 0 0 0-16.92.66 117.534 117.534 0 0 0-9.49 1.957c-1.048.252-2.083.546-3.103.812-3.499.968-6.815 1.992-9.819 3.031-8.615 2.893-14.71 5.636-14.71 5.636-11.425-5.114-6.602-18.634-6.602-18.634 9.512-4.815 18.097-6.802 25.615-7.022a47.573 47.573 0 0 1 8.917.52c1.543.245 3.028.533 4.443.89a45.485 45.485 0 0 1 7.256 2.483 44.603 44.603 0 0 1 14.413 9.667Z"/><path fill="#423f3f" d="M1272.872 432.294c-1.983 5.487-3.728 11.839-3.4 16.47-3.5.966-6.816 1.99-9.82 3.03a28.007 28.007 0 0 1 4.303-20.02 47.573 47.573 0 0 1 8.917.52ZM1284.57 435.667a40.03 40.03 0 0 0-2.505 10.328 117.534 117.534 0 0 0-9.491 1.956 26.114 26.114 0 0 1 4.741-14.767 45.485 45.485 0 0 1 7.256 2.483ZM1040.071 627.851c16.683-7.932 35.08-20.024 47-37.856-2.948-11.779-6.452-23.214-9.99-33.628-8.555 12.956-21.977 27.927-41.589 36.827a390.347 390.347 0 0 0 4.579 34.657ZM1092.12 613.992c-9.424 12.115-24.477 25.145-48.196 32.79 1.676 7.311 3.586 14.81 5.862 22.394 12.667-4.372 29.022-13.175 44.867-30.885a190.968 190.968 0 0 0-2.533-24.299Z"/><path d="M1095.695 765.082c.216.308.433.616.688.917 39.522 49.518 162.966 87.427 277.567-2.45s63.102-191.582 63.102-191.582c16.147 67-20.428 170.722-133.732 193.082-113.266 22.353-252.848-188.42-193.688-266.614 48.938-64.792 131.298-79.954 158.135-83.262-6.595-5.56-10.353-8.796-10.353-8.796-83.4 1.602-161.093 66.298-198.728 103.203-15.088 14.832-23.772 25.162-23.772 25.162s-13.637 125.516 60.781 230.34Z" style="mix-blend-mode:soft-light" opacity=".37"/><path fill="#e2a67d" d="m1263.489 505.713 26.522 25.106a34.522 34.522 0 0 1-15.241 19.092s38.475 26.403 43.342-6.36l-.98-11.202-12.334-8.103ZM1316.59 509.841c4.166 10.837 41.812 2.433 64.611-3.743a2288.91 2288.91 0 0 1-36.09-27.776c-11.02 5.996-33.074 19.707-28.521 31.52Z"/><path fill="#a8704a" d="m1252.313 500.067 37.737 15.973a199.397 199.397 0 0 0 18.828 6.865l2.287.552 1.216.307a10.247 10.247 0 0 1 1.897.629 12.613 12.613 0 0 1 5.331 4.785 30.284 30.284 0 0 1 2.536 5.608 38.969 38.969 0 0 1 1.135 5.67 41.254 41.254 0 0 1-3.759 21.98c-3.284 6.73-9.708 13.012-17.646 14.178-7.831 1.55-15.048-1.192-21.331-4.154a60.229 60.229 0 0 1-8.856-5.608 71.685 71.685 0 0 1-8.028-6.52c6.06 3.232 11.98 6.685 18.34 8.673 6.196 2.009 12.82 3.484 18.565 1.784 5.747-1.494 10.038-5.949 12.423-11.483a34.9 34.9 0 0 0 2.696-17.967 31.633 31.633 0 0 0-.778-4.385 25.525 25.525 0 0 0-1.586-3.75 5.38 5.38 0 0 0-2.082-2.088 2.839 2.839 0 0 0-.527-.187l-1.264-.343-2.665-.768a145.171 145.171 0 0 1-19.213-8.374 287.904 287.904 0 0 1-35.256-21.377Z"/><path fill="#f7a226" d="m1144.035 1461.449 121.87 60.938-97.495-99.531-24.375 38.593z"/><path d="m1168.395 1422.857-24.372 38.578 21.125 10.563 14.373-12.815 86.373 63.19-97.499-99.516z" style="mix-blend-mode:soft-light" opacity=".37"/><path fill="#f7a226" d="m880.96 1203.242-2.287 1.436-33.228 21.158-3.654-2.997-4.903-4.064-11.087-9.076-17.87-14.629c-2.725-8.266-4.957-19.856-1.177-29.241a21.847 21.847 0 0 1 8.064-10.122l32.067 25.606a28.616 28.616 0 0 0 3.161-2.265l11.582 9.089Z"/><path d="m880.96 1203.242-2.287 1.436-33.228 21.158-3.654-2.997-4.903-4.064-11.087-9.076 9.042-22.345-28.09-21.525a21.847 21.847 0 0 1 8.065-10.122l32.067 25.606a28.616 28.616 0 0 0 3.161-2.265l11.582 9.089Z" style="mix-blend-mode:soft-light" opacity=".37"/><path fill="#992828" d="M872.376 1225.327a.968.968 0 0 0-.096.16.52.52 0 0 0 .147-.119ZM872.28 1225.486c-.57.536-.87.8-.87.8l.363.261q.397-.769.507-1.06Z"/><ellipse cx="878.37" cy="1227.499" fill="#f7a226" rx="42.961" ry="42.41" transform="rotate(-77.469 878.37 1227.499)"/><ellipse cx="1139.196" cy="1429.905" fill="#e8901c" rx="42.961" ry="42.41" transform="rotate(-77.472 1139.196 1429.905)"/><path d="M887.686 1185.548c-22.855-5.08-45.553 9.586-50.702 32.756a42.547 42.547 0 0 0-.778 14.06c21.76-43.34 59.213-34.896 37.514-9.295-13.05 15.394-19.615 28.681-22.817 37.268a41.257 41.257 0 0 0 18.142 9.087c22.883 5.086 45.576-9.551 50.725-32.721s-9.201-46.07-32.084-51.155ZM1148.527 1387.958c-22.884-5.085-45.582 9.58-50.731 32.75a42.832 42.832 0 0 0 22.089 47.52c21.424-14.077 58.292-44.16 56.94-29.956-1.02 10.817-16.163 24.393-27.745 33.314a42.972 42.972 0 0 0 31.502-32.48c5.15-23.17-9.201-46.068-32.055-51.148Z" style="mix-blend-mode:soft-light" opacity=".37"/><path fill="#f7a226" d="M872.427 1225.369a.52.52 0 0 1-.147.118q-.11.291-.507 1.06c-7.162 15.17-75.161 166.917 47.092 235.072 128.79 71.774 236.3-23.647 236.3-23.647l-.254-.207c4.142-9.16 57.389-133.252-43.622-232.947-99.633-98.305-226.27 9.386-238.862 20.55Z"/><path d="M872.427 1225.369a.52.52 0 0 1-.147.118q-.11.291-.507 1.06c-3.916 8.278-25.974 57.3-25.284 111.198 70.95-144.713 183.15-85.081 183.15-85.081-74.367 87.651-109.174 155.987-125.427 199.74a156.156 156.156 0 0 0 14.653 9.215 234.833 234.833 0 0 0 9.8 5.188c41.212-111.78 175.727-283.352 202.23-174.728 19.5 79.894-12.565 144.959-39.094 182.275 39.185-14.914 63.365-36.382 63.365-36.382l-.255-.207c4.142-9.16 57.389-133.252-43.622-232.947-99.633-98.305-226.27 9.386-238.862 20.55Z" style="mix-blend-mode:soft-light" opacity=".37"/></g></svg>