<svg xmlns="http://www.w3.org/2000/svg" viewBox="0 0 2800 1900"><g data-name="Layer 1"><ellipse cx="1516.397" cy="1657.95" opacity=".15" rx="1079.817" ry="125.531"/><path fill="#292c44" d="M1034.0746,1635.2008c-107.3916,24.1523-202.3098-18.4316-202.3098-18.4316-114.0956,38.2678-187.9717-9.2147-187.9717-9.2147l10.2725-256.0905,6.1508-153.9835-2.7741-17.9352-5.1521-32.9612,25.8931-26.7051,314.5773,6.5655-.477,63.3934-.1956,29.0366,12.1104,120.1113Z"/><path d="M646.6294,1537.1009l.8905-22.5782c25.7429-14.732,91.5292-57.7318,127.7449-130.2645C773.9756,1387.8251,733.3885,1497.7433,646.6294,1537.1009Z" style="mix-blend-mode:soft-light" opacity=".3"/><path d="M898.8535,1433.1945c24.1143,98.1044,94.4949,139.3485,130.4091,154.3722l-2.3058-22.7957c-104.563-49.5872-135.6993-202.385-136.72-207.5044,42.9579,98.3541,107.8574,134.5029,130.3758,144.4743l-3.7283-36.7936c-95.4839-35.4742-137.3564-175.9296-137.3564-175.9296,41.6778,49.1458,100.264,75.5485,128.3218,86.0765l-3.6515-36.0896-12.1105-120.117.2002-29.0687.4561-63.38L678.1956,1119.89l-25.8895,26.7041,5.1281,32.9521,2.7732,17.9418-6.1362,153.9782-2.9139,72.8997c71.3511-34.8533,139.4771-144.7641,139.4771-144.7641,24.4068,107.6876-69.2381,232.525-69.2381,232.525,39.6176-33.2337,69.681-100.491,69.681-100.491-28.1943,125.93-114.2336,169.4699-146.712,181.6564l-.5847,14.2436s73.8949,47.4845,187.9743,9.2306c0,0,94.6899,42.4815,201.905,18.505C921.7757,1607.9061,899.5424,1438.9416,898.8535,1433.1945ZM680.9264,1601.8181c71.6955-20.9278,108.2429-138.4917,108.2429-138.4917C787.7177,1651.1194,680.9264,1601.8181,680.9264,1601.8181Z" style="mix-blend-mode:soft-light" opacity=".3"/><path fill="#ad4242" d="M807.0497,1217.486l-15.5579,416.7296s27.2942-3.5484,29.2526.9163-23.3448,11.378-21.4848,19.1421,43.715,6.8734,52.1712,3.8358,10.0255-20.6019,10.0255-20.6019l16.1912,18.1206,31.4732-3.4175-53.0013-432.0872Z"/><path d="M907.1707,1652.4277l-52.5178-399.9715,33.1249,402.072-6.613.74-32.475-308.1437,20.7387,299.2877-5.4463-6.0737c-6.4258-87.3634-27.4915-373.5042-28.0804-371.6232-.6986,2.1946,8.8174,346.1811,8.8174,346.1811l-18.9927-266.1999-7.3319,284.9647-.0744.0005.2525-334.8069L798.065,1633.4976c-3.827.3338-6.575.7007-6.575.7007l15.5488-416.6936,49.0663,2.6289,52.9976,432.0881Z" style="mix-blend-mode:soft-light" opacity=".3"/><path fill="#6b1e1e" d="M820.7447,1635.1321c-.6477-17.3422-.8071-34.6783-1.2239-52.0172l-.4263-52.0077c-.2738-34.6716.0511-69.3357.378-104.0005.5088-34.6621,1.0331-69.3234,2.1473-103.9787l1.6985-51.9812c.8452-17.3239,1.4275-34.6511,2.5036-51.9723.6531,17.3423.8125,34.6784,1.2348,52.0179l.429,52.0078c.2677,34.6709-.0545,69.3357-.3923,103.9998-.5189,34.6621-1.0399,69.3234-2.1602,103.978l-1.6959,51.9818C822.3969,1600.4837,821.8146,1617.811,820.7447,1635.1321Z"/><path fill="#6b1e1e" d="M861.4565,1637.5077c-2.0043-16.9949-3.5224-34.0233-5.2965-51.0339l-4.5018-51.0883c-2.9904-34.0593-5.383-68.1588-7.7735-102.2583-2.2093-34.1118-4.4036-68.2243-6.0089-102.3769l-2.3809-51.2307c-.5156-17.0956-1.2927-34.1737-1.5774-51.2844,2.0105,16.9949,3.5279,34.0232,5.3075,51.0339l4.5038,51.0876c2.9843,34.0593,5.3803,68.1588,7.7605,102.259,2.1991,34.1125,4.3962,68.2249,5.9953,102.3782l2.3837,51.23C860.3886,1603.3196,861.1657,1620.397,861.4565,1637.5077Z"/><path fill="#6b1e1e" d="M839.1412,1228.3986c2.6268,14.9539,4.768,29.9649,7.166,44.946l6.3747,45.0392c4.2388,30.0275,7.8831,60.1245,11.5254,90.2221,3.4617,30.1195,6.9085,60.2397,9.769,90.4299l4.2633,45.2878c1.1449,15.1282,2.5492,30.2264,3.4645,45.3818-2.6322-14.9531-4.7741-29.9642-7.1769-44.9446l-6.3766-45.0392c-4.2335-30.0275-7.8805-60.1251-11.5125-90.2235-3.4516-30.1201-6.9011-60.2409-9.756-90.4312l-4.2662-45.2871C841.467,1258.6516,840.062,1243.5534,839.1412,1228.3986Z"/><path fill="#963232" d="M1004.1984,1338.9858c-170.5912-35.9908-168.9191-156.9621-168.9191-156.9621-23.3224,100.1357-138.4489,153.0099-181.2137,169.4403l6.1508-153.9835-7.9262-50.8964,25.8931-26.7051,314.5773,6.5655-.6726,92.43Z"/><path d="M1004.1982,1339.0046c-170.5968-36.006-168.9211-156.98-168.9211-156.98-23.3387,100.1221-138.447,153.0132-181.2059,169.4416l.5137-13.226c89.7726-27.4027,130.9701-99.2584,132.2265-101.4952-58.6502,54.3063-114.3995,64.8194-130.8196,66.7864l.9262-23.087c64.5862-13.1432,110.525-56.4656,112.0808-57.9215-50.3532,23.5506-94.0317,20.6578-110.5041,18.3607l.8228-20.6218c36.0335,5.9859,78.8478-4.77,78.8478-4.77-38.4327-1.3957-66.3532-15.3673-78.7173-22.8508l-7.1419-46.0469,25.8895-26.7041,314.5484,6.5489-.5844,80.5945c-15.253,6.616-40.7567,15.0089-67.9332,12.4177,0,0,35.7056,19.0937,70.1298,21.9193l1.6911,16.696c-21.4844-.8616-64.5023-6.1835-105.7329-32.915,1.3804,1.7139,42.5037,51.6451,108.616,61.4583l1.307,13.0989c-20.6008-3.605-73.0477-16.7394-118.2406-61.2889,1.0111,2.2637,33.8847,74.8912,121.0097,88.8548Z" style="mix-blend-mode:soft-light" opacity=".3"/><path fill="#6b1e1e" d="M794.5781,1214.8934a159.843,159.843,0,0,1-26.403,29.6768,200.28765,200.28765,0,0,1-32.2573,23.5044c-5.7052,3.4672-11.7563,6.3201-17.7127,9.3168-6.2262,2.43-12.2208,5.3973-18.6792,7.1728-12.5695,4.4786-25.8894,6.5034-39.0099,7.5923,12.6287-4.0168,25.0409-7.8852,36.9211-13.1647a270.63644,270.63644,0,0,0,34.6178-17.488,327.25184,327.25184,0,0,0,32.3601-21.5164A383.60063,383.60063,0,0,0,794.5781,1214.8934Z"/><path fill="#6b1e1e" d="M770.5165,1215.2407a97.76227,97.76227,0,0,1-22.9493,11.3355,134.43657,134.43657,0,0,1-24.9237,6.1778,118.18969,118.18969,0,0,1-25.7131,1.0603,88.29951,88.29951,0,0,1-25.1103-5.1521c8.5887-.2915,16.8492-.0913,25.1267-.7989,8.2454-.5891,16.4467-1.3219,24.5872-2.6493C737.886,1222.9074,753.9561,1219.2269,770.5165,1215.2407Z"/><path fill="#6b1e1e" d="M868.5578,1223.8159a318.11765,318.11765,0,0,0,26.8559,23.2885,260.56092,260.56092,0,0,0,29.1312,19.5931,207.59443,207.59443,0,0,0,31.4877,15.2923c10.858,4.5011,22.2377,7.4684,33.87,10.5761-11.9402-.1526-24.1943-1.2389-35.7749-4.9384a61.24842,61.24842,0,0,1-8.6711-2.7813l-8.5186-3.2643c-5.4777-2.6255-11.0208-5.161-16.2301-8.2993a162.49507,162.49507,0,0,1-29.1408-21.6669A132.41031,132.41031,0,0,1,868.5578,1223.8159Z"/><path fill="#6b1e1e" d="M879.4969,1207.6463c8.0806,4.6414,16.2062,8.7277,24.4524,12.513a267.14127,267.14127,0,0,0,25.1396,10.0693c8.5097,2.9497,17.1482,5.5908,25.9644,7.7081,8.7937,2.317,17.7529,3.8698,26.8892,5.9436a110.23548,110.23548,0,0,1-27.9708-.092,131.71469,131.71469,0,0,1-52.8174-18.4006C893.1812,1220.4848,885.6059,1214.7593,879.4969,1207.6463Z"/><path fill="#ef991b" d="M992.2836,1189.8379c-165.68,69.9219-300.6267,8.1577-334.8413-10.2926l-5.1521-32.9612,25.8931-26.7051,314.5773,6.5655Z"/><ellipse cx="831.625" cy="1199.908" fill="#edb21d" rx="45.846" ry="52.959" transform="rotate(-87.946 831.625 1199.908)"/><path fill="#181a26" d="M791.9519,1338.105c-3.0327,19.3159-9.3998,38.04-17.3933,55.9517a268.52067,268.52067,0,0,1-30.0296,50.7491c-3.0926,3.852-6.0137,7.8375-9.2718,11.5513l-9.9815,10.9636c-3.3187,3.6572-7.2089,6.7757-10.7803,10.1789l-5.4723,4.9874c-1.8422,1.6393-3.931,3.0047-5.8809,4.516l-11.8945,8.7897-12.7411,7.4956-6.4175,3.585-6.7622,2.9456q-6.7617,2.9043-13.5549,5.5335,5.99865-4.27635,12.0015-8.2986l6.0164-3.9705,5.6506-4.5011,11.3198-8.7957,10.6115-9.594c13.8143-13.0435,26.849-26.9096,38.0407-42.285a415.31164,415.31164,0,0,0,31.2002-47.8431A539.64531,539.64531,0,0,0,791.9519,1338.105Z"/><path fill="#181a26" d="M785.1502,1425.9591c-1.0093,17.9763-5.5478,35.685-11.9251,52.6241a204.167,204.167,0,0,1-26.0182,47.8438c-2.8488,3.5776-5.49,7.3179-8.5363,10.7306l-9.346,10.0591c-3.1438,3.3201-6.8507,6.0852-10.2424,9.1397l-5.2012,4.4602c-1.8217,1.3785-3.7852,2.5812-5.6669,3.8752-3.8235,2.5076-7.5379,5.1522-11.4199,7.5113l-12.2357,6.0559c-2.0663.9337-4.0544,2.0036-6.167,2.8128l-6.4543,2.1432q-6.4482,2.1003-12.893,3.9194,5.8005-3.5304,11.5711-6.8023l5.778-3.2173c1.8845-1.136,3.6314-2.5253,5.4443-3.7689l10.8349-7.4057,10.0891-8.3164c13.1048-11.3517,25.2369-23.8217,35.2539-37.9951a293.58137,293.58137,0,0,0,27.054-44.5904A397.5873,397.5873,0,0,0,785.1502,1425.9591Z"/><path fill="#181a26" d="M879.5499,1311.1265a527.65859,527.65859,0,0,0,20.9274,51.3472,394.0997,394.0997,0,0,0,26.7584,47.7422c9.7098,15.4184,21.3912,29.4064,33.8237,42.6903l9.6253,9.7513,10.3602,9.0157,5.1671,4.6141,5.5683,4.0918q5.5665,4.13325,11.0929,8.5424-6.39495-2.80005-12.7772-5.8549l-6.3671-3.107-5.9858-3.7424-11.8638-7.8048-10.9684-9.0355a205.55646,205.55646,0,0,1-37.2235-42.8735,252.28412,252.28412,0,0,1-25.414-50.5986C885.8422,1348.2077,881.0503,1329.8363,879.5499,1311.1265Z"/><path fill="#181a26" d="M891.3573,1406.1678a494.30382,494.30382,0,0,0,20.6229,51.4622,357.11959,357.11959,0,0,0,26.9124,47.5557l7.7844,11.1658,8.5887,10.5297c2.6752,3.6913,5.9558,6.8119,9.0349,10.1388,3.1852,3.2146,6.0518,6.799,9.5476,9.6893l10.1163,9.1792c3.4979,2.9129,7.2552,5.5016,10.8846,8.3156l5.4586,4.2519,5.8713,3.6218q5.88435,3.648,11.7666,7.5842-6.60255-2.2536-13.2301-4.7708l-6.6096-2.5873-6.2358-3.3385c-4.106-2.3292-8.3421-4.5311-12.3678-7.0516l-11.4887-8.4485a186.724,186.724,0,0,1-38.5774-41.8552,237.5826,237.5826,0,0,1-25.6674-50.568C897.3737,1443.3116,892.682,1424.8987,891.3573,1406.1678Z"/><path fill="#edb21d" d="M977.6819,1625.7874s54.1363-29.7262,88.814,13.471c0,0,37.2314,8.119,52.2531-25.4237,0,0-8.4181,52.3763-59.6823,57.6048l-98.4185-5.1727S962.282,1632.9009,977.6819,1625.7874Z"/><path d="M1118.6776,1614.1781c-.7825,4.4271-10.7139,52.2901-59.6165,57.2708l-98.4263-5.1793s1.6545-33.3625,17.062-40.4974c0,0,26.363-14.4965,54.0955-8.5254-14.5119,6.8988-35.7551,18.7563-33.705,28.1049,2.8551,12.9253,47.939,12.7614,68.6386-6.0449a40.85953,40.85953,0,0,0,5.0087.6417c-2.3469,3.8082-3.702,6.8818-2.9819,8.3001C1071.4606,1653.5434,1109.4449,1653.5174,1118.6776,1614.1781Z" style="mix-blend-mode:soft-light" opacity=".3"/><path fill="#edb21d" d="M705.6777,1621.4961s-53.1716-31.4192-89.1947,10.6626c0,0-37.469,6.9405-51.4251-27.0593,0,0,6.7616,52.6157,57.8355,59.4587l98.5326-2.0654S720.8455,1629.0918,705.6777,1621.4961Z"/><path d="M565.1183,1605.4448c.6426,4.4496,9.0591,52.6021,57.7803,59.1229l98.5407-2.0717s-.6012-33.3982-15.776-41.0155c0,0-25.8926-15.321-53.7997-10.2277,14.2871,7.3532,35.1457,19.8749,32.8017,29.1542-3.2613,12.8288-48.3177,11.2427-68.4137-8.2072a40.83223,40.83223,0,0,1-5.0265.4834c2.2256,3.8804,3.483,6.9952,2.7186,8.39C611.0701,1646.28,573.1055,1645.0558,565.1183,1605.4448Z" style="mix-blend-mode:soft-light" opacity=".3"/><path fill="#b7765a" d="M1380.4172,591.4588s-29.2857,38.6506-72.1359,31.3664c0,0-23.2647,31.3292-59.8344,73.0643-37.4235,42.813-88.8588,96.5894-143.5641,138.696-22.224,17.0956-44.9687,32.2955-67.5266,44.0765a290.76581,290.76581,0,0,1-28.0218,12.7844s.186,16.538-.4836,41.9582v.0372c-.6315,23.4877-2.0061,54.5568-4.9422,87.2238-.5952,6.8755-1.3011,13.788-2.0442,20.7376-1.449,13.1559-3.1593,26.3863-5.2035,39.2452-1.3002,8.2874-2.7492,16.4636-4.3479,24.3423-.9291,4.6827-1.9326,9.2538-2.9733,13.7135q-.0558.1116,0,.1116a308.241,308.241,0,0,1-8.5479,29.9911,180.6396,180.6396,0,0,1-6.9864,17.5044s-8.6958,2.7129-23.4879,6.3551c-50.9517,12.487-174.2987,36.0491-264.9794-1.8954-1.077-.4088-2.1177-.8547-3.1584-1.3009l-2.8989-16.0546-3.6792-20.4032-14.3457-79.568-4.7199-26.275L636.2083,914.4139s-1.0779-.4461-3.1221-1.3381c-6.8013-3.0474-24.3426-11.0748-47.7933-23.7106a840.04538,840.04538,0,0,1-73.436-44.671c-33.0012-22.4471-67.9722-50.06-98.6706-82.2811-20.5145-21.5178-39.1329-45.1171-53.9621-70.6116-.0736.0744-.1108.1858-.1851.2602-2.4534,3.4562-28.2078,37.7585-77.8593,18.5448,0,0-54.3705,17.4299-69.0129,9.0681-14.6061-8.362,62.7324-28.5792,62.7324-28.5792s-62.7324-4.8684-68.9766-12.5242c-6.2805-7.693,6.2442-14.6427,70.3521-9.7742,0,0-73.8453-19.5111-72.4698-32.7414,1.4118-13.2304,78.7503,6.2807,78.7503,6.2807s-79.4199-45.3029-71.058-56.4521,80.1258,26.4607,80.1258,26.4607l38.3163-6.2435s-39.0222-64.814-6.2806-79.4566c0,0,5.5746,16.0176,14.6424,24.3795s34.1536,22.2984,37.6467,71.8009c0,0,63.7368,41.8839,153.228,82.8385,19.4367,8.8822,40.1373,17.7644,61.6173,26.1263,16.0922,6.2807,32.63,12.2641,49.5026,17.8015,10.3689,3.419,20.8857,6.6525,31.4406,9.6628q5.4072,1.5606,10.8144,3.0102c16.5387,4.4967,33.2625,8.4361,49.9863,11.5952,2.8617.5573,5.6862,1.0777,8.547,1.598a480.9944,480.9944,0,0,0,76.6326,7.6186c24.6774.3346,50.0597-2.8245,75.629-8.6593.2233-.0741.4827-.1114.7431-.1857a473.983,473.983,0,0,0,56.9718-17.1326c4.1256-1.5238,8.214-3.0847,12.3015-4.6827,10.4433-4.0879,20.8122-8.5105,31.0695-13.1559,15.7575-7.1727,31.329-14.9401,46.5294-23.1162a1042.51051,1042.51051,0,0,0,90.2342-54.9655c81.3144-55.077,138.0639-108.0357,138.0639-108.0357s-17.9505-20.2172-8.0271-56.8236c9.9597-36.5695,5.7606-56.4152,11.5203-56.4152,5.7234,0,16.7238,9.4026,21.4064,28.728,4.72,19.3253,1.0408,43.8906,3.6793,46.009,2.6022,2.0812,76.2978-76.8551,88.8224-68.4932,12.375,8.2503-38.1674,67.2295-39.6545,68.9763,1.8219-1.375,64.8882-48.9823,75.2207-41.7725,10.4424,7.3215-48.0908,62.1755-48.0908,62.1755s53.2934-16.7238,64.2938-10.4431c10.9632,6.2808-50.1714,37.61-50.1714,37.61s57.4554,7.3212,60.6147,17.7643C1451.9941,590.9384,1380.4172,591.4588,1380.4172,591.4588Z"/><path d="M231.0828,686.004c-12.189-2.0068-22.7811-4.497-25.1601-7.4328-4.3479-5.3144.2976-10.2573,24.6774-11.2608C230.4885,673.7027,230.7117,679.9834,231.0828,686.004Z" style="mix-blend-mode:soft-light" opacity=".3"/><path d="M203.805,636.0556c.5943-5.4632,14.0853-5.3517,29.7684-3.3449a190.63409,190.63409,0,0,0-2.5269,21.5181C216.0321,648.3568,203.2098,641.6302,203.805,636.0556Z" style="mix-blend-mode:soft-light" opacity=".3"/><path d="M232.6443,704.1772c.7431,6.2807,1.5606,12.0039,2.3781,17.0581-9.5886,1.1521-18.21,1.0779-22.8555-1.5607C205.626,715.9209,217.5183,709.826,232.6443,704.1772Z" style="mix-blend-mode:soft-light" opacity=".3"/><path d="M248.0298,592.2021a99.73286,99.73286,0,0,0-9.9225,22.1126c-16.4634-11.5582-30.3627-23.4135-26.61-28.4305C215.1774,580.9413,231.2688,585.5496,248.0298,592.2021Z" style="mix-blend-mode:soft-light" opacity=".3"/><path d="M963.3621,1137.0633C681.139,1210.2392,731.3104,892.4871,731.3104,892.4871c118.6643-6.8011,204.4019-90.1599,249.6302-147.2809q-8.75115,3.73485-17.5785,7.2098c-4.0875,1.598-8.1759,3.1589-12.3015,4.6827a473.983,473.983,0,0,1-56.9718,17.1326c-.2604.0743-.5198.1116-.7431.1857-25.5693,5.8348-50.9516,8.9939-75.629,8.6593a480.9944,480.9944,0,0,1-76.6326-7.6186c-2.8608-.5203-5.6853-1.0407-8.547-1.598-16.7238-3.1591-33.4476-7.0985-49.9863-11.5952-.4083-.1115-.8547-.223-1.263-.3345-115.691,84.9196-311.6203-95.9203-311.6203-95.9203,5.5746-13.2303,6.2804-43.1845,6.2804-43.1845-.2967-4.1996-.7431-8.1761-1.3373-11.8925-12.8214-2.4155-25.3462-7.8787-29.323-19.4739-5.1282-14.9772-2.4524-26.6093.8556-33.8935-3.122-2.6388-5.8721-4.72-7.842-6.541-9.0678-8.3619-14.6424-24.3795-14.6424-24.3795-32.7416,14.6426,6.2806,79.4566,6.2806,79.4566l-38.3163,6.2435s-1.7838-.9291-4.7943-2.4527c-1.6722,7.8415-3.8643,18.9163-5.9457,31.515,1.0779.5945,1.6722.9291,1.6722.9291s-.6315-.1486-1.7466-.446c-3.5676,22.0382-6.6525,48.6106-5.649,70.5372,3.7536-1.0776,6.0201-1.821,6.0201-1.821a86.10723,86.10723,0,0,0,16.9842,4.7571c-2.2666-22.9676,6.9501-49.0565,22.038-47.9416,12.9339.9663,23.2274,21.7036,28.6169,35.2314a55.97629,55.97629,0,0,0,10.2202-10.5917c.0743-.0744.1115-.1858.1851-.2602,14.8292,25.4945,33.4476,49.0938,53.9621,70.6116,30.6984,32.2211,65.6694,59.834,98.6706,82.2811a840.04538,840.04538,0,0,0,73.436,44.671c23.4507,12.6358,40.992,20.6632,47.7933,23.7106,2.0442.892,3.1221,1.3381,3.1221,1.3381l20.3277,112.7554,4.7199,26.275,14.3457,79.568,3.6792,20.4032,2.8989,16.0546c1.0407.4462,2.0814.8921,3.1584,1.3009,90.6807,37.9445,214.0277,14.3824,264.9794,1.8954,14.7921-3.6422,23.4879-6.3551,23.4879-6.3551a180.6396,180.6396,0,0,0,6.9864-17.5044c2.007-5.7231,3.8289-11.8181,5.5383-18.1358C979.1196,1132.8265,971.4645,1134.9821,963.3621,1137.0633ZM360.5997,641.9647c-2.7873,12.8958-21.2577,34.8597-30.3256,6.2805-9.0305-28.5788,8.0271-44.2622,8.0271-44.2622C352.9436,600.8612,363.387,629.0687,360.5997,641.9647Z" style="mix-blend-mode:soft-light" opacity=".3"/><path d="M1448.8729,580.4582c-1.2639-4.1996-11.4096-7.916-23.0424-10.8518,1.1523,7.0981,1.8582,13.5649,2.3046,18.9907C1440.4738,586.9619,1450.0615,584.4347,1448.8729,580.4582Zm-10.4433-55.3743c-4.0512-2.3041-13.8992-1.4866-24.7137.446a171.08851,171.08851,0,0,1,6.54,18.9536C1433.0038,536.3817,1443.5215,528.0198,1438.4296,525.0839Zm-16.203-51.7324c-4.4232-3.0844-18.4713,3.8652-33.2625,12.9332a112.61359,112.61359,0,0,1,14.7168,19.2138C1416.3172,491.3762,1427.2432,476.8821,1422.2266,473.3515Zm-35.5662-27.2038c-4.5711-3.0475-17.3562,5.5746-31.8497,17.6529a89.907,89.907,0,0,1,22.1867,11.9667C1385.843,462.2767,1391.9002,449.6411,1386.6604,446.1477Zm-39.6545,68.9763c.2976-.3345,2.4534-2.8616,5.649-6.7638v-.0372a276.52309,276.52309,0,0,0-20.9229-24.0453c-17.5785,16.2779-32.7417,31.2923-33.894,30.3632-1.4118-1.1151-1.0398-8.5107-1.0398-18.0619-8.6595,1.5239-19.9947-.4087-21.2586-20.1056-1.1886-17.9131,1.7094-27.873,4.5348-33.1502-2.751-2.3042-5.3523-3.4193-7.3221-3.4193-5.7597,0-1.5606,19.8457-11.5203,56.4152-9.9234,36.6064,8.0271,56.8236,8.0271,56.8236s-56.7495,52.9587-138.0639,108.0357a1042.51051,1042.51051,0,0,1-90.2342,54.9655c-3.6792,1.9698-7.3584,3.9394-11.112,5.872-9.3282,57.567-41.4012,233.1668-41.4012,233.1668s7.842,3.3077,19.2516,9.1424c.5571-11.2236.9291-21.6295,1.1514-30.8833v-.0372c.6696-25.4202.4836-41.9582.4836-41.9582a290.76581,290.76581,0,0,0,28.0218-12.7844c.1488-.0742.2594-.1486.4083-.223.6696-48.9821,43.9652-112.4211,99.0798-151.1087,65.5196-45.9718,151.9258-128.2157,151.9258-128.2157a99.76275,99.76275,0,0,0,18.3961,25.1601q1.1145-1.44945,1.1151-1.4495a63.04239,63.04239,0,0,0,18.6192.4087c-19.3252-20.1428-20.217-47.4212-3.9768-53.7389,18.8052-7.3214,57.4935,21.9638,57.4935,21.9638s4.7561-.0372,11.7435-.2602c-5.1664-31.5522-22.1868-60.1685-38.2048-81.2032C1349.9419,512.9312,1347.3406,514.8639,1347.0059,515.124Zm-35.2314,44.2623c-9.7737,27.8729-32.778-9.737-34.1535-29.9542-1.4118-20.2173,23.0042-6.2807,23.0042-6.2807S1321.5119,531.5133,1311.7745,559.3863Z" style="mix-blend-mode:soft-light" opacity=".3"/><path fill="#ef991b" d="M963.3621,752.416a253.27777,253.27777,0,0,1-2.7501,33.5592v.037c-5.3886,37.7215-19.1763,92.6869-47.4957,132.5269-12.6354,17.727-28.1325,32.444-47.0493,41.2519-14.3457,6.7639-30.623,10.1087-49.1306,8.8078a97.70545,97.70545,0,0,1-28.5417-6.2807c-26.7216-10.2201-47.8305-31.4778-64.3683-57.1582-25.0857-38.9478-39.7281-88.0043-47.7561-123.7932-1.8582-8.139-3.3444-15.6088-4.5339-22.1124q5.4072,1.5606,10.8144,3.0102c16.5387,4.4967,33.2625,8.4361,49.9863,11.5952,2.1177,4.6083,4.4595,9.2166,6.9492,13.7505,17.6529,32.1841,44.1513,60.3915,82.17,56.8611,41.5862-3.8652,61.8404-37.1269,71.6894-70.0543.1851-.6317.3712-1.2262.5571-1.8582.0744.5576.1488,1.1149.186,1.6725a473.983,473.983,0,0,0,56.9718-17.1326C955.1862,755.5749,959.2746,754.014,963.3621,752.416Z"/><path d="M951.0606,757.0987a473.983,473.983,0,0,1-56.9718,17.1326c-.0372-.5576-.1116-1.1149-.186-1.6725-.1859.632-.372,1.2265-.5571,1.8582-9.849,32.9274-30.1032,66.1891-71.6894,70.0543-38.0187,3.5304-64.5171-24.677-82.17-56.8611-2.4897-4.5339-4.8315-9.1422-6.9492-13.7505-16.7238-3.1591-33.4476-7.0985-49.9863-11.5952q-5.40585-1.44945-10.8144-3.0102c1.1895,6.5036,2.6757,13.9734,4.5339,22.1124,8.028,35.7889,22.6704,84.8454,47.7561,123.7932,16.5378,25.6804,37.6467,46.9381,64.3683,57.1582a97.70545,97.70545,0,0,0,28.5417,6.2807c18.5076,1.3009,34.7849-2.0439,49.1306-8.8078,18.9168-8.8079,34.4139-23.5249,47.0493-41.2519,28.3194-39.84,42.1071-94.8054,47.4957-132.5269v-.037a253.27777,253.27777,0,0,0,2.7501-33.5592C959.2746,754.014,955.1862,755.5749,951.0606,757.0987ZM773.1199,937.4184c-16.7238-10.4433-37.6467-35.529-37.6467-35.529l11.5203-81.5375c62.6961,57.4925,125.4285,13.6019,125.4285,13.6019l5.2034,93.0213C805.5268,878.8851,773.1199,937.4184,773.1199,937.4184Z" style="mix-blend-mode:soft-light" opacity=".3"/><path fill="#292c44" d="M741.0841,775.4577c-.5199,3.7906-1.0398,7.8416-1.5978,12.1525-3.828,29.6198-9.2538,71.3921-15.4599,117.5497-7.5072,56.0433-16.1295,118.5532-24.2682,173.6675q-1.50525,10.3128-3.0105,20.2171c-1.7838,11.8554-3.5304,23.2647-5.2026,34.0422-1.1523,7.024-2.2302,13.7507-3.3072,20.2172-1.0035,6.095-1.9707,11.9297-2.8998,17.4671-6.2061,36.1605-11.2227,59.3138-13.9365,59.6482-12.561,1.4122-85.0308-13.9365-93.3926-32.0354-8.3619-18.136,44.5967-19.5111,43.2212-33.4476-1.4118-13.9365-64.1078-2.7873-64.1078-12.5614,0-2.1184,6.207-22.5958,15.9072-53.293,2.0061-6.4296,4.1991-13.342,6.5399-20.6262,3.5676-11.2234,7.4701-23.3389,11.5584-36.0861q3.2337-10.09005,6.6525-20.7004c11.1865-34.6369,23.488-72.4325,35.3058-108.5933,17.1321-52.4383,33.1872-101.309,43.1841-131.7091,2.4906-7.6186,4.6083-14.0479,6.2805-19.1022,16.5387,4.4967,33.2625,8.4361,49.9863,11.5952C735.3988,774.417,738.2233,774.9374,741.0841,775.4577Z"/><path fill="#ef991b" d="M696.7477,1099.0445c-1.7838,11.8554-3.5304,23.2647-5.2026,34.0422-1.1523,7.024-2.2302,13.7507-3.3072,20.2172-69.6825,3.0847-29.7312-38.0559-46.827-49.6882-15.0515-10.2573-57.3065-5.9092-68.3813-4.5339,2.0061-6.4296,4.1991-13.342,6.5399-20.6262,3.5676-11.2234,7.4701-23.3389,11.5584-36.0861,24.0822-3.1963,74.8479-6.1694,75.3687,25.7174C666.9049,1092.5037,683.2576,1098.3757,696.7477,1099.0445Z"/><path fill="#963232" d="M699.7582,1078.8274q-1.50525,10.3128-3.0105,20.2171c-1.7838,11.8554-3.5304,23.2647-5.2026,34.0422-70.3883,3.3448-30.2148-38.0187-47.3469-49.6883-13.677-9.3282-49.8375-6.5409-64.6287-4.9428,3.5676-11.2234,7.4701-23.3389,11.5584-36.0861q3.2337-10.09005,6.6525-20.7004c25.2346-2.9361,71.0199-4.0509,71.5035,26.2006C669.6922,1072.435,686.2309,1078.2326,699.7582,1078.8274Z"/><g style="mix-blend-mode:soft-light" opacity=".3"><path d="M741.0841,775.4577c-.5199,3.7906-1.0398,7.8416-1.5978,12.1525-3.828,29.6198-9.2538,71.3921-15.4599,117.5497-7.5072,56.0433-16.1295,118.5532-24.2682,173.6675q-1.50525,10.3128-3.0105,20.2171c-1.7838,11.8554-3.5304,23.2647-5.2026,34.0422-1.1523,7.024-2.2302,13.7507-3.3072,20.2172-1.0035,6.095-1.9707,11.9297-2.8998,17.4671-6.2061,36.1605-11.2227,59.3138-13.9365,59.6482a17.53685,17.53685,0,0,1-2.8608.0371l9.2538-77.0408,2.4153-20.2172,4.3851-36.4579,2.4534-20.3288,34.8594-290.548s-29.322,130.8173-55.7459,250.3365q-2.062,9.1983-4.0513,18.2849c-4.7934,21.778-9.4761,42.8871-13.7505,62.5096-1.1513,5.1658-2.2292,10.2201-3.3071,15.163-9.3655,42.8871-16.6123,76.5207-19.2879,90.3084-21.6298-5.9833-43.4083-14.6426-47.7561-24.0822-8.3619-18.136,44.5967-19.5111,43.2212-33.4476l15.3121-63.8105,4.6826-19.4369,8.6595-36.1232,4.6827-19.3998,57.9381-241.3429-96.8115,235.5084-8.3999,20.4401-15.0135,36.5693-8.4735,20.6632h-.0373l-23.525,57.2698c-1.9698-.6691-3.1221-1.5983-3.1221-2.8989,0-2.1184,6.207-22.5958,15.9072-53.293,2.0061-6.4296,4.1991-13.342,6.5399-20.6262,3.5676-11.2234,7.4701-23.3389,11.5584-36.0861q3.2337-10.09005,6.6525-20.7004c11.1865-34.6369,23.488-72.4325,35.3058-108.5933,17.1321-52.4383,33.1872-101.309,43.1841-131.7091,2.4906-7.6186,4.6083-14.0479,6.2805-19.1022,16.5387,4.4967,33.2625,8.4361,49.9863,11.5952C735.3988,774.417,738.2233,774.9374,741.0841,775.4577Z"/><path d="M591.1279,1042.3695c4.6084-.632,10.1829-1.2265,16.1659-1.5981l-15.0135,36.5693-8.4735,20.6632h-.0373c-4.6455.3718-8.3619.7805-10.7399,1.0779,2.0061-6.4296,4.1991-13.342,6.5399-20.6262C583.1371,1067.2322,587.0396,1055.1167,591.1279,1042.3695Z"/><path d="M662.1106,1054.485c-4.7934,21.778-9.4761,42.8871-13.7505,62.5096-1.1513,5.1658-2.2292,10.2201-3.3071,15.163-.2605-10.8891,4.4595-23.0417-3.6421-28.5419a23.92466,23.92466,0,0,0-4.8686-2.49l4.6826-19.4369,8.6595-36.1232A28.25209,28.25209,0,0,1,662.1106,1054.485Z"/><path d="M696.7477,1099.0445c-1.7838,11.8554-3.5304,23.2647-5.2026,34.0422-1.1523,7.024-2.2302,13.7507-3.3072,20.2172-3.7908.1858-7.2849.223-10.4433.1116l2.4153-20.2172,4.3851-36.4579A41.31652,41.31652,0,0,0,696.7477,1099.0445Z"/><path d="M597.7804,1021.6691c5.277-.6317,11.4459-1.1521,17.9133-1.3378l-8.3999,20.4401-15.0135,36.5693c-4.9804.3346-9.4026.7433-12.7108,1.1149,3.5676-11.2234,7.4701-23.3389,11.5584-36.0861Q594.3616,1032.27945,597.7804,1021.6691Z"/><path d="M666.1619,1036.2001q-2.062,9.1983-4.0513,18.2849c-4.7934,21.778-9.4761,42.8871-13.7505,62.5096-2.564-11.9667,5.2035-27.2039-4.1619-33.5962a20.74885,20.74885,0,0,0-2.9733-1.7096l8.6595-36.1232,4.6827-19.3998C659.5465,1028.5444,663.5977,1031.8148,666.1619,1036.2001Z"/><path d="M699.7582,1078.8274q-1.50525,10.3128-3.0105,20.2171c-1.7838,11.8554-3.5304,23.2647-5.2026,34.0422-4.1628.1857-7.9164.2229-11.3352.1116l4.3851-36.4579,2.4534-20.3288A41.75076,41.75076,0,0,0,699.7582,1078.8274Z"/></g><path fill="#292c44" d="M881.8421,775.4577c.5199,3.7906,1.0398,7.8416,1.5978,12.1525,3.828,29.6198,9.2538,71.3921,15.4599,117.5497,7.5072,56.0433,16.1295,118.5532,24.2682,173.6675q1.50525,10.3128,3.0105,20.2171c1.7838,11.8554,3.5304,23.2647,5.2026,34.0422,1.1523,7.024,2.2302,13.7507,3.3072,20.2172,1.0035,6.095,1.9707,11.9297,2.8998,17.4671,6.2061,36.1605,11.2227,59.3138,13.9365,59.6482,12.561,1.4122,85.0308-13.9365,93.3927-32.0354,8.3618-18.136-44.5968-19.5111-43.2213-33.4476,1.4118-13.9365,64.1078-2.7873,64.1078-12.5614,0-2.1184-6.207-22.5958-15.9072-53.293-2.0061-6.4296-4.199-13.342-6.5399-20.6262-3.5676-11.2234-7.4701-23.3389-11.5584-36.0861q-3.2337-10.09005-6.6525-20.7004c-11.1865-34.6369-23.488-72.4325-35.3058-108.5933-17.1321-52.4383-33.1872-101.309-43.1841-131.7091-2.4906-7.6186-4.6083-14.0479-6.2805-19.1022-16.5387,4.4967-33.2625,8.4361-49.9863,11.5952C887.5274,774.417,884.7029,774.9374,881.8421,775.4577Z"/><path fill="#ef991b" d="M926.1785,1099.0445c1.7838,11.8554,3.5304,23.2647,5.2026,34.0422,1.1523,7.024,2.2302,13.7507,3.3072,20.2172,69.6825,3.0847,29.7312-38.0559,46.827-49.6882,15.0515-10.2573,57.3065-5.9092,68.3813-4.5339-2.0061-6.4296-4.199-13.342-6.5399-20.6262-3.5676-11.2234-7.4701-23.3389-11.5584-36.0861-24.0822-3.1963-74.8479-6.1694-75.3687,25.7174C956.0213,1092.5037,939.6686,1098.3757,926.1785,1099.0445Z"/><path fill="#963232" d="M923.168,1078.8274q1.50525,10.3128,3.0105,20.2171c1.7838,11.8554,3.5304,23.2647,5.2026,34.0422,70.3884,3.3448,30.2148-38.0187,47.3469-49.6883,13.677-9.3282,49.8375-6.5409,64.6287-4.9428-3.5676-11.2234-7.4701-23.3389-11.5584-36.0861q-3.2337-10.09005-6.6525-20.7004c-25.2345-2.9361-71.0199-4.0509-71.5035,26.2006C953.234,1072.435,936.6953,1078.2326,923.168,1078.8274Z"/><g style="mix-blend-mode:soft-light" opacity=".3"><path d="M881.8421,775.4577c.5199,3.7906,1.0398,7.8416,1.5978,12.1525,3.828,29.6198,9.2538,71.3921,15.4599,117.5497,7.5072,56.0433,16.1295,118.5532,24.2682,173.6675q1.50525,10.3128,3.0105,20.2171c1.7838,11.8554,3.5304,23.2647,5.2026,34.0422,1.1523,7.024,2.2302,13.7507,3.3072,20.2172,1.0035,6.095,1.9707,11.9297,2.8998,17.4671,6.2061,36.1605,11.2227,59.3138,13.9365,59.6482a17.53685,17.53685,0,0,0,2.8608.0371l-9.2538-77.0408-2.4153-20.2172-4.3851-36.4579-2.4534-20.3288-34.8594-290.548s29.322,130.8173,55.746,250.3365q2.0619,9.1983,4.0512,18.2849c4.7934,21.778,9.4761,42.8871,13.7505,62.5096,1.1514,5.1658,2.2293,10.2201,3.3072,15.163,9.3654,42.8871,16.6122,76.5207,19.2878,90.3084,21.6297-5.9833,43.4083-14.6426,47.7562-24.0822,8.3618-18.136-44.5968-19.5111-43.2213-33.4476l-15.3121-63.8105-4.6826-19.4369-8.6595-36.1232-4.6827-19.3998L910.421,784.8229l96.8115,235.5084,8.4,20.4401,15.0134,36.5693,8.4735,20.6632h.0373l23.525,57.2698c1.9699-.6691,3.1221-1.5983,3.1221-2.8989,0-2.1184-6.207-22.5958-15.9072-53.293-2.0061-6.4296-4.199-13.342-6.5399-20.6262-3.5676-11.2234-7.4701-23.3389-11.5584-36.0861q-3.2337-10.09005-6.6525-20.7004c-11.1865-34.6369-23.488-72.4325-35.3058-108.5933-17.1321-52.4383-33.1872-101.309-43.1841-131.7091-2.4906-7.6186-4.6083-14.0479-6.2805-19.1022-16.5387,4.4967-33.2625,8.4361-49.9863,11.5952C887.5274,774.417,884.7029,774.9374,881.8421,775.4577Z"/><path d="M1031.7983,1042.3695c-4.6083-.632-10.1829-1.2265-16.1658-1.5981l15.0134,36.5693,8.4735,20.6632h.0373c4.6455.3718,8.3619.7805,10.7399,1.0779-2.0061-6.4296-4.199-13.342-6.5399-20.6262C1039.7891,1067.2322,1035.8866,1055.1167,1031.7983,1042.3695Z"/><path d="M960.8156,1054.485c4.7934,21.778,9.4761,42.8871,13.7505,62.5096,1.1514,5.1658,2.2293,10.2201,3.3072,15.163.2604-10.8891-4.4595-23.0417,3.642-28.5419a23.92466,23.92466,0,0,1,4.8686-2.49l-4.6826-19.4369-8.6595-36.1232A28.25209,28.25209,0,0,0,960.8156,1054.485Z"/><path d="M926.1785,1099.0445c1.7838,11.8554,3.5304,23.2647,5.2026,34.0422,1.1523,7.024,2.2302,13.7507,3.3072,20.2172,3.7908.1858,7.2849.223,10.4433.1116l-2.4153-20.2172-4.3851-36.4579A41.31652,41.31652,0,0,1,926.1785,1099.0445Z"/><path d="M1025.1458,1021.6691c-5.277-.6317-11.4459-1.1521-17.9133-1.3378l8.4,20.4401,15.0134,36.5693c4.9804.3346,9.4026.7433,12.7108,1.1149-3.5676-11.2234-7.4701-23.3389-11.5584-36.0861Q1028.5646,1032.27945,1025.1458,1021.6691Z"/><path d="M956.7644,1036.2001q2.0619,9.1983,4.0512,18.2849c4.7934,21.778,9.4761,42.8871,13.7505,62.5096,2.564-11.9667-5.2035-27.2039,4.1619-33.5962a20.74885,20.74885,0,0,1,2.9733-1.7096l-8.6595-36.1232-4.6827-19.3998C963.3797,1028.5444,959.3285,1031.8148,956.7644,1036.2001Z"/><path d="M923.168,1078.8274q1.50525,10.3128,3.0105,20.2171c1.7838,11.8554,3.5304,23.2647,5.2026,34.0422,4.1628.1857,7.9164.2229,11.3352.1116l-4.3851-36.4579-2.4534-20.3288A41.75076,41.75076,0,0,1,923.168,1078.8274Z"/></g><path fill="#ef991b" d="M1308.2813,622.8252s-23.2647,31.3292-59.8344,73.0643c-28.3557-12.0039-77.1153-30.4743-117.2517-34.7111,81.3144-55.077,138.0639-108.0357,138.0639-108.0357S1276.2092,594.9522,1308.2813,622.8252Z"/><path fill="#ef991b" d="M529.1759,705.6637c-47.3841,5.8719-98.2251,42.8129-115.9896,56.7494-20.5145-21.5178-39.1329-45.1171-53.9621-70.6116,16.7237-24.3795,16.7237-68.9763,16.7237-68.9763S439.6847,664.7091,529.1759,705.6637Z"/><path fill="#ef991b" d="M585.2929,889.3652a840.04538,840.04538,0,0,1-73.436-44.671c60.5403-32.9274,75.3315-87.2981,78.9363-112.9042,16.0922,6.2807,32.63,12.2641,49.5026,17.8015C648.7322,815.9663,611.903,864.0196,585.2929,889.3652Z"/><path fill="#ef991b" d="M1104.8828,834.5855c-22.224,17.0956-44.9687,32.2955-67.5266,44.0765-26.2008-28.6533-55.1517-76.2604-42.9246-139.4019,15.7575-7.1727,31.329-14.9401,46.5294-23.1162.1116.9291.1488,1.4495.1488,1.4495S1040.1063,788.9855,1104.8828,834.5855Z"/><path d="M1292.7098,605.9529l-91.7577,71.8749c-22.596-7.5813-47.4957-14.308-69.7569-16.6494,81.3144-55.077,138.0639-108.0357,138.0639-108.0357A135.48217,135.48217,0,0,0,1292.7098,605.9529Z" style="mix-blend-mode:soft-light" opacity=".3"/><path d="M456.5945,732.9793a380.114,380.114,0,0,0-43.4082,29.4338c-20.5145-21.5178-39.1329-45.1171-53.9621-70.6116,5.9465-8.6592,9.8117-19.9198,12.2642-30.8088A471.67985,471.67985,0,0,0,456.5945,732.9793Z" style="mix-blend-mode:soft-light" opacity=".3"/><path d="M641.2621,776.9814c-2.8616,52.2897-33.1872,90.6801-55.9692,112.3838a840.04538,840.04538,0,0,1-73.436-44.671c32.9277-17.9131,52.3271-42.144,63.7367-64.6654A189.11808,189.11808,0,0,0,641.2621,776.9814Z" style="mix-blend-mode:soft-light" opacity=".3"/><path d="M1067.9792,797.6817c-16.7237,24.7142-28.7648,52.104-30.623,80.9803-26.2008-28.6533-55.1517-76.2604-42.9246-139.4019,15.7575-7.1727,31.329-14.9401,46.5294-23.1162.1116.9291.1488,1.4495.1488,1.4495S1040.5517,758.1764,1067.9792,797.6817Z" style="mix-blend-mode:soft-light" opacity=".3"/><circle cx="829.329" cy="969.62" r="52.262" fill="#edb21d" transform="rotate(-45 829.329 969.62)"/><circle cx="829.329" cy="969.62" r="32.571" fill="#ef991b" transform="rotate(-61.235 829.329 969.62)"/><path fill="#f9a832" d="M995.0453,702.2864l-.0002-.0001c-18.0104-10.4991-38.1352,9.9599-27.3411,27.795l.0001.0002c12.2678,20.27-14.4862,41.3775-31.3448,24.7295l-.0002-.0002c-14.8335-14.6482-39.4141.1632-33.3945,20.1224l.0001.0002c6.8414,22.684-24.3213,36.475-36.5101,16.1574l-.0001-.0002c-10.7246-17.8769-38.2164-9.6438-37.3495,11.1853v.0003c.9852,23.6727-32.6282,29.2806-39.3813,6.5701v-.0002c-5.9419-19.9824-34.6175-18.8449-38.9578,1.5454l-.0001.0002c-4.9329,23.1741-38.8848,20.2465-39.7779-3.43l-.0001-.0002c-.7857-20.8323-28.8433-26.8619-38.1181-8.1916l-.0002.0003c-10.541,21.2192-42.6982,9.94-37.6751-13.2146v-.0003c4.4196-20.3732-21.2569-33.1909-34.8835-17.4138l-.0002.0002c-15.4869,17.9311-43.8288-.9908-33.2052-22.1688l.0001-.0003c9.3475-18.634-12.3348-37.4345-29.457-25.5419l-.0002.0002c-19.4596,13.5163-42.2054-11.8595-26.6488-29.7302l.0002-.0002c13.6878-15.724-2.6378-39.3261-22.1795-32.0651l-.0003.0001c-22.2096,8.2522-37.9301-21.983-18.418-35.4235l.0002-.0001c17.1682-11.826,7.2252-38.7466-13.5084-36.5736h-.0003c-23.5642,2.4698-31.2715-30.7251-9.0299-38.8909l.0002-.0001c19.5699-7.1849,16.6341-35.7324-3.9885-38.7839h-.0003c-23.438-3.4681-22.6481-37.5368.9256-39.9148h.0002c20.7419-2.0923,24.9977-30.4731,5.7819-38.5574l-.0002-.0001c-21.8392-9.1879-12.6015-41.9899,10.8229-38.4306h.0002c20.6106,3.1317,31.7908-23.299,15.1891-35.908l-.0002-.0002c-18.8681-14.3304-1.7631-43.8046,20.0401-34.5317h.0003c19.1842,8.159,36.5862-14.661,23.6419-31.0026l-.0002-.0001c-14.7115-18.5726,9.186-42.8669,27.9983-28.4631l.0001.0002c16.5525,12.6735,39.0829-5.1019,30.6092-24.1491l-.0001-.0003c-9.6306-21.6476,19.558-39.2356,34.1971-20.6059l.0001.0002c12.8807,16.3918,39.1238,4.778,35.6532-15.7782v-.0003c-3.9445-23.3626,28.701-33.1391,38.2472-11.4541l.0001.0002c8.3995,19.0801,36.7064,14.3576,38.4569-6.416v-.0002c1.9896-23.6095,36.0408-24.9603,39.8942-1.5825v.0002c3.3906,20.5695,31.9827,23.035,38.8444,3.3495v-.0002c7.7985-22.3731,41.1158-15.2133,39.0344,8.3884v.0002c-1.8314,20.7666,25.2492,30.2651,36.791,12.9044l.0001-.0002c13.1174-19.7307,43.6074-4.5101,35.7219,17.8324l-.0001.0002c-6.9382,19.6587,16.9294,35.5935,32.4259,21.6486l.0002-.0002c17.6121-15.8487,43.359,6.4763,30.1649,26.1558l-.0001.0002c-11.6092,17.3156,7.5457,38.6854,26.0234,29.0324l.0002-.0001c21.0003-10.9708,40.3863,17.0557,22.7125,32.8358l-.0001.0001c-15.5507,13.8845-2.312,39.3466,17.9857,34.5921l.0003-.0001c23.0688-5.4035,34.8759,26.5636,13.8331,37.4526l-.0003.0001c-18.515,9.581-12.0244,37.5355,8.818,37.9782h.0003c23.6879.5031,27.1741,34.4023,4.0844,39.7161h-.0002c-20.3161,4.6755-20.9814,33.3659-.9038,38.978l.0002.0001c22.8186,6.3782,17.7649,40.0794-5.9209,39.484h-.0002c-20.8406-.5238-28.62,27.0998-10.5689,37.5287l.0002.0001c20.5155,11.8526,7.2394,43.2382-15.5541,36.7711l-.0003-.0001c-20.0555-5.6902-34.4602,19.1309-19.5698,33.7213l.0002.0001C1036.1787,687.1209,1015.5145,714.2188,995.0453,702.2864Z"/><circle cx="758.501" cy="496.798" r="290.685" fill="#f7c434"/><circle cx="758.501" cy="496.798" r="260.015" style="mix-blend-mode:soft-light" opacity=".45"/><circle cx="758.501" cy="496.798" r="260.015" style="mix-blend-mode:soft-light" opacity=".45"/><circle cx="758.501" cy="496.798" r="260.015" style="mix-blend-mode:soft-light" opacity=".45"/><circle cx="758.501" cy="496.798" r="260.015" style="mix-blend-mode:soft-light" opacity=".45"/><path fill="#f9a832" d="M801.1246,221.8042c1.7614,25.309-13.8608,39.9195-13.8608,39.9195.1041.6544-53.4909,11.0548-56.8016,11.7254l-.1559.0249c-3.2925.3804-57.561,7.1502-57.6651,6.4958,0,0-19.3875-9.0374-25.5404-33.6475-6.0324-24.0539,55.2238-124.7574,58.2382-129.6937.055-.0567.0475-.1035.0787-.1085l.0772.0837C709.8932,120.3602,799.3593,197.071,801.1246,221.8042Z"/><path d="M799.3894,239.9548c-3.8041,14.0232-12.1204,21.7681-12.1204,21.7681.1042.6543-53.4904,11.0547-56.8007,11.7253l-.1559.0248c-3.2929.3805-57.5614,7.1503-57.6656,6.4959,0,0-19.387-9.0375-25.54-33.6476-6.0328-24.0538,55.2238-124.7573,58.2383-129.6937.0549-.0567.0474-.1035.0786-.1084l.0773.0836c.8502.7272,4.8775,4.1592,10.8282,9.4415-10.1686,17.5762-30.2539,53.503-37.304,75.4224-7.9562,24.6516,83.5329,10.9506,115.4852,5.4328a46.94352,46.94352,0,0,1,5.8068,11.1996c-21.4687,1.357-107.6852,7.6537-115.9773,19.5638C676.6214,248.7631,765.614,242.6475,799.3894,239.9548Z" style="mix-blend-mode:soft-light" opacity=".45"/><path fill="#f9a832" d="M665.6168,372.8708l-54.5797-63.943s24.9634-30.5673,126.3145-44.2195,129.5793,7.874,129.5793,7.874l-25.1549,70.931Z"/><path d="M852.2902,313.8861l-10.5177,29.6345L665.6141,372.8864l-49.3489-57.8266a244.85162,244.85162,0,0,1,99.4286-31.7048l14.7161,32.7396S768.0413,297.0834,852.2902,313.8861Z" style="mix-blend-mode:soft-light" opacity=".45"/><path fill="#f9a832" d="M601.7453,434.9457s3.8729-89.6404,157.7423-110.367c153.8696-20.7265,183.2903,65.3673,183.2903,65.3673Z"/><path fill="#f9a832" d="M1021.9029,565.1792a374.93143,374.93143,0,0,1-3.3628,64.4268c-.3506,2.3487-.58,3.6137-.58,3.6137l-25.4363-35.0646-32.2451,8.9795L628.7761,699.5523l-3.9544,1.0998-35.6726-12.5058S463.1982,442.479,690.2822,369.7305a393.6235,393.6235,0,0,1,67.8783-14.847c94.4794-12.7266,155.7345,6.7064,195.1468,40.2889C1006.8731,440.7237,1020.2588,512.367,1021.9029,565.1792Z"/><path d="M1021.9029,565.1792a374.93143,374.93143,0,0,1-3.3628,64.4268l-16.3175-34.7254-41.9439,12.254L634.5274,702.3799l-5.7513-2.8276L598.848,684.8718S476.5569,446.3165,690.2822,369.7305a393.6235,393.6235,0,0,1,67.8783-14.847c94.4794-12.7266,155.7345,6.7064,195.1468,40.2889-67.3467-24.0493-181.2931-46.3912-286.5163,19.5488,0,0-39.3234,70.3381,38.8244,121.0836C705.6154,535.8048,891.837,428.3682,1021.9029,565.1792Z" style="mix-blend-mode:soft-light" opacity=".45"/><path fill="#b7765a" d="M646.6143,760.9899c-24.1787,13.3967-42.8079,9.8023-55.7569-1.395-25.0115-21.5134-28.742-71.2427-9.8909-81.3535l.0328-.0044c.3099-.1751.6241-.3176.9388-.4599,30.074-13.457,60.649,25.5851,60.649,25.5851S718.1872,721.3299,646.6143,760.9899Z"/><path d="M646.6143,760.9899c-24.1787,13.3967-42.8079,9.8023-55.7569-1.395,29.0474,15.5662,47.9836-13.9683,33.9537-10.4106-15.871,4.0057-53.4521-25.8877-44.7089-39.4732,6.0925-9.4927,26.9038-2.8235,38.9356,2.0599.0371.0284.0744.0568.1072.0523,5.1535,2.1075,8.6595,3.8699,8.6595,3.8699-10.545-28.2648-32.3968-35.7279-46.8052-37.4562.3099-.1751.6241-.3176.9388-.4599,30.074-13.457,60.649,25.5851,60.649,25.5851S718.1872,721.3299,646.6143,760.9899Z" style="mix-blend-mode:soft-light" opacity=".3"/><path fill="#995641" d="M647.9295,742.9855c-9.8296-10.4378-19.2839-19.6375-30.3122-26.2246a69.17,69.17,0,0,0-17.5336-7.6999c-6.2364-2.1406-12.8691-2.6309-20.0917-3.8289a42.48872,42.48872,0,0,1,21.4436-3.8507,46.62074,46.62074,0,0,1,21.2896,6.8827,56.47534,56.47534,0,0,1,16.2961,14.9825C643.2609,729.2064,646.6389,735.8003,647.9295,742.9855Z"/><path fill="#b7765a" d="M1017.3796,794.3043c-15.6589,15.9021-39.3066,30.07-74.2524,40.3466-49.614,14.5943-107.4838,25.0961-159.7737,22.1464-62.193-3.4377-116.4862-25.8961-139.8921-82.9639a146.00431,146.00431,0,0,1-6.6644-20.4946,199.15036,199.15036,0,0,1-5.1785-35.7367c-1.1703-21.4424.542-45.8238,5.601-73.5708,0,0,12.9542-47.1834,63.4027-85.7287,31.2386-23.8825,76.9323-44.403,142.831-48.2308,0,0,64.464-8.6835,158.3361,47.1679,0,0,.614,2.624,1.6362,7.1187,4.8539,20.5819,19.0588,79.6699,27.3279,99.3235a.653.653,0,0,0,.0924.2998C1038.3995,681.8059,1064.995,745.939,1017.3796,794.3043Z"/><circle cx="808.001" cy="642.701" r="36.672" transform="rotate(-71.198 808 642.701)" style="mix-blend-mode:soft-light" opacity=".3"/><circle cx="809.241" cy="651.907" r="24.254" fill="#1b1723" transform="rotate(-2.524 809.253 651.896)"/><path fill="#fff" d="M811.1551,642.9271a7.61158,7.61158,0,1,0,6.5273-8.5595A7.61155,7.61155,0,0,0,811.1551,642.9271Z"/><path fill="#fff" d="M807.3716,653.3734a3.85415,3.85415,0,1,0,3.3052-4.3341A3.85416,3.85416,0,0,0,807.3716,653.3734Z"/><circle cx="963.23" cy="623.795" r="27.809" transform="rotate(-26.065 963.23 623.795)" style="mix-blend-mode:soft-light" opacity=".3"/><circle cx="964.17" cy="630.775" r="18.392" fill="#1b1723" transform="rotate(-14.23 964.17 630.775)"/><path fill="#fff" d="M965.6217,623.9661a5.77186,5.77186,0,1,0,4.9498-6.4907A5.772,5.772,0,0,0,965.6217,623.9661Z"/><path fill="#fff" d="M962.7527,631.8876a2.92261,2.92261,0,1,0,2.5063-3.2866A2.9225,2.9225,0,0,0,962.7527,631.8876Z"/><path fill="#231c2d" d="M929.9362,625.1378c.4127-.4819.8484-.9826,1.3213-1.4366.6535-.7511,1.3488-1.4975,2.1042-2.216a68.57221,68.57221,0,0,1,5.8406-5.2423q1.53645-1.2864,3.1983-2.5587c3.2445-2.4058,6.6606-4.6446,10.1232-6.7304,21.3454-12.7053,44.8551-18.6666,44.8551-18.6666-2.8599-18.7308-29.6192-7.6619-29.6192-7.6619,6.1786-3.9167,19.0369-4.4729,19.8434-4.5102-13.7666-1.9094-25.0209-.3936-33.726,2.3131a61.81614,61.81614,0,0,0-15.0365,6.8606,50.987,50.987,0,0,0-6.2624,4.6676,18.0022,18.0022,0,0,0-1.6777,1.6085l-.2875,8.0977-2.2249-6.7721a20.04219,20.04219,0,0,0-2.1554,6.4754c-.0232.0186-.0046.0418-.0092.0835-1.2006,7.5741,1.5295,14.74,1.956,15.8432-5.8218-10.8881-4.3339-19.1481-4.3339-19.1481a15.39592,15.39592,0,0,0-1.145,2.7023C918.8905,610.9032,929.9362,625.1378,929.9362,625.1378Z"/><path fill="#322a3f" d="M942.4006,613.6842c3.2445-2.4058,6.6606-4.6446,10.1232-6.7304-3.7638-12.6867-1.4835-22.3791,1.3533-28.5256a61.81614,61.81614,0,0,0-15.0365,6.8606C935.1184,599.403,939.6334,609.3225,942.4006,613.6842Z"/><path fill="#322a3f" d="M933.3617,621.4852a68.57221,68.57221,0,0,1,5.8406-5.2423c-6.9622-11.4583-7.5926-20.4181-6.6241-26.2865a18.0022,18.0022,0,0,0-1.6777,1.6085l-.2875,8.0977-2.2249-6.7721a20.04219,20.04219,0,0,0-2.1554,6.4754c-.0232.0186-.0046.0418-.0092.0835A37.99228,37.99228,0,0,0,933.3617,621.4852Z"/><path fill="#322a3f" d="M929.9362,625.1378c.4127-.4819.8484-.9826,1.3213-1.4366-6.9856-10.4898-8.5246-19.255-8.5569-24.8544C918.8905,610.9032,929.9362,625.1378,929.9362,625.1378Z"/><path fill="#d33c3c" d="M891.7808,597.9784s-17.7804,4.7894-13.4341-30.5647c-.7794,18.1658,12.4927,15.0768,12.4927,15.0768,7.5423-.8075,10.5269-4.5408,11.0048-9.4978C905.1807,585.3995,904.4489,596.5842,891.7808,597.9784Z"/><path fill="#100e14" d="M959.9944,732.7066c.1729,17.0607,31.205,91.3901-56.1722,75.2444-50.3367,31.8166-63.3626-28.6988-70.2483-50.812a108.66438,108.66438,0,0,1-3.9358-18.2595c20.0824,11.6367,58.0127,19.0806,127.4227-5.1204C958.0342,733.4339,958.997,733.076,959.9944,732.7066Z"/><path fill="#fff" d="M957.0608,733.7591c1.2021,5.4489-1.3141,12.0317-8.913,20.06-41.0641,43.3334-95.0716,15.7645-114.5739,3.3199a108.66438,108.66438,0,0,1-3.9358-18.2595C849.7205,750.5162,887.6508,757.9601,957.0608,733.7591Z"/><path fill="#995641" d="M832.1632,734.5221c12.0451,7.3539,26.7217,10.6434,41.4596,11.4048,14.8122.7307,29.858-.8874,44.6674-3.6695a354.52717,354.52717,0,0,0,43.8807-11.6698c14.4151-4.7864,28.5926-10.3622,42.5868-16.3752-13.6421,6.7744-27.5131,13.1348-41.7273,18.7426a358.16982,358.16982,0,0,1-43.6635,14.2223c-14.9197,3.6586-30.2659,6.2057-45.926,6.3024-15.5776.0246-31.7723-2.4572-46.3284-10.2423Z"/><path fill="#231c2d" d="M849.328,641.9107c-.5116-.5697-1.0516-1.1617-1.6351-1.6961-.8099-.8879-1.6701-1.769-2.6021-2.6146a82.77839,82.77839,0,0,0-7.1968-6.1609q-1.8909-1.50885-3.9322-2.9972c-3.9836-2.8114-8.1696-5.4164-12.4072-7.8353-26.1192-14.7278-54.6593-21.2559-54.6593-21.2559,2.9206-22.685,35.527-10.0854,35.527-10.0854-7.5673-4.5515-23.1002-4.8584-24.0744-4.8806,16.5591-2.6942,30.1835-1.1838,40.7654,1.836a74.6233,74.6233,0,0,1,18.3402,7.8533,61.54363,61.54363,0,0,1,7.6896,5.4553,21.73937,21.73937,0,0,1,2.0702,1.8936l.5764,9.764,2.4931-8.2355a24.1917,24.1917,0,0,1,2.7844,7.7534c.0286.0217.0069.0503.0136.1005,1.6635,9.1062-1.4282,17.8313-1.9116,19.1747,6.7172-13.3045,4.6876-23.2304,4.6876-23.2304a18.58931,18.58931,0,0,1,1.4582,3.2286C862.2547,624.4197,849.328,641.9107,849.328,641.9107Z"/><path fill="#322a3f" d="M833.9618,628.4419c-3.9836-2.8114-8.1696-5.4164-12.4072-7.8353,4.1826-15.4168,1.1562-27.0488-2.4413-34.3859a74.6233,74.6233,0,0,1,18.3402,7.8533C842.3452,611.0013,837.1777,623.0999,833.9618,628.4419Z"/><path fill="#322a3f" d="M845.0908,637.6a82.77839,82.77839,0,0,0-7.1968-6.1609c8.0771-14.0249,8.5841-24.8554,7.2491-31.9098a21.73937,21.73937,0,0,1,2.0702,1.8936l.5764,9.764,2.4931-8.2355a24.1917,24.1917,0,0,1,2.7844,7.7534c.0286.0217.0069.0503.0136.1005A45.86173,45.86173,0,0,1,845.0908,637.6Z"/><path fill="#322a3f" d="M849.328,641.9107c-.5116-.5697-1.0516-1.1617-1.6351-1.6961,8.1329-12.8568,9.7417-23.4782,9.6221-30.2364C862.2547,624.4197,849.328,641.9107,849.328,641.9107Z"/><path d="M1012.9282,786.5275c-.826,1.5455-32.9036,57.3323-212.8111,68.0243-81.0041,4.8075-128.6561-34.9695-156.6292-80.6996a147.44964,147.44964,0,0,1-6.6665-20.5155c-7.1466-28.7894-7.6908-64.7723.3884-109.2882,0,0,12.9534-47.2069,63.4004-85.7224,31.2705-23.8912,76.9363-44.4182,142.8275-48.2576,0,0,64.5044-8.6888,158.3473,47.1472,0,0,.6242,2.6509,1.6631,7.1473-29.7384-16.2403-123.5941-59.2998-228.0804-23.5449-126.7483,43.3232-65.9233,295.2947,16.9802,297.9029C875.2472,841.2963,949.4628,830.6656,1012.9282,786.5275Z" style="mix-blend-mode:soft-light" opacity=".3"/><path fill="#f9a832" d="M875.8117,360.1248S721.9765,539.0003,891.8084,522.2424C891.8084,522.2424,1047.2987,518.1337,875.8117,360.1248Z"/><path d="M875.8117,360.1248S721.9765,539.0003,891.8084,522.2424C891.8084,522.2424,1047.2987,518.1337,875.8117,360.1248Z" style="mix-blend-mode:soft-light" opacity=".45"/><path d="M876.6366,374.8155S750.5412,521.4359,889.7487,507.6998C889.7487,507.6998,1017.2008,504.332,876.6366,374.8155Z" style="mix-blend-mode:soft-light" opacity=".45"/><path fill="#f9a832" d="M878.0687,400.3225s-77.9314,90.6167,8.1038,82.1273C886.1725,482.4498,964.9426,480.3684,878.0687,400.3225Z"/><path fill="#231c2d" d="M700.6102,558.3261c.6084,5.2549,1.146,12.2202,1.3054,20.3373a223.70547,223.70547,0,0,1-.7796,22.686c-.2479,2.8685-.5235,5.774-.9214,8.7628-2.5865,20.6613-8.6736,44.0622-21.3443,66.3819a152.503,152.503,0,0,1-30.528,38.0672s4.2744,59.4623,42.1748,55.3243c0,0-28.8331,14.257-53.6957-16.5489-4.4558-17.9783-6.3602-38.8018-5.15-62.7465.2012-4.6966.5487-9.5465,1.047-14.5168.4841-5.0684,1.0871-10.2528,1.8355-15.5902.6683-4.693,1.427-9.4649,2.3028-14.3525.1085-.6818.2162-1.3632.3531-2.0822C637.2098,644.0485,650.1632,596.8416,700.6102,558.3261Z"/><path fill="#322a3f" d="M700.2146,610.1122c-2.5865,20.6613-8.6736,44.0622-21.3443,66.3819-17.3252,7.5704-36.5152,13.4242-47.1989,14.0961.2012-4.6966.5487-9.5465,1.047-14.5168,1.9481-1.6299,4.2438-3.4067,6.9153-5.3675C673.2091,646.1038,691.1266,624.1112,700.2146,610.1122Z"/><path fill="#322a3f" d="M701.9156,578.6634a223.70547,223.70547,0,0,1-.7796,22.686c-14.6484,13.5804-47.3042,43.5287-66.5821,59.1338.6683-4.693,1.427-9.4649,2.3028-14.3525C672.9073,603.2506,693.0868,585.4228,701.9156,578.6634Z"/><circle cx="614.969" cy="773.013" r="19.059" fill="#f9a832" transform="rotate(-85.521 614.969 773.013)"/><circle cx="614.969" cy="773.013" r="19.059" transform="rotate(-85.521 614.969 773.013)" style="mix-blend-mode:soft-light" opacity=".45"/><circle cx="615" cy="773.243" r="14.888" transform="rotate(-56.732 615 773.243)" style="mix-blend-mode:soft-light" opacity=".45"/><path fill="#f9a832" d="M620.4971,763.7339c2.3528,3.0473.5602,8.3744-4.004,11.8985s-10.1717,3.9104-12.5245.8632-.5601-8.3745,4.0041-11.8985S618.1443,760.6866,620.4971,763.7339Z"/><path fill="#1b1723" d="M1044.8061,733.6164a95.03016,95.03016,0,0,1-2.5549,16.5834,91.2025,91.2025,0,0,1-10.2767,25.3269,100.19928,100.19928,0,0,1-14.5949,18.7776c-56.7877,1.1434-103.609-58.9641-103.609-58.9641-49.4655,71.7241-92.9496,107.874-130.4171,121.4571-62.193-3.4377-116.4862-25.8961-139.8921-82.9639a146.00431,146.00431,0,0,1-6.6644-20.4946,199.15036,199.15036,0,0,1-5.1785-35.7367l16.7158-3.0322c39.0503,116.7946,213.7459-.5294,213.7459-.5294l82.8437-8.2445c65.4773,27.0418,81.9821-13.4896,85.8295-42.1141a.653.653,0,0,0,.0924.2998,183.91212,183.91212,0,0,1,10.7501,32.2795A128.04454,128.04454,0,0,1,1044.8061,733.6164Z"/><ellipse cx="904.299" cy="693.049" fill="#cc8971" rx="55.201" ry="25.116" transform="rotate(-7.806 904.298 693.048)"/><path fill="#995641" d="M849.5238,699.7258c1.6353,5.4866,6.1281,8.5506,10.8723,10.4248a57.5608,57.5608,0,0,0,15.1098,3.5899,139.162,139.162,0,0,0,62.0852-8.5227,57.47753,57.47753,0,0,0,13.5816-7.5202c4.0665-3.0783,7.5651-7.2348,7.6713-12.959a13.0569,13.0569,0,0,1,.1457,8.6208,24.08057,24.08057,0,0,1-4.3716,7.7789,49.05682,49.05682,0,0,1-13.6006,11.018,84.61305,84.61305,0,0,1-15.8528,6.9216,101.73967,101.73967,0,0,1-33.9599,4.6406,84.30294,84.30294,0,0,1-17.1271-2.402,49.08832,49.08832,0,0,1-16.0598-6.9474,24.03722,24.03722,0,0,1-6.3065-6.3072A13.0596,13.0596,0,0,1,849.5238,699.7258Z"/><path fill="#322a3f" d="M861.8608,726.7317s-116.047,109.3195-194.1183,36.8832c0,0,21.7374,52.699,95.4692,34.9599,0,0-41.1869,27.506-88.0746-1.799,0,0,95.1452,126.7395,210.4679-45.9169,0,0-77.4872,76.7999-149.5252,70.8889C736.0798,821.7478,815.4336,802.2754,861.8608,726.7317Z"/><path fill="#322a3f" d="M969.4301,742.052c29.18,13.7661,54.6861,12.6205,72.8211,8.1478a91.2025,91.2025,0,0,1-10.2767,25.3269c-50.904,8.8865-97.931-41.9284-97.931-41.9284,54.5044,17.0691,84.5422-2.5917,84.5422-2.5917-47.4484,10.1908-71.471-10.88-72.8326-12.102,56.8754,18.8318,84.049-4.7113,95.8428-22.6434a128.04454,128.04454,0,0,1,3.2102,37.3552C1014.5266,751.4882,971.732,742.5228,969.4301,742.052Z"/><path fill="#212021" d="M2049.3453,756.2992a63.08833,63.08833,0,0,0,25.322,24.4066c4.5954,67.8312,57.7645,49.4613,86.9681,55.9356,29.5672,6.5902,64.3877-8.8331,64.3877-8.8331s27.3836,9.4987,93.1103-2.1753c65.7472-11.6776,53.6238-91.7664,53.6238-91.7664,14.6992-4.3901,23.6641-11.8351,28.7865-20.5719,11.4814-19.5869,3.5647-45.2795-1.8493-58.2462-2.2005-5.2514-3.9902-8.4696-3.9902-8.4696s11.214-3.4085,11.5999-36.5636c.0167-.4925.0039-1.0109-.0264-1.4982-.8785-23.6892-28.9554-40.8-42.2324-47.579-4.1938-2.1207-6.9459-3.2559-6.9459-3.2559-.082-1.5534-.1766-3.049-.3564-4.5059-1.3928-13.3356-5.904-22.3957-11.2462-28.5419a39.17738,39.17738,0,0,0-23.8256-13.1209s-170.7699,9.3116-212.6998,30.8455c-10.9584,5.6403-17.9806,11.8716-22.3682,18.0826a35.10307,35.10307,0,0,0-5.1727,30.8555,27.85615,27.85615,0,0,0,1.8163,4.7712,96.30153,96.30153,0,0,0-8.1841,6.084c-16.9894,14.1305-22.3587,29.4579-23.0636,42.2786a57.58188,57.58188,0,0,0,5.673,28.0594,147.18208,147.18208,0,0,0-7.0873,13.4232C2036.4994,718.1412,2040.6112,741.0272,2049.3453,756.2992Z"/><path fill="#353535" d="M2407.2777,608.5171c-.8785-23.6892-28.9554-40.8-42.2324-47.579-12.6885,14.7052-28.7213,38.3811-16.671,53.633C2364.8869,635.4657,2397.124,638.4141,2407.2777,608.5171Z"/><path fill="#353535" d="M2357.743,553.1763c-1.3928-13.3356-5.904-22.3957-11.2462-28.5419-7.897,7.3735-20.2537,20.8599-16.9031,30.3081C2332.7995,563.9569,2347.7384,558.2541,2357.743,553.1763Z"/><path fill="#353535" d="M2401.5437,713.2947c11.4814-19.5869,3.5647-45.2795-1.8493-58.2462-12.3169,1.7811-36.442,6.9919-52.2693,21.5972C2328.2848,694.3568,2350.8332,726.0903,2401.5437,713.2947Z"/><path fill="#353535" d="M2098.8189,587.2164c.9546-9.5559-4.9518-19.3086-11.2157-26.7748a35.10307,35.10307,0,0,0-5.1727,30.8555C2090.4991,595.0235,2097.9613,595.8973,2098.8189,587.2164Z"/><path fill="#353535" d="M2094.7741,653.2175c-5.0833-30.1414-12.69-44.3071-18.7114-51.0652-16.9894,14.1305-22.3587,29.4579-23.0636,42.2786C2071.3976,664.6875,2101.9487,695.7221,2094.7741,653.2175Z"/><path fill="#353535" d="M2049.3453,756.2992c31.6969.6429,64.5601-2.824,53.2107-31.1926-8.7028-21.7766-31.6106-33.357-50.9712-39.1931C2036.4994,718.1412,2040.6112,741.0272,2049.3453,756.2992Z"/><path fill="#d69467" d="M2358.7615,1514.434s-10.4392,22.3454-3.3795,44.6746,9.1008,18.3556,2.9466,39.4387-7.7732,55.9253,28.5649,59.3519,56.6261.3405,60.194-10.988-35.5448-38.3466-32.6941-59.7413,1.4633-33.1904-14.2444-52.169S2358.7615,1514.434,2358.7615,1514.434Z"/><path fill="#d69467" d="M2082.8588,1462.5874s-21.1102,91.3288-25.5511,94.2428-91.2637,48.8856-88.8947,59.1074,14.8348,10.5642,30.2455,6.185c0,0,20.2573,6.0763,48.5541-11.2525a300.8213,300.8213,0,0,0,34.92.7933c19.2285-.6864,22.0176-3.7563,26.8624-37.461a335.59979,335.59979,0,0,1,14.9253-61.0833Z"/><path fill="#f2890a" d="M2509.9651,1439.5356c-9.6982,67.4127-77.3415,131.0178-144.2082,98.0534-64.2277-31.6592-141.2991-204.3868-147.328-218.0337,5.1254,13.3484,65.1118,174.5381-8.463,226.6845-76.8141,54.3899-130.7936-62.3409-130.7936-62.3409-6.6941-159.2919-1.2749-266.703,7.6892-338.3041,13.8242-109.6743,36.0087-135.523,36.0087-135.523,17.5975-9.9889,176.251,22.9898,176.251,22.9898s7.3895,72.3403,34.0129,108.1885c2.1673,2.9116,4.5067,5.9476,6.9921,9.0479,27.6348,34.8221,71.4099,79.5243,88.1361,113.214C2446.4425,1300.2358,2519.6634,1372.1229,2509.9651,1439.5356Z"/><path d="M2215.2649,1206.2822c52.8432,233.8285,223.9611,224.9121,294.9979,210.3243-2.0653-19.636-9.8016-39.2719-19.8326-57.9574-239.8601,95.0331-273.3296-180.952-273.3296-180.952,63.0382,151.3181,172.3962,124.3064,221.273,102.6381a152.57762,152.57762,0,0,1-10.0966-16.8168c-1.5734-3.1801-3.4092-6.491-5.4416-9.8343-158.4316,34.0597-208.4885-113.7838-208.4885-113.7838,53.2694,62.4483,115.8488,54.1545,151.9081,41.5339-9.3427-10.8504-18.3576-21.373-26.1267-31.1421-2.4914-3.0817-4.8188-6.1301-6.9824-9.0477-26.6511-35.83-34.0269-108.1779-34.0269-108.1779s-158.6609-32.9777-176.2643-22.9793c0,0-22.1601,25.8312-35.9939,135.517-1.7702,14.1617-3.4092,29.7655-4.8188,46.8772,12.5225-23.078,31.6994-50.1554,59.4651-70.0862,0,0-25.1759,125.8142-65.2674,210.652q-.1473,22.619.0984,47.3363c24.8154-34.0598,54.4824-97.8194,67.0048-197.1462,0,0,61.1042,279.7218-62.1532,304.7338,10.4572,20.1277,60.6452,106.5061,128.7646,58.2851,72.8725-51.6304,14.7516-210.193,8.6541-226.2887,7.2775,16.4891,83.5266,186.2626,147.1548,217.6344,40.6488,20.0293,81.5925,4.3602,109.6532-26.1265C2231.5898,1526.4235,2215.2649,1206.2822,2215.2649,1206.2822Zm-100.5073,289.4909s116.1438-9.2117,54.4497-227.6652C2171.7313,1273.1563,2307.511,1546.9117,2114.7576,1495.7731Z" style="mix-blend-mode:soft-light" opacity=".3"/><path fill="#efae0c" d="M2340.1262,1150.298c-92.434,29.2996-164.8681-58.6446-164.8681-58.6446-41.8967,9.4344-72.4187,36.5163-88.3966,53.9414,13.8242-109.6743,36.0087-135.523,36.0087-135.523,17.5975-9.9889,176.251,22.9898,176.251,22.9898s7.3895,72.3403,34.0129,108.1885C2335.3014,1144.1617,2337.6408,1147.1977,2340.1262,1150.298Z"/><path fill="#efae0c" d="M2218.0762,1318.6946s-94.1728-153.6357-58.8269-274.1014l71.9255.3876S2178.0054,1175.2902,2218.0762,1318.6946Z"/><path fill="#7c5335" d="M1666.4778,126.1484c22.5365-11.039,49.5807-6.2029,68.4534,10.3372,23.7174,20.786,54.1685,64.0455,30.233,139.6556-36.4402,115.1109-196.0502,193.4903-75.3677,458.3786l-4.9254,72.4458-1.4229,55.281s-44.8935,77.917,4.5253,177.6888,209.1916,208.1456,145.2462,318.8036-131.0494,21.7742-112.7814-5.2314,43.0128-9.9721,43.0128-9.9721,8.1692,29.1145-13.8712,32.9284c0,0,43.2481,15.3972,64.083-50.7094s-379.9502-299.6253-168.0739-484.474l4.7255-130.6674s-223.9905-138.9388,77.3392-438.5182c0,0,30.7472-42.693,14.76-89.3816s-57.7328-50.5038-79.4963-22.4718c0,0,9.3718,6.4869,6.7778,14.4624s-29.5954,10.8416-28.6655-14.8697C1641.5333,145.9072,1651.5668,133.4522,1666.4778,126.1484Z"/><path d="M1833.2327,1358.7475c-56.4491,97.6553-115.357,39.8949-115.8486,6.3926,13.1453,1.6719,27.405,1.3113,36.8788-4.8843,10.326-6.7531,7.8674-14.1289,2.5897-19.9309a31.83431,31.83431,0,0,1,6.589,3.2125s8.1625,29.1093-13.8664,32.9121c0,0,43.2384,15.4074,64.0872-50.6796a19.31592,19.31592,0,0,0,.5901-8.4246c33.4697-48.025-105.0637-166.8568-165.0861-259.4961-62.6776-96.8029,2.7536-166.8891,1.8358-185.3121-.459-9.1133-8.7199-15.8989-16.9807-20.5211q5.458-5.3595,11.5717-10.7195L1663,844.8695V712.1057l-12.6863-1.5078a122.09006,122.09006,0,0,1-11.4406-8.4903c-.1967-38.5178-63.3661-197.6703,19.5048-297.9483,92.2135-111.5545,131.1576-210.193,83.002-249.6288-48.1884-39.4027-68.9389-4.3598-68.9389-4.3598s.0984.1641.2623.4914a49.99451,49.99451,0,0,0-9.8016,9.5727s9.3754,6.4906,6.7858,14.4562c-.9836,3.0156-5.3762,5.2778-10.4246,5.6055,5.6056-4.7203,8.5232-9.6375,3.7371-13.309-8.392-6.4254-16.0627-1.2129-20.4226,3.2125a24.93224,24.93224,0,0,1-1.5409-10.359c.4919-13.932,10.5229-26.389,25.4383-33.6991,22.5534-11.0469,49.598-6.1953,68.4472,10.3589,23.7335,20.7832,54.1873,64.0218,30.2571,139.6478-36.4529,115.0952-196.0645,193.4747-75.3968,458.3797l-4.9171,72.4464-1.4098,55.269s-44.91,77.921,4.5238,177.7067C1737.3805,1139.7038,1897.156,1248.0782,1833.2327,1358.7475Z" style="mix-blend-mode:soft-light" opacity=".3"/><path fill="#d69467" d="M2165.3258,707.5278s-48.2972-3.2837-91.0095,9.0048-127.3597,15.3753-127.3597,15.3753-103.3909-9.8871-206.6069,17.8889c0,0-61.469-32.1947-71.9135-30.2669s-28.2179,25.8773-27.7557,34.3476,20.0939-3.1159,29.29-2.3991,12.8394,6.2282,12.8394,6.2282l2.0612,49.259s27.4129-3.6197,48.0432-10.9429c0,0,197.331,36.7238,349.5283,14.5616,0,0,10.4482,51.0993,20.1288,102.1709s8.0056,118.6396,8.0056,118.6396,82.3533,39.0981,189.379,12.2283c0,0,29.0276-58.8938,91.6975-198.0327,0,0,154.9898-14.3761,185.1638-62.4693s-4.5205-66.2551-170.9202-97.6336c0,0-33.4118-5.8193-44.612-14.8701-11.2004-9.0507-29.2666-19.5025-37.9218-19.2391s-35.592,11.9695-37.4022,14.2096-1.4635,8.5928-1.4635,8.5928-3.2008,8.8181-2.4518,12.0153-2.3374,8.8493-.1494,12.0986a22.77024,22.77024,0,0,0,5.2811,5.3784s-1.349,5.4268-.0036,8.0692c0,0,4.0855-70.5315-14.3861-93.6783s-82.4053,52.7132-83.3,53.5454-16.8425,11.4949-17.1616,12.3479S2165.3258,707.5278,2165.3258,707.5278Z"/><path d="M2085.8774,749.6076l-3.442,60.9729c-152.2031,22.1601-349.5131-14.5546-349.5131-14.5546-20.6521,7.3101-48.0571,10.9488-48.0571,10.9488L1682.8,757.7045s-3.6389-5.5075-12.8176-6.2286c-9.2115-.7211-28.8474,10.8836-29.3064,2.393-.459-8.4574,17.3086-32.4202,27.7658-34.3546,10.4244-1.9012,71.9219,30.2897,71.9219,30.2897,6.0317,46.9101,86.1161,14.5551,189.3769,19.4723S2085.8774,749.6076,2085.8774,749.6076Z" style="mix-blend-mode:soft-light" opacity=".3"/><path d="M2571.6291,732.1682c.8195,16.3249-11.1127,36.0593-83.4608,23.7335-87.952-14.9484-106.1455-61.9237-109.7516-77.1998a77.46746,77.46746,0,0,1-13.2763-5.5399c-3.1469,20.0617-9.2771,39.1406-21.734,38.0261-15.0464-1.3442-15.6693-32.3222-13.5712-57.8917l2.3273-.0328c-.7867-.2949-1.5406-.5242-2.2619-.7539a20.26611,20.26611,0,0,0-6.5234-1.1473,43.15722,43.15722,0,0,0-9.2444,2.0324c-.131.0328-.2622.0985-.3933.1313,10.7849,51.532-8.851,56.1866-15.9644,53.4988-5.3106-1.9668-7.5069-28.6836-8.3264-43.5988a15.86657,15.86657,0,0,0-3.4748,2.1633c-1.8357,2.2288-1.4752,8.5886-1.4752,8.5886s-3.2127,8.8183-2.4585,12.0309c.7538,3.1796-2.3276,8.8507-.1313,12.096a22.34314,22.34314,0,0,0,5.2779,5.3762s-1.3442,5.409,0,8.0645c0,0-28.2248-.7215-46.7132-23.8976-18.4558-23.1438-50.0897-17.0789-50.9749-16.2266-.9178.8195-16.8494,11.4734-17.1773,12.3253-.3278.8524-6.9825,23.5699-6.9825,23.5699a311.03063,311.03063,0,0,0-34.5841.1313c9.9,32.289,50.3847,110.7674,208.3573,96.0487,0,0-60.8419,272.6413-228.4521,208.357.0984,11.8672-.0983,19.3414-.0983,19.3414s82.3792,39.1077,189.4096,12.2273c0,0,29.0115-58.9081,91.6891-198.0313,0,0,154.9895-14.391,185.1482-62.4811C2590.4782,761.3103,2590.839,745.6736,2571.6291,732.1682ZM2389.038,814.4489c-15.6695-11.0801,11.5389-54.3839,11.5389-54.3839s37.3378,26.7163,85.2639,37.7964C2533.7996,808.9086,2404.7073,825.4961,2389.038,814.4489Z" style="mix-blend-mode:soft-light" opacity=".3"/><path fill="#7c5335" d="M2287.174,711.7424a37.44762,37.44762,0,0,0,6.596,6.6961,20.05278,20.05278,0,0,0,8.0705,4.1728c5.9557,1.2995,12.3535.9344,18.4162.2159l-1.3941,1.121,1.4963-4.8797.965-3.1485,2.1862,2.6956a24.72972,24.72972,0,0,0,10.7878,7.4452,24.99439,24.99439,0,0,0,13.1627.6573c9.4319-1.753,18.8794-3.3113,28.3194-4.8955l1.4146-.2376,1.1387.9555a342.7381,342.7381,0,0,0,37.8112,27.5267,292.30813,292.30813,0,0,0,41.2628,21.9775c14.3266,6.0505,29.2048,11.035,44.6395,13.2056a136.6457,136.6457,0,0,0,23.3116,1.2749,116.09888,116.09888,0,0,0,23.2252-3.6566,101.8649,101.8649,0,0,1-46.9747,6.1458,166.59764,166.59764,0,0,1-46.4279-11.5635c-14.9055-5.8183-28.9944-13.4556-42.5248-21.8584a298.32184,298.32184,0,0,1-38.3282-28.6027l2.5513.7178c-9.592,1.3669-19.1771,2.7597-28.7765,3.9576a29.652,29.652,0,0,1-15.297-1.5984,28.40686,28.40686,0,0,1-12.2195-9.4182l3.1499-.4523-1.7353,4.7994-.3902,1.0801-1.0053.0416c-6.4822.271-12.9461.113-19.2553-1.7796a21.47781,21.47781,0,0,1-8.255-5.1249A37.82487,37.82487,0,0,1,2287.174,711.7424Z"/><path fill="#7c5335" d="M2287.1774,703.6727a91.16362,91.16362,0,0,1,13.4447-4.986,115.58308,115.58308,0,0,1,13.9193-3.0933l.3636-.0538.1403.0381a65.64058,65.64058,0,0,1,8.0821,2.6997,65.66913,65.66913,0,0,1-8.5125-.3732l.5019-.0157a115.60854,115.60854,0,0,1-13.7327,3.8391A91.06975,91.06975,0,0,1,2287.1774,703.6727Z"/><path fill="#7c5335" d="M2282.2534,688.1358a107.545,107.545,0,0,1,14.5159-5.3503,140.96238,140.96238,0,0,1,14.9893-3.5142l.3494-.0592.1505.0367a80.769,80.769,0,0,1,9.3324,2.7406,80.756,80.756,0,0,1-9.7207-.3323l.4972-.0232a140.74213,140.74213,0,0,1-14.8203,4.1694A107.48733,107.48733,0,0,1,2282.2534,688.1358Z"/><path fill="#7c5335" d="M2320.9759,666.9307a85.41421,85.41421,0,0,1-10.5277.7382l.4706-.0558a132.82155,132.82155,0,0,1-12.9651,4.0958,90.83357,90.83357,0,0,1-13.4562,2.4716,91.01525,91.01525,0,0,1,12.5729-5.3933,133.00481,133.00481,0,0,1,13.0639-3.7682l.333-.077.1396.0211A85.29006,85.29006,0,0,1,2320.9759,666.9307Z"/><path fill="#7c5335" d="M2322.0479,719.6317a28.28109,28.28109,0,0,1-1.9485-4.1598c-.5244-1.4152-1.1067-2.8176-1.499-4.2627l1.6679,1.1448a59.85054,59.85054,0,0,1-8.4552,1.2021,43.55873,43.55873,0,0,1-8.6617-.22,43.56641,43.56641,0,0,1,8.2401-2.6779,59.85957,59.85957,0,0,1,8.447-1.2565l1.437-.1138.233,1.2593c.2717,1.4724.3542,2.9884.4945,4.4909A28.29049,28.29049,0,0,1,2322.0479,719.6317Z"/><circle cx="2009.931" cy="729.961" r="10.008" fill="#b25734"/><path d="M2009.9352,719.9482a10.01431,10.01431,0,1,0,9.9974,10.0143A10.02293,10.02293,0,0,0,2009.9352,719.9482Zm.7456,10.404c-2.8297,1.4911-5.9984,2.8468-7.4725.017a5.78679,5.78679,0,1,1,10.2515-5.3716C2014.9339,727.8274,2013.5105,728.8611,2010.6808,730.3522Z" style="mix-blend-mode:soft-light" opacity=".56"/><circle cx="2022.178" cy="743.806" r="10.008" fill="#b25734" transform="rotate(-22.5 2022.178 743.806)"/><path d="M2022.1826,733.7931a10.01431,10.01431,0,1,0,9.9974,10.0143A10.02293,10.02293,0,0,0,2022.1826,733.7931Zm.7456,10.404c-2.8297,1.4911-5.9984,2.8467-7.4725.0169a5.78676,5.78676,0,1,1,10.2515-5.3715C2027.1813,741.6723,2025.7579,742.7059,2022.9282,744.1971Z" style="mix-blend-mode:soft-light" opacity=".56"/><circle cx="2025.373" cy="761.911" r="10.008" fill="#b25734"/><path d="M2025.3776,751.898a10.01431,10.01431,0,1,0,9.9974,10.0142A10.02284,10.02284,0,0,0,2025.3776,751.898Zm.7456,10.404c-2.8297,1.4911-5.9984,2.8467-7.4725.0169a5.78672,5.78672,0,1,1,10.2514-5.3715C2030.3763,759.7772,2028.9529,760.8108,2026.1232,762.302Z" style="mix-blend-mode:soft-light" opacity=".56"/><circle cx="2023.243" cy="781.613" r="10.008" fill="#b25734" transform="rotate(-76.717 2023.243 781.613)"/><path d="M2023.2477,771.6003a10.01431,10.01431,0,1,0,9.9973,10.0143A10.023,10.023,0,0,0,2023.2477,771.6003Zm.7455,10.404c-2.8297,1.4911-5.9983,2.8468-7.4725.017a5.78674,5.78674,0,1,1,10.2514-5.3716C2028.2463,779.4795,2026.8229,780.5132,2023.9932,782.0043Z" style="mix-blend-mode:soft-light" opacity=".56"/><circle cx="2018.983" cy="800.25" r="10.008" fill="#b25734"/><path d="M2018.9877,790.2376a10.01436,10.01436,0,1,0,9.9973,10.0144A10.023,10.023,0,0,0,2018.9877,790.2376Zm.7455,10.404c-2.8297,1.4912-5.9983,2.8468-7.4725.017a5.78676,5.78676,0,1,1,10.2515-5.3715C2023.9863,798.117,2022.563,799.1505,2019.7332,800.6416Z" style="mix-blend-mode:soft-light" opacity=".56"/><circle cx="2012.061" cy="815.16" r="10.008" fill="#b25734"/><path d="M2012.0652,805.1475a10.01436,10.01436,0,1,0,9.9974,10.0144A10.023,10.023,0,0,0,2012.0652,805.1475Zm.7456,10.404c-2.8297,1.4912-5.9984,2.8468-7.4726.017a5.78676,5.78676,0,1,1,10.2515-5.3715C2017.0639,813.0269,2015.6405,814.0604,2012.8108,815.5515Z" style="mix-blend-mode:soft-light" opacity=".56"/><circle cx="1733.56" cy="741.684" r="7.254" fill="#b25734"/><path d="M1733.5631,734.4266a7.25861,7.25861,0,1,0,7.2462,7.2586A7.26488,7.26488,0,0,0,1733.5631,734.4266Zm.5404,7.5411c-2.0511,1.0808-4.3478,2.0634-5.4163.0123a4.19437,4.19437,0,1,1,7.4305-3.8934C1737.1862,740.1377,1736.1545,740.8869,1734.1035,741.9677Z" style="mix-blend-mode:soft-light" opacity=".56"/><circle cx="1742.437" cy="751.719" r="7.254" fill="#b25734" transform="rotate(-80.782 1742.437 751.72)"/><path d="M1742.4401,744.4617a7.25856,7.25856,0,1,0,7.2463,7.2585A7.26477,7.26477,0,0,0,1742.4401,744.4617Zm.5405,7.541c-2.0511,1.0808-4.3478,2.0634-5.4163.0123a4.19437,4.19437,0,1,1,7.4305-3.8934C1746.0633,750.1727,1745.0316,750.9219,1742.9806,752.0027Z" style="mix-blend-mode:soft-light" opacity=".56"/><circle cx="1744.753" cy="764.842" r="7.254" fill="#b25734"/><path d="M1744.7559,757.5844a7.25856,7.25856,0,1,0,7.2463,7.2585A7.26477,7.26477,0,0,0,1744.7559,757.5844Zm.5404,7.541c-2.051,1.0808-4.3477,2.0634-5.4162.0123a4.19433,4.19433,0,1,1,7.4304-3.8934C1748.379,763.2954,1747.3474,764.0446,1745.2963,765.1254Z" style="mix-blend-mode:soft-light" opacity=".56"/><circle cx="1743.209" cy="779.122" r="7.254" fill="#b25734"/><path d="M1743.2121,771.865a7.25856,7.25856,0,1,0,7.2462,7.2585A7.26479,7.26479,0,0,0,1743.2121,771.865Zm.5404,7.541c-2.0511,1.0808-4.3477,2.0634-5.4163.0123a4.19437,4.19437,0,1,1,7.4305-3.8934C1746.8352,777.576,1745.8035,778.3252,1743.7525,779.406Z" style="mix-blend-mode:soft-light" opacity=".56"/><path fill="#b25734" d="M1747.375,792.631a7.2539,7.2539,0,1,1-7.2538-7.2539A7.25384,7.25384,0,0,1,1747.375,792.631Z"/><path d="M1740.1244,785.3737a7.25856,7.25856,0,1,0,7.2462,7.2585A7.26479,7.26479,0,0,0,1740.1244,785.3737Zm.5404,7.541c-2.051,1.0808-4.3477,2.0633-5.4162.0123a4.19433,4.19433,0,1,1,7.4304-3.8934C1743.7475,791.0847,1742.7158,791.8339,1740.6648,792.9147Z" style="mix-blend-mode:soft-light" opacity=".56"/><circle cx="1735.104" cy="803.438" r="7.254" fill="#b25734" transform="rotate(-76.718 1735.104 803.438)"/><path d="M1735.1069,796.1806a7.25856,7.25856,0,1,0,7.2462,7.2585A7.26479,7.26479,0,0,0,1735.1069,796.1806Zm.5404,7.541c-2.051,1.0808-4.3477,2.0634-5.4162.0123a4.19433,4.19433,0,1,1,7.4304-3.8934C1738.73,801.8916,1737.6983,802.6408,1735.6473,803.7216Z" style="mix-blend-mode:soft-light" opacity=".56"/><circle cx="2375.097" cy="670.225" r="7.254" fill="#b25734"/><path d="M2375.0999,662.9673a7.25856,7.25856,0,1,0,7.2463,7.2586A7.26482,7.26482,0,0,0,2375.0999,662.9673Zm.5404,7.541c-2.051,1.0808-4.3477,2.0635-5.4162.0123a4.19433,4.19433,0,1,1,7.4304-3.8934C2378.723,668.6784,2377.6913,669.4275,2375.6403,670.5083Z" style="mix-blend-mode:soft-light" opacity=".56"/><circle cx="2383.974" cy="680.26" r="7.254" fill="#b25734"/><path d="M2383.977,673.0023a7.25861,7.25861,0,1,0,7.2463,7.2586A7.26486,7.26486,0,0,0,2383.977,673.0023Zm.5404,7.541c-2.051,1.0809-4.3477,2.0634-5.4162.0124a4.19433,4.19433,0,1,1,7.4304-3.8934C2387.6001,678.7134,2386.5684,679.4625,2384.5174,680.5433Z" style="mix-blend-mode:soft-light" opacity=".56"/><circle cx="2386.289" cy="693.382" r="7.254" fill="#b25734"/><path d="M2386.2928,686.1251a7.25851,7.25851,0,1,0,7.2462,7.2585A7.26473,7.26473,0,0,0,2386.2928,686.1251Zm.5404,7.5409c-2.0511,1.0808-4.3478,2.0635-5.4163.0123a4.19435,4.19435,0,1,1,7.4305-3.8933C2389.9159,691.8361,2388.8842,692.5853,2386.8332,693.666Z" style="mix-blend-mode:soft-light" opacity=".56"/><circle cx="2384.746" cy="707.663" r="7.254" fill="#b25734"/><path d="M2384.7489,700.4056a7.25856,7.25856,0,1,0,7.2463,7.2586A7.26488,7.26488,0,0,0,2384.7489,700.4056Zm.5404,7.541c-2.051,1.0808-4.3477,2.0635-5.4162.0123a4.1943,4.1943,0,1,1,7.4304-3.8933C2388.372,706.1167,2387.3403,706.8658,2385.2893,707.9466Z" style="mix-blend-mode:soft-light" opacity=".56"/><circle cx="2381.658" cy="721.172" r="7.254" fill="#b25734" transform="rotate(-80.782 2381.658 721.172)"/><path d="M2381.6612,713.9143a7.25856,7.25856,0,1,0,7.2463,7.2586A7.26479,7.26479,0,0,0,2381.6612,713.9143Zm.5404,7.541c-2.051,1.0808-4.3477,2.0634-5.4162.0123a4.19435,4.19435,0,1,1,7.4305-3.8933C2385.2844,719.6253,2384.2527,720.3745,2382.2016,721.4553Z" style="mix-blend-mode:soft-light" opacity=".56"/><circle cx="2376.64" cy="731.979" r="7.254" fill="#b25734"/><path d="M2376.6437,724.7212a7.25861,7.25861,0,1,0,7.2463,7.2586A7.26488,7.26488,0,0,0,2376.6437,724.7212Zm.5404,7.541c-2.051,1.0809-4.3477,2.0634-5.4162.0124a4.19433,4.19433,0,1,1,7.4304-3.8934C2380.2668,730.4323,2379.2351,731.1814,2377.1841,732.2622Z" style="mix-blend-mode:soft-light" opacity=".56"/><ellipse cx="2148.519" cy="724.115" fill="#b25734" rx="10.984" ry="13.442"/><path d="M2148.5243,710.6662c-6.0625,0-10.9906,6.0312-10.9906,13.4506,0,7.419,4.9281,13.4505,10.9906,13.4505s10.972-6.0315,10.972-13.4505C2159.4963,716.6974,2154.5868,710.6662,2148.5243,710.6662Zm.8182,13.974c-3.1055,2.0027-6.5831,3.8235-8.201.0227-1.6365-3.8008-.4463-8.4892,2.6593-10.4917,3.1056-2.0028,6.9551-.5462,8.5916,3.2771C2154.0103,721.2491,2152.4481,722.6374,2149.3425,724.6402Z" style="mix-blend-mode:soft-light" opacity=".56"/><ellipse cx="2149.299" cy="703.135" fill="#b25734" rx="10.984" ry="13.442"/><path d="M2149.3035,689.6867c-6.0625,0-10.9906,6.0311-10.9906,13.4505,0,7.4192,4.9281,13.4505,10.9906,13.4505s10.972-6.0313,10.972-13.4505C2160.2755,695.7178,2155.366,689.6867,2149.3035,689.6867Zm.8183,13.9739c-3.1056,2.0029-6.5832,3.8236-8.2011.0228-1.6365-3.8008-.4463-8.4892,2.6593-10.4917,3.1056-2.0028,6.9551-.5462,8.5916,3.2771C2154.7895,700.2696,2153.2273,701.6579,2150.1218,703.6606Z" style="mix-blend-mode:soft-light" opacity=".56"/><ellipse cx="2150.988" cy="749.716" fill="#b25734" rx="10.984" ry="13.442"/><path d="M2150.9924,736.2673c-6.0625,0-10.9905,6.0311-10.9905,13.4505,0,7.4191,4.928,13.4505,10.9905,13.4505s10.9721-6.0314,10.9721-13.4505C2161.9645,742.2984,2157.0549,736.2673,2150.9924,736.2673Zm.8183,13.9739c-3.1056,2.0027-6.5832,3.8236-8.2011.0228-1.6365-3.8008-.4463-8.4893,2.6593-10.4918,3.1056-2.0028,6.9551-.5462,8.5917,3.2771C2156.4784,746.8501,2154.9163,748.2384,2151.8107,750.2412Z" style="mix-blend-mode:soft-light" opacity=".56"/><ellipse cx="2156.052" cy="775.94" fill="#b25734" rx="10.984" ry="13.442"/><path d="M2156.0573,762.4916c-6.0625,0-10.9905,6.0312-10.9905,13.4505s4.928,13.4506,10.9905,13.4506,10.9721-6.0314,10.9721-13.4506S2162.1198,762.4916,2156.0573,762.4916Zm.8182,13.9739c-3.1055,2.0029-6.5831,3.8237-8.201.0228-1.6365-3.8008-.4463-8.4892,2.6593-10.4917,3.1056-2.0028,6.9551-.5462,8.5916,3.2771C2161.5434,773.0745,2159.9812,774.4628,2156.8755,776.4655Z" style="mix-blend-mode:soft-light" opacity=".56"/><ellipse cx="2163.455" cy="799.303" fill="#b25734" rx="10.984" ry="13.442"/><path d="M2163.4598,785.8551c-6.0624,0-10.9905,6.0312-10.9905,13.4506,0,7.4191,4.9281,13.4505,10.9905,13.4505,6.0626,0,10.9721-6.0314,10.9721-13.4505C2174.4319,791.8863,2169.5224,785.8551,2163.4598,785.8551Zm.8183,13.974c-3.1056,2.0028-6.5831,3.8236-8.2011.0228-1.6365-3.8009-.4462-8.4893,2.6594-10.4918,3.1055-2.0028,6.9551-.5462,8.5916,3.2772C2168.9459,796.4381,2167.3837,797.8263,2164.2781,799.8291Z" style="mix-blend-mode:soft-light" opacity=".56"/><ellipse cx="2172.806" cy="821.713" fill="#b25734" rx="10.984" ry="13.442"/><path d="M2172.8105,808.2651c-6.0626,0-10.9906,6.0311-10.9906,13.4505,0,7.4191,4.928,13.4505,10.9906,13.4505s10.972-6.0314,10.972-13.4505C2183.7825,814.2962,2178.873,808.2651,2172.8105,808.2651Zm.8182,13.9739c-3.1056,2.0028-6.5832,3.8236-8.201.0228-1.6365-3.8008-.4464-8.4893,2.6592-10.4918,3.1056-2.0028,6.9551-.5461,8.5917,3.2772C2178.2965,818.848,2176.7343,820.2362,2173.6287,822.239Z" style="mix-blend-mode:soft-light" opacity=".56"/><ellipse cx="2186.831" cy="841.739" fill="#b25734" rx="10.984" ry="13.442"/><path d="M2186.8363,828.291c-6.0625,0-10.9905,6.0311-10.9905,13.4505,0,7.4191,4.928,13.4505,10.9905,13.4505s10.9721-6.0314,10.9721-13.4505C2197.8084,834.3221,2192.8988,828.291,2186.8363,828.291Zm.8182,13.9739c-3.1055,2.0028-6.5831,3.8236-8.201.0228-1.6365-3.8008-.4463-8.4893,2.6593-10.4918,3.1056-2.0028,6.9551-.5462,8.5916,3.2771C2192.3224,838.8739,2190.7602,840.2621,2187.6545,842.2649Z" style="mix-blend-mode:soft-light" opacity=".56"/><ellipse cx="2206.701" cy="849.845" fill="#b25734" rx="10.984" ry="13.442"/><path d="M2206.7063,836.3967c-6.0625,0-10.9906,6.0311-10.9906,13.4505,0,7.4191,4.9281,13.4505,10.9906,13.4505s10.972-6.0314,10.972-13.4505C2217.6783,842.4278,2212.7688,836.3967,2206.7063,836.3967Zm.8183,13.9739c-3.1056,2.0028-6.5832,3.8236-8.2011.0228-1.6365-3.8008-.4463-8.4892,2.6593-10.4918s6.9551-.5462,8.5916,3.2771C2212.1923,846.9796,2210.6301,848.3678,2207.5246,850.3706Z" style="mix-blend-mode:soft-light" opacity=".56"/><ellipse cx="2229.299" cy="843.646" fill="#b25734" rx="10.984" ry="13.442"/><path d="M2229.3036,830.1982c-6.0626,0-10.9906,6.0311-10.9906,13.4505,0,7.4191,4.928,13.4506,10.9906,13.4506s10.972-6.0315,10.972-13.4506C2240.2756,836.2293,2235.3661,830.1982,2229.3036,830.1982Zm.8182,13.9739c-3.1056,2.0028-6.5832,3.8236-8.2011.0228-1.6365-3.8008-.4463-8.4892,2.6594-10.4918s6.9551-.5462,8.5916,3.2771C2234.7896,840.7811,2233.2274,842.1694,2230.1218,844.1721Z" style="mix-blend-mode:soft-light" opacity=".56"/><ellipse cx="2244.883" cy="825.528" fill="#b25734" rx="10.984" ry="13.442"/><path d="M2244.8879,812.0796c-6.0626,0-10.9906,6.031-10.9906,13.4505,0,7.419,4.928,13.4505,10.9906,13.4505s10.972-6.0315,10.972-13.4505C2255.8599,818.1106,2250.9504,812.0796,2244.8879,812.0796Zm.8182,13.9739c-3.1056,2.0028-6.5832,3.8235-8.201.0227-1.6366-3.8008-.4464-8.4892,2.6593-10.4917,3.1056-2.0028,6.9551-.5462,8.5916,3.2771C2250.3739,822.6624,2248.8117,824.0507,2245.7061,826.0535Z" style="mix-blend-mode:soft-light" opacity=".56"/><ellipse cx="2253.065" cy="803.595" fill="#b25734" rx="10.984" ry="13.442"/><path d="M2253.0696,790.1464c-6.0625,0-10.9905,6.0312-10.9905,13.4505s4.928,13.4506,10.9905,13.4506,10.972-6.0314,10.972-13.4506S2259.1321,790.1464,2253.0696,790.1464Zm.8183,13.9739c-3.1056,2.0028-6.5832,3.8237-8.2011.0229-1.6365-3.8009-.4463-8.4893,2.6593-10.4919s6.9551-.5461,8.5916,3.2772C2258.5556,800.7293,2256.9935,802.1176,2253.8879,804.1203Z" style="mix-blend-mode:soft-light" opacity=".56"/><ellipse cx="2258.13" cy="777.847" fill="#b25734" rx="10.984" ry="13.442"/><path d="M2258.1345,764.3988c-6.0625,0-10.9905,6.0312-10.9905,13.4506,0,7.4191,4.928,13.4505,10.9905,13.4505s10.9721-6.0314,10.9721-13.4505C2269.1066,770.43,2264.1971,764.3988,2258.1345,764.3988Zm.8183,13.974c-3.1057,2.0028-6.5832,3.8236-8.2011.0228-1.6365-3.8009-.4463-8.4893,2.6593-10.4918,3.1056-2.0028,6.9552-.5462,8.5917,3.2772C2263.6205,774.9818,2262.0584,776.37,2258.9528,778.3728Z" style="mix-blend-mode:soft-light" opacity=".56"/><ellipse cx="2263.584" cy="753.053" fill="#b25734" rx="10.984" ry="13.442"/><path d="M2263.5891,739.6049c-6.0626,0-10.9906,6.0311-10.9906,13.4505,0,7.4191,4.928,13.4505,10.9906,13.4505,6.0624,0,10.972-6.0314,10.972-13.4505C2274.5611,745.636,2269.6515,739.6049,2263.5891,739.6049Zm.8182,13.974c-3.1056,2.0027-6.5832,3.8235-8.2011.0227-1.6365-3.8008-.4463-8.4892,2.6593-10.4917,3.1056-2.0028,6.9551-.5462,8.5916,3.2771C2269.0751,750.1878,2267.5129,751.576,2264.4073,753.5789Z" style="mix-blend-mode:soft-light" opacity=".56"/><path fill="#b25734" d="M2282.3599,727.7825c0,7.4237-4.9176,13.4418-10.9837,13.4418s-10.9835-6.0181-10.9835-13.4418,4.9175-13.4419,10.9835-13.4419S2282.3599,720.3587,2282.3599,727.7825Z"/><path d="M2271.3812,714.3341c-6.0626,0-10.9906,6.0312-10.9906,13.4505s4.928,13.4506,10.9906,13.4506,10.972-6.0314,10.972-13.4506S2277.4437,714.3341,2271.3812,714.3341Zm.8183,13.974c-3.1057,2.0028-6.5832,3.8236-8.2011.0227-1.6366-3.8008-.4463-8.4892,2.6593-10.4917,3.1056-2.0028,6.9551-.5462,8.5916,3.2771C2276.8672,724.9171,2275.305,726.3053,2272.1995,728.3081Z" style="mix-blend-mode:soft-light" opacity=".56"/><ellipse cx="2277.22" cy="702.512" fill="#b25734" rx="10.984" ry="13.442"/><path d="M2277.2253,689.0634c-6.0625,0-10.9906,6.0311-10.9906,13.4505,0,7.4191,4.9281,13.4505,10.9906,13.4505s10.9721-6.0314,10.9721-13.4505C2288.1974,695.0945,2283.2878,689.0634,2277.2253,689.0634Zm.8182,13.9739c-3.1056,2.0028-6.5831,3.8236-8.201.0228-1.6365-3.8008-.4463-8.4893,2.6593-10.4918,3.1056-2.0028,6.9551-.5462,8.5916,3.2772C2282.7113,699.6463,2281.1491,701.0345,2278.0435,703.0373Z" style="mix-blend-mode:soft-light" opacity=".56"/><path fill="#b25734" d="M2221.9171,328.166a12.87214,12.87214,0,1,0,12.4555-13.2758A12.87217,12.87217,0,0,0,2221.9171,328.166Z"/><path d="M2221.925,328.1678a12.86944,12.86944,0,1,0,12.4417-13.2835A12.87319,12.87319,0,0,0,2221.925,328.1678Zm8.1177-6.6478a7.44288,7.44288,0,1,1,13.3988,6.4852c-1.7791,3.6982-5.9081,2.0853-9.6069.2844S2228.2635,325.2183,2230.0427,321.52Z" style="mix-blend-mode:soft-light" opacity=".56"/><path fill="#212021" d="M2100.5159,561.7211l252.9273,6.4563s3.6166-11.1992,6.1186-31.1163q.60825-4.81485,1.1042-10.3427c.15-1.857.327-3.8047.4432-5.7803a319.93544,319.93544,0,0,0,.6457-32.2271c-.2498-8.7754-.8471-18.1372-1.9408-28.0812-.6802-6.3419-1.547-12.9167-2.6593-19.6931-.3381-2.1702-.7638-4.278-1.2473-6.3239-16.5939-71.6217-107.656-89.423-164.8023-89.2143-21.7177.0646-44.4356,11.8732-64.5603,28.1697a236.09462,236.09462,0,0,0-42.0749,44.6915c-12.19,16.8503-19.9922,32.6348-20.7959,42.101C2061.2417,489.0298,2100.5159,561.7211,2100.5159,561.7211Z"/><path fill="#353535" d="M2280.5976,517.3205c24.1899,20.3211,57.5123,21.5893,78.9642,19.7406q.60825-4.81485,1.1042-10.3427c-44.0511,1.4342-85.5405-22.6677-85.5405-22.6677s-5.6548-36.8063,23.3395-6.3607c15.7953,16.5854,42.0158,21.8743,62.6442,23.2481a319.93544,319.93544,0,0,0,.6457-32.2271,124.02145,124.02145,0,0,1-39.3385-9.1128s-60.1049,8.6082-24.8077-8.7694c16.5604-8.1465,40.9622-10.2388,62.2054-10.199-.6802-6.3419-1.547-12.9167-2.6593-19.6931-.3381-2.1702-.7638-4.278-1.2473-6.3239-61.9984-10.4817-82.3338,20.7597-82.3338,20.7597l-24.3202,10.2757S2242.0409,484.9391,2280.5976,517.3205Z"/><path fill="#cc805e" d="M2142.8017,636.1216c-6.8004,7.4875-16.6134,7.6262-26.378,3.4059-19.1399-8.2279-38.0812-33.1093-33.7733-51.8814,1.7018-7.3563,5.1359-11.3079,9.3198-13.122,11.9255-5.1675,29.8282,7.078,29.8282,7.078S2162.9227,613.9575,2142.8017,636.1216Z"/><path d="M2142.8017,636.1216c-6.8004,7.4875-16.6134,7.6262-26.378,3.4059,8.5906-1.4396,11.9432-6.1088,5.2588-11.2455-8.7589-6.7225-30.531-18.0751-31.619-28.825-1.1061-10.7608,16.5727-3.8067,16.5727-3.8067-2.5962-12.5958-9.1416-18.4268-14.666-21.1262,11.9255-5.1675,29.8282,7.078,29.8282,7.078S2162.9227,613.9575,2142.8017,636.1216Z" style="mix-blend-mode:soft-light" opacity=".45"/><path fill="#914027" d="M2131.5445,615.2342c-6.6157-5.6003-12.545-11.2271-19.2888-15.3441a39.86582,39.86582,0,0,0-10.5194-4.7844,35.47965,35.47965,0,0,0-12.071-.5264,19.55243,19.55243,0,0,1,12.7071-3.8711,28.34611,28.34611,0,0,1,12.8895,4.3499,39.34689,39.34689,0,0,1,9.8507,8.8536A36.5392,36.5392,0,0,1,2131.5445,615.2342Z"/><circle cx="2104.55" cy="635.522" r="15.677" fill="#b25734" transform="rotate(-45 2104.55 635.522)"/><path d="M2088.8904,636.0236a15.67381,15.67381,0,1,0,15.1528-16.1782A15.67835,15.67835,0,0,0,2088.8904,636.0236Zm9.8866-8.0964a9.06479,9.06479,0,1,1,16.3186,7.8984c-2.1668,4.5042-7.1955,2.5398-11.7004.3464S2096.6101,632.4314,2098.777,627.9272Z" style="mix-blend-mode:soft-light" opacity=".56"/><path fill="#cc805e" d="M2300.854,624.7628c7.8012,6.4381,17.5332,5.1721,26.5939-.4012,17.7667-10.8802,32.9554-38.2144,26.0074-56.1776-2.7362-7.0373-6.7001-10.4572-11.1004-11.6544-12.5419-3.409-28.5095,11.2705-28.5095,11.2705S2277.7705,605.7037,2300.854,624.7628Z"/><path d="M2300.854,624.7628c7.8012,6.4381,17.5332,5.1721,26.5939-.4012-8.7081-.1963-12.6939-4.3381-6.8127-10.3779,7.7075-7.9058,27.6326-22.2551,27.1722-33.05-.4441-10.8085-16.9467-1.3978-16.9467-1.3978.7683-12.8377,6.4126-19.5448,11.4942-23.0063-12.5419-3.409-28.5095,11.2705-28.5095,11.2705S2277.7705,605.7037,2300.854,624.7628Z" style="mix-blend-mode:soft-light" opacity=".45"/><path fill="#914027" d="M2309.0085,602.4802a36.55723,36.55723,0,0,1,4.7469-12.1261,39.36664,39.36664,0,0,1,8.4839-10.1715,28.3453,28.3453,0,0,1,12.1342-6.1479,19.56005,19.56005,0,0,1,13.1307,2.0139,35.49346,35.49346,0,0,0-11.8714,2.2475,39.85974,39.85974,0,0,0-9.7275,6.2391C2319.8195,589.5742,2314.7559,595.9911,2309.0085,602.4802Z"/><path fill="#353535" d="M2183.9547,476.2284c-18.4364-56.753,55.0757-100.0909,57.1856-101.329-104.3415,49.2011-74.558,102.5775-74.558,102.5775-103.8105-77.6774,83.514-133.8253,83.514-133.8253l-8.9064,31.2184a234.147,234.147,0,0,1,63.7977,15.1537C2208.905,407.2769,2183.9547,476.2284,2183.9547,476.2284Z"/><path fill="#d69467" d="M2322.5728,568.33l-13.0932,55.742c-22.5572,37.4561-78.5687,70.1698-94.9844,79.1866a22.95067,22.95067,0,0,1-11.0102,2.8553c-12.3367.1093-33.3173-2.0617-43.7076-3.2536a17.11856,17.11856,0,0,1-7.2045-2.4812,16.84079,16.84079,0,0,1-3.5779-2.9064c-2.005-2.1563-4.1213-4.5673-6.2675-7.1063q-.3219-.37695-.6436-.754c-3.2223-3.8988-6.5576-8.1038-9.8164-12.337-.2154-.2772-.4042-.5293-.5936-.8072-8.0018-10.4847-15.4386-21.0647-19.7714-27.4065a29.00732,29.00732,0,0,1-4.9219-12.6738l-20.3563-147.7958a.07948.07948,0,0,1,.0241-.0524c3.2464-9.1134,13.2198-18.5704,20.8434-24.8029a13.275,13.275,0,0,1,17.073.2561c9.476,8.1399,27.0485,20.0233,48.3013,19.3973,27.5723-.8015,60.4328-22.7863,73.0292-29.332,2.3115-1.1839,18.5998-2.8648,21.1645-2.5852,29.5083,3.2415,55.3694,28.1304,55.3694,28.1304C2275.7536,538.7395,2322.5728,568.33,2322.5728,568.33Z"/><path fill="#212021" d="M2198.06,658.3985s-2.7589,11.8549-14.1143,13.5351-14.4824-10.7193-14.4824-10.7193Z"/><path fill="#b25734" d="M2201.581,656.2702a20.32875,20.32875,0,0,1-8.2761,5.4682,34.66413,34.66413,0,0,1-9.6553,2.1405c-6.5639.3521-13.2382-.6838-19.0006-4.0993a83.60422,83.60422,0,0,1,9.5183-.965c3.0736-.2274,6.0852-.3405,9.0798-.5864C2189.2751,657.8039,2195.0613,657.2489,2201.581,656.2702Z"/><path fill="#b25734" d="M2245.634,621.997c-1.5364,4.0087-3.1416,7.9792-4.8708,11.8823l-.1607.363-.5354.2704c-17.488,8.8298-36.7141,13.638-56.2282,15.2848a135.74068,135.74068,0,0,1-29.3444-.6838c-9.7479-1.0726-19.2349-3.9671-28.2567-7.467l-.2091-.081-.0655-.0654c-1.4676-1.4759-2.8685-3.0327-4.298-4.5556,1.7693,1.1088,3.568,2.1828,5.2999,3.3378l-.2724-.1457c9.5184,1.4513,18.8535,2.8679,28.3174,3.0477a212.29161,212.29161,0,0,0,28.2172-.7287,276.84086,276.84086,0,0,0,28.0294-3.9229c9.2738-1.8102,18.581-3.9916,27.6622-6.679l-.6947.632C2240.5888,628.9315,2243.0767,625.4452,2245.634,621.997Z"/><path fill="#b25734" d="M2247.9237,625.9635c-2.8713-.6116-4.0127-.6511-5.1685-1.0216a13.668,13.668,0,0,1-1.8878-.8826,22.45419,22.45419,0,0,1-2.8924-1.7864,5.26412,5.26412,0,0,1,6.6116-2.6922C2247.0806,620.4551,2249.0597,623.133,2247.9237,625.9635Z"/><path fill="#353535" d="M2084.47,418.2597c11.0124,14.6169,32.3453,39.0328,56.0907,49.1504-1.8066-1.3764-31.2871-54.5717-14.0158-93.8419A236.09462,236.09462,0,0,0,2084.47,418.2597Z"/><path fill="#eab896" d="M2158.2603,599.9124s23.3973.0446,24.0859,9.6263-22.0101,14.9594-33.9612,9.29S2158.2603,599.9124,2158.2603,599.9124Z"/><path fill="#b25734" d="M2161.8444,589.8235c-.5012,3.6089-1.294,7.1143-2.0752,10.6244l-.0797.3562-.5523.4481c-2.2706,1.8382-4.5317,3.69-6.8663,5.4301a18.91513,18.91513,0,0,0-2.8761,2.4,4.86559,4.86559,0,0,0-1.0727,2.543,5.1115,5.1115,0,0,0,1.9308,4.7572,37.72557,37.72557,0,0,0,6.8351,3.9548,29.72066,29.72066,0,0,0,15.4857,2.1229,58.65132,58.65132,0,0,0,16.1845-5.0773,35.623,35.623,0,0,1-15.2535,9.4727,28.713,28.713,0,0,1-18.7262-.8676,32.1361,32.1361,0,0,1-8.2441-4.7006,10.59621,10.59621,0,0,1-3.8384-10.7484,10.38524,10.38524,0,0,1,2.808-5.1276,18.75469,18.75469,0,0,1,4.1571-2.7147c2.528-1.4445,5.129-2.7773,7.7217-4.123l-.6306.8023C2158.3602,596.16,2159.9572,592.94,2161.8444,589.8235Z"/><path d="M2322.5728,568.33l-13.0932,55.742c-22.5572,37.4561-78.5687,70.1698-94.9844,79.1866a22.95067,22.95067,0,0,1-11.0102,2.8553c-12.3367.1093-33.3173-2.0617-43.7076-3.2536a17.11856,17.11856,0,0,1-7.2045-2.4812,133.417,133.417,0,0,1-9.8454-10.0127q-.3219-.37695-.6436-.754c-3.5634-4.0686-6.8463-8.2494-9.8164-12.337-.2154-.2772-.4042-.5293-.5936-.8072a221.37871,221.37871,0,0,1-18.1691-29.781l41.6595,47.5167c20.4427-12.2691,48.5105,3.2812,48.5105,3.2812,39.0799-19.6272,86.4481-82.1415,82.6795-139.6179s-34.23-71.9952-83.9233-67.0292c-49.719,4.967-46.6691-6.2571-75.5428-15.5083-28.1176-9.0171-39.6803,12.1337-40.2398,13.21,3.2464-9.1134,13.2198-18.5704,20.8434-24.8029a13.275,13.275,0,0,1,17.073.2561c9.476,8.1399,27.0485,20.0233,48.3013,19.3973,27.5723-.8015,60.4328-22.7863,73.0292-29.332,2.3115-1.1839,18.5998-2.8648,21.1645-2.5852,29.5083,3.2415,55.3694,28.1304,55.3694,28.1304C2275.7536,538.7395,2322.5728,568.33,2322.5728,568.33Z" style="mix-blend-mode:soft-light" opacity=".45"/><path fill="#212021" d="M2195.9012,533.5336c2.3532,10.6385,8.0239,12.9396,8.0239,12.9396a123.20515,123.20515,0,0,1,18.9871-9.1991c.5551-.214,1.1121-.4133,1.6526-.6253.4012-.132.7859-.2768,1.1728-.4068a88.52708,88.52708,0,0,1,15.1437-3.8191c.969-.1528,1.8831-.2677,2.7702-.3639.9461-.1044,1.8497-.1879,2.6821-.2461a39.13521,39.13521,0,0,1,9.5794.2292,47.22014,47.22014,0,0,0-8.7726-6.2733c-.9579-.5093-1.9119-.9891-2.8719-1.408-.9288-.4084-1.8534-.7873-2.7696-1.1073a37.948,37.948,0,0,0-14.7274-2.1245c-.6872.0227-1.3702.0748-2.0369.1395-.6809.0668-1.345.1463-2.007.2404C2207.3852,523.72,2195.9012,533.5336,2195.9012,533.5336Z"/><path fill="#353535" d="M2244.2685,524.3608a33.27052,33.27052,0,0,0-.617,7.6982c.9461-.1044,1.8497-.1879,2.6821-.2461a29.04451,29.04451,0,0,1,.8068-6.0441C2246.1825,525.2595,2245.2285,524.7797,2244.2685,524.3608Z"/><path fill="#353535" d="M2226.7715,521.129c-1.9245,5.1522-1.634,10.9952-1.0339,15.113a88.52708,88.52708,0,0,1,15.1437-3.8191,38.13034,38.13034,0,0,1,.6176-9.1694A37.948,37.948,0,0,0,2226.7715,521.129Z"/><path fill="#353535" d="M2222.9122,537.2741c.5551-.214,1.1121-.4133,1.6526-.6253a40.154,40.154,0,0,1,.1698-15.3803c-.6809.0668-1.345.1463-2.007.2404A40.63426,40.63426,0,0,0,2222.9122,537.2741Z"/><path fill="#212021" d="M2158.2166,533.6213c-.6094,10.8785-5.8356,14.0627-5.8356,14.0627a123.20551,123.20551,0,0,0-20.2206-6.0216c-.5824-.1219-1.1642-.2288-1.7317-.351-.4173-.0658-.8203-.1467-1.223-.2127a88.53055,88.53055,0,0,0-15.5612-1.3308c-.9808.0052-1.9016.039-2.7926.0869-.9505.0493-1.8557.1125-2.6867.189a39.13235,39.13235,0,0,0-9.4174,1.7688,47.21442,47.21442,0,0,1,7.648-7.6041c.8633-.6568,1.7275-1.284,2.6075-1.852.8509-.5527,1.7025-1.0755,2.5553-1.5389a37.94745,37.94745,0,0,1,14.1931-4.4682c.6819-.0883,1.3644-.1468,2.0327-.1903.6828-.0438,1.351-.0723,2.0196-.086C2145.3022,525.7849,2158.2166,533.6213,2158.2166,533.6213Z"/><path fill="#353535" d="M2109.0033,532.3565a33.26372,33.26372,0,0,1,1.8486,7.4983c-.9505.0493-1.8557.1125-2.6867.189a29.05239,29.05239,0,0,0-1.7694-5.8353C2107.2591,533.5517,2108.1233,532.9245,2109.0033,532.3565Z"/><path fill="#353535" d="M2125.7517,526.3494c2.729,4.775,3.3832,10.5886,3.454,14.7493a88.53055,88.53055,0,0,0-15.5612-1.3308,38.12468,38.12468,0,0,0-2.0859-8.9503A37.94745,37.94745,0,0,1,2125.7517,526.3494Z"/><path fill="#353535" d="M2132.1604,541.6624c-.5824-.1219-1.1642-.2288-1.7317-.351a40.15369,40.15369,0,0,0-2.6443-15.1523c.6828-.0438,1.351-.0723,2.0196-.086A40.63473,40.63473,0,0,1,2132.1604,541.6624Z"/><ellipse cx="2220.518" cy="574.248" rx="27.584" ry="16.409" transform="rotate(-89.162 2220.518 574.248)" style="mix-blend-mode:soft-light" opacity=".45"/><path d="M2209.484,580.6825c-.2755,10.0703,4.3557,18.4794,10.3441,18.7823s11.0661-7.615,11.3415-17.6852-4.3557-18.4794-10.344-18.7823S2209.7595,570.6123,2209.484,580.6825Z"/><path fill="#fff" d="M2221.8887,574.8029c-.0864,3.1603,1.367,5.7993,3.2464,5.8944s3.4728-2.3898,3.5592-5.5501-1.3669-5.7994-3.2462-5.8945S2221.9752,571.6426,2221.8887,574.8029Z"/><path fill="#fff" d="M2219.3864,582.0899c-.0437,1.6003.6923,2.9366,1.6438,2.9848s1.7586-1.2101,1.8023-2.8104-.6922-2.9366-1.6438-2.9847S2219.4303,580.4897,2219.3864,582.0899Z"/><ellipse cx="2131.907" cy="577.088" rx="14.247" ry="23.909" transform="rotate(-6.14 2131.907 577.088)" style="mix-blend-mode:soft-light" opacity=".45"/><path d="M2123.3731,584.6421c1.1122,8.6586,6.1797,14.9838,11.3186,14.1277s8.4031-8.5694,7.2909-17.228-6.1798-14.9837-11.3187-14.1276S2122.2609,575.9836,2123.3731,584.6421Z"/><path fill="#fff" d="M2133.148,577.3068c.349,2.7173,1.9394,4.7023,3.5521,4.4337s2.6371-2.6893,2.288-5.4066-1.9393-4.7024-3.5521-4.4338C2133.8233,572.1689,2132.7989,574.5895,2133.148,577.3068Z"/><path fill="#fff" d="M2131.9921,584.0012c.1767,1.376.982,2.3811,1.7986,2.245s1.3354-1.3617,1.1586-2.7377-.982-2.381-1.7986-2.2449S2131.8154,582.6253,2131.9921,584.0012Z"/><path fill="#b25734" d="M2304.0494,629.1617a17.63655,17.63655,0,1,0,17.0656-18.1896A17.63662,17.63662,0,0,0,2304.0494,629.1617Z"/><path d="M2304.0601,629.1643a17.63291,17.63291,0,1,0,17.0468-18.2003A17.63808,17.63808,0,0,0,2304.0601,629.1643Zm11.1224-9.1085a10.19777,10.19777,0,1,1,18.3582,8.8856c-2.4376,5.0672-8.0949,2.8573-13.1628.3898S2312.7448,625.123,2315.1825,620.0558Z" style="mix-blend-mode:soft-light" opacity=".56"/><path fill="#b25734" d="M2336.6993,396.7694a12.87214,12.87214,0,1,0,12.4554-13.2758A12.87229,12.87229,0,0,0,2336.6993,396.7694Z"/><path d="M2336.7072,396.7713a12.86944,12.86944,0,1,0,12.4416-13.2836A12.87315,12.87315,0,0,0,2336.7072,396.7713Zm8.1177-6.6478a7.44286,7.44286,0,1,1,13.3988,6.4851c-1.7791,3.6983-5.9081,2.0854-9.607.2844S2343.0457,393.8217,2344.8249,390.1235Z" style="mix-blend-mode:soft-light" opacity=".56"/><path fill="#c6ab93" d="M2174.3233,541.7714l.0236-.0007c.8563.1807,17.3867,2.861-1.6124-50.5778-.0009-.0297-.0009-.0297-.0255-.0587l.0019.0595C2157.1539,545.734,2173.5036,542.0056,2174.3233,541.7714Z"/><ellipse cx="2305.024" cy="343.441" fill="#212021" rx="74.745" ry="64.947" transform="rotate(-1.826 2305.024 343.441)"/><path fill="#353535" d="M2297.2422,288.2321s60.3656,8.999,72.009,44.7592c11.6432,35.7601-99.3327,33.8362-120.1074,14.7522s9.994-42.3316,34.2566-45.6259,67.4873,8.3519,63.4324,26.1267-68.6308,8.4898-71.7025,4.3864,40.6895-15.1615,40.6895-15.1615-19.0656,8.1701-16.4537,11.0278,34.7017-5.3075,30.8039-8.9645-25.9365-9.6764-48.8864-4.7435-13.7531,29.8476,13.5678,30.237,57.1066-.9801,59.1432-16.1698S2314.7177,296.0777,2297.2422,288.2321Z"/><path fill="#b25734" d="M2321.7326,401.7279a12.87219,12.87219,0,1,0,12.4555-13.2757A12.87217,12.87217,0,0,0,2321.7326,401.7279Z"/><path d="M2321.7405,401.7298a12.86944,12.86944,0,1,0,12.4417-13.2836A12.87317,12.87317,0,0,0,2321.7405,401.7298Zm8.1177-6.6479a7.443,7.443,0,1,1,13.3989,6.4853c-1.7792,3.6982-5.9082,2.0853-9.607.2844S2328.079,398.7802,2329.8582,395.0819Z" style="mix-blend-mode:soft-light" opacity=".56"/><circle cx="2310.535" cy="402.085" r="12.872" fill="#b25734" transform="rotate(-74.395 2310.535 402.085)"/><path d="M2297.6775,402.4969a12.86939,12.86939,0,1,0,12.4416-13.2836A12.873,12.873,0,0,0,2297.6775,402.4969Zm8.1176-6.6479a7.443,7.443,0,1,1,13.3989,6.4853c-1.7791,3.6982-5.9082,2.0853-9.607.2844S2304.016,399.5474,2305.7951,395.849Z" style="mix-blend-mode:soft-light" opacity=".56"/><path fill="#b25734" d="M2275.1604,399.2913a12.87213,12.87213,0,1,0,12.4555-13.2757A12.87225,12.87225,0,0,0,2275.1604,399.2913Z"/><path d="M2275.1683,399.2932a12.86944,12.86944,0,1,0,12.4417-13.2836A12.87319,12.87319,0,0,0,2275.1683,399.2932Zm8.1177-6.6478a7.44293,7.44293,0,1,1,13.3989,6.4852c-1.7792,3.6983-5.9082,2.0854-9.607.2844S2281.5068,396.3437,2283.286,392.6454Z" style="mix-blend-mode:soft-light" opacity=".56"/><path fill="#b25734" d="M2256.4793,393.1647a12.87218,12.87218,0,1,0,12.4555-13.2757A12.87225,12.87225,0,0,0,2256.4793,393.1647Z"/><path d="M2256.4873,393.1667a12.86939,12.86939,0,1,0,12.4416-13.2836A12.873,12.873,0,0,0,2256.4873,393.1667Zm8.1176-6.6479a7.44293,7.44293,0,1,1,13.3989,6.4852c-1.7792,3.6983-5.9082,2.0854-9.607.2845S2262.8257,390.2171,2264.6049,386.5188Z" style="mix-blend-mode:soft-light" opacity=".56"/><path fill="#b25734" d="M2236.4115,378.6798a12.87214,12.87214,0,1,0,12.4554-13.2757A12.87209,12.87209,0,0,0,2236.4115,378.6798Z"/><path d="M2236.4193,378.6817a12.86949,12.86949,0,1,0,12.4417-13.2836A12.87317,12.87317,0,0,0,2236.4193,378.6817Zm8.1177-6.6479a7.443,7.443,0,1,1,13.3989,6.4853c-1.7792,3.6982-5.9081,2.0853-9.607.2844S2242.7579,375.7322,2244.537,372.0338Z" style="mix-blend-mode:soft-light" opacity=".56"/><circle cx="2237.151" cy="366.893" r="12.872" fill="#b25734" transform="rotate(-65.99 2237.15 366.893)"/><path d="M2224.293,367.3046a12.86944,12.86944,0,1,0,12.4416-13.2836A12.87317,12.87317,0,0,0,2224.293,367.3046Zm8.1177-6.6479a7.44291,7.44291,0,1,1,13.3988,6.4853c-1.7791,3.6982-5.9081,2.0853-9.607.2844S2230.6315,364.355,2232.4107,360.6567Z" style="mix-blend-mode:soft-light" opacity=".56"/><path fill="#b25734" d="M2215.7727,346.2874a12.87214,12.87214,0,1,0,12.4555-13.2757A12.87216,12.87216,0,0,0,2215.7727,346.2874Z"/><path d="M2215.7806,346.2893a12.86944,12.86944,0,1,0,12.4417-13.2836A12.87315,12.87315,0,0,0,2215.7806,346.2893Zm8.1177-6.6479a7.44291,7.44291,0,1,1,13.3988,6.4853c-1.7791,3.6983-5.9081,2.0854-9.6069.2844S2222.1191,343.3397,2223.8983,339.6414Z" style="mix-blend-mode:soft-light" opacity=".56"/><polygon fill="#ce9d6f" points="2287.767 665.451 1774.413 239.376 1741.194 237.3 1741.521 232.037 1776.461 234.221 1777.12 234.771 2291.134 661.398 2287.767 665.451"/><polygon fill="#ce9d6f" points="1849.868 1321.521 1814.137 1319.979 1814.366 1314.716 1847.263 1316.138 2285.037 710.199 2289.308 713.283 1849.868 1321.521"/><path fill="#212021" d="M1533.4075,785.174c224.9178-24.3936,748.8876-81.5694,756.5546-85.6268l-2.4243-4.5778-1.6804-4.887c-14.9231,4.0416-499.4512,57.2313-753.5696,84.7928Z"/><polygon fill="#e8ad1a" points="1562.144 776.678 1593.123 730.567 1450.419 795.28 1593.627 813.65 1562.144 776.678"/><path d="M1450.4177,795.2884l143.1928,18.3577-31.482-36.9802c-3.0551,1.9303-108.3384,18.109-111.6362,18.6039A.10565.10565,0,0,1,1450.4177,795.2884Z" style="mix-blend-mode:soft-light" opacity=".3"/><path d="M1450.4177,795.2884l143.1928,18.3577-31.482-36.9802c-3.0551,1.9303-108.3384,18.109-111.6362,18.6039A.10565.10565,0,0,1,1450.4177,795.2884Z" style="mix-blend-mode:soft-light" opacity=".3"/></g></svg>