<svg xmlns="http://www.w3.org/2000/svg" viewBox="0 0 2800 1900"><g data-name="Layer 1"><path fill="#ed8a3a" d="M357.3329,1075.2249s-.6079,90.5843-41.9484,126.4532-148.9473,37.6928-164.1461,60.7949S133,1311.7168,133,1311.7168s7.9033-15.1987,35.869-12.159,37.0848,13.9828,62.0107-4.8636,104.5671-36.4769,138.6122-112.4704,31.0054-92.4082,31.0054-92.4082Z"/><path d="M357.3329,1075.2249s-.6079,90.5843-41.9484,126.4532-148.9473,37.6928-164.1461,60.7949S133,1311.7168,133,1311.7168s7.9033-15.1987,35.869-12.159,37.0848,13.9828,62.0107-4.8636,104.5671-36.4769,138.6122-112.4704,31.0054-92.4082,31.0054-92.4082Z" style="mix-blend-mode:soft-light" opacity=".19"/><path d="M369.4821,1182.2094c-34.0235,76.0021-113.657,93.6401-138.6019,112.4897-14.3095,10.808-23.3881,11.8022-33.8072,10.1599,14.8288-14.8283,39.7305-31.5596,72.1112-40.5521,48.0306-13.4013,59.5738-55.942,59.5738-55.942-37.6982,60.1786-102.1144,56.5478-136.1807,66.8798a68.68923,68.68923,0,0,0-34.802,24.0372c-18.4168,1.3837-24.3829,11.7157-24.7285,12.407v-.0865c.8644-2.4202,15.3475-41.3723,40.6809-45.4801,26.1555-4.2367,66.8797-1.8154,121.612-33.4183,54.6881-31.645,61.3892-130.1276,61.3892-130.1276s-.476.0433-1.3837.1299a264.18129,264.18129,0,0,0,1.9885-27.496l43.146,14.6129S403.549,1106.2505,369.4821,1182.2094Z" style="mix-blend-mode:soft-light" opacity=".19"/><polygon fill="#efbb29" points="436.06 352.725 443.265 187.012 510.811 327.508 436.06 352.725"/><path fill="#ed9e2b" d="M610.7886,375.2319,391.0387,431.9826s7.2049-75.6516,72.938-104.4712a77.12131,77.12131,0,0,1,25.4095-6.2204c31.2448-2.3776,63.1626,12.6086,86.4109,27.4028A254.8622,254.8622,0,0,1,610.7886,375.2319Z"/><path fill="#ed9e2b" d="M2398.9332,315.7353s-194.8418-3.8204-198.6623,120.3435,133.7151,126.0742,93.6006,204.393-200.5726,72.5881-263.6096,114.6129-49.6656,422.1573-372.4918,330.467c0,0,252.1483,290.3526,603.6277,139.4457s359.1203-292.2628,273.1607-473.7332-223.4951-286.5321-139.4457-338.1079-11.4613,80.229,124.164,99.3311S2698.8369,246.9676,2398.9332,315.7353Z"/><path d="M2622.5834,427.4156c-7.1312,49.2865-47.4293,92.9355-103.3043,85.0796-135.6344-19.1077-40.1168-150.9157-124.1554-99.3426-49.7165,30.4955-21.9155,79.7142,26.8735,152.3873-28.1193,14.6705-79.4199,52.3882-101.0636,138.9167-30.5635,122.254,42.0193,265.5176-110.7981,383.968-106.0216,82.1593-188.1355,170.7708-79.85,174.5741-281.4112,42.6306-472.5115-177.4491-472.5115-177.4491,322.818,91.6905,309.4608-288.4291,372.4892-330.4708,63.0284-42.019,223.4989-36.2911,263.6156-114.6018,40.1179-78.333-97.4178-80.2347-93.615-204.3904,3.8271-124.1784,198.6627-120.3523,198.6627-120.3523,39.8006-9.1237,73.5567-12.0217,101.8341-10.233-16.165,26.3524-27.7115,59.2931-15.5537,91.4188C2499.7181,435.2941,2565.509,435.3848,2622.5834,427.4156Z" style="mix-blend-mode:soft-light" opacity=".19"/><path fill="#efbb29" d="M2183.079,688.2271s-80.229-129.8945-202.4827-143.266-485.1945,85.9596-601.7176-22.9226c0,0,30.5635,164.2784,257.879,171.9193,0,0-114.6129,28.6532-196.7521-34.3839,0,0,47.7554,194.8419,282.7117,233.0462,0,0-120.3435,14.645-212.0338-78.3188,0,0,170.0091,309.4547,479.4639,248.3279S2215.5527,718.7906,2183.079,688.2271Z"/><path fill="#efbb29" d="M2613.514,457.7279s11.4613,94.2373,53.486,115.8864c0,0-109.519,16.5552-124.8007-54.7595S2613.514,457.7279,2613.514,457.7279Z"/><path fill="#ed9e2b" d="M2171.9361,887.8446s-26.743-185.2908-164.2784-234.9564-480.1006,118.4333-628.779-130.8497c0,0,25.1512,201.5276,380.4511,180.5153,0,0-149.6335,194.8418-319.3242-42.9799,0,0,76.727,314.2303,517.9865,220.6298,0,0-325.3732,105.0618-447.3086-65.9024,0,0,143.5845,197.7072,370.9,180.5153s250.2381-93.6005,250.2381-93.6005S2028.67,721.6559,1820.4566,717.8355C1820.4566,717.8355,2024.8496,633.786,2171.9361,887.8446Z"/><path fill="#2d263a" d="M2564.1668,435.7605s8.2776-19.1022-12.098-40.1145-44.5717-17.192-51.5758-31.2002c0,0,3.3959,13.1593,20.3756,21.6491S2549.7341,431.0911,2564.1668,435.7605Z"/><g style="mix-blend-mode:soft-light" opacity=".19"><path d="M2398.9332,315.7353s-194.8418-3.8204-198.6623,120.3435,133.7151,126.0742,93.6006,204.393-200.5726,72.5881-263.6096,114.6129-49.6656,422.1573-372.4918,330.467c0,0,252.1483,290.3526,603.6277,139.4457s359.1203-292.2628,273.1607-473.7332-223.4951-286.5321-139.4457-338.1079-11.4613,80.229,124.164,99.3311S2698.8369,246.9676,2398.9332,315.7353Z"/><path d="M2622.5834,427.4156c-7.1312,49.2865-47.4293,92.9355-103.3043,85.0796-135.6344-19.1077-40.1168-150.9157-124.1554-99.3426-49.7165,30.4955-21.9155,79.7142,26.8735,152.3873-28.1193,14.6705-79.4199,52.3882-101.0636,138.9167-30.5635,122.254,42.0193,265.5176-110.7981,383.968-106.0216,82.1593-188.1355,170.7708-79.85,174.5741-281.4112,42.6306-472.5115-177.4491-472.5115-177.4491,322.818,91.6905,309.4608-288.4291,372.4892-330.4708,63.0284-42.019,223.4989-36.2911,263.6156-114.6018,40.1179-78.333-97.4178-80.2347-93.615-204.3904,3.8271-124.1784,198.6627-120.3523,198.6627-120.3523,39.8006-9.1237,73.5567-12.0217,101.8341-10.233-16.165,26.3524-27.7115,59.2931-15.5537,91.4188C2499.7181,435.2941,2565.509,435.3848,2622.5834,427.4156Z" style="mix-blend-mode:soft-light" opacity=".19"/><path d="M2183.079,688.2271s-80.229-129.8945-202.4827-143.266-485.1945,85.9596-601.7176-22.9226c0,0,30.5635,164.2784,257.879,171.9193,0,0-114.6129,28.6532-196.7521-34.3839,0,0,47.7554,194.8419,282.7117,233.0462,0,0-120.3435,14.645-212.0338-78.3188,0,0,170.0091,309.4547,479.4639,248.3279S2215.5527,718.7906,2183.079,688.2271Z"/><path d="M2613.514,457.7279s11.4613,94.2373,53.486,115.8864c0,0-109.519,16.5552-124.8007-54.7595S2613.514,457.7279,2613.514,457.7279Z"/><path d="M2171.9361,887.8446s-26.743-185.2908-164.2784-234.9564-480.1006,118.4333-628.779-130.8497c0,0,25.1512,201.5276,380.4511,180.5153,0,0-149.6335,194.8418-319.3242-42.9799,0,0,76.727,314.2303,517.9865,220.6298,0,0-325.3732,105.0618-447.3086-65.9024,0,0,143.5845,197.7072,370.9,180.5153s250.2381-93.6005,250.2381-93.6005S2028.67,721.6559,1820.4566,717.8355C1820.4566,717.8355,2024.8496,633.786,2171.9361,887.8446Z"/><path d="M2564.1668,435.7605s8.2776-19.1022-12.098-40.1145-44.5717-17.192-51.5758-31.2002c0,0,3.3959,13.1593,20.3756,21.6491S2549.7341,431.0911,2564.1668,435.7605Z"/></g><g style="mix-blend-mode:soft-light" opacity=".19"><path d="M2398.9332,315.7353s-194.8418-3.8204-198.6623,120.3435,133.7151,126.0742,93.6006,204.393-200.5726,72.5881-263.6096,114.6129-49.6656,422.1573-372.4918,330.467c0,0,252.1483,290.3526,603.6277,139.4457s359.1203-292.2628,273.1607-473.7332-223.4951-286.5321-139.4457-338.1079-11.4613,80.229,124.164,99.3311S2698.8369,246.9676,2398.9332,315.7353Z"/><path d="M2622.5834,427.4156c-7.1312,49.2865-47.4293,92.9355-103.3043,85.0796-135.6344-19.1077-40.1168-150.9157-124.1554-99.3426-49.7165,30.4955-21.9155,79.7142,26.8735,152.3873-28.1193,14.6705-79.4199,52.3882-101.0636,138.9167-30.5635,122.254,42.0193,265.5176-110.7981,383.968-106.0216,82.1593-188.1355,170.7708-79.85,174.5741-281.4112,42.6306-472.5115-177.4491-472.5115-177.4491,322.818,91.6905,309.4608-288.4291,372.4892-330.4708,63.0284-42.019,223.4989-36.2911,263.6156-114.6018,40.1179-78.333-97.4178-80.2347-93.615-204.3904,3.8271-124.1784,198.6627-120.3523,198.6627-120.3523,39.8006-9.1237,73.5567-12.0217,101.8341-10.233-16.165,26.3524-27.7115,59.2931-15.5537,91.4188C2499.7181,435.2941,2565.509,435.3848,2622.5834,427.4156Z" style="mix-blend-mode:soft-light" opacity=".19"/><path d="M2183.079,688.2271s-80.229-129.8945-202.4827-143.266-485.1945,85.9596-601.7176-22.9226c0,0,30.5635,164.2784,257.879,171.9193,0,0-114.6129,28.6532-196.7521-34.3839,0,0,47.7554,194.8419,282.7117,233.0462,0,0-120.3435,14.645-212.0338-78.3188,0,0,170.0091,309.4547,479.4639,248.3279S2215.5527,718.7906,2183.079,688.2271Z"/><path d="M2613.514,457.7279s11.4613,94.2373,53.486,115.8864c0,0-109.519,16.5552-124.8007-54.7595S2613.514,457.7279,2613.514,457.7279Z"/><path d="M2171.9361,887.8446s-26.743-185.2908-164.2784-234.9564-480.1006,118.4333-628.779-130.8497c0,0,25.1512,201.5276,380.4511,180.5153,0,0-149.6335,194.8418-319.3242-42.9799,0,0,76.727,314.2303,517.9865,220.6298,0,0-325.3732,105.0618-447.3086-65.9024,0,0,143.5845,197.7072,370.9,180.5153s250.2381-93.6005,250.2381-93.6005S2028.67,721.6559,1820.4566,717.8355C1820.4566,717.8355,2024.8496,633.786,2171.9361,887.8446Z"/><path d="M2564.1668,435.7605s8.2776-19.1022-12.098-40.1145-44.5717-17.192-51.5758-31.2002c0,0,3.3959,13.1593,20.3756,21.6491S2549.7341,431.0911,2564.1668,435.7605Z"/></g><circle cx="1137.75" cy="1219.902" r="254.986" fill="#5e422b"/><circle cx="1137.75" cy="1219.902" r="229.044" style="mix-blend-mode:soft-light" opacity=".19"/><circle cx="1137.75" cy="1219.902" r="201.76" fill="#493325"/><circle cx="1137.75" cy="1219.902" r="92.193" fill="#5e422b"/><rect width="14.879" height="192.492" x="1129.38" y="1028.341" fill="#5e422b"/><rect width="14.879" height="192.703" x="1129.516" y="1028.34" fill="#5e422b" transform="rotate(-.081 1136.94 1124.678)"/><rect width="14.877" height="192.702" x="1104.902" y="1031.791" fill="#5e422b" transform="rotate(-15.081 1112.34 1128.141)"/><rect width="14.878" height="192.7" x="1082.017" y="1041.494" fill="#5e422b" transform="rotate(-30.081 1089.456 1137.844)"/><rect width="14.877" height="192.701" x="1062.425" y="1056.79" fill="#5e422b" transform="rotate(-45.081 1069.864 1153.14)"/><rect width="14.88" height="192.7" x="1047.458" y="1076.635" fill="#5e422b" transform="rotate(-60.081 1054.898 1172.985)"/><rect width="14.877" height="192.698" x="1038.139" y="1099.678" fill="#5e422b" transform="rotate(-75.081 1045.58 1196.03)"/><rect width="192.7" height="14.879" x="946.189" y="1213.257" fill="#5e422b" transform="rotate(-.074 1042.567 1220.733)"/><rect width="192.701" height="14.877" x="949.637" y="1237.874" fill="#5e422b" transform="rotate(-15.077 1045.988 1245.313)"/><rect width="192.701" height="14.878" x="959.342" y="1260.757" fill="#5e422b" transform="rotate(-30.087 1055.692 1268.196)"/><rect width="192.701" height="14.877" x="974.636" y="1280.351" fill="#5e422b" transform="rotate(-45.079 1070.986 1287.79)"/><rect width="192.7" height="14.88" x="994.482" y="1295.315" fill="#5e422b" transform="rotate(-60.088 1090.832 1302.755)"/><rect width="192.7" height="14.877" x="1017.523" y="1304.637" fill="#5e422b" transform="rotate(-75.077 1113.874 1312.075)"/><rect width="14.879" height="192.7" x="1131.104" y="1218.764" fill="#5e422b" transform="rotate(-.081 1138.49 1315.052)"/><rect width="14.877" height="192.699" x="1155.72" y="1215.315" fill="#5e422b" transform="rotate(-15.081 1163.159 1311.664)"/><rect width="14.878" height="192.701" x="1178.603" y="1205.61" fill="#5e422b" transform="rotate(-30.081 1186.042 1301.961)"/><rect width="14.877" height="192.701" x="1198.197" y="1190.317" fill="#5e422b" transform="rotate(-45.081 1205.636 1286.667)"/><rect width="14.88" height="192.7" x="1213.162" y="1170.472" fill="#5e422b" transform="rotate(-60.081 1220.602 1266.822)"/><rect width="14.877" height="192.701" x="1222.483" y="1147.428" fill="#5e422b" transform="rotate(-75.081 1229.921 1243.779)"/><rect width="192.7" height="14.879" x="1136.61" y="1211.67" fill="#5e422b" transform="rotate(-.075 1232.91 1219.062)"/><rect width="192.702" height="14.877" x="1133.161" y="1187.056" fill="#5e422b" transform="rotate(-15.077 1229.512 1194.494)"/><rect width="192.7" height="14.878" x="1123.457" y="1164.171" fill="#5e422b" transform="rotate(-30.088 1219.807 1171.61)"/><rect width="192.701" height="14.877" x="1108.163" y="1144.579" fill="#5e422b" transform="rotate(-45.079 1204.513 1152.017)"/><rect width="192.702" height="14.88" x="1088.317" y="1129.611" fill="#5e422b" transform="rotate(-60.088 1184.668 1137.05)"/><rect width="192.701" height="14.877" x="1065.274" y="1120.291" fill="#5e422b" transform="rotate(-75.077 1161.625 1127.73)"/><rect width="14.879" height="192.703" x="1129.516" y="1028.34" fill="#5e422b" transform="rotate(-.081 1136.94 1124.678)"/><circle cx="1137.75" cy="1219.902" r="77.459" fill="#493325"/><circle cx="1137.75" cy="1219.902" r="50.871" fill="#5e422b"/><path fill="#e89c7c" d="M560.3441,1034.9377c-1.3685,1.3451-11.5034,1.129-11.5034,1.129l-.2163-3.3864-2.017.9127s-3.8429-.9127-4.7318-2.7139c-.9123-1.8012,0-9.4383,0-9.4383-19.8135-6.7728-69.7917-3.6024-69.7917-3.6024l-18.9246,10.3989-26.1061,14.3618c26.5622,17.5558,20.2462,27.4749,20.2462,38.2823,0,4.0586.384,10.8073.8408,17.6279.8162,11.3116,1.8728,22.8874,1.8728,22.8874l-40.9721,19.8135a120.92152,120.92152,0,0,1-14.7939-9.5825,254.41005,254.41005,0,0,1-32.71-29.8282s-3.7707,3.7705-12.2246,17.2436c-2.6414,4.251-5.7637,9.4867-9.3902,15.8751-15.1063,26.562-35.5924,55.5977-35.5924,55.5977s-2.0176,8.3336-4.4908,12.849c-2.4743,4.4908-4.5153,13.0407-5.644,13.0407-1.1047,0-2.9059-1.8012-3.1463-4.9475-.2158-3.146,2.2574-10.3509,2.2574-10.3509a25.99133,25.99133,0,0,0-8.3336,2.2577c-4.4908,2.0173-9.6787,7.637-11.9361,9.8944a9.70868,9.70868,0,0,1-5.6195,2.4738l1.8013-5.4037s.6719-15.0823,3.8182-16.8836,21.1586-11.6956,21.1586-11.6956c13.0647-27.0185,30.6209-59.4406,30.6209-59.4406,1.8493-5.7643,3.9143-11.4078,6.0762-16.7396a303.50664,303.50664,0,0,1,19.141-39.0985l13.8575-12.9929,7.7572-7.277-10.3512-18.925,22.5271-20.486,16.6438,18.2527c2.4016-1.273,4.7551-2.4738,7.0606-3.6265a341.43541,341.43541,0,0,1,33.1908-14.6262c24.8807-9.3181,39.243-10.8074,39.243-10.8074,34.2234,2.7139,66.8612,13.7373,66.8612,13.7373l13.9537,7.6614S561.6891,1033.593,560.3441,1034.9377Z"/><path d="M450.0233,1121.3817l-40.9838,19.8439a121.10591,121.10591,0,0,1-14.7855-9.5974,257.12393,257.12393,0,0,1-32.7264-29.8296s-3.891-13.4889-10.8945-13.4889c-3.8045,0-8.344,11.0243-13.272,23.0862-4.1501,10.0301-8.6031,20.7516-13.1427,26.4575-10.0301,12.4513-23.9507,42.7137-19.8871,52.6572,0,0-.3452,1.3827-.9077,3.329-1.2967-.9943-2.8962-2.0751-4.1501-1.6001-2.6804.9943-6.9603,17.3361-5.793,23.9074-1.038-.5193-2.2481-2.1616-2.4207-4.6694-.2164-3.1558,2.2476-10.3752,2.2476-10.3752a26.29546,26.29546,0,0,0-8.344,2.2481c-4.4957,2.0318-9.6839,7.6511-11.932,9.8993a9.71519,9.71519,0,0,1-5.6199,2.4645l1.816-5.404s.648-15.0447,3.8039-16.8601c3.1563-1.8164,21.1843-11.7157,21.1843-11.7157,13.0561-27.0199,30.608-59.4439,30.608-59.4439,1.8592-5.7502,3.891-11.3706,6.0526-16.7313a301.795,301.795,0,0,1,19.1515-39.0819l13.8773-13.0128,7.7386-7.2627-10.3319-18.9362,22.5237-20.4908,16.6442,18.287c2.3774-1.2971,4.7554-2.5078,7.0468-3.6318.3457-.1731.7346-.3462,1.0808-.5183-.0866.9499-.2164,1.9885-.3029,3.026v.0433c-1.2539,11.1099-5.3175,26.8902-17.5092,37.6549-6.8732,6.1386-16.4278,10.6349-29.5267,11.759,0,0,10.6349,27.9709,24.3391,26.1555,13.6614-1.8154,15.4774-19.1525,33.4182-22.8266,15.9096-3.2424,23.9507-5.0145,27.8849-13.2292,2.1184,6.3549.389,11.7589.389,17.3793,0,4.0636.3895,10.808.8211,17.639C448.9425,1109.8391,450.0233,1121.3817,450.0233,1121.3817Z" style="mix-blend-mode:soft-light" opacity=".19"/><path d="M555.4229,1035.9564c-3.1559.2153-6.5714.1287-6.5714.1287l-.2163-3.4155-2.0318.9088s-3.8472-.9088-4.7121-2.6809c-.9077-1.8154,0-9.4675,0-9.4675-19.8434-6.7445-69.8198-3.5886-69.8198-3.5886l-18.8918,10.3763-21.141,11.6724a96.84628,96.84628,0,0,0-8.43-4.7992l-5.8363-18.5889c2.0751-.9943,4.1069-1.9463,6.1392-2.8107,1.3399-.6048,2.6798-1.1674,3.977-1.6856a27.24842,27.24842,0,0,0,12.1051,8.2136c3.0693.9077,6.744.0433,10.6349-1.6423,9.2085-3.8482,19.8006-12.1484,27.6686-12.3648,11.2835-.3029,47.123.9077,56.8501,6.3983,3.2424,1.8164,5.8363-.3895,7.8248-4.1069,2.4639.7346,3.8477,1.2107,3.8477,1.2107l13.9638,7.6521s-6.7877,1.6423-7.0896,5.879C553.4777,1026.4023,553.7368,1032.411,555.4229,1035.9564Z" style="mix-blend-mode:soft-light" opacity=".19"/><path fill="#efbb29" d="M447.2994,1080.8814c0,4.0586.384,10.8073.8408,17.6279-16.5717,19.0929-43.8299,29.7083-53.8932,33.1184a254.41005,254.41005,0,0,1-32.71-29.8282s-3.7707,3.7705-12.2246,17.2436c-7.3251-3.194-14.1453-9.2222-18.4203-13.4731a303.50664,303.50664,0,0,1,19.141-39.0985l13.8575-12.9929c8.1412,5.3556,24.4004,13.5693,36.5769,3.9868,13.9771-11.0237,9.1503-29.8765,7.0606-36.0486a341.43541,341.43541,0,0,1,33.1908-14.6262c8.9821,5.5479,11.6957,15.0823,12.4404,21.4467l-26.1061,14.3618C453.6154,1060.1549,447.2994,1070.074,447.2994,1080.8814Z"/><path d="M408.3044,1023.9377c-.2591-.9953-.5615-1.8164-.7779-2.5077.3457-.1731.7346-.3462,1.0808-.5183C408.5207,1021.8616,408.3909,1022.9002,408.3044,1023.9377Z" style="mix-blend-mode:soft-light" opacity=".19"/><path d="M447.2997,1080.8739c0,4.0636.3895,10.808.8211,17.639-16.5571,19.1082-43.7934,29.6998-53.8668,33.1153a257.12393,257.12393,0,0,1-32.7264-29.8296s-3.891-13.4889-10.8945-13.4889c-3.8045,0-8.344,11.0243-13.272,23.0862a76.54254,76.54254,0,0,1-6.4848-5.8367,301.795,301.795,0,0,1,19.1515-39.0819l13.8773-13.0128c6.0958,4.0213,16.7745,9.6406,26.8901,8.1714-6.8732,6.1386-16.4278,10.6349-29.5267,11.759,0,0,10.6349,27.9709,24.3391,26.1555,13.6614-1.8154,15.4774-19.1525,33.4182-22.8266,15.9096-3.2424,23.9507-5.0145,27.8849-13.2292C449.0291,1069.8495,447.2997,1075.2535,447.2997,1080.8739Z" style="mix-blend-mode:soft-light" opacity=".19"/><path d="M453.1797,1028.2177l-21.141,11.6724a96.84628,96.84628,0,0,0-8.43-4.7992l-5.8363-18.5889c2.0751-.9943,4.1069-1.9463,6.1392-2.8107,1.3399-.6048,2.6365-1.1674,3.9337-1.7289h.0433v.0433a27.24842,27.24842,0,0,0,12.1051,8.2136c3.0693.9077,6.744.0433,10.6349-1.6423A34.46783,34.46783,0,0,1,453.1797,1028.2177Z" style="mix-blend-mode:soft-light" opacity=".19"/><path fill="#ed8a3a" d="M400.4764,1024.3568s-4.7282,77.903-19.138,103.5705,39.4018,27.6938,39.4018,27.6938l23.1907-24.3166s2.2516-83.7569-23.8662-120.2317C420.0647,1011.0728,405.2046,1017.6022,400.4764,1024.3568Z"/><path d="M415.7401,1030.8975c27.1066,47.4253,21.0112,101.6817,21.0112,101.6817s-1.124,3.9337-2.6376,9.0358l-6.528,6.8732c.3029-1.8586.6491-3.8904,1.0808-6.1818,9.468-51.662-16.4279-104.4914-17.8111-107.2577,16.9466,84.2157-8.5165,113.4395-8.5165,113.4395s-1.6001,1.5136-3.9348,3.7185a55.30038,55.30038,0,0,1-8.3002-2.9395c23.9074-36.1857,14.3533-114.4782,14.3533-114.4782-1.5136,67.7442-15.7803,95.7584-24.3402,106.2635-1.8154-3.4588-1.7721-7.782,1.2107-13.1417,14.4398-25.6373,19.152-103.5414,19.152-103.5414,4.7121-6.7866,19.5836-13.3158,19.5836-13.3158,13.4456,18.8064,19.3679,50.1928,21.9622,76.1753C434.2436,1048.7096,416.8209,1031.935,415.7401,1030.8975Z" style="mix-blend-mode:soft-light" opacity=".19"/><path fill="#b7765a" d="M1265.5133,903.9045l-14.866,9.8947-5.8364-2.6898s-5.4036,11.696-9.9184,12.6086c-4.4914.8886-24.7611-4.5151-24.7611-4.5151l-21.6147-14.4098s-26.7781-1.6089-57.6634-3.3143c-36.8407-2.0654-79.5419-4.3228-89.5812-4.3228-3.8423,0-10.591-.6004-18.9006-1.5614-7.613-.8883-16.547-2.0651-25.6974-3.338-2.954-.4084-5.956-.8408-8.934-1.2729-25.9378-3.7467-50.9392-7.8054-50.9392-7.8054l1.8012,62.6109-.7681.2398L798.8269,990.2436l-8.8379,2.8097s-22.9598-76.0837-24.761-77.4528c-.7201-.5283-13.4008,1.9454-29.4682,5.6678-.5523.1439-1.1046.2641-1.681.3843-11.2395,2.6418-23.9443,5.8359-35.2799,9.0062-12.7288,3.5544-23.7285,7.0607-29.036,9.7267-10.6151,5.2835-40.8994,21.1343-69.1668,34.3433-17.3638,8.1175-33.9594,15.2263-44.7668,18.3245l-3.8182,13.5212-3.915,3.8426-10.0627,9.9188-2.4738,2.4497s-4.6831-.3363-5.956-3.9868c-.8408-2.3776-.1923-6.1721,4.1548-12.2243l-27.9074-6.9888a.86926.86926,0,0,0,.0962-.1202c1.0806-1.2486,9.871-11.4078,17.46-15.4184,8.1172-4.2749,18.4684-4.9475,18.4684-4.9475s24.7851-35.8082,55.9823-57.7351a120.3337,120.3337,0,0,1,13.8095-8.4539c34.968-18.1081,49.0653-23.2239,69.1673-40.8038,1.3925-1.1767,2.7856-2.4497,4.2269-3.7704a249.53787,249.53787,0,0,1,28.5071-22.1193,284.06756,284.06756,0,0,1,25.2172-15.2744c12.6567-6.7728,26.1061-12.6807,39.3632-16.4271a110.889,110.889,0,0,1,23.2717-4.2029c.5523-.024,1.0806-.0481,1.633-.0721l13.0647-1.8012,4.4914-23.8725,59.8967-2.6895,13.9537,20.7018s4.4432-.1439,10.9516-.216c8.6461-.0959,21.0143-.0238,31.5813.7446a106.38744,106.38744,0,0,1,13.7613,1.7291c8.0457,1.7291,23.8247,8.6218,38.7387,15.4427,15.9707,7.3729,30.9329,14.6977,34.1993,15.6347a26.50536,26.50536,0,0,0,2.978.5042c8.7177,1.1287,33.5028,3.3143,64.7962,9.5104h.024c27.4987,5.4758,59.9929,14.0976,90.9504,27.8112,0,0,27.6903-2.2577,33.094-3.1704,5.4037-.8885,40.5159,4.5151,40.5159,4.5151Z"/><path d="M938.5878,945.774l-.7351.2597L798.8191,990.2599l-8.8195,2.8096s-22.9564-76.0876-24.7718-77.4713c-.7352-.5183-13.4024,1.9452-29.4845,5.6636q-.77745.1947-1.6856.3884c-11.1975,2.6376-23.9074,5.8368-35.2775,8.9926-12.7104,3.5886-23.6915,7.0896-29.009,9.7272-10.6349,5.3175-40.8972,21.14-69.1711,34.3692-17.3794,8.1282-33.9798,15.2178-44.7877,18.3303l-3.805,13.4889-3.8905,3.8472-10.0734,9.9436-2.4639,2.4212s-4.7122-.3029-5.9661-3.9781c-.8644-2.3769-.2163-6.1818,4.1501-12.2339l-27.9277-6.9608.1299-.1298c1.0808-1.2529,9.857-11.4128,17.4226-15.4341a44.48006,44.48006,0,0,1,10.2887-3.6308,54.56014,54.56014,0,0,1,8.2142-1.2972c26.631-4.9713,46.4743-12.7965,61.1733-21.9611,30.8244-19.1958,39.3843-44.2263,41.3733-60.871,14.0071-7.3059,24.08-13.4023,36.401-24.167,1.3837-1.1674,2.7669-2.4645,4.2366-3.7607a246.65443,246.65443,0,0,1,28.4903-22.1352,282.2887,282.2887,0,0,1,25.204-15.2611,201.1541,201.1541,0,0,1,39.3843-16.4283,111.41731,111.41731,0,0,1,23.2588-4.1934c.562-.0433,1.0808-.0433,1.6428-.0855l13.0562-1.8164,4.4963-23.8642,59.9189-2.6798,13.9205,20.7083s4.4531-.1731,10.9811-.2164c4.5829-.0433,10.2465-.0433,16.0822.0433-7.1329,26.9767-30.4782,82.356-102.1566,92.8622,0,0,.7346,1.8586,2.2914,4.8847,5.9655,11.8888,24.166,41.9358,56.7198,46.7773,23.3459,3.502,45.5234,1.599,60.1791-1.9453Z" style="mix-blend-mode:soft-light" opacity=".19"/><path d="M1265.508,903.9258l-14.8716,9.8559-5.8367-2.6798s-5.404,11.7157-9.9003,12.6244c-4.4958.8634-24.7718-4.5406-24.7718-4.5406l-21.616-14.3955s-26.7604-1.599-57.6708-3.329c-36.8337-2.0317-79.5474-4.3232-89.577-4.3232a185.56687,185.56687,0,0,1-18.8924-1.5568c-7.6089-.8644-16.5582-2.0317-25.6795-3.3289-2.9833-.3884-5.9666-.8212-8.9493-1.2529-13.5749-1.9452-26.8469-4.0202-36.4443-5.4905-2.6809-26.5017-6.0098-58.2766-8.5166-81.8821,2.9828.3461,5.6632.7356,7.954,1.2116a105.71957,105.71957,0,0,1,14.3101,4.7982,208.1504,208.1504,0,0,0,19.2813,21.616c10.0301,9.7704,21.5294,18.8063,34.3697,25.4199,1.8159.9942,3.6746,1.8597,5.5766,2.7241,27.9709,12.5801,67.3557,21.8757,99.5633,26.4152,28.7061,4.0636,51.7486,4.3232,56.0285-.2596a26.31918,26.31918,0,0,0,5.2747-9.0359,7.41932,7.41932,0,0,0-2.6804-2.7664s1.3832-.1298,3.5881-.3029c4.0641-.3462,11.0238-.951,17.2495-1.5135.6919,4.2799,2.4207,8.8195,6.3988,11.8033,9.7272,7.2626,31.6023,19.4544,46.7767-6.7023.0428-.0854.0861-.1287.1293-.2153Z" style="mix-blend-mode:soft-light" opacity=".19"/><path fill="#d19262" d="M937.9156,921.7248l.6966,24.0644-.7681.2398L798.8375,990.2436l-8.8384,2.8097s-3.4348-11.3838-7.7573-25.4333Z"/><path fill="#efbb29" d="M1022.3715,895.5946c-7.613-.8883-16.547-2.0651-25.6974-3.338,2.0416,7.8053,3.8429,15.7068,5.4758,23.5362-6.4608-7.8534-11.552-15.0343-11.552-15.0343s-1.2729-3.7707-2.8578-9.7748c-2.6901-10.2551-6.2926-27.1146-5.8358-42.8933.2638-10.4951,2.3289-20.51,7.5889-27.8108,15.9707,7.3729,30.9329,14.6977,34.1993,15.6347a26.50536,26.50536,0,0,0,2.978.5042C1019.6339,844.344,1014.1341,860.9392,1022.3715,895.5946Z"/><path d="M996.6919,892.2523c2.0318,7.8252,3.8039,15.6937,5.4473,23.5623-6.4416-7.8686-11.5432-15.0447-11.5432-15.0447s-1.2539-3.7617-2.8534-9.7705c-2.6804-10.2897-6.3117-27.1498-5.8362-42.929a63.95987,63.95987,0,0,1,2.4207-16.8178c10.0301,9.7704,21.5294,18.8063,34.3697,25.4199-1.0808,9.382-.3457,22.0054,3.6746,38.9087C1014.7625,894.7168,1005.8132,893.5495,996.6919,892.2523Z" style="mix-blend-mode:soft-light" opacity=".19"/><path fill="#efbb29" d="M936.9932,803.1078c-5.5233,48.2729-24.6168,112.1564-59.6329,119.6976-54.9011,11.8158-87.2751-70.1999-99.2112-108.2898a110.889,110.889,0,0,1,23.2717-4.2029c23.3439,22.8634,72.4098,58.2635,103.9911-7.9495C914.058,802.2673,926.4262,802.3394,936.9932,803.1078Z"/><path d="M921.5109,802.4172c-7.1329,26.9767-30.4782,82.356-102.1566,92.8622,0,0,.7346,1.8586,2.2914,4.8847-22.0487-24.7286-36.4015-62.9882-43.4916-85.6428a111.41731,111.41731,0,0,1,23.2588-4.1934c23.3454,22.8266,72.4135,58.2334,104.0158-7.954C910.0116,802.3306,915.6752,802.3306,921.5109,802.4172Z" style="mix-blend-mode:soft-light" opacity=".19"/><path fill="#2d263a" d="M816.109,808.435s12.6086,150.4023-36.9251,222.4513-87.3594,61.2416-87.3594,61.2416,61.2417-171.1164,46.8319-262.0782C738.6564,830.0497,769.2772,799.4289,816.109,808.435Z"/><path fill="#2d263a" d="M1015.1426,1011.0656s-84.6578,126.9986-75.6516,7.2049a378.67444,378.67444,0,0,0-1.657-72.2415,430.98562,430.98562,0,0,0-16.187-76.3478,415.97363,415.97363,0,0,0-21.9273-56.7748c-3.2178-6.7007-5.2594-10.3272-5.2594-10.3272,21.6147-14.866,56.2942,2.2577,56.2942,2.2577,12.6326,8.5497,22.8877,24.2325,31.1498,43.2535a304.335,304.335,0,0,1,14.7698,44.1662c2.0416,7.8053,3.8429,15.7068,5.4758,23.5362A736.02518,736.02518,0,0,1,1015.1426,1011.0656Z"/><path d="M816.1119,808.426c-46.8206-8.9916-77.4719,21.6159-77.4719,21.6159,14.4393,90.9603-46.82,262.0717-46.82,262.0717s37.8279,10.808,87.3716-61.2161C828.7353,958.8301,816.1119,808.426,816.1119,808.426Zm-31.3865,202.3691-30.9109-4.1934c-5.6632,25.5064-17.0337,72.1539-8.8623-1.2106l-18.5899-2.5078s26.7603-91.8247,23.691-167.1777c0,0,10.3325,39.5135-3.6319,156.8457-.5615,4.6251-1.0375,8.906-1.4692,12.8398l8.8623,1.2106c1.7293-7.6954,2.94-13.4456,2.94-13.4456s17.0331-102.1567,10.3319-159.267l14.613-3.6741s2.4207,98.4826-7.3065,159.9151c-9.7272,61.3891,20.6645-38.303,17.0337-134.9701C791.4266,855.16,819.3543,899.516,784.7254,1010.7951Z" style="mix-blend-mode:soft-light" opacity=".19"/><path d="M1015.1426,1011.0656s-84.6578,126.9986-75.6516,7.2049a378.67444,378.67444,0,0,0-1.657-72.2415,430.98562,430.98562,0,0,0-16.187-76.3478,415.97363,415.97363,0,0,0-21.9273-56.7748c-3.2178-6.7007-5.2594-10.3272-5.2594-10.3272,21.6147-14.866,56.2942,2.2577,56.2942,2.2577,12.6326,8.5497,22.8877,24.2325,31.1498,43.2535a304.335,304.335,0,0,1,14.7698,44.1662c2.0416,7.8053,3.8429,15.7068,5.4758,23.5362A736.02518,736.02518,0,0,1,1015.1426,1011.0656Z" style="mix-blend-mode:soft-light" opacity=".19"/><path fill="#efbb29" d="M1188.5167,904.7931s-26.7781-1.6089-57.6634-3.3143c-5.019-13.233-16.9791-38.5942-39.3626-55.5499,27.4987,5.4758,59.9929,14.0976,90.9504,27.8112C1182.4411,873.7401,1191.2308,877.7747,1188.5167,904.7931Z"/><path d="M1188.5116,904.7902s-26.7604-1.599-57.6708-3.329a151.97659,151.97659,0,0,0-7.0041-15.6494c28.7061,4.0636,51.7486,4.3232,56.0285-.2596a26.31918,26.31918,0,0,0,5.2747-9.0359C1187.4741,880.1049,1190.1982,888.0156,1188.5116,904.7902Z" style="mix-blend-mode:soft-light" opacity=".19"/><path fill="#efbb29" d="M734.0788,921.6526c-11.2395,2.6418-23.9443,5.8359-35.2799,9.0062,5.7162-37.8739-6.0041-52.812-17.9642-58.552,1.3925-1.1767,2.7856-2.4497,4.2269-3.7704a249.53787,249.53787,0,0,1,28.5071-22.1193C739.5786,863.0286,737.4414,901.1906,734.0788,921.6526Z"/><path d="M734.0788,921.6526c-11.2395,2.6418-23.9443,5.8359-35.2799,9.0062,5.7162-37.8739-6.0041-52.812-17.9642-58.552,1.3925-1.1767,2.7856-2.4497,4.2269-3.7704a249.53787,249.53787,0,0,1,28.5071-22.1193C739.5786,863.0286,737.4414,901.1906,734.0788,921.6526Z" style="mix-blend-mode:soft-light" opacity=".19"/><path fill="#efbb29" d="M600.5961,974.7288c-17.3638,8.1175-33.9594,15.2263-44.7668,18.3245a22.64391,22.64391,0,0,0-13.9537-13.9537s24.7851-35.8082,55.9823-57.7351C606.6002,933.8051,603.4059,959.8384,600.5961,974.7288Z"/><path d="M603.0646,957.1446c-.562,6.4848-1.5563,12.6666-2.4645,17.5946-17.3794,8.1282-33.9798,15.2178-44.7877,18.3303a22.569,22.569,0,0,0-13.9211-13.9638C568.5223,974.1344,588.3656,966.3092,603.0646,957.1446Z" style="mix-blend-mode:soft-light" opacity=".19"/><path fill="#493325" d="M1027.0881,766.2187l-8.2134-58.3119,39.1709,32.4222,20.7024,103.2223c-5.0437-.8886-9.8716-1.657-14.4098-2.3535-10.9517-1.657-20.2463-2.762-27.2108-3.5785Z"/><path fill="#493325" d="M1158.002,1238.8131,827.0322,1377.9639,500.1209,1488.7274,343.414,1165.8751,690.595,996.992l-19.7409-57.111L653.97,891.1039,590.6385,707.9068l37.8258-16.211,28.2192,82.3763,31.3656,91.5742,21.3028,62.1547,19.0689,55.6938,10.3992-3.0742L782.2418,967.62l155.6738-45.8952,87.4921-25.7936h.0234c6.893.7684,12.489,1.2248,15.8511,1.2248,1.2008,0,2.8343.0241,4.8994.0959,6.3641.192,16.5711.6485,28.6754,1.2489,4.7552.2161,9.8224.4805,15.0584.7444Z"/><path fill="#493325" d="M345.2633,1074.9972a310.37593,310.37593,0,0,0-14.3617,30.5728c-2.1613,5.3318-4.2264,10.9753-6.0757,16.7396,0,0-.8408,1.5608-2.3054,4.2747l-58.8167-110.6674,35.1357-24.3286Z"/><path fill="#493325" d="M392.0472,1159.1026l-48.6332,6.7725-10.3031-19.3571c2.3301-3.8425,4.6356-7.7575,6.8214-11.5998,3.6259-6.3884,6.7476-11.6241,9.3896-15.8751,6.1484-9.7985,9.8235-14.4579,11.3844-16.2831Z"/><path fill="#ed9e2b" d="M980.5928,697.0995C902.251,561.0947,769.849,552.0886,729.3331,569.2122c-40.5394,17.0997-84.6578,72.0492-88.2602,116.1673-3.6025,44.1421,37.8258,54.9495,37.8258,54.9495-8.6942-8.0695-9.6781-26.394-1.8012-37.5857a21.14477,21.14477,0,0,1,16.211-9.2463c14.0264-1.0806,28.0516,13.3533,27.1627,29.5643v.0241c-.6004,10.8311-7.8769,22.4549-26.2738,30.7408-45.9196,20.7261-73.8504-28.8197-73.8504-28.8197.9124,24.3286-8.0938,76.5642-54.9257,77.4528-33.6229.6485-41.7167-27.931-32.6379-43.4455a19.0737,19.0737,0,0,1,18.2281-9.6787c10.255.6245,16.5476,4.1307,20.3658,8.4779,7.2776,8.2374,5.7403,19.4291,5.7403,19.4291,47.7442-62.1303-101.7577-134.1795-190.9303-87.3475-89.1491,46.8319-65.7331,256.663-90.0614,311.6125-24.3049,54.9255-95.4651,56.7267-116.1675,42.3169-6.0522-4.2029-10.1824-12.5606-11.864-22.0953-4.0351-23.0794,6.3641-52.98,38.8824-47.24a60.62149,60.62149,0,0,1,14.5787,4.3471h.0235c28.7962,12.9926,20.51,43.3734,20.51,43.3734,40.5394-9.8947,31.0771-64.3878,31.0771-64.3878-14.8895-19.2131-26.3453-36.8653-34.8953-53.0283-49.4493-93.1837-3.6025-137.8301,26.6573-155.7462a108.34645,108.34645,0,0,1,21.7355-10.063c8.1172-332.3385,202.6499-370.1643,202.6499-370.1643C718.358,344.3469,819.9949,443.5345,858.59,500.0209c14.6737,21.4708,20.2451,36.7692,20.2451,36.7692,179.499-11.3356,148.6623,72.7457,145.5395,129.4721-.6004,11.0238-.1677,20.9903,3.0501,29.036,19.8135,49.5218,63.043,37.8258,63.043,37.8258-1.2489-5.812-2.1378-11.1436-2.6901-16.0427-6.9165-61.4822,37.6827-55.2858,61.2664-37.2975,5.8364,4.4189,10.3993,9.5825,12.5605,14.6018C1173.3242,721.404,1058.9579,833.0802,980.5928,697.0995Z"/><circle cx="555.504" cy="1453.611" r="259.376" fill="#5e422b"/><circle cx="555.504" cy="1453.611" r="232.988" transform="rotate(-45 555.504 1453.611)" style="mix-blend-mode:soft-light" opacity=".19"/><circle cx="555.504" cy="1453.611" r="205.234" fill="#493325"/><circle cx="555.504" cy="1453.611" r="93.781" fill="#5e422b" transform="rotate(-45 555.504 1453.611)"/><rect width="15.135" height="195.806" x="546.989" y="1258.751" fill="#5e422b"/><rect width="15.135" height="196.021" x="547.129" y="1258.751" fill="#5e422b" transform="rotate(-.081 554.669 1356.688)"/><rect width="15.133" height="196.019" x="522.091" y="1262.261" fill="#5e422b" transform="rotate(-15.081 529.657 1360.27)"/><rect width="15.134" height="196.018" x="498.812" y="1272.131" fill="#5e422b" transform="rotate(-30.081 506.377 1370.137)"/><rect width="15.133" height="196.019" x="478.882" y="1287.69" fill="#5e422b" transform="rotate(-45.081 486.449 1385.7)"/><rect width="15.136" height="196.018" x="463.658" y="1307.878" fill="#5e422b" transform="rotate(-60.081 471.226 1405.887)"/><rect width="15.133" height="196.016" x="454.178" y="1331.317" fill="#5e422b" transform="rotate(-75.081 461.744 1429.325)"/><rect width="196.018" height="15.135" x="360.645" y="1446.852" fill="#5e422b" transform="rotate(-.075 458.649 1454.396)"/><rect width="196.019" height="15.133" x="364.152" y="1471.892" fill="#5e422b" transform="rotate(-15.077 462.162 1479.46)"/><rect width="196.019" height="15.134" x="374.024" y="1495.169" fill="#5e422b" transform="rotate(-30.087 472.034 1502.737)"/><rect width="196.019" height="15.133" x="389.581" y="1515.101" fill="#5e422b" transform="rotate(-45.079 487.59 1522.667)"/><rect width="196.018" height="15.136" x="409.769" y="1530.323" fill="#5e422b" transform="rotate(-60.089 507.778 1537.89)"/><rect width="196.019" height="15.133" x="433.207" y="1539.805" fill="#5e422b" transform="rotate(-75.077 531.217 1547.371)"/><rect width="15.135" height="196.018" x="548.743" y="1452.453" fill="#5e422b" transform="rotate(-.081 556.28 1550.369)"/><rect width="15.133" height="196.017" x="573.784" y="1448.945" fill="#5e422b" transform="rotate(-15.081 581.35 1546.954)"/><rect width="15.134" height="196.019" x="597.061" y="1439.073" fill="#5e422b" transform="rotate(-30.081 604.628 1537.083)"/><rect width="15.133" height="196.019" x="616.992" y="1423.516" fill="#5e422b" transform="rotate(-45.081 624.559 1521.526)"/><rect width="15.136" height="196.018" x="632.214" y="1403.33" fill="#5e422b" transform="rotate(-60.081 639.782 1501.338)"/><rect width="15.133" height="196.019" x="641.696" y="1379.889" fill="#5e422b" transform="rotate(-75.081 649.262 1477.899)"/><rect width="196.018" height="15.135" x="554.345" y="1445.237" fill="#5e422b" transform="rotate(-.075 652.34 1452.77)"/><rect width="196.019" height="15.133" x="550.836" y="1420.199" fill="#5e422b" transform="rotate(-15.077 648.846 1427.766)"/><rect width="196.018" height="15.134" x="540.965" y="1396.92" fill="#5e422b" transform="rotate(-30.087 638.974 1404.487)"/><rect width="196.019" height="15.133" x="525.408" y="1376.991" fill="#5e422b" transform="rotate(-45.079 623.417 1384.558)"/><rect width="196.02" height="15.136" x="505.22" y="1361.765" fill="#5e422b" transform="rotate(-60.089 603.23 1369.333)"/><rect width="196.019" height="15.133" x="481.78" y="1352.285" fill="#5e422b" transform="rotate(-75.077 579.79 1359.852)"/><rect width="15.135" height="196.021" x="547.129" y="1258.751" fill="#5e422b" transform="rotate(-.081 554.669 1356.688)"/><circle cx="555.504" cy="1453.611" r="78.793" fill="#493325" transform="rotate(-45 555.504 1453.611)"/><circle cx="555.504" cy="1453.611" r="51.747" fill="#5e422b" transform="rotate(-80.783 555.504 1453.611)"/><path fill="#5e422b" d="M1037.1274,837.6193l-10.0393-71.4006,25.8904,12.9446,11.3597,62.0345C1053.3865,839.5408,1044.0919,838.4358,1037.1274,837.6193Z"/><path fill="#5e422b" d="M1134.898,1226.1564,844.9483,1342.4916,691.9881,932.6283l-19.9097-53.3646-33.8387-90.6378,18.4438-14.5538,31.3656,91.5742,21.3028,62.1547,19.0689,55.6938,10.3992-3.0742,12.8971,36.5048,62.1541-16.211,90.5176,280.9916,33.7672-12.1521L846.2933,992.6212l22.9598-8.1179,91.8627,275.588,33.7672-13.4969L905.7339,973.6959l76.9966-22.9595,79.7103,278.2778,24.4479-9.1023-66.3324-284.0418,32.4222-9.4623-6.7969-29.1559c6.3641.192,16.5711.6485,28.6754,1.2489Z"/><polygon fill="#5e422b" points="360.409 1174.984 696.337 1017.377 813.417 1333.492 678.325 1075.917 360.409 1174.984"/><path fill="#efbb29" d="M858.59,500.0209C574.404,488.8054,351.5559,703.9922,335.6333,622.4564c-16.211-83.0726,153.6802-253.6368,153.6802-253.6368C718.358,344.3469,819.9949,443.5345,858.59,500.0209Z"/><path fill="#efbb29" d="M1024.3746,666.2622c-14.7933-16.8114-35.7127-53.7243-87.5637-73.5138-74.3065-28.3875-57.9758-55.9583-57.9758-55.9583C1058.3341,525.4545,1027.4974,609.5358,1024.3746,666.2622Z"/><path fill="#efbb29" d="M1149.044,679.7838c-3.4348,15.0583-13.0413,30.0445-31.2213,39.9389-13.8341,7.5655-23.5837,3.6746-30.0451-2.6414C1080.8611,655.5991,1125.4603,661.7955,1149.044,679.7838Z"/><path fill="#efbb29" d="M720.4712,723.0613v.0241c-8.5734,5.1632-18.6842,7.8771-28.8677,4.0586-10.8309-4.0349-14.2656-13.9537-14.506-24.4007a21.14477,21.14477,0,0,1,16.211-9.2463C707.3349,692.4164,721.3601,706.8503,720.4712,723.0613Z"/><path fill="#efbb29" d="M571.3773,757.813c-.6239,12.1761-4.5148,27.0424-19.5966,27.4265-13.834.3603-18.0603-13.4251-18.9973-26.2257a19.0737,19.0737,0,0,1,18.2281-9.6787C561.2665,749.9596,567.5591,753.4658,571.3773,757.813Z"/><path fill="#efbb29" d="M280.2514,881.8333c-11.9847,27.2829-27.4512,31.2694-41.9806,22.9598-49.4493-93.1837-3.6025-137.8301,26.6573-155.7462C278.2578,778.2028,299.8245,837.2831,280.2514,881.8333Z"/><path fill="#efbb29" d="M216.7522,1017.598c-14.6983,15.4667-33.1433,12.9929-48.6578,4.1307-4.0351-23.0794,6.3641-52.98,38.8824-47.24a60.62149,60.62149,0,0,1,14.5787,4.3471h.0235C226.5745,991.4684,227.8481,1005.926,216.7522,1017.598Z"/><path fill="#ed9e2b" d="M2205.6511,319.515s-206.6905-4.0528-210.7433,127.6618,141.8465,133.741,99.2925,216.8225-212.7697,77.0023-279.6401,121.5826-52.6859,447.8296-395.1438,350.5634c0,0,267.4819,308.0095,640.3355,147.9256S2440.711,974.0351,2349.524,781.5292s-237.0863-303.9567-147.9256-358.6689-12.1583,85.1078,131.7145,105.3716S2523.7925,246.5654,2205.6511,319.515Z"/><path d="M2442.9019,437.9867c-7.5649,52.2837-50.3136,98.5871-109.5865,90.2535C2189.4329,507.9705,2290.759,368.147,2201.61,422.8564c-52.7399,32.35-23.2483,84.5617,28.5077,161.6543-29.8293,15.5625-84.2497,55.5739-107.2095,147.3644-32.4221,129.6885,44.5746,281.6642-117.536,407.3178-112.4689,87.1556-199.5764,181.1557-84.7058,185.1903-298.5243,45.223-501.2458-188.2401-501.2458-188.2401,342.4492,97.2663,328.2798-305.9691,395.141-350.5674,66.8612-44.5742,237.0902-38.498,279.6466-121.5709,42.5575-83.0966-103.342-85.1139-99.308-216.8198,4.0598-131.7299,210.7438-127.6711,210.7438-127.6711,42.2209-9.6786,78.0297-12.7527,108.0268-10.8553-17.1481,27.9549-29.3966,62.8989-16.4996,96.9781C2312.5649,446.3444,2382.3567,446.4405,2442.9019,437.9867Z" style="mix-blend-mode:soft-light" opacity=".19"/><path fill="#efbb29" d="M1976.6704,714.6587s-85.1079-137.7937-214.7961-151.9784-514.7,91.1871-638.3091-24.3165c0,0,32.4221,174.2685,273.5611,182.374,0,0-121.5827,30.3957-208.717-36.4748,0,0,50.6595,206.6906,299.904,247.2182,0,0-127.6618,15.5355-224.928-83.0815,0,0,180.3477,328.2732,508.6209,263.4291S2011.1188,747.0808,1976.6704,714.6587Z"/><path fill="#efbb29" d="M2433.2809,470.1424s12.1583,99.968,56.7386,122.9336c0,0-116.179,17.562-132.39-58.0895S2433.2809,470.1424,2433.2809,470.1424Z"/><path fill="#ed9e2b" d="M1964.8499,926.4152s-28.3693-196.5587-174.2685-249.2445S1281.285,802.8061,1123.5652,538.3638c0,0,26.6807,213.7829,403.587,191.4927,0,0-158.7329,206.6906-338.7429-45.5935,0,0,81.3929,333.3392,549.4862,234.0467,0,0-345.1597,111.4508-474.5102-69.91,0,0,152.3161,209.7301,393.4551,191.4927s265.4555-99.2925,265.4555-99.2925-109.4244-190.4796-330.2996-194.5323C1591.9963,746.0676,1808.8188,656.9069,1964.8499,926.4152Z"/><path fill="#2d263a" d="M2380.9328,446.8391s8.781-20.2638-12.8337-42.554-47.2822-18.2374-54.7122-33.0975c0,0,3.6024,13.9595,21.6147,22.9656S2365.6224,441.8857,2380.9328,446.8391Z"/><path fill="#efbb29" d="M575.7971,348.6938c-103.7031-9.0061-142.9455,38.2581-137.9265,14.8421,2.8578-13.3771,28.2673-29.7803,51.5156-42.2449C520.631,318.9134,552.5488,333.8996,575.7971,348.6938Z"/><path d="M1186.0476,873.447c-.2591,1.0375-.5621,2.0751-.9077,3.0693a7.41932,7.41932,0,0,0-2.6804-2.7664S1183.8427,873.6201,1186.0476,873.447Z"/><path fill="#006837" d="M484.3486,1018.6002a1.23323,1.23323,0,0,1-.4071-.0679,1.27436,1.27436,0,0,1-.8039-1.6182c2.1298-6.3895,4.0142-12.9981,5.763-20.2123a1.26635,1.26635,0,0,1,1.5451-.9397,1.27931,1.27931,0,0,1,.9397,1.5452c-1.7644,7.2821-3.6698,13.9586-5.8257,20.4211A1.27549,1.27549,0,0,1,484.3486,1018.6002Z"/><path fill="#c1272d" d="M488.1959,1018.5167a1.36943,1.36943,0,0,1-.402-.0627,1.28845,1.28845,0,0,1-.8143-1.6182c2.0515-6.1963,3.8942-12.6171,5.6377-19.6225a1.26621,1.26621,0,0,1,1.5504-.9344,1.28643,1.28643,0,0,1,.9344,1.5504c-1.7592,7.0733-3.6228,13.5514-5.69,19.8104A1.2798,1.2798,0,0,1,488.1959,1018.5167Z"/><path fill="#006837" d="M491.9596,1018.4279a1.281,1.281,0,0,1-1.2163-1.6704c2.0097-6.2851,3.7846-12.7006,5.2827-19.0535a1.28144,1.28144,0,1,1,2.4953.5847c-1.5139,6.4207-3.3148,12.8989-5.3454,19.2518A1.27318,1.27318,0,0,1,491.9596,1018.4279Z"/><path fill="#c1272d" d="M495.8486,1018.3862a1.44091,1.44091,0,0,1-.3863-.0575,1.2865,1.2865,0,0,1-.8352-1.6078c1.8635-5.8726,3.5705-12.0689,5.0791-18.4166a1.27753,1.27753,0,0,1,2.4848.5951c-1.519,6.4051-3.2417,12.6641-5.1209,18.5941A1.28925,1.28925,0,0,1,495.8486,1018.3862Z"/><path fill="#006837" d="M499.5235,1018.3862a1.28128,1.28128,0,0,1-1.2163-1.6705c1.9367-6.0501,3.5706-12.048,4.8548-17.8267a1.2779,1.2779,0,1,1,2.4952.5533c-1.2998,5.857-2.9494,11.9332-4.9174,18.0564A1.27318,1.27318,0,0,1,499.5235,1018.3862Z"/><path fill="#c1272d" d="M503.329,1018.4279a1.22346,1.22346,0,0,1-.3863-.0626,1.26977,1.26977,0,0,1-.83-1.6026c1.8584-5.8518,3.4349-11.6357,4.6825-17.1899a1.27905,1.27905,0,0,1,2.4952.5638c-1.2633,5.6273-2.8554,11.4791-4.7451,17.3987A1.27139,1.27139,0,0,1,503.329,1018.4279Z"/><path fill="#006837" d="M507.004,1018.4697a1.44469,1.44469,0,0,1-.3863-.0574,1.28662,1.28662,0,0,1-.8352-1.6078c1.6078-5.0897,3.0694-10.5029,4.4684-16.5426a1.28021,1.28021,0,1,1,2.4952.5742c-1.4199,6.1075-2.8972,11.5835-4.5206,16.7409A1.28442,1.28442,0,0,1,507.004,1018.4697Z"/><path fill="#c1272d" d="M510.8094,1018.6002a1.17661,1.17661,0,0,1-.3758-.0574,1.275,1.275,0,0,1-.8457-1.5974c1.6287-5.2775,3.0329-10.4925,4.2962-15.9475a1.28021,1.28021,0,1,1,2.4952.5742c-1.2789,5.5177-2.704,10.79-4.3483,16.125A1.2779,1.2779,0,0,1,510.8094,1018.6002Z"/><path fill="#006837" d="M514.4844,1018.7724a1.22618,1.22618,0,0,1-.3602-.0522,1.27727,1.27727,0,0,1-.8665-1.5869c1.707-5.8256,2.9911-10.7065,4.0404-15.3524a1.29359,1.29359,0,0,1,1.5295-.9657,1.27883,1.27883,0,0,1,.9657,1.5295c-1.0597,4.6981-2.3543,9.6259-4.0822,15.509A1.27608,1.27608,0,0,1,514.4844,1018.7724Z"/><path fill="#c1272d" d="M518.2429,1018.9917a1.26349,1.26349,0,0,1-.3654-.0522,1.278,1.278,0,0,1-.8613-1.5921c1.4668-4.9017,2.7666-9.8609,3.8681-14.7469a1.27905,1.27905,0,1,1,2.4952.5638c-1.1119,4.9382-2.4326,9.96-3.9099,14.9139A1.28244,1.28244,0,0,1,518.2429,1018.9917Z"/><path fill="#006837" d="M521.8761,1019.2527a1.22951,1.22951,0,0,1-.3602-.0522,1.27732,1.27732,0,0,1-.8665-1.5869c1.4303-4.8704,2.6727-9.6416,3.6958-14.1883a1.27909,1.27909,0,0,1,2.4953.5637c-1.0336,4.599-2.2917,9.4224-3.7377,14.345A1.2762,1.2762,0,0,1,521.8761,1019.2527Z"/><path fill="#c1272d" d="M525.6346,1019.5972a1.33926,1.33926,0,0,1-.3497-.047,1.28083,1.28083,0,0,1-.8822-1.5817c1.4355-5.0008,2.5891-9.464,3.5288-13.6401a1.279,1.279,0,1,1,2.4952.5637c-.9501,4.2231-2.1194,8.7333-3.5601,13.7759A1.2811,1.2811,0,0,1,525.6346,1019.5972Z"/><path fill="#006837" d="M529.1373,1020.0305a1.3435,1.3435,0,0,1-.3497-.047,1.28271,1.28271,0,0,1-.8822-1.5817c1.2737-4.4736,2.4012-8.916,3.3565-13.2017a1.27792,1.27792,0,0,1,2.4952.5534c-.9657,4.3379-2.1037,8.8272-3.3878,13.3478A1.2811,1.2811,0,0,1,529.1373,1020.0305Z"/><path fill="#006837" d="M326.9827,1157.513a1.129,1.129,0,0,1-.4959-.1149c-5.2932-2.6309-10.6021-5.5229-15.7648-8.6027a1.11192,1.11192,0,0,1,1.138-1.9106c5.1157,3.0538,10.3671,5.9196,15.6186,8.5192a1.11246,1.11246,0,0,1-.4959,2.109Z"/><path fill="#c1272d" d="M325.2966,1160.2379a1.08619,1.08619,0,0,1-.4855-.1149c-4.8652-2.3542-9.9548-5.1261-15.556-8.4722a1.11192,1.11192,0,0,1,1.138-1.9106c5.549,3.3148,10.5812,6.0606,15.3889,8.3888a1.11094,1.11094,0,0,1-.4854,2.1089Z"/><path fill="#006837" d="M323.6575,1162.7853a1.09119,1.09119,0,0,1-.4907-.1148c-5.5334-2.7406-10.5395-5.4707-15.3002-8.347a1.10651,1.10651,0,0,1-.3759-1.5243,1.12033,1.12033,0,0,1,1.5243-.3758c4.7086,2.8449,9.6572,5.5437,15.1331,8.253a1.11166,1.11166,0,0,1-.4906,2.1089Z"/><path fill="#c1272d" d="M321.9296,1165.5102a1.0915,1.0915,0,0,1-.4907-.1148c-5.0009-2.4535-10.0592-5.2202-15.0444-8.2165a1.11009,1.11009,0,1,1,1.1484-1.9001c4.9278,2.965,9.9339,5.6951,14.8774,8.1225a1.11169,1.11169,0,0,1-.4907,2.1089Z"/><path fill="#006837" d="M320.2435,1168.1046a1.08605,1.08605,0,0,1-.4855-.1148c-4.6772-2.276-9.5006-4.9226-14.7468-8.0912a1.11009,1.11009,0,1,1,1.1484-1.9001c5.1888,3.132,9.9548,5.7473,14.5694,7.9972a1.111,1.111,0,0,1-.4855,2.1089Z"/><path fill="#c1272d" d="M318.4687,1170.7825a1.09119,1.09119,0,0,1-.4907-.1148c-4.7817-2.3647-9.6364-5.027-14.4389-7.9137a1.11009,1.11009,0,1,1,1.1484-1.9001c4.7451,2.8501,9.5476,5.4863,14.2718,7.8197a1.11166,1.11166,0,0,1-.4906,2.1089Z"/><path fill="#006837" d="M316.7825,1173.3769a1.05338,1.05338,0,0,1-.4959-.12c-4.7816-2.3856-9.5371-5.0009-14.1308-7.778a1.11009,1.11009,0,1,1,1.1484-1.9001c4.5467,2.7405,9.2448,5.3297,13.9743,7.6944a1.111,1.111,0,0,1-.496,2.1037Z"/><path fill="#c1272d" d="M314.9659,1176.0601a1.10075,1.10075,0,0,1-.5063-.1253c-4.8443-2.4691-9.3336-4.9591-13.7289-7.6057a1.11009,1.11009,0,1,1,1.1484-1.9001c4.3484,2.6205,8.7959,5.0844,13.5932,7.5326a1.111,1.111,0,0,1-.5064,2.0985Z"/><path fill="#006837" d="M313.2798,1178.6075a1.09108,1.09108,0,0,1-.4906-.1148c-4.5468-2.2499-9.0726-4.7556-13.4471-7.4439a1.10838,1.10838,0,1,1,1.1589-1.8897c4.3222,2.6518,8.7854,5.1209,13.2695,7.3395a1.11166,1.11166,0,0,1-.4907,2.1089Z"/><path fill="#c1272d" d="M311.4632,1181.2907a1.10075,1.10075,0,0,1-.5063-.1253c-5.0688-2.584-9.2083-4.8652-13.0347-7.1725a1.11012,1.11012,0,1,1,1.1485-1.9001c3.7793,2.276,7.8771,4.5311,12.8989,7.0994a1.111,1.111,0,0,1-.5064,2.0985Z"/><path fill="#006837" d="M309.7354,1183.8381a1.09131,1.09131,0,0,1-.4907-.1149c-3.9308-1.9419-8.0755-4.2335-12.664-7.0054a1.11009,1.11009,0,1,1,1.1484-1.9001c4.5363,2.7353,8.6236,5.0009,12.497,6.9114a1.11174,1.11174,0,0,1-.4907,2.109Z"/><path fill="#c1272d" d="M307.9188,1186.4795a1.09131,1.09131,0,0,1-.4907-.1149c-3.8838-1.9053-7.8981-4.1134-12.2725-6.7496a1.11009,1.11009,0,1,1,1.1484-1.9001c4.317,2.5996,8.2739,4.7764,12.1055,6.6556a1.11174,1.11174,0,0,1-.4907,2.109Z"/><path fill="#006837" d="M306.1909,1188.9851a1.05338,1.05338,0,0,1-.4959-.12c-4.2335-2.1142-8.2321-4.3119-11.881-6.5252a1.10771,1.10771,0,0,1-.3759-1.5243,1.12148,1.12148,0,0,1,1.5243-.3758c3.6019,2.182,7.5483,4.3536,11.7244,6.4416a1.111,1.111,0,0,1-.4959,2.1037Z"/><path fill="#e89c7c" d="M397.9576,1002.5218a11.93511,11.93511,0,0,0,9.066-3.1606c7.5357-7.3795,3.6232-25.2839-1.9123-27.8394-.283-.1268-.564-.2386-.8374-.3391-6.6616-2.2718-11.894,5.3249-11.894,5.3249S379.3192,1002.0009,397.9576,1002.5218Z"/><path d="M397.9576,1002.5218a11.93511,11.93511,0,0,0,9.066-3.1606c-3.6933,1.4835-6.4229.1716-3.8062-2.2667,3.6663-3.4239,7.6659-15.3683,3.4861-17.4378-4.08-2.031-6.4554,5.3567-6.5628,5.6922-.6188-9.2324,2.6854-12.9832,4.1332-14.1662-6.6616-2.2718-11.894,5.3249-11.894,5.3249S379.3192,1002.0009,397.9576,1002.5218Z" style="mix-blend-mode:soft-light" opacity=".45"/><path fill="#cc7a5e" d="M398.2113,996.5095a15.75841,15.75841,0,0,1-.5351-10.6679,11.43575,11.43575,0,0,1,2.8052-4.9246,6.56278,6.56278,0,0,1,5.1953-2.0939c-2.8143,2.3882-3.7265,4.9513-4.6518,8.0246C400.0801,989.8604,399.4733,993.0682,398.2113,996.5095Z"/><path fill="#e89c7c" d="M326.2048,1043.2105a11.93533,11.93533,0,0,1-6.2594,7.2802c-9.6255,4.3121-24.8557-5.8817-25.2081-11.9684-.0144-.3098-.0155-.6123-.0091-.9035.3239-7.0308,9.3086-9.1199,9.3086-9.1199S332.5414,1025.6746,326.2048,1043.2105Z"/><path d="M326.2048,1043.2105a11.93533,11.93533,0,0,1-6.2594,7.2802c2.7323-2.8941,2.5103-5.9144-.7165-4.3717-4.5281,2.1589-17.1076,1.5095-17.5037-3.1378-.3969-4.5402,7.3476-4.047,7.6991-4.0242-8.3654-3.9547-13.0653-2.2525-14.6961-1.3382.3239-7.0308,9.3086-9.1199,9.3086-9.1199S332.5414,1025.6746,326.2048,1043.2105Z" style="mix-blend-mode:soft-light" opacity=".45"/><path fill="#cc7a5e" d="M320.5169,1041.246c-3.6645-.0848-6.8723-.6942-10.0213-.9174-3.1993-.2643-5.9184-.353-9.1705,1.3918a6.564,6.564,0,0,1,3.8498-4.0684,11.43625,11.43625,0,0,1,5.6097-.8078A15.75885,15.75885,0,0,1,320.5169,1041.246Z"/><path fill="#422921" d="M270.4851,1009.3088c.5051,1.1925,12.0788,17.2785,33.1857,21.6453s-27.276-36.4276-27.276-36.4276Z"/><path fill="#422921" d="M392.8424,982.1894l4.1025,21.4792s-106.1439-19.5708-120.8712,1.2148c-.6334.8986-1.213,1.7442-1.7365,2.5515-.0389.0512-.0684.1041-.1074.1552-11.4655,17.6701,3.1005,13.729,14.0919,23.8359,11.5185,10.5919,3.738,18.8511-1.1336,26.0873-4.866,7.2324-4.6859,12.0678-4.1345,14.2245a2.71506,2.71506,0,0,0,5.2023-.3153,9.30739,9.30739,0,0,1,2.4643-4.3341c4.774-3.482,6.7864,2.1785,6.7864,2.1785-3.42-3.6607-6.013,1.3266-6.013,1.3266s-1.049,11.3193-9.2308,6.7559a7.46226,7.46226,0,0,1-2.2926-1.9457l-.0038-.0056c-4.4687-5.7654.8232-17.3528,4.6823-23.6451,4.3635-7.1278-1.756-16.784-8.6352-18.088-6.883-1.3097-20.8346-1.4832-23.7598-9.169-2.9306-7.6819,6.9718-20.886,6.9718-20.886-13.9111-18.0012-9.3008-38.3357-1.4288-53.9427a112.17506,112.17506,0,0,1,18.1721-25.6893s50.3079-47.9517,100.2867-9.7769C426.2304,952.3703,392.8424,982.1894,392.8424,982.1894Z"/><path fill="#422921" d="M386.1005,905.568c1.8326,10.569-2.4881,21.4046-16.0966,28.6516-38.2339,20.3605-81.8512-14.9364-81.8512-14.9364a56.30952,56.30952,0,0,1,3.5503-10.2944c5.2115-11.7293,17.2346-30.0005,42.7932-35.4891C359.3726,868.1645,382.79,886.4421,386.1005,905.568Z"/><path fill="#e89c7c" d="M388.077,982.9775l8.8679,20.6911c-11.229,32.2358-36.8546,54.6111-36.8546,54.6111a84.44073,84.44073,0,0,1-38.1622-5.036l-11.8419-12.486-6.2713-6.6189-24.0046-25.3105-3.7366-3.9449a257.04692,257.04692,0,0,1,9.8334-45.1103C338.8887,953.1805,388.077,982.9775,388.077,982.9775Z"/><ellipse cx="304.007" cy="1017.913" rx="6.606" ry="11.106" transform="rotate(-40.727 304 1017.908)" style="mix-blend-mode:soft-light" opacity=".45"/><ellipse cx="305.869" cy="1020.021" fill="#1b1723" rx="4.369" ry="7.345" transform="rotate(-40.726 305.869 1020.021)"/><path fill="#fff" d="M303.7264,1018.4386c.8427.954,1.0751,2.1445.519,2.6591s-1.6899.1584-2.5325-.7956-1.0751-2.1445-.5191-2.6591S302.8837,1017.4846,303.7264,1018.4386Z"/><path fill="#fff" d="M306.3809,1020.0437c.4267.4831.5443,1.0859.2628,1.3465s-.8557.0802-1.2824-.4029-.5443-1.0859-.2628-1.3464S305.9542,1019.5607,306.3809,1020.0437Z"/><path d="M343.6564,989.3319c3.8607,7.0307,3.5217,14.4696-.7571,16.6154s-10.8771-1.8143-14.7377-8.8449-3.5217-14.4696.757-16.6154S339.7957,982.3013,343.6564,989.3319Z" style="mix-blend-mode:soft-light" opacity=".45"/><ellipse cx="337.68" cy="996.442" fill="#1b1723" rx="5.726" ry="9.609" transform="rotate(-29.952 337.68 996.442)"/><path fill="#fff" d="M335.3778,993.7691c.8013,1.4593.731,3.0032-.1571,3.4486s-2.2576-.3765-3.0589-1.8358-.731-3.0033.1571-3.4486S334.5765,992.3098,335.3778,993.7691Z"/><path fill="#fff" d="M338.3417,996.6425c.4058.739.3702,1.5208-.0795,1.7463s-1.1432-.1907-1.5489-.9296-.3701-1.5207.0795-1.7462S337.936,995.9036,338.3417,996.6425Z"/><path fill="#422921" d="M294.6519,993.8716c3.5964,2.0793,3.7804,4.4054,3.7804,4.4054a46.97093,46.97093,0,0,0-5.5284,5.8435c-.1416.1772-.2782.3567-.4174.5288-.0942.1306-.1911.2538-.2828.3795a33.751,33.751,0,0,0-3.1306,5.0654c-.167.3346-.314.6536-.451.965-.1468.3319-.2811.6508-.398.9467a14.91854,14.91854,0,0,0-1.0188,3.5085,18.00366,18.00366,0,0,1-1.2711-3.9107c-.0749-.4067-.1395-.8087-.1814-1.2058-.0416-.3847-.0729-.7644-.0838-1.1342a14.46875,14.46875,0,0,1,.9221-5.5979c.0873-.2472.1849-.4895.2851-.7243.1026-.2399.2079-.4721.3183-.7019A22.47281,22.47281,0,0,1,294.6519,993.8716Z"/><path fill="#5b4331" d="M285.7528,1010.3979a12.68047,12.68047,0,0,1,2.8693.6613c-.1468.3319-.2811.6508-.398.9467a11.07353,11.07353,0,0,0-2.2899-.4022C285.8593,1011.197,285.7947,1010.795,285.7528,1010.3979Z"/><path fill="#5b4331" d="M286.5911,1003.6658a12.04664,12.04664,0,0,1,5.6126,1.363,33.751,33.751,0,0,0-3.1306,5.0654,14.531,14.531,0,0,0-3.4041-.8305A14.46875,14.46875,0,0,1,286.5911,1003.6658Z"/><path fill="#5b4331" d="M292.9039,1004.1205c-.1416.1772-.2782.3567-.4174.5288a15.30782,15.30782,0,0,0-5.6103-1.7078c.1026-.2399.2079-.4721.3183-.7019A15.49228,15.49228,0,0,1,292.9039,1004.1205Z"/><path fill="#422921" d="M312.2084,974.5747c1.2839,4.8624,3.9423,5.8178,3.9423,5.8178a56.86861,56.86861,0,0,1,8.5848-4.5973c.2521-.109.5052-.2113.7505-.3192.1826-.0684.3573-.1424.5333-.2095a40.86944,40.86944,0,0,1,6.9129-2.0443c.444-.0885.8635-.1586,1.2708-.2195.4344-.0659.8496-.1212,1.2324-.1637a18.06109,18.06109,0,0,1,4.4222-.0731,21.79089,21.79089,0,0,0-4.1631-2.7294c-.4512-.217-.9001-.4205-1.3507-.5957-.436-.171-.8695-.3285-1.2981-.459a17.51674,17.51674,0,0,0-6.8318-.7047c-.3165.0233-.6306.0601-.9368.1024-.3128.0435-.6176.0926-.9212.1483A27.2057,27.2057,0,0,0,312.2084,974.5747Z"/><path fill="#5b4331" d="M334.3438,969.4408a15.359,15.359,0,0,0-.1408,3.5619c.4344-.0659.8496-.1212,1.2324-.1637a13.40458,13.40458,0,0,1,.2591-2.8025C335.2433,969.8195,334.7944,969.616,334.3438,969.4408Z"/><path fill="#5b4331" d="M326.2139,968.2771a14.58546,14.58546,0,0,0-.1946,6.9894,40.86944,40.86944,0,0,1,6.9129-2.0443,17.599,17.599,0,0,1,.1135-4.2404A17.51674,17.51674,0,0,0,326.2139,968.2771Z"/><path fill="#5b4331" d="M324.7355,975.7952c.2521-.109.5052-.2113.7505-.3192a18.53549,18.53549,0,0,1-.2089-7.0965c-.3128.0435-.6176.0926-.9212.1483A18.75812,18.75812,0,0,0,324.7355,975.7952Z"/><path fill="#bf3636" d="M303.0262,985.8331a2.78933,2.78933,0,1,1-4.0984-1.1262A3.02538,3.02538,0,0,1,303.0262,985.8331Z"/><path fill="#e5817c" d="M362.9974,1002.0308c1.4793,2.4863-2.6544,5.9001-8.3949,9.3155s-10.9141,5.539-12.3934,3.0527,1.9753-7.2705,7.7158-10.6859S361.5182,999.5445,362.9974,1002.0308Z"/><path fill="#e5817c" d="M318.3361,1031.5396c1.4581,2.465-2.5844,5.8419-8.2499,9.2181l-6.2713-6.6189c.4646-.3165.9462-.62,1.4466-.92C311.0018,1029.808,316.8534,1029.0504,318.3361,1031.5396Z"/><path fill="#c97d20" d="M407.3823,996.6253a4.38113,4.38113,0,1,1-6.0874-1.154A4.38112,4.38112,0,0,1,407.3823,996.6253Z"/><path fill="#e29a3b" d="M407.0404,996.8583a3.96742,3.96742,0,1,1-5.5126-1.0451A3.96736,3.96736,0,0,1,407.0404,996.8583Z"/><path fill="#efbb29" d="M405.0462,997.3843a2.49733,2.49733,0,1,1-3.3276-.4688A2.38164,2.38164,0,0,1,405.0462,997.3843Z"/><path fill="#e56382" d="M329.4038,1042.9613s-7.3509-8.7572,12.1003-13.024C341.5041,1029.9373,337.2353,1041.1587,329.4038,1042.9613Z"/><path fill="#e56382" d="M343.6754,1046.0558s-2.322.8247-1.2062,2.3482,9.8526,1.6513,11.6273-5.298-8.1306,1.8365-8.1306,1.8365Z"/><path d="M388.077,982.9775l8.8679,20.6911c-17.307,36.0652-37.0021,53.9495-37.0021,53.9495a79.1568,79.1568,0,0,1-37.1345-5.5724c14.983,4.8388,35.632,3.3671,35.632,3.3671,16.4211-20.1038,20.0018-56.3485-4.4357-76.8813-24.4414-20.5384-64.1119-14.7127-64.1119-14.7127-5.0536,7.811-9.2106,38.3019-10.0824,45.0095l-3.7366-3.9449a257.04692,257.04692,0,0,1,9.8334-45.1103C338.8887,953.1805,388.077,982.9775,388.077,982.9775Z" style="mix-blend-mode:soft-light" opacity=".45"/><path fill="#f4beab" d="M322.0961,1018.4012s15.0841,3.3225-1.9258,11.4537Z"/><path fill="#cc7a5e" d="M319.0885,1012.844a63.14559,63.14559,0,0,1,3.6933,5.1855l.1096.1736-.0261.3282c-.1547,1.9367-.3223,3.8707-.6323,5.7819-.2923,1.9132-.4913,3.8427-.86,5.7435l-.6349-1.2815a6.51162,6.51162,0,0,0,3.1986.3138,18.42127,18.42127,0,0,0,3.5882-.892,43.52031,43.52031,0,0,0,7.0172-3.5236,20.5543,20.5543,0,0,1-6.272,5.2006,11.84035,11.84035,0,0,1-4.0169,1.4179,8.34066,8.34066,0,0,1-4.6498-.3569l-.7746-.3074.139-.9755c.2734-1.9171.7158-3.8048,1.0656-5.7088.3321-1.9073.8065-3.7898,1.2933-5.671l.0835.4998A63.05077,63.05077,0,0,1,319.0885,1012.844Z"/><path fill="#5b4331" d="M283.6821,955.6029s33.7124-10.0602,65.8707,3.9874,43.2194,10.6607,51.9798-.8394c0,0-10.2481,10.6697-44.0221-6.4259s-61.878-6.2465-61.878-6.2465,27.1117-35.988,77.2954-15.7816c0,0-41.8936-36.4568-79.2084,4.1774,0,0-.0377-14.2647,20.8977-23.4568,0,0-34.5115,4.1508-37.3111,30.4901l9.8192-11.2994s-8.7605,11.5001-6.889,18.9837l10.7775-10.5694S284.3068,949.4151,283.6821,955.6029Z"/><path fill="#5b4331" d="M275.5436,950.0825l-5.4286,12.0002,8.3137-7.7292a35.39074,35.39074,0,0,0-3.3519,12.6424s2.8444-6.3142,6.9037-7.4652c0,0-11.5304,25.9833-7.6433,47.9042.032.1913.0602.377.0978.5645,0,0-.0709-.1402-.2052-.4093-1.2875-2.6959-8.1326-18.5533-2.7008-40.7013-.2258.5226-7.4509,17.3198-5.5757,33.0637,1.9021,15.9878-9.1943,15.254-3.8315,23.8113,5.3722,8.5591,24.5182,5.1939,26.9715,18.2738,2.2051,11.7412-12.8678,21.879-9.1269,33.3605-4.4687-5.7654.8232-17.3528,4.6823-23.6451,4.3635-7.1278-1.756-16.784-8.6352-18.088-6.883-1.3097-20.8346-1.4832-23.7598-9.169-2.9306-7.6819,6.9718-20.886,6.9718-20.886-13.9111-18.0012-9.3008-38.3357-1.4288-53.9427a85.47209,85.47209,0,0,1,13.2245-8.2557s-21.6042,16.333-12.2073,47.039C258.8139,988.4506,258.6446,961.1366,275.5436,950.0825Z"/><path fill="#5b4331" d="M386.1005,905.568c-4.875-.5878-9.7438-2.9829-14.3792-7.9463-26.1393-27.9867-50.6834-10.3392-50.6834-10.3392,24.5844-10.0943,45.3474,13.9827,45.9881,14.7427-34.5126-26.1912-66.3887-1.2621-75.323,6.9636,5.2115-11.7293,17.2346-30.0005,42.7932-35.4891C359.3726,868.1645,382.79,886.4421,386.1005,905.568Z"/><path fill="#f9a832" d="M905.7437,769.3294l-.0001-.0001a6.5542,6.5542,0,0,0-8.1784,9.7199l.0001.0001c4.4974,6.2741-3.6594,13.8068-9.5565,8.8253h0a6.55422,6.55422,0,0,0-10.3388,7.3806l.0001.0001c2.7958,7.1954-6.9781,12.463-11.451,6.1715l-.0001-.0001a6.55412,6.55412,0,0,0-11.8493,4.5776v.0001c.9185,7.6646-9.8583,10.3361-12.6261,3.1298h0a6.55415,6.55415,0,0,0-12.6155,1.4869v.0001c-1.0164,7.6523-12.119,7.5597-13.0077-.1084v-.0001a6.55419,6.55419,0,0,0-12.589-1.6971v.0001c-2.8876,7.1591-13.6183,4.3083-12.5721-3.34h0a6.55418,6.55418,0,0,0-11.7714-4.7746l-.0001.0001c-4.5772,6.2161-14.2619.7863-11.3465-6.3615v-.0001a6.55418,6.55418,0,0,0-10.2142-7.552v.0001c-5.9793,4.8825-14.0094-2.7852-9.408-8.9835h0a6.55417,6.55417,0,0,0-8.0152-9.8549h-.0001c-7.0057,3.2421-12.8766-6.1817-6.8783-11.0408l.0001-.0001a6.5542,6.5542,0,0,0-5.3126-11.5386h-.0001c-7.5919,1.3981-10.9347-9.1897-3.9165-12.4045l.0001-.0001a6.55414,6.55414,0,0,0-2.2762-12.4972h-.0001c-7.701-.534-8.3057-11.6204-.7085-12.9889h.0001a6.55417,6.55417,0,0,0,.9032-12.6707h0c-7.3263-2.4323-5.155-13.3209,2.5439-12.757h.0001a6.55418,6.55418,0,0,0,4.0259-12.048h0c-6.4912-4.1779-1.6803-14.1844,5.6365-11.7236h.0001a6.55413,6.55413,0,0,0,6.8957-10.6682l-.0001-.0001c-5.2483-5.6609,1.9001-14.1566,8.375-9.9535l.0001.0001a6.55416,6.55416,0,0,0,9.3321-8.6182v-.0001c-3.6756-6.7883,5.361-13.2393,10.5872-7.558h.0001a6.55415,6.55415,0,0,0,11.1822-6.0266v-.0001c-1.872-7.4891,8.485-11.4901,12.1341-4.6876l.0001.0001a6.5542,6.5542,0,0,0,12.3297-3.0564v-.0001c.0493-7.7194,11.0759-9.0191,12.9187-1.5227h0a6.55416,6.55416,0,0,0,12.7024.1059h0c1.9675-7.4646,12.971-5.9812,12.8916,1.7379h0a6.55419,6.55419,0,0,0,12.277,3.2616v-.0001c3.7621-6.7408,14.0509-2.5676,12.0544,4.8893v.0001a6.55417,6.55417,0,0,0,11.0802,6.2122v-.0001c5.3202-5.5934,14.248,1.0074,10.4597,7.7335v.0001a6.5542,6.5542,0,0,0,9.1872,8.7726v-.0001c6.5441-4.0946,13.5499,4.5191,8.2079,10.0918h-.0001a6.55423,6.55423,0,0,0,6.7169,10.7818l.0001-.0001c7.3568-2.3385,12.0003,7.7468,5.4403,11.8159l-.0001.0001a6.55417,6.55417,0,0,0,3.8246,12.1134h.0001c7.7072-.4355,9.6967,10.4878,2.3308,12.7976v.0001a6.55417,6.55417,0,0,0,.6919,12.684h.0001c7.5733,1.4949,6.7838,12.5697-.925,12.9752h-.0001a6.55418,6.55418,0,0,0-2.4842,12.4576h0c6.9637,3.3314,3.4448,13.862-4.1227,12.3376h-.0001a6.55418,6.55418,0,0,0-5.5042,11.4484h0C918.7216,763.3632,912.6944,772.6878,905.7437,769.3294Z"/><circle cx="823.712" cy="708.562" r="94.708" fill="#f7c434"/><circle cx="823.712" cy="708.562" r="84.716" transform="rotate(-45 823.712 708.562)" style="mix-blend-mode:soft-light" opacity=".45"/><circle cx="823.712" cy="708.562" r="84.716" transform="rotate(-45 823.712 708.562)" style="mix-blend-mode:soft-light" opacity=".45"/><circle cx="823.712" cy="708.562" r="84.716" transform="rotate(-45 823.712 708.562)" style="mix-blend-mode:soft-light" opacity=".45"/><circle cx="823.712" cy="708.562" r="84.716" transform="rotate(-45 823.712 708.562)" style="mix-blend-mode:soft-light" opacity=".45"/><path fill="#f9a832" d="M830.6046,618.1581a16.97338,16.97338,0,0,1-3.493,13.3175c.0503.2099-17.0959,4.9433-18.1543,5.2449l-.05.012c-1.0599.2068-18.5167,3.7779-18.5671,3.568a16.94261,16.94261,0,0,1-9.1469-10.284c-2.5677-7.6608,14.7839-41.9209,15.6383-43.6006.0164-.0198.0128-.0348.0228-.0372l.0272.0252C798.4053,587.5129,829.4059,610.1687,830.6046,618.1581Z"/><path d="M830.4999,624.0978a16.10506,16.10506,0,0,1-3.3866,7.3774c.0503.2099-17.0958,4.9433-18.1541,5.2448l-.05.012c-1.06.2069-18.5168,3.7779-18.5672,3.568a16.9429,16.9429,0,0,1-9.1468-10.2839c-2.5678-7.6609,14.784-41.921,15.6384-43.6007.0164-.0198.0128-.0348.0228-.0372l.0272.0252c.2945.2148,1.6895,1.2277,3.756,2.7931-2.8587,5.9664-8.4746,18.1442-10.2105,25.4425-1.9611,8.2087,27.4107,1.4451,37.6502-1.1551a15.29466,15.29466,0,0,1,2.1694,3.4911c-6.9393.9836-34.7857,5.2088-37.178,9.2872C790.8441,630.063,819.5968,625.8265,830.4999,624.0978Z" style="mix-blend-mode:soft-light" opacity=".45"/><path fill="#f9a832" d="M790.4074,670.6549l-19.3458-19.3905s7.336-10.5603,39.9125-17.5574,42.2901-.7185,42.2901-.7185l-6.3776,23.6764Z"/><path d="M849.5528,646.7753l-2.6672,9.8921L790.4069,670.66l-17.492-17.536a79.77519,79.77519,0,0,1,31.4956-12.8125l5.608,10.2627S821.7616,643.4474,849.5528,646.7753Z" style="mix-blend-mode:soft-light" opacity=".45"/><path fill="#f9a832" d="M771.2296,692.4335s-1.0084-29.2157,48.4487-39.8386,61.1905,16.599,61.1905,16.599Z"/><path fill="#f9a832" d="M911.0013,724.114a122.15486,122.15486,0,0,1,.5366,21.0127c-.0545.7718-.0971,1.1885-.0971,1.1885l-9.1489-10.7469-10.2471,3.7321L786.7,777.7017l-1.2567.4573-11.9036-3.1604S726.416,698.3834,798.34,669.0112a128.25441,128.25441,0,0,1,21.6734-6.5389c30.3678-6.5227,50.7565-1.759,64.4078,8.1531C902.9725,684.0674,909.132,707.0007,911.0013,724.114Z"/><path d="M911.0013,724.114a122.15486,122.15486,0,0,1,.5366,21.0127l-6.1784-10.8672-13.3147,5.0409L788.6397,778.4748l-1.9397-.7731-10.0927-4.0119s-45.755-74.3976,21.7327-104.6786a128.25441,128.25441,0,0,1,21.6734-6.5389c30.3678-6.5227,50.7565-1.759,64.4078,8.1531-22.4841-6.1092-60.062-10.4855-92.5743,13.594,0,0-10.995,23.842,15.6726,38.3498C807.5195,722.5692,865.2932,682.9625,911.0013,724.114Z" style="mix-blend-mode:soft-light" opacity=".45"/><path fill="#b7765a" d="M794.0477,797.2074c-7.5152,4.9629-13.6574,4.2664-18.1467.9566-8.6684-6.3558-11.1374-22.415-5.2697-26.1759l.0105-.0022c.0963-.0647.1947-.119.2934-.1732,9.4286-5.1315,20.3473,6.7774,20.3473,6.7774S816.2939,782.5151,794.0477,797.2074Z"/><path d="M794.0477,797.2074c-7.5152,4.9629-13.6574,4.2664-18.1467.9566,9.829,4.3219,15.2333-5.7505,10.7659-4.2402-5.054,1.7025-18.0172-7.0576-15.5207-11.6916,1.739-3.2375,8.6677-1.5973,12.6995-.3153.0128.0083.0256.0166.0361.0143,1.7273.5543,2.9107,1.0381,2.9107,1.0381-4.1399-8.9146-11.4267-10.7863-16.1507-10.9834.0963-.0647.1947-.119.2934-.1732,9.4286-5.1315,20.3473,6.7774,20.3473,6.7774S816.2939,782.5151,794.0477,797.2074Z" style="mix-blend-mode:soft-light" opacity=".3"/><path fill="#995641" d="M794.0196,791.3259c-1.7337-1.5836-3.3885-3.0609-5.1216-4.377a35.64245,35.64245,0,0,0-5.3872-3.3755,23.2241,23.2241,0,0,0-5.8876-2.0848,40.0281,40.0281,0,0,0-6.6263-.7086,13.92852,13.92852,0,0,1,6.8658-1.7651,14.96434,14.96434,0,0,1,7.0915,1.6698,18.01744,18.01744,0,0,1,5.6528,4.4756A16.23958,16.23958,0,0,1,794.0196,791.3259Z"/><path fill="#b7765a" d="M915.325,798.6547c-4.6844,5.5614-12.0076,10.7614-23.0991,14.983-15.7471,5.9951-34.2793,10.8695-51.3391,11.2334-20.289.4558-38.4928-5.4666-47.5385-23.4121a47.55674,47.55674,0,0,1-2.683-6.4887,64.88071,64.88071,0,0,1-2.5856-11.4773,102.99819,102.99819,0,0,1-.0408-24.0395s3.015-15.6541,18.4275-29.4501c9.5434-8.5476,23.8671-16.3685,45.1761-19.278,0,0,20.7202-4.4505,52.6246,11.3182,0,0,.2658.8368.7115,2.271,2.097,6.5629,8.2051,25.3972,11.388,31.5721a.21282.21282,0,0,0,.0377.0951C919.3086,761.5806,929.569,781.7404,915.325,798.6547Z"/><path d="M831.798,757.2126a11.94817,11.94817,0,1,0,9.1727-14.1908A11.94831,11.94831,0,0,0,831.798,757.2126Z" style="mix-blend-mode:soft-light" opacity=".3"/><path fill="#1b1723" d="M836.3894,759.3218a7.90211,7.90211,0,1,0,6.0665-9.3853A7.90218,7.90218,0,0,0,836.3894,759.3218Z"/><path fill="#fff" d="M844.5102,754.6972a2.4799,2.4799,0,1,0,1.9038-2.9454A2.47995,2.47995,0,0,0,844.5102,754.6972Z"/><path fill="#fff" d="M843.5453,758.1861a1.25575,1.25575,0,1,0,.964-1.4915A1.25581,1.25581,0,0,0,843.5453,758.1861Z"/><circle cx="893.425" cy="744.638" r="9.06" transform="rotate(-30.69 893.425 744.638)" style="mix-blend-mode:soft-light" opacity=".3"/><path fill="#1b1723" d="M888.0479,748.1396a5.99221,5.99221,0,1,0,4.6002-7.117A5.99214,5.99214,0,0,0,888.0479,748.1396Z"/><path fill="#fff" d="M894.2059,744.6327a1.88054,1.88054,0,1,0,1.4437-2.2335A1.88057,1.88057,0,0,0,894.2059,744.6327Z"/><path fill="#fff" d="M893.4742,747.2783a.95223.95223,0,1,0,.7311-1.1309A.9522.9522,0,0,0,893.4742,747.2783Z"/><path fill="#231c2d" d="M882.7272,742.6376c.1357-.1558.279-.3178.4343-.4644.215-.2429.4436-.4842.6917-.7162a22.32986,22.32986,0,0,1,1.9172-1.6919q.50415-.4149,1.049-.8249c1.0637-.7749,2.1828-1.4949,3.3166-2.1649a62.46259,62.46259,0,0,1,14.665-5.9586c-.8804-6.1103-9.6289-2.5775-9.6289-2.5775,2.0237-1.2591,6.2144-1.405,6.4773-1.415a25.09948,25.09948,0,0,0-10.9943.6611,20.14081,20.14081,0,0,0-4.9176,2.194,16.60435,16.60435,0,0,0-2.0531,1.5035,5.86521,5.86521,0,0,0-.551.5194l-.1159,2.6375-.7063-2.2125a6.52908,6.52908,0,0,0-.72,2.1038c-.0076.006-.0016.0136-.0032.0272a10.68531,10.68531,0,0,0,.5938,5.167,10.44092,10.44092,0,0,1-1.3595-6.2503,5.02389,5.02389,0,0,0-.3804.8773C879.1675,737.9697,882.7272,742.6376,882.7272,742.6376Z"/><path fill="#322a3f" d="M886.8194,738.9402c1.0637-.7749,2.1828-1.4949,3.3166-2.1649a12.93322,12.93322,0,0,1,.5191-9.29,20.14081,20.14081,0,0,0-4.9176,2.194A11.51362,11.51362,0,0,0,886.8194,738.9402Z"/><path fill="#322a3f" d="M883.8532,741.457a22.32986,22.32986,0,0,1,1.9172-1.6919c-2.2368-3.7522-2.4177-6.673-2.086-8.5823a5.86521,5.86521,0,0,0-.551.5194l-.1159,2.6375-.7063-2.2125a6.52908,6.52908,0,0,0-.72,2.1038c-.0076.006-.0016.0136-.0032.0272A12.378,12.378,0,0,0,883.8532,741.457Z"/><path fill="#322a3f" d="M882.7272,742.6376c.1357-.1558.279-.3178.4343-.4644a14.80748,14.80748,0,0,1-2.7196-8.121C879.1675,737.9697,882.7272,742.6376,882.7272,742.6376Z"/><path fill="#d33c3c" d="M869.5632,738.058s-5.6544,2.0053-5.1365-9.5886c.2061,5.9205,4.4392,4.5816,4.4392,4.5816,2.4295-.4531,3.3046-1.7412,3.3345-3.3634C873.5979,733.6333,873.6429,737.2849,869.5632,738.058Z"/><path fill="#995641" d="M849.4032,774.7951c-1.138,2.1148-1.9739,3.5693-2.736,5.1575-.8085,1.5608-1.412,3.1549-2.6009,5.2906a6.62915,6.62915,0,0,1-.3348-6.7542A6.27309,6.27309,0,0,1,849.4032,774.7951Z"/><path fill="#100e14" d="M895.1273,780.0969c.4875,5.5374.7756,25.0457-19.1137,25.4844-12.6154.2825-18.5378-7.3428-21.3335-14.3517a35.40166,35.40166,0,0,1-1.7401-5.8317c6.8175,3.2722,19.3265,4.7311,41.261-4.8849C894.509,780.3827,894.8127,780.2421,895.1273,780.0969Z"/><path fill="#fff" d="M894.201,780.513c.5283,1.7395-.1227,3.9414-2.388,6.7414-12.2432,15.1141-30.4834,7.5244-37.1329,3.9752a35.40166,35.40166,0,0,1-1.7401-5.8317C859.7575,788.6701,872.2665,790.129,894.201,780.513Z"/><path fill="#995641" d="M847.0626,778.1451c2.2571,4.3112,7.7095,7.2834,13.0856,8.1206a45.19323,45.19323,0,0,0,16.874-.7237,97.97732,97.97732,0,0,0,16.4676-5.1757c5.2808-2.3223,10.4579-4.9428,15.7106-7.4087-5.1235,2.706-10.174,5.5712-15.3889,8.163a99.12426,99.12426,0,0,1-16.4167,6.0194,47.17634,47.17634,0,0,1-17.6212,1.5589c-5.917-.7895-12.1479-3.2404-15.7002-9.1998Z"/><path fill="#231c2d" d="M854.8499,747.9712c-.1828-.1698-.3755-.3459-.5807-.502-.289-.2642-.5941-.5247-.9215-.7715a26.97462,26.97462,0,0,0-2.5172-1.7863q-.6582-.43365-1.3645-.8563c-1.3756-.7945-2.8108-1.516-4.2572-2.1757a75.402,75.402,0,0,0-18.3634-5.2815c.2773-7.4469,11.2294-4.3223,11.2294-4.3223-2.5899-1.2532-7.6389-.8937-7.9557-.8722a30.29655,30.29655,0,0,1,13.2814-.6089,24.31192,24.31192,0,0,1,6.1828,2.0061,20.065,20.065,0,0,1,2.6563,1.5428,7.09128,7.09128,0,0,1,.7277.5533l.4755,3.1511.5656-2.7459a7.88448,7.88448,0,0,1,1.1326,2.4335c.0099.0062.0037.0161.0074.0322a12.8988,12.8988,0,0,1-.0537,6.278,12.60294,12.60294,0,0,0,.8345-7.676,6.06206,6.06206,0,0,1,.5686,1.0045C858.5273,741.9139,854.8499,747.9712,854.8499,747.9712Z"/><path fill="#322a3f" d="M849.466,744.0551c-1.3756-.7945-2.8108-1.516-4.2572-2.1757a15.61079,15.61079,0,0,0-1.8083-11.0849,24.31192,24.31192,0,0,1,6.1828,2.0061A13.89825,13.89825,0,0,1,849.466,744.0551Z"/><path fill="#322a3f" d="M853.3477,746.6977a26.97462,26.97462,0,0,0-2.5172-1.7863c2.2063-4.7893,2.0507-8.3185,1.4091-10.568a7.09128,7.09128,0,0,1,.7277.5533l.4755,3.1511.5656-2.7459a7.88448,7.88448,0,0,1,1.1326,2.4335c.0099.0062.0037.0161.0074.0322A14.94263,14.94263,0,0,1,853.3477,746.6977Z"/><path fill="#322a3f" d="M854.8499,747.9712c-.1828-.1698-.3755-.3459-.5807-.502a17.87413,17.87413,0,0,0,2.2286-10.0951C858.5273,741.9139,854.8499,747.9712,854.8499,747.9712Z"/><path d="M913.6825,796.2411c-.2293.5229-9.2385,19.4551-67.4072,27.4768-26.1909,3.6096-42.6753-8.1063-52.9179-22.2534a48.03486,48.03486,0,0,1-2.6842-6.4955c-3.0493-9.1709-4.1358-20.8454-2.637-35.5097,0,0,3.0141-15.6617,18.4269-29.448,9.5535-8.5512,23.868-16.3735,45.1743-19.2866,0,0,20.7331-4.4532,52.6277,11.3112,0,0,.2698.8454.7209,2.2796-10.0705-4.5234-41.6461-16.1374-74.6822-1.8814-40.0761,17.2772-13.9478,97.5868,13.0476,96.3379C870.3445,817.5126,894.1831,812.183,913.6825,796.2411Z" style="mix-blend-mode:soft-light" opacity=".3"/><path fill="#f9a832" d="M858.3623,661.2002s-45.4474,61.9933,9.295,52.256C867.6573,713.4562,918.0611,708.1903,858.3623,661.2002Z"/><path d="M858.3623,661.2002s-45.4474,61.9933,9.295,52.256C867.6573,713.4562,918.0611,708.1903,858.3623,661.2002Z" style="mix-blend-mode:soft-light" opacity=".45"/><path d="M859.0017,665.9513s-37.2523,50.8146,7.6189,42.8331C866.6206,708.7844,907.9355,704.468,859.0017,665.9513Z" style="mix-blend-mode:soft-light" opacity=".45"/><path fill="#f9a832" d="M860.1118,674.2005s-23.0233,31.4053,4.7088,26.4724C864.8206,700.6729,890.3547,698.0053,860.1118,674.2005Z"/><path fill="#231c2d" d="M806.4631,730.0113c.3305,1.6915.6812,3.9405.9382,6.5731a72.86041,72.86041,0,0,1,.3204,7.3888c-.0081.938-.0241,1.8888-.0778,2.8697a58.48636,58.48636,0,0,1-5.2549,22.1023,49.68279,49.68279,0,0,1-8.9539,13.1372s2.8919,19.2069,15.0984,16.9045c0,0-9.0054,5.3601-17.8603-4.0179a70.24425,70.24425,0,0,1-3.2593-20.2516c-.0534-1.5307-.0631-3.1149-.027-4.742.0292-1.6586.094-3.3578.2021-5.1105.0984-1.5413.2242-3.1105.3851-4.7203.018-.2242.0358-.4483.0621-.6853C788.0362,759.4593,791.0503,743.7976,806.4631,730.0113Z"/><path fill="#322a3f" d="M807.6439,746.8429a58.48636,58.48636,0,0,1-5.2549,22.1023c-5.4363,2.8972-11.5217,5.2838-14.9751,5.7722-.0534-1.5307-.0631-3.1149-.027-4.742.5917-.5786,1.2924-1.2138,2.1106-1.9183C799.7817,759.2167,805.0458,751.6199,807.6439,746.8429Z"/><path fill="#322a3f" d="M807.4013,736.5844a72.86041,72.86041,0,0,1,.3204,7.3888c-4.4149,4.7816-14.2652,15.3353-20.1327,20.8917.0984-1.5413.2242-3.1105.3851-4.7203C798.6002,745.3045,804.7044,739.0032,807.4013,736.5844Z"/><path fill="#f9a832" d="M790.1433,800.609a6.20951,6.20951,0,1,1-7.3751-4.7671A6.20944,6.20944,0,0,1,790.1433,800.609Z"/><path d="M790.1433,800.609a6.20951,6.20951,0,1,1-7.3751-4.7671A6.20944,6.20944,0,0,1,790.1433,800.609Z" style="mix-blend-mode:soft-light" opacity=".45"/><circle cx="784.088" cy="801.987" r="4.851" transform="rotate(-36.795 784.088 801.987)" style="mix-blend-mode:soft-light" opacity=".45"/><path fill="#f9a832" d="M785.6335,798.759c.8413.9304.3937,2.7061-.9998,3.9662s-3.2052,1.5274-4.0465.5971-.3937-2.7061.9998-3.9662S784.7922,797.8287,785.6335,798.759Z"/><path fill="#1b1723" d="M922.6995,778.2481a30.958,30.958,0,0,1-.4106,5.4514,29.71569,29.71569,0,0,1-2.6978,8.4867,32.64862,32.64862,0,0,1-4.2661,6.4685c-18.4173,1.8072-35.1459-16.5336-35.1459-16.5336-14.2544,24.5486-27.4653,37.3906-39.2923,42.75-20.289.4558-38.4928-5.4666-47.5385-23.4121a47.55674,47.55674,0,0,1-2.683-6.4887,64.88071,64.88071,0,0,1-2.5856-11.4773l5.3531-1.4076c15.6375,36.9508,69.4173-5.5762,69.4173-5.5762l26.7015-4.7726c21.9526,7.1285,26.289-6.4546,26.815-15.8499a.21282.21282,0,0,0,.0377.0951,59.92025,59.92025,0,0,1,4.308,10.2135A41.71618,41.71618,0,0,1,922.6995,778.2481Z"/><ellipse cx="876.033" cy="768.623" fill="#cc8971" rx="17.985" ry="8.183" transform="rotate(-12.257 876.033 768.623)"/><path fill="#995641" d="M858.4092,772.1772a5.35193,5.35193,0,0,0,3.7951,3.1125,16.41374,16.41374,0,0,0,4.9969.8013,46.06,46.06,0,0,0,19.9631-4.3412,16.316,16.316,0,0,0,4.2133-2.8012,5.35007,5.35007,0,0,0,2.1631-4.4039c.8802,1.7122.1005,3.8903-.9592,5.4329a17.67886,17.67886,0,0,1-4.1474,3.9085,30.89958,30.89958,0,0,1-21.5011,4.6642,17.63077,17.63077,0,0,1-5.3937-1.8329C859.9355,775.7549,858.3218,774.0995,858.4092,772.1772Z"/><path fill="#322a3f" d="M863.0997,780.6372s-34.9314,38.4441-62.1226,16.8887c0,0,8.3933,16.5685,31.895,8.9422a27.23549,27.23549,0,0,1-28.6546,1.6424s34.1102,38.763,67.205-20.2364c0,0-23.2283,26.9059-46.7777,26.8072C824.6448,814.6813,849.9288,806.3498,863.0997,780.6372Z"/><path fill="#322a3f" d="M898.4286,782.894a34.96642,34.96642,0,0,0,23.8603.8055,29.71569,29.71569,0,0,1-2.6978,8.4867c-16.3104,4.1736-32.8708-11.1435-32.8708-11.1435,18.1361,4.1665,27.3961-2.9794,27.3961-2.9794-15.1549,4.51-23.4908-1.7271-23.964-2.0896,18.9508,4.6791,27.1823-3.6554,30.5599-9.7784a41.71618,41.71618,0,0,1,1.9872,12.0528C913.3158,784.8189,899.1882,782.9887,898.4286,782.894Z"/><path fill="#1b1723" d="M330.6473,1043.195s9.5215,6.0135,12.9041,1.6286,2.2551-4.5101,6.3894-5.0113,17.6649-9.3962-1.2528-11.526C348.688,1028.2863,332.9024,1038.3089,330.6473,1043.195Z"/><path fill="#cc7a5e" d="M327.0518,1050.5548c1.2059-7.3539,6.0273-13.7361,11.7016-18.4792a41.74058,41.74058,0,0,1,9.5574-5.6972,38.2184,38.2184,0,0,1,10.6301-2.8482c-3.213,1.8003-6.3535,3.4727-9.361,5.3167a82.20323,82.20323,0,0,0-8.589,5.9908A62.65464,62.65464,0,0,0,327.0518,1050.5548Z"/><path fill="#64bce2" d="M338.9159,1004.9211a.97957.97957,0,0,1,.3759-1.3155c.8143-.5011,1.7539.3759,2.1298-.3758s1.1275-1.8166,1.9419-1.8166a8.33632,8.33632,0,0,0,1.8166,0,8.62871,8.62871,0,0,1,2.1924-1.5661c1.6913-.877,2.5057.0627,5.2619-.3132s4.6355-2.0671,6.2015-1.7539-.1879,1.9418-2.443,2.1924-1.8793.5011-4.5102.5638-5.1992,1.3781-4.3849,2.0671,2.443-.4384,4.8234-.0626,4.6981,0,3.1321,1.1276-2.2551.1252-4.5102.3132-2.443,1.0649-4.8234.7517S340.294,1005.9233,338.9159,1004.9211Z"/><path fill="#64bce2" d="M307.0941,1025.9686s-.1879-.9396,1.0649-1.1276,1.3155.877,2.3177-.689-1.3781-2.0672,1.6914-2.1925,4.1343,1.3155,6.3267-.3758,2.7563,1.0649.877,1.6913-3.1321.0626-4.197.2506-2.1924.689-1.2528,1.1902,3.6959.1879,2.631,1.6286-.9397,1.8166-2.5057.5638-2.3113-2.39-3.3168-1.3829a2.92607,2.92607,0,0,1-3.3858.5059"/></g></svg>