<svg xmlns="http://www.w3.org/2000/svg" xmlns:xlink="http://www.w3.org/1999/xlink" width="200" zoomAndPan="magnify" viewBox="0 0 150 149.999998" height="200" preserveAspectRatio="xMidYMid meet" version="1.0"><defs><filter x="0%" y="0%" width="100%" height="100%" id="c0df429c5d"><feColorMatrix values="0 0 0 0 1 0 0 0 0 1 0 0 0 0 1 0 0 0 1 0" color-interpolation-filters="sRGB"/></filter><mask id="e80c0dd772"><g filter="url(#c0df429c5d)"><rect x="-15" width="180" fill="#000000" y="-15" height="179.999997" fill-opacity="0.6"/></g></mask><clipPath id="ee7f09538b"><path d="M 16 97 L 70 97 L 70 133.601562 L 16 133.601562 Z M 16 97 " clip-rule="nonzero"/></clipPath><clipPath id="9ac7d7dc7b"><path d="M 80 97 L 134 97 L 134 133.601562 L 80 133.601562 Z M 80 97 " clip-rule="nonzero"/></clipPath><clipPath id="03a2445228"><path d="M 17 0.640625 L 74 0.640625 L 74 94 L 17 94 Z M 17 0.640625 " clip-rule="nonzero"/></clipPath><clipPath id="0ed2aa40c3"><path d="M 76 0.640625 L 133 0.640625 L 133 95 L 76 95 Z M 76 0.640625 " clip-rule="nonzero"/></clipPath><clipPath id="d1383ce8d7"><rect x="0" width="150" y="0" height="134"/></clipPath></defs><rect x="-15" width="180" fill="transparent" y="-15" height="179.999997" fill-opacity="1"/><rect x="-15" width="180" fill="transparent" y="-15" height="179.999997" fill-opacity="1"/><rect x="-15" width="180" fill="transparent" y="-15" height="179.999997" fill-opacity="1"/><g mask="url(#e80c0dd772)"><g transform="matrix(1, 0, 0, 1, 0, 8)"><g clip-path="url(#d1383ce8d7)"><g clip-path="url(#ee7f09538b)"><path fill="#cdc1de" d="M 69.804688 113.515625 L 31.207031 132.050781 C 30.808594 132.242188 30.398438 132.410156 29.976562 132.550781 C 29.558594 132.6875 29.128906 132.800781 28.695312 132.886719 C 28.257812 132.972656 27.820312 133.03125 27.378906 133.0625 C 26.933594 133.09375 26.492188 133.097656 26.050781 133.070312 C 25.605469 133.046875 25.167969 132.992188 24.730469 132.910156 C 24.296875 132.832031 23.867188 132.722656 23.445312 132.585938 C 23.023438 132.453125 22.609375 132.289062 22.207031 132.101562 C 21.804688 131.914062 21.417969 131.703125 21.042969 131.46875 C 20.667969 131.230469 20.308594 130.972656 19.964844 130.691406 C 19.621094 130.40625 19.296875 130.105469 18.992188 129.78125 C 18.6875 129.460938 18.40625 129.121094 18.144531 128.761719 C 17.882812 128.402344 17.644531 128.027344 17.429688 127.640625 C 17.214844 127.25 17.027344 126.851562 16.863281 126.4375 C 16.699219 126.023438 16.5625 125.605469 16.449219 125.175781 C 16.339844 124.742188 16.257812 124.308594 16.199219 123.867188 C 16.144531 123.429688 16.117188 122.984375 16.117188 122.542969 L 16.117188 97.90625 Z M 69.804688 113.515625 " fill-opacity="1" fill-rule="nonzero"/></g><g clip-path="url(#9ac7d7dc7b)"><path fill="#cdc1de" d="M 133.882812 97.90625 L 133.882812 122.542969 C 133.882812 122.984375 133.855469 123.429688 133.800781 123.867188 C 133.742188 124.308594 133.660156 124.742188 133.550781 125.175781 C 133.4375 125.605469 133.300781 126.023438 133.136719 126.4375 C 132.972656 126.851562 132.785156 127.25 132.570312 127.640625 C 132.355469 128.027344 132.117188 128.402344 131.855469 128.761719 C 131.59375 129.121094 131.3125 129.460938 131.007812 129.78125 C 130.703125 130.105469 130.378906 130.40625 130.035156 130.691406 C 129.691406 130.972656 129.332031 131.230469 128.957031 131.46875 C 128.582031 131.703125 128.195312 131.914062 127.792969 132.101562 C 127.390625 132.289062 126.976562 132.453125 126.554688 132.585938 C 126.132812 132.722656 125.703125 132.832031 125.269531 132.910156 C 124.832031 132.992188 124.394531 133.046875 123.949219 133.070312 C 123.507812 133.097656 123.066406 133.09375 122.621094 133.0625 C 122.179688 133.03125 121.742188 132.972656 121.304688 132.886719 C 120.871094 132.800781 120.441406 132.6875 120.023438 132.550781 C 119.601562 132.410156 119.191406 132.242188 118.792969 132.050781 L 80.195312 113.515625 Z M 133.882812 97.90625 " fill-opacity="1" fill-rule="nonzero"/></g><path fill="#cdc1de" d="M 150 11.292969 L 150 86.082031 C 150 86.550781 149.925781 87.007812 149.773438 87.453125 C 149.625 87.898438 149.410156 88.308594 149.128906 88.6875 C 148.847656 89.0625 148.511719 89.382812 148.125 89.648438 C 147.738281 89.917969 147.320312 90.113281 146.871094 90.246094 L 76.859375 110.605469 L 76.859375 97.90625 L 130.058594 81.449219 C 130.882812 81.199219 131.648438 80.828125 132.351562 80.328125 C 133.054688 79.832031 133.664062 79.234375 134.175781 78.542969 C 134.6875 77.847656 135.078125 77.089844 135.347656 76.273438 C 135.613281 75.453125 135.746094 74.609375 135.742188 73.746094 L 135.742188 9.652344 L 144.453125 7.121094 C 144.777344 7.027344 145.105469 6.972656 145.441406 6.953125 C 145.777344 6.9375 146.109375 6.960938 146.441406 7.019531 C 146.773438 7.082031 147.09375 7.179688 147.402344 7.3125 C 147.707031 7.449219 147.996094 7.617188 148.265625 7.820312 C 148.535156 8.023438 148.777344 8.253906 148.992188 8.511719 C 149.207031 8.769531 149.390625 9.050781 149.542969 9.351562 C 149.691406 9.652344 149.804688 9.96875 149.882812 10.296875 C 149.960938 10.621094 150 10.957031 150 11.292969 Z M 150 11.292969 " fill-opacity="1" fill-rule="nonzero"/><path fill="#cdc1de" d="M 73.140625 97.90625 L 73.140625 110.605469 L 3.128906 90.246094 C 2.683594 90.113281 2.265625 89.910156 1.882812 89.644531 C 1.5 89.375 1.167969 89.054688 0.890625 88.679688 C 0.613281 88.304688 0.398438 87.894531 0.25 87.449219 C 0.105469 87.003906 0.03125 86.550781 0.03125 86.082031 L 0.03125 11.292969 C 0.03125 11.007812 0.0585938 10.722656 0.113281 10.445312 C 0.171875 10.164062 0.253906 9.894531 0.359375 9.628906 C 0.46875 9.367188 0.605469 9.117188 0.761719 8.878906 C 0.921875 8.640625 1.101562 8.421875 1.300781 8.21875 C 1.503906 8.019531 1.722656 7.839844 1.960938 7.679688 C 2.195312 7.519531 2.445312 7.386719 2.710938 7.277344 C 2.972656 7.167969 3.242188 7.085938 3.523438 7.03125 C 3.804688 6.976562 4.085938 6.949219 4.371094 6.949219 C 4.792969 6.945312 5.203125 7.007812 5.609375 7.128906 L 14.257812 9.652344 L 14.257812 73.746094 C 14.253906 74.609375 14.386719 75.449219 14.652344 76.269531 C 14.921875 77.089844 15.308594 77.847656 15.820312 78.539062 C 16.332031 79.234375 16.941406 79.832031 17.644531 80.328125 C 18.347656 80.824219 19.109375 81.199219 19.933594 81.449219 Z M 73.140625 97.90625 " fill-opacity="1" fill-rule="nonzero"/><g clip-path="url(#03a2445228)"><path fill="#cdc1de" d="M 73.140625 16.226562 L 73.140625 94 L 21.03125 77.863281 C 20.804688 77.789062 20.585938 77.703125 20.375 77.601562 C 19.308594 77.074219 18.582031 76.246094 18.199219 75.121094 C 18.046875 74.671875 17.972656 74.214844 17.976562 73.742188 L 17.976562 5.054688 C 17.976562 4.769531 18.003906 4.484375 18.058594 4.207031 C 18.113281 3.925781 18.195312 3.65625 18.304688 3.390625 C 18.414062 3.128906 18.546875 2.878906 18.707031 2.640625 C 18.863281 2.402344 19.042969 2.183594 19.246094 1.980469 C 19.449219 1.78125 19.667969 1.601562 19.902344 1.441406 C 20.140625 1.28125 20.390625 1.148438 20.652344 1.039062 C 20.917969 0.929688 21.1875 0.847656 21.46875 0.792969 C 21.746094 0.738281 22.027344 0.710938 22.3125 0.710938 C 22.753906 0.710938 23.1875 0.777344 23.609375 0.90625 Z M 73.140625 16.226562 " fill-opacity="1" fill-rule="nonzero"/></g><g clip-path="url(#0ed2aa40c3)"><path fill="#cdc1de" d="M 132.023438 5.054688 L 132.023438 73.746094 C 132.023438 74.316406 131.910156 74.863281 131.691406 75.386719 C 131.609375 75.589844 131.515625 75.785156 131.40625 75.96875 C 131.152344 76.394531 130.835938 76.761719 130.457031 77.074219 C 130.011719 77.449219 129.515625 77.722656 128.960938 77.894531 L 76.859375 94.03125 L 76.859375 16.226562 L 126.410156 0.90625 C 126.734375 0.808594 127.066406 0.746094 127.402344 0.726562 C 127.742188 0.703125 128.078125 0.71875 128.414062 0.777344 C 128.746094 0.832031 129.070312 0.929688 129.382812 1.0625 C 129.695312 1.195312 129.988281 1.363281 130.261719 1.5625 C 130.535156 1.765625 130.78125 1.996094 131 2.253906 C 131.21875 2.515625 131.402344 2.796875 131.558594 3.097656 C 131.710938 3.402344 131.828125 3.71875 131.90625 4.050781 C 131.984375 4.378906 132.023438 4.714844 132.023438 5.054688 Z M 132.023438 5.054688 " fill-opacity="1" fill-rule="nonzero"/></g></g></g></g></svg>