<svg xmlns="http://www.w3.org/2000/svg" xmlns:xlink="http://www.w3.org/1999/xlink" width="200" zoomAndPan="magnify" viewBox="0 0 150 149.999998" height="200" preserveAspectRatio="xMidYMid meet" version="1.0"><defs><clipPath id="89c62bc2ce"><path d="M 3 13 L 147 13 L 147 138.683594 L 3 138.683594 Z M 3 13 " clip-rule="nonzero"/></clipPath></defs><rect x="-15" width="180" fill="#ffffff" y="-15" height="179.999997" fill-opacity="1"/><rect x="-15" width="180" fill="#ffffff" y="-15" height="179.999997" fill-opacity="1"/><rect x="-15" width="180" fill="#ffffff" y="-15" height="179.999997" fill-opacity="1"/><g clip-path="url(#89c62bc2ce)"><path fill="#8a8a8a" d="M 74.945312 138.65625 C 73.984375 138.648438 73.359375 138.109375 73.21875 137.980469 L 17.738281 82.554688 C 4.53125 70.613281 -0.0117188 52.417969 6.144531 37.3125 C 13.316406 19.707031 31.421875 15.113281 32.644531 14.832031 C 48.199219 11.203125 64.828125 17.960938 74.960938 31.746094 C 85.097656 17.960938 101.726562 11.203125 117.28125 14.832031 C 118.0625 15.011719 136.523438 19.5 143.78125 37.3125 C 149.980469 52.539062 145.324219 70.710938 132.1875 82.554688 L 76.707031 137.980469 C 76.566406 138.105469 75.929688 138.664062 74.945312 138.65625 Z M 33.628906 19.046875 C 32.601562 19.285156 16.519531 23.328125 10.160156 38.945312 C 4.636719 52.503906 8.863281 68.75 20.679688 79.375 L 20.761719 79.453125 L 74.960938 133.597656 L 129.203125 79.410156 L 129.246094 79.375 C 141.0625 68.75 145.289062 52.503906 139.765625 38.945312 C 133.347656 23.183594 116.992188 19.207031 116.296875 19.046875 C 101.554688 15.609375 85.679688 22.71875 76.792969 36.742188 L 74.960938 39.628906 L 73.132812 36.742188 C 64.246094 22.636719 48.238281 15.628906 33.628906 19.046875 Z M 33.628906 19.046875 " fill-opacity="1" fill-rule="nonzero"/></g></svg>