<svg xmlns="http://www.w3.org/2000/svg" xmlns:xlink="http://www.w3.org/1999/xlink" width="200" zoomAndPan="magnify" viewBox="0 0 150 149.999998" height="200" preserveAspectRatio="xMidYMid meet" version="1.0"><defs><filter x="0%" y="0%" width="100%" height="100%" id="ec65d1e76b"><feColorMatrix values="0 0 0 0 1 0 0 0 0 1 0 0 0 0 1 0 0 0 1 0" color-interpolation-filters="sRGB"/></filter><mask id="600c591054"><g filter="url(#ec65d1e76b)"><rect x="-15" width="180" fill="#000000" y="-15" height="179.999997" fill-opacity="1"/></g></mask><clipPath id="11e1d5af21"><path d="M 0.5 0.238281 L 135.5 0.238281 L 135.5 149.457031 L 0.5 149.457031 Z M 0.5 0.238281 " clip-rule="nonzero"/></clipPath><clipPath id="2001830b55"><path d="M 16 0.238281 L 126 0.238281 L 126 149.457031 L 16 149.457031 Z M 16 0.238281 " clip-rule="nonzero"/></clipPath><clipPath id="02f91785e1"><rect x="0" width="137" y="0" height="150"/></clipPath></defs><rect x="-15" width="180" fill="transparent" y="-15" height="179.999997" fill-opacity="1"/><rect x="-15" width="180" fill="transparent" y="-15" height="179.999997" fill-opacity="1"/><rect x="-15" width="180" fill="transparent" y="-15" height="179.999997" fill-opacity="1"/><g mask="url(#600c591054)"><g transform="matrix(1, 0, 0, 1, 7, -0.000000000000007522)"><g clip-path="url(#02f91785e1)"><g clip-path="url(#11e1d5af21)"><path fill="#baafc8" d="M 117.238281 122.039062 L 117.238281 139.035156 C 117.238281 139.664062 117.171875 140.273438 117.054688 140.863281 C 118.160156 136.726562 117.984375 131.289062 117.90625 125.246094 C 117.894531 124.195312 117.882812 123.125 117.882812 122.039062 Z M 107.792969 148.457031 C 102.578125 148.457031 98.351562 144.238281 98.351562 139.035156 L 98.351562 122.039062 L 0.5 122.039062 L 0.5 129.425781 C 0.5 139.074219 7.5 147.078125 16.699219 148.691406 C 17.816406 148.890625 18.953125 149.011719 20.125 149.011719 L 104.902344 149.011719 C 110.691406 149.011719 113.9375 147.191406 115.746094 144.097656 C 114.070312 146.714844 111.136719 148.457031 107.792969 148.457031 Z M 135.496094 31.375 L 118.066406 31.375 L 118.066406 6.074219 C 119.257812 3.039062 122.039062 0.808594 125.398438 0.410156 C 125.75 0.371094 126.105469 0.34375 126.46875 0.34375 C 131.453125 0.34375 135.496094 4.375 135.496094 9.347656 L 135.496094 31.375 " fill-opacity="1" fill-rule="nonzero"/></g><g clip-path="url(#2001830b55)"><path fill="#9064aa" d="M 117.257812 122.058594 L 117.257812 0.445312 L 98.363281 0.445312 L 98.363281 139.066406 C 98.363281 144.273438 102.589844 148.492188 107.808594 148.492188 C 111.15625 148.492188 114.089844 146.75 115.769531 144.128906 C 116.390625 143.160156 116.84375 142.070312 117.074219 140.898438 C 117.191406 140.304688 117.257812 139.691406 117.257812 139.066406 Z M 118.089844 6.039062 L 118.089844 0.445312 L 117.257812 0.445312 L 117.257812 122.058594 L 117.90625 122.058594 C 117.90625 123.148438 117.914062 124.214844 117.929688 125.265625 C 118.035156 124.304688 118.089844 123.328125 118.089844 122.339844 Z M 16.675781 148.730469 L 16.675781 149.324219 L 91.046875 149.324219 C 92.355469 149.324219 93.640625 149.226562 94.898438 149.042969 L 20.101562 149.042969 C 18.933594 149.042969 17.789062 148.921875 16.675781 148.730469 Z M 92.183594 70.207031 C 92.492188 69.304688 91.679688 68.410156 90.746094 68.625 C 90.324219 68.726562 90.015625 69.058594 89.855469 69.460938 C 89.714844 69.820312 89.417969 70.144531 89.046875 70.292969 C 88.40625 70.554688 87.539062 70.371094 86.9375 69.855469 C 86.320312 69.332031 85.914062 68.476562 85.820312 67.515625 C 85.734375 66.636719 85.886719 65.625 86.285156 64.519531 C 86.351562 64.320312 86.429688 64.117188 86.507812 63.921875 C 86.847656 63.03125 87.234375 62.027344 87.199219 60.902344 C 87.125 58.496094 85.023438 56.382812 82.414062 56.085938 C 80.519531 55.871094 78.753906 56.351562 77.070312 57.726562 C 76.785156 57.960938 76.671875 58.339844 76.753906 58.699219 C 76.902344 59.328125 77.609375 59.628906 78.1875 59.328125 C 79.480469 58.671875 81.109375 58.390625 82.136719 58.503906 C 83.371094 58.648438 84.722656 59.671875 84.761719 60.976562 C 84.777344 61.613281 84.511719 62.3125 84.226562 63.050781 C 84.144531 63.269531 84.0625 63.484375 83.984375 63.703125 C 83.460938 65.175781 83.265625 66.496094 83.386719 67.753906 C 83.546875 69.335938 84.257812 70.777344 85.347656 71.703125 C 86.222656 72.453125 87.324219 72.847656 88.402344 72.847656 C 88.9375 72.847656 89.46875 72.75 89.960938 72.554688 C 91.027344 72.125 91.828125 71.230469 92.183594 70.207031 Z M 89.472656 82.234375 L 41.683594 82.234375 L 41.683594 84.726562 L 89.472656 84.726562 Z M 82.246094 88.332031 L 48.90625 88.332031 L 48.90625 90.824219 L 82.246094 90.824219 Z M 46.175781 64.757812 C 46.449219 62.808594 45.722656 60.738281 44.226562 59.203125 C 42.804688 57.753906 40.941406 57.039062 39.109375 57.253906 C 37.09375 57.488281 35.269531 58.792969 34.46875 60.574219 C 33.804688 62.0625 34.304688 63.8125 35.222656 65.203125 C 35.632812 65.816406 36.507812 65.898438 37.039062 65.382812 L 37.070312 65.351562 C 37.496094 64.941406 37.53125 64.289062 37.195312 63.800781 C 36.71875 63.109375 36.382812 62.273438 36.703125 61.570312 C 37.148438 60.570312 38.230469 59.808594 39.394531 59.671875 C 40.464844 59.546875 41.589844 59.996094 42.480469 60.90625 C 43.453125 61.898438 43.929688 63.214844 43.757812 64.417969 C 43.410156 66.890625 40.691406 68.832031 38.058594 68.488281 C 35.246094 68.121094 32.933594 65.332031 33.011719 62.398438 C 33.085938 59.546875 35.410156 56.777344 38.304688 56.089844 C 40.648438 55.53125 43.425781 56.15625 45.917969 57.804688 C 48.144531 59.277344 49.945312 61.304688 51.960938 63.902344 C 52.398438 64.460938 52.828125 65.023438 53.257812 65.589844 C 55.042969 67.933594 56.890625 70.355469 59.097656 72.445312 C 62.324219 75.5 65.875 77.320312 69.378906 77.710938 C 69.828125 77.761719 70.277344 77.785156 70.726562 77.785156 C 74.617188 77.785156 78.25 75.925781 80.046875 72.910156 C 81.945312 69.714844 81.601562 65.332031 79.222656 62.472656 C 77.851562 60.828125 76.066406 59.945312 74.175781 59.429688 C 75.894531 58.554688 77.324219 57.347656 78.027344 55.128906 C 79.191406 51.449219 78.058594 47.230469 75.207031 44.625 C 72.695312 42.328125 69.042969 41.472656 65.769531 42.3125 C 65.0625 42.492188 64.695312 43.285156 64.980469 43.957031 C 65.214844 44.523438 65.828125 44.808594 66.421875 44.660156 C 68.882812 44.054688 71.691406 44.714844 73.558594 46.421875 C 75.6875 48.367188 76.566406 51.648438 75.699219 54.394531 C 75.015625 56.546875 73.425781 57.234375 70.433594 58.355469 L 70.417969 58.359375 C 69.839844 58.578125 69.464844 59.144531 69.488281 59.757812 L 69.492188 59.894531 C 69.515625 60.625 70.074219 61.222656 70.800781 61.300781 C 73.746094 61.632812 75.898438 62.296875 77.34375 64.03125 C 79.082031 66.121094 79.339844 69.328125 77.945312 71.664062 C 76.449219 74.179688 73.039062 75.667969 69.648438 75.289062 C 65.898438 74.875 62.757812 72.554688 60.78125 70.679688 C 58.71875 68.722656 56.929688 66.382812 55.203125 64.113281 C 54.769531 63.546875 54.332031 62.976562 53.890625 62.410156 C 51.726562 59.621094 49.769531 57.425781 47.269531 55.777344 C 44.214844 53.757812 40.738281 53.007812 37.742188 53.71875 C 33.757812 54.667969 30.675781 58.367188 30.570312 62.332031 C 30.464844 66.453125 33.75 70.378906 37.742188 70.902344 C 41.695312 71.421875 45.640625 68.546875 46.175781 64.757812 Z M 65.714844 36.160156 C 68.285156 39.230469 71.703125 41.335938 75.265625 42.003906 C 76.085938 42.164062 76.914062 42.234375 77.734375 42.234375 C 80.90625 42.234375 83.984375 41.121094 86.214844 39.128906 C 86.753906 38.644531 86.726562 37.792969 86.183594 37.316406 L 86.179688 37.316406 C 85.710938 36.914062 85.019531 36.929688 84.558594 37.339844 C 82.308594 39.335938 78.953125 40.222656 75.71875 39.613281 C 72.699219 39.046875 69.78125 37.230469 67.566406 34.582031 C 67.164062 34.089844 66.445312 34.019531 65.933594 34.386719 C 65.359375 34.804688 65.257812 35.621094 65.714844 36.160156 Z M 74.945312 34.929688 C 74.945312 35.789062 75.644531 36.488281 76.507812 36.488281 C 77.375 36.488281 78.074219 35.789062 78.074219 34.929688 C 78.074219 34.0625 77.375 33.363281 76.507812 33.363281 C 75.644531 33.363281 74.945312 34.0625 74.945312 34.929688 Z M 98.363281 122.058594 L 16.675781 122.058594 L 16.675781 22.96875 C 16.675781 10.53125 26.78125 0.445312 39.25 0.445312 L 98.363281 0.445312 Z M 117.257812 0.445312 L 110.03125 0.445312 L 110.03125 0.378906 L 125.421875 0.378906 C 122.066406 0.773438 119.277344 3.003906 118.089844 6.039062 L 118.089844 0.445312 L 117.257812 0.445312 " fill-opacity="1" fill-rule="nonzero"/></g><path fill="transparent" d="M 48.917969 90.820312 L 82.242188 90.820312 L 82.242188 88.324219 L 48.917969 88.324219 Z M 41.695312 84.722656 L 89.464844 84.722656 L 89.464844 82.226562 L 41.695312 82.226562 Z M 76.507812 36.503906 C 77.371094 36.503906 78.070312 35.804688 78.070312 34.945312 C 78.070312 34.082031 77.371094 33.382812 76.507812 33.382812 C 75.640625 33.382812 74.945312 34.082031 74.945312 34.945312 C 74.945312 35.804688 75.640625 36.503906 76.507812 36.503906 Z M 75.257812 42.019531 C 76.082031 42.179688 76.914062 42.25 77.734375 42.25 C 80.902344 42.25 83.980469 41.136719 86.207031 39.144531 C 86.746094 38.664062 86.722656 37.808594 86.175781 37.335938 L 86.171875 37.332031 C 85.707031 36.929688 85.015625 36.949219 84.550781 37.355469 C 82.300781 39.355469 78.949219 40.238281 75.714844 39.628906 C 72.695312 39.0625 69.78125 37.246094 67.574219 34.597656 C 67.167969 34.113281 66.445312 34.035156 65.9375 34.40625 C 65.359375 34.824219 65.261719 35.640625 65.71875 36.179688 C 68.285156 39.25 71.703125 41.355469 75.257812 42.019531 Z M 90.734375 68.628906 C 90.308594 68.730469 90.007812 69.0625 89.847656 69.464844 C 89.707031 69.820312 89.40625 70.148438 89.039062 70.296875 C 88.402344 70.554688 87.53125 70.375 86.929688 69.859375 C 86.316406 69.332031 85.90625 68.480469 85.816406 67.519531 C 85.726562 66.640625 85.882812 65.628906 86.277344 64.523438 C 86.347656 64.324219 86.421875 64.128906 86.5 63.929688 C 86.839844 63.039062 87.226562 62.035156 87.191406 60.90625 C 87.117188 58.503906 85.015625 56.390625 82.410156 56.097656 C 80.515625 55.882812 78.75 56.359375 77.070312 57.734375 C 76.785156 57.964844 76.667969 58.347656 76.753906 58.703125 C 76.902344 59.339844 77.605469 59.636719 78.183594 59.339844 C 79.476562 58.679688 81.105469 58.398438 82.132812 58.515625 C 83.363281 58.65625 84.714844 59.675781 84.753906 60.984375 C 84.773438 61.617188 84.507812 62.316406 84.222656 63.054688 C 84.136719 63.273438 84.058594 63.488281 83.980469 63.707031 C 83.453125 65.179688 83.257812 66.5 83.382812 67.757812 C 83.542969 69.339844 84.253906 70.777344 85.34375 71.707031 C 86.21875 72.457031 87.316406 72.851562 88.394531 72.851562 C 88.929688 72.851562 89.460938 72.753906 89.953125 72.554688 C 91.019531 72.125 91.816406 71.230469 92.171875 70.207031 C 92.484375 69.304688 91.667969 68.410156 90.734375 68.628906 Z M 37.757812 70.90625 C 33.765625 70.382812 30.480469 66.460938 30.589844 62.335938 C 30.691406 58.375 33.773438 54.675781 37.757812 53.730469 C 40.753906 53.015625 44.226562 53.769531 47.28125 55.785156 C 49.78125 57.433594 51.734375 59.628906 53.898438 62.414062 C 54.339844 62.980469 54.773438 63.550781 55.210938 64.117188 C 56.9375 66.386719 58.722656 68.726562 60.785156 70.679688 C 62.761719 72.554688 65.902344 74.875 69.648438 75.289062 C 73.039062 75.667969 76.445312 74.179688 77.945312 71.664062 C 79.335938 69.332031 79.078125 66.125 77.339844 64.039062 C 75.894531 62.300781 73.742188 61.640625 70.800781 61.304688 C 70.074219 61.226562 69.515625 60.628906 69.492188 59.902344 L 69.488281 59.765625 C 69.46875 59.148438 69.839844 58.585938 70.417969 58.367188 L 70.433594 58.363281 C 73.425781 57.242188 75.015625 56.554688 75.695312 54.402344 C 76.566406 51.65625 75.683594 48.378906 73.558594 46.433594 C 71.691406 44.730469 68.882812 44.070312 66.425781 44.675781 C 65.832031 44.820312 65.214844 44.535156 64.980469 43.972656 C 64.699219 43.296875 65.066406 42.511719 65.769531 42.328125 C 69.042969 41.484375 72.691406 42.34375 75.207031 44.640625 C 78.054688 47.242188 79.1875 51.460938 78.023438 55.136719 C 77.320312 57.355469 75.894531 58.5625 74.171875 59.4375 C 76.066406 59.949219 77.847656 60.835938 79.214844 62.480469 C 81.59375 65.335938 81.941406 69.71875 80.042969 72.910156 C 78.246094 75.917969 74.613281 77.78125 70.726562 77.78125 C 70.277344 77.78125 69.828125 77.761719 69.378906 77.710938 C 65.878906 77.320312 62.328125 75.5 59.101562 72.445312 C 56.898438 70.355469 55.054688 67.933594 53.265625 65.59375 C 52.835938 65.03125 52.40625 64.464844 51.96875 63.910156 C 49.953125 61.308594 48.15625 59.28125 45.933594 57.816406 C 43.4375 56.164062 40.667969 55.542969 38.320312 56.097656 C 35.425781 56.785156 33.101562 59.550781 33.027344 62.402344 C 32.949219 65.335938 35.261719 68.125 38.074219 68.492188 C 40.703125 68.835938 43.421875 66.894531 43.773438 64.421875 C 43.941406 63.21875 43.464844 61.90625 42.492188 60.914062 C 41.605469 60.003906 40.480469 59.554688 39.410156 59.675781 C 38.25 59.816406 37.164062 60.578125 36.714844 61.578125 C 36.398438 62.28125 36.734375 63.113281 37.210938 63.808594 C 37.546875 64.292969 37.511719 64.945312 37.085938 65.355469 L 37.054688 65.386719 C 36.523438 65.902344 35.648438 65.820312 35.238281 65.207031 C 34.320312 63.816406 33.820312 62.066406 34.488281 60.582031 C 35.289062 58.800781 37.109375 57.496094 39.128906 57.261719 C 40.957031 57.050781 42.820312 57.761719 44.238281 59.210938 C 45.734375 60.742188 46.460938 62.816406 46.1875 64.761719 C 45.652344 68.550781 41.710938 71.421875 37.757812 70.90625 " fill-opacity="1" fill-rule="nonzero"/></g></g></g></svg>