<svg xmlns="http://www.w3.org/2000/svg" xmlns:xlink="http://www.w3.org/1999/xlink" width="200" zoomAndPan="magnify" viewBox="0 0 150 149.999998" height="200" preserveAspectRatio="xMidYMid meet" version="1.0"><rect x="-15" width="180" fill="#ffffff" y="-15" height="179.999997" fill-opacity="1"/><rect x="-15" width="180" fill="#ffffff" y="-15" height="179.999997" fill-opacity="1"/><rect x="-15" width="180" fill="#ffffff" y="-15" height="179.999997" fill-opacity="1"/><path fill="#8a8a8a" d="M 122.5 55 C 137.660156 55 150 42.664062 150 27.5 C 150 12.335938 137.660156 0 122.5 0 C 107.339844 0 95 12.335938 95 27.5 C 95 30.144531 95.394531 32.691406 96.09375 35.113281 L 49.398438 58.460938 C 44.296875 51.625 36.308594 47.5 27.5 47.5 C 12.335938 47.5 0 59.835938 0 75 C 0 90.164062 12.335938 102.5 27.5 102.5 C 36.320312 102.5 44.316406 98.363281 49.40625 91.542969 L 96.09375 114.886719 C 95.394531 117.308594 95 119.855469 95 122.5 C 95 137.664062 107.339844 150 122.5 150 C 137.660156 150 150 137.664062 150 122.5 C 150 107.335938 137.660156 95 122.5 95 C 113.554688 95 105.613281 99.316406 100.589844 105.953125 L 53.878906 82.597656 C 54.59375 80.148438 55 77.613281 55 75 C 55 72.382812 54.59375 69.84375 53.882812 67.402344 L 100.589844 44.046875 C 105.613281 50.683594 113.554688 55 122.5 55 Z M 122.5 105 C 132.148438 105 140 112.851562 140 122.5 C 140 132.148438 132.148438 140 122.5 140 C 112.851562 140 105 132.148438 105 122.5 C 105 112.851562 112.851562 105 122.5 105 Z M 27.5 92.5 C 17.851562 92.5 10 84.648438 10 75 C 10 65.351562 17.851562 57.5 27.5 57.5 C 34.195312 57.5 40.175781 61.203125 43.140625 67.214844 C 44.375 69.640625 45 72.257812 45 75 C 45 77.742188 44.375 80.359375 43.117188 82.835938 C 40.175781 88.796875 34.195312 92.5 27.5 92.5 Z M 122.5 10 C 132.148438 10 140 17.851562 140 27.5 C 140 37.148438 132.148438 45 122.5 45 C 112.851562 45 105 37.148438 105 27.5 C 105 17.851562 112.851562 10 122.5 10 Z M 122.5 10 " fill-opacity="1" fill-rule="nonzero"/></svg>