<svg xmlns="http://www.w3.org/2000/svg" xmlns:xlink="http://www.w3.org/1999/xlink" width="40" zoomAndPan="magnify" viewBox="0 0 150 149.999998" height="40" preserveAspectRatio="xMidYMid meet" version="1.0"><defs><clipPath id="1b78675524"><path d="M 0 7.5 L 150 7.5 L 150 142.5 L 0 142.5 Z M 0 7.5 " clip-rule="nonzero"/></clipPath></defs><rect x="-15" width="180" fill="transparent" y="-15" height="179.999997" fill-opacity="1"/><rect x="-15" width="180" fill="transparent" y="-15" height="179.999997" fill-opacity="1"/><rect x="-15" width="180" fill="transparent" y="-15" height="179.999997" fill-opacity="1"/><g clip-path="url(#1b78675524)"><path fill="#9064aa" d="M 68.375 81.3125 C 69.0625 81.3125 69.722656 81.28125 70.414062 81.3125 C 70.984375 81.339844 71.191406 81.191406 71.132812 80.589844 C 70.921875 78.851562 70.652344 77.144531 69.304688 75.703125 C 69.605469 75.675781 69.785156 75.644531 69.992188 75.644531 C 70.953125 75.644531 71.941406 75.613281 72.902344 75.644531 C 73.382812 75.644531 73.53125 75.496094 73.5 75.046875 C 73.351562 73.335938 73.203125 71.628906 72.152344 70.039062 C 72.542969 70.007812 72.839844 69.976562 73.140625 69.976562 C 73.742188 69.976562 74.339844 69.949219 74.910156 69.976562 C 75.390625 70.007812 75.507812 69.859375 75.480469 69.378906 C 75.390625 67.789062 75.269531 66.199219 74.671875 64.671875 C 74.640625 64.613281 74.640625 64.523438 74.609375 64.34375 C 75.691406 64.34375 76.738281 64.34375 77.757812 64.34375 C 77.9375 63.652344 77.757812 63.023438 77.277344 62.8125 C 75.898438 62.273438 75.628906 60.714844 76.050781 59.394531 C 76.527344 57.746094 77.519531 56.308594 78.449219 54.898438 C 79.015625 54.058594 79.617188 53.21875 80.277344 52.261719 C 80.875 53.097656 81.445312 53.789062 81.894531 54.570312 C 82.765625 56.039062 83.664062 57.476562 84.414062 59.035156 C 85.042969 60.355469 84.804688 62.09375 83.542969 62.691406 C 82.882812 62.992188 82.734375 63.503906 82.734375 64.101562 C 82.734375 64.132812 82.765625 64.164062 82.824219 64.3125 C 83.84375 64.3125 84.894531 64.3125 85.851562 64.3125 C 85.554688 66.199219 85.253906 68.03125 84.921875 69.976562 C 86.183594 69.976562 87.261719 69.976562 88.460938 69.976562 C 87.382812 71.777344 87.113281 73.636719 87.113281 75.675781 C 88.460938 75.675781 89.808594 75.675781 91.339844 75.675781 C 90.441406 76.605469 89.988281 77.535156 89.78125 78.582031 C 89.628906 79.363281 89.539062 80.140625 89.449219 80.921875 C 89.390625 81.25 89.601562 81.3125 89.871094 81.3125 C 90.441406 81.3125 91.007812 81.3125 91.578125 81.3125 C 91.757812 81.3125 91.9375 81.339844 92.089844 81.371094 C 91.667969 82.179688 91.160156 82.929688 90.890625 83.738281 C 90.589844 84.609375 90.5 85.539062 90.351562 86.4375 C 90.289062 86.828125 90.46875 86.945312 90.859375 86.945312 C 91.699219 86.917969 92.539062 86.945312 93.617188 86.945312 C 91.9375 88.445312 91.460938 90.304688 91.308594 92.375 C 93.886719 92.375 96.40625 92.375 98.925781 92.375 C 98.925781 90.453125 97.816406 88.417969 95.175781 87.15625 C 95.507812 87.097656 95.6875 87.066406 95.894531 87.066406 C 97.09375 87.066406 98.265625 87.035156 99.464844 87.066406 C 99.914062 87.066406 100.0625 86.917969 100.0625 86.496094 C 100.0625 85.957031 100.242188 85.449219 100.214844 84.910156 C 100.183594 84.546875 100.003906 84.160156 99.824219 83.828125 C 99.222656 82.808594 98.382812 82.03125 97.304688 81.402344 C 98.953125 81.402344 100.574219 81.402344 102.191406 81.402344 C 102.492188 79.601562 101.414062 77.652344 99.105469 75.734375 C 100.664062 75.734375 102.132812 75.734375 103.722656 75.734375 C 103.601562 73.367188 102.851562 71.449219 100.902344 70.039062 C 101.710938 70.039062 102.492188 70.039062 103.300781 70.039062 C 103.539062 70.039062 103.78125 70.039062 104.019531 70.039062 C 105.070312 70.039062 105.160156 69.949219 104.949219 68.929688 C 104.589844 67.28125 104.082031 65.691406 102.550781 64.671875 C 102.523438 64.640625 102.523438 64.613281 102.492188 64.460938 C 102.703125 64.433594 102.910156 64.402344 103.121094 64.402344 C 103.929688 64.402344 104.738281 64.402344 105.550781 64.402344 C 106.210938 64.402344 106.269531 64.3125 106.179688 63.683594 C 105.9375 61.882812 105.460938 60.175781 103.8125 58.855469 C 104.140625 58.824219 104.320312 58.796875 104.5 58.796875 C 105.28125 58.796875 106.03125 58.796875 106.808594 58.796875 C 107.167969 58.796875 107.320312 58.644531 107.257812 58.285156 C 107.046875 56.398438 106.6875 54.570312 105.039062 53.160156 C 105.339844 53.128906 105.519531 53.128906 105.730469 53.101562 C 106.390625 53.101562 107.019531 53.070312 107.679688 53.101562 C 108.039062 53.101562 108.21875 53.007812 108.1875 52.621094 C 108.066406 50.941406 107.738281 49.292969 106.628906 47.941406 C 106.570312 47.851562 106.480469 47.761719 106.417969 47.644531 C 106.390625 47.613281 106.417969 47.554688 106.417969 47.433594 C 107.257812 47.433594 108.128906 47.433594 109.027344 47.433594 C 109.148438 45.304688 108.636719 43.445312 107.226562 41.738281 C 108.15625 41.738281 108.9375 41.738281 109.746094 41.738281 C 110.105469 41.738281 110.464844 41.738281 110.796875 41.738281 C 111.457031 41.707031 111.546875 41.617188 111.457031 40.957031 C 111.214844 39.367188 111.097656 37.75 110.195312 36.339844 C 110.167969 36.3125 110.167969 36.222656 110.167969 36.070312 C 111.246094 36.070312 112.324219 36.070312 113.496094 36.070312 C 113.3125 34.152344 113.285156 32.292969 112.476562 30.433594 C 113.613281 30.433594 114.664062 30.433594 115.683594 30.433594 C 115.863281 29.59375 115.683594 29.144531 115.082031 28.875 C 113.644531 28.1875 113.554688 26.386719 114.0625 25.097656 C 114.933594 22.96875 116.253906 21.109375 117.542969 19.253906 C 117.691406 19.011719 117.8125 18.710938 117.839844 18.441406 C 117.902344 16.734375 117.960938 15.054688 117.929688 13.347656 C 117.929688 11.9375 117.75 10.527344 117.75 9.117188 C 117.75 8.578125 117.960938 8.039062 118.050781 7.5 C 118.109375 7.558594 118.171875 7.621094 118.230469 7.679688 C 118.5625 7.710938 118.890625 7.769531 119.21875 7.769531 C 121.078125 7.621094 122.847656 7.859375 124.617188 8.460938 C 126.355469 9.027344 128.125 9.207031 129.921875 8.757812 C 130.042969 8.730469 130.164062 8.730469 130.28125 8.789062 C 129.054688 10.046875 127.675781 10.976562 125.785156 11.308594 C 126.835938 12.476562 128.09375 13.105469 129.625 13.195312 C 129.625 13.257812 129.625 13.285156 129.625 13.347656 C 129.265625 13.4375 128.933594 13.554688 128.574219 13.617188 C 126.894531 13.824219 125.214844 13.945312 123.597656 13.105469 C 122.488281 12.535156 121.230469 12.566406 120 12.597656 C 118.410156 12.625 118.410156 12.625 118.410156 14.214844 C 118.410156 15.566406 118.410156 16.945312 118.410156 18.292969 C 118.410156 18.5625 118.53125 18.863281 118.679688 19.101562 C 119.820312 20.992188 121.019531 22.820312 122.097656 24.738281 C 122.789062 25.96875 122.667969 27.558594 121.949219 28.335938 C 121.769531 28.546875 121.527344 28.695312 121.289062 28.847656 C 120.71875 29.175781 120.507812 29.566406 120.570312 30.40625 C 121.617188 30.40625 122.667969 30.40625 123.835938 30.40625 C 123.179688 32.292969 122.847656 34.121094 122.96875 36.070312 C 124.015625 36.070312 125.066406 36.070312 126.207031 36.070312 C 125.9375 36.730469 125.605469 37.269531 125.484375 37.871094 C 125.246094 38.980469 125.125 40.117188 124.945312 41.226562 C 124.886719 41.617188 125.066406 41.738281 125.425781 41.738281 C 126.59375 41.707031 127.792969 41.738281 129.113281 41.738281 C 127.703125 43.417969 127.316406 45.335938 127.253906 47.402344 C 128.214844 47.402344 129.113281 47.402344 130.042969 47.402344 C 129.625 48.121094 129.175781 48.753906 128.84375 49.441406 C 128.363281 50.460938 128.214844 51.539062 128.183594 52.648438 C 128.183594 52.980469 128.304688 53.097656 128.632812 53.097656 C 129.472656 53.070312 130.3125 53.097656 131.210938 53.097656 C 130.792969 53.699219 130.375 54.238281 130.042969 54.808594 C 129.414062 55.886719 129.324219 57.117188 129.113281 58.316406 C 129.054688 58.644531 129.234375 58.765625 129.535156 58.765625 C 130.3125 58.765625 131.121094 58.765625 131.902344 58.765625 C 132.082031 58.765625 132.292969 58.796875 132.621094 58.796875 C 130.761719 60.265625 130.402344 62.214844 130.132812 64.371094 C 131.421875 64.371094 132.652344 64.371094 133.878906 64.371094 C 133.910156 64.402344 133.910156 64.460938 133.941406 64.492188 C 132.140625 65.839844 131.480469 67.730469 131.363281 69.976562 C 132.769531 69.976562 134.089844 69.976562 135.441406 69.976562 C 135.46875 70.039062 135.5 70.066406 135.5 70.128906 C 133.492188 71.386719 132.832031 73.335938 132.5625 75.644531 C 134.121094 75.644531 135.621094 75.644531 137.117188 75.644531 C 137.148438 75.703125 137.148438 75.734375 137.179688 75.792969 C 135.050781 76.992188 134.242188 78.914062 133.96875 81.3125 C 135.679688 81.3125 137.328125 81.3125 138.949219 81.3125 C 138.226562 81.96875 137.507812 82.539062 136.878906 83.167969 C 136.160156 83.917969 135.980469 84.820312 136.160156 85.835938 C 136.367188 87.15625 136.097656 86.976562 137.386719 86.976562 C 138.378906 86.976562 139.367188 86.976562 140.355469 86.976562 C 140.566406 86.976562 140.777344 87.007812 140.984375 87.097656 C 138.796875 88.144531 137.628906 89.886719 137.238281 92.285156 C 137.476562 92.3125 137.660156 92.3125 137.867188 92.3125 C 139.15625 92.3125 140.476562 92.3125 141.765625 92.3125 C 142.605469 92.3125 142.605469 92.3125 142.605469 93.183594 C 142.605469 93.902344 142.636719 94.59375 142.605469 95.3125 C 142.574219 95.820312 142.785156 95.910156 143.203125 95.910156 C 144.582031 95.882812 145.960938 95.910156 147.339844 95.910156 C 147.582031 95.910156 147.792969 95.941406 148.089844 96.0625 C 147.761719 96.242188 147.433594 96.421875 147.132812 96.628906 C 145.84375 97.53125 145.09375 98.789062 144.882812 100.347656 C 144.824219 100.828125 144.613281 100.976562 144.164062 100.976562 C 142.574219 100.949219 140.957031 100.976562 139.277344 100.976562 C 139.308594 101.636719 139.367188 102.265625 139.367188 102.894531 C 139.367188 103.675781 139.398438 104.484375 139.277344 105.265625 C 139.1875 105.894531 138.917969 106.433594 138.136719 106.523438 C 137.957031 106.554688 137.808594 106.644531 137.628906 106.734375 C 137.867188 108.503906 138.136719 110.242188 138.378906 112.011719 C 138.558594 113.417969 138.765625 114.828125 138.886719 116.238281 C 139.039062 118.246094 139.097656 120.253906 139.15625 122.261719 C 139.15625 122.773438 139.007812 123.3125 138.886719 123.824219 C 138.828125 124.121094 138.796875 124.300781 139.15625 124.390625 C 139.9375 124.570312 140.328125 125.140625 140.355469 125.890625 C 140.417969 126.96875 140.386719 128.050781 140.386719 129.1875 C 140.625 129.21875 140.867188 129.25 141.074219 129.25 C 143.746094 129.25 146.414062 129.277344 149.082031 129.25 C 149.648438 129.25 149.832031 129.429688 149.832031 130 C 149.859375 133.894531 149.921875 137.761719 149.949219 141.660156 C 149.949219 142.441406 149.949219 142.441406 149.140625 142.441406 C 139.578125 142.441406 129.984375 142.441406 120.417969 142.441406 C 119.011719 142.441406 117.632812 142.410156 116.222656 142.410156 C 110.464844 142.410156 104.738281 142.441406 98.984375 142.441406 C 93.226562 142.441406 87.5 142.441406 81.746094 142.441406 C 80.457031 142.441406 79.167969 142.5 77.90625 142.5 C 65.644531 142.46875 53.414062 142.441406 41.152344 142.441406 C 27.660156 142.441406 14.171875 142.441406 0.710938 142.441406 C 0.199219 142.441406 0.0507812 142.289062 0.078125 141.808594 C 0.109375 141.121094 0.109375 140.429688 0.140625 139.742188 C 0.140625 139.351562 0.289062 139.171875 0.710938 139.171875 C 1.550781 139.203125 2.359375 139.140625 3.199219 139.171875 C 3.648438 139.203125 3.859375 139.082031 3.796875 138.574219 C 3.765625 138.09375 3.796875 137.582031 3.796875 137.105469 C 3.796875 136.683594 3.976562 136.535156 4.367188 136.5625 C 5.238281 136.5625 6.105469 136.5625 6.976562 136.5625 C 7.425781 136.5625 7.636719 136.414062 7.574219 135.933594 C 7.574219 135.90625 7.574219 135.90625 7.574219 135.875 C 7.664062 134.34375 7.664062 134.34375 9.195312 134.34375 C 9.792969 134.34375 10.394531 134.34375 10.960938 134.34375 C 11.324219 134.34375 11.472656 134.195312 11.441406 133.867188 C 11.441406 133.804688 11.441406 133.746094 11.441406 133.6875 C 11.472656 132.21875 11.472656 132.21875 12.910156 132.21875 C 14.558594 132.21875 16.179688 132.1875 17.828125 132.21875 C 18.335938 132.21875 18.578125 132.097656 18.546875 131.527344 C 18.519531 131.019531 18.578125 130.507812 18.546875 130 C 18.519531 129.398438 18.789062 129.21875 19.355469 129.25 C 21.007812 129.277344 22.625 129.25 24.363281 129.25 C 24.332031 128.828125 24.242188 128.4375 24.273438 128.050781 C 24.332031 127.148438 24.394531 126.25 24.542969 125.382812 C 24.632812 124.839844 25.054688 124.511719 25.59375 124.390625 C 25.953125 124.332031 25.984375 124.183594 25.921875 123.851562 C 25.773438 123.011719 25.5625 122.144531 25.59375 121.304688 C 25.621094 119.566406 25.773438 117.855469 25.921875 116.117188 C 26.042969 114.617188 26.222656 113.121094 26.433594 111.621094 C 26.640625 110.03125 26.882812 108.414062 27.121094 106.792969 C 26.972656 106.734375 26.851562 106.613281 26.703125 106.582031 C 25.710938 106.464844 25.472656 105.714844 25.414062 104.933594 C 25.324219 103.675781 25.382812 102.417969 25.382812 101.066406 C 25.203125 101.066406 24.902344 101.007812 24.605469 101.039062 C 24.035156 101.097656 23.882812 100.828125 23.824219 100.347656 C 23.644531 99 23.015625 97.890625 21.996094 97.019531 C 21.574219 96.660156 21.097656 96.421875 20.496094 96.03125 C 20.824219 96 21.035156 95.972656 21.246094 95.972656 C 22.65625 95.972656 24.0625 95.941406 25.441406 95.972656 C 25.921875 95.972656 26.132812 95.820312 26.101562 95.339844 C 26.074219 94.59375 26.132812 93.84375 26.074219 93.09375 C 26.042969 92.554688 26.222656 92.375 26.792969 92.375 C 30.328125 92.402344 33.867188 92.375 37.40625 92.375 C 38.246094 92.375 38.273438 92.375 38.183594 91.535156 C 38.035156 90.003906 37.703125 88.535156 36.683594 87.335938 C 36.625 87.277344 36.59375 87.15625 36.503906 86.976562 C 36.777344 86.945312 36.984375 86.917969 37.164062 86.917969 C 38.15625 86.917969 39.144531 86.917969 40.132812 86.917969 C 40.464844 86.917969 40.644531 86.828125 40.613281 86.4375 C 40.492188 85.058594 40.402344 83.679688 39.832031 82.390625 C 39.683594 82.058594 39.503906 81.761719 39.292969 81.3125 C 40.433594 81.3125 41.511719 81.3125 42.679688 81.3125 C 42.5 79.332031 42.472656 77.503906 41.664062 75.644531 C 42.800781 75.644531 43.851562 75.644531 44.898438 75.644531 C 45.050781 74.773438 44.871094 74.355469 44.210938 74.027344 C 42.769531 73.277344 42.800781 71.359375 43.28125 70.308594 C 43.640625 69.527344 44.03125 68.71875 44.480469 67.96875 C 44.929688 67.21875 45.441406 66.53125 45.917969 65.8125 C 46.308594 65.242188 46.667969 64.640625 47.027344 64.042969 C 47.269531 63.683594 47.476562 63.621094 47.75 64.042969 C 48.828125 65.722656 49.964844 67.371094 50.984375 69.078125 C 51.527344 69.976562 51.886719 70.9375 51.765625 72.046875 C 51.675781 72.945312 51.285156 73.574219 50.535156 73.996094 C 49.964844 74.324219 49.726562 74.773438 49.847656 75.585938 C 50.894531 75.585938 51.976562 75.585938 53.113281 75.585938 C 52.453125 77.234375 52.246094 78.851562 52.214844 80.53125 C 52.214844 81.070312 52.335938 81.28125 52.90625 81.25 C 53.535156 81.222656 54.164062 81.25 54.792969 81.25 C 55.003906 81.25 55.214844 81.28125 55.363281 81.3125 C 55.0625 82.179688 54.703125 82.988281 54.492188 83.828125 C 54.3125 84.699219 54.253906 85.628906 54.195312 86.527344 C 54.195312 86.617188 54.492188 86.855469 54.671875 86.855469 C 55.664062 86.886719 56.652344 86.855469 57.640625 86.886719 C 57.851562 86.886719 58.03125 86.917969 58.390625 86.945312 C 56.953125 88.507812 56.683594 90.335938 56.503906 92.253906 C 60.789062 92.253906 64.957031 92.253906 69.242188 92.253906 C 69.035156 90.273438 68.644531 88.417969 67.054688 87.007812 C 67.085938 86.945312 67.117188 86.917969 67.144531 86.855469 C 67.894531 86.855469 68.675781 86.855469 69.421875 86.855469 C 70.171875 86.855469 70.203125 86.828125 70.144531 86.078125 C 69.992188 84.339844 69.605469 82.691406 68.285156 81.429688 C 68.375 81.429688 68.375 81.371094 68.375 81.3125 Z M 60.847656 101.007812 C 51.375 101.007812 42.023438 101.007812 32.578125 101.007812 C 32.609375 101.515625 32.699219 101.9375 32.699219 102.386719 C 32.699219 103.347656 32.699219 104.304688 32.609375 105.265625 C 32.546875 105.773438 32.367188 106.285156 31.796875 106.464844 C 30.929688 106.734375 30.929688 106.824219 31.078125 107.691406 C 31.320312 109.132812 31.527344 110.570312 31.738281 112.011719 C 31.890625 113.238281 32.007812 114.46875 32.160156 115.699219 C 32.488281 118.515625 32.9375 121.363281 32.128906 124.273438 C 33.269531 124.363281 33.6875 125.140625 33.835938 126.132812 C 33.898438 126.582031 33.898438 127.03125 33.898438 127.480469 C 33.898438 128.019531 33.835938 128.558594 33.777344 129.160156 C 42.472656 129.160156 51.105469 129.160156 59.832031 129.160156 C 59.738281 128.679688 59.648438 128.230469 59.621094 127.808594 C 59.589844 127.390625 59.53125 126.941406 59.589844 126.519531 C 59.832031 125.113281 59.921875 124.570312 61.238281 124.273438 C 61.269531 124.273438 61.300781 124.210938 61.269531 124.210938 C 61.121094 123.28125 60.9375 122.382812 60.878906 121.515625 C 60.847656 120.585938 60.9375 119.65625 61 118.726562 C 61.03125 118.125 61.121094 117.554688 61.179688 116.957031 C 61.328125 115.519531 61.449219 114.078125 61.628906 112.667969 C 61.867188 110.839844 62.136719 109.042969 62.410156 107.242188 C 62.46875 106.792969 62.320312 106.554688 61.898438 106.492188 C 61.269531 106.433594 60.9375 106.015625 60.878906 105.503906 C 60.757812 104.484375 60.757812 103.4375 60.757812 102.386719 C 60.730469 101.96875 60.820312 101.546875 60.847656 101.007812 Z M 83.214844 113.121094 C 81.265625 113.121094 79.316406 113.121094 77.488281 113.121094 C 77.816406 112.488281 78.207031 111.859375 78.476562 111.199219 C 78.65625 110.75 78.65625 110.210938 78.777344 109.703125 C 78.867188 109.191406 78.925781 108.683594 79.527344 108.472656 C 79.617188 108.441406 79.648438 108.171875 79.707031 107.992188 C 79.796875 107.691406 79.765625 107.363281 79.945312 107.125 C 80.1875 106.824219 80.1875 106.675781 79.917969 106.375 C 79.558594 105.984375 79.558594 105.535156 79.945312 105.144531 C 80.1875 104.90625 80.214844 104.726562 79.976562 104.457031 C 79.828125 104.277344 79.648438 103.914062 79.738281 103.796875 C 80.125 103.167969 80.097656 102.597656 79.738281 101.9375 C 79.617188 101.726562 79.917969 101.308594 80.035156 101.007812 C 76.019531 101.007812 72.003906 101.007812 68.015625 101.007812 C 68.015625 102.328125 68.042969 103.585938 68.015625 104.84375 C 67.984375 105.746094 67.625 106.222656 66.785156 106.464844 C 66.605469 106.523438 66.425781 106.613281 66.304688 106.675781 C 66.574219 108.652344 66.90625 110.601562 67.144531 112.519531 C 67.355469 114.347656 67.476562 116.175781 67.714844 117.976562 C 67.953125 119.953125 68.074219 121.902344 67.566406 123.851562 C 67.535156 123.972656 67.683594 124.242188 67.804688 124.273438 C 68.703125 124.480469 69.0625 125.140625 69.09375 125.949219 C 69.152344 126.761719 69.125 127.570312 69.09375 128.378906 C 69.0625 129.160156 69.0625 129.160156 69.84375 129.160156 C 78.296875 129.160156 86.753906 129.160156 95.207031 129.160156 C 95.417969 129.160156 95.625 129.128906 95.894531 129.128906 C 95.867188 128.738281 95.835938 128.378906 95.835938 128.019531 C 95.835938 127.332031 95.804688 126.640625 95.867188 125.949219 C 95.957031 125.203125 96.226562 124.511719 97.09375 124.332031 C 97.546875 124.242188 97.515625 124.003906 97.425781 123.640625 C 97.273438 123.074219 97.125 122.472656 97.125 121.902344 C 97.183594 119.925781 97.273438 117.976562 97.453125 115.996094 C 97.664062 113.71875 97.996094 111.46875 98.265625 109.191406 C 98.382812 108.351562 98.503906 107.484375 98.625 106.644531 C 98.445312 106.554688 98.324219 106.464844 98.175781 106.464844 C 97.453125 106.375 97.09375 105.925781 97.003906 105.265625 C 96.914062 104.546875 96.855469 103.824219 96.855469 103.105469 C 96.855469 102.417969 96.945312 101.695312 97.003906 101.007812 C 91.578125 101.007812 86.183594 101.007812 80.847656 101.007812 C 80.964844 101.367188 81.207031 101.726562 81.117188 101.9375 C 80.785156 102.597656 80.847656 103.136719 81.117188 103.796875 C 81.207031 104.035156 80.875 104.484375 80.726562 104.875 C 81.296875 105.625 81.296875 105.625 80.785156 106.554688 C 80.726562 106.644531 80.757812 106.882812 80.847656 106.945312 C 81.234375 107.273438 81.175781 107.664062 81.144531 108.082031 C 81.144531 108.203125 81.144531 108.441406 81.234375 108.472656 C 81.746094 108.773438 81.804688 109.28125 81.894531 109.792969 C 82.015625 111.019531 82.136719 112.25 83.214844 113.121094 Z M 80.457031 107.214844 C 80.246094 107.484375 80.035156 107.632812 80.066406 107.722656 C 80.125 107.902344 80.277344 108.054688 80.394531 108.234375 C 80.515625 108.082031 80.726562 107.964844 80.757812 107.8125 C 80.816406 107.664062 80.636719 107.511719 80.457031 107.214844 Z M 80.726562 105.476562 C 80.488281 105.476562 80.304688 105.476562 80.066406 105.476562 C 80.066406 105.683594 80.035156 105.894531 80.035156 106.105469 C 80.304688 106.105469 80.515625 106.105469 80.785156 106.105469 C 80.785156 105.863281 80.757812 105.65625 80.726562 105.476562 Z M 80.726562 101.605469 C 80.214844 101.515625 79.917969 101.605469 80.097656 102.175781 C 80.335938 102.175781 80.546875 102.175781 80.847656 102.175781 C 80.785156 101.96875 80.757812 101.789062 80.726562 101.605469 Z M 80.097656 104.15625 C 80.335938 104.15625 80.546875 104.15625 80.785156 104.15625 C 80.785156 103.945312 80.757812 103.765625 80.757812 103.585938 C 80.246094 103.496094 79.917969 103.554688 80.097656 104.15625 Z M 80.097656 104.15625 " fill-opacity="1" fill-rule="nonzero"/></g></svg>