<svg xmlns="http://www.w3.org/2000/svg" xmlns:xlink="http://www.w3.org/1999/xlink" width="200" zoomAndPan="magnify" viewBox="0 0 150 149.999998" height="200" preserveAspectRatio="xMidYMid meet" version="1.0"><defs><clipPath id="94e3e520e0"><path d="M 7.5 0.722656 L 142 0.722656 L 142 148 L 7.5 148 Z M 7.5 0.722656 " clip-rule="nonzero"/></clipPath></defs><rect x="-15" width="180" fill="#ffffff" y="-15" height="179.999997" fill-opacity="1"/><rect x="-15" width="180" fill="#ffffff" y="-15" height="179.999997" fill-opacity="1"/><rect x="-15" width="180" fill="#ffffff" y="-15" height="179.999997" fill-opacity="1"/><g clip-path="url(#94e3e520e0)"><path fill="#8a8a8a" d="M 54.269531 87.429688 C 43.128906 97.800781 30.820312 106.523438 17.34375 113.597656 C 16.957031 113.804688 16.554688 113.972656 16.132812 114.101562 C 15.714844 114.226562 15.285156 114.3125 14.847656 114.359375 C 14.414062 114.402344 13.976562 114.402344 13.539062 114.359375 C 13.101562 114.316406 12.671875 114.234375 12.253906 114.105469 C 11.832031 113.980469 11.429688 113.8125 11.042969 113.605469 C 10.652344 113.402344 10.289062 113.160156 9.949219 112.878906 C 9.609375 112.601562 9.300781 112.292969 9.023438 111.957031 C 8.742188 111.617188 8.5 111.253906 8.292969 110.867188 C 8.085938 110.480469 7.917969 110.078125 7.789062 109.65625 C 7.664062 109.238281 7.578125 108.808594 7.53125 108.371094 C 7.488281 107.9375 7.488281 107.5 7.53125 107.0625 C 7.574219 106.625 7.660156 106.199219 7.785156 105.777344 C 7.910156 105.359375 8.078125 104.953125 8.285156 104.566406 C 8.492188 104.179688 8.734375 103.816406 9.011719 103.476562 C 9.289062 103.136719 9.597656 102.828125 9.9375 102.550781 C 10.277344 102.269531 10.640625 102.027344 11.027344 101.820312 C 22.304688 95.867188 32.730469 88.679688 42.304688 80.253906 L 30.796875 73.351562 C 30.421875 73.125 30.070312 72.863281 29.746094 72.570312 C 29.421875 72.273438 29.128906 71.949219 28.871094 71.597656 C 28.609375 71.246094 28.382812 70.871094 28.199219 70.476562 C 28.011719 70.078125 27.863281 69.667969 27.757812 69.242188 C 27.652344 68.816406 27.585938 68.382812 27.566406 67.945312 C 27.546875 67.507812 27.566406 67.074219 27.632812 66.640625 C 27.695312 66.207031 27.804688 65.78125 27.953125 65.371094 C 28.097656 64.957031 28.285156 64.5625 28.511719 64.1875 C 28.738281 63.8125 28.996094 63.460938 29.292969 63.136719 C 29.585938 62.8125 29.910156 62.519531 30.261719 62.257812 C 30.617188 61.996094 30.988281 61.773438 31.386719 61.585938 C 31.785156 61.398438 32.195312 61.25 32.621094 61.144531 C 33.046875 61.039062 33.476562 60.972656 33.914062 60.953125 C 34.351562 60.929688 34.789062 60.953125 35.222656 61.015625 C 35.65625 61.082031 36.082031 61.1875 36.492188 61.335938 C 36.90625 61.480469 37.300781 61.667969 37.675781 61.894531 L 52.117188 70.554688 C 56.898438 65.277344 61.113281 59.578125 64.765625 53.464844 C 68.414062 47.347656 71.425781 40.933594 73.800781 34.21875 L 14.183594 34.21875 C 13.746094 34.21875 13.308594 34.175781 12.878906 34.089844 C 12.449219 34.003906 12.03125 33.878906 11.625 33.710938 C 11.21875 33.542969 10.835938 33.335938 10.46875 33.089844 C 10.105469 32.847656 9.769531 32.570312 9.457031 32.261719 C 9.148438 31.949219 8.871094 31.613281 8.625 31.25 C 8.382812 30.882812 8.175781 30.5 8.007812 30.09375 C 7.839844 29.6875 7.714844 29.269531 7.628906 28.839844 C 7.542969 28.410156 7.5 27.976562 7.5 27.535156 C 7.5 27.097656 7.542969 26.664062 7.628906 26.234375 C 7.714844 25.804688 7.839844 25.386719 8.007812 24.980469 C 8.175781 24.574219 8.382812 24.191406 8.625 23.824219 C 8.871094 23.460938 9.148438 23.121094 9.457031 22.8125 C 9.769531 22.503906 10.105469 22.226562 10.46875 21.980469 C 10.835938 21.738281 11.21875 21.53125 11.625 21.363281 C 12.03125 21.195312 12.449219 21.070312 12.878906 20.984375 C 13.308594 20.898438 13.746094 20.855469 14.183594 20.855469 L 47.597656 20.855469 L 47.597656 7.492188 C 47.597656 7.054688 47.640625 6.621094 47.726562 6.191406 C 47.8125 5.761719 47.941406 5.34375 48.109375 4.9375 C 48.277344 4.53125 48.480469 4.144531 48.726562 3.78125 C 48.96875 3.417969 49.246094 3.078125 49.554688 2.769531 C 49.867188 2.460938 50.203125 2.183594 50.570312 1.9375 C 50.933594 1.695312 51.320312 1.488281 51.726562 1.320312 C 52.128906 1.152344 52.546875 1.027344 52.976562 0.941406 C 53.410156 0.855469 53.84375 0.8125 54.28125 0.8125 C 54.722656 0.8125 55.15625 0.855469 55.585938 0.941406 C 56.015625 1.027344 56.433594 1.152344 56.839844 1.320312 C 57.246094 1.488281 57.628906 1.695312 57.996094 1.9375 C 58.359375 2.183594 58.699219 2.460938 59.007812 2.769531 C 59.316406 3.078125 59.59375 3.417969 59.839844 3.78125 C 60.082031 4.144531 60.289062 4.53125 60.457031 4.9375 C 60.625 5.34375 60.75 5.761719 60.835938 6.191406 C 60.921875 6.621094 60.964844 7.054688 60.964844 7.492188 L 60.964844 20.855469 L 96.386719 20.855469 C 96.824219 20.855469 97.257812 20.898438 97.691406 20.984375 C 98.121094 21.070312 98.539062 21.195312 98.945312 21.363281 C 99.347656 21.53125 99.734375 21.738281 100.097656 21.980469 C 100.464844 22.226562 100.800781 22.503906 101.113281 22.8125 C 101.421875 23.121094 101.699219 23.460938 101.941406 23.824219 C 102.1875 24.191406 102.394531 24.574219 102.5625 24.980469 C 102.726562 25.386719 102.855469 25.804688 102.941406 26.234375 C 103.027344 26.664062 103.070312 27.097656 103.070312 27.535156 C 103.070312 27.976562 103.027344 28.410156 102.941406 28.839844 C 102.855469 29.269531 102.726562 29.6875 102.5625 30.09375 C 102.394531 30.5 102.1875 30.882812 101.941406 31.25 C 101.699219 31.613281 101.421875 31.949219 101.113281 32.261719 C 100.800781 32.570312 100.464844 32.847656 100.097656 33.089844 C 99.734375 33.335938 99.347656 33.542969 98.945312 33.710938 C 98.539062 33.878906 98.121094 34.003906 97.691406 34.089844 C 97.257812 34.175781 96.824219 34.21875 96.386719 34.21875 L 87.84375 34.21875 C 85.359375 42.1875 82.085938 49.820312 78.023438 57.117188 C 73.960938 64.410156 69.195312 71.210938 63.730469 77.523438 L 71.085938 81.9375 C 71.46875 82.160156 71.820312 82.421875 72.148438 82.714844 C 72.476562 83.007812 72.773438 83.332031 73.039062 83.683594 C 73.304688 84.039062 73.53125 84.414062 73.71875 84.8125 C 73.910156 85.207031 74.058594 85.621094 74.167969 86.046875 C 74.277344 86.476562 74.34375 86.910156 74.363281 87.347656 C 74.386719 87.789062 74.367188 88.226562 74.300781 88.664062 C 74.238281 89.097656 74.132812 89.523438 73.984375 89.941406 C 73.835938 90.355469 73.648438 90.75 73.421875 91.128906 C 73.195312 91.507812 72.933594 91.859375 72.636719 92.183594 C 72.339844 92.511719 72.011719 92.804688 71.660156 93.066406 C 71.304688 93.328125 70.925781 93.554688 70.527344 93.738281 C 70.128906 93.925781 69.714844 94.074219 69.285156 94.179688 C 68.859375 94.285156 68.425781 94.347656 67.984375 94.367188 C 67.542969 94.386719 67.105469 94.359375 66.667969 94.292969 C 66.234375 94.226562 65.808594 94.117188 65.394531 93.964844 C 64.980469 93.816406 64.585938 93.625 64.210938 93.394531 Z M 137.46875 147.09375 C 137.074219 147.289062 136.667969 147.445312 136.242188 147.5625 C 135.820312 147.675781 135.390625 147.75 134.953125 147.78125 C 134.515625 147.8125 134.078125 147.800781 133.640625 147.746094 C 133.207031 147.691406 132.78125 147.59375 132.363281 147.457031 C 131.949219 147.316406 131.550781 147.140625 131.167969 146.921875 C 130.785156 146.703125 130.429688 146.453125 130.097656 146.164062 C 129.765625 145.878906 129.46875 145.558594 129.199219 145.214844 C 128.929688 144.867188 128.695312 144.496094 128.5 144.105469 L 118.261719 123.632812 C 116.933594 124.304688 115.570312 124.894531 114.171875 125.402344 C 112.773438 125.914062 111.351562 126.339844 109.902344 126.6875 C 108.453125 127.03125 106.992188 127.289062 105.511719 127.460938 C 104.035156 127.636719 102.550781 127.722656 101.0625 127.722656 C 99.574219 127.722656 98.09375 127.636719 96.613281 127.460938 C 95.136719 127.289062 93.671875 127.03125 92.222656 126.6875 C 90.777344 126.339844 89.355469 125.914062 87.957031 125.402344 C 86.558594 124.894531 85.195312 124.304688 83.863281 123.632812 L 73.625 144.105469 C 73.429688 144.496094 73.199219 144.867188 72.929688 145.210938 C 72.660156 145.558594 72.359375 145.875 72.027344 146.164062 C 71.695312 146.449219 71.339844 146.703125 70.957031 146.917969 C 70.578125 147.136719 70.179688 147.316406 69.761719 147.453125 C 69.347656 147.59375 68.921875 147.6875 68.484375 147.742188 C 68.050781 147.796875 67.613281 147.808594 67.175781 147.777344 C 66.738281 147.746094 66.308594 147.675781 65.882812 147.558594 C 65.460938 147.441406 65.054688 147.285156 64.660156 147.089844 C 64.269531 146.894531 63.898438 146.660156 63.550781 146.394531 C 63.207031 146.125 62.890625 145.824219 62.601562 145.492188 C 62.3125 145.160156 62.0625 144.804688 61.84375 144.425781 C 61.625 144.042969 61.449219 143.644531 61.308594 143.226562 C 61.171875 142.8125 61.074219 142.386719 61.019531 141.953125 C 60.964844 141.515625 60.953125 141.082031 60.984375 140.644531 C 61.015625 140.207031 61.085938 139.773438 61.203125 139.351562 C 61.320312 138.929688 61.472656 138.519531 61.671875 138.128906 L 89.109375 83.269531 C 89.664062 82.160156 90.359375 81.148438 91.195312 80.234375 C 92.035156 79.316406 92.980469 78.53125 94.035156 77.878906 C 95.09375 77.226562 96.21875 76.734375 97.410156 76.394531 C 98.605469 76.054688 99.824219 75.886719 101.0625 75.886719 C 102.304688 75.886719 103.523438 76.054688 104.71875 76.394531 C 105.910156 76.734375 107.035156 77.230469 108.09375 77.882812 C 109.148438 78.535156 110.09375 79.320312 110.929688 80.234375 C 111.769531 81.152344 112.464844 82.164062 113.019531 83.273438 L 140.457031 138.125 C 140.652344 138.519531 140.808594 138.925781 140.921875 139.347656 C 141.039062 139.773438 141.113281 140.203125 141.144531 140.640625 C 141.175781 141.078125 141.164062 141.515625 141.109375 141.949219 C 141.054688 142.382812 140.957031 142.808594 140.816406 143.226562 C 140.679688 143.644531 140.5 144.042969 140.285156 144.421875 C 140.066406 144.804688 139.8125 145.160156 139.527344 145.492188 C 139.238281 145.824219 138.921875 146.121094 138.574219 146.390625 C 138.230469 146.660156 137.859375 146.894531 137.46875 147.089844 Z M 112.285156 111.683594 L 101.0625 89.246094 L 89.84375 111.683594 C 91.582031 112.554688 93.402344 113.21875 95.296875 113.667969 C 97.191406 114.117188 99.117188 114.339844 101.0625 114.339844 C 103.011719 114.339844 104.933594 114.117188 106.828125 113.667969 C 108.726562 113.21875 110.542969 112.554688 112.285156 111.683594 Z M 112.285156 111.683594 " fill-opacity="1" fill-rule="nonzero"/></g></svg>